G04*
G04 #@! TF.GenerationSoftware,Altium Limited,Altium Designer,20.2.4 (192)*
G04*
G04 Layer_Color=2752767*
%FSLAX24Y24*%
%MOIN*%
G70*
G04*
G04 #@! TF.SameCoordinates,B9BB7F2B-B7AC-4897-A438-396A0F5AD448*
G04*
G04*
G04 #@! TF.FilePolarity,Positive*
G04*
G01*
G75*
%ADD197C,0.0020*%
%ADD198C,0.0027*%
%ADD199C,0.0013*%
D197*
X36687Y91129D02*
Y91289D01*
X36847D01*
Y91129D01*
X36687D01*
X36187D02*
Y91289D01*
X36347D01*
Y91129D01*
X36187D01*
X35687D02*
Y91289D01*
X35847D01*
Y91129D01*
X35687D01*
X35187D02*
Y91289D01*
X35347D01*
Y91129D01*
X35187D01*
X34687D02*
Y91289D01*
X34847D01*
Y91129D01*
X34687D01*
X34187D02*
Y91289D01*
X34347D01*
Y91129D01*
X34187D01*
X33687D02*
Y91289D01*
X33847D01*
Y91129D01*
X33687D01*
X33187D02*
Y91289D01*
X33347D01*
Y91129D01*
X33187D01*
X36687Y90629D02*
Y90789D01*
X36847D01*
Y90629D01*
X36687D01*
X36187D02*
Y90789D01*
X36347D01*
Y90629D01*
X36187D01*
X35687D02*
Y90789D01*
X35847D01*
Y90629D01*
X35687D01*
X35187D02*
Y90789D01*
X35347D01*
Y90629D01*
X35187D01*
X34687D02*
Y90789D01*
X34847D01*
Y90629D01*
X34687D01*
X34187D02*
Y90789D01*
X34347D01*
Y90629D01*
X34187D01*
X33687D02*
Y90789D01*
X33847D01*
Y90629D01*
X33687D01*
X33187D02*
Y90789D01*
X33347D01*
Y90629D01*
X33187D01*
X57892Y8626D02*
X57812Y8787D01*
X57972D01*
X57892Y8626D01*
X68484Y40599D02*
X68524Y40639D01*
X68564D01*
X68524Y40679D01*
X68564Y40719D01*
X68524D01*
X68484Y40759D01*
X68444Y40719D01*
X68404D01*
X68444Y40679D01*
X68404Y40639D01*
X68444D01*
X68484Y40599D01*
X67364Y8626D02*
X67284Y8787D01*
X67444D01*
X67364Y8626D01*
X61209Y50833D02*
X61249Y50913D01*
X61209Y50993D01*
X61289Y50953D01*
X61369Y50993D01*
X61329Y50913D01*
X61369Y50833D01*
X61289Y50873D01*
X61209Y50833D01*
X68484Y23424D02*
X68524Y23464D01*
X68564D01*
X68524Y23504D01*
X68564Y23544D01*
X68524D01*
X68484Y23584D01*
X68444Y23544D01*
X68404D01*
X68444Y23504D01*
X68404Y23464D01*
X68444D01*
X68484Y23424D01*
X56772Y40599D02*
X56812Y40639D01*
X56852D01*
X56812Y40679D01*
X56852Y40719D01*
X56812D01*
X56772Y40759D01*
X56732Y40719D01*
X56692D01*
X56732Y40679D01*
X56692Y40639D01*
X56732D01*
X56772Y40599D01*
Y23424D02*
X56812Y23464D01*
X56852D01*
X56812Y23504D01*
X56852Y23544D01*
X56812D01*
X56772Y23584D01*
X56732Y23544D01*
X56692D01*
X56732Y23504D01*
X56692Y23464D01*
X56732D01*
X56772Y23424D01*
X63217Y50833D02*
X63257Y50913D01*
X63217Y50993D01*
X63297Y50953D01*
X63377Y50993D01*
X63337Y50913D01*
X63377Y50833D01*
X63297Y50873D01*
X63217Y50833D01*
X61879D02*
X61919Y50913D01*
X61879Y50993D01*
X61959Y50953D01*
X62039Y50993D01*
X61999Y50913D01*
X62039Y50833D01*
X61959Y50873D01*
X61879Y50833D01*
X62548D02*
X62588Y50913D01*
X62548Y50993D01*
X62628Y50953D01*
X62708Y50993D01*
X62668Y50913D01*
X62708Y50833D01*
X62628Y50873D01*
X62548Y50833D01*
X63887D02*
X63927Y50913D01*
X63887Y50993D01*
X63967Y50953D01*
X64047Y50993D01*
X64007Y50913D01*
X64047Y50833D01*
X63967Y50873D01*
X63887Y50833D01*
X39398Y8626D02*
X39318Y8787D01*
X39478D01*
X39398Y8626D01*
X49990Y40599D02*
X50030Y40639D01*
X50070D01*
X50030Y40679D01*
X50070Y40719D01*
X50030D01*
X49990Y40759D01*
X49950Y40719D01*
X49910D01*
X49950Y40679D01*
X49910Y40639D01*
X49950D01*
X49990Y40599D01*
X48870Y8626D02*
X48790Y8787D01*
X48950D01*
X48870Y8626D01*
X42715Y50833D02*
X42755Y50913D01*
X42715Y50993D01*
X42795Y50953D01*
X42875Y50993D01*
X42835Y50913D01*
X42875Y50833D01*
X42795Y50873D01*
X42715Y50833D01*
X49990Y23424D02*
X50030Y23464D01*
X50070D01*
X50030Y23504D01*
X50070Y23544D01*
X50030D01*
X49990Y23584D01*
X49950Y23544D01*
X49910D01*
X49950Y23504D01*
X49910Y23464D01*
X49950D01*
X49990Y23424D01*
X38278Y40599D02*
X38318Y40639D01*
X38358D01*
X38318Y40679D01*
X38358Y40719D01*
X38318D01*
X38278Y40759D01*
X38238Y40719D01*
X38198D01*
X38238Y40679D01*
X38198Y40639D01*
X38238D01*
X38278Y40599D01*
Y23424D02*
X38318Y23464D01*
X38358D01*
X38318Y23504D01*
X38358Y23544D01*
X38318D01*
X38278Y23584D01*
X38238Y23544D01*
X38198D01*
X38238Y23504D01*
X38198Y23464D01*
X38238D01*
X38278Y23424D01*
X44723Y50833D02*
X44763Y50913D01*
X44723Y50993D01*
X44803Y50953D01*
X44883Y50993D01*
X44843Y50913D01*
X44883Y50833D01*
X44803Y50873D01*
X44723Y50833D01*
X43385D02*
X43425Y50913D01*
X43385Y50993D01*
X43465Y50953D01*
X43545Y50993D01*
X43505Y50913D01*
X43545Y50833D01*
X43465Y50873D01*
X43385Y50833D01*
X44054D02*
X44094Y50913D01*
X44054Y50993D01*
X44134Y50953D01*
X44214Y50993D01*
X44174Y50913D01*
X44214Y50833D01*
X44134Y50873D01*
X44054Y50833D01*
X45392D02*
X45432Y50913D01*
X45392Y50993D01*
X45472Y50953D01*
X45552Y50993D01*
X45512Y50913D01*
X45552Y50833D01*
X45472Y50873D01*
X45392Y50833D01*
X20904Y8626D02*
X20824Y8787D01*
X20984D01*
X20904Y8626D01*
X31496Y40599D02*
X31536Y40639D01*
X31576D01*
X31536Y40679D01*
X31576Y40719D01*
X31536D01*
X31496Y40759D01*
X31456Y40719D01*
X31416D01*
X31456Y40679D01*
X31416Y40639D01*
X31456D01*
X31496Y40599D01*
X30376Y8626D02*
X30296Y8787D01*
X30456D01*
X30376Y8626D01*
X24221Y50833D02*
X24261Y50913D01*
X24221Y50993D01*
X24301Y50953D01*
X24381Y50993D01*
X24341Y50913D01*
X24381Y50833D01*
X24301Y50873D01*
X24221Y50833D01*
X31496Y23424D02*
X31536Y23464D01*
X31576D01*
X31536Y23504D01*
X31576Y23544D01*
X31536D01*
X31496Y23584D01*
X31456Y23544D01*
X31416D01*
X31456Y23504D01*
X31416Y23464D01*
X31456D01*
X31496Y23424D01*
X19783Y40599D02*
X19823Y40639D01*
X19863D01*
X19823Y40679D01*
X19863Y40719D01*
X19823D01*
X19783Y40759D01*
X19743Y40719D01*
X19703D01*
X19743Y40679D01*
X19703Y40639D01*
X19743D01*
X19783Y40599D01*
Y23424D02*
X19823Y23464D01*
X19863D01*
X19823Y23504D01*
X19863Y23544D01*
X19823D01*
X19783Y23584D01*
X19743Y23544D01*
X19703D01*
X19743Y23504D01*
X19703Y23464D01*
X19743D01*
X19783Y23424D01*
X26229Y50833D02*
X26269Y50913D01*
X26229Y50993D01*
X26309Y50953D01*
X26389Y50993D01*
X26349Y50913D01*
X26389Y50833D01*
X26309Y50873D01*
X26229Y50833D01*
X24890D02*
X24930Y50913D01*
X24890Y50993D01*
X24970Y50953D01*
X25050Y50993D01*
X25010Y50913D01*
X25050Y50833D01*
X24970Y50873D01*
X24890Y50833D01*
X25560D02*
X25600Y50913D01*
X25560Y50993D01*
X25640Y50953D01*
X25720Y50993D01*
X25680Y50913D01*
X25720Y50833D01*
X25640Y50873D01*
X25560Y50833D01*
X26898D02*
X26938Y50913D01*
X26898Y50993D01*
X26978Y50953D01*
X27058Y50993D01*
X27018Y50913D01*
X27058Y50833D01*
X26978Y50873D01*
X26898Y50833D01*
X18164Y85837D02*
Y85797D01*
X18244D01*
Y85837D01*
X18284D01*
Y85917D01*
X18244D01*
Y85957D01*
X18164D01*
Y85917D01*
X18124D01*
Y85837D01*
X18164D01*
X38484Y75167D02*
Y75127D01*
X38564D01*
Y75167D01*
X38604D01*
Y75247D01*
X38564D01*
Y75287D01*
X38484D01*
Y75247D01*
X38444D01*
Y75167D01*
X38484D01*
X48621Y83306D02*
X48661D01*
X48701Y83346D01*
X48741Y83306D01*
X48781D01*
Y83346D01*
X48741Y83386D01*
X48781Y83426D01*
Y83466D01*
X48741D01*
X48701Y83426D01*
X48661Y83466D01*
X48621D01*
Y83426D01*
X48661Y83386D01*
X48621Y83346D01*
Y83306D01*
X50589D02*
X50629D01*
X50669Y83346D01*
X50709Y83306D01*
X50749D01*
Y83346D01*
X50709Y83386D01*
X50749Y83426D01*
Y83466D01*
X50709D01*
X50669Y83426D01*
X50629Y83466D01*
X50589D01*
Y83426D01*
X50629Y83386D01*
X50589Y83346D01*
Y83306D01*
X84726Y75089D02*
X84806Y75169D01*
X84886Y75089D01*
X84806Y75009D01*
X84726Y75089D01*
X83726D02*
X83806Y75169D01*
X83886Y75089D01*
X83806Y75009D01*
X83726Y75089D01*
X84726Y78089D02*
X84806Y78169D01*
X84886Y78089D01*
X84806Y78009D01*
X84726Y78089D01*
X83726D02*
X83806Y78169D01*
X83886Y78089D01*
X83806Y78009D01*
X83726Y78089D01*
X84726Y77089D02*
X84806Y77169D01*
X84886Y77089D01*
X84806Y77009D01*
X84726Y77089D01*
X83726D02*
X83806Y77169D01*
X83886Y77089D01*
X83806Y77009D01*
X83726Y77089D01*
X84726Y76089D02*
X84806Y76169D01*
X84886Y76089D01*
X84806Y76009D01*
X84726Y76089D01*
X83726D02*
X83806Y76169D01*
X83886Y76089D01*
X83806Y76009D01*
X83726Y76089D01*
Y74089D02*
X83806Y74169D01*
X83886Y74089D01*
X83806Y74009D01*
X83726Y74089D01*
X84726D02*
X84806Y74169D01*
X84886Y74089D01*
X84806Y74009D01*
X84726Y74089D01*
X83726Y71089D02*
X83806Y71169D01*
X83886Y71089D01*
X83806Y71009D01*
X83726Y71089D01*
X84726D02*
X84806Y71169D01*
X84886Y71089D01*
X84806Y71009D01*
X84726Y71089D01*
X83726Y72089D02*
X83806Y72169D01*
X83886Y72089D01*
X83806Y72009D01*
X83726Y72089D01*
X84726D02*
X84806Y72169D01*
X84886Y72089D01*
X84806Y72009D01*
X84726Y72089D01*
X83726Y73089D02*
X83806Y73169D01*
X83886Y73089D01*
X83806Y73009D01*
X83726Y73089D01*
X84726D02*
X84806Y73169D01*
X84886Y73089D01*
X84806Y73009D01*
X84726Y73089D01*
X66009Y78245D02*
X66049D01*
X66089Y78285D01*
X66129Y78245D01*
X66169D01*
Y78285D01*
X66129Y78325D01*
X66169Y78365D01*
Y78405D01*
X66129D01*
X66089Y78365D01*
X66049Y78405D01*
X66009D01*
Y78365D01*
X66049Y78325D01*
X66009Y78285D01*
Y78245D01*
Y70772D02*
X66049D01*
X66089Y70812D01*
X66129Y70772D01*
X66169D01*
Y70812D01*
X66129Y70852D01*
X66169Y70892D01*
Y70932D01*
X66129D01*
X66089Y70892D01*
X66049Y70932D01*
X66009D01*
Y70892D01*
X66049Y70852D01*
X66009Y70812D01*
Y70772D01*
X71973Y81278D02*
Y81438D01*
X72133D01*
Y81278D01*
X71973D01*
X72013Y81318D02*
Y81398D01*
X72093D01*
Y81318D01*
X72013D01*
X85225Y52244D02*
X85305Y52324D01*
X85385Y52244D01*
X85305Y52164D01*
X85225Y52244D01*
X86225D02*
X86305Y52324D01*
X86385Y52244D01*
X86305Y52164D01*
X86225Y52244D01*
X73089Y48110D02*
X73169Y48190D01*
X73249Y48110D01*
X73169Y48030D01*
X73089Y48110D01*
Y47110D02*
X73169Y47190D01*
X73249Y47110D01*
X73169Y47030D01*
X73089Y47110D01*
X81679Y18355D02*
X81599Y18515D01*
X81759D01*
X81679Y18355D01*
Y18395D02*
X81639Y18475D01*
X81719D01*
X81679Y18395D01*
X79679Y18355D02*
X79599Y18515D01*
X79759D01*
X79679Y18355D01*
Y18395D02*
X79639Y18475D01*
X79719D01*
X79679Y18395D01*
X75679Y18355D02*
X75599Y18515D01*
X75759D01*
X75679Y18355D01*
Y18395D02*
X75639Y18475D01*
X75719D01*
X75679Y18395D01*
X82679Y36355D02*
X82599Y36515D01*
X82759D01*
X82679Y36355D01*
Y36395D02*
X82639Y36475D01*
X82719D01*
X82679Y36395D01*
X78679Y36355D02*
X78599Y36515D01*
X78759D01*
X78679Y36355D01*
Y36395D02*
X78639Y36475D01*
X78719D01*
X78679Y36395D01*
X74679Y36355D02*
X74599Y36515D01*
X74759D01*
X74679Y36355D01*
Y36395D02*
X74639Y36475D01*
X74719D01*
X74679Y36395D01*
X78722Y38961D02*
Y39121D01*
X78882D01*
Y38961D01*
X78722D01*
Y40339D02*
Y40499D01*
X78882D01*
Y40339D01*
X78722D01*
X82927Y44694D02*
X82967Y44734D01*
X83007D01*
X82967Y44774D01*
X83007Y44814D01*
X82967D01*
X82927Y44854D01*
X82887Y44814D01*
X82847D01*
X82887Y44774D01*
X82847Y44734D01*
X82887D01*
X82927Y44694D01*
Y44734D02*
X82947Y44754D01*
X82967D01*
X82947Y44774D01*
X82967Y44794D01*
X82947D01*
X82927Y44814D01*
X82907Y44794D01*
X82887D01*
X82907Y44774D01*
X82887Y44754D01*
X82907D01*
X82927Y44734D01*
X85927Y44694D02*
X85967Y44734D01*
X86007D01*
X85967Y44774D01*
X86007Y44814D01*
X85967D01*
X85927Y44854D01*
X85887Y44814D01*
X85847D01*
X85887Y44774D01*
X85847Y44734D01*
X85887D01*
X85927Y44694D01*
Y44734D02*
X85947Y44754D01*
X85967D01*
X85947Y44774D01*
X85967Y44794D01*
X85947D01*
X85927Y44814D01*
X85907Y44794D01*
X85887D01*
X85907Y44774D01*
X85887Y44754D01*
X85907D01*
X85927Y44734D01*
Y47694D02*
X85967Y47734D01*
X86007D01*
X85967Y47774D01*
X86007Y47814D01*
X85967D01*
X85927Y47854D01*
X85887Y47814D01*
X85847D01*
X85887Y47774D01*
X85847Y47734D01*
X85887D01*
X85927Y47694D01*
Y47734D02*
X85947Y47754D01*
X85967D01*
X85947Y47774D01*
X85967Y47794D01*
X85947D01*
X85927Y47814D01*
X85907Y47794D01*
X85887D01*
X85907Y47774D01*
X85887Y47754D01*
X85907D01*
X85927Y47734D01*
X84927Y47694D02*
X84967Y47734D01*
X85007D01*
X84967Y47774D01*
X85007Y47814D01*
X84967D01*
X84927Y47854D01*
X84887Y47814D01*
X84847D01*
X84887Y47774D01*
X84847Y47734D01*
X84887D01*
X84927Y47694D01*
Y47734D02*
X84947Y47754D01*
X84967D01*
X84947Y47774D01*
X84967Y47794D01*
X84947D01*
X84927Y47814D01*
X84907Y47794D01*
X84887D01*
X84907Y47774D01*
X84887Y47754D01*
X84907D01*
X84927Y47734D01*
X83927Y47694D02*
X83967Y47734D01*
X84007D01*
X83967Y47774D01*
X84007Y47814D01*
X83967D01*
X83927Y47854D01*
X83887Y47814D01*
X83847D01*
X83887Y47774D01*
X83847Y47734D01*
X83887D01*
X83927Y47694D01*
Y47734D02*
X83947Y47754D01*
X83967D01*
X83947Y47774D01*
X83967Y47794D01*
X83947D01*
X83927Y47814D01*
X83907Y47794D01*
X83887D01*
X83907Y47774D01*
X83887Y47754D01*
X83907D01*
X83927Y47734D01*
X59973Y61278D02*
Y61438D01*
X60133D01*
Y61278D01*
X59973D01*
X60013Y61318D02*
Y61398D01*
X60093D01*
Y61318D01*
X60013D01*
X59973Y62278D02*
Y62438D01*
X60133D01*
Y62278D01*
X59973D01*
X60013Y62318D02*
Y62398D01*
X60093D01*
Y62318D01*
X60013D01*
X60973Y61278D02*
Y61438D01*
X61133D01*
Y61278D01*
X60973D01*
X61013Y61318D02*
Y61398D01*
X61093D01*
Y61318D01*
X61013D01*
X60973Y62278D02*
Y62438D01*
X61133D01*
Y62278D01*
X60973D01*
X61013Y62318D02*
Y62398D01*
X61093D01*
Y62318D01*
X61013D01*
X61973Y61278D02*
Y61438D01*
X62133D01*
Y61278D01*
X61973D01*
X62013Y61318D02*
Y61398D01*
X62093D01*
Y61318D01*
X62013D01*
X61973Y62278D02*
Y62438D01*
X62133D01*
Y62278D01*
X61973D01*
X62013Y62318D02*
Y62398D01*
X62093D01*
Y62318D01*
X62013D01*
X62973Y61278D02*
Y61438D01*
X63133D01*
Y61278D01*
X62973D01*
X63013Y61318D02*
Y61398D01*
X63093D01*
Y61318D01*
X63013D01*
X62973Y62278D02*
Y62438D01*
X63133D01*
Y62278D01*
X62973D01*
X63013Y62318D02*
Y62398D01*
X63093D01*
Y62318D01*
X63013D01*
X63973Y61278D02*
Y61438D01*
X64133D01*
Y61278D01*
X63973D01*
X64013Y61318D02*
Y61398D01*
X64093D01*
Y61318D01*
X64013D01*
X63973Y62278D02*
Y62438D01*
X64133D01*
Y62278D01*
X63973D01*
X64013Y62318D02*
Y62398D01*
X64093D01*
Y62318D01*
X64013D01*
X64973Y61278D02*
Y61438D01*
X65133D01*
Y61278D01*
X64973D01*
X65013Y61318D02*
Y61398D01*
X65093D01*
Y61318D01*
X65013D01*
X64973Y62278D02*
Y62438D01*
X65133D01*
Y62278D01*
X64973D01*
X65013Y62318D02*
Y62398D01*
X65093D01*
Y62318D01*
X65013D01*
X65973Y61278D02*
Y61438D01*
X66133D01*
Y61278D01*
X65973D01*
X66013Y61318D02*
Y61398D01*
X66093D01*
Y61318D01*
X66013D01*
X65973Y62278D02*
Y62438D01*
X66133D01*
Y62278D01*
X65973D01*
X66013Y62318D02*
Y62398D01*
X66093D01*
Y62318D01*
X66013D01*
X66973Y61278D02*
Y61438D01*
X67133D01*
Y61278D01*
X66973D01*
X67013Y61318D02*
Y61398D01*
X67093D01*
Y61318D01*
X67013D01*
X66973Y62278D02*
Y62438D01*
X67133D01*
Y62278D01*
X66973D01*
X67013Y62318D02*
Y62398D01*
X67093D01*
Y62318D01*
X67013D01*
X67973Y61278D02*
Y61438D01*
X68133D01*
Y61278D01*
X67973D01*
X68013Y61318D02*
Y61398D01*
X68093D01*
Y61318D01*
X68013D01*
X67973Y62278D02*
Y62438D01*
X68133D01*
Y62278D01*
X67973D01*
X68013Y62318D02*
Y62398D01*
X68093D01*
Y62318D01*
X68013D01*
X68973Y61278D02*
Y61438D01*
X69133D01*
Y61278D01*
X68973D01*
X69013Y61318D02*
Y61398D01*
X69093D01*
Y61318D01*
X69013D01*
X68973Y62278D02*
Y62438D01*
X69133D01*
Y62278D01*
X68973D01*
X69013Y62318D02*
Y62398D01*
X69093D01*
Y62318D01*
X69013D01*
X69973Y61278D02*
Y61438D01*
X70133D01*
Y61278D01*
X69973D01*
X70013Y61318D02*
Y61398D01*
X70093D01*
Y61318D01*
X70013D01*
X69973Y62278D02*
Y62438D01*
X70133D01*
Y62278D01*
X69973D01*
X70013Y62318D02*
Y62398D01*
X70093D01*
Y62318D01*
X70013D01*
X70973Y61278D02*
Y61438D01*
X71133D01*
Y61278D01*
X70973D01*
X71013Y61318D02*
Y61398D01*
X71093D01*
Y61318D01*
X71013D01*
X70973Y62278D02*
Y62438D01*
X71133D01*
Y62278D01*
X70973D01*
X71013Y62318D02*
Y62398D01*
X71093D01*
Y62318D01*
X71013D01*
X71973Y61278D02*
Y61438D01*
X72133D01*
Y61278D01*
X71973D01*
X72013Y61318D02*
Y61398D01*
X72093D01*
Y61318D01*
X72013D01*
X71973Y62278D02*
Y62438D01*
X72133D01*
Y62278D01*
X71973D01*
X72013Y62318D02*
Y62398D01*
X72093D01*
Y62318D01*
X72013D01*
X72973Y61278D02*
Y61438D01*
X73133D01*
Y61278D01*
X72973D01*
X73013Y61318D02*
Y61398D01*
X73093D01*
Y61318D01*
X73013D01*
X72973Y62278D02*
Y62438D01*
X73133D01*
Y62278D01*
X72973D01*
X73013Y62318D02*
Y62398D01*
X73093D01*
Y62318D01*
X73013D01*
X73973Y61278D02*
Y61438D01*
X74133D01*
Y61278D01*
X73973D01*
X74013Y61318D02*
Y61398D01*
X74093D01*
Y61318D01*
X74013D01*
X73973Y62278D02*
Y62438D01*
X74133D01*
Y62278D01*
X73973D01*
X74013Y62318D02*
Y62398D01*
X74093D01*
Y62318D01*
X74013D01*
X74973Y61278D02*
Y61438D01*
X75133D01*
Y61278D01*
X74973D01*
X75013Y61318D02*
Y61398D01*
X75093D01*
Y61318D01*
X75013D01*
X74973Y62278D02*
Y62438D01*
X75133D01*
Y62278D01*
X74973D01*
X75013Y62318D02*
Y62398D01*
X75093D01*
Y62318D01*
X75013D01*
X75973Y61278D02*
Y61438D01*
X76133D01*
Y61278D01*
X75973D01*
X76013Y61318D02*
Y61398D01*
X76093D01*
Y61318D01*
X76013D01*
X75973Y62278D02*
Y62438D01*
X76133D01*
Y62278D01*
X75973D01*
X76013Y62318D02*
Y62398D01*
X76093D01*
Y62318D01*
X76013D01*
X76973Y61278D02*
Y61438D01*
X77133D01*
Y61278D01*
X76973D01*
X77013Y61318D02*
Y61398D01*
X77093D01*
Y61318D01*
X77013D01*
X76973Y62278D02*
Y62438D01*
X77133D01*
Y62278D01*
X76973D01*
X77013Y62318D02*
Y62398D01*
X77093D01*
Y62318D01*
X77013D01*
X77973Y61278D02*
Y61438D01*
X78133D01*
Y61278D01*
X77973D01*
X78013Y61318D02*
Y61398D01*
X78093D01*
Y61318D01*
X78013D01*
X77973Y62278D02*
Y62438D01*
X78133D01*
Y62278D01*
X77973D01*
X78013Y62318D02*
Y62398D01*
X78093D01*
Y62318D01*
X78013D01*
X78973Y61278D02*
Y61438D01*
X79133D01*
Y61278D01*
X78973D01*
X79013Y61318D02*
Y61398D01*
X79093D01*
Y61318D01*
X79013D01*
X78973Y62278D02*
Y62438D01*
X79133D01*
Y62278D01*
X78973D01*
X79013Y62318D02*
Y62398D01*
X79093D01*
Y62318D01*
X79013D01*
X79973Y61278D02*
Y61438D01*
X80133D01*
Y61278D01*
X79973D01*
X80013Y61318D02*
Y61398D01*
X80093D01*
Y61318D01*
X80013D01*
X79973Y62278D02*
Y62438D01*
X80133D01*
Y62278D01*
X79973D01*
X80013Y62318D02*
Y62398D01*
X80093D01*
Y62318D01*
X80013D01*
X80973Y61278D02*
Y61438D01*
X81133D01*
Y61278D01*
X80973D01*
X81013Y61318D02*
Y61398D01*
X81093D01*
Y61318D01*
X81013D01*
X80973Y62278D02*
Y62438D01*
X81133D01*
Y62278D01*
X80973D01*
X81013Y62318D02*
Y62398D01*
X81093D01*
Y62318D01*
X81013D01*
X81973Y61278D02*
Y61438D01*
X82133D01*
Y61278D01*
X81973D01*
X82013Y61318D02*
Y61398D01*
X82093D01*
Y61318D01*
X82013D01*
X81973Y62278D02*
Y62438D01*
X82133D01*
Y62278D01*
X81973D01*
X82013Y62318D02*
Y62398D01*
X82093D01*
Y62318D01*
X82013D01*
X82973Y61278D02*
Y61438D01*
X83133D01*
Y61278D01*
X82973D01*
X83013Y61318D02*
Y61398D01*
X83093D01*
Y61318D01*
X83013D01*
X82973Y62278D02*
Y62438D01*
X83133D01*
Y62278D01*
X82973D01*
X83013Y62318D02*
Y62398D01*
X83093D01*
Y62318D01*
X83013D01*
X83973Y61278D02*
Y61438D01*
X84133D01*
Y61278D01*
X83973D01*
X84013Y61318D02*
Y61398D01*
X84093D01*
Y61318D01*
X84013D01*
X83973Y62278D02*
Y62438D01*
X84133D01*
Y62278D01*
X83973D01*
X84013Y62318D02*
Y62398D01*
X84093D01*
Y62318D01*
X84013D01*
X83973Y82278D02*
Y82438D01*
X84133D01*
Y82278D01*
X83973D01*
X84013Y82318D02*
Y82398D01*
X84093D01*
Y82318D01*
X84013D01*
X83973Y81278D02*
Y81438D01*
X84133D01*
Y81278D01*
X83973D01*
X84013Y81318D02*
Y81398D01*
X84093D01*
Y81318D01*
X84013D01*
X82973Y82278D02*
Y82438D01*
X83133D01*
Y82278D01*
X82973D01*
X83013Y82318D02*
Y82398D01*
X83093D01*
Y82318D01*
X83013D01*
X82973Y81278D02*
Y81438D01*
X83133D01*
Y81278D01*
X82973D01*
X83013Y81318D02*
Y81398D01*
X83093D01*
Y81318D01*
X83013D01*
X81973Y82278D02*
Y82438D01*
X82133D01*
Y82278D01*
X81973D01*
X82013Y82318D02*
Y82398D01*
X82093D01*
Y82318D01*
X82013D01*
X81973Y81278D02*
Y81438D01*
X82133D01*
Y81278D01*
X81973D01*
X82013Y81318D02*
Y81398D01*
X82093D01*
Y81318D01*
X82013D01*
X80973Y82278D02*
Y82438D01*
X81133D01*
Y82278D01*
X80973D01*
X81013Y82318D02*
Y82398D01*
X81093D01*
Y82318D01*
X81013D01*
X80973Y81278D02*
Y81438D01*
X81133D01*
Y81278D01*
X80973D01*
X81013Y81318D02*
Y81398D01*
X81093D01*
Y81318D01*
X81013D01*
X79973Y82278D02*
Y82438D01*
X80133D01*
Y82278D01*
X79973D01*
X80013Y82318D02*
Y82398D01*
X80093D01*
Y82318D01*
X80013D01*
X79973Y81278D02*
Y81438D01*
X80133D01*
Y81278D01*
X79973D01*
X80013Y81318D02*
Y81398D01*
X80093D01*
Y81318D01*
X80013D01*
X78973Y82278D02*
Y82438D01*
X79133D01*
Y82278D01*
X78973D01*
X79013Y82318D02*
Y82398D01*
X79093D01*
Y82318D01*
X79013D01*
X78973Y81278D02*
Y81438D01*
X79133D01*
Y81278D01*
X78973D01*
X79013Y81318D02*
Y81398D01*
X79093D01*
Y81318D01*
X79013D01*
X77973Y82278D02*
Y82438D01*
X78133D01*
Y82278D01*
X77973D01*
X78013Y82318D02*
Y82398D01*
X78093D01*
Y82318D01*
X78013D01*
X77973Y81278D02*
Y81438D01*
X78133D01*
Y81278D01*
X77973D01*
X78013Y81318D02*
Y81398D01*
X78093D01*
Y81318D01*
X78013D01*
X76973Y82278D02*
Y82438D01*
X77133D01*
Y82278D01*
X76973D01*
X77013Y82318D02*
Y82398D01*
X77093D01*
Y82318D01*
X77013D01*
X76973Y81278D02*
Y81438D01*
X77133D01*
Y81278D01*
X76973D01*
X77013Y81318D02*
Y81398D01*
X77093D01*
Y81318D01*
X77013D01*
X75973Y82278D02*
Y82438D01*
X76133D01*
Y82278D01*
X75973D01*
X76013Y82318D02*
Y82398D01*
X76093D01*
Y82318D01*
X76013D01*
X75973Y81278D02*
Y81438D01*
X76133D01*
Y81278D01*
X75973D01*
X76013Y81318D02*
Y81398D01*
X76093D01*
Y81318D01*
X76013D01*
X74973Y82278D02*
Y82438D01*
X75133D01*
Y82278D01*
X74973D01*
X75013Y82318D02*
Y82398D01*
X75093D01*
Y82318D01*
X75013D01*
X74973Y81278D02*
Y81438D01*
X75133D01*
Y81278D01*
X74973D01*
X75013Y81318D02*
Y81398D01*
X75093D01*
Y81318D01*
X75013D01*
X73973Y82278D02*
Y82438D01*
X74133D01*
Y82278D01*
X73973D01*
X74013Y82318D02*
Y82398D01*
X74093D01*
Y82318D01*
X74013D01*
X73973Y81278D02*
Y81438D01*
X74133D01*
Y81278D01*
X73973D01*
X74013Y81318D02*
Y81398D01*
X74093D01*
Y81318D01*
X74013D01*
X72973Y82278D02*
Y82438D01*
X73133D01*
Y82278D01*
X72973D01*
X73013Y82318D02*
Y82398D01*
X73093D01*
Y82318D01*
X73013D01*
X72973Y81278D02*
Y81438D01*
X73133D01*
Y81278D01*
X72973D01*
X73013Y81318D02*
Y81398D01*
X73093D01*
Y81318D01*
X73013D01*
X71973Y82278D02*
Y82438D01*
X72133D01*
Y82278D01*
X71973D01*
X72013Y82318D02*
Y82398D01*
X72093D01*
Y82318D01*
X72013D01*
X70973Y82278D02*
Y82438D01*
X71133D01*
Y82278D01*
X70973D01*
X71013Y82318D02*
Y82398D01*
X71093D01*
Y82318D01*
X71013D01*
X70973Y81278D02*
Y81438D01*
X71133D01*
Y81278D01*
X70973D01*
X71013Y81318D02*
Y81398D01*
X71093D01*
Y81318D01*
X71013D01*
X69973Y82278D02*
Y82438D01*
X70133D01*
Y82278D01*
X69973D01*
X70013Y82318D02*
Y82398D01*
X70093D01*
Y82318D01*
X70013D01*
X69973Y81278D02*
Y81438D01*
X70133D01*
Y81278D01*
X69973D01*
X70013Y81318D02*
Y81398D01*
X70093D01*
Y81318D01*
X70013D01*
X68973Y82278D02*
Y82438D01*
X69133D01*
Y82278D01*
X68973D01*
X69013Y82318D02*
Y82398D01*
X69093D01*
Y82318D01*
X69013D01*
X68973Y81278D02*
Y81438D01*
X69133D01*
Y81278D01*
X68973D01*
X69013Y81318D02*
Y81398D01*
X69093D01*
Y81318D01*
X69013D01*
X67973Y82278D02*
Y82438D01*
X68133D01*
Y82278D01*
X67973D01*
X68013Y82318D02*
Y82398D01*
X68093D01*
Y82318D01*
X68013D01*
X67973Y81278D02*
Y81438D01*
X68133D01*
Y81278D01*
X67973D01*
X68013Y81318D02*
Y81398D01*
X68093D01*
Y81318D01*
X68013D01*
X66973Y82278D02*
Y82438D01*
X67133D01*
Y82278D01*
X66973D01*
X67013Y82318D02*
Y82398D01*
X67093D01*
Y82318D01*
X67013D01*
X66973Y81278D02*
Y81438D01*
X67133D01*
Y81278D01*
X66973D01*
X67013Y81318D02*
Y81398D01*
X67093D01*
Y81318D01*
X67013D01*
X65973Y82278D02*
Y82438D01*
X66133D01*
Y82278D01*
X65973D01*
X66013Y82318D02*
Y82398D01*
X66093D01*
Y82318D01*
X66013D01*
X65973Y81278D02*
Y81438D01*
X66133D01*
Y81278D01*
X65973D01*
X66013Y81318D02*
Y81398D01*
X66093D01*
Y81318D01*
X66013D01*
X64973Y82278D02*
Y82438D01*
X65133D01*
Y82278D01*
X64973D01*
X65013Y82318D02*
Y82398D01*
X65093D01*
Y82318D01*
X65013D01*
X64973Y81278D02*
Y81438D01*
X65133D01*
Y81278D01*
X64973D01*
X65013Y81318D02*
Y81398D01*
X65093D01*
Y81318D01*
X65013D01*
X63973Y82278D02*
Y82438D01*
X64133D01*
Y82278D01*
X63973D01*
X64013Y82318D02*
Y82398D01*
X64093D01*
Y82318D01*
X64013D01*
X63973Y81278D02*
Y81438D01*
X64133D01*
Y81278D01*
X63973D01*
X64013Y81318D02*
Y81398D01*
X64093D01*
Y81318D01*
X64013D01*
X62973Y82278D02*
Y82438D01*
X63133D01*
Y82278D01*
X62973D01*
X63013Y82318D02*
Y82398D01*
X63093D01*
Y82318D01*
X63013D01*
X62973Y81278D02*
Y81438D01*
X63133D01*
Y81278D01*
X62973D01*
X63013Y81318D02*
Y81398D01*
X63093D01*
Y81318D01*
X63013D01*
X61973Y82278D02*
Y82438D01*
X62133D01*
Y82278D01*
X61973D01*
X62013Y82318D02*
Y82398D01*
X62093D01*
Y82318D01*
X62013D01*
X61973Y81278D02*
Y81438D01*
X62133D01*
Y81278D01*
X61973D01*
X62013Y81318D02*
Y81398D01*
X62093D01*
Y81318D01*
X62013D01*
X60973Y82278D02*
Y82438D01*
X61133D01*
Y82278D01*
X60973D01*
X61013Y82318D02*
Y82398D01*
X61093D01*
Y82318D01*
X61013D01*
X60973Y81278D02*
Y81438D01*
X61133D01*
Y81278D01*
X60973D01*
X61013Y81318D02*
Y81398D01*
X61093D01*
Y81318D01*
X61013D01*
X59973Y82278D02*
Y82438D01*
X60133D01*
Y82278D01*
X59973D01*
X60013Y82318D02*
Y82398D01*
X60093D01*
Y82318D01*
X60013D01*
X59973Y81278D02*
Y81438D01*
X60133D01*
Y81278D01*
X59973D01*
X60013Y81318D02*
Y81398D01*
X60093D01*
Y81318D01*
X60013D01*
X84888Y9005D02*
X84929Y9085D01*
X84888Y9165D01*
X84969Y9125D01*
X85049Y9165D01*
X85008Y9085D01*
X85049Y9005D01*
X84969Y9045D01*
X84888Y9005D01*
X84929Y9045D02*
X84949Y9085D01*
X84929Y9125D01*
X84969Y9105D01*
X85008Y9125D01*
X84988Y9085D01*
X85008Y9045D01*
X84969Y9065D01*
X84929Y9045D01*
X84888Y12005D02*
X84929Y12085D01*
X84888Y12165D01*
X84969Y12125D01*
X85049Y12165D01*
X85008Y12085D01*
X85049Y12005D01*
X84969Y12045D01*
X84888Y12005D01*
X84929Y12045D02*
X84949Y12085D01*
X84929Y12125D01*
X84969Y12105D01*
X85008Y12125D01*
X84988Y12085D01*
X85008Y12045D01*
X84969Y12065D01*
X84929Y12045D01*
X81889Y12005D02*
X81929Y12085D01*
X81889Y12165D01*
X81968Y12125D01*
X82049Y12165D01*
X82008Y12085D01*
X82049Y12005D01*
X81968Y12045D01*
X81889Y12005D01*
X81929Y12045D02*
X81948Y12085D01*
X81929Y12125D01*
X81968Y12105D01*
X82008Y12125D01*
X81988Y12085D01*
X82008Y12045D01*
X81968Y12065D01*
X81929Y12045D01*
X81889Y9005D02*
X81929Y9085D01*
X81889Y9165D01*
X81968Y9125D01*
X82049Y9165D01*
X82008Y9085D01*
X82049Y9005D01*
X81968Y9045D01*
X81889Y9005D01*
X81929Y9045D02*
X81948Y9085D01*
X81929Y9125D01*
X81968Y9105D01*
X82008Y9125D01*
X81988Y9085D01*
X82008Y9045D01*
X81968Y9065D01*
X81929Y9045D01*
X83926Y14556D02*
Y14716D01*
X84086D01*
Y14556D01*
X83926D01*
X82942D02*
Y14716D01*
X83102D01*
Y14556D01*
X82942D01*
X3149Y81889D02*
Y81849D01*
X3229D01*
Y81889D01*
X3269D01*
Y81969D01*
X3229D01*
Y82009D01*
X3149D01*
Y81969D01*
X3109D01*
Y81889D01*
X3149D01*
X3169Y81909D02*
Y81889D01*
X3209D01*
Y81909D01*
X3229D01*
Y81949D01*
X3209D01*
Y81969D01*
X3169D01*
Y81949D01*
X3149D01*
Y81909D01*
X3169D01*
X3149Y86968D02*
Y86928D01*
X3229D01*
Y86968D01*
X3269D01*
Y87048D01*
X3229D01*
Y87088D01*
X3149D01*
Y87048D01*
X3109D01*
Y86968D01*
X3149D01*
X3169Y86988D02*
Y86968D01*
X3209D01*
Y86988D01*
X3229D01*
Y87028D01*
X3209D01*
Y87048D01*
X3169D01*
Y87028D01*
X3149D01*
Y86988D01*
X3169D01*
X74469Y12036D02*
X74509Y12116D01*
X74469Y12196D01*
X74549Y12156D01*
X74629Y12196D01*
X74589Y12116D01*
X74629Y12036D01*
X74549Y12076D01*
X74469Y12036D01*
X74509Y12076D02*
X74529Y12116D01*
X74509Y12156D01*
X74549Y12136D01*
X74589Y12156D01*
X74569Y12116D01*
X74589Y12076D01*
X74549Y12096D01*
X74509Y12076D01*
X74469Y9036D02*
X74509Y9116D01*
X74469Y9196D01*
X74549Y9156D01*
X74629Y9196D01*
X74589Y9116D01*
X74629Y9036D01*
X74549Y9076D01*
X74469Y9036D01*
X74509Y9076D02*
X74529Y9116D01*
X74509Y9156D01*
X74549Y9136D01*
X74589Y9156D01*
X74569Y9116D01*
X74589Y9076D01*
X74549Y9096D01*
X74509Y9076D01*
X77469Y9036D02*
X77509Y9116D01*
X77469Y9196D01*
X77549Y9156D01*
X77629Y9196D01*
X77589Y9116D01*
X77629Y9036D01*
X77549Y9076D01*
X77469Y9036D01*
X77509Y9076D02*
X77529Y9116D01*
X77509Y9156D01*
X77549Y9136D01*
X77589Y9156D01*
X77569Y9116D01*
X77589Y9076D01*
X77549Y9096D01*
X77509Y9076D01*
X77469Y12036D02*
X77509Y12116D01*
X77469Y12196D01*
X77549Y12156D01*
X77629Y12196D01*
X77589Y12116D01*
X77629Y12036D01*
X77549Y12076D01*
X77469Y12036D01*
X77509Y12076D02*
X77529Y12116D01*
X77509Y12156D01*
X77549Y12136D01*
X77589Y12156D01*
X77569Y12116D01*
X77589Y12076D01*
X77549Y12096D01*
X77509Y12076D01*
X15274Y5826D02*
X15314D01*
X15354Y5866D01*
X15394Y5826D01*
X15434D01*
Y5866D01*
X15394Y5906D01*
X15434Y5946D01*
Y5986D01*
X15394D01*
X15354Y5946D01*
X15314Y5986D01*
X15274D01*
Y5946D01*
X15314Y5906D01*
X15274Y5866D01*
Y5826D01*
X15314Y5866D02*
X15334D01*
X15354Y5886D01*
X15374Y5866D01*
X15394D01*
Y5886D01*
X15374Y5906D01*
X15394Y5926D01*
Y5946D01*
X15374D01*
X15354Y5926D01*
X15334Y5946D01*
X15314D01*
Y5926D01*
X15334Y5906D01*
X15314Y5886D01*
Y5866D01*
X3503Y35984D02*
Y35944D01*
X3583D01*
Y35984D01*
X3623D01*
Y36064D01*
X3583D01*
Y36104D01*
X3503D01*
Y36064D01*
X3463D01*
Y35984D01*
X3503D01*
X3523Y36004D02*
Y35984D01*
X3563D01*
Y36004D01*
X3583D01*
Y36044D01*
X3563D01*
Y36064D01*
X3523D01*
Y36044D01*
X3503D01*
Y36004D01*
X3523D01*
X3110Y24054D02*
Y24014D01*
X3190D01*
Y24054D01*
X3230D01*
Y24134D01*
X3190D01*
Y24174D01*
X3110D01*
Y24134D01*
X3070D01*
Y24054D01*
X3110D01*
X3130Y24074D02*
Y24054D01*
X3170D01*
Y24074D01*
X3190D01*
Y24114D01*
X3170D01*
Y24134D01*
X3130D01*
Y24114D01*
X3110D01*
Y24074D01*
X3130D01*
X42874Y89976D02*
Y90110D01*
X42941Y90176D01*
X43007Y90110D01*
Y89976D01*
Y90076D01*
X42874D01*
Y88976D02*
Y89110D01*
X42941Y89176D01*
X43007Y89110D01*
Y88976D01*
Y89076D01*
X42874D01*
Y87976D02*
Y88110D01*
X42941Y88176D01*
X43007Y88110D01*
Y87976D01*
Y88076D01*
X42874D01*
X45000Y19727D02*
Y19528D01*
X45100D01*
X45133Y19561D01*
Y19594D01*
X45100Y19628D01*
X45000D01*
X45100D01*
X45133Y19661D01*
Y19694D01*
X45100Y19727D01*
X45000D01*
X47953Y18153D02*
Y17953D01*
X48053D01*
X48086Y17986D01*
Y18019D01*
X48053Y18053D01*
X47953D01*
X48053D01*
X48086Y18086D01*
Y18119D01*
X48053Y18153D01*
X47953D01*
X44843Y36578D02*
Y36378D01*
X44942D01*
X44976Y36411D01*
Y36445D01*
X44942Y36478D01*
X44843D01*
X44942D01*
X44976Y36511D01*
Y36545D01*
X44942Y36578D01*
X44843D01*
X47795Y35003D02*
Y34803D01*
X47895D01*
X47929Y34836D01*
Y34870D01*
X47895Y34903D01*
X47795D01*
X47895D01*
X47929Y34936D01*
Y34970D01*
X47895Y35003D01*
X47795D01*
X16472Y10344D02*
X16439Y10377D01*
X16372D01*
X16339Y10344D01*
Y10210D01*
X16372Y10177D01*
X16439D01*
X16472Y10210D01*
Y9340D02*
X16439Y9373D01*
X16372D01*
X16339Y9340D01*
Y9207D01*
X16372Y9173D01*
X16439D01*
X16472Y9207D01*
Y8336D02*
X16439Y8369D01*
X16372D01*
X16339Y8336D01*
Y8203D01*
X16372Y8169D01*
X16439D01*
X16472Y8203D01*
X3819Y68363D02*
Y68163D01*
X3919D01*
X3952Y68197D01*
Y68330D01*
X3919Y68363D01*
X3819D01*
Y66214D02*
Y66014D01*
X3919D01*
X3952Y66047D01*
Y66180D01*
X3919Y66214D01*
X3819D01*
Y64064D02*
Y63864D01*
X3919D01*
X3952Y63898D01*
Y64031D01*
X3919Y64064D01*
X3819D01*
Y45978D02*
Y45778D01*
X3919D01*
X3952Y45811D01*
Y45944D01*
X3919Y45978D01*
X3819D01*
Y43828D02*
Y43628D01*
X3919D01*
X3952Y43661D01*
Y43795D01*
X3919Y43828D01*
X3819D01*
Y41678D02*
Y41478D01*
X3919D01*
X3952Y41512D01*
Y41645D01*
X3919Y41678D01*
X3819D01*
Y53439D02*
Y53240D01*
X3919D01*
X3952Y53273D01*
Y53406D01*
X3919Y53439D01*
X3819D01*
Y51290D02*
Y51090D01*
X3919D01*
X3952Y51123D01*
Y51257D01*
X3919Y51290D01*
X3819D01*
Y49140D02*
Y48940D01*
X3919D01*
X3952Y48974D01*
Y49107D01*
X3919Y49140D01*
X3819D01*
Y60901D02*
Y60701D01*
X3919D01*
X3952Y60735D01*
Y60868D01*
X3919Y60901D01*
X3819D01*
Y58752D02*
Y58552D01*
X3919D01*
X3952Y58585D01*
Y58718D01*
X3919Y58752D01*
X3819D01*
Y56602D02*
Y56402D01*
X3919D01*
X3952Y56436D01*
Y56569D01*
X3919Y56602D01*
X3819D01*
X10236Y13150D02*
Y13283D01*
X10303Y13350D01*
X10370Y13283D01*
Y13150D01*
Y13250D01*
X10236D01*
Y9213D02*
Y9346D01*
X10303Y9413D01*
X10370Y9346D01*
Y9213D01*
Y9313D01*
X10236D01*
X47795Y26578D02*
Y26378D01*
X47895D01*
X47929Y26411D01*
Y26445D01*
X47895Y26478D01*
X47795D01*
X47895D01*
X47929Y26511D01*
Y26545D01*
X47895Y26578D01*
X47795D01*
X44843Y28153D02*
Y27953D01*
X44942D01*
X44976Y27986D01*
Y28019D01*
X44942Y28053D01*
X44843D01*
X44942D01*
X44976Y28086D01*
Y28119D01*
X44942Y28153D01*
X44843D01*
X12303Y18799D02*
Y18932D01*
X12370Y18999D01*
X12436Y18932D01*
Y18799D01*
Y18899D01*
X12303D01*
X9519Y21583D02*
Y21716D01*
X9586Y21783D01*
X9653Y21716D01*
Y21583D01*
Y21683D01*
X9519D01*
X2362Y18188D02*
X2282Y18348D01*
X2442D01*
X2362Y18188D01*
Y18228D02*
X2322Y18308D01*
X2402D01*
X2362Y18228D01*
Y14440D02*
X2282Y14600D01*
X2442D01*
X2362Y14440D01*
Y14480D02*
X2322Y14560D01*
X2402D01*
X2362Y14480D01*
X27820Y92848D02*
X27687D01*
Y92648D01*
X27820D01*
X27687Y92748D02*
X27754D01*
X26820Y92848D02*
X26687D01*
Y92648D01*
X26820D01*
X26687Y92748D02*
X26754D01*
X25820Y92848D02*
X25687D01*
Y92648D01*
X25820D01*
X25687Y92748D02*
X25754D01*
X24820Y92848D02*
X24687D01*
Y92648D01*
X24820D01*
X24687Y92748D02*
X24754D01*
X23820Y92848D02*
X23687D01*
Y92648D01*
X23820D01*
X23687Y92748D02*
X23754D01*
X22820Y92848D02*
X22687D01*
Y92648D01*
X22820D01*
X22687Y92748D02*
X22754D01*
X21820Y92848D02*
X21687D01*
Y92648D01*
X21820D01*
X21687Y92748D02*
X21754D01*
X20820Y92848D02*
X20687D01*
Y92648D01*
X20820D01*
X20687Y92748D02*
X20754D01*
X19820Y92848D02*
X19687D01*
Y92648D01*
X19820D01*
X19687Y92748D02*
X19754D01*
X18820Y92848D02*
X18687D01*
Y92648D01*
X18820D01*
X18687Y92748D02*
X18754D01*
X76988Y88503D02*
X77028D01*
X77068Y88543D01*
X77108Y88503D01*
X77148D01*
Y88543D01*
X77108Y88583D01*
X77148Y88623D01*
Y88663D01*
X77108D01*
X77068Y88623D01*
X77028Y88663D01*
X76988D01*
Y88623D01*
X77028Y88583D01*
X76988Y88543D01*
Y88503D01*
X77028Y88543D02*
X77048D01*
X77068Y88563D01*
X77088Y88543D01*
X77108D01*
Y88563D01*
X77088Y88583D01*
X77108Y88603D01*
Y88623D01*
X77088D01*
X77068Y88603D01*
X77048Y88623D01*
X77028D01*
Y88603D01*
X77048Y88583D01*
X77028Y88563D01*
Y88543D01*
X71476Y88503D02*
X71516D01*
X71556Y88543D01*
X71596Y88503D01*
X71636D01*
Y88543D01*
X71596Y88583D01*
X71636Y88623D01*
Y88663D01*
X71596D01*
X71556Y88623D01*
X71516Y88663D01*
X71476D01*
Y88623D01*
X71516Y88583D01*
X71476Y88543D01*
Y88503D01*
X71516Y88543D02*
X71536D01*
X71556Y88563D01*
X71576Y88543D01*
X71596D01*
Y88563D01*
X71576Y88583D01*
X71596Y88603D01*
Y88623D01*
X71576D01*
X71556Y88603D01*
X71536Y88623D01*
X71516D01*
Y88603D01*
X71536Y88583D01*
X71516Y88563D01*
Y88543D01*
X8484Y3857D02*
X8524D01*
X8564Y3897D01*
X8604Y3857D01*
X8644D01*
Y3897D01*
X8604Y3937D01*
X8644Y3977D01*
Y4017D01*
X8604D01*
X8564Y3977D01*
X8524Y4017D01*
X8484D01*
Y3977D01*
X8524Y3937D01*
X8484Y3897D01*
Y3857D01*
X8524Y3897D02*
X8544D01*
X8564Y3917D01*
X8584Y3897D01*
X8604D01*
Y3917D01*
X8584Y3937D01*
X8604Y3957D01*
Y3977D01*
X8584D01*
X8564Y3957D01*
X8544Y3977D01*
X8524D01*
Y3957D01*
X8544Y3937D01*
X8524Y3917D01*
Y3897D01*
X13996Y3857D02*
X14036D01*
X14076Y3897D01*
X14116Y3857D01*
X14156D01*
Y3897D01*
X14116Y3937D01*
X14156Y3977D01*
Y4017D01*
X14116D01*
X14076Y3977D01*
X14036Y4017D01*
X13996D01*
Y3977D01*
X14036Y3937D01*
X13996Y3897D01*
Y3857D01*
X14036Y3897D02*
X14056D01*
X14076Y3917D01*
X14096Y3897D01*
X14116D01*
Y3917D01*
X14096Y3937D01*
X14116Y3957D01*
Y3977D01*
X14096D01*
X14076Y3957D01*
X14056Y3977D01*
X14036D01*
Y3957D01*
X14056Y3937D01*
X14036Y3917D01*
Y3897D01*
X9783Y5826D02*
X9823D01*
X9863Y5866D01*
X9903Y5826D01*
X9943D01*
Y5866D01*
X9903Y5906D01*
X9943Y5946D01*
Y5986D01*
X9903D01*
X9863Y5946D01*
X9823Y5986D01*
X9783D01*
Y5946D01*
X9823Y5906D01*
X9783Y5866D01*
Y5826D01*
X9823Y5866D02*
X9843D01*
X9863Y5886D01*
X9883Y5866D01*
X9903D01*
Y5886D01*
X9883Y5906D01*
X9903Y5926D01*
Y5946D01*
X9883D01*
X9863Y5926D01*
X9843Y5946D01*
X9823D01*
Y5926D01*
X9843Y5906D01*
X9823Y5886D01*
Y5866D01*
X73444Y3857D02*
X73484D01*
X73524Y3897D01*
X73564Y3857D01*
X73604D01*
Y3897D01*
X73564Y3937D01*
X73604Y3977D01*
Y4017D01*
X73564D01*
X73524Y3977D01*
X73484Y4017D01*
X73444D01*
Y3977D01*
X73484Y3937D01*
X73444Y3897D01*
Y3857D01*
X73484Y3897D02*
X73504D01*
X73524Y3917D01*
X73544Y3897D01*
X73564D01*
Y3917D01*
X73544Y3937D01*
X73564Y3957D01*
Y3977D01*
X73544D01*
X73524Y3957D01*
X73504Y3977D01*
X73484D01*
Y3957D01*
X73504Y3937D01*
X73484Y3917D01*
Y3897D01*
X78956Y3857D02*
X78996D01*
X79036Y3897D01*
X79076Y3857D01*
X79116D01*
Y3897D01*
X79076Y3937D01*
X79116Y3977D01*
Y4017D01*
X79076D01*
X79036Y3977D01*
X78996Y4017D01*
X78956D01*
Y3977D01*
X78996Y3937D01*
X78956Y3897D01*
Y3857D01*
X78996Y3897D02*
X79016D01*
X79036Y3917D01*
X79056Y3897D01*
X79076D01*
Y3917D01*
X79056Y3937D01*
X79076Y3957D01*
Y3977D01*
X79056D01*
X79036Y3957D01*
X79016Y3977D01*
X78996D01*
Y3957D01*
X79016Y3937D01*
X78996Y3917D01*
Y3897D01*
X76988Y5826D02*
X77028D01*
X77068Y5866D01*
X77108Y5826D01*
X77148D01*
Y5866D01*
X77108Y5906D01*
X77148Y5946D01*
Y5986D01*
X77108D01*
X77068Y5946D01*
X77028Y5986D01*
X76988D01*
Y5946D01*
X77028Y5906D01*
X76988Y5866D01*
Y5826D01*
X77028Y5866D02*
X77048D01*
X77068Y5886D01*
X77088Y5866D01*
X77108D01*
Y5886D01*
X77088Y5906D01*
X77108Y5926D01*
Y5946D01*
X77088D01*
X77068Y5926D01*
X77048Y5946D01*
X77028D01*
Y5926D01*
X77048Y5906D01*
X77028Y5886D01*
Y5866D01*
X71476Y5826D02*
X71516D01*
X71556Y5866D01*
X71596Y5826D01*
X71636D01*
Y5866D01*
X71596Y5906D01*
X71636Y5946D01*
Y5986D01*
X71596D01*
X71556Y5946D01*
X71516Y5986D01*
X71476D01*
Y5946D01*
X71516Y5906D01*
X71476Y5866D01*
Y5826D01*
X71516Y5866D02*
X71536D01*
X71556Y5886D01*
X71576Y5866D01*
X71596D01*
Y5886D01*
X71576Y5906D01*
X71596Y5926D01*
Y5946D01*
X71576D01*
X71556Y5926D01*
X71536Y5946D01*
X71516D01*
Y5926D01*
X71536Y5906D01*
X71516Y5886D01*
Y5866D01*
X8484Y90471D02*
X8524D01*
X8564Y90511D01*
X8604Y90471D01*
X8644D01*
Y90511D01*
X8604Y90551D01*
X8644Y90591D01*
Y90631D01*
X8604D01*
X8564Y90591D01*
X8524Y90631D01*
X8484D01*
Y90591D01*
X8524Y90551D01*
X8484Y90511D01*
Y90471D01*
X8524Y90511D02*
X8544D01*
X8564Y90531D01*
X8584Y90511D01*
X8604D01*
Y90531D01*
X8584Y90551D01*
X8604Y90571D01*
Y90591D01*
X8584D01*
X8564Y90571D01*
X8544Y90591D01*
X8524D01*
Y90571D01*
X8544Y90551D01*
X8524Y90531D01*
Y90511D01*
X13996Y90471D02*
X14036D01*
X14076Y90511D01*
X14116Y90471D01*
X14156D01*
Y90511D01*
X14116Y90551D01*
X14156Y90591D01*
Y90631D01*
X14116D01*
X14076Y90591D01*
X14036Y90631D01*
X13996D01*
Y90591D01*
X14036Y90551D01*
X13996Y90511D01*
Y90471D01*
X14036Y90511D02*
X14056D01*
X14076Y90531D01*
X14096Y90511D01*
X14116D01*
Y90531D01*
X14096Y90551D01*
X14116Y90571D01*
Y90591D01*
X14096D01*
X14076Y90571D01*
X14056Y90591D01*
X14036D01*
Y90571D01*
X14056Y90551D01*
X14036Y90531D01*
Y90511D01*
X10452Y88503D02*
X10492D01*
X10532Y88543D01*
X10572Y88503D01*
X10612D01*
Y88543D01*
X10572Y88583D01*
X10612Y88623D01*
Y88663D01*
X10572D01*
X10532Y88623D01*
X10492Y88663D01*
X10452D01*
Y88623D01*
X10492Y88583D01*
X10452Y88543D01*
Y88503D01*
X10492Y88543D02*
X10512D01*
X10532Y88563D01*
X10552Y88543D01*
X10572D01*
Y88563D01*
X10552Y88583D01*
X10572Y88603D01*
Y88623D01*
X10552D01*
X10532Y88603D01*
X10512Y88623D01*
X10492D01*
Y88603D01*
X10512Y88583D01*
X10492Y88563D01*
Y88543D01*
X15964Y88503D02*
X16004D01*
X16044Y88543D01*
X16084Y88503D01*
X16124D01*
Y88543D01*
X16084Y88583D01*
X16124Y88623D01*
Y88663D01*
X16084D01*
X16044Y88623D01*
X16004Y88663D01*
X15964D01*
Y88623D01*
X16004Y88583D01*
X15964Y88543D01*
Y88503D01*
X16004Y88543D02*
X16024D01*
X16044Y88563D01*
X16064Y88543D01*
X16084D01*
Y88563D01*
X16064Y88583D01*
X16084Y88603D01*
Y88623D01*
X16064D01*
X16044Y88603D01*
X16024Y88623D01*
X16004D01*
Y88603D01*
X16024Y88583D01*
X16004Y88563D01*
Y88543D01*
X73444Y90471D02*
X73484D01*
X73524Y90511D01*
X73564Y90471D01*
X73604D01*
Y90511D01*
X73564Y90551D01*
X73604Y90591D01*
Y90631D01*
X73564D01*
X73524Y90591D01*
X73484Y90631D01*
X73444D01*
Y90591D01*
X73484Y90551D01*
X73444Y90511D01*
Y90471D01*
X73484Y90511D02*
X73504D01*
X73524Y90531D01*
X73544Y90511D01*
X73564D01*
Y90531D01*
X73544Y90551D01*
X73564Y90571D01*
Y90591D01*
X73544D01*
X73524Y90571D01*
X73504Y90591D01*
X73484D01*
Y90571D01*
X73504Y90551D01*
X73484Y90531D01*
Y90511D01*
X78956Y90471D02*
X78996D01*
X79036Y90511D01*
X79076Y90471D01*
X79116D01*
Y90511D01*
X79076Y90551D01*
X79116Y90591D01*
Y90631D01*
X79076D01*
X79036Y90591D01*
X78996Y90631D01*
X78956D01*
Y90591D01*
X78996Y90551D01*
X78956Y90511D01*
Y90471D01*
X78996Y90511D02*
X79016D01*
X79036Y90531D01*
X79056Y90511D01*
X79076D01*
Y90531D01*
X79056Y90551D01*
X79076Y90571D01*
Y90591D01*
X79056D01*
X79036Y90571D01*
X79016Y90591D01*
X78996D01*
Y90571D01*
X79016Y90551D01*
X78996Y90531D01*
Y90511D01*
X86226Y70505D02*
X86093D01*
Y70405D01*
X86159D01*
X86093D01*
Y70305D01*
X85261Y69511D02*
X85128D01*
Y69411D01*
X85195D01*
X85128D01*
Y69311D01*
X83814Y66863D02*
X83681D01*
Y66763D01*
X83748D01*
X83681D01*
Y66663D01*
X84651Y65977D02*
X84518D01*
Y65878D01*
X84584D01*
X84518D01*
Y65778D01*
X22161Y53166D02*
X22027D01*
Y53066D01*
X22094D01*
X22027D01*
Y52966D01*
X20881Y53950D02*
X20748D01*
Y53850D01*
X20815D01*
X20748D01*
Y53750D01*
X19277Y52011D02*
X19144D01*
Y51911D01*
X19210D01*
X19144D01*
Y51811D01*
X19602Y55269D02*
X19468D01*
Y55169D01*
X19535D01*
X19468D01*
Y55069D01*
X19070Y61332D02*
X18937D01*
Y61232D01*
X19004D01*
X18937D01*
Y61132D01*
X22860Y58861D02*
X22726D01*
Y58761D01*
X22793D01*
X22726D01*
Y58661D01*
X20304Y66247D02*
X20171D01*
Y66147D01*
X20237D01*
X20171D01*
Y66047D01*
X21541Y66204D02*
X21407D01*
Y66104D01*
X21474D01*
X21407D01*
Y66004D01*
X22033Y63979D02*
X21900D01*
Y63879D01*
X21966D01*
X21900D01*
Y63780D01*
X22161Y62867D02*
X22028D01*
Y62767D01*
X22094D01*
X22028D01*
Y62667D01*
X20301Y58576D02*
X20167D01*
Y58476D01*
X20234D01*
X20167D01*
Y58376D01*
X21295Y52592D02*
X21161D01*
Y52492D01*
X21228D01*
X21161D01*
Y52392D01*
X19523Y53664D02*
X19390D01*
Y53565D01*
X19456D01*
X19390D01*
Y53465D01*
X21620Y54777D02*
X21486D01*
Y54677D01*
X21553D01*
X21486D01*
Y54577D01*
X21872Y56673D02*
X21739D01*
Y56573D01*
X21805D01*
X21739D01*
Y56473D01*
X20056Y56880D02*
X19923D01*
Y56780D01*
X19990D01*
X19923D01*
Y56680D01*
X19231Y57168D02*
X19098D01*
Y57068D01*
X19164D01*
X19098D01*
Y56968D01*
X21418Y59025D02*
X21285D01*
Y58925D01*
X21351D01*
X21285D01*
Y58825D01*
X20015Y60057D02*
X19882D01*
Y59957D01*
X19948D01*
X19882D01*
Y59857D01*
X22200Y61086D02*
X22067D01*
Y60986D01*
X22134D01*
X22067D01*
Y60886D01*
X20389Y62454D02*
X20256D01*
Y62354D01*
X20323D01*
X20256D01*
Y62254D01*
X19149Y63605D02*
X19016D01*
Y63505D01*
X19082D01*
X19016D01*
Y63406D01*
X20547Y64678D02*
X20413D01*
Y64578D01*
X20480D01*
X20413D01*
Y64478D01*
X22368Y64964D02*
X22234D01*
Y64864D01*
X22301D01*
X22234D01*
Y64764D01*
X16275Y86814D02*
X16142D01*
Y86714D01*
X16208D01*
X16142D01*
Y86614D01*
X18499Y88379D02*
X18366D01*
Y88279D01*
X18433D01*
X18366D01*
Y88179D01*
X1365Y88305D02*
X1231D01*
Y88205D01*
X1298D01*
X1231D01*
Y88105D01*
X1846Y85603D02*
X1713D01*
Y85503D01*
X1779D01*
X1713D01*
Y85403D01*
X6658Y86565D02*
X6525D01*
Y86465D01*
X6591D01*
X6525D01*
Y86365D01*
X6216Y88192D02*
X6083D01*
Y88092D01*
X6149D01*
X6083D01*
Y87992D01*
X5212Y89088D02*
X5079D01*
Y88988D01*
X5145D01*
X5079D01*
Y88888D01*
X2958Y91598D02*
X2825D01*
Y91498D01*
X2891D01*
X2825D01*
Y91398D01*
X1629Y90879D02*
X1496D01*
Y90779D01*
X1563D01*
X1496D01*
Y90679D01*
X2956Y93413D02*
X2823D01*
Y93313D01*
X2890D01*
X2823D01*
Y93213D01*
X1661Y92525D02*
X1528D01*
Y92425D01*
X1594D01*
X1528D01*
Y92325D01*
X4287Y93487D02*
X4154D01*
Y93387D01*
X4220D01*
X4154D01*
Y93287D01*
X5950Y93084D02*
X5817D01*
Y92984D01*
X5884D01*
X5817D01*
Y92884D01*
X3993Y91562D02*
X3860D01*
Y91462D01*
X3926D01*
X3860D01*
Y91362D01*
X6214Y90822D02*
X6080D01*
Y90722D01*
X6147D01*
X6080D01*
Y90622D01*
X7139Y92339D02*
X7006D01*
Y92239D01*
X7072D01*
X7006D01*
Y92140D01*
X7139Y93228D02*
X7006D01*
Y93128D01*
X7072D01*
X7006D01*
Y93028D01*
X9397Y93376D02*
X9264D01*
Y93276D01*
X9330D01*
X9264D01*
Y93176D01*
X10730Y91895D02*
X10596D01*
Y91795D01*
X10663D01*
X10596D01*
Y91695D01*
X11914Y87676D02*
X11781D01*
Y87576D01*
X11847D01*
X11781D01*
Y87476D01*
X7879Y88749D02*
X7746D01*
Y88649D01*
X7813D01*
X7746D01*
Y88549D01*
X8509Y87453D02*
X8375D01*
Y87353D01*
X8442D01*
X8375D01*
Y87254D01*
X8842Y86269D02*
X8709D01*
Y86169D01*
X8775D01*
X8709D01*
Y86069D01*
X10730Y86195D02*
X10596D01*
Y86095D01*
X10663D01*
X10596D01*
Y85995D01*
X12728Y86010D02*
X12595D01*
Y85910D01*
X12662D01*
X12595D01*
Y85810D01*
X14246Y86565D02*
X14113D01*
Y86465D01*
X14179D01*
X14113D01*
Y86365D01*
X13617Y88157D02*
X13483D01*
Y88057D01*
X13550D01*
X13483D01*
Y87957D01*
X12543Y89526D02*
X12410D01*
Y89426D01*
X12477D01*
X12410D01*
Y89326D01*
X11877Y91377D02*
X11744D01*
Y91277D01*
X11810D01*
X11744D01*
Y91177D01*
X11396Y92821D02*
X11263D01*
Y92721D01*
X11329D01*
X11263D01*
Y92621D01*
X12728Y93376D02*
X12595D01*
Y93276D01*
X12662D01*
X12595D01*
Y93176D01*
X14653Y93265D02*
X14520D01*
Y93165D01*
X14587D01*
X14520D01*
Y93065D01*
X16137Y92188D02*
X16004D01*
Y92088D01*
X16071D01*
X16004D01*
Y91988D01*
X26581Y89920D02*
X26447D01*
Y89820D01*
X26514D01*
X26447D01*
Y89720D01*
X28411Y89954D02*
X28278D01*
Y89854D01*
X28344D01*
X28278D01*
Y89754D01*
X31194Y89279D02*
X31061D01*
Y89179D01*
X31128D01*
X31061D01*
Y89079D01*
X39562Y87109D02*
X39429D01*
Y87009D01*
X39496D01*
X39429D01*
Y86909D01*
X42368Y85023D02*
X42234D01*
Y84923D01*
X42301D01*
X42234D01*
Y84823D01*
X40452Y85276D02*
X40319D01*
Y85176D01*
X40386D01*
X40319D01*
Y85076D01*
X38711Y85948D02*
X38578D01*
Y85848D01*
X38644D01*
X38578D01*
Y85748D01*
X38253Y87690D02*
X38120D01*
Y87590D01*
X38187D01*
X38120D01*
Y87490D01*
X36324Y85249D02*
X36191D01*
Y85149D01*
X36258D01*
X36191D01*
Y85049D01*
X36787Y86440D02*
X36654D01*
Y86340D01*
X36720D01*
X36654D01*
Y86240D01*
X34887Y88054D02*
X34754D01*
Y87954D01*
X34821D01*
X34754D01*
Y87854D01*
X32387Y87838D02*
X32254D01*
Y87738D01*
X32321D01*
X32254D01*
Y87638D01*
X33667Y86745D02*
X33533D01*
Y86645D01*
X33600D01*
X33533D01*
Y86545D01*
X34739Y85643D02*
X34605D01*
Y85543D01*
X34672D01*
X34605D01*
Y85443D01*
X33460Y85220D02*
X33327D01*
Y85120D01*
X33393D01*
X33327D01*
Y85020D01*
X31098Y86066D02*
X30965D01*
Y85966D01*
X31031D01*
X30965D01*
Y85866D01*
X30675Y87355D02*
X30541D01*
Y87255D01*
X30608D01*
X30541D01*
Y87156D01*
X28785Y87966D02*
X28652D01*
Y87866D01*
X28718D01*
X28652D01*
Y87766D01*
X27008Y88362D02*
X26875D01*
Y88262D01*
X26942D01*
X26875D01*
Y88162D01*
X27436Y86716D02*
X27303D01*
Y86616D01*
X27370D01*
X27303D01*
Y86516D01*
X28873Y85948D02*
X28740D01*
Y85848D01*
X28807D01*
X28740D01*
Y85748D01*
X29572Y84875D02*
X29439D01*
Y84775D01*
X29506D01*
X29439D01*
Y84675D01*
X27161Y85092D02*
X27028D01*
Y84992D01*
X27094D01*
X27028D01*
Y84892D01*
X25940Y86253D02*
X25807D01*
Y86153D01*
X25874D01*
X25807D01*
Y86053D01*
X25537Y87720D02*
X25404D01*
Y87620D01*
X25470D01*
X25404D01*
Y87520D01*
X25173Y89216D02*
X25039D01*
Y89116D01*
X25106D01*
X25039D01*
Y89016D01*
X24592Y90653D02*
X24459D01*
Y90553D01*
X24525D01*
X24459D01*
Y90453D01*
X23189Y88851D02*
X23056D01*
Y88751D01*
X23122D01*
X23056D01*
Y88651D01*
X23558Y86922D02*
X23425D01*
Y86822D01*
X23492D01*
X23425D01*
Y86722D01*
X23618Y85485D02*
X23484D01*
Y85385D01*
X23551D01*
X23484D01*
Y85285D01*
X20931Y85731D02*
X20797D01*
Y85631D01*
X20864D01*
X20797D01*
Y85532D01*
X21570Y87385D02*
X21437D01*
Y87285D01*
X21504D01*
X21437D01*
Y87185D01*
X19799Y88517D02*
X19665D01*
Y88417D01*
X19732D01*
X19665D01*
Y88317D01*
X21236Y89708D02*
X21102D01*
Y89608D01*
X21169D01*
X21102D01*
Y89508D01*
X18854Y90289D02*
X18720D01*
Y90189D01*
X18787D01*
X18720D01*
Y90089D01*
X20035Y71401D02*
X19902D01*
Y71301D01*
X19968D01*
X19902D01*
Y71201D01*
X15606Y73920D02*
X15472D01*
Y73820D01*
X15539D01*
X15472D01*
Y73720D01*
X6157Y82956D02*
X6024D01*
Y82856D01*
X6090D01*
X6024D01*
Y82756D01*
X5389Y80338D02*
X5256D01*
Y80238D01*
X5323D01*
X5256D01*
Y80138D01*
X1492Y78852D02*
X1358D01*
Y78752D01*
X1425D01*
X1358D01*
Y78652D01*
X1778Y71677D02*
X1645D01*
Y71577D01*
X1712D01*
X1645D01*
Y71477D01*
X3096Y72080D02*
X2963D01*
Y71980D01*
X3029D01*
X2963D01*
Y71880D01*
X1816Y73005D02*
X1683D01*
Y72905D01*
X1750D01*
X1683D01*
Y72805D01*
X3037Y74609D02*
X2904D01*
Y74509D01*
X2970D01*
X2904D01*
Y74409D01*
X1629Y75249D02*
X1496D01*
Y75149D01*
X1563D01*
X1496D01*
Y75049D01*
X4090Y76873D02*
X3957D01*
Y76773D01*
X4023D01*
X3957D01*
Y76673D01*
X2181Y77710D02*
X2047D01*
Y77610D01*
X2114D01*
X2047D01*
Y77510D01*
X63312Y70033D02*
X63179D01*
Y69933D01*
X63246D01*
X63179D01*
Y69833D01*
X63490Y69186D02*
X63356D01*
Y69086D01*
X63423D01*
X63356D01*
Y68986D01*
X69329Y53737D02*
X69196D01*
Y53637D01*
X69263D01*
X69196D01*
Y53537D01*
X69730Y54813D02*
X69596D01*
Y54713D01*
X69663D01*
X69596D01*
Y54613D01*
X70468Y53494D02*
X70335D01*
Y53394D01*
X70401D01*
X70335D01*
Y53295D01*
X27564Y93645D02*
X27431D01*
Y93545D01*
X27498D01*
X27431D01*
Y93445D01*
X64247Y57414D02*
X64114D01*
Y57315D01*
X64181D01*
X64114D01*
Y57215D01*
X65025Y54727D02*
X64892D01*
Y54628D01*
X64958D01*
X64892D01*
Y54528D01*
X69858Y56017D02*
X69724D01*
Y55917D01*
X69791D01*
X69724D01*
Y55817D01*
X73942Y58546D02*
X73809D01*
Y58446D01*
X73876D01*
X73809D01*
Y58346D01*
X69277Y57070D02*
X69144D01*
Y56970D01*
X69210D01*
X69144D01*
Y56870D01*
X57525Y58035D02*
X57392D01*
Y57935D01*
X57458D01*
X57392D01*
Y57835D01*
X58303Y57789D02*
X58169D01*
Y57689D01*
X58236D01*
X58169D01*
Y57589D01*
X67072Y54649D02*
X66939D01*
Y54549D01*
X67006D01*
X66939D01*
Y54449D01*
X61462Y55751D02*
X61329D01*
Y55651D01*
X61395D01*
X61329D01*
Y55551D01*
X58391Y58842D02*
X58258D01*
Y58742D01*
X58325D01*
X58258D01*
Y58642D01*
X68096Y52648D02*
X67963D01*
Y52548D01*
X68029D01*
X67963D01*
Y52448D01*
X72446Y49875D02*
X72313D01*
Y49775D01*
X72380D01*
X72313D01*
Y49675D01*
X64769Y49235D02*
X64636D01*
Y49135D01*
X64702D01*
X64636D01*
Y49035D01*
X64808Y47789D02*
X64675D01*
Y47689D01*
X64742D01*
X64675D01*
Y47589D01*
X65084Y47105D02*
X64951D01*
Y47005D01*
X65017D01*
X64951D01*
Y46906D01*
X65596Y46623D02*
X65463D01*
Y46523D01*
X65529D01*
X65463D01*
Y46423D01*
X66324Y46239D02*
X66191D01*
Y46139D01*
X66258D01*
X66191D01*
Y46039D01*
X67220Y46161D02*
X67087D01*
Y46061D01*
X67153D01*
X67087D01*
Y45961D01*
X68017Y46210D02*
X67884D01*
Y46110D01*
X67951D01*
X67884D01*
Y46010D01*
X68598Y46623D02*
X68465D01*
Y46523D01*
X68531D01*
X68465D01*
Y46423D01*
X69070Y47125D02*
X68937D01*
Y47025D01*
X69004D01*
X68937D01*
Y46925D01*
X69366Y47785D02*
X69232D01*
Y47685D01*
X69299D01*
X69232D01*
Y47585D01*
X69434Y48493D02*
X69301D01*
Y48393D01*
X69368D01*
X69301D01*
Y48293D01*
X69415Y49143D02*
X69282D01*
Y49043D01*
X69348D01*
X69282D01*
Y48943D01*
X69070Y49743D02*
X68937D01*
Y49643D01*
X69004D01*
X68937D01*
Y49543D01*
X68647Y50275D02*
X68514D01*
Y50175D01*
X68580D01*
X68514D01*
Y50075D01*
X68066Y50629D02*
X67933D01*
Y50529D01*
X68000D01*
X67933D01*
Y50429D01*
X67112Y50855D02*
X66978D01*
Y50755D01*
X67045D01*
X66978D01*
Y50656D01*
X66314Y50698D02*
X66181D01*
Y50598D01*
X66248D01*
X66181D01*
Y50498D01*
X65645Y50393D02*
X65512D01*
Y50293D01*
X65578D01*
X65512D01*
Y50193D01*
X65133Y49999D02*
X65000D01*
Y49899D01*
X65067D01*
X65000D01*
Y49799D01*
X64779Y48537D02*
X64646D01*
Y48437D01*
X64712D01*
X64646D01*
Y48337D01*
X69110Y50728D02*
X68976D01*
Y50628D01*
X69043D01*
X68976D01*
Y50528D01*
X69582Y50206D02*
X69449D01*
Y50106D01*
X69515D01*
X69449D01*
Y50006D01*
X69730Y47224D02*
X69596D01*
Y47124D01*
X69663D01*
X69596D01*
Y47024D01*
X69385Y46505D02*
X69252D01*
Y46405D01*
X69319D01*
X69252D01*
Y46305D01*
X64602Y46741D02*
X64468D01*
Y46641D01*
X64535D01*
X64468D01*
Y46541D01*
X65094Y46190D02*
X64961D01*
Y46090D01*
X65027D01*
X64961D01*
Y45990D01*
X46196Y49216D02*
X46063D01*
Y49116D01*
X46130D01*
X46063D01*
Y49016D01*
X46236Y47769D02*
X46102D01*
Y47669D01*
X46169D01*
X46102D01*
Y47569D01*
X46511Y47086D02*
X46378D01*
Y46986D01*
X46445D01*
X46378D01*
Y46886D01*
X47023Y46603D02*
X46890D01*
Y46504D01*
X46956D01*
X46890D01*
Y46404D01*
X47751Y46220D02*
X47618D01*
Y46120D01*
X47685D01*
X47618D01*
Y46020D01*
X48647Y46141D02*
X48514D01*
Y46041D01*
X48580D01*
X48514D01*
Y45941D01*
X49444Y46190D02*
X49311D01*
Y46090D01*
X49378D01*
X49311D01*
Y45990D01*
X50025Y46603D02*
X49892D01*
Y46504D01*
X49958D01*
X49892D01*
Y46404D01*
X50497Y47105D02*
X50364D01*
Y47005D01*
X50431D01*
X50364D01*
Y46906D01*
X50793Y47765D02*
X50659D01*
Y47665D01*
X50726D01*
X50659D01*
Y47565D01*
X50862Y48474D02*
X50728D01*
Y48374D01*
X50795D01*
X50728D01*
Y48274D01*
X50842Y49123D02*
X50709D01*
Y49023D01*
X50775D01*
X50709D01*
Y48923D01*
X50497Y49724D02*
X50364D01*
Y49624D01*
X50431D01*
X50364D01*
Y49524D01*
X50074Y50255D02*
X49941D01*
Y50155D01*
X50008D01*
X49941D01*
Y50055D01*
X49494Y50609D02*
X49360D01*
Y50509D01*
X49427D01*
X49360D01*
Y50409D01*
X48539Y50836D02*
X48406D01*
Y50736D01*
X48472D01*
X48406D01*
Y50636D01*
X47742Y50678D02*
X47608D01*
Y50578D01*
X47675D01*
X47608D01*
Y50478D01*
X47072Y50373D02*
X46939D01*
Y50273D01*
X47006D01*
X46939D01*
Y50173D01*
X46560Y49979D02*
X46427D01*
Y49879D01*
X46494D01*
X46427D01*
Y49780D01*
X46206Y48517D02*
X46073D01*
Y48417D01*
X46139D01*
X46073D01*
Y48317D01*
X50537Y50708D02*
X50404D01*
Y50608D01*
X50470D01*
X50404D01*
Y50508D01*
X51009Y50186D02*
X50876D01*
Y50086D01*
X50943D01*
X50876D01*
Y49986D01*
X51157Y47204D02*
X51024D01*
Y47104D01*
X51090D01*
X51024D01*
Y47004D01*
X50812Y46485D02*
X50679D01*
Y46385D01*
X50746D01*
X50679D01*
Y46285D01*
X46029Y46722D02*
X45896D01*
Y46622D01*
X45962D01*
X45896D01*
Y46522D01*
X46521Y46170D02*
X46388D01*
Y46070D01*
X46454D01*
X46388D01*
Y45970D01*
X28037Y46161D02*
X27904D01*
Y46061D01*
X27970D01*
X27904D01*
Y45961D01*
X27545Y46712D02*
X27411D01*
Y46612D01*
X27478D01*
X27411D01*
Y46512D01*
X32328Y46476D02*
X32195D01*
Y46376D01*
X32262D01*
X32195D01*
Y46276D01*
X32673Y47194D02*
X32539D01*
Y47094D01*
X32606D01*
X32539D01*
Y46994D01*
X32525Y50176D02*
X32392D01*
Y50076D01*
X32458D01*
X32392D01*
Y49976D01*
X32053Y50698D02*
X31919D01*
Y50598D01*
X31986D01*
X31919D01*
Y50498D01*
X27722Y48507D02*
X27589D01*
Y48407D01*
X27655D01*
X27589D01*
Y48307D01*
X28076Y49970D02*
X27943D01*
Y49870D01*
X28010D01*
X27943D01*
Y49770D01*
X28588Y50363D02*
X28455D01*
Y50263D01*
X28521D01*
X28455D01*
Y50163D01*
X29257Y50668D02*
X29124D01*
Y50568D01*
X29191D01*
X29124D01*
Y50469D01*
X30055Y50826D02*
X29921D01*
Y50726D01*
X29988D01*
X29921D01*
Y50626D01*
X31009Y50600D02*
X30876D01*
Y50500D01*
X30943D01*
X30876D01*
Y50400D01*
X31590Y50245D02*
X31457D01*
Y50145D01*
X31523D01*
X31457D01*
Y50045D01*
X32013Y49714D02*
X31880D01*
Y49614D01*
X31947D01*
X31880D01*
Y49514D01*
X32358Y49113D02*
X32224D01*
Y49013D01*
X32291D01*
X32224D01*
Y48913D01*
X32377Y48464D02*
X32244D01*
Y48364D01*
X32311D01*
X32244D01*
Y48264D01*
X32308Y47755D02*
X32175D01*
Y47655D01*
X32242D01*
X32175D01*
Y47555D01*
X32013Y47096D02*
X31880D01*
Y46996D01*
X31947D01*
X31880D01*
Y46896D01*
X31541Y46594D02*
X31407D01*
Y46494D01*
X31474D01*
X31407D01*
Y46394D01*
X30960Y46180D02*
X30827D01*
Y46080D01*
X30893D01*
X30827D01*
Y45980D01*
X30163Y46131D02*
X30030D01*
Y46031D01*
X30096D01*
X30030D01*
Y45931D01*
X29267Y46210D02*
X29134D01*
Y46110D01*
X29200D01*
X29134D01*
Y46010D01*
X28539Y46594D02*
X28406D01*
Y46494D01*
X28472D01*
X28406D01*
Y46394D01*
X28027Y47076D02*
X27894D01*
Y46976D01*
X27960D01*
X27894D01*
Y46876D01*
X27751Y47759D02*
X27618D01*
Y47659D01*
X27685D01*
X27618D01*
Y47559D01*
X27712Y49206D02*
X27579D01*
Y49106D01*
X27645D01*
X27579D01*
Y49006D01*
X19120Y48739D02*
X18986D01*
Y48639D01*
X19053D01*
X18986D01*
Y48539D01*
X19129Y47952D02*
X18996D01*
Y47852D01*
X19063D01*
X18996D01*
Y47752D01*
X19110Y49566D02*
X18976D01*
Y49466D01*
X19043D01*
X18976D01*
Y49366D01*
X19700Y50196D02*
X19567D01*
Y50096D01*
X19634D01*
X19567D01*
Y49996D01*
X20409Y50629D02*
X20276D01*
Y50529D01*
X20342D01*
X20276D01*
Y50429D01*
X21432Y50836D02*
X21299D01*
Y50736D01*
X21366D01*
X21299D01*
Y50636D01*
X22525Y50600D02*
X22392D01*
Y50500D01*
X22458D01*
X22392D01*
Y50400D01*
X23184Y50127D02*
X23051D01*
Y50027D01*
X23118D01*
X23051D01*
Y49927D01*
X23667Y49566D02*
X23533D01*
Y49466D01*
X23600D01*
X23533D01*
Y49366D01*
X23805Y48720D02*
X23671D01*
Y48620D01*
X23738D01*
X23671D01*
Y48520D01*
X23824Y47962D02*
X23691D01*
Y47862D01*
X23758D01*
X23691D01*
Y47762D01*
X23509Y47302D02*
X23376D01*
Y47202D01*
X23443D01*
X23376D01*
Y47102D01*
X23076Y46810D02*
X22943D01*
Y46710D01*
X23010D01*
X22943D01*
Y46610D01*
X22574Y46436D02*
X22441D01*
Y46336D01*
X22508D01*
X22441D01*
Y46236D01*
X21580Y46141D02*
X21447D01*
Y46041D01*
X21514D01*
X21447D01*
Y45941D01*
X20576Y46348D02*
X20443D01*
Y46248D01*
X20510D01*
X20443D01*
Y46148D01*
X20005Y46594D02*
X19872D01*
Y46494D01*
X19939D01*
X19872D01*
Y46394D01*
X19434Y46948D02*
X19301D01*
Y46848D01*
X19368D01*
X19301D01*
Y46748D01*
X19779Y50875D02*
X19646D01*
Y50775D01*
X19712D01*
X19646D01*
Y50675D01*
X19129Y50491D02*
X18996D01*
Y50391D01*
X19063D01*
X18996D01*
Y50291D01*
X19110Y46338D02*
X18976D01*
Y46238D01*
X19043D01*
X18976D01*
Y46138D01*
X19720Y46111D02*
X19587D01*
Y46011D01*
X19653D01*
X19587D01*
Y45911D01*
X23785Y46702D02*
X23652D01*
Y46602D01*
X23718D01*
X23652D01*
Y46502D01*
X23263Y46170D02*
X23130D01*
Y46070D01*
X23197D01*
X23130D01*
Y45970D01*
X56118Y48749D02*
X55984D01*
Y48649D01*
X56051D01*
X55984D01*
Y48549D01*
X56127Y47962D02*
X55994D01*
Y47862D01*
X56061D01*
X55994D01*
Y47762D01*
X56108Y49576D02*
X55974D01*
Y49476D01*
X56041D01*
X55974D01*
Y49376D01*
X56698Y50206D02*
X56565D01*
Y50106D01*
X56632D01*
X56565D01*
Y50006D01*
X57407Y50639D02*
X57274D01*
Y50539D01*
X57340D01*
X57274D01*
Y50439D01*
X58431Y50846D02*
X58297D01*
Y50746D01*
X58364D01*
X58297D01*
Y50646D01*
X59523Y50609D02*
X59390D01*
Y50509D01*
X59456D01*
X59390D01*
Y50409D01*
X60182Y50137D02*
X60049D01*
Y50037D01*
X60116D01*
X60049D01*
Y49937D01*
X60665Y49576D02*
X60532D01*
Y49476D01*
X60598D01*
X60532D01*
Y49376D01*
X60803Y48729D02*
X60669D01*
Y48629D01*
X60736D01*
X60669D01*
Y48530D01*
X60822Y47972D02*
X60689D01*
Y47872D01*
X60756D01*
X60689D01*
Y47772D01*
X60507Y47312D02*
X60374D01*
Y47212D01*
X60441D01*
X60374D01*
Y47112D01*
X60074Y46820D02*
X59941D01*
Y46720D01*
X60008D01*
X59941D01*
Y46620D01*
X59572Y46446D02*
X59439D01*
Y46346D01*
X59506D01*
X59439D01*
Y46246D01*
X58578Y46151D02*
X58445D01*
Y46051D01*
X58512D01*
X58445D01*
Y45951D01*
X57574Y46357D02*
X57441D01*
Y46257D01*
X57508D01*
X57441D01*
Y46157D01*
X57003Y46603D02*
X56870D01*
Y46504D01*
X56937D01*
X56870D01*
Y46404D01*
X56433Y46958D02*
X56299D01*
Y46858D01*
X56366D01*
X56299D01*
Y46758D01*
X56777Y50885D02*
X56644D01*
Y50785D01*
X56710D01*
X56644D01*
Y50685D01*
X56127Y50501D02*
X55994D01*
Y50401D01*
X56061D01*
X55994D01*
Y50301D01*
X56108Y46348D02*
X55974D01*
Y46248D01*
X56041D01*
X55974D01*
Y46148D01*
X56718Y46121D02*
X56585D01*
Y46021D01*
X56651D01*
X56585D01*
Y45921D01*
X60783Y46712D02*
X60650D01*
Y46612D01*
X60716D01*
X60650D01*
Y46512D01*
X60261Y46180D02*
X60128D01*
Y46080D01*
X60195D01*
X60128D01*
Y45980D01*
X41757Y46190D02*
X41624D01*
Y46090D01*
X41691D01*
X41624D01*
Y45990D01*
X42279Y46722D02*
X42146D01*
Y46622D01*
X42212D01*
X42146D01*
Y46522D01*
X38214Y46131D02*
X38081D01*
Y46031D01*
X38147D01*
X38081D01*
Y45931D01*
X37604Y46357D02*
X37470D01*
Y46257D01*
X37537D01*
X37470D01*
Y46157D01*
X37623Y50511D02*
X37490D01*
Y50411D01*
X37557D01*
X37490D01*
Y50311D01*
X38273Y50895D02*
X38140D01*
Y50795D01*
X38206D01*
X38140D01*
Y50695D01*
X37929Y46968D02*
X37795D01*
Y46868D01*
X37862D01*
X37795D01*
Y46768D01*
X38499Y46613D02*
X38366D01*
Y46513D01*
X38433D01*
X38366D01*
Y46413D01*
X39070Y46367D02*
X38937D01*
Y46267D01*
X39004D01*
X38937D01*
Y46167D01*
X40074Y46161D02*
X39941D01*
Y46061D01*
X40008D01*
X39941D01*
Y45961D01*
X41068Y46456D02*
X40935D01*
Y46356D01*
X41002D01*
X40935D01*
Y46256D01*
X41570Y46830D02*
X41437D01*
Y46730D01*
X41504D01*
X41437D01*
Y46630D01*
X42003Y47322D02*
X41870D01*
Y47222D01*
X41937D01*
X41870D01*
Y47122D01*
X42318Y47981D02*
X42185D01*
Y47881D01*
X42252D01*
X42185D01*
Y47782D01*
X42299Y48739D02*
X42165D01*
Y48639D01*
X42232D01*
X42165D01*
Y48539D01*
X42161Y49586D02*
X42028D01*
Y49486D01*
X42094D01*
X42028D01*
Y49386D01*
X41679Y50147D02*
X41545D01*
Y50047D01*
X41612D01*
X41545D01*
Y49947D01*
X41019Y50619D02*
X40886D01*
Y50519D01*
X40952D01*
X40886D01*
Y50419D01*
X39927Y50855D02*
X39793D01*
Y50755D01*
X39860D01*
X39793D01*
Y50656D01*
X38903Y50649D02*
X38770D01*
Y50549D01*
X38836D01*
X38770D01*
Y50449D01*
X38194Y50216D02*
X38061D01*
Y50116D01*
X38128D01*
X38061D01*
Y50016D01*
X37604Y49586D02*
X37470D01*
Y49486D01*
X37537D01*
X37470D01*
Y49386D01*
X37623Y47972D02*
X37490D01*
Y47872D01*
X37557D01*
X37490D01*
Y47772D01*
X37614Y48759D02*
X37480D01*
Y48659D01*
X37547D01*
X37480D01*
Y48559D01*
X62082Y33281D02*
X61949D01*
Y33181D01*
X62015D01*
X61949D01*
Y33081D01*
X49737Y71927D02*
X49604D01*
Y71827D01*
X49670D01*
X49604D01*
Y71727D01*
X48300Y71976D02*
X48167D01*
Y71876D01*
X48233D01*
X48167D01*
Y71776D01*
X51105Y64073D02*
X50972D01*
Y63973D01*
X51038D01*
X50972D01*
Y63873D01*
X49124Y63778D02*
X48991D01*
Y63678D01*
X49057D01*
X48991D01*
Y63578D01*
X49952Y64472D02*
X49819D01*
Y64372D01*
X49885D01*
X49819D01*
Y64273D01*
X49501Y65510D02*
X49367D01*
Y65410D01*
X49434D01*
X49367D01*
Y65310D01*
X48379Y64949D02*
X48245D01*
Y64849D01*
X48312D01*
X48245D01*
Y64749D01*
X48054Y63728D02*
X47921D01*
Y63628D01*
X47987D01*
X47921D01*
Y63528D01*
X45701Y63915D02*
X45568D01*
Y63815D01*
X45635D01*
X45568D01*
Y63715D01*
X46719Y64472D02*
X46586D01*
Y64372D01*
X46652D01*
X46586D01*
Y64273D01*
X47178Y65323D02*
X47045D01*
Y65223D01*
X47111D01*
X47045D01*
Y65123D01*
X45918Y65943D02*
X45785D01*
Y65843D01*
X45851D01*
X45785D01*
Y65743D01*
X47521Y66610D02*
X47387D01*
Y66510D01*
X47454D01*
X47387D01*
Y66410D01*
X48536Y66661D02*
X48403D01*
Y66561D01*
X48469D01*
X48403D01*
Y66461D01*
X49875Y66661D02*
X49741D01*
Y66561D01*
X49808D01*
X49741D01*
Y66461D01*
X50997Y65303D02*
X50863D01*
Y65203D01*
X50930D01*
X50863D01*
Y65103D01*
X51203Y66691D02*
X51070D01*
Y66591D01*
X51137D01*
X51070D01*
Y66491D01*
X51292Y71789D02*
X51159D01*
Y71689D01*
X51225D01*
X51159D01*
Y71589D01*
X52250Y64312D02*
X52117D01*
Y64212D01*
X52183D01*
X52117D01*
Y64112D01*
X52276Y65460D02*
X52143D01*
Y65360D01*
X52210D01*
X52143D01*
Y65260D01*
X52276Y66661D02*
X52143D01*
Y66561D01*
X52210D01*
X52143D01*
Y66461D01*
X52250Y70083D02*
X52117D01*
Y69984D01*
X52183D01*
X52117D01*
Y69884D01*
X51235Y70137D02*
X51101D01*
Y70037D01*
X51168D01*
X51101D01*
Y69937D01*
X50032Y70057D02*
X49899D01*
Y69957D01*
X49966D01*
X49899D01*
Y69857D01*
X48940Y70008D02*
X48806D01*
Y69908D01*
X48873D01*
X48806D01*
Y69808D01*
X47493Y70106D02*
X47359D01*
Y70006D01*
X47426D01*
X47359D01*
Y69906D01*
X46322Y70195D02*
X46188D01*
Y70095D01*
X46255D01*
X46188D01*
Y69995D01*
X46449Y71336D02*
X46316D01*
Y71236D01*
X46383D01*
X46316D01*
Y71136D01*
X47572Y71287D02*
X47438D01*
Y71187D01*
X47505D01*
X47438D01*
Y71087D01*
X49018Y71317D02*
X48885D01*
Y71217D01*
X48952D01*
X48885D01*
Y71117D01*
X50514Y71287D02*
X50381D01*
Y71187D01*
X50448D01*
X50381D01*
Y71087D01*
X52198Y71287D02*
X52064D01*
Y71187D01*
X52131D01*
X52064D01*
Y71087D01*
X52217Y78708D02*
X52084D01*
Y78608D01*
X52151D01*
X52084D01*
Y78509D01*
X51144Y78659D02*
X51011D01*
Y78559D01*
X51078D01*
X51011D01*
Y78459D01*
X52188Y80165D02*
X52054D01*
Y80065D01*
X52121D01*
X52054D01*
Y79965D01*
X51115Y80145D02*
X50982D01*
Y80045D01*
X51048D01*
X50982D01*
Y79946D01*
X33979Y68492D02*
X33846D01*
Y68392D01*
X33912D01*
X33846D01*
Y68292D01*
X25665Y68290D02*
X25531D01*
Y68191D01*
X25598D01*
X25531D01*
Y68091D01*
X8162Y71234D02*
X8029D01*
Y71134D01*
X8095D01*
X8029D01*
Y71034D01*
X58952Y53704D02*
X58819D01*
Y53604D01*
X58886D01*
X58819D01*
Y53504D01*
X59818Y53704D02*
X59685D01*
Y53604D01*
X59752D01*
X59685D01*
Y53504D01*
X8047Y70436D02*
X7913D01*
Y70336D01*
X7980D01*
X7913D01*
Y70236D01*
X6905Y74019D02*
X6772D01*
Y73919D01*
X6838D01*
X6772D01*
Y73819D01*
X37889Y68822D02*
X37756D01*
Y68722D01*
X37823D01*
X37756D01*
Y68622D01*
X40744Y71794D02*
X40610D01*
Y71694D01*
X40677D01*
X40610D01*
Y71594D01*
X35999Y69964D02*
X35866D01*
Y69864D01*
X35933D01*
X35866D01*
Y69764D01*
X55803Y82523D02*
X55669D01*
Y82423D01*
X55736D01*
X55669D01*
Y82323D01*
X85338Y85748D02*
X85205D01*
Y85648D01*
X85271D01*
X85205D01*
Y85548D01*
X81875Y85997D02*
X81742D01*
Y85897D01*
X81809D01*
X81742D01*
Y85797D01*
X74868Y85997D02*
X74734D01*
Y85897D01*
X74801D01*
X74734D01*
Y85797D01*
X84039Y87651D02*
X83906D01*
Y87551D01*
X83972D01*
X83906D01*
Y87451D01*
X80656Y87530D02*
X80523D01*
Y87430D01*
X80589D01*
X80523D01*
Y87330D01*
X74907Y87611D02*
X74774D01*
Y87511D01*
X74840D01*
X74774D01*
Y87411D01*
X69316Y87808D02*
X69183D01*
Y87708D01*
X69250D01*
X69183D01*
Y87608D01*
X66196Y85633D02*
X66063D01*
Y85533D01*
X66130D01*
X66063D01*
Y85433D01*
X64828Y87966D02*
X64695D01*
Y87866D01*
X64762D01*
X64695D01*
Y87766D01*
X58608Y88084D02*
X58474D01*
Y87984D01*
X58541D01*
X58474D01*
Y87884D01*
X59592Y86233D02*
X59459D01*
Y86133D01*
X59525D01*
X59459D01*
Y86033D01*
X68273Y69570D02*
X68140D01*
Y69470D01*
X68206D01*
X68140D01*
Y69370D01*
X82407Y59019D02*
X82274D01*
Y58919D01*
X82340D01*
X82274D01*
Y58819D01*
X60270Y65938D02*
X60137D01*
Y65838D01*
X60204D01*
X60137D01*
Y65738D01*
X59494Y64334D02*
X59360D01*
Y64234D01*
X59427D01*
X59360D01*
Y64134D01*
X38913Y93310D02*
X38780D01*
Y93210D01*
X38846D01*
X38780D01*
Y93110D01*
X49307Y88970D02*
X49173D01*
Y88870D01*
X49240D01*
X49173D01*
Y88770D01*
X52929Y88979D02*
X52795D01*
Y88879D01*
X52862D01*
X52795D01*
Y88780D01*
X51621Y87405D02*
X51488D01*
Y87305D01*
X51554D01*
X51488D01*
Y87205D01*
X51265Y86381D02*
X51132D01*
Y86281D01*
X51199D01*
X51132D01*
Y86181D01*
X52761Y86853D02*
X52628D01*
Y86754D01*
X52695D01*
X52628D01*
Y86654D01*
X51934Y86420D02*
X51801D01*
Y86320D01*
X51868D01*
X51801D01*
Y86220D01*
X51659Y90397D02*
X51526D01*
Y90297D01*
X51592D01*
X51526D01*
Y90197D01*
X51118Y90869D02*
X50984D01*
Y90769D01*
X51051D01*
X50984D01*
Y90669D01*
X63677Y65239D02*
X63543D01*
Y65139D01*
X63610D01*
X63543D01*
Y65039D01*
X70596Y65948D02*
X70463D01*
Y65848D01*
X70529D01*
X70463D01*
Y65748D01*
X70825Y67916D02*
X70692D01*
Y67817D01*
X70759D01*
X70692D01*
Y67717D01*
X23283Y69609D02*
X23150D01*
Y69509D01*
X23216D01*
X23150D01*
Y69409D01*
X21787Y68350D02*
X21654D01*
Y68250D01*
X21720D01*
X21654D01*
Y68150D01*
X48027Y92826D02*
X47894D01*
Y92726D01*
X47960D01*
X47894D01*
Y92626D01*
X37889Y92483D02*
X37756D01*
Y92383D01*
X37823D01*
X37756D01*
Y92283D01*
X66423Y59126D02*
X66289D01*
Y59026D01*
X66356D01*
X66289D01*
Y58926D01*
X81501Y41657D02*
X81368D01*
Y41557D01*
X81435D01*
X81368D01*
Y41457D01*
X83549Y42287D02*
X83415D01*
Y42187D01*
X83482D01*
X83415D01*
Y42087D01*
X86555Y35068D02*
X86422D01*
Y34968D01*
X86489D01*
X86422D01*
Y34868D01*
X85202Y36263D02*
X85069D01*
Y36163D01*
X85136D01*
X85069D01*
Y36063D01*
X80635Y23743D02*
X80502D01*
Y23643D01*
X80569D01*
X80502D01*
Y23543D01*
X83864Y26342D02*
X83730D01*
Y26242D01*
X83797D01*
X83730D01*
Y26142D01*
X72415Y26909D02*
X72282D01*
Y26809D01*
X72349D01*
X72282D01*
Y26709D01*
X72171Y19806D02*
X72037D01*
Y19706D01*
X72104D01*
X72037D01*
Y19606D01*
X84139Y30948D02*
X84006D01*
Y30848D01*
X84073D01*
X84006D01*
Y30748D01*
X71895Y33113D02*
X71762D01*
Y33013D01*
X71828D01*
X71762D01*
Y32913D01*
X79375Y32247D02*
X79242D01*
Y32147D01*
X79309D01*
X79242D01*
Y32047D01*
X83116Y21657D02*
X82982D01*
Y21557D01*
X83049D01*
X82982D01*
Y21457D01*
X75990Y23074D02*
X75856D01*
Y22974D01*
X75923D01*
X75856D01*
Y22874D01*
X80202Y27287D02*
X80069D01*
Y27187D01*
X80136D01*
X80069D01*
Y27087D01*
X76068Y29452D02*
X75935D01*
Y29352D01*
X76002D01*
X75935D01*
Y29252D01*
X75163Y58350D02*
X75030D01*
Y58250D01*
X75096D01*
X75030D01*
Y58150D01*
X72525Y59806D02*
X72392D01*
Y59706D01*
X72458D01*
X72392D01*
Y59606D01*
X80084Y59924D02*
X79951D01*
Y59824D01*
X80017D01*
X79951D01*
Y59724D01*
X81620Y59846D02*
X81486D01*
Y59746D01*
X81553D01*
X81486D01*
Y59646D01*
X82958Y59846D02*
X82825D01*
Y59746D01*
X82891D01*
X82825D01*
Y59646D01*
X84179Y59806D02*
X84045D01*
Y59706D01*
X84112D01*
X84045D01*
Y59606D01*
X80950Y59058D02*
X80817D01*
Y58958D01*
X80884D01*
X80817D01*
Y58858D01*
X79454Y59098D02*
X79321D01*
Y58998D01*
X79387D01*
X79321D01*
Y58898D01*
X81226Y53861D02*
X81093D01*
Y53761D01*
X81159D01*
X81093D01*
Y53661D01*
X71590Y52916D02*
X71457D01*
Y52817D01*
X71523D01*
X71457D01*
Y52717D01*
X63903Y55397D02*
X63770D01*
Y55297D01*
X63836D01*
X63770D01*
Y55197D01*
X61669Y54555D02*
X61535D01*
Y54455D01*
X61602D01*
X61535D01*
Y54355D01*
X74612Y43940D02*
X74478D01*
Y43840D01*
X74545D01*
X74478D01*
Y43740D01*
X73706Y45357D02*
X73573D01*
Y45257D01*
X73639D01*
X73573D01*
Y45157D01*
X38755Y72050D02*
X38622D01*
Y71950D01*
X38689D01*
X38622D01*
Y71850D01*
X23913Y69099D02*
X23780D01*
Y68999D01*
X23846D01*
X23780D01*
Y68899D01*
X7338Y72877D02*
X7205D01*
Y72777D01*
X7271D01*
X7205D01*
Y72677D01*
X7338Y72050D02*
X7205D01*
Y71950D01*
X7271D01*
X7205D01*
Y71850D01*
X16236Y30928D02*
X16102D01*
Y30828D01*
X16169D01*
X16102D01*
Y30728D01*
X17259Y30928D02*
X17126D01*
Y30828D01*
X17193D01*
X17126D01*
Y30728D01*
X18283Y30928D02*
X18150D01*
Y30828D01*
X18216D01*
X18150D01*
Y30728D01*
X15271Y30928D02*
X15138D01*
Y30828D01*
X15204D01*
X15138D01*
Y30728D01*
X10921Y30928D02*
X10787D01*
Y30828D01*
X10854D01*
X10787D01*
Y30728D01*
X11944Y30928D02*
X11811D01*
Y30828D01*
X11878D01*
X11811D01*
Y30728D01*
X12968Y30928D02*
X12835D01*
Y30828D01*
X12901D01*
X12835D01*
Y30728D01*
X9956Y30928D02*
X9823D01*
Y30828D01*
X9889D01*
X9823D01*
Y30728D01*
X5370Y30889D02*
X5236D01*
Y30789D01*
X5303D01*
X5236D01*
Y30689D01*
X6393Y30889D02*
X6260D01*
Y30789D01*
X6326D01*
X6260D01*
Y30689D01*
X7417Y30889D02*
X7283D01*
Y30789D01*
X7350D01*
X7283D01*
Y30689D01*
X4405Y30889D02*
X4272D01*
Y30789D01*
X4338D01*
X4272D01*
Y30689D01*
X14503Y28074D02*
X14370D01*
Y27974D01*
X14437D01*
X14370D01*
Y27874D01*
X14503Y27031D02*
X14370D01*
Y26931D01*
X14437D01*
X14370D01*
Y26831D01*
X13421Y28035D02*
X13287D01*
Y27935D01*
X13354D01*
X13287D01*
Y27835D01*
X13421Y27011D02*
X13287D01*
Y26911D01*
X13354D01*
X13287D01*
Y26811D01*
X13421Y25987D02*
X13287D01*
Y25887D01*
X13354D01*
X13287D01*
Y25787D01*
X14503Y26007D02*
X14370D01*
Y25907D01*
X14437D01*
X14370D01*
Y25807D01*
X14503Y29019D02*
X14370D01*
Y28919D01*
X14437D01*
X14370D01*
Y28819D01*
X13421Y28999D02*
X13287D01*
Y28899D01*
X13354D01*
X13287D01*
Y28799D01*
X15606Y29019D02*
X15472D01*
Y28919D01*
X15539D01*
X15472D01*
Y28819D01*
X15606Y26007D02*
X15472D01*
Y25907D01*
X15539D01*
X15472D01*
Y25807D01*
X15606Y27031D02*
X15472D01*
Y26931D01*
X15539D01*
X15472D01*
Y26831D01*
X15606Y28074D02*
X15472D01*
Y27974D01*
X15539D01*
X15472D01*
Y27874D01*
X16708Y29019D02*
X16575D01*
Y28919D01*
X16641D01*
X16575D01*
Y28819D01*
X16708Y26007D02*
X16575D01*
Y25907D01*
X16641D01*
X16575D01*
Y25807D01*
X16708Y27031D02*
X16575D01*
Y26931D01*
X16641D01*
X16575D01*
Y26831D01*
X16708Y28074D02*
X16575D01*
Y27974D01*
X16641D01*
X16575D01*
Y27874D01*
X10055Y28113D02*
X9921D01*
Y28013D01*
X9988D01*
X9921D01*
Y27913D01*
X10055Y27070D02*
X9921D01*
Y26970D01*
X9988D01*
X9921D01*
Y26870D01*
X10055Y26046D02*
X9921D01*
Y25946D01*
X9988D01*
X9921D01*
Y25846D01*
X10055Y29058D02*
X9921D01*
Y28958D01*
X9988D01*
X9921D01*
Y28858D01*
X8952Y28113D02*
X8819D01*
Y28013D01*
X8886D01*
X8819D01*
Y27913D01*
X8952Y27070D02*
X8819D01*
Y26970D01*
X8886D01*
X8819D01*
Y26870D01*
X8952Y26046D02*
X8819D01*
Y25946D01*
X8886D01*
X8819D01*
Y25846D01*
X8952Y29058D02*
X8819D01*
Y28958D01*
X8886D01*
X8819D01*
Y28858D01*
X6767Y29039D02*
X6634D01*
Y28939D01*
X6701D01*
X6634D01*
Y28839D01*
X7850Y29058D02*
X7717D01*
Y28958D01*
X7783D01*
X7717D01*
Y28858D01*
X7850Y26046D02*
X7717D01*
Y25946D01*
X7783D01*
X7717D01*
Y25846D01*
X6767Y26027D02*
X6634D01*
Y25927D01*
X6701D01*
X6634D01*
Y25827D01*
X6767Y27050D02*
X6634D01*
Y26950D01*
X6701D01*
X6634D01*
Y26850D01*
X6767Y28074D02*
X6634D01*
Y27974D01*
X6701D01*
X6634D01*
Y27874D01*
X7850Y27070D02*
X7717D01*
Y26970D01*
X7783D01*
X7717D01*
Y26870D01*
X7850Y28113D02*
X7717D01*
Y28013D01*
X7783D01*
X7717D01*
Y27913D01*
X83775Y80072D02*
X83642D01*
Y79972D01*
X83708D01*
X83642D01*
Y79872D01*
X86049Y82296D02*
X85915D01*
Y82196D01*
X85982D01*
X85915D01*
Y82096D01*
X86275Y83123D02*
X86142D01*
Y83023D01*
X86208D01*
X86142D01*
Y82923D01*
X82318Y80348D02*
X82185D01*
Y80248D01*
X82252D01*
X82185D01*
Y80148D01*
X79090Y79826D02*
X78957D01*
Y79726D01*
X79023D01*
X78957D01*
Y79626D01*
X79681Y80367D02*
X79547D01*
Y80267D01*
X79614D01*
X79547D01*
Y80167D01*
X65423Y53452D02*
X65289D01*
Y53352D01*
X65356D01*
X65289D01*
Y53252D01*
X80419Y50554D02*
X80285D01*
Y50454D01*
X80352D01*
X80285D01*
Y50354D01*
X77249Y46381D02*
X77116D01*
Y46281D01*
X77183D01*
X77116D01*
Y46181D01*
X72289Y51509D02*
X72155D01*
Y51409D01*
X72222D01*
X72155D01*
Y51309D01*
X78499Y47789D02*
X78366D01*
Y47689D01*
X78433D01*
X78366D01*
Y47589D01*
X77062Y48537D02*
X76929D01*
Y48437D01*
X76996D01*
X76929D01*
Y48337D01*
X75763Y50348D02*
X75630D01*
Y50248D01*
X75697D01*
X75630D01*
Y50148D01*
X24882Y53767D02*
X24749D01*
Y53667D01*
X24816D01*
X24749D01*
Y53567D01*
X43265Y53708D02*
X43132D01*
Y53608D01*
X43199D01*
X43132D01*
Y53508D01*
X40370Y51998D02*
X40236D01*
Y51898D01*
X40303D01*
X40236D01*
Y51798D01*
X40104Y53672D02*
X39970D01*
Y53572D01*
X40037D01*
X39970D01*
Y53472D01*
X61236Y51989D02*
X61102D01*
Y51889D01*
X61169D01*
X61102D01*
Y51789D01*
X42495Y52392D02*
X42362D01*
Y52292D01*
X42429D01*
X42362D01*
Y52192D01*
X76934Y40308D02*
X76801D01*
Y40208D01*
X76868D01*
X76801D01*
Y40108D01*
X77830Y52011D02*
X77697D01*
Y51911D01*
X77763D01*
X77697D01*
Y51811D01*
X82230Y51844D02*
X82096D01*
Y51744D01*
X82163D01*
X82096D01*
Y51644D01*
X77171Y51824D02*
X77037D01*
Y51724D01*
X77104D01*
X77037D01*
Y51624D01*
X74356Y53438D02*
X74222D01*
Y53338D01*
X74289D01*
X74222D01*
Y53238D01*
X75271Y52129D02*
X75138D01*
Y52029D01*
X75204D01*
X75138D01*
Y51929D01*
X64110Y86184D02*
X63976D01*
Y86084D01*
X64043D01*
X63976D01*
Y85984D01*
X67476Y86844D02*
X67343D01*
Y86744D01*
X67409D01*
X67343D01*
Y86644D01*
X61738Y86775D02*
X61604D01*
Y86675D01*
X61671D01*
X61604D01*
Y86575D01*
X55740Y86657D02*
X55607D01*
Y86557D01*
X55674D01*
X55607D01*
Y86457D01*
X69872Y80049D02*
X69738D01*
Y79949D01*
X69805D01*
X69738D01*
Y79849D01*
X60858Y79379D02*
X60725D01*
Y79279D01*
X60792D01*
X60725D01*
Y79179D01*
X56675Y80973D02*
X56542D01*
Y80874D01*
X56609D01*
X56542D01*
Y80774D01*
X56953Y76860D02*
X56819D01*
Y76760D01*
X56886D01*
X56819D01*
Y76660D01*
X58244Y69580D02*
X58110D01*
Y69480D01*
X58177D01*
X58110D01*
Y69380D01*
X81541Y65741D02*
X81407D01*
Y65641D01*
X81474D01*
X81407D01*
Y65541D01*
X76393Y65003D02*
X76260D01*
Y64903D01*
X76326D01*
X76260D01*
Y64803D01*
X74562Y67680D02*
X74429D01*
Y67580D01*
X74496D01*
X74429D01*
Y67480D01*
X78007Y68999D02*
X77874D01*
Y68899D01*
X77941D01*
X77874D01*
Y68799D01*
X79051Y65269D02*
X78917D01*
Y65169D01*
X78984D01*
X78917D01*
Y65069D01*
X79464Y67316D02*
X79331D01*
Y67216D01*
X79397D01*
X79331D01*
Y67116D01*
X76088Y71086D02*
X75955D01*
Y70986D01*
X76021D01*
X75955D01*
Y70886D01*
X74375Y71657D02*
X74242D01*
Y71557D01*
X74309D01*
X74242D01*
Y71457D01*
X72279Y75200D02*
X72146D01*
Y75100D01*
X72212D01*
X72146D01*
Y75000D01*
X70704Y77021D02*
X70571D01*
Y76921D01*
X70638D01*
X70571D01*
Y76821D01*
X71443Y73763D02*
X71310D01*
Y73663D01*
X71376D01*
X71310D01*
Y73563D01*
X62200Y74294D02*
X62067D01*
Y74194D01*
X62134D01*
X62067D01*
Y74094D01*
X60419Y76860D02*
X60286D01*
Y76760D01*
X60352D01*
X60286D01*
Y76660D01*
X58224Y73507D02*
X58091D01*
Y73407D01*
X58157D01*
X58091D01*
Y73307D01*
X63027Y63310D02*
X62894D01*
Y63210D01*
X62960D01*
X62894D01*
Y63110D01*
X69287Y58044D02*
X69154D01*
Y57944D01*
X69220D01*
X69154D01*
Y57844D01*
X65557Y58094D02*
X65423D01*
Y57994D01*
X65490D01*
X65423D01*
Y57894D01*
X67497Y66115D02*
X67363D01*
Y66015D01*
X67430D01*
X67363D01*
Y65915D01*
X60823Y68795D02*
X60690D01*
Y68695D01*
X60756D01*
X60690D01*
Y68595D01*
X58027Y86096D02*
X57894D01*
Y85996D01*
X57960D01*
X57894D01*
Y85896D01*
X69356Y86194D02*
X69222D01*
Y86094D01*
X69289D01*
X69222D01*
Y85994D01*
X81255Y57526D02*
X81122D01*
Y57426D01*
X81189D01*
X81122D01*
Y57326D01*
X79749Y54611D02*
X79616D01*
Y54511D01*
X79683D01*
X79616D01*
Y54411D01*
X77249Y54258D02*
X77116D01*
Y54158D01*
X77183D01*
X77116D01*
Y54058D01*
X74936Y54058D02*
X74803D01*
Y53958D01*
X74870D01*
X74803D01*
Y53858D01*
X75232Y56263D02*
X75098D01*
Y56163D01*
X75165D01*
X75098D01*
Y56063D01*
X80192Y53113D02*
X80059D01*
Y53013D01*
X80126D01*
X80059D01*
Y52913D01*
X78017Y53103D02*
X77884D01*
Y53004D01*
X77951D01*
X77884D01*
Y52904D01*
X80980Y34989D02*
X80946Y35023D01*
X80880D01*
X80846Y34989D01*
Y34856D01*
X80880Y34823D01*
X80946D01*
X80980Y34856D01*
Y34923D01*
X80913D01*
X11629Y79649D02*
X11496D01*
Y79549D01*
X11563D01*
X11496D01*
Y79449D01*
X4749Y78812D02*
X4616D01*
Y78712D01*
X4683D01*
X4616D01*
Y78612D01*
X6846Y80092D02*
X6713D01*
Y79992D01*
X6779D01*
X6713D01*
Y79892D01*
X7673Y82877D02*
X7539D01*
Y82777D01*
X7606D01*
X7539D01*
Y82677D01*
X19139Y72720D02*
X19006D01*
Y72620D01*
X19073D01*
X19006D01*
Y72520D01*
X10842Y74383D02*
X10709D01*
Y74283D01*
X10775D01*
X10709D01*
Y74183D01*
X14927Y76204D02*
X14793D01*
Y76104D01*
X14860D01*
X14793D01*
Y76004D01*
X14090Y74531D02*
X13957D01*
Y74431D01*
X14023D01*
X13957D01*
Y74331D01*
X16846Y74294D02*
X16713D01*
Y74194D01*
X16779D01*
X16713D01*
Y74094D01*
X10793Y78153D02*
X10659D01*
Y78053D01*
X10726D01*
X10659D01*
Y77953D01*
X9277Y76607D02*
X9144D01*
Y76507D01*
X9210D01*
X9144D01*
Y76407D01*
X6265Y77651D02*
X6132D01*
Y77551D01*
X6199D01*
X6132D01*
Y77451D01*
X9188Y81184D02*
X9055D01*
Y81084D01*
X9122D01*
X9055D01*
Y80984D01*
X8568Y78724D02*
X8435D01*
Y78624D01*
X8502D01*
X8435D01*
Y78524D01*
X13283Y77916D02*
X13150D01*
Y77817D01*
X13216D01*
X13150D01*
Y77717D01*
X12249Y76292D02*
X12116D01*
Y76192D01*
X12183D01*
X12116D01*
Y76093D01*
X65763Y9944D02*
X65630D01*
Y9844D01*
X65697D01*
X65630D01*
Y9744D01*
X65763Y9157D02*
X65630D01*
Y9057D01*
X65697D01*
X65630D01*
Y8957D01*
X65763Y8369D02*
X65630D01*
Y8269D01*
X65697D01*
X65630D01*
Y8169D01*
X65763Y7611D02*
X65630D01*
Y7511D01*
X65697D01*
X65630D01*
Y7411D01*
X69307Y10042D02*
X69173D01*
Y9942D01*
X69240D01*
X69173D01*
Y9843D01*
X69307Y9255D02*
X69173D01*
Y9155D01*
X69240D01*
X69173D01*
Y9055D01*
X69307Y8468D02*
X69173D01*
Y8368D01*
X69240D01*
X69173D01*
Y8268D01*
X69307Y7680D02*
X69173D01*
Y7580D01*
X69240D01*
X69173D01*
Y7480D01*
X68723Y10376D02*
X68590D01*
Y10276D01*
X68657D01*
X68590D01*
Y10176D01*
X67936Y10376D02*
X67803D01*
Y10276D01*
X67869D01*
X67803D01*
Y10176D01*
X67148Y10376D02*
X67015D01*
Y10276D01*
X67082D01*
X67015D01*
Y10176D01*
X66361Y10376D02*
X66228D01*
Y10276D01*
X66294D01*
X66228D01*
Y10176D01*
X66407Y7446D02*
X66274D01*
Y7346D01*
X66340D01*
X66274D01*
Y7246D01*
X67194Y7446D02*
X67061D01*
Y7346D01*
X67128D01*
X67061D01*
Y7246D01*
X67982Y7446D02*
X67849D01*
Y7346D01*
X67915D01*
X67849D01*
Y7246D01*
X68769Y7446D02*
X68636D01*
Y7346D01*
X68703D01*
X68636D01*
Y7246D01*
X47268Y9944D02*
X47134D01*
Y9844D01*
X47201D01*
X47134D01*
Y9744D01*
X47268Y9157D02*
X47134D01*
Y9057D01*
X47201D01*
X47134D01*
Y8957D01*
X47268Y8369D02*
X47134D01*
Y8269D01*
X47201D01*
X47134D01*
Y8169D01*
X47268Y7611D02*
X47134D01*
Y7511D01*
X47201D01*
X47134D01*
Y7411D01*
X50811Y10042D02*
X50678D01*
Y9942D01*
X50744D01*
X50678D01*
Y9843D01*
X50811Y9255D02*
X50678D01*
Y9155D01*
X50744D01*
X50678D01*
Y9055D01*
X50811Y8468D02*
X50678D01*
Y8368D01*
X50744D01*
X50678D01*
Y8268D01*
X50811Y7680D02*
X50678D01*
Y7580D01*
X50744D01*
X50678D01*
Y7480D01*
X50228Y10376D02*
X50094D01*
Y10276D01*
X50161D01*
X50094D01*
Y10176D01*
X49440Y10376D02*
X49307D01*
Y10276D01*
X49374D01*
X49307D01*
Y10176D01*
X48653Y10376D02*
X48519D01*
Y10276D01*
X48586D01*
X48519D01*
Y10176D01*
X47865Y10376D02*
X47732D01*
Y10276D01*
X47799D01*
X47732D01*
Y10176D01*
X47911Y7446D02*
X47778D01*
Y7346D01*
X47845D01*
X47778D01*
Y7246D01*
X48699Y7446D02*
X48566D01*
Y7346D01*
X48632D01*
X48566D01*
Y7246D01*
X49486Y7446D02*
X49353D01*
Y7346D01*
X49420D01*
X49353D01*
Y7246D01*
X50274Y7446D02*
X50140D01*
Y7346D01*
X50207D01*
X50140D01*
Y7246D01*
X31781Y7446D02*
X31648D01*
Y7346D01*
X31714D01*
X31648D01*
Y7246D01*
X30994Y7446D02*
X30860D01*
Y7346D01*
X30927D01*
X30860D01*
Y7246D01*
X30206Y7446D02*
X30073D01*
Y7346D01*
X30140D01*
X30073D01*
Y7246D01*
X29419Y7446D02*
X29286D01*
Y7346D01*
X29352D01*
X29286D01*
Y7246D01*
X29373Y10376D02*
X29240D01*
Y10276D01*
X29306D01*
X29240D01*
Y10176D01*
X30160Y10376D02*
X30027D01*
Y10276D01*
X30094D01*
X30027D01*
Y10176D01*
X30948Y10376D02*
X30814D01*
Y10276D01*
X30881D01*
X30814D01*
Y10176D01*
X31735Y10376D02*
X31602D01*
Y10276D01*
X31668D01*
X31602D01*
Y10176D01*
X32318Y7680D02*
X32185D01*
Y7580D01*
X32252D01*
X32185D01*
Y7480D01*
X32318Y8468D02*
X32185D01*
Y8368D01*
X32252D01*
X32185D01*
Y8268D01*
X32318Y9255D02*
X32185D01*
Y9155D01*
X32252D01*
X32185D01*
Y9055D01*
X32318Y10042D02*
X32185D01*
Y9942D01*
X32252D01*
X32185D01*
Y9843D01*
X28775Y7611D02*
X28642D01*
Y7511D01*
X28708D01*
X28642D01*
Y7411D01*
X28775Y8369D02*
X28642D01*
Y8269D01*
X28708D01*
X28642D01*
Y8169D01*
X28775Y9157D02*
X28642D01*
Y9057D01*
X28708D01*
X28642D01*
Y8957D01*
X28775Y9944D02*
X28642D01*
Y9844D01*
X28708D01*
X28642D01*
Y9744D01*
X48027Y91647D02*
X47894D01*
Y91547D01*
X47960D01*
X47894D01*
Y91447D01*
X48125Y90055D02*
X47992D01*
Y89955D01*
X48059D01*
X47992D01*
Y89855D01*
X48125Y88710D02*
X47992D01*
Y88610D01*
X48059D01*
X47992D01*
Y88510D01*
X48125Y86922D02*
X47992D01*
Y86822D01*
X48059D01*
X47992D01*
Y86722D01*
D198*
X58415Y48280D02*
G03*
X58415Y48280I-80J0D01*
G01*
X67001D02*
G03*
X67001Y48280I-80J0D01*
G01*
X39921D02*
G03*
X39921Y48280I-80J0D01*
G01*
X48507D02*
G03*
X48507Y48280I-80J0D01*
G01*
X21426D02*
G03*
X21426Y48280I-80J0D01*
G01*
X30013D02*
G03*
X30013Y48280I-80J0D01*
G01*
X80055Y43327D02*
G03*
X80055Y43327I-80J0D01*
G01*
X79055D02*
G03*
X79055Y43327I-80J0D01*
G01*
X78055D02*
G03*
X78055Y43327I-80J0D01*
G01*
X77055D02*
G03*
X77055Y43327I-80J0D01*
G01*
X73171Y42132D02*
G03*
X73171Y42132I-80J0D01*
G01*
Y41132D02*
G03*
X73171Y41132I-80J0D01*
G01*
Y40132D02*
G03*
X73171Y40132I-80J0D01*
G01*
Y39132D02*
G03*
X73171Y39132I-80J0D01*
G01*
D199*
X80015Y43327D02*
G03*
X80015Y43327I-40J0D01*
G01*
X79015D02*
G03*
X79015Y43327I-40J0D01*
G01*
X78015D02*
G03*
X78015Y43327I-40J0D01*
G01*
X77015D02*
G03*
X77015Y43327I-40J0D01*
G01*
X73131Y42132D02*
G03*
X73131Y42132I-40J0D01*
G01*
Y41132D02*
G03*
X73131Y41132I-40J0D01*
G01*
Y40132D02*
G03*
X73131Y40132I-40J0D01*
G01*
Y39132D02*
G03*
X73131Y39132I-40J0D01*
G01*
M02*
