G04*
G04 #@! TF.GenerationSoftware,Altium Limited,Altium Designer,20.2.4 (192)*
G04*
G04 Layer_Color=8388736*
%FSLAX24Y24*%
%MOIN*%
G70*
G04*
G04 #@! TF.SameCoordinates,B9BB7F2B-B7AC-4897-A438-396A0F5AD448*
G04*
G04*
G04 #@! TF.FilePolarity,Negative*
G04*
G01*
G75*
%ADD62R,0.0316X0.0332*%
%ADD63R,0.0218X0.0611*%
%ADD64R,0.0474X0.0395*%
%ADD65R,0.0671X0.0867*%
%ADD66R,0.0316X0.0474*%
%ADD67R,0.0316X0.0356*%
%ADD68R,0.0647X0.0734*%
%ADD69R,0.0552X0.0493*%
%ADD70R,0.0395X0.0474*%
%ADD71R,0.0493X0.0552*%
%ADD72R,0.0395X0.0316*%
%ADD73R,0.0926X0.0946*%
%ADD74R,0.0718X0.0891*%
%ADD75R,0.0474X0.0434*%
%ADD76R,0.0986X0.0769*%
%ADD77R,0.0891X0.0718*%
%ADD78R,0.0651X0.0474*%
%ADD79R,0.0867X0.1556*%
%ADD80R,0.0706X0.1828*%
%ADD81R,0.0706X0.0332*%
%ADD82R,0.0474X0.0651*%
%ADD83R,0.0356X0.0316*%
%ADD84R,0.0336X0.0332*%
%ADD85R,0.0332X0.0706*%
%ADD86R,0.1828X0.0706*%
%ADD87R,0.1340X0.0769*%
%ADD88R,0.0454X0.0769*%
%ADD89R,0.2639X0.2639*%
%ADD90R,0.0316X0.0395*%
%ADD91R,0.0332X0.0336*%
%ADD92R,0.0363X0.0781*%
%ADD93R,0.0671X0.0434*%
%ADD94R,0.0434X0.0671*%
%ADD95R,0.0659X0.0482*%
%ADD96R,0.0482X0.0659*%
%ADD97R,0.0734X0.0647*%
%ADD98R,0.0954X0.0403*%
%ADD99R,0.0718X0.1265*%
%ADD100R,0.0415X0.0513*%
%ADD101R,0.0926X0.1182*%
%ADD102R,0.1497X0.0789*%
%ADD103C,0.0513*%
%ADD104C,0.4017*%
%ADD105C,0.2442*%
%ADD106C,0.1655*%
%ADD107O,0.0630X0.0650*%
%ADD108C,0.1600*%
%ADD109R,0.0824X0.0824*%
%ADD110O,0.0824X0.0824*%
%ADD111C,0.0690*%
%ADD112C,0.0946*%
%ADD113C,0.0780*%
%ADD114C,0.0611*%
%ADD115C,0.0848*%
%ADD116R,0.0513X0.0513*%
%ADD117R,0.0592X0.0592*%
%ADD118C,0.0592*%
%ADD119R,0.0780X0.0780*%
%ADD120R,0.0513X0.0513*%
%ADD121C,0.3623*%
%ADD122C,0.1261*%
%ADD123C,0.0710*%
%ADD124R,0.0710X0.0710*%
%ADD125C,0.0676*%
%ADD126R,0.0824X0.0730*%
%ADD127C,0.0816*%
%ADD128C,0.0671*%
%ADD129R,0.1178X0.1178*%
%ADD130C,0.1178*%
%ADD131R,0.0671X0.0671*%
%ADD132P,0.0948X4X360.0*%
%ADD133C,0.0730*%
%ADD134R,0.0730X0.0730*%
%ADD135C,0.0580*%
G36*
X18898Y32244D02*
Y22047D01*
X18110Y21260D01*
X17717D01*
X14488Y24488D01*
X8346D01*
X5906Y22047D01*
X709D01*
Y29921D01*
X3110Y32323D01*
X18819D01*
X18898Y32244D01*
D02*
G37*
G36*
X32224Y10551D02*
X32963D01*
Y6732D01*
X32884Y6654D01*
X32854Y6683D01*
X32224D01*
Y6339D01*
X32185Y6299D01*
X28327D01*
Y6683D01*
X27579D01*
Y10413D01*
X27470Y10522D01*
X27539D01*
X27569Y10551D01*
X28327D01*
Y11063D01*
X28406Y11142D01*
X32224D01*
Y10551D01*
D02*
G37*
G36*
X59882Y10640D02*
X60935D01*
X61033Y10541D01*
Y6762D01*
X59882D01*
Y6457D01*
X59843Y6417D01*
X55984D01*
Y6762D01*
X55630D01*
X55463Y6929D01*
X55581Y10640D01*
X55984D01*
Y11181D01*
X56063Y11260D01*
X59882D01*
Y10640D01*
D02*
G37*
G36*
X50846Y10610D02*
X51398D01*
X51624Y10384D01*
X51565Y10325D01*
Y6683D01*
X50846D01*
Y6417D01*
X50807Y6378D01*
X46949D01*
Y6683D01*
X46171D01*
X46102Y6752D01*
Y10610D01*
X46949D01*
Y11142D01*
X47028Y11220D01*
X50846D01*
Y10610D01*
D02*
G37*
G36*
X41358Y10591D02*
X42382D01*
X42470Y10502D01*
Y6880D01*
X41358D01*
Y6378D01*
X41319Y6339D01*
X37461D01*
Y6880D01*
X37185D01*
X37077Y10591D01*
X37461D01*
Y11102D01*
X37539Y11181D01*
X41358D01*
Y10591D01*
D02*
G37*
G36*
X69291Y10551D02*
X69921D01*
Y6762D01*
X69961Y6722D01*
X69921Y6683D01*
X69291D01*
Y6339D01*
X69252Y6299D01*
X65394D01*
Y6683D01*
X64577D01*
Y10551D01*
X65394D01*
Y11063D01*
X65472Y11142D01*
X69291D01*
Y10551D01*
D02*
G37*
G36*
X22756Y10571D02*
X23878D01*
Y6673D01*
X23898Y6654D01*
X23878Y6634D01*
X22756D01*
Y6220D01*
X22717Y6181D01*
X18858D01*
Y6634D01*
X18583D01*
X18681Y10571D01*
X18858D01*
Y10945D01*
X18937Y11024D01*
X22756D01*
Y10571D01*
D02*
G37*
G36*
X6312Y89826D02*
Y84843D01*
X603D01*
X564Y84882D01*
Y89759D01*
X657Y89843D01*
X6272D01*
X6312Y89826D01*
D02*
G37*
G36*
X16614Y82520D02*
X51614D01*
X52717Y81417D01*
Y57008D01*
X50197Y54488D01*
X39528D01*
X38386Y55630D01*
Y65039D01*
X38661Y65315D01*
X42008D01*
X45315Y68622D01*
Y70827D01*
X43268Y72874D01*
X36299Y72874D01*
X33504Y70079D01*
X18740Y70079D01*
X16535Y72283D01*
X10630D01*
X10157Y72756D01*
Y73740D01*
X9055Y74843D01*
X591D01*
X591Y84035D01*
X15098D01*
X16614Y82520D01*
D02*
G37*
G36*
X36299Y65394D02*
X38031D01*
Y55591D01*
X36890Y54449D01*
X19724Y54449D01*
Y66063D01*
X35630Y66063D01*
X36299Y65394D01*
D02*
G37*
G36*
X51398Y45756D02*
X46221Y45756D01*
X45650Y46327D01*
X45650Y49929D01*
X46752Y51031D01*
X51398D01*
X51398Y45756D01*
D02*
G37*
G36*
X42499Y49697D02*
Y46390D01*
X42097Y45988D01*
X42096Y45945D01*
X42054D01*
X41800Y45691D01*
X36977D01*
Y51016D01*
X41180D01*
X42499Y49697D01*
D02*
G37*
G36*
X32835Y50953D02*
X32835D01*
X32835Y45677D01*
X27658Y45677D01*
X27087Y46248D01*
Y46249D01*
X27087Y46250D01*
X27087Y49852D01*
X28189Y50955D01*
X32835D01*
Y50953D01*
D02*
G37*
G36*
X69882Y45640D02*
X64705Y45640D01*
X64134Y46211D01*
X64134Y49813D01*
X65236Y50915D01*
X69882D01*
X69882Y45640D01*
D02*
G37*
G36*
X61054Y49700D02*
X61054Y45970D01*
X60719Y45635D01*
X55493Y45635D01*
Y51088D01*
X59666D01*
X61054Y49700D01*
D02*
G37*
G36*
X22795Y51147D02*
X23996Y49946D01*
X23996Y46215D01*
X23287Y45507D01*
X18622Y45507D01*
Y51147D01*
X22795Y51147D01*
D02*
G37*
G36*
X17047Y70394D02*
Y67323D01*
X16142D01*
X15945Y67126D01*
Y40669D01*
X15866Y40591D01*
X984D01*
X945Y40630D01*
Y69409D01*
X9528D01*
X10197Y70079D01*
Y71693D01*
X15748D01*
X17047Y70394D01*
D02*
G37*
D62*
X40430Y70744D02*
D03*
X40076D02*
D03*
X21260Y93583D02*
D03*
X21614D02*
D03*
X37402Y70787D02*
D03*
X37756D02*
D03*
X35866Y71260D02*
D03*
X36220D02*
D03*
X39567Y70866D02*
D03*
X39213D02*
D03*
X39724Y71385D02*
D03*
X39370D02*
D03*
D63*
X62293Y54395D02*
D03*
X62982D02*
D03*
D64*
X75591Y54596D02*
D03*
Y53967D02*
D03*
X76320Y54596D02*
D03*
Y53967D02*
D03*
X72598Y54124D02*
D03*
Y54754D02*
D03*
D65*
X56790Y92785D02*
D03*
Y87156D02*
D03*
X54821Y92785D02*
D03*
Y87156D02*
D03*
X62441Y92785D02*
D03*
Y87156D02*
D03*
X60472Y92785D02*
D03*
Y87156D02*
D03*
X68110Y92844D02*
D03*
Y87215D02*
D03*
X66142Y92844D02*
D03*
Y87215D02*
D03*
D66*
X73878Y56457D02*
D03*
X73504Y55551D02*
D03*
X74252D02*
D03*
X77806Y56713D02*
D03*
X77432Y55807D02*
D03*
X78180D02*
D03*
X83162Y55020D02*
D03*
X82788Y54114D02*
D03*
X83536D02*
D03*
X83162Y55787D02*
D03*
X83536Y56693D02*
D03*
X82788D02*
D03*
D67*
X74035Y53888D02*
D03*
Y54321D02*
D03*
X38031Y71328D02*
D03*
Y71762D02*
D03*
X77756Y54498D02*
D03*
Y54065D02*
D03*
X78337Y54478D02*
D03*
Y54045D02*
D03*
X73455Y54439D02*
D03*
Y54872D02*
D03*
X24616Y52224D02*
D03*
Y52657D02*
D03*
D68*
X85236Y49921D02*
D03*
X86016D02*
D03*
X79904Y45749D02*
D03*
X79124D02*
D03*
X43748Y48268D02*
D03*
X44528D02*
D03*
X63102Y48278D02*
D03*
X62323D02*
D03*
X26102Y48268D02*
D03*
X25323D02*
D03*
D69*
X84488Y50837D02*
D03*
X83740D02*
D03*
X73760Y44518D02*
D03*
X73012D02*
D03*
D70*
X85679Y50866D02*
D03*
X86309D02*
D03*
X79823Y46594D02*
D03*
X79193D02*
D03*
X50433Y86801D02*
D03*
X49803D02*
D03*
X79409Y55807D02*
D03*
X80039D02*
D03*
X79409Y55059D02*
D03*
X80039D02*
D03*
X73690Y43720D02*
D03*
X73060D02*
D03*
D71*
X78130Y45726D02*
D03*
Y46474D02*
D03*
X72598Y55502D02*
D03*
Y56250D02*
D03*
X84971Y39892D02*
D03*
Y40640D02*
D03*
D72*
X75079Y38183D02*
D03*
Y38813D02*
D03*
D73*
X82411Y40236D02*
D03*
Y38504D02*
D03*
D74*
X86230Y41821D02*
D03*
X85128D02*
D03*
D75*
X85925Y40896D02*
D03*
Y40266D02*
D03*
D76*
X85267Y29931D02*
D03*
Y28199D02*
D03*
D77*
X85965Y37530D02*
D03*
Y36427D02*
D03*
X75246Y43179D02*
D03*
Y42077D02*
D03*
X76319Y39419D02*
D03*
Y38317D02*
D03*
X83841Y39548D02*
D03*
Y38445D02*
D03*
X75235Y41234D02*
D03*
Y40132D02*
D03*
D78*
X84990Y38337D02*
D03*
Y39085D02*
D03*
D79*
X78130Y14577D02*
D03*
X74783D02*
D03*
D80*
X10470Y70846D02*
D03*
Y72854D02*
D03*
D81*
X5829Y73600D02*
D03*
Y73100D02*
D03*
Y72600D02*
D03*
Y72100D02*
D03*
Y71600D02*
D03*
Y71100D02*
D03*
Y70600D02*
D03*
Y70100D02*
D03*
D82*
X51122Y91644D02*
D03*
X50374D02*
D03*
X49665Y92234D02*
D03*
X48917D02*
D03*
D83*
X49705Y91526D02*
D03*
X49272D02*
D03*
X36791Y71929D02*
D03*
X37224D02*
D03*
X63474Y52047D02*
D03*
X63907D02*
D03*
X48799Y86841D02*
D03*
X49232D02*
D03*
X49272Y90856D02*
D03*
X48839D02*
D03*
X82096Y54222D02*
D03*
X81663D02*
D03*
X81781Y57342D02*
D03*
X82215D02*
D03*
X81250Y56772D02*
D03*
X81683D02*
D03*
X80600Y54213D02*
D03*
X81033D02*
D03*
X68424Y86064D02*
D03*
X67991D02*
D03*
X67382Y86043D02*
D03*
X66949D02*
D03*
X63278Y86004D02*
D03*
X62844D02*
D03*
X61998Y86004D02*
D03*
X61565D02*
D03*
X55591Y85886D02*
D03*
X56024D02*
D03*
X57126Y85906D02*
D03*
X56693D02*
D03*
X22854Y93622D02*
D03*
X22421D02*
D03*
X20532Y93622D02*
D03*
X20098D02*
D03*
X36949Y71359D02*
D03*
X37382D02*
D03*
X35807Y70709D02*
D03*
X36240D02*
D03*
X41457Y51791D02*
D03*
X41024D02*
D03*
X63406Y52600D02*
D03*
X63839D02*
D03*
D84*
X65945Y86053D02*
D03*
X66299D02*
D03*
X54646Y85876D02*
D03*
X55000D02*
D03*
X60541Y85974D02*
D03*
X60896D02*
D03*
X77953Y55177D02*
D03*
X77598D02*
D03*
X83248Y53494D02*
D03*
X82894D02*
D03*
X82953Y57308D02*
D03*
X83307D02*
D03*
X74439Y54910D02*
D03*
X74085D02*
D03*
X39685Y71890D02*
D03*
X39331D02*
D03*
D85*
X36439Y69722D02*
D03*
X36939D02*
D03*
X37439D02*
D03*
X37939D02*
D03*
X38439D02*
D03*
X38939D02*
D03*
X39439D02*
D03*
X39939D02*
D03*
D86*
X39193Y65081D02*
D03*
X37185D02*
D03*
D87*
X79028Y51614D02*
D03*
D88*
X79933Y49134D02*
D03*
X79028D02*
D03*
X78122D02*
D03*
D89*
X40433Y28032D02*
D03*
X22717D02*
D03*
Y35433D02*
D03*
X40433D02*
D03*
X22717Y17441D02*
D03*
X40433D02*
D03*
D90*
X76056Y41313D02*
D03*
X76686D02*
D03*
D91*
X51339Y88100D02*
D03*
Y87746D02*
D03*
X50906D02*
D03*
Y88100D02*
D03*
X50905Y88691D02*
D03*
Y89045D02*
D03*
D92*
X50257Y87719D02*
D03*
X49757D02*
D03*
X49257D02*
D03*
X48757D02*
D03*
Y89855D02*
D03*
X49257D02*
D03*
X49757D02*
D03*
X50257D02*
D03*
D93*
X80787Y55059D02*
D03*
Y55728D02*
D03*
X82008Y55059D02*
D03*
Y55728D02*
D03*
D94*
X76683Y55482D02*
D03*
X76014D02*
D03*
X76683Y56703D02*
D03*
X76014D02*
D03*
D95*
X77136Y50929D02*
D03*
Y50291D02*
D03*
D96*
X79856Y47972D02*
D03*
X79219D02*
D03*
D97*
X81061Y38276D02*
D03*
Y39055D02*
D03*
D98*
X72660Y31188D02*
D03*
Y29456D02*
D03*
Y26732D02*
D03*
Y25000D02*
D03*
D99*
X46906Y87589D02*
D03*
X45693D02*
D03*
X46906Y89124D02*
D03*
X45693D02*
D03*
D100*
X45984Y91063D02*
D03*
X45236D02*
D03*
X45610Y90197D02*
D03*
D101*
X46618Y92177D02*
D03*
X44685D02*
D03*
D102*
X79557Y11211D02*
D03*
Y9518D02*
D03*
X72861Y10059D02*
D03*
Y11752D02*
D03*
D103*
X36767Y91209D02*
D03*
X36267D02*
D03*
X35767D02*
D03*
X35267D02*
D03*
X34767D02*
D03*
X34267D02*
D03*
X33767D02*
D03*
X33267D02*
D03*
X36767Y90709D02*
D03*
X36267D02*
D03*
X35767D02*
D03*
X35267D02*
D03*
X34767D02*
D03*
X34267D02*
D03*
X33767D02*
D03*
X33267D02*
D03*
X78802Y40419D02*
D03*
X83022Y14636D02*
D03*
D104*
X58335Y48280D02*
D03*
X66921D02*
D03*
X39841D02*
D03*
X48427D02*
D03*
X21346D02*
D03*
X29933D02*
D03*
D105*
X57892Y8706D02*
D03*
X67364D02*
D03*
X39398D02*
D03*
X48870D02*
D03*
X20904D02*
D03*
X30376D02*
D03*
D106*
X68484Y40679D02*
D03*
Y23504D02*
D03*
X56772Y40679D02*
D03*
Y23504D02*
D03*
X49990Y40679D02*
D03*
Y23504D02*
D03*
X38278Y40679D02*
D03*
Y23504D02*
D03*
X31496Y40679D02*
D03*
Y23504D02*
D03*
X19783Y40679D02*
D03*
Y23504D02*
D03*
D107*
X61289Y50913D02*
D03*
X63297D02*
D03*
X61959D02*
D03*
X62628D02*
D03*
X63967D02*
D03*
X42795D02*
D03*
X44803D02*
D03*
X43465D02*
D03*
X44134D02*
D03*
X45472D02*
D03*
X24301D02*
D03*
X26309D02*
D03*
X24970D02*
D03*
X25640D02*
D03*
X26978D02*
D03*
D108*
X18204Y85877D02*
D03*
X38524Y75207D02*
D03*
D109*
X48701Y83386D02*
D03*
D110*
X50669D02*
D03*
D111*
X84806Y75089D02*
D03*
X83806D02*
D03*
X84806Y78089D02*
D03*
X83806D02*
D03*
X84806Y77089D02*
D03*
X83806D02*
D03*
X84806Y76089D02*
D03*
X83806D02*
D03*
Y74089D02*
D03*
X84806D02*
D03*
X83806Y71089D02*
D03*
X84806D02*
D03*
X83806Y72089D02*
D03*
X84806D02*
D03*
X83806Y73089D02*
D03*
X84806D02*
D03*
X85305Y52244D02*
D03*
X86305D02*
D03*
X73169Y48110D02*
D03*
Y47110D02*
D03*
D112*
X66089Y78325D02*
D03*
Y70852D02*
D03*
D113*
X72053Y81358D02*
D03*
X60053Y62358D02*
D03*
X61053Y61358D02*
D03*
Y62358D02*
D03*
X62053Y61358D02*
D03*
Y62358D02*
D03*
X63053Y61358D02*
D03*
Y62358D02*
D03*
X64053Y61358D02*
D03*
Y62358D02*
D03*
X65053Y61358D02*
D03*
Y62358D02*
D03*
X66053Y61358D02*
D03*
Y62358D02*
D03*
X67053Y61358D02*
D03*
Y62358D02*
D03*
X68053Y61358D02*
D03*
Y62358D02*
D03*
X69053Y61358D02*
D03*
Y62358D02*
D03*
X70053Y61358D02*
D03*
Y62358D02*
D03*
X71053Y61358D02*
D03*
Y62358D02*
D03*
X72053Y61358D02*
D03*
Y62358D02*
D03*
X73053Y61358D02*
D03*
Y62358D02*
D03*
X74053Y61358D02*
D03*
Y62358D02*
D03*
X75053Y61358D02*
D03*
Y62358D02*
D03*
X76053Y61358D02*
D03*
Y62358D02*
D03*
X77053Y61358D02*
D03*
Y62358D02*
D03*
X78053Y61358D02*
D03*
Y62358D02*
D03*
X79053Y61358D02*
D03*
Y62358D02*
D03*
X80053Y61358D02*
D03*
Y62358D02*
D03*
X81053Y61358D02*
D03*
Y62358D02*
D03*
X82053Y61358D02*
D03*
Y62358D02*
D03*
X83053Y61358D02*
D03*
Y62358D02*
D03*
X84053Y61358D02*
D03*
Y62358D02*
D03*
Y82358D02*
D03*
Y81358D02*
D03*
X83053Y82358D02*
D03*
Y81358D02*
D03*
X82053Y82358D02*
D03*
Y81358D02*
D03*
X81053Y82358D02*
D03*
Y81358D02*
D03*
X80053Y82358D02*
D03*
Y81358D02*
D03*
X79053Y82358D02*
D03*
Y81358D02*
D03*
X78053Y82358D02*
D03*
Y81358D02*
D03*
X77053Y82358D02*
D03*
Y81358D02*
D03*
X76053Y82358D02*
D03*
Y81358D02*
D03*
X75053Y82358D02*
D03*
Y81358D02*
D03*
X74053Y82358D02*
D03*
Y81358D02*
D03*
X73053Y82358D02*
D03*
Y81358D02*
D03*
X72053Y82358D02*
D03*
X71053D02*
D03*
Y81358D02*
D03*
X70053Y82358D02*
D03*
Y81358D02*
D03*
X69053Y82358D02*
D03*
Y81358D02*
D03*
X68053Y82358D02*
D03*
Y81358D02*
D03*
X67053Y82358D02*
D03*
Y81358D02*
D03*
X66053Y82358D02*
D03*
Y81358D02*
D03*
X65053Y82358D02*
D03*
Y81358D02*
D03*
X64053Y82358D02*
D03*
Y81358D02*
D03*
X63053Y82358D02*
D03*
Y81358D02*
D03*
X62053Y82358D02*
D03*
Y81358D02*
D03*
X61053Y82358D02*
D03*
Y81358D02*
D03*
X60053Y82358D02*
D03*
D114*
X79975Y43327D02*
D03*
X78975D02*
D03*
X77975D02*
D03*
X76975D02*
D03*
X73091Y42132D02*
D03*
Y41132D02*
D03*
Y40132D02*
D03*
Y39132D02*
D03*
D115*
X81679Y18435D02*
D03*
X79679D02*
D03*
X75679D02*
D03*
X82679Y36435D02*
D03*
X78679D02*
D03*
X74679D02*
D03*
X2362Y18268D02*
D03*
Y14520D02*
D03*
D116*
X78802Y39041D02*
D03*
D117*
X82927Y44774D02*
D03*
D118*
X85927D02*
D03*
Y47774D02*
D03*
X84927D02*
D03*
X83927D02*
D03*
X84969Y9085D02*
D03*
Y12085D02*
D03*
X81968D02*
D03*
Y9085D02*
D03*
X74549Y12116D02*
D03*
Y9116D02*
D03*
X77549D02*
D03*
Y12116D02*
D03*
X86093Y70305D02*
D03*
X85128Y69311D02*
D03*
X83681Y66663D02*
D03*
X84518Y65778D02*
D03*
X22027Y52966D02*
D03*
X20748Y53750D02*
D03*
X19144Y51811D02*
D03*
X19468Y55069D02*
D03*
X18937Y61132D02*
D03*
X22726Y58661D02*
D03*
X20171Y66047D02*
D03*
X21407Y66004D02*
D03*
X21900Y63780D02*
D03*
X22028Y62667D02*
D03*
X20167Y58376D02*
D03*
X21161Y52392D02*
D03*
X19390Y53465D02*
D03*
X21486Y54577D02*
D03*
X21739Y56473D02*
D03*
X19923Y56680D02*
D03*
X19098Y56968D02*
D03*
X21285Y58825D02*
D03*
X19882Y59857D02*
D03*
X22067Y60886D02*
D03*
X20256Y62254D02*
D03*
X19016Y63406D02*
D03*
X20413Y64478D02*
D03*
X22234Y64764D02*
D03*
X16142Y86614D02*
D03*
X18366Y88179D02*
D03*
X1231Y88105D02*
D03*
X1713Y85403D02*
D03*
X6525Y86365D02*
D03*
X6083Y87992D02*
D03*
X5079Y88888D02*
D03*
X2825Y91398D02*
D03*
X1496Y90679D02*
D03*
X2823Y93213D02*
D03*
X1528Y92325D02*
D03*
X4154Y93287D02*
D03*
X5817Y92884D02*
D03*
X3860Y91362D02*
D03*
X6080Y90622D02*
D03*
X7006Y92140D02*
D03*
Y93028D02*
D03*
X9264Y93176D02*
D03*
X10596Y91695D02*
D03*
X11781Y87476D02*
D03*
X7746Y88549D02*
D03*
X8375Y87254D02*
D03*
X8709Y86069D02*
D03*
X10596Y85995D02*
D03*
X12595Y85810D02*
D03*
X14113Y86365D02*
D03*
X13483Y87957D02*
D03*
X12410Y89326D02*
D03*
X11744Y91177D02*
D03*
X11263Y92621D02*
D03*
X12595Y93176D02*
D03*
X14520Y93065D02*
D03*
X16004Y91988D02*
D03*
X26447Y89720D02*
D03*
X28278Y89754D02*
D03*
X31061Y89079D02*
D03*
X39429Y86909D02*
D03*
X42234Y84823D02*
D03*
X40319Y85076D02*
D03*
X38578Y85748D02*
D03*
X38120Y87490D02*
D03*
X36191Y85049D02*
D03*
X36654Y86240D02*
D03*
X34754Y87854D02*
D03*
X32254Y87638D02*
D03*
X33533Y86545D02*
D03*
X34605Y85443D02*
D03*
X33327Y85020D02*
D03*
X30965Y85866D02*
D03*
X30541Y87156D02*
D03*
X28652Y87766D02*
D03*
X26875Y88162D02*
D03*
X27303Y86516D02*
D03*
X28740Y85748D02*
D03*
X29439Y84675D02*
D03*
X27028Y84892D02*
D03*
X25807Y86053D02*
D03*
X25404Y87520D02*
D03*
X25039Y89016D02*
D03*
X24459Y90453D02*
D03*
X23056Y88651D02*
D03*
X23425Y86722D02*
D03*
X23484Y85285D02*
D03*
X20797Y85532D02*
D03*
X21437Y87185D02*
D03*
X19665Y88317D02*
D03*
X21102Y89508D02*
D03*
X18720Y90089D02*
D03*
X19902Y71201D02*
D03*
X15472Y73720D02*
D03*
X6024Y82756D02*
D03*
X5256Y80138D02*
D03*
X1358Y78652D02*
D03*
X1645Y71477D02*
D03*
X2963Y71880D02*
D03*
X1683Y72805D02*
D03*
X2904Y74409D02*
D03*
X1496Y75049D02*
D03*
X3957Y76673D02*
D03*
X2047Y77510D02*
D03*
X63179Y69833D02*
D03*
X63356Y68986D02*
D03*
X69196Y53537D02*
D03*
X69596Y54613D02*
D03*
X70335Y53295D02*
D03*
X27431Y93445D02*
D03*
X64114Y57215D02*
D03*
X64892Y54528D02*
D03*
X69724Y55817D02*
D03*
X73809Y58346D02*
D03*
X69144Y56870D02*
D03*
X57392Y57835D02*
D03*
X58169Y57589D02*
D03*
X66939Y54449D02*
D03*
X61329Y55551D02*
D03*
X58258Y58642D02*
D03*
X67963Y52448D02*
D03*
X72313Y49675D02*
D03*
X64636Y49035D02*
D03*
X64675Y47589D02*
D03*
X64951Y46906D02*
D03*
X65463Y46423D02*
D03*
X66191Y46039D02*
D03*
X67087Y45961D02*
D03*
X67884Y46010D02*
D03*
X68465Y46423D02*
D03*
X68937Y46925D02*
D03*
X69232Y47585D02*
D03*
X69301Y48293D02*
D03*
X69282Y48943D02*
D03*
X68937Y49543D02*
D03*
X68514Y50075D02*
D03*
X67933Y50429D02*
D03*
X66978Y50656D02*
D03*
X66181Y50498D02*
D03*
X65512Y50193D02*
D03*
X65000Y49799D02*
D03*
X64646Y48337D02*
D03*
X68976Y50528D02*
D03*
X69449Y50006D02*
D03*
X69596Y47024D02*
D03*
X69252Y46305D02*
D03*
X64468Y46541D02*
D03*
X64961Y45990D02*
D03*
X46063Y49016D02*
D03*
X46102Y47569D02*
D03*
X46378Y46886D02*
D03*
X46890Y46404D02*
D03*
X47618Y46020D02*
D03*
X48514Y45941D02*
D03*
X49311Y45990D02*
D03*
X49892Y46404D02*
D03*
X50364Y46906D02*
D03*
X50659Y47565D02*
D03*
X50728Y48274D02*
D03*
X50709Y48923D02*
D03*
X50364Y49524D02*
D03*
X49941Y50055D02*
D03*
X49360Y50409D02*
D03*
X48406Y50636D02*
D03*
X47608Y50478D02*
D03*
X46939Y50173D02*
D03*
X46427Y49780D02*
D03*
X46073Y48317D02*
D03*
X50404Y50508D02*
D03*
X50876Y49986D02*
D03*
X51024Y47004D02*
D03*
X50679Y46285D02*
D03*
X45896Y46522D02*
D03*
X46388Y45970D02*
D03*
X27904Y45961D02*
D03*
X27411Y46512D02*
D03*
X32195Y46276D02*
D03*
X32539Y46994D02*
D03*
X32392Y49976D02*
D03*
X31919Y50498D02*
D03*
X27589Y48307D02*
D03*
X27943Y49770D02*
D03*
X28455Y50163D02*
D03*
X29124Y50469D02*
D03*
X29921Y50626D02*
D03*
X30876Y50400D02*
D03*
X31457Y50045D02*
D03*
X31880Y49514D02*
D03*
X32224Y48913D02*
D03*
X32244Y48264D02*
D03*
X32175Y47555D02*
D03*
X31880Y46896D02*
D03*
X31407Y46394D02*
D03*
X30827Y45980D02*
D03*
X30030Y45931D02*
D03*
X29134Y46010D02*
D03*
X28406Y46394D02*
D03*
X27894Y46876D02*
D03*
X27618Y47559D02*
D03*
X27579Y49006D02*
D03*
X18986Y48539D02*
D03*
X18996Y47752D02*
D03*
X18976Y49366D02*
D03*
X19567Y49996D02*
D03*
X20276Y50429D02*
D03*
X21299Y50636D02*
D03*
X22392Y50400D02*
D03*
X23051Y49927D02*
D03*
X23533Y49366D02*
D03*
X23671Y48520D02*
D03*
X23691Y47762D02*
D03*
X23376Y47102D02*
D03*
X22943Y46610D02*
D03*
X22441Y46236D02*
D03*
X21447Y45941D02*
D03*
X20443Y46148D02*
D03*
X19872Y46394D02*
D03*
X19301Y46748D02*
D03*
X19646Y50675D02*
D03*
X18996Y50291D02*
D03*
X18976Y46138D02*
D03*
X19587Y45911D02*
D03*
X23652Y46502D02*
D03*
X23130Y45970D02*
D03*
X55984Y48549D02*
D03*
X55994Y47762D02*
D03*
X55974Y49376D02*
D03*
X56565Y50006D02*
D03*
X57274Y50439D02*
D03*
X58297Y50646D02*
D03*
X59390Y50409D02*
D03*
X60049Y49937D02*
D03*
X60532Y49376D02*
D03*
X60669Y48530D02*
D03*
X60689Y47772D02*
D03*
X60374Y47112D02*
D03*
X59941Y46620D02*
D03*
X59439Y46246D02*
D03*
X58445Y45951D02*
D03*
X57441Y46157D02*
D03*
X56870Y46404D02*
D03*
X56299Y46758D02*
D03*
X56644Y50685D02*
D03*
X55994Y50301D02*
D03*
X55974Y46148D02*
D03*
X56585Y45921D02*
D03*
X60650Y46512D02*
D03*
X60128Y45980D02*
D03*
X41624Y45990D02*
D03*
X42146Y46522D02*
D03*
X38081Y45931D02*
D03*
X37470Y46157D02*
D03*
X37490Y50311D02*
D03*
X38140Y50695D02*
D03*
X37795Y46768D02*
D03*
X38366Y46413D02*
D03*
X38937Y46167D02*
D03*
X39941Y45961D02*
D03*
X40935Y46256D02*
D03*
X41437Y46630D02*
D03*
X41870Y47122D02*
D03*
X42185Y47782D02*
D03*
X42165Y48539D02*
D03*
X42028Y49386D02*
D03*
X41545Y49947D02*
D03*
X40886Y50419D02*
D03*
X39793Y50656D02*
D03*
X38770Y50449D02*
D03*
X38061Y50016D02*
D03*
X37470Y49386D02*
D03*
X37490Y47772D02*
D03*
X37480Y48559D02*
D03*
X61949Y33081D02*
D03*
X49604Y71727D02*
D03*
X48167Y71776D02*
D03*
X50972Y63873D02*
D03*
X48991Y63578D02*
D03*
X49819Y64273D02*
D03*
X49367Y65310D02*
D03*
X48245Y64749D02*
D03*
X47921Y63528D02*
D03*
X45568Y63715D02*
D03*
X46586Y64273D02*
D03*
X47045Y65123D02*
D03*
X45785Y65743D02*
D03*
X47387Y66410D02*
D03*
X48403Y66461D02*
D03*
X49741D02*
D03*
X50863Y65103D02*
D03*
X51070Y66491D02*
D03*
X51159Y71589D02*
D03*
X52117Y64112D02*
D03*
X52143Y65260D02*
D03*
Y66461D02*
D03*
X52117Y69884D02*
D03*
X51101Y69937D02*
D03*
X49899Y69857D02*
D03*
X48806Y69808D02*
D03*
X47359Y69906D02*
D03*
X46188Y69995D02*
D03*
X46316Y71136D02*
D03*
X47438Y71087D02*
D03*
X48885Y71117D02*
D03*
X50381Y71087D02*
D03*
X52064D02*
D03*
X52084Y78509D02*
D03*
X51011Y78459D02*
D03*
X52054Y79965D02*
D03*
X50982Y79946D02*
D03*
X33846Y68292D02*
D03*
X25531Y68091D02*
D03*
X8029Y71034D02*
D03*
X58819Y53504D02*
D03*
X59685D02*
D03*
X7913Y70236D02*
D03*
X6772Y73819D02*
D03*
X37756Y68622D02*
D03*
X40610Y71594D02*
D03*
X35866Y69764D02*
D03*
X55669Y82323D02*
D03*
X85205Y85548D02*
D03*
X81742Y85797D02*
D03*
X74734D02*
D03*
X83906Y87451D02*
D03*
X80523Y87330D02*
D03*
X74774Y87411D02*
D03*
X69183Y87608D02*
D03*
X66063Y85433D02*
D03*
X64695Y87766D02*
D03*
X58474Y87884D02*
D03*
X59459Y86033D02*
D03*
X68140Y69370D02*
D03*
X82274Y58819D02*
D03*
X60137Y65738D02*
D03*
X59360Y64134D02*
D03*
X38780Y93110D02*
D03*
X49173Y88770D02*
D03*
X52795Y88780D02*
D03*
X51488Y87205D02*
D03*
X51132Y86181D02*
D03*
X52628Y86654D02*
D03*
X51801Y86220D02*
D03*
X51526Y90197D02*
D03*
X50984Y90669D02*
D03*
X63543Y65039D02*
D03*
X70463Y65748D02*
D03*
X70692Y67717D02*
D03*
X23150Y69409D02*
D03*
X21654Y68150D02*
D03*
X47894Y92626D02*
D03*
X37756Y92283D02*
D03*
X66289Y58926D02*
D03*
X81368Y41457D02*
D03*
X83415Y42087D02*
D03*
X86422Y34868D02*
D03*
X85069Y36063D02*
D03*
X80502Y23543D02*
D03*
X83730Y26142D02*
D03*
X72282Y26709D02*
D03*
X72037Y19606D02*
D03*
X84006Y30748D02*
D03*
X71762Y32913D02*
D03*
X79242Y32047D02*
D03*
X82982Y21457D02*
D03*
X75856Y22874D02*
D03*
X80069Y27087D02*
D03*
X75935Y29252D02*
D03*
X75030Y58150D02*
D03*
X72392Y59606D02*
D03*
X79951Y59724D02*
D03*
X81486Y59646D02*
D03*
X82825D02*
D03*
X84045Y59606D02*
D03*
X80817Y58858D02*
D03*
X79321Y58898D02*
D03*
X81093Y53661D02*
D03*
X71457Y52717D02*
D03*
X63770Y55197D02*
D03*
X61535Y54355D02*
D03*
X74478Y43740D02*
D03*
X73573Y45157D02*
D03*
X38622Y71850D02*
D03*
X23780Y68899D02*
D03*
X7205Y72677D02*
D03*
Y71850D02*
D03*
X16102Y30728D02*
D03*
X17126D02*
D03*
X18150D02*
D03*
X15138D02*
D03*
X10787D02*
D03*
X11811D02*
D03*
X12835D02*
D03*
X9823D02*
D03*
X5236Y30689D02*
D03*
X6260D02*
D03*
X7283D02*
D03*
X4272D02*
D03*
X14370Y27874D02*
D03*
Y26831D02*
D03*
X13287Y27835D02*
D03*
Y26811D02*
D03*
Y25787D02*
D03*
X14370Y25807D02*
D03*
Y28819D02*
D03*
X13287Y28799D02*
D03*
X15472Y28819D02*
D03*
Y25807D02*
D03*
Y26831D02*
D03*
Y27874D02*
D03*
X16575Y28819D02*
D03*
Y25807D02*
D03*
Y26831D02*
D03*
Y27874D02*
D03*
X9921Y27913D02*
D03*
Y26870D02*
D03*
Y25846D02*
D03*
Y28858D02*
D03*
X8819Y27913D02*
D03*
Y26870D02*
D03*
Y25846D02*
D03*
Y28858D02*
D03*
X6634Y28839D02*
D03*
X7717Y28858D02*
D03*
Y25846D02*
D03*
X6634Y25827D02*
D03*
Y26850D02*
D03*
Y27874D02*
D03*
X7717Y26870D02*
D03*
Y27913D02*
D03*
X83642Y79872D02*
D03*
X85915Y82096D02*
D03*
X86142Y82923D02*
D03*
X82185Y80148D02*
D03*
X78957Y79626D02*
D03*
X79547Y80167D02*
D03*
X65289Y53252D02*
D03*
X80285Y50354D02*
D03*
X77116Y46181D02*
D03*
X72155Y51309D02*
D03*
X78366Y47589D02*
D03*
X76929Y48337D02*
D03*
X75630Y50148D02*
D03*
X24749Y53567D02*
D03*
X43132Y53508D02*
D03*
X40236Y51798D02*
D03*
X39970Y53472D02*
D03*
X61102Y51789D02*
D03*
X42362Y52192D02*
D03*
X76801Y40108D02*
D03*
X77697Y51811D02*
D03*
X82096Y51644D02*
D03*
X77037Y51624D02*
D03*
X74222Y53238D02*
D03*
X75138Y51929D02*
D03*
X63976Y85984D02*
D03*
X67343Y86644D02*
D03*
X61604Y86575D02*
D03*
X55607Y86457D02*
D03*
X69738Y79849D02*
D03*
X60725Y79179D02*
D03*
X56542Y80774D02*
D03*
X56819Y76660D02*
D03*
X58110Y69380D02*
D03*
X81407Y65541D02*
D03*
X76260Y64803D02*
D03*
X74429Y67480D02*
D03*
X77874Y68799D02*
D03*
X78917Y65069D02*
D03*
X79331Y67116D02*
D03*
X75955Y70886D02*
D03*
X74242Y71457D02*
D03*
X72146Y75000D02*
D03*
X70571Y76821D02*
D03*
X71310Y73563D02*
D03*
X62067Y74094D02*
D03*
X60286Y76660D02*
D03*
X58091Y73307D02*
D03*
X62894Y63110D02*
D03*
X69154Y57844D02*
D03*
X65423Y57894D02*
D03*
X67363Y65915D02*
D03*
X60690Y68595D02*
D03*
X57894Y85896D02*
D03*
X69222Y85994D02*
D03*
X81122Y57326D02*
D03*
X79616Y54411D02*
D03*
X77116Y54058D02*
D03*
X74803Y53858D02*
D03*
X75098Y56063D02*
D03*
X80059Y52913D02*
D03*
X77884Y52904D02*
D03*
X11496Y79449D02*
D03*
X4616Y78612D02*
D03*
X6713Y79892D02*
D03*
X7539Y82677D02*
D03*
X19006Y72520D02*
D03*
X10709Y74183D02*
D03*
X14793Y76004D02*
D03*
X13957Y74331D02*
D03*
X16713Y74094D02*
D03*
X10659Y77953D02*
D03*
X9144Y76407D02*
D03*
X6132Y77451D02*
D03*
X9055Y80984D02*
D03*
X8435Y78524D02*
D03*
X13150Y77717D02*
D03*
X12116Y76093D02*
D03*
X65630Y9744D02*
D03*
Y8957D02*
D03*
Y8169D02*
D03*
Y7411D02*
D03*
X69173Y9843D02*
D03*
Y9055D02*
D03*
Y8268D02*
D03*
Y7480D02*
D03*
X68590Y10176D02*
D03*
X67803D02*
D03*
X67015D02*
D03*
X66228D02*
D03*
X66274Y7246D02*
D03*
X67061D02*
D03*
X67849D02*
D03*
X68636D02*
D03*
X47134Y9744D02*
D03*
Y8957D02*
D03*
Y8169D02*
D03*
Y7411D02*
D03*
X50678Y9843D02*
D03*
Y9055D02*
D03*
Y8268D02*
D03*
Y7480D02*
D03*
X50094Y10176D02*
D03*
X49307D02*
D03*
X48519D02*
D03*
X47732D02*
D03*
X47778Y7246D02*
D03*
X48566D02*
D03*
X49353D02*
D03*
X50140D02*
D03*
X31648D02*
D03*
X30860D02*
D03*
X30073D02*
D03*
X29286D02*
D03*
X29240Y10176D02*
D03*
X30027D02*
D03*
X30814D02*
D03*
X31602D02*
D03*
X32185Y7480D02*
D03*
Y8268D02*
D03*
Y9055D02*
D03*
Y9843D02*
D03*
X28642Y7411D02*
D03*
Y8169D02*
D03*
Y8957D02*
D03*
Y9744D02*
D03*
X47894Y91447D02*
D03*
X47992Y89855D02*
D03*
Y88510D02*
D03*
Y86722D02*
D03*
D119*
X60053Y61358D02*
D03*
Y81358D02*
D03*
D120*
X84006Y14636D02*
D03*
D121*
X3189Y81929D02*
D03*
Y87008D02*
D03*
X3543Y36024D02*
D03*
X3150Y24094D02*
D03*
D122*
X15354Y5906D02*
D03*
X77068Y88583D02*
D03*
X71556D02*
D03*
X8564Y3937D02*
D03*
X14076D02*
D03*
X9863Y5906D02*
D03*
X73524Y3937D02*
D03*
X79036D02*
D03*
X77068Y5906D02*
D03*
X71556D02*
D03*
X8564Y90551D02*
D03*
X14076D02*
D03*
X10532Y88583D02*
D03*
X16044D02*
D03*
X73524Y90551D02*
D03*
X79036D02*
D03*
D123*
X42874Y89976D02*
D03*
Y88976D02*
D03*
D124*
Y87976D02*
D03*
D125*
X45000Y19528D02*
D03*
X47953Y17953D02*
D03*
X44843Y36378D02*
D03*
X47795Y34803D02*
D03*
Y26378D02*
D03*
X44843Y27953D02*
D03*
D126*
X16339Y10177D02*
D03*
D127*
Y9173D02*
D03*
D128*
Y8169D02*
D03*
X10236Y13150D02*
D03*
X12303Y18799D02*
D03*
D129*
X3819Y68163D02*
D03*
Y45778D02*
D03*
Y53240D02*
D03*
Y60701D02*
D03*
D130*
Y66014D02*
D03*
Y63864D02*
D03*
Y43628D02*
D03*
Y41478D02*
D03*
Y51090D02*
D03*
Y48940D02*
D03*
Y58552D02*
D03*
Y56402D02*
D03*
D131*
X10236Y9213D02*
D03*
D132*
X9519Y21583D02*
D03*
D133*
X27687Y92648D02*
D03*
X26687D02*
D03*
X25687D02*
D03*
X24687D02*
D03*
X23687D02*
D03*
X22687D02*
D03*
X21687D02*
D03*
X20687D02*
D03*
X19687D02*
D03*
D134*
X18687D02*
D03*
D135*
X80846Y34823D02*
D03*
M02*
