G04*
G04 #@! TF.GenerationSoftware,Altium Limited,Altium Designer,20.2.4 (192)*
G04*
G04 Layer_Physical_Order=2*
G04 Layer_Color=16711680*
%FSLAX24Y24*%
%MOIN*%
G70*
G04*
G04 #@! TF.SameCoordinates,B9BB7F2B-B7AC-4897-A438-396A0F5AD448*
G04*
G04*
G04 #@! TF.FilePolarity,Positive*
G04*
G01*
G75*
%ADD12C,0.0197*%
%ADD15C,0.0157*%
%ADD16C,0.0100*%
%ADD26R,0.0236X0.0276*%
%ADD36R,0.0811X0.0638*%
%ADD42R,0.0276X0.0236*%
%ADD43R,0.0256X0.0252*%
%ADD50R,0.0252X0.0256*%
%ADD56R,0.0654X0.0567*%
%ADD136C,0.0394*%
%ADD137C,0.0118*%
%ADD138C,0.0433*%
%ADD139C,0.0276*%
%ADD141C,0.1181*%
%ADD142C,0.0433*%
%ADD143C,0.3937*%
%ADD144C,0.2362*%
%ADD145C,0.1575*%
%ADD146O,0.0550X0.0570*%
%ADD147C,0.1520*%
%ADD148R,0.0744X0.0744*%
%ADD149O,0.0744X0.0744*%
%ADD150C,0.0610*%
%ADD151C,0.0866*%
%ADD152C,0.0700*%
%ADD153C,0.0531*%
%ADD154C,0.0768*%
%ADD155R,0.0433X0.0433*%
%ADD156R,0.0512X0.0512*%
%ADD157C,0.0512*%
%ADD158R,0.0700X0.0700*%
%ADD159R,0.0433X0.0433*%
%ADD160C,0.3543*%
%ADD161C,0.1181*%
%ADD162C,0.0630*%
%ADD163R,0.0630X0.0630*%
%ADD164C,0.0596*%
%ADD165R,0.0744X0.0650*%
%ADD166C,0.0736*%
%ADD167C,0.0591*%
%ADD168R,0.1098X0.1098*%
%ADD169C,0.1098*%
%ADD170R,0.0591X0.0591*%
%ADD171P,0.0835X4X360.0*%
%ADD172C,0.0650*%
%ADD173R,0.0650X0.0650*%
%ADD174C,0.0500*%
%ADD175R,0.0197X0.0197*%
%ADD176R,0.0252X0.0197*%
%ADD177R,0.0531X0.0138*%
%ADD178O,0.0335X0.0118*%
%ADD179R,0.0335X0.0118*%
%ADD180R,0.0197X0.0252*%
%ADD181R,0.0433X0.0335*%
%ADD182R,0.0252X0.0236*%
%ADD183R,0.0118X0.0197*%
%ADD184R,0.1063X0.0413*%
G36*
X18742Y93789D02*
X18761Y93743D01*
X18558Y93540D01*
X18519Y93481D01*
X18505Y93411D01*
X18505Y93411D01*
Y93072D01*
X18262D01*
Y92223D01*
X19112D01*
Y93072D01*
X18869D01*
Y93336D01*
X19323Y93789D01*
X21841Y93789D01*
X24783Y90846D01*
X32421D01*
X32913Y90354D01*
X38780Y90354D01*
X41668Y93243D01*
X48696D01*
X48737Y93193D01*
X48736Y93187D01*
X48776Y89290D01*
X48780Y89271D01*
X48782Y89251D01*
X48784Y89248D01*
X48785Y89243D01*
X48796Y89227D01*
X48806Y89210D01*
X48810Y89208D01*
X48812Y89204D01*
X48829Y89193D01*
X48844Y89182D01*
X48849Y89180D01*
X48852Y89178D01*
X48871Y89174D01*
X48890Y89170D01*
X49451Y89137D01*
X49484Y88581D01*
X49406Y85471D01*
X48923Y84747D01*
X48905Y84703D01*
X48905Y84655D01*
X48910Y84644D01*
X48867Y84616D01*
X44281Y89202D01*
X44215Y89253D01*
X44138Y89285D01*
X44055Y89296D01*
X43140D01*
X43083Y89339D01*
X42982Y89381D01*
X42874Y89395D01*
X42766Y89381D01*
X42665Y89339D01*
X42578Y89272D01*
X42512Y89186D01*
X42470Y89085D01*
X42455Y88976D01*
X42470Y88868D01*
X42512Y88767D01*
X42578Y88680D01*
X42665Y88614D01*
X42766Y88572D01*
X42874Y88558D01*
X42982Y88572D01*
X43083Y88614D01*
X43140Y88657D01*
X43923D01*
X48382Y84198D01*
Y84055D01*
X45709D01*
X47264Y82500D01*
X48809Y82500D01*
X50005Y81304D01*
Y78051D01*
X50024Y77959D01*
X50076Y77881D01*
X50814Y77143D01*
X50892Y77090D01*
X50984Y77072D01*
X51132D01*
Y72465D01*
X45039D01*
X44947Y72447D01*
X44869Y72395D01*
X44817Y72317D01*
X44799Y72224D01*
Y63681D01*
X44817Y63589D01*
X44869Y63511D01*
X45401Y62979D01*
X45479Y62927D01*
X45571Y62909D01*
X51102D01*
Y56968D01*
X54213Y53858D01*
X57274D01*
Y51333D01*
X55492D01*
X55400Y51315D01*
X55322Y51263D01*
X55270Y51185D01*
X55251Y51093D01*
Y50822D01*
X54606Y50177D01*
Y45059D01*
X55837Y43829D01*
X61841D01*
X64104Y46093D01*
Y49823D01*
X65295Y51014D01*
X69872Y51014D01*
Y50933D01*
X69892D01*
X69892Y45669D01*
X73937Y45669D01*
X74173Y45433D01*
Y44724D01*
X73819Y44370D01*
X72843D01*
X71378Y42905D01*
Y41693D01*
X71614Y41457D01*
X71626Y41469D01*
X74803D01*
Y40551D01*
X74764Y40512D01*
X70157Y40551D01*
X69872Y40837D01*
X69872Y34764D01*
X67500Y32392D01*
X48489Y32392D01*
Y34803D01*
X48476Y34939D01*
X48436Y35069D01*
X48372Y35189D01*
X48286Y35294D01*
X48181Y35380D01*
X48061Y35444D01*
X47931Y35484D01*
X47795Y35497D01*
X47660Y35484D01*
X47530Y35444D01*
X47410Y35380D01*
X47305Y35294D01*
X47218Y35189D01*
X47154Y35069D01*
X47115Y34939D01*
X47101Y34803D01*
Y32392D01*
X45384D01*
X38976Y25984D01*
X30709D01*
X25984Y21260D01*
X17717D01*
X14567Y24409D01*
X8268D01*
X5906Y22047D01*
X787D01*
X787Y30079D01*
X3031Y32323D01*
X18150Y32323D01*
X18504Y32677D01*
Y40411D01*
X18554Y40417D01*
X18585Y40290D01*
X18660Y40107D01*
X18764Y39938D01*
X18892Y39788D01*
X19042Y39659D01*
X19211Y39556D01*
X19394Y39480D01*
X19586Y39434D01*
X19783Y39418D01*
X19981Y39434D01*
X20173Y39480D01*
X20356Y39556D01*
X20524Y39659D01*
X20675Y39788D01*
X20803Y39938D01*
X20907Y40107D01*
X20982Y40290D01*
X21029Y40482D01*
X21044Y40679D01*
X21029Y40876D01*
X20982Y41069D01*
X20907Y41251D01*
X20803Y41420D01*
X20675Y41571D01*
X20524Y41699D01*
X20356Y41802D01*
X20173Y41878D01*
X19981Y41924D01*
X19783Y41940D01*
X19586Y41924D01*
X19394Y41878D01*
X19211Y41802D01*
X19042Y41699D01*
X18892Y41571D01*
X18764Y41420D01*
X18660Y41251D01*
X18585Y41069D01*
X18554Y40941D01*
X18504Y40947D01*
Y44094D01*
X18898Y44488D01*
X27077D01*
X27077Y49843D01*
X28159Y50925D01*
X28159Y54478D01*
X24045Y58965D01*
Y67771D01*
X25372D01*
X25439Y67744D01*
X25531Y67732D01*
X25624Y67744D01*
X25711Y67780D01*
X25785Y67837D01*
X25842Y67911D01*
X25878Y67998D01*
X25890Y68091D01*
X25878Y68183D01*
X25842Y68270D01*
X25785Y68344D01*
X25711Y68401D01*
X25624Y68437D01*
X25531Y68450D01*
X25439Y68437D01*
X25352Y68401D01*
X25311Y68370D01*
X24045D01*
Y68661D01*
X24090Y68720D01*
X24126Y68806D01*
X24139Y68899D01*
X24126Y68992D01*
X24090Y69079D01*
X24045Y69138D01*
Y70581D01*
X9783Y84843D01*
X551Y84843D01*
X551Y93789D01*
X18742Y93789D01*
D02*
G37*
G36*
X52126Y85965D02*
X52254D01*
X52687Y85532D01*
Y77313D01*
X50984D01*
X50246Y78051D01*
Y82638D01*
X50236D01*
Y85827D01*
X50787Y86378D01*
X52126D01*
Y85965D01*
D02*
G37*
G36*
X69370Y88268D02*
Y87559D01*
X70787Y86142D01*
X78150D01*
X80197Y88189D01*
X86496D01*
X86535Y88150D01*
Y84175D01*
X86539Y84175D01*
X86575Y84140D01*
X86575Y74801D01*
X86529Y74782D01*
X85246Y76064D01*
X85214Y76086D01*
X85214Y76089D01*
X85200Y76194D01*
X85160Y76293D01*
X85095Y76378D01*
X85010Y76443D01*
X84912Y76483D01*
X84806Y76497D01*
X84700Y76483D01*
X84601Y76443D01*
X84517Y76378D01*
X84452Y76293D01*
X84411Y76194D01*
X84397Y76089D01*
X84411Y75983D01*
X84452Y75884D01*
X84513Y75804D01*
X84495Y75779D01*
X84484Y75733D01*
X84475Y75457D01*
X84482Y75410D01*
X84507Y75370D01*
X84508Y75366D01*
X84452Y75293D01*
X84411Y75194D01*
X84397Y75089D01*
X84411Y74983D01*
X84452Y74884D01*
X84517Y74800D01*
X84601Y74735D01*
X84700Y74694D01*
X84806Y74680D01*
X84912Y74694D01*
X84934Y74703D01*
X85910Y73726D01*
Y70614D01*
X85839Y70559D01*
X85782Y70485D01*
X85746Y70398D01*
X85734Y70305D01*
X85746Y70212D01*
X85782Y70126D01*
X85839Y70051D01*
X85913Y69994D01*
X86000Y69958D01*
X86093Y69946D01*
X86185Y69958D01*
X86272Y69994D01*
X86346Y70051D01*
X86403Y70126D01*
X86431Y70193D01*
X86481Y70183D01*
Y70095D01*
X85879Y69493D01*
X85437D01*
X85382Y69565D01*
X85307Y69622D01*
X85221Y69658D01*
X85128Y69670D01*
X85035Y69658D01*
X84948Y69622D01*
X84874Y69565D01*
X84817Y69491D01*
X84781Y69404D01*
X84769Y69311D01*
X84781Y69218D01*
X84817Y69132D01*
X84874Y69057D01*
X84948Y69000D01*
X85035Y68964D01*
X85128Y68952D01*
X85221Y68964D01*
X85307Y69000D01*
X85382Y69057D01*
X85437Y69129D01*
X85955D01*
X85955Y69129D01*
X86024Y69143D01*
X86084Y69182D01*
X86529Y69627D01*
X86575Y69608D01*
X86575Y66701D01*
X86529Y66682D01*
X75235Y77975D01*
Y80118D01*
Y80947D01*
X75280Y80965D01*
X75374Y81037D01*
X75446Y81131D01*
X75492Y81241D01*
X75507Y81358D01*
X75492Y81476D01*
X75446Y81585D01*
X75374Y81679D01*
X75280Y81751D01*
X75171Y81797D01*
X75053Y81812D01*
X74936Y81797D01*
X74826Y81751D01*
X74732Y81679D01*
X74660Y81585D01*
X74615Y81476D01*
X74599Y81358D01*
X74615Y81241D01*
X74660Y81131D01*
X74732Y81037D01*
X74826Y80965D01*
X74871Y80947D01*
Y80118D01*
Y77900D01*
X74871Y77900D01*
X74881Y77849D01*
X74835Y77824D01*
X74235Y78424D01*
Y80118D01*
Y80947D01*
X74280Y80965D01*
X74374Y81037D01*
X74446Y81131D01*
X74492Y81241D01*
X74507Y81358D01*
X74492Y81476D01*
X74446Y81585D01*
X74374Y81679D01*
X74280Y81751D01*
X74171Y81797D01*
X74053Y81812D01*
X73936Y81797D01*
X73826Y81751D01*
X73732Y81679D01*
X73660Y81585D01*
X73615Y81476D01*
X73599Y81358D01*
X73615Y81241D01*
X73660Y81131D01*
X73732Y81037D01*
X73826Y80965D01*
X73871Y80947D01*
Y80118D01*
Y78348D01*
X73871Y78348D01*
X73876Y78322D01*
X73830Y78298D01*
X73235Y78892D01*
Y80118D01*
Y80947D01*
X73280Y80965D01*
X73374Y81037D01*
X73446Y81131D01*
X73492Y81241D01*
X73507Y81358D01*
X73492Y81476D01*
X73446Y81585D01*
X73374Y81679D01*
X73280Y81751D01*
X73171Y81797D01*
X73053Y81812D01*
X72936Y81797D01*
X72826Y81751D01*
X72732Y81679D01*
X72660Y81585D01*
X72615Y81476D01*
X72599Y81358D01*
X72615Y81241D01*
X72660Y81131D01*
X72732Y81037D01*
X72826Y80965D01*
X72871Y80947D01*
Y80118D01*
Y78958D01*
X72825Y78939D01*
X72235Y79528D01*
Y80118D01*
Y80947D01*
X72280Y80965D01*
X72374Y81037D01*
X72446Y81131D01*
X72492Y81241D01*
X72507Y81358D01*
X72492Y81476D01*
X72446Y81585D01*
X72374Y81679D01*
X72280Y81751D01*
X72171Y81797D01*
X72053Y81812D01*
X71936Y81797D01*
X71826Y81751D01*
X71732Y81679D01*
X71660Y81585D01*
X71615Y81476D01*
X71599Y81358D01*
X71615Y81241D01*
X71660Y81131D01*
X71732Y81037D01*
X71826Y80965D01*
X71871Y80947D01*
Y80118D01*
Y79453D01*
X71871Y79453D01*
X71885Y79383D01*
X71924Y79324D01*
X85458Y65791D01*
Y59396D01*
X84314Y58253D01*
X77106D01*
X77106Y58253D01*
X77037Y58239D01*
X76977Y58200D01*
X76977Y58200D01*
X75188Y56410D01*
X75098Y56422D01*
X75006Y56410D01*
X74919Y56374D01*
X74845Y56317D01*
X74788Y56242D01*
X74752Y56156D01*
X74739Y56063D01*
X74752Y55970D01*
X74788Y55883D01*
X74845Y55809D01*
X74919Y55752D01*
X75006Y55716D01*
X75098Y55704D01*
X75191Y55716D01*
X75278Y55752D01*
X75352Y55809D01*
X75409Y55883D01*
X75445Y55970D01*
X75457Y56063D01*
X75446Y56152D01*
X77182Y57889D01*
X77418D01*
X77437Y57842D01*
X76987Y57393D01*
X76948Y57334D01*
X76934Y57264D01*
X76934Y57264D01*
Y54367D01*
X76862Y54312D01*
X76805Y54238D01*
X76769Y54151D01*
X76757Y54058D01*
X76769Y53965D01*
X76805Y53879D01*
X76862Y53804D01*
X76937Y53747D01*
X77023Y53712D01*
X77116Y53699D01*
X77209Y53712D01*
X77296Y53747D01*
X77370Y53804D01*
X77427Y53879D01*
X77463Y53965D01*
X77475Y54058D01*
X77463Y54151D01*
X77427Y54238D01*
X77370Y54312D01*
X77298Y54367D01*
Y57188D01*
X77741Y57631D01*
X80857D01*
X80873Y57584D01*
X80868Y57580D01*
X80811Y57505D01*
X80775Y57419D01*
X80763Y57326D01*
X80775Y57233D01*
X80811Y57147D01*
X80868Y57072D01*
X80943Y57015D01*
X81029Y56979D01*
X81122Y56967D01*
X81215Y56979D01*
X81302Y57015D01*
X81376Y57072D01*
X81431Y57144D01*
X85466D01*
X85466Y57144D01*
X85535Y57158D01*
X85595Y57197D01*
X86090Y57692D01*
X86136Y57673D01*
Y57260D01*
X82720Y53844D01*
X81401D01*
X81346Y53915D01*
X81272Y53972D01*
X81185Y54008D01*
X81093Y54020D01*
X81000Y54008D01*
X80913Y53972D01*
X80839Y53915D01*
X80782Y53841D01*
X80746Y53754D01*
X80734Y53661D01*
X80746Y53569D01*
X80782Y53482D01*
X80839Y53408D01*
X80913Y53351D01*
X81000Y53315D01*
X81093Y53302D01*
X81185Y53315D01*
X81272Y53351D01*
X81346Y53408D01*
X81401Y53479D01*
X82795D01*
X82795Y53479D01*
X82865Y53493D01*
X82924Y53533D01*
X86090Y56698D01*
X86136Y56679D01*
Y54486D01*
X84295Y52646D01*
X81835D01*
X81132Y51943D01*
X78084D01*
X78004Y52023D01*
X77952Y52063D01*
X77951Y52065D01*
X77876Y52122D01*
X77790Y52158D01*
X77697Y52170D01*
X77604Y52158D01*
X77517Y52122D01*
X77443Y52065D01*
X77426Y52043D01*
X77252D01*
X77175Y52032D01*
X77103Y52003D01*
X77071Y51979D01*
X77037Y51983D01*
X76944Y51971D01*
X76858Y51935D01*
X76784Y51878D01*
X76727Y51803D01*
X76691Y51717D01*
X76688Y51698D01*
X76490Y51500D01*
X74789D01*
X74581Y51709D01*
Y53179D01*
X74577Y53207D01*
X74581Y53238D01*
X74569Y53331D01*
X74533Y53418D01*
X74476Y53492D01*
X74402Y53549D01*
X74315Y53585D01*
X74222Y53597D01*
X74130Y53585D01*
X74043Y53549D01*
X73969Y53492D01*
X73912Y53418D01*
X73887Y53358D01*
X73505Y52977D01*
X72949D01*
X71274Y54652D01*
Y56927D01*
X71264Y56937D01*
X71522Y57195D01*
X70647Y57195D01*
X70628Y57241D01*
X71108Y57721D01*
X71151Y57787D01*
X71167Y57864D01*
Y59252D01*
X71151Y59329D01*
X71108Y59395D01*
X70202Y60301D01*
X70136Y60344D01*
X70059Y60360D01*
X67584D01*
X67255Y60688D01*
Y60955D01*
X67280Y60965D01*
X67374Y61037D01*
X67446Y61131D01*
X67492Y61241D01*
X67507Y61358D01*
X67492Y61476D01*
X67446Y61585D01*
X67374Y61679D01*
X67280Y61751D01*
X67171Y61797D01*
X67053Y61812D01*
X66936Y61797D01*
X66826Y61751D01*
X66732Y61679D01*
X66660Y61585D01*
X66615Y61476D01*
X66599Y61358D01*
X66615Y61241D01*
X66660Y61131D01*
X66732Y61037D01*
X66826Y60965D01*
X66851Y60955D01*
Y60604D01*
X66866Y60527D01*
X66910Y60461D01*
X67357Y60014D01*
X67423Y59971D01*
X67500Y59955D01*
X69975D01*
X70762Y59168D01*
Y57948D01*
X70009Y57195D01*
X69443D01*
Y57637D01*
X69464Y57665D01*
X69500Y57752D01*
X69513Y57844D01*
X69500Y57937D01*
X69464Y58024D01*
X69414Y58090D01*
Y58543D01*
X69411Y58563D01*
Y58830D01*
X69225D01*
X69172Y58852D01*
X69094Y58862D01*
X69017Y58852D01*
X68964Y58830D01*
X68778D01*
Y58296D01*
X68815D01*
Y57957D01*
X68807Y57937D01*
X68795Y57844D01*
X68807Y57752D01*
X68843Y57665D01*
X68844Y57663D01*
Y57195D01*
X66764D01*
X66718Y57245D01*
Y58178D01*
X67206D01*
Y58199D01*
X67333D01*
Y58138D01*
X67785D01*
Y58594D01*
X67663D01*
Y58755D01*
X67912D01*
Y58670D01*
X68545D01*
Y59204D01*
X67912D01*
Y59119D01*
X67698D01*
Y59726D01*
X67520D01*
X66339Y60907D01*
Y61011D01*
X66374Y61037D01*
X66446Y61131D01*
X66492Y61241D01*
X66507Y61358D01*
X66492Y61476D01*
X66446Y61585D01*
X66374Y61679D01*
X66280Y61751D01*
X66171Y61797D01*
X66053Y61812D01*
X65936Y61797D01*
X65826Y61751D01*
X65732Y61679D01*
X65660Y61585D01*
X65615Y61476D01*
X65599Y61358D01*
X65615Y61241D01*
X65660Y61131D01*
X65732Y61037D01*
X65826Y60965D01*
X65936Y60920D01*
X65975Y60915D01*
Y60831D01*
X65975Y60831D01*
X65989Y60761D01*
X66028Y60702D01*
X67262Y59468D01*
Y59250D01*
Y58817D01*
X67298D01*
Y58563D01*
X67206D01*
Y58614D01*
X66718D01*
Y58670D01*
X66704Y58740D01*
X66664Y58799D01*
X66664Y58799D01*
X66634Y58829D01*
X66636Y58833D01*
X66648Y58926D01*
X66636Y59019D01*
X66600Y59106D01*
X66543Y59180D01*
X66469Y59237D01*
X66382Y59273D01*
X66289Y59285D01*
X66196Y59273D01*
X66110Y59237D01*
X66036Y59180D01*
X65978Y59106D01*
X65943Y59019D01*
X65930Y58926D01*
X65943Y58833D01*
X65978Y58747D01*
X66036Y58672D01*
X66110Y58615D01*
X66196Y58580D01*
X66289Y58567D01*
X66298Y58560D01*
Y58178D01*
X66353D01*
Y57280D01*
X66268Y57195D01*
X64628D01*
X64611Y57215D01*
X64594Y57343D01*
X64544Y57463D01*
X64465Y57566D01*
X64362Y57644D01*
X64243Y57694D01*
X64114Y57711D01*
X63986Y57694D01*
X63954Y57681D01*
X59836D01*
X58730Y58787D01*
X58688Y58890D01*
X58609Y58993D01*
X58506Y59072D01*
X58386Y59121D01*
X58258Y59138D01*
X58129Y59121D01*
X58010Y59072D01*
X57907Y58993D01*
X57828Y58890D01*
X57778Y58770D01*
X57761Y58642D01*
X57778Y58513D01*
X57828Y58394D01*
X57907Y58291D01*
X58010Y58212D01*
X58113Y58169D01*
X59041Y57241D01*
X59022Y57195D01*
X57236D01*
X55930Y58501D01*
Y66501D01*
X55930Y66501D01*
X55916Y66571D01*
X55877Y66630D01*
X55827Y66680D01*
X55827Y73050D01*
X55873Y73069D01*
X60333Y68609D01*
X60331Y68595D01*
X60343Y68502D01*
X60379Y68415D01*
X60390Y68400D01*
Y65587D01*
X59286Y64483D01*
X59267Y64481D01*
X59181Y64445D01*
X59106Y64388D01*
X59049Y64313D01*
X59013Y64227D01*
X59001Y64134D01*
X59013Y64041D01*
X59049Y63954D01*
X59106Y63880D01*
X59181Y63823D01*
X59267Y63787D01*
X59360Y63775D01*
X59453Y63787D01*
X59540Y63823D01*
X59614Y63880D01*
X59671Y63954D01*
X59707Y64041D01*
X59709Y64060D01*
X60902Y65252D01*
X60949Y65314D01*
X60979Y65386D01*
X60989Y65463D01*
Y68120D01*
X60995Y68168D01*
X61447D01*
Y68204D01*
X61507D01*
Y68187D01*
X61959D01*
Y68187D01*
X62009Y68186D01*
X62016Y68147D01*
X62036Y68117D01*
X62047Y68081D01*
X62036Y68044D01*
X62016Y68015D01*
X62004Y67953D01*
X62016Y67891D01*
X62052Y67838D01*
X62092Y67811D01*
Y67629D01*
X62092Y67629D01*
X62106Y67559D01*
X62146Y67500D01*
X62263Y67382D01*
Y67184D01*
X62319D01*
Y66395D01*
X58572Y62649D01*
X58532Y62589D01*
X58519Y62520D01*
X58519Y62520D01*
Y60600D01*
X58519Y60600D01*
X58532Y60531D01*
X58572Y60472D01*
X60865Y58178D01*
X60865Y58178D01*
X60924Y58139D01*
X60994Y58125D01*
X60994Y58125D01*
X62646D01*
Y58089D01*
X63555D01*
Y58110D01*
X63647D01*
Y58050D01*
X64099D01*
Y58506D01*
X64072D01*
Y58748D01*
X64126D01*
Y58804D01*
X64221D01*
Y58680D01*
X64854D01*
Y59214D01*
X64221D01*
Y59168D01*
X64126D01*
Y59657D01*
X64090D01*
Y60137D01*
X64891Y60938D01*
X64936Y60920D01*
X65053Y60904D01*
X65171Y60920D01*
X65280Y60965D01*
X65374Y61037D01*
X65446Y61131D01*
X65492Y61241D01*
X65507Y61358D01*
X65492Y61476D01*
X65446Y61585D01*
X65374Y61679D01*
X65280Y61751D01*
X65171Y61797D01*
X65053Y61812D01*
X64936Y61797D01*
X64826Y61751D01*
X64732Y61679D01*
X64660Y61585D01*
X64615Y61476D01*
X64599Y61358D01*
X64615Y61241D01*
X64633Y61196D01*
X63779Y60341D01*
X63739Y60282D01*
X63725Y60213D01*
X63725Y60213D01*
Y59657D01*
X63689D01*
Y59181D01*
Y58748D01*
X63708D01*
Y58506D01*
X63647D01*
Y58475D01*
X63555D01*
Y58525D01*
X62646D01*
Y58489D01*
X61070D01*
X58883Y60676D01*
Y62444D01*
X62630Y66191D01*
X62630Y66191D01*
X62669Y66250D01*
X62683Y66320D01*
Y67184D01*
X63172D01*
Y67318D01*
X63513D01*
Y67242D01*
X63949D01*
Y67718D01*
X63513D01*
Y67642D01*
X63323D01*
Y67811D01*
X63364Y67838D01*
X63399Y67891D01*
X63411Y67953D01*
X63399Y68015D01*
X63364Y68067D01*
X63311Y68103D01*
X63249Y68115D01*
X63032D01*
X63017Y68112D01*
X62967Y68153D01*
Y68306D01*
X63057D01*
X63071Y68296D01*
X63141Y68282D01*
X63583D01*
X63583Y68282D01*
X63652Y68296D01*
X63712Y68336D01*
X64027Y68651D01*
X64162Y68516D01*
Y68468D01*
X64159Y68452D01*
Y68198D01*
X64083D01*
Y67762D01*
X64992D01*
Y68198D01*
X64896D01*
Y68293D01*
X64913D01*
Y68516D01*
X64936Y68539D01*
X65412D01*
Y68483D01*
X66058D01*
Y68173D01*
X65916D01*
X65854Y68161D01*
X65801Y68125D01*
X65732Y68056D01*
X65697Y68004D01*
X65684Y67942D01*
Y67867D01*
X65676Y67865D01*
X65624Y67830D01*
X65588Y67778D01*
X65576Y67715D01*
X65588Y67653D01*
X65624Y67601D01*
X65676Y67566D01*
X65738Y67553D01*
X65955D01*
X65978Y67558D01*
X66026Y67516D01*
X66020Y67367D01*
X66016Y67363D01*
X65579D01*
Y67283D01*
X65551Y67245D01*
X65099D01*
Y67199D01*
X64872D01*
X64854Y67195D01*
X64585D01*
Y66720D01*
X65022D01*
Y66893D01*
X65099D01*
Y66848D01*
X65307D01*
X65630Y66525D01*
X65680Y66491D01*
X65738Y66480D01*
X65786D01*
Y66415D01*
X66437D01*
X66997Y65854D01*
X67014Y65843D01*
X67017Y65822D01*
X67053Y65736D01*
X67110Y65662D01*
X67184Y65604D01*
X67271Y65569D01*
X67363Y65556D01*
X67456Y65569D01*
X67543Y65604D01*
X67617Y65662D01*
X67674Y65736D01*
X67710Y65822D01*
X67722Y65915D01*
X67712Y65998D01*
X67833Y66119D01*
X67863Y66109D01*
X67881Y66097D01*
X67893Y66040D01*
X67912Y66011D01*
X67924Y65974D01*
X67912Y65938D01*
X67893Y65908D01*
X67880Y65846D01*
X67893Y65784D01*
X67928Y65732D01*
X67981Y65697D01*
X68007Y65691D01*
X68010Y65677D01*
X68043Y65628D01*
X68208Y65462D01*
Y65148D01*
X68214D01*
Y65061D01*
X68130D01*
Y64882D01*
X68016Y64769D01*
X67167D01*
Y64805D01*
X66474D01*
X66457Y64808D01*
X66457Y64808D01*
X66151D01*
Y64883D01*
X65699D01*
Y64428D01*
X65748D01*
Y64257D01*
X65543D01*
Y64342D01*
X64910D01*
Y63807D01*
X65543D01*
Y63893D01*
X65733D01*
Y63722D01*
X65678D01*
Y63286D01*
X66154D01*
Y63225D01*
X66002Y63073D01*
X65963Y63014D01*
X65949Y62944D01*
X65949Y62944D01*
Y62798D01*
X65936Y62797D01*
X65826Y62751D01*
X65732Y62679D01*
X65660Y62585D01*
X65615Y62476D01*
X65599Y62358D01*
X65615Y62241D01*
X65660Y62131D01*
X65732Y62037D01*
X65826Y61965D01*
X65936Y61920D01*
X66053Y61904D01*
X66171Y61920D01*
X66280Y61965D01*
X66374Y62037D01*
X66446Y62131D01*
X66492Y62241D01*
X66507Y62358D01*
X66492Y62476D01*
X66446Y62585D01*
X66374Y62679D01*
X66313Y62726D01*
Y62869D01*
X66465Y63021D01*
X66465Y63021D01*
X66504Y63080D01*
X66518Y63150D01*
Y63286D01*
X66586D01*
Y63722D01*
X66098D01*
Y63996D01*
X66098Y63996D01*
X66098Y63996D01*
Y64102D01*
X66098Y64103D01*
X66112Y64173D01*
X66112Y64173D01*
Y64428D01*
X66151D01*
Y64444D01*
X66258D01*
Y64368D01*
X67167D01*
Y64404D01*
X68092D01*
X68092Y64404D01*
X68162Y64418D01*
X68221Y64458D01*
X68387Y64624D01*
X69038D01*
Y65061D01*
X68953D01*
Y65148D01*
X68960D01*
Y65462D01*
X69125Y65628D01*
X69137Y65646D01*
X69201Y65653D01*
X69273Y65581D01*
X69322Y65548D01*
X69350Y65542D01*
Y65018D01*
X69786D01*
Y65122D01*
X70018D01*
X70018Y65122D01*
X70088Y65135D01*
X70147Y65175D01*
X70373Y65401D01*
X70463Y65389D01*
X70556Y65401D01*
X70642Y65437D01*
X70716Y65494D01*
X70773Y65569D01*
X70809Y65655D01*
X70822Y65748D01*
X70809Y65841D01*
X70773Y65928D01*
X70716Y66002D01*
X70642Y66059D01*
X70556Y66095D01*
X70463Y66107D01*
X70370Y66095D01*
X70283Y66059D01*
X70209Y66002D01*
X70152Y65928D01*
X70116Y65841D01*
X70104Y65748D01*
X70115Y65659D01*
X69943Y65486D01*
X69786D01*
Y65927D01*
X69359D01*
X69332Y65955D01*
X69282Y65988D01*
X69223Y65999D01*
X69172D01*
X69125Y66009D01*
X68909D01*
X68847Y65996D01*
X68794Y65961D01*
X68759Y65908D01*
X68747Y65846D01*
X68759Y65784D01*
X68794Y65732D01*
X68794Y65730D01*
X68665Y65600D01*
X68503D01*
X68374Y65730D01*
X68374Y65732D01*
X68409Y65784D01*
X68421Y65846D01*
X68409Y65908D01*
X68389Y65938D01*
X68378Y65974D01*
X68389Y66011D01*
X68409Y66040D01*
X68421Y66102D01*
X68409Y66164D01*
X68389Y66194D01*
X68378Y66230D01*
X68389Y66267D01*
X68409Y66296D01*
X68421Y66358D01*
X68412Y66403D01*
X68482Y66473D01*
X68521Y66499D01*
X68557Y66552D01*
X68563Y66585D01*
X68605D01*
Y67037D01*
X68208D01*
Y66632D01*
X68097Y66520D01*
X67843D01*
X67780Y66508D01*
X67728Y66473D01*
X67499Y66244D01*
X67456Y66262D01*
X67363Y66274D01*
X67271Y66262D01*
X67184Y66226D01*
X67159Y66207D01*
X66713Y66653D01*
X66821Y66761D01*
X66854Y66810D01*
X66866Y66869D01*
Y67047D01*
X67008D01*
Y66946D01*
X67460D01*
Y67382D01*
X67016D01*
X66975Y67419D01*
X66983Y67460D01*
X66971Y67522D01*
X66951Y67551D01*
X66940Y67587D01*
X66951Y67624D01*
X66971Y67653D01*
X66983Y67715D01*
X66971Y67778D01*
X66936Y67830D01*
X66885Y67864D01*
Y67893D01*
X66872Y67955D01*
X66837Y68007D01*
X66719Y68125D01*
X66666Y68161D01*
X66604Y68173D01*
X66383D01*
Y68563D01*
X66370Y68625D01*
X66335Y68678D01*
X66320Y68692D01*
Y68919D01*
X65412D01*
Y68863D01*
X65207D01*
X65192Y68913D01*
X65203Y68921D01*
X65238Y68973D01*
X65251Y69035D01*
X65238Y69097D01*
X65203Y69150D01*
X65151Y69185D01*
X65089Y69198D01*
X64872D01*
X64839Y69191D01*
X64790Y69228D01*
X64797Y69388D01*
X64965D01*
X64980Y69385D01*
X65074D01*
X65089Y69388D01*
X65248D01*
Y69602D01*
X65343D01*
Y69526D01*
X65779D01*
Y69592D01*
X65888D01*
Y69546D01*
X66340D01*
Y69822D01*
X66387Y69841D01*
X66485Y69743D01*
Y69536D01*
X67393D01*
Y69572D01*
X67680D01*
X67793Y69460D01*
X67781Y69370D01*
X67793Y69277D01*
X67829Y69191D01*
X67886Y69116D01*
X67960Y69059D01*
X68047Y69023D01*
X68140Y69011D01*
X68233Y69023D01*
X68319Y69059D01*
X68394Y69116D01*
X68451Y69191D01*
X68486Y69277D01*
X68499Y69370D01*
X68486Y69463D01*
X68451Y69550D01*
X68394Y69624D01*
X68319Y69681D01*
X68233Y69717D01*
X68140Y69729D01*
X68050Y69717D01*
X67885Y69883D01*
X67826Y69922D01*
X67756Y69936D01*
X67756Y69936D01*
X67393D01*
Y69972D01*
X66714D01*
X66493Y70193D01*
X66440Y70229D01*
X66378Y70241D01*
X65856D01*
X65794Y70229D01*
X65742Y70193D01*
X65550Y70002D01*
X65343D01*
Y69926D01*
X65143D01*
X65081Y69914D01*
X65028Y69878D01*
X64959Y69809D01*
X64924Y69757D01*
X64914Y69706D01*
X64771D01*
X64764Y69747D01*
X64740Y69787D01*
X64701Y69815D01*
X64655Y69827D01*
X64419Y69836D01*
X64372Y69829D01*
X64331Y69804D01*
X64303Y69766D01*
X64303Y69765D01*
X64255Y69746D01*
X64247Y69747D01*
X64243Y69751D01*
Y69899D01*
X64293D01*
Y70351D01*
X63837D01*
Y69899D01*
X63937D01*
Y69697D01*
X63562D01*
X63530Y69735D01*
X63526Y69744D01*
X63538Y69833D01*
X63526Y69926D01*
X63490Y70012D01*
X63433Y70087D01*
X63359Y70144D01*
X63272Y70179D01*
X63179Y70192D01*
X63086Y70179D01*
X63000Y70144D01*
X62925Y70087D01*
X62868Y70012D01*
X62832Y69926D01*
X62820Y69833D01*
X62832Y69740D01*
X62843Y69713D01*
X62412Y69282D01*
X62379Y69233D01*
X62375Y69212D01*
X62322D01*
Y68760D01*
X62416D01*
X62431Y68710D01*
X62414Y68698D01*
X62387Y68659D01*
X62381Y68627D01*
X62166D01*
X62104Y68614D01*
X62052Y68579D01*
X62038Y68558D01*
X61959D01*
Y68584D01*
X61507D01*
Y68568D01*
X61447D01*
Y68604D01*
X61048D01*
X61037Y68688D01*
X61001Y68774D01*
X60944Y68849D01*
X60869Y68906D01*
X60783Y68942D01*
X60690Y68954D01*
X60676Y68952D01*
X55912Y73716D01*
Y82060D01*
X55923Y82069D01*
X55980Y82143D01*
X56016Y82230D01*
X56028Y82323D01*
X56016Y82416D01*
X55980Y82502D01*
X55923Y82577D01*
X55849Y82634D01*
X55827Y82643D01*
X55827Y84115D01*
X55866Y84115D01*
Y85433D01*
X54252Y87047D01*
X54213D01*
Y88937D01*
X68701D01*
X69370Y88268D01*
D02*
G37*
G36*
X8425Y73976D02*
Y72544D01*
X7661D01*
X7560Y72646D01*
X7564Y72677D01*
X7551Y72770D01*
X7516Y72857D01*
X7459Y72931D01*
X7384Y72988D01*
X7298Y73024D01*
X7229Y73033D01*
Y73109D01*
X7246D01*
Y73506D01*
X6849D01*
Y73109D01*
X6865D01*
Y72931D01*
X6865Y72931D01*
X6879Y72861D01*
X6889Y72845D01*
X6858Y72770D01*
X6846Y72677D01*
X6858Y72584D01*
X6894Y72498D01*
X6951Y72423D01*
X7025Y72366D01*
X7112Y72330D01*
X7205Y72318D01*
X7298Y72330D01*
X7342Y72349D01*
X7457Y72233D01*
X7457Y72233D01*
X7516Y72194D01*
X7586Y72180D01*
X7586Y72180D01*
X8425D01*
Y72033D01*
X7513D01*
X7459Y72104D01*
X7384Y72161D01*
X7298Y72197D01*
X7205Y72209D01*
X7112Y72197D01*
X7025Y72161D01*
X6951Y72104D01*
X6894Y72030D01*
X6858Y71943D01*
X6846Y71850D01*
X6858Y71757D01*
X6894Y71671D01*
X6951Y71597D01*
X6983Y71572D01*
Y71222D01*
X6900D01*
Y70825D01*
X7352D01*
Y71222D01*
X7348D01*
Y71524D01*
X7384Y71540D01*
X7459Y71597D01*
X7513Y71668D01*
X8425D01*
Y71206D01*
X8343D01*
X8339Y71213D01*
X8282Y71288D01*
X8208Y71345D01*
X8122Y71381D01*
X8029Y71393D01*
X7936Y71381D01*
X7849Y71345D01*
X7775Y71288D01*
X7718Y71213D01*
X7682Y71127D01*
X7670Y71034D01*
X7682Y70941D01*
X7718Y70854D01*
X7775Y70780D01*
X7849Y70723D01*
X7936Y70687D01*
X8029Y70675D01*
X8122Y70687D01*
X8208Y70723D01*
X8282Y70780D01*
X8330Y70841D01*
X8425D01*
Y70354D01*
X8075Y70005D01*
X8059D01*
X8059Y70005D01*
X8009Y69995D01*
X7967Y69986D01*
X7967Y69986D01*
X7913Y69964D01*
X7860Y69986D01*
X7860Y69986D01*
X7768Y70005D01*
X7768Y70005D01*
X5428D01*
X5118Y70315D01*
Y73980D01*
X5154Y74015D01*
X8425Y73976D01*
D02*
G37*
G36*
X6160Y84035D02*
X8937D01*
X22087Y70886D01*
Y70591D01*
X21791Y70295D01*
X19288D01*
X16996Y72587D01*
X16930Y72637D01*
X16854Y72669D01*
X16772Y72680D01*
X9485D01*
X9400Y72766D01*
Y74134D01*
X8366Y75167D01*
X3927D01*
X3799Y75039D01*
Y70797D01*
X925D01*
X728Y70994D01*
Y83071D01*
X806Y83148D01*
Y84055D01*
X6160D01*
Y84035D01*
D02*
G37*
G36*
X63360Y69436D02*
X63410Y69402D01*
X63469Y69391D01*
X63826D01*
X63854Y69341D01*
X63844Y69291D01*
X63856Y69229D01*
X63876Y69200D01*
X63887Y69163D01*
X63876Y69127D01*
X63856Y69097D01*
X63844Y69035D01*
X63852Y68992D01*
X63507Y68647D01*
X63141D01*
X63071Y68633D01*
X63057Y68624D01*
X62954D01*
X62947Y68659D01*
X62921Y68698D01*
X62881Y68725D01*
X62835Y68734D01*
X62758D01*
X62719Y68760D01*
Y69156D01*
X63060Y69497D01*
X63086Y69486D01*
X63179Y69474D01*
X63272Y69486D01*
X63299Y69497D01*
X63360Y69436D01*
D02*
G37*
G36*
X52735Y72189D02*
X52687Y63150D01*
X45571D01*
X45039Y63681D01*
Y72224D01*
X52699D01*
X52735Y72189D01*
D02*
G37*
G36*
X69563Y51703D02*
X62678D01*
X62508Y51872D01*
Y53910D01*
X69563Y53910D01*
Y51703D01*
D02*
G37*
G36*
X60382Y53611D02*
Y53407D01*
X60141Y53166D01*
X60106Y53113D01*
X60094Y53051D01*
Y51703D01*
X58341D01*
Y53910D01*
X60382Y53910D01*
Y53611D01*
D02*
G37*
G36*
X27526Y51703D02*
X27161D01*
Y53268D01*
X27161Y53268D01*
X27147Y53337D01*
X27128Y53366D01*
Y53555D01*
X26219D01*
Y53529D01*
X26068D01*
Y53574D01*
X25592D01*
Y53138D01*
X26068D01*
Y53164D01*
X26127D01*
Y51703D01*
X24213D01*
Y53671D01*
X24452Y53910D01*
X27526D01*
Y51703D01*
D02*
G37*
G36*
X61053Y49705D02*
X61053Y45974D01*
X60718Y45640D01*
X55492Y45640D01*
Y51093D01*
X59665D01*
X61053Y49705D01*
D02*
G37*
G36*
X71149Y53910D02*
X71306Y53753D01*
X71320Y53759D01*
X72613Y52465D01*
X72675Y52418D01*
X72747Y52388D01*
X72825Y52378D01*
X73629D01*
X73707Y52388D01*
X73779Y52418D01*
X73841Y52465D01*
X73936Y52560D01*
X73982Y52541D01*
Y51585D01*
X73992Y51507D01*
X74022Y51435D01*
X74070Y51373D01*
X74454Y50989D01*
X74516Y50941D01*
X74546Y50929D01*
X74588Y50912D01*
X74665Y50901D01*
X76614D01*
X76692Y50912D01*
X76764Y50941D01*
X76826Y50989D01*
X77112Y51275D01*
X77130Y51277D01*
X77217Y51313D01*
X77291Y51370D01*
X77293Y51372D01*
X77345Y51412D01*
X77377Y51444D01*
X77629D01*
X77694Y51452D01*
X77697Y51452D01*
X77725Y51456D01*
X77748Y51432D01*
X77810Y51384D01*
X77883Y51354D01*
X77960Y51344D01*
X80782D01*
Y46858D01*
X79541Y45618D01*
X76185D01*
Y47016D01*
X74197Y49004D01*
X72100D01*
X71274Y49831D01*
Y51703D01*
X71018D01*
Y53910D01*
X71149D01*
D02*
G37*
G36*
X23169Y66900D02*
Y54911D01*
X22559Y54301D01*
Y51457D01*
X24006Y50010D01*
Y46181D01*
X23169Y45344D01*
X18780D01*
X18652Y45472D01*
X18622D01*
Y45502D01*
X18130Y45994D01*
Y64754D01*
X20374Y66998D01*
X23071Y66998D01*
X23169Y66900D01*
D02*
G37*
G36*
X87018Y45394D02*
X87018Y9144D01*
X85049Y7175D01*
X77078D01*
X77068Y7179D01*
X77058Y7175D01*
X71900D01*
X70010Y9065D01*
X70089Y9144D01*
Y40363D01*
X70107Y40384D01*
X70189Y40443D01*
X72707Y40421D01*
X72773Y40321D01*
X72695Y40132D01*
X72811Y39852D01*
X73091Y39736D01*
X73371Y39852D01*
X73486Y40132D01*
X73410Y40315D01*
X73478Y40415D01*
X73746Y40412D01*
Y40388D01*
X74757D01*
X74764Y40404D01*
X74802Y40419D01*
X74840Y40435D01*
X74840Y40435D01*
X74840Y40435D01*
X74880Y40475D01*
X74911Y40551D01*
X74911Y40551D01*
Y41469D01*
X74880Y41545D01*
X74803Y41577D01*
X72683D01*
X72612Y41648D01*
Y41681D01*
X72612Y41781D01*
Y41938D01*
X72775D01*
X72811Y41852D01*
X73091Y41736D01*
X73371Y41852D01*
X73486Y42132D01*
X73371Y42411D01*
X73091Y42527D01*
X72811Y42411D01*
X72775Y42325D01*
X72612D01*
Y42460D01*
X71758D01*
Y41781D01*
X71758Y41648D01*
X71729Y41619D01*
X71605D01*
X71486Y41738D01*
Y42860D01*
X72888Y44262D01*
X73819D01*
X73895Y44294D01*
X73895Y44294D01*
X74065Y44463D01*
X74157Y44424D01*
Y43894D01*
X74093Y43740D01*
X74206Y43468D01*
X74478Y43355D01*
X74751Y43468D01*
X74864Y43740D01*
X74800Y43894D01*
Y44484D01*
X75030Y44715D01*
X75124Y44942D01*
Y45323D01*
X75195Y45394D01*
X87018Y45394D01*
D02*
G37*
G36*
X7768Y69764D02*
X7913Y69704D01*
X8059Y69764D01*
X17323Y69764D01*
X17323Y33858D01*
X394Y33858D01*
X394Y69764D01*
X7768Y69764D01*
D02*
G37*
G36*
X69547Y3110D02*
X69075Y2638D01*
X68839Y2874D01*
X27717D01*
Y11948D01*
X27787Y12019D01*
X27864Y12096D01*
X27864Y12096D01*
X27866Y12116D01*
X69547D01*
Y3110D01*
D02*
G37*
G36*
X23819Y10364D02*
Y6880D01*
X18802D01*
X18730Y6949D01*
Y10502D01*
X23661D01*
X23671Y10512D01*
X23819Y10364D01*
D02*
G37*
%LPC*%
G36*
X20687Y93076D02*
X20576Y93062D01*
X20473Y93019D01*
X20384Y92951D01*
X20316Y92862D01*
X20273Y92759D01*
X20259Y92648D01*
X20273Y92537D01*
X20316Y92433D01*
X20384Y92345D01*
X20473Y92277D01*
X20576Y92234D01*
X20687Y92219D01*
X20798Y92234D01*
X20901Y92277D01*
X20990Y92345D01*
X21058Y92433D01*
X21101Y92537D01*
X21115Y92648D01*
X21101Y92759D01*
X21058Y92862D01*
X20990Y92951D01*
X20901Y93019D01*
X20798Y93062D01*
X20687Y93076D01*
D02*
G37*
G36*
X42874Y90395D02*
X42766Y90381D01*
X42665Y90339D01*
X42578Y90272D01*
X42512Y90186D01*
X42470Y90085D01*
X42455Y89976D01*
X42470Y89868D01*
X42512Y89767D01*
X42578Y89680D01*
X42665Y89614D01*
X42766Y89572D01*
X42874Y89558D01*
X42982Y89572D01*
X43083Y89614D01*
X43170Y89680D01*
X43236Y89767D01*
X43278Y89868D01*
X43293Y89976D01*
X43278Y90085D01*
X43236Y90186D01*
X43170Y90272D01*
X43083Y90339D01*
X42982Y90381D01*
X42874Y90395D01*
D02*
G37*
G36*
X14076Y91732D02*
X13891Y91717D01*
X13711Y91674D01*
X13540Y91603D01*
X13382Y91506D01*
X13241Y91386D01*
X13121Y91245D01*
X13024Y91087D01*
X12953Y90916D01*
X12910Y90736D01*
X12895Y90551D01*
X12910Y90367D01*
X12953Y90186D01*
X13024Y90015D01*
X13121Y89857D01*
X13241Y89716D01*
X13382Y89596D01*
X13540Y89499D01*
X13711Y89428D01*
X13891Y89385D01*
X14076Y89371D01*
X14260Y89385D01*
X14440Y89428D01*
X14612Y89499D01*
X14769Y89596D01*
X14910Y89716D01*
X15031Y89857D01*
X15127Y90015D01*
X15198Y90186D01*
X15242Y90367D01*
X15256Y90551D01*
X15242Y90736D01*
X15198Y90916D01*
X15127Y91087D01*
X15031Y91245D01*
X14910Y91386D01*
X14769Y91506D01*
X14612Y91603D01*
X14440Y91674D01*
X14260Y91717D01*
X14076Y91732D01*
D02*
G37*
G36*
X8564D02*
X8379Y91717D01*
X8199Y91674D01*
X8028Y91603D01*
X7870Y91506D01*
X7729Y91386D01*
X7609Y91245D01*
X7512Y91087D01*
X7441Y90916D01*
X7398Y90736D01*
X7383Y90551D01*
X7398Y90367D01*
X7441Y90186D01*
X7512Y90015D01*
X7609Y89857D01*
X7729Y89716D01*
X7870Y89596D01*
X8028Y89499D01*
X8199Y89428D01*
X8379Y89385D01*
X8564Y89371D01*
X8748Y89385D01*
X8929Y89428D01*
X9100Y89499D01*
X9258Y89596D01*
X9399Y89716D01*
X9519Y89857D01*
X9616Y90015D01*
X9686Y90186D01*
X9730Y90367D01*
X9744Y90551D01*
X9730Y90736D01*
X9686Y90916D01*
X9616Y91087D01*
X9519Y91245D01*
X9399Y91386D01*
X9258Y91506D01*
X9100Y91603D01*
X8929Y91674D01*
X8748Y91717D01*
X8564Y91732D01*
D02*
G37*
G36*
X43289Y88391D02*
X42459D01*
Y87561D01*
X43289D01*
Y88391D01*
D02*
G37*
G36*
X16044Y89763D02*
X15859Y89749D01*
X15679Y89705D01*
X15508Y89635D01*
X15350Y89538D01*
X15209Y89417D01*
X15089Y89277D01*
X14992Y89119D01*
X14921Y88947D01*
X14878Y88767D01*
X14864Y88583D01*
X14878Y88398D01*
X14921Y88218D01*
X14992Y88047D01*
X15089Y87889D01*
X15209Y87748D01*
X15350Y87628D01*
X15508Y87531D01*
X15679Y87460D01*
X15859Y87417D01*
X16044Y87402D01*
X16229Y87417D01*
X16409Y87460D01*
X16580Y87531D01*
X16738Y87628D01*
X16879Y87748D01*
X16999Y87889D01*
X17096Y88047D01*
X17167Y88218D01*
X17210Y88398D01*
X17225Y88583D01*
X17210Y88767D01*
X17167Y88947D01*
X17096Y89119D01*
X16999Y89277D01*
X16879Y89417D01*
X16738Y89538D01*
X16580Y89635D01*
X16409Y89705D01*
X16229Y89749D01*
X16044Y89763D01*
D02*
G37*
G36*
X10532D02*
X10348Y89749D01*
X10167Y89705D01*
X9996Y89635D01*
X9838Y89538D01*
X9698Y89417D01*
X9577Y89277D01*
X9480Y89119D01*
X9410Y88947D01*
X9366Y88767D01*
X9352Y88583D01*
X9366Y88398D01*
X9410Y88218D01*
X9480Y88047D01*
X9577Y87889D01*
X9698Y87748D01*
X9838Y87628D01*
X9996Y87531D01*
X10167Y87460D01*
X10348Y87417D01*
X10532Y87402D01*
X10717Y87417D01*
X10897Y87460D01*
X11068Y87531D01*
X11226Y87628D01*
X11367Y87748D01*
X11487Y87889D01*
X11584Y88047D01*
X11655Y88218D01*
X11698Y88398D01*
X11713Y88583D01*
X11698Y88767D01*
X11655Y88947D01*
X11584Y89119D01*
X11487Y89277D01*
X11367Y89417D01*
X11226Y89538D01*
X11068Y89635D01*
X10897Y89705D01*
X10717Y89749D01*
X10532Y89763D01*
D02*
G37*
G36*
X18204Y87359D02*
X17972Y87341D01*
X17745Y87287D01*
X17531Y87198D01*
X17332Y87076D01*
X17155Y86925D01*
X17004Y86748D01*
X16883Y86550D01*
X16794Y86335D01*
X16739Y86109D01*
X16721Y85877D01*
X16739Y85645D01*
X16794Y85419D01*
X16883Y85204D01*
X17004Y85005D01*
X17155Y84828D01*
X17332Y84677D01*
X17531Y84556D01*
X17745Y84467D01*
X17972Y84412D01*
X18204Y84394D01*
X18436Y84412D01*
X18662Y84467D01*
X18877Y84556D01*
X19075Y84677D01*
X19252Y84828D01*
X19403Y85005D01*
X19525Y85204D01*
X19614Y85419D01*
X19668Y85645D01*
X19686Y85877D01*
X19668Y86109D01*
X19614Y86335D01*
X19525Y86550D01*
X19403Y86748D01*
X19252Y86925D01*
X19075Y87076D01*
X18877Y87198D01*
X18662Y87287D01*
X18436Y87341D01*
X18204Y87359D01*
D02*
G37*
G36*
X38524Y76689D02*
X38292Y76671D01*
X38065Y76617D01*
X37851Y76528D01*
X37652Y76406D01*
X37475Y76255D01*
X37324Y76078D01*
X37203Y75880D01*
X37114Y75665D01*
X37059Y75439D01*
X37041Y75207D01*
X37059Y74975D01*
X37114Y74749D01*
X37203Y74534D01*
X37279Y74409D01*
X37324Y74335D01*
X37475Y74158D01*
X37652Y74007D01*
X37851Y73886D01*
X38065Y73797D01*
X38292Y73742D01*
X38524Y73724D01*
X38756Y73742D01*
X38982Y73797D01*
X39197Y73886D01*
X39395Y74007D01*
X39572Y74158D01*
X39723Y74335D01*
X39845Y74534D01*
X39934Y74749D01*
X39988Y74975D01*
X40006Y75207D01*
X39988Y75439D01*
X39934Y75665D01*
X39845Y75880D01*
X39723Y76078D01*
X39572Y76255D01*
X39395Y76406D01*
X39197Y76528D01*
X38982Y76617D01*
X38756Y76671D01*
X38524Y76689D01*
D02*
G37*
G36*
X41122Y72577D02*
X41122Y72577D01*
X41121Y72577D01*
X34783Y72538D01*
X34764Y72534D01*
X34744Y72530D01*
X34744Y72530D01*
X34744Y72530D01*
X34728Y72519D01*
X34711Y72508D01*
X34711Y72508D01*
X34711Y72507D01*
X34700Y72491D01*
X34689Y72475D01*
X34689Y72474D01*
X34689Y72474D01*
X34685Y72455D01*
X34681Y72436D01*
Y69268D01*
X34027Y68614D01*
X33998D01*
X33939Y68639D01*
X33846Y68651D01*
X33753Y68639D01*
X33666Y68603D01*
X33592Y68546D01*
X33535Y68471D01*
X33499Y68385D01*
X33487Y68292D01*
X33499Y68199D01*
X33535Y68112D01*
X33592Y68038D01*
X33666Y67981D01*
X33753Y67945D01*
X33846Y67933D01*
X33939Y67945D01*
X34025Y67981D01*
X34070Y68015D01*
X34151D01*
X34229Y68025D01*
X34301Y68055D01*
X34363Y68103D01*
X34797Y68537D01*
X35617Y67718D01*
X35650Y67696D01*
X35689Y67688D01*
X41358D01*
X41397Y67696D01*
X41430Y67718D01*
X41452Y67751D01*
X41460Y67790D01*
Y72239D01*
X41452Y72278D01*
X41430Y72311D01*
X41194Y72547D01*
X41194Y72547D01*
X41194Y72548D01*
X41177Y72558D01*
X41161Y72569D01*
X41161Y72569D01*
X41160Y72570D01*
X41141Y72573D01*
X41122Y72577D01*
D02*
G37*
G36*
X45676Y54413D02*
X45629Y54403D01*
X45590Y54375D01*
X45565Y54335D01*
X45557Y54288D01*
X45564Y54048D01*
X45529Y54012D01*
X39511Y54012D01*
X39509Y54014D01*
X39474Y54052D01*
X39472Y54184D01*
X39463Y54231D01*
X39436Y54270D01*
X39396Y54296D01*
X39349Y54305D01*
X39302Y54295D01*
X39263Y54268D01*
X39237Y54228D01*
X39228Y54182D01*
X39258Y51593D01*
X39268Y51547D01*
X39295Y51507D01*
X39335Y51481D01*
X39381Y51472D01*
X39428Y51482D01*
X39467Y51509D01*
X39493Y51549D01*
X39502Y51596D01*
X39507Y51601D01*
X39839D01*
X39843Y51601D01*
X39846Y51601D01*
X39862Y51605D01*
X39878Y51609D01*
X39923Y51618D01*
X39943Y51596D01*
X39982Y51545D01*
X40057Y51488D01*
X40143Y51452D01*
X40236Y51439D01*
X40329Y51452D01*
X40416Y51488D01*
X40490Y51545D01*
X40530Y51596D01*
X40550Y51618D01*
X40594Y51609D01*
X40610Y51605D01*
X40626Y51601D01*
X40630Y51601D01*
X40633Y51601D01*
X43576D01*
X43615Y51609D01*
X43648Y51631D01*
X43710Y51634D01*
X43932Y51412D01*
Y51241D01*
X43866Y51191D01*
X43831Y51144D01*
X43768D01*
X43732Y51191D01*
X43654Y51251D01*
X43562Y51289D01*
X43465Y51302D01*
X43367Y51289D01*
X43275Y51251D01*
X43197Y51191D01*
X43161Y51144D01*
X43098D01*
X43063Y51191D01*
X42984Y51251D01*
X42893Y51289D01*
X42795Y51302D01*
X42697Y51289D01*
X42606Y51251D01*
X42528Y51191D01*
X42468Y51113D01*
X42430Y51021D01*
X42418Y50931D01*
X42410Y50918D01*
X42375Y50891D01*
X42368Y50889D01*
X41037D01*
X41014Y50899D01*
X40886Y50916D01*
X40757Y50899D01*
X40735Y50889D01*
X40229D01*
X40223Y50904D01*
X40144Y51007D01*
X40041Y51085D01*
X39922Y51135D01*
X39793Y51152D01*
X39665Y51135D01*
X39545Y51085D01*
X39442Y51007D01*
X39363Y50904D01*
X39358Y50889D01*
X38992D01*
X38898Y50928D01*
X38770Y50945D01*
X38641Y50928D01*
X38585Y50905D01*
X38570Y50943D01*
X38491Y51046D01*
X38388Y51125D01*
X38268Y51174D01*
X38140Y51191D01*
X38011Y51174D01*
X37892Y51125D01*
X37789Y51046D01*
X37710Y50943D01*
X37688Y50889D01*
X36978D01*
X36939Y50882D01*
X36906Y50859D01*
X36884Y50826D01*
X36876Y50787D01*
Y45640D01*
X36884Y45601D01*
X36906Y45568D01*
X36965Y45509D01*
X36998Y45487D01*
X37037Y45479D01*
X37887D01*
X37952Y45452D01*
X38081Y45435D01*
X38209Y45452D01*
X38275Y45479D01*
X39831D01*
X39941Y45464D01*
X40051Y45479D01*
X42480D01*
X42519Y45487D01*
X42552Y45509D01*
X42575Y45542D01*
X42582Y45581D01*
Y46290D01*
X42625Y46393D01*
X42642Y46522D01*
X42625Y46650D01*
X42582Y46754D01*
Y47491D01*
X42615Y47533D01*
X42664Y47653D01*
X42681Y47782D01*
X42664Y47910D01*
X42615Y48030D01*
X42582Y48072D01*
Y48274D01*
X42595Y48291D01*
X42645Y48411D01*
X42662Y48539D01*
X42645Y48668D01*
X42595Y48788D01*
X42582Y48804D01*
Y50534D01*
X42632Y50565D01*
X42697Y50538D01*
X42795Y50525D01*
X42893Y50538D01*
X42984Y50576D01*
X43063Y50636D01*
X43098Y50682D01*
X43161D01*
X43197Y50636D01*
X43275Y50576D01*
X43367Y50538D01*
X43465Y50525D01*
X43562Y50538D01*
X43654Y50576D01*
X43732Y50636D01*
X43768Y50682D01*
X43831D01*
X43866Y50636D01*
X43945Y50576D01*
X44036Y50538D01*
X44134Y50525D01*
X44232Y50538D01*
X44323Y50576D01*
X44401Y50636D01*
X44437Y50682D01*
X44500D01*
X44536Y50636D01*
X44614Y50576D01*
X44705Y50538D01*
X44803Y50525D01*
X44901Y50538D01*
X44992Y50576D01*
X45071Y50636D01*
X45106Y50682D01*
X45169D01*
X45205Y50636D01*
X45283Y50576D01*
X45375Y50538D01*
X45472Y50525D01*
X45570Y50538D01*
X45662Y50576D01*
X45740Y50636D01*
X45800Y50714D01*
X45838Y50806D01*
X45851Y50903D01*
Y50923D01*
X45838Y51021D01*
X45800Y51113D01*
X45740Y51191D01*
X45675Y51241D01*
Y51362D01*
X45725Y51390D01*
X45761Y51384D01*
X45808Y51395D01*
X45847Y51422D01*
X45872Y51462D01*
X45880Y51509D01*
X45801Y54295D01*
X45791Y54341D01*
X45763Y54380D01*
X45723Y54405D01*
X45676Y54413D01*
D02*
G37*
G36*
X68484Y41940D02*
X68287Y41924D01*
X68095Y41878D01*
X67912Y41802D01*
X67743Y41699D01*
X67593Y41571D01*
X67464Y41420D01*
X67361Y41251D01*
X67285Y41069D01*
X67239Y40876D01*
X67224Y40679D01*
X67239Y40482D01*
X67285Y40290D01*
X67361Y40107D01*
X67464Y39938D01*
X67593Y39788D01*
X67743Y39659D01*
X67912Y39556D01*
X68095Y39480D01*
X68287Y39434D01*
X68484Y39418D01*
X68681Y39434D01*
X68874Y39480D01*
X69057Y39556D01*
X69225Y39659D01*
X69376Y39788D01*
X69504Y39938D01*
X69607Y40107D01*
X69683Y40290D01*
X69729Y40482D01*
X69745Y40679D01*
X69729Y40876D01*
X69683Y41069D01*
X69607Y41251D01*
X69504Y41420D01*
X69376Y41571D01*
X69225Y41699D01*
X69057Y41802D01*
X68874Y41878D01*
X68681Y41924D01*
X68484Y41940D01*
D02*
G37*
G36*
X56772D02*
X56574Y41924D01*
X56382Y41878D01*
X56199Y41802D01*
X56031Y41699D01*
X55880Y41571D01*
X55752Y41420D01*
X55648Y41251D01*
X55573Y41069D01*
X55527Y40876D01*
X55511Y40679D01*
X55527Y40482D01*
X55573Y40290D01*
X55648Y40107D01*
X55752Y39938D01*
X55880Y39788D01*
X56031Y39659D01*
X56199Y39556D01*
X56382Y39480D01*
X56574Y39434D01*
X56772Y39418D01*
X56969Y39434D01*
X57161Y39480D01*
X57344Y39556D01*
X57513Y39659D01*
X57663Y39788D01*
X57792Y39938D01*
X57895Y40107D01*
X57971Y40290D01*
X58017Y40482D01*
X58032Y40679D01*
X58017Y40876D01*
X57971Y41069D01*
X57895Y41251D01*
X57792Y41420D01*
X57663Y41571D01*
X57513Y41699D01*
X57344Y41802D01*
X57161Y41878D01*
X56969Y41924D01*
X56772Y41940D01*
D02*
G37*
G36*
X49990D02*
X49793Y41924D01*
X49601Y41878D01*
X49418Y41802D01*
X49249Y41699D01*
X49099Y41571D01*
X48970Y41420D01*
X48867Y41251D01*
X48791Y41069D01*
X48745Y40876D01*
X48729Y40679D01*
X48745Y40482D01*
X48791Y40290D01*
X48867Y40107D01*
X48970Y39938D01*
X49099Y39788D01*
X49249Y39659D01*
X49418Y39556D01*
X49601Y39480D01*
X49793Y39434D01*
X49990Y39418D01*
X50187Y39434D01*
X50380Y39480D01*
X50562Y39556D01*
X50731Y39659D01*
X50882Y39788D01*
X51010Y39938D01*
X51113Y40107D01*
X51189Y40290D01*
X51235Y40482D01*
X51251Y40679D01*
X51235Y40876D01*
X51189Y41069D01*
X51113Y41251D01*
X51010Y41420D01*
X50882Y41571D01*
X50731Y41699D01*
X50562Y41802D01*
X50380Y41878D01*
X50187Y41924D01*
X49990Y41940D01*
D02*
G37*
G36*
X38278D02*
X38080Y41924D01*
X37888Y41878D01*
X37705Y41802D01*
X37537Y41699D01*
X37386Y41571D01*
X37258Y41420D01*
X37154Y41251D01*
X37079Y41069D01*
X37032Y40876D01*
X37017Y40679D01*
X37032Y40482D01*
X37079Y40290D01*
X37154Y40107D01*
X37258Y39938D01*
X37386Y39788D01*
X37537Y39659D01*
X37705Y39556D01*
X37888Y39480D01*
X38080Y39434D01*
X38278Y39418D01*
X38475Y39434D01*
X38667Y39480D01*
X38850Y39556D01*
X39019Y39659D01*
X39169Y39788D01*
X39297Y39938D01*
X39401Y40107D01*
X39477Y40290D01*
X39523Y40482D01*
X39538Y40679D01*
X39523Y40876D01*
X39477Y41069D01*
X39401Y41251D01*
X39297Y41420D01*
X39169Y41571D01*
X39019Y41699D01*
X38850Y41802D01*
X38667Y41878D01*
X38475Y41924D01*
X38278Y41940D01*
D02*
G37*
G36*
X31496D02*
X31299Y41924D01*
X31107Y41878D01*
X30924Y41802D01*
X30755Y41699D01*
X30605Y41571D01*
X30476Y41420D01*
X30373Y41251D01*
X30297Y41069D01*
X30251Y40876D01*
X30235Y40679D01*
X30251Y40482D01*
X30297Y40290D01*
X30373Y40107D01*
X30476Y39938D01*
X30605Y39788D01*
X30755Y39659D01*
X30924Y39556D01*
X31107Y39480D01*
X31299Y39434D01*
X31496Y39418D01*
X31693Y39434D01*
X31886Y39480D01*
X32068Y39556D01*
X32237Y39659D01*
X32387Y39788D01*
X32516Y39938D01*
X32619Y40107D01*
X32695Y40290D01*
X32741Y40482D01*
X32757Y40679D01*
X32741Y40876D01*
X32695Y41069D01*
X32619Y41251D01*
X32516Y41420D01*
X32387Y41571D01*
X32237Y41699D01*
X32068Y41802D01*
X31886Y41878D01*
X31693Y41924D01*
X31496Y41940D01*
D02*
G37*
G36*
X44843Y37664D02*
X44641Y37649D01*
X44445Y37601D01*
X44258Y37524D01*
X44086Y37419D01*
X43933Y37288D01*
X43802Y37134D01*
X43696Y36962D01*
X43619Y36775D01*
X43572Y36579D01*
X43556Y36378D01*
X43572Y36177D01*
X43619Y35980D01*
X43696Y35794D01*
X43802Y35622D01*
X43933Y35468D01*
X44086Y35337D01*
X44258Y35232D01*
X44445Y35154D01*
X44641Y35107D01*
X44843Y35092D01*
X45044Y35107D01*
X45240Y35154D01*
X45427Y35232D01*
X45599Y35337D01*
X45752Y35468D01*
X45883Y35622D01*
X45989Y35794D01*
X46066Y35980D01*
X46113Y36177D01*
X46129Y36378D01*
X46113Y36579D01*
X46066Y36775D01*
X45989Y36962D01*
X45883Y37134D01*
X45752Y37288D01*
X45599Y37419D01*
X45427Y37524D01*
X45240Y37601D01*
X45044Y37649D01*
X44843Y37664D01*
D02*
G37*
G36*
X19783Y24765D02*
X19586Y24749D01*
X19394Y24703D01*
X19211Y24627D01*
X19042Y24524D01*
X18892Y24395D01*
X18764Y24245D01*
X18660Y24076D01*
X18585Y23893D01*
X18538Y23701D01*
X18523Y23504D01*
X18538Y23307D01*
X18585Y23114D01*
X18660Y22932D01*
X18764Y22763D01*
X18892Y22613D01*
X19042Y22484D01*
X19211Y22381D01*
X19394Y22305D01*
X19586Y22259D01*
X19783Y22243D01*
X19981Y22259D01*
X20173Y22305D01*
X20356Y22381D01*
X20524Y22484D01*
X20675Y22613D01*
X20803Y22763D01*
X20907Y22932D01*
X20982Y23114D01*
X21029Y23307D01*
X21044Y23504D01*
X21029Y23701D01*
X20982Y23893D01*
X20907Y24076D01*
X20803Y24245D01*
X20675Y24395D01*
X20524Y24524D01*
X20356Y24627D01*
X20173Y24703D01*
X19981Y24749D01*
X19783Y24765D01*
D02*
G37*
%LPD*%
G36*
X41358Y72239D02*
Y67790D01*
X35689D01*
X34783Y68696D01*
Y72436D01*
X41122Y72475D01*
X41358Y72239D01*
D02*
G37*
%LPC*%
G36*
X38622Y72209D02*
X38529Y72197D01*
X38443Y72161D01*
X38368Y72104D01*
X38311Y72030D01*
X38275Y71943D01*
X38263Y71850D01*
X38275Y71757D01*
X38311Y71671D01*
X38368Y71597D01*
X38443Y71540D01*
X38529Y71504D01*
X38622Y71491D01*
X38715Y71504D01*
X38802Y71540D01*
X38876Y71597D01*
X38933Y71671D01*
X38969Y71757D01*
X38981Y71850D01*
X38969Y71943D01*
X38933Y72030D01*
X38876Y72104D01*
X38802Y72161D01*
X38715Y72197D01*
X38622Y72209D01*
D02*
G37*
%LPD*%
G36*
X45578Y53532D02*
X45544Y53497D01*
X44743D01*
Y53485D01*
X44588D01*
Y53506D01*
X44113D01*
Y53069D01*
X44588D01*
X44601Y53025D01*
Y51703D01*
X44213D01*
X43581Y52335D01*
X43515Y52379D01*
X43438Y52394D01*
X42656D01*
X42616Y52446D01*
X42542Y52503D01*
X42455Y52539D01*
X42362Y52551D01*
X42269Y52539D01*
X42183Y52503D01*
X42108Y52446D01*
X42051Y52372D01*
X42015Y52285D01*
X42003Y52192D01*
X42015Y52099D01*
X42051Y52013D01*
X42108Y51938D01*
X42183Y51881D01*
X42269Y51845D01*
X42362Y51833D01*
X42455Y51845D01*
X42542Y51881D01*
X42616Y51938D01*
X42656Y51990D01*
X43354D01*
X43595Y51749D01*
X43576Y51703D01*
X40633D01*
X40589Y51753D01*
X40595Y51798D01*
X40583Y51891D01*
X40547Y51978D01*
X40490Y52052D01*
X40418Y52107D01*
Y53110D01*
X40405Y53180D01*
X40365Y53239D01*
X40365Y53239D01*
X40290Y53314D01*
X40317Y53379D01*
X40329Y53472D01*
X40317Y53565D01*
X40281Y53651D01*
X40224Y53726D01*
X40150Y53783D01*
X40063Y53818D01*
X39970Y53831D01*
X39878Y53818D01*
X39791Y53783D01*
X39717Y53726D01*
X39660Y53651D01*
X39624Y53565D01*
X39611Y53472D01*
X39624Y53379D01*
X39660Y53292D01*
X39717Y53218D01*
X39791Y53161D01*
X39878Y53125D01*
X39970Y53113D01*
X39975Y53113D01*
X40054Y53035D01*
Y52107D01*
X39982Y52052D01*
X39925Y51978D01*
X39889Y51891D01*
X39877Y51798D01*
X39883Y51753D01*
X39839Y51703D01*
X39501D01*
X39476Y53875D01*
X39511Y53910D01*
X45568Y53910D01*
X45578Y53532D01*
D02*
G37*
G36*
X45270Y51241D02*
X45205Y51191D01*
X45169Y51144D01*
X45106D01*
X45071Y51191D01*
X45005Y51241D01*
Y53037D01*
X45029Y53060D01*
X45270D01*
Y51241D01*
D02*
G37*
%LPC*%
G36*
X67343Y87003D02*
X67250Y86990D01*
X67163Y86955D01*
X67089Y86898D01*
X67032Y86823D01*
X67019Y86791D01*
X61887D01*
X61858Y86829D01*
X61784Y86886D01*
X61697Y86922D01*
X61604Y86934D01*
X61511Y86922D01*
X61425Y86886D01*
X61350Y86829D01*
X61293Y86754D01*
X61270Y86698D01*
X55870D01*
X55861Y86711D01*
X55786Y86768D01*
X55700Y86803D01*
X55607Y86816D01*
X55514Y86803D01*
X55428Y86768D01*
X55353Y86711D01*
X55296Y86636D01*
X55260Y86550D01*
X55248Y86457D01*
X55260Y86364D01*
X55296Y86277D01*
X55353Y86203D01*
X55428Y86146D01*
X55514Y86110D01*
X55607Y86098D01*
X55700Y86110D01*
X55786Y86146D01*
X55861Y86203D01*
X55918Y86277D01*
X55941Y86334D01*
X61341D01*
X61350Y86321D01*
X61425Y86264D01*
X61511Y86228D01*
X61604Y86216D01*
X61697Y86228D01*
X61784Y86264D01*
X61858Y86321D01*
X61915Y86395D01*
X61928Y86427D01*
X67060D01*
X67089Y86390D01*
X67163Y86333D01*
X67250Y86297D01*
X67343Y86285D01*
X67435Y86297D01*
X67522Y86333D01*
X67596Y86390D01*
X67653Y86464D01*
X67689Y86551D01*
X67702Y86644D01*
X67689Y86737D01*
X67653Y86823D01*
X67596Y86898D01*
X67522Y86955D01*
X67435Y86990D01*
X67343Y87003D01*
D02*
G37*
G36*
X69222Y86353D02*
X69130Y86341D01*
X69043Y86305D01*
X68969Y86248D01*
X68912Y86174D01*
X68876Y86087D01*
X68863Y85994D01*
X68876Y85901D01*
X68912Y85815D01*
X68969Y85740D01*
X69043Y85683D01*
X69130Y85647D01*
X69222Y85635D01*
X69312Y85647D01*
X69792Y85166D01*
X69792Y85166D01*
X69841Y85134D01*
X69831Y85084D01*
X65135D01*
X64324Y85895D01*
X64335Y85984D01*
X64323Y86077D01*
X64287Y86164D01*
X64230Y86238D01*
X64156Y86295D01*
X64069Y86331D01*
X63976Y86343D01*
X63883Y86331D01*
X63797Y86295D01*
X63723Y86238D01*
X63665Y86164D01*
X63630Y86077D01*
X63617Y85984D01*
X63630Y85891D01*
X63665Y85805D01*
X63723Y85730D01*
X63797Y85673D01*
X63883Y85638D01*
X63976Y85625D01*
X64066Y85637D01*
X64923Y84779D01*
X64918Y84752D01*
X64905Y84729D01*
X59318D01*
X58241Y85806D01*
X58253Y85896D01*
X58240Y85989D01*
X58205Y86075D01*
X58148Y86150D01*
X58073Y86207D01*
X57987Y86242D01*
X57894Y86255D01*
X57801Y86242D01*
X57714Y86207D01*
X57640Y86150D01*
X57583Y86075D01*
X57547Y85989D01*
X57535Y85896D01*
X57547Y85803D01*
X57583Y85716D01*
X57640Y85642D01*
X57714Y85585D01*
X57801Y85549D01*
X57894Y85537D01*
X57983Y85548D01*
X59113Y84418D01*
X59113Y84418D01*
X59172Y84379D01*
X59242Y84365D01*
X59242Y84365D01*
X75789D01*
X75999Y84155D01*
X77633Y82520D01*
X77615Y82476D01*
X77599Y82358D01*
X77615Y82241D01*
X77660Y82131D01*
X77732Y82037D01*
X77826Y81965D01*
X77936Y81920D01*
X78053Y81904D01*
X78171Y81920D01*
X78280Y81965D01*
X78374Y82037D01*
X78446Y82131D01*
X78492Y82241D01*
X78507Y82358D01*
X78492Y82476D01*
X78446Y82585D01*
X78374Y82679D01*
X78280Y82751D01*
X78171Y82797D01*
X78053Y82812D01*
X77936Y82797D01*
X77891Y82778D01*
X76560Y84110D01*
D01*
X76000Y84669D01*
X76005Y84697D01*
X76018Y84719D01*
X76381D01*
X76944Y84157D01*
D01*
X77086Y84015D01*
X77086Y84015D01*
X77145Y83975D01*
X77215Y83961D01*
X77215Y83961D01*
X83832D01*
X85579Y82214D01*
X85569Y82189D01*
X85556Y82096D01*
X85569Y82004D01*
X85604Y81917D01*
X85662Y81843D01*
X85736Y81786D01*
X85822Y81750D01*
X85915Y81737D01*
X86008Y81750D01*
X86095Y81786D01*
X86169Y81843D01*
X86226Y81917D01*
X86262Y82004D01*
X86274Y82096D01*
X86262Y82189D01*
X86226Y82276D01*
X86169Y82350D01*
X86095Y82407D01*
X86008Y82443D01*
X85915Y82455D01*
X85861Y82448D01*
X84036Y84273D01*
X83977Y84312D01*
X83907Y84326D01*
X83907Y84326D01*
X77290D01*
X76586Y85030D01*
X76537Y85063D01*
X76547Y85113D01*
X77119D01*
X77745Y84487D01*
X77745Y84487D01*
X77804Y84448D01*
X77874Y84434D01*
X77874Y84434D01*
X84334D01*
X84806Y83961D01*
X85790Y82978D01*
X85783Y82923D01*
X85795Y82830D01*
X85831Y82744D01*
X85888Y82669D01*
X85962Y82612D01*
X86049Y82576D01*
X86142Y82564D01*
X86235Y82576D01*
X86321Y82612D01*
X86396Y82669D01*
X86453Y82744D01*
X86488Y82830D01*
D01*
Y82830D01*
X86501Y82923D01*
X86488Y83016D01*
Y83016D01*
X86453Y83103D01*
X86396Y83177D01*
X86321Y83234D01*
X86235Y83270D01*
X86142Y83282D01*
X86049Y83270D01*
X86024Y83260D01*
X84538Y84745D01*
X84479Y84785D01*
X84409Y84798D01*
X84409Y84798D01*
X77950D01*
X77324Y85424D01*
X77265Y85464D01*
X77195Y85478D01*
X77195Y85478D01*
X69997D01*
X69570Y85905D01*
X69581Y85994D01*
X69569Y86087D01*
X69533Y86174D01*
X69476Y86248D01*
X69402Y86305D01*
X69315Y86341D01*
X69222Y86353D01*
D02*
G37*
G36*
X83053Y82812D02*
X82936Y82797D01*
X82826Y82751D01*
X82732Y82679D01*
X82660Y82585D01*
X82615Y82476D01*
X82599Y82358D01*
X82615Y82241D01*
X82660Y82131D01*
X82732Y82037D01*
X82826Y81965D01*
X82936Y81920D01*
X83053Y81904D01*
X83171Y81920D01*
X83280Y81965D01*
X83374Y82037D01*
X83446Y82131D01*
X83492Y82241D01*
X83507Y82358D01*
X83492Y82476D01*
X83446Y82585D01*
X83374Y82679D01*
X83280Y82751D01*
X83171Y82797D01*
X83053Y82812D01*
D02*
G37*
G36*
X82053D02*
X81936Y82797D01*
X81826Y82751D01*
X81732Y82679D01*
X81660Y82585D01*
X81615Y82476D01*
X81599Y82358D01*
X81615Y82241D01*
X81660Y82131D01*
X81732Y82037D01*
X81826Y81965D01*
X81936Y81920D01*
X82053Y81904D01*
X82171Y81920D01*
X82280Y81965D01*
X82374Y82037D01*
X82446Y82131D01*
X82492Y82241D01*
X82507Y82358D01*
X82492Y82476D01*
X82446Y82585D01*
X82374Y82679D01*
X82280Y82751D01*
X82171Y82797D01*
X82053Y82812D01*
D02*
G37*
G36*
X81053D02*
X80936Y82797D01*
X80826Y82751D01*
X80732Y82679D01*
X80660Y82585D01*
X80615Y82476D01*
X80599Y82358D01*
X80615Y82241D01*
X80660Y82131D01*
X80732Y82037D01*
X80826Y81965D01*
X80936Y81920D01*
X81053Y81904D01*
X81171Y81920D01*
X81280Y81965D01*
X81374Y82037D01*
X81446Y82131D01*
X81492Y82241D01*
X81507Y82358D01*
X81492Y82476D01*
X81446Y82585D01*
X81374Y82679D01*
X81280Y82751D01*
X81171Y82797D01*
X81053Y82812D01*
D02*
G37*
G36*
X80053D02*
X79936Y82797D01*
X79826Y82751D01*
X79732Y82679D01*
X79660Y82585D01*
X79615Y82476D01*
X79599Y82358D01*
X79615Y82241D01*
X79660Y82131D01*
X79732Y82037D01*
X79826Y81965D01*
X79936Y81920D01*
X80053Y81904D01*
X80171Y81920D01*
X80280Y81965D01*
X80374Y82037D01*
X80446Y82131D01*
X80492Y82241D01*
X80507Y82358D01*
X80492Y82476D01*
X80446Y82585D01*
X80374Y82679D01*
X80280Y82751D01*
X80171Y82797D01*
X80053Y82812D01*
D02*
G37*
G36*
X79053D02*
X78936Y82797D01*
X78826Y82751D01*
X78732Y82679D01*
X78660Y82585D01*
X78615Y82476D01*
X78599Y82358D01*
X78615Y82241D01*
X78660Y82131D01*
X78732Y82037D01*
X78826Y81965D01*
X78936Y81920D01*
X79053Y81904D01*
X79171Y81920D01*
X79280Y81965D01*
X79374Y82037D01*
X79446Y82131D01*
X79492Y82241D01*
X79507Y82358D01*
X79492Y82476D01*
X79446Y82585D01*
X79374Y82679D01*
X79280Y82751D01*
X79171Y82797D01*
X79053Y82812D01*
D02*
G37*
G36*
X77053D02*
X76936Y82797D01*
X76826Y82751D01*
X76732Y82679D01*
X76660Y82585D01*
X76615Y82476D01*
X76599Y82358D01*
X76615Y82241D01*
X76660Y82131D01*
X76732Y82037D01*
X76826Y81965D01*
X76936Y81920D01*
X77053Y81904D01*
X77171Y81920D01*
X77280Y81965D01*
X77374Y82037D01*
X77446Y82131D01*
X77492Y82241D01*
X77507Y82358D01*
X77492Y82476D01*
X77446Y82585D01*
X77374Y82679D01*
X77280Y82751D01*
X77171Y82797D01*
X77053Y82812D01*
D02*
G37*
G36*
X76053D02*
X75936Y82797D01*
X75826Y82751D01*
X75732Y82679D01*
X75660Y82585D01*
X75615Y82476D01*
X75599Y82358D01*
X75615Y82241D01*
X75660Y82131D01*
X75732Y82037D01*
X75826Y81965D01*
X75936Y81920D01*
X76053Y81904D01*
X76171Y81920D01*
X76280Y81965D01*
X76374Y82037D01*
X76446Y82131D01*
X76492Y82241D01*
X76507Y82358D01*
X76492Y82476D01*
X76446Y82585D01*
X76374Y82679D01*
X76280Y82751D01*
X76171Y82797D01*
X76053Y82812D01*
D02*
G37*
G36*
X75053D02*
X74936Y82797D01*
X74826Y82751D01*
X74732Y82679D01*
X74660Y82585D01*
X74615Y82476D01*
X74599Y82358D01*
X74615Y82241D01*
X74660Y82131D01*
X74732Y82037D01*
X74826Y81965D01*
X74936Y81920D01*
X75053Y81904D01*
X75171Y81920D01*
X75280Y81965D01*
X75374Y82037D01*
X75446Y82131D01*
X75492Y82241D01*
X75507Y82358D01*
X75492Y82476D01*
X75446Y82585D01*
X75374Y82679D01*
X75280Y82751D01*
X75171Y82797D01*
X75053Y82812D01*
D02*
G37*
G36*
X74053D02*
X73936Y82797D01*
X73826Y82751D01*
X73732Y82679D01*
X73660Y82585D01*
X73615Y82476D01*
X73599Y82358D01*
X73615Y82241D01*
X73660Y82131D01*
X73732Y82037D01*
X73826Y81965D01*
X73936Y81920D01*
X74053Y81904D01*
X74171Y81920D01*
X74280Y81965D01*
X74374Y82037D01*
X74446Y82131D01*
X74492Y82241D01*
X74507Y82358D01*
X74492Y82476D01*
X74446Y82585D01*
X74374Y82679D01*
X74280Y82751D01*
X74171Y82797D01*
X74053Y82812D01*
D02*
G37*
G36*
X73053D02*
X72936Y82797D01*
X72826Y82751D01*
X72732Y82679D01*
X72660Y82585D01*
X72615Y82476D01*
X72599Y82358D01*
X72615Y82241D01*
X72660Y82131D01*
X72732Y82037D01*
X72826Y81965D01*
X72936Y81920D01*
X73053Y81904D01*
X73171Y81920D01*
X73280Y81965D01*
X73374Y82037D01*
X73446Y82131D01*
X73492Y82241D01*
X73507Y82358D01*
X73492Y82476D01*
X73446Y82585D01*
X73374Y82679D01*
X73280Y82751D01*
X73171Y82797D01*
X73053Y82812D01*
D02*
G37*
G36*
X72053D02*
X71936Y82797D01*
X71826Y82751D01*
X71732Y82679D01*
X71660Y82585D01*
X71615Y82476D01*
X71599Y82358D01*
X71615Y82241D01*
X71660Y82131D01*
X71732Y82037D01*
X71826Y81965D01*
X71936Y81920D01*
X72053Y81904D01*
X72171Y81920D01*
X72280Y81965D01*
X72374Y82037D01*
X72446Y82131D01*
X72492Y82241D01*
X72507Y82358D01*
X72492Y82476D01*
X72446Y82585D01*
X72374Y82679D01*
X72280Y82751D01*
X72171Y82797D01*
X72053Y82812D01*
D02*
G37*
G36*
X71053D02*
X70936Y82797D01*
X70826Y82751D01*
X70732Y82679D01*
X70660Y82585D01*
X70615Y82476D01*
X70599Y82358D01*
X70615Y82241D01*
X70660Y82131D01*
X70732Y82037D01*
X70826Y81965D01*
X70936Y81920D01*
X71053Y81904D01*
X71171Y81920D01*
X71280Y81965D01*
X71374Y82037D01*
X71446Y82131D01*
X71492Y82241D01*
X71507Y82358D01*
X71492Y82476D01*
X71446Y82585D01*
X71374Y82679D01*
X71280Y82751D01*
X71171Y82797D01*
X71053Y82812D01*
D02*
G37*
G36*
X70053D02*
X69936Y82797D01*
X69826Y82751D01*
X69732Y82679D01*
X69660Y82585D01*
X69615Y82476D01*
X69599Y82358D01*
X69615Y82241D01*
X69660Y82131D01*
X69732Y82037D01*
X69826Y81965D01*
X69936Y81920D01*
X70053Y81904D01*
X70171Y81920D01*
X70280Y81965D01*
X70374Y82037D01*
X70446Y82131D01*
X70492Y82241D01*
X70507Y82358D01*
X70492Y82476D01*
X70446Y82585D01*
X70374Y82679D01*
X70280Y82751D01*
X70171Y82797D01*
X70053Y82812D01*
D02*
G37*
G36*
X69053D02*
X68936Y82797D01*
X68826Y82751D01*
X68732Y82679D01*
X68660Y82585D01*
X68615Y82476D01*
X68599Y82358D01*
X68615Y82241D01*
X68660Y82131D01*
X68732Y82037D01*
X68826Y81965D01*
X68936Y81920D01*
X69053Y81904D01*
X69171Y81920D01*
X69280Y81965D01*
X69374Y82037D01*
X69446Y82131D01*
X69492Y82241D01*
X69507Y82358D01*
X69492Y82476D01*
X69446Y82585D01*
X69374Y82679D01*
X69280Y82751D01*
X69171Y82797D01*
X69053Y82812D01*
D02*
G37*
G36*
X68053D02*
X67936Y82797D01*
X67826Y82751D01*
X67732Y82679D01*
X67660Y82585D01*
X67615Y82476D01*
X67599Y82358D01*
X67615Y82241D01*
X67660Y82131D01*
X67732Y82037D01*
X67826Y81965D01*
X67936Y81920D01*
X68053Y81904D01*
X68171Y81920D01*
X68280Y81965D01*
X68374Y82037D01*
X68446Y82131D01*
X68492Y82241D01*
X68507Y82358D01*
X68492Y82476D01*
X68446Y82585D01*
X68374Y82679D01*
X68280Y82751D01*
X68171Y82797D01*
X68053Y82812D01*
D02*
G37*
G36*
X67053D02*
X66936Y82797D01*
X66826Y82751D01*
X66732Y82679D01*
X66660Y82585D01*
X66615Y82476D01*
X66599Y82358D01*
X66615Y82241D01*
X66660Y82131D01*
X66732Y82037D01*
X66826Y81965D01*
X66936Y81920D01*
X67053Y81904D01*
X67171Y81920D01*
X67280Y81965D01*
X67374Y82037D01*
X67446Y82131D01*
X67492Y82241D01*
X67507Y82358D01*
X67492Y82476D01*
X67446Y82585D01*
X67374Y82679D01*
X67280Y82751D01*
X67171Y82797D01*
X67053Y82812D01*
D02*
G37*
G36*
X66053D02*
X65936Y82797D01*
X65826Y82751D01*
X65732Y82679D01*
X65660Y82585D01*
X65615Y82476D01*
X65599Y82358D01*
X65615Y82241D01*
X65660Y82131D01*
X65732Y82037D01*
X65826Y81965D01*
X65936Y81920D01*
X66053Y81904D01*
X66171Y81920D01*
X66280Y81965D01*
X66374Y82037D01*
X66446Y82131D01*
X66492Y82241D01*
X66507Y82358D01*
X66492Y82476D01*
X66446Y82585D01*
X66374Y82679D01*
X66280Y82751D01*
X66171Y82797D01*
X66053Y82812D01*
D02*
G37*
G36*
X65053D02*
X64936Y82797D01*
X64826Y82751D01*
X64732Y82679D01*
X64660Y82585D01*
X64615Y82476D01*
X64599Y82358D01*
X64615Y82241D01*
X64660Y82131D01*
X64732Y82037D01*
X64826Y81965D01*
X64936Y81920D01*
X65053Y81904D01*
X65171Y81920D01*
X65280Y81965D01*
X65374Y82037D01*
X65446Y82131D01*
X65492Y82241D01*
X65507Y82358D01*
X65492Y82476D01*
X65446Y82585D01*
X65374Y82679D01*
X65280Y82751D01*
X65171Y82797D01*
X65053Y82812D01*
D02*
G37*
G36*
X64053D02*
X63936Y82797D01*
X63826Y82751D01*
X63732Y82679D01*
X63660Y82585D01*
X63615Y82476D01*
X63599Y82358D01*
X63615Y82241D01*
X63660Y82131D01*
X63732Y82037D01*
X63826Y81965D01*
X63936Y81920D01*
X64053Y81904D01*
X64171Y81920D01*
X64280Y81965D01*
X64374Y82037D01*
X64446Y82131D01*
X64492Y82241D01*
X64507Y82358D01*
X64492Y82476D01*
X64446Y82585D01*
X64374Y82679D01*
X64280Y82751D01*
X64171Y82797D01*
X64053Y82812D01*
D02*
G37*
G36*
X63053D02*
X62936Y82797D01*
X62826Y82751D01*
X62732Y82679D01*
X62660Y82585D01*
X62615Y82476D01*
X62599Y82358D01*
X62615Y82241D01*
X62660Y82131D01*
X62732Y82037D01*
X62826Y81965D01*
X62936Y81920D01*
X63053Y81904D01*
X63171Y81920D01*
X63280Y81965D01*
X63374Y82037D01*
X63446Y82131D01*
X63492Y82241D01*
X63507Y82358D01*
X63492Y82476D01*
X63446Y82585D01*
X63374Y82679D01*
X63280Y82751D01*
X63171Y82797D01*
X63053Y82812D01*
D02*
G37*
G36*
X62053D02*
X61936Y82797D01*
X61826Y82751D01*
X61732Y82679D01*
X61660Y82585D01*
X61615Y82476D01*
X61599Y82358D01*
X61615Y82241D01*
X61660Y82131D01*
X61732Y82037D01*
X61826Y81965D01*
X61936Y81920D01*
X62053Y81904D01*
X62171Y81920D01*
X62280Y81965D01*
X62374Y82037D01*
X62446Y82131D01*
X62492Y82241D01*
X62507Y82358D01*
X62492Y82476D01*
X62446Y82585D01*
X62374Y82679D01*
X62280Y82751D01*
X62171Y82797D01*
X62053Y82812D01*
D02*
G37*
G36*
X61053D02*
X60936Y82797D01*
X60826Y82751D01*
X60732Y82679D01*
X60660Y82585D01*
X60615Y82476D01*
X60599Y82358D01*
X60615Y82241D01*
X60660Y82131D01*
X60732Y82037D01*
X60826Y81965D01*
X60936Y81920D01*
X61053Y81904D01*
X61171Y81920D01*
X61280Y81965D01*
X61374Y82037D01*
X61446Y82131D01*
X61492Y82241D01*
X61507Y82358D01*
X61492Y82476D01*
X61446Y82585D01*
X61374Y82679D01*
X61280Y82751D01*
X61171Y82797D01*
X61053Y82812D01*
D02*
G37*
G36*
X83053Y81812D02*
X82936Y81797D01*
X82826Y81751D01*
X82732Y81679D01*
X82660Y81585D01*
X82615Y81476D01*
X82599Y81358D01*
X82615Y81241D01*
X82660Y81131D01*
X82732Y81037D01*
X82826Y80965D01*
X82936Y80920D01*
X83053Y80904D01*
X83171Y80920D01*
X83280Y80965D01*
X83374Y81037D01*
X83446Y81131D01*
X83492Y81241D01*
X83507Y81358D01*
X83492Y81476D01*
X83446Y81585D01*
X83374Y81679D01*
X83280Y81751D01*
X83171Y81797D01*
X83053Y81812D01*
D02*
G37*
G36*
X82053D02*
X81936Y81797D01*
X81826Y81751D01*
X81732Y81679D01*
X81660Y81585D01*
X81615Y81476D01*
X81599Y81358D01*
X81615Y81241D01*
X81660Y81131D01*
X81732Y81037D01*
X81826Y80965D01*
X81936Y80920D01*
X82053Y80904D01*
X82171Y80920D01*
X82280Y80965D01*
X82374Y81037D01*
X82446Y81131D01*
X82492Y81241D01*
X82507Y81358D01*
X82492Y81476D01*
X82446Y81585D01*
X82374Y81679D01*
X82280Y81751D01*
X82171Y81797D01*
X82053Y81812D01*
D02*
G37*
G36*
X81053D02*
X80936Y81797D01*
X80826Y81751D01*
X80732Y81679D01*
X80660Y81585D01*
X80615Y81476D01*
X80599Y81358D01*
X80615Y81241D01*
X80660Y81131D01*
X80732Y81037D01*
X80826Y80965D01*
X80936Y80920D01*
X81053Y80904D01*
X81171Y80920D01*
X81280Y80965D01*
X81374Y81037D01*
X81446Y81131D01*
X81492Y81241D01*
X81507Y81358D01*
X81492Y81476D01*
X81446Y81585D01*
X81374Y81679D01*
X81280Y81751D01*
X81171Y81797D01*
X81053Y81812D01*
D02*
G37*
G36*
X80053D02*
X79936Y81797D01*
X79826Y81751D01*
X79732Y81679D01*
X79660Y81585D01*
X79615Y81476D01*
X79599Y81358D01*
X79615Y81241D01*
X79660Y81131D01*
X79732Y81037D01*
X79826Y80965D01*
X79936Y80920D01*
X80053Y80904D01*
X80171Y80920D01*
X80280Y80965D01*
X80374Y81037D01*
X80446Y81131D01*
X80492Y81241D01*
X80507Y81358D01*
X80492Y81476D01*
X80446Y81585D01*
X80374Y81679D01*
X80280Y81751D01*
X80171Y81797D01*
X80053Y81812D01*
D02*
G37*
G36*
X79053D02*
X78936Y81797D01*
X78826Y81751D01*
X78732Y81679D01*
X78660Y81585D01*
X78615Y81476D01*
X78599Y81358D01*
X78615Y81241D01*
X78660Y81131D01*
X78732Y81037D01*
X78826Y80965D01*
X78936Y80920D01*
X79053Y80904D01*
X79171Y80920D01*
X79280Y80965D01*
X79374Y81037D01*
X79446Y81131D01*
X79492Y81241D01*
X79507Y81358D01*
X79492Y81476D01*
X79446Y81585D01*
X79374Y81679D01*
X79280Y81751D01*
X79171Y81797D01*
X79053Y81812D01*
D02*
G37*
G36*
X78053D02*
X77936Y81797D01*
X77826Y81751D01*
X77732Y81679D01*
X77660Y81585D01*
X77615Y81476D01*
X77599Y81358D01*
X77615Y81241D01*
X77660Y81131D01*
X77732Y81037D01*
X77826Y80965D01*
X77936Y80920D01*
X78053Y80904D01*
X78171Y80920D01*
X78280Y80965D01*
X78374Y81037D01*
X78446Y81131D01*
X78492Y81241D01*
X78507Y81358D01*
X78492Y81476D01*
X78446Y81585D01*
X78374Y81679D01*
X78280Y81751D01*
X78171Y81797D01*
X78053Y81812D01*
D02*
G37*
G36*
X77053D02*
X76936Y81797D01*
X76826Y81751D01*
X76732Y81679D01*
X76660Y81585D01*
X76615Y81476D01*
X76599Y81358D01*
X76615Y81241D01*
X76660Y81131D01*
X76732Y81037D01*
X76826Y80965D01*
X76936Y80920D01*
X77053Y80904D01*
X77171Y80920D01*
X77280Y80965D01*
X77374Y81037D01*
X77446Y81131D01*
X77492Y81241D01*
X77507Y81358D01*
X77492Y81476D01*
X77446Y81585D01*
X77374Y81679D01*
X77280Y81751D01*
X77171Y81797D01*
X77053Y81812D01*
D02*
G37*
G36*
X76053D02*
X75936Y81797D01*
X75826Y81751D01*
X75732Y81679D01*
X75660Y81585D01*
X75615Y81476D01*
X75599Y81358D01*
X75615Y81241D01*
X75660Y81131D01*
X75732Y81037D01*
X75826Y80965D01*
X75936Y80920D01*
X76053Y80904D01*
X76171Y80920D01*
X76280Y80965D01*
X76374Y81037D01*
X76446Y81131D01*
X76492Y81241D01*
X76507Y81358D01*
X76492Y81476D01*
X76446Y81585D01*
X76374Y81679D01*
X76280Y81751D01*
X76171Y81797D01*
X76053Y81812D01*
D02*
G37*
G36*
X71053D02*
X70936Y81797D01*
X70826Y81751D01*
X70732Y81679D01*
X70660Y81585D01*
X70615Y81476D01*
X70599Y81358D01*
X70615Y81241D01*
X70660Y81131D01*
X70732Y81037D01*
X70826Y80965D01*
X70936Y80920D01*
X71053Y80904D01*
X71171Y80920D01*
X71280Y80965D01*
X71374Y81037D01*
X71446Y81131D01*
X71492Y81241D01*
X71507Y81358D01*
X71492Y81476D01*
X71446Y81585D01*
X71374Y81679D01*
X71280Y81751D01*
X71171Y81797D01*
X71053Y81812D01*
D02*
G37*
G36*
X70053D02*
X69936Y81797D01*
X69826Y81751D01*
X69732Y81679D01*
X69660Y81585D01*
X69615Y81476D01*
X69599Y81358D01*
X69615Y81241D01*
X69660Y81131D01*
X69732Y81037D01*
X69826Y80965D01*
X69936Y80920D01*
X70053Y80904D01*
X70171Y80920D01*
X70280Y80965D01*
X70374Y81037D01*
X70446Y81131D01*
X70492Y81241D01*
X70507Y81358D01*
X70492Y81476D01*
X70446Y81585D01*
X70374Y81679D01*
X70280Y81751D01*
X70171Y81797D01*
X70053Y81812D01*
D02*
G37*
G36*
X69053D02*
X68936Y81797D01*
X68826Y81751D01*
X68732Y81679D01*
X68660Y81585D01*
X68615Y81476D01*
X68599Y81358D01*
X68615Y81241D01*
X68660Y81131D01*
X68732Y81037D01*
X68826Y80965D01*
X68936Y80920D01*
X69053Y80904D01*
X69171Y80920D01*
X69280Y80965D01*
X69374Y81037D01*
X69446Y81131D01*
X69492Y81241D01*
X69507Y81358D01*
X69492Y81476D01*
X69446Y81585D01*
X69374Y81679D01*
X69280Y81751D01*
X69171Y81797D01*
X69053Y81812D01*
D02*
G37*
G36*
X68053D02*
X67936Y81797D01*
X67826Y81751D01*
X67732Y81679D01*
X67660Y81585D01*
X67615Y81476D01*
X67599Y81358D01*
X67615Y81241D01*
X67660Y81131D01*
X67732Y81037D01*
X67826Y80965D01*
X67936Y80920D01*
X68053Y80904D01*
X68171Y80920D01*
X68280Y80965D01*
X68374Y81037D01*
X68446Y81131D01*
X68492Y81241D01*
X68507Y81358D01*
X68492Y81476D01*
X68446Y81585D01*
X68374Y81679D01*
X68280Y81751D01*
X68171Y81797D01*
X68053Y81812D01*
D02*
G37*
G36*
X67053D02*
X66936Y81797D01*
X66826Y81751D01*
X66732Y81679D01*
X66660Y81585D01*
X66615Y81476D01*
X66599Y81358D01*
X66615Y81241D01*
X66660Y81131D01*
X66732Y81037D01*
X66826Y80965D01*
X66936Y80920D01*
X67053Y80904D01*
X67171Y80920D01*
X67280Y80965D01*
X67374Y81037D01*
X67446Y81131D01*
X67492Y81241D01*
X67507Y81358D01*
X67492Y81476D01*
X67446Y81585D01*
X67374Y81679D01*
X67280Y81751D01*
X67171Y81797D01*
X67053Y81812D01*
D02*
G37*
G36*
X66053D02*
X65936Y81797D01*
X65826Y81751D01*
X65732Y81679D01*
X65660Y81585D01*
X65615Y81476D01*
X65599Y81358D01*
X65615Y81241D01*
X65660Y81131D01*
X65732Y81037D01*
X65826Y80965D01*
X65936Y80920D01*
X66053Y80904D01*
X66171Y80920D01*
X66280Y80965D01*
X66374Y81037D01*
X66446Y81131D01*
X66492Y81241D01*
X66507Y81358D01*
X66492Y81476D01*
X66446Y81585D01*
X66374Y81679D01*
X66280Y81751D01*
X66171Y81797D01*
X66053Y81812D01*
D02*
G37*
G36*
X65053D02*
X64936Y81797D01*
X64826Y81751D01*
X64732Y81679D01*
X64660Y81585D01*
X64615Y81476D01*
X64599Y81358D01*
X64615Y81241D01*
X64660Y81131D01*
X64732Y81037D01*
X64826Y80965D01*
X64936Y80920D01*
X65053Y80904D01*
X65171Y80920D01*
X65280Y80965D01*
X65374Y81037D01*
X65446Y81131D01*
X65492Y81241D01*
X65507Y81358D01*
X65492Y81476D01*
X65446Y81585D01*
X65374Y81679D01*
X65280Y81751D01*
X65171Y81797D01*
X65053Y81812D01*
D02*
G37*
G36*
X64053D02*
X63936Y81797D01*
X63826Y81751D01*
X63732Y81679D01*
X63660Y81585D01*
X63615Y81476D01*
X63599Y81358D01*
X63615Y81241D01*
X63660Y81131D01*
X63732Y81037D01*
X63826Y80965D01*
X63936Y80920D01*
X64053Y80904D01*
X64171Y80920D01*
X64280Y80965D01*
X64374Y81037D01*
X64446Y81131D01*
X64492Y81241D01*
X64507Y81358D01*
X64492Y81476D01*
X64446Y81585D01*
X64374Y81679D01*
X64280Y81751D01*
X64171Y81797D01*
X64053Y81812D01*
D02*
G37*
G36*
X63053D02*
X62936Y81797D01*
X62826Y81751D01*
X62732Y81679D01*
X62660Y81585D01*
X62615Y81476D01*
X62599Y81358D01*
X62615Y81241D01*
X62660Y81131D01*
X62732Y81037D01*
X62826Y80965D01*
X62936Y80920D01*
X63053Y80904D01*
X63171Y80920D01*
X63280Y80965D01*
X63374Y81037D01*
X63446Y81131D01*
X63492Y81241D01*
X63507Y81358D01*
X63492Y81476D01*
X63446Y81585D01*
X63374Y81679D01*
X63280Y81751D01*
X63171Y81797D01*
X63053Y81812D01*
D02*
G37*
G36*
X62053D02*
X61936Y81797D01*
X61826Y81751D01*
X61732Y81679D01*
X61660Y81585D01*
X61615Y81476D01*
X61599Y81358D01*
X61615Y81241D01*
X61660Y81131D01*
X61732Y81037D01*
X61826Y80965D01*
X61936Y80920D01*
X62053Y80904D01*
X62171Y80920D01*
X62280Y80965D01*
X62374Y81037D01*
X62446Y81131D01*
X62492Y81241D01*
X62507Y81358D01*
X62492Y81476D01*
X62446Y81585D01*
X62374Y81679D01*
X62280Y81751D01*
X62171Y81797D01*
X62053Y81812D01*
D02*
G37*
G36*
X61053D02*
X60936Y81797D01*
X60826Y81751D01*
X60732Y81679D01*
X60660Y81585D01*
X60615Y81476D01*
X60599Y81358D01*
X60615Y81241D01*
X60660Y81131D01*
X60732Y81037D01*
X60826Y80965D01*
X60936Y80920D01*
X61053Y80904D01*
X61171Y80920D01*
X61280Y80965D01*
X61374Y81037D01*
X61446Y81131D01*
X61492Y81241D01*
X61507Y81358D01*
X61492Y81476D01*
X61446Y81585D01*
X61374Y81679D01*
X61280Y81751D01*
X61171Y81797D01*
X61053Y81812D01*
D02*
G37*
G36*
X79547Y80526D02*
X79454Y80514D01*
X79368Y80478D01*
X79293Y80421D01*
X79236Y80347D01*
X79200Y80260D01*
X79188Y80167D01*
X79200Y80074D01*
X79236Y79988D01*
X79293Y79913D01*
X79365Y79858D01*
X79366Y79853D01*
X79347Y79808D01*
X79265D01*
X79211Y79880D01*
X79136Y79937D01*
X79050Y79973D01*
X78957Y79985D01*
X78864Y79973D01*
X78777Y79937D01*
X78703Y79880D01*
X78646Y79805D01*
X78610Y79719D01*
X78598Y79626D01*
X78610Y79533D01*
X78646Y79447D01*
X78703Y79372D01*
X78777Y79315D01*
X78864Y79279D01*
X78957Y79267D01*
X79050Y79279D01*
X79136Y79315D01*
X79211Y79372D01*
X79265Y79444D01*
X83300D01*
X83300Y79444D01*
X83370Y79458D01*
X83429Y79497D01*
X83484Y79552D01*
X83549Y79525D01*
X83642Y79513D01*
X83735Y79525D01*
X83821Y79561D01*
X83896Y79618D01*
X83953Y79693D01*
X83988Y79779D01*
X84001Y79872D01*
X83988Y79965D01*
X83953Y80052D01*
X83902Y80118D01*
X83896Y80126D01*
X83821Y80183D01*
X83735Y80219D01*
X83642Y80231D01*
X83549Y80219D01*
X83462Y80183D01*
X83388Y80126D01*
X83382Y80118D01*
X83331Y80052D01*
X83295Y79965D01*
X83283Y79872D01*
X83283Y79867D01*
X83224Y79808D01*
X82409D01*
X82393Y79858D01*
X82439Y79894D01*
X82496Y79968D01*
X82532Y80055D01*
X82544Y80148D01*
X82532Y80241D01*
X82496Y80327D01*
X82439Y80401D01*
X82365Y80459D01*
X82278Y80494D01*
X82185Y80507D01*
X82092Y80494D01*
X82006Y80459D01*
X81931Y80401D01*
X81884Y80340D01*
X79861D01*
X79858Y80347D01*
X79801Y80421D01*
X79727Y80478D01*
X79640Y80514D01*
X79547Y80526D01*
D02*
G37*
G36*
X66089Y78863D02*
X65950Y78844D01*
X65820Y78791D01*
X65709Y78705D01*
X65624Y78594D01*
X65570Y78464D01*
X65552Y78325D01*
X65570Y78186D01*
X65624Y78056D01*
X65709Y77945D01*
X65820Y77859D01*
X65950Y77806D01*
X66089Y77787D01*
X66228Y77806D01*
X66358Y77859D01*
X66469Y77945D01*
X66555Y78056D01*
X66609Y78186D01*
X66627Y78325D01*
X66609Y78464D01*
X66555Y78594D01*
X66469Y78705D01*
X66358Y78791D01*
X66228Y78844D01*
X66089Y78863D01*
D02*
G37*
G36*
X84806Y78497D02*
X84700Y78483D01*
X84601Y78443D01*
X84517Y78378D01*
X84452Y78293D01*
X84411Y78194D01*
X84397Y78089D01*
X84411Y77983D01*
X84452Y77884D01*
X84517Y77800D01*
X84601Y77735D01*
X84700Y77694D01*
X84806Y77680D01*
X84912Y77694D01*
X85010Y77735D01*
X85095Y77800D01*
X85160Y77884D01*
X85200Y77983D01*
X85214Y78089D01*
X85200Y78194D01*
X85160Y78293D01*
X85095Y78378D01*
X85010Y78443D01*
X84912Y78483D01*
X84806Y78497D01*
D02*
G37*
G36*
X83806D02*
X83700Y78483D01*
X83601Y78443D01*
X83517Y78378D01*
X83452Y78293D01*
X83411Y78194D01*
X83397Y78089D01*
X83411Y77983D01*
X83452Y77884D01*
X83517Y77800D01*
X83601Y77735D01*
X83700Y77694D01*
X83806Y77680D01*
X83912Y77694D01*
X84010Y77735D01*
X84095Y77800D01*
X84160Y77884D01*
X84200Y77983D01*
X84214Y78089D01*
X84200Y78194D01*
X84160Y78293D01*
X84095Y78378D01*
X84010Y78443D01*
X83912Y78483D01*
X83806Y78497D01*
D02*
G37*
G36*
X84806Y77497D02*
X84700Y77483D01*
X84601Y77443D01*
X84517Y77378D01*
X84452Y77293D01*
X84411Y77194D01*
X84397Y77089D01*
X84411Y76983D01*
X84452Y76884D01*
X84517Y76800D01*
X84601Y76735D01*
X84700Y76694D01*
X84806Y76680D01*
X84912Y76694D01*
X85010Y76735D01*
X85095Y76800D01*
X85160Y76884D01*
X85200Y76983D01*
X85214Y77089D01*
X85200Y77194D01*
X85160Y77293D01*
X85095Y77378D01*
X85010Y77443D01*
X84912Y77483D01*
X84806Y77497D01*
D02*
G37*
G36*
X83806D02*
X83700Y77483D01*
X83601Y77443D01*
X83517Y77378D01*
X83452Y77293D01*
X83411Y77194D01*
X83397Y77089D01*
X83411Y76983D01*
X83452Y76884D01*
X83517Y76800D01*
X83601Y76735D01*
X83700Y76694D01*
X83806Y76680D01*
X83912Y76694D01*
X84010Y76735D01*
X84095Y76800D01*
X84160Y76884D01*
X84200Y76983D01*
X84214Y77089D01*
X84200Y77194D01*
X84160Y77293D01*
X84095Y77378D01*
X84010Y77443D01*
X83912Y77483D01*
X83806Y77497D01*
D02*
G37*
G36*
Y76497D02*
X83700Y76483D01*
X83601Y76443D01*
X83517Y76378D01*
X83452Y76293D01*
X83411Y76194D01*
X83397Y76089D01*
X83411Y75983D01*
X83452Y75884D01*
X83517Y75800D01*
X83601Y75735D01*
X83700Y75694D01*
X83806Y75680D01*
X83912Y75694D01*
X84010Y75735D01*
X84095Y75800D01*
X84160Y75884D01*
X84200Y75983D01*
X84214Y76089D01*
X84200Y76194D01*
X84160Y76293D01*
X84095Y76378D01*
X84010Y76443D01*
X83912Y76483D01*
X83806Y76497D01*
D02*
G37*
G36*
Y75497D02*
X83700Y75483D01*
X83601Y75443D01*
X83517Y75378D01*
X83452Y75293D01*
X83411Y75194D01*
X83397Y75089D01*
X83411Y74983D01*
X83452Y74884D01*
X83517Y74800D01*
X83601Y74735D01*
X83700Y74694D01*
X83806Y74680D01*
X83912Y74694D01*
X84010Y74735D01*
X84095Y74800D01*
X84160Y74884D01*
X84200Y74983D01*
X84214Y75089D01*
X84200Y75194D01*
X84160Y75293D01*
X84095Y75378D01*
X84010Y75443D01*
X83912Y75483D01*
X83806Y75497D01*
D02*
G37*
G36*
X84806Y74497D02*
X84700Y74483D01*
X84601Y74443D01*
X84517Y74378D01*
X84452Y74293D01*
X84411Y74194D01*
X84397Y74089D01*
X84411Y73983D01*
X84452Y73884D01*
X84517Y73800D01*
X84601Y73735D01*
X84700Y73694D01*
X84806Y73680D01*
X84912Y73694D01*
X85010Y73735D01*
X85095Y73800D01*
X85160Y73884D01*
X85200Y73983D01*
X85214Y74089D01*
X85200Y74194D01*
X85160Y74293D01*
X85095Y74378D01*
X85010Y74443D01*
X84912Y74483D01*
X84806Y74497D01*
D02*
G37*
G36*
X83806D02*
X83700Y74483D01*
X83601Y74443D01*
X83517Y74378D01*
X83452Y74293D01*
X83411Y74194D01*
X83397Y74089D01*
X83411Y73983D01*
X83452Y73884D01*
X83517Y73800D01*
X83601Y73735D01*
X83700Y73694D01*
X83806Y73680D01*
X83912Y73694D01*
X84010Y73735D01*
X84095Y73800D01*
X84160Y73884D01*
X84200Y73983D01*
X84214Y74089D01*
X84200Y74194D01*
X84160Y74293D01*
X84095Y74378D01*
X84010Y74443D01*
X83912Y74483D01*
X83806Y74497D01*
D02*
G37*
G36*
Y73497D02*
X83700Y73483D01*
X83601Y73443D01*
X83517Y73378D01*
X83452Y73293D01*
X83411Y73194D01*
X83397Y73089D01*
X83411Y72983D01*
X83452Y72884D01*
X83517Y72800D01*
X83601Y72735D01*
X83700Y72694D01*
X83806Y72680D01*
X83912Y72694D01*
X84010Y72735D01*
X84095Y72800D01*
X84160Y72884D01*
X84200Y72983D01*
X84214Y73089D01*
X84200Y73194D01*
X84160Y73293D01*
X84095Y73378D01*
X84010Y73443D01*
X83912Y73483D01*
X83806Y73497D01*
D02*
G37*
G36*
X84806Y72497D02*
X84700Y72483D01*
X84601Y72443D01*
X84517Y72378D01*
X84452Y72293D01*
X84411Y72194D01*
X84397Y72089D01*
X84411Y71983D01*
X84452Y71884D01*
X84517Y71800D01*
X84601Y71735D01*
X84700Y71694D01*
X84806Y71680D01*
X84912Y71694D01*
X85010Y71735D01*
X85095Y71800D01*
X85160Y71884D01*
X85200Y71983D01*
X85214Y72089D01*
X85200Y72194D01*
X85160Y72293D01*
X85095Y72378D01*
X85010Y72443D01*
X84912Y72483D01*
X84806Y72497D01*
D02*
G37*
G36*
X83806D02*
X83700Y72483D01*
X83601Y72443D01*
X83517Y72378D01*
X83452Y72293D01*
X83411Y72194D01*
X83397Y72089D01*
X83411Y71983D01*
X83452Y71884D01*
X83517Y71800D01*
X83601Y71735D01*
X83700Y71694D01*
X83806Y71680D01*
X83912Y71694D01*
X84010Y71735D01*
X84095Y71800D01*
X84160Y71884D01*
X84200Y71983D01*
X84214Y72089D01*
X84200Y72194D01*
X84160Y72293D01*
X84095Y72378D01*
X84010Y72443D01*
X83912Y72483D01*
X83806Y72497D01*
D02*
G37*
G36*
X84806Y71497D02*
X84700Y71483D01*
X84601Y71443D01*
X84517Y71378D01*
X84452Y71293D01*
X84411Y71194D01*
X84397Y71089D01*
X84411Y70983D01*
X84452Y70884D01*
X84517Y70800D01*
X84601Y70735D01*
X84700Y70694D01*
X84806Y70680D01*
X84912Y70694D01*
X85010Y70735D01*
X85095Y70800D01*
X85160Y70884D01*
X85200Y70983D01*
X85214Y71089D01*
X85200Y71194D01*
X85160Y71293D01*
X85095Y71378D01*
X85010Y71443D01*
X84912Y71483D01*
X84806Y71497D01*
D02*
G37*
G36*
X83806D02*
X83700Y71483D01*
X83601Y71443D01*
X83517Y71378D01*
X83452Y71293D01*
X83411Y71194D01*
X83397Y71089D01*
X83411Y70983D01*
X83452Y70884D01*
X83517Y70800D01*
X83601Y70735D01*
X83700Y70694D01*
X83806Y70680D01*
X83912Y70694D01*
X84010Y70735D01*
X84095Y70800D01*
X84160Y70884D01*
X84200Y70983D01*
X84214Y71089D01*
X84200Y71194D01*
X84160Y71293D01*
X84095Y71378D01*
X84010Y71443D01*
X83912Y71483D01*
X83806Y71497D01*
D02*
G37*
G36*
X66089Y71390D02*
X65950Y71372D01*
X65820Y71318D01*
X65709Y71233D01*
X65624Y71121D01*
X65570Y70992D01*
X65552Y70852D01*
X65570Y70713D01*
X65624Y70584D01*
X65709Y70472D01*
X65820Y70387D01*
X65950Y70333D01*
X66089Y70315D01*
X66228Y70333D01*
X66358Y70387D01*
X66469Y70472D01*
X66555Y70584D01*
X66609Y70713D01*
X66627Y70852D01*
X66609Y70992D01*
X66555Y71121D01*
X66469Y71233D01*
X66358Y71318D01*
X66228Y71372D01*
X66089Y71390D01*
D02*
G37*
G36*
X70692Y68076D02*
X70599Y68063D01*
X70512Y68027D01*
X70438Y67970D01*
X70402Y67924D01*
X70356Y67915D01*
X70356Y67915D01*
X69920D01*
Y67439D01*
Y67006D01*
X69980D01*
Y66872D01*
X69910D01*
Y66747D01*
X69794D01*
Y66822D01*
X69342D01*
Y66747D01*
X69175D01*
X69116Y66736D01*
X69067Y66703D01*
X68881Y66517D01*
X68750D01*
Y66199D01*
X69284D01*
Y66442D01*
X69342D01*
Y66367D01*
X69794D01*
Y66442D01*
X69910D01*
Y66396D01*
X70346D01*
Y66872D01*
X70286D01*
Y67006D01*
X70356D01*
Y67494D01*
X70406Y67505D01*
X70438Y67463D01*
X70512Y67406D01*
X70599Y67370D01*
X70692Y67358D01*
X70785Y67370D01*
X70871Y67406D01*
X70946Y67463D01*
X71003Y67537D01*
X71039Y67624D01*
X71051Y67717D01*
X71039Y67809D01*
X71003Y67896D01*
X70946Y67970D01*
X70871Y68027D01*
X70785Y68063D01*
X70692Y68076D01*
D02*
G37*
G36*
X63543Y65398D02*
X63450Y65386D01*
X63364Y65350D01*
X63349Y65339D01*
X63199D01*
X63121Y65329D01*
X63049Y65299D01*
X62987Y65251D01*
X60794Y63058D01*
X60746Y62996D01*
X60716Y62924D01*
X60706Y62846D01*
Y62645D01*
X60660Y62585D01*
X60615Y62476D01*
X60599Y62358D01*
X60615Y62241D01*
X60660Y62131D01*
X60706Y62071D01*
Y61927D01*
X60716Y61849D01*
X60746Y61777D01*
X60754Y61767D01*
Y61696D01*
X60732Y61679D01*
X60660Y61585D01*
X60615Y61476D01*
X60599Y61358D01*
X60615Y61241D01*
X60660Y61131D01*
X60732Y61037D01*
X60826Y60965D01*
X60936Y60920D01*
X61053Y60904D01*
X61171Y60920D01*
X61280Y60965D01*
X61374Y61037D01*
X61446Y61131D01*
X61492Y61241D01*
X61507Y61358D01*
X61492Y61476D01*
X61446Y61585D01*
X61374Y61679D01*
X61353Y61696D01*
Y62021D01*
X61374Y62037D01*
X61446Y62131D01*
X61492Y62241D01*
X61507Y62358D01*
X61492Y62476D01*
X61446Y62585D01*
X61374Y62679D01*
X61341Y62705D01*
X61338Y62755D01*
X63323Y64740D01*
X63349D01*
X63364Y64728D01*
X63450Y64693D01*
X63543Y64680D01*
X63636Y64693D01*
X63723Y64728D01*
X63797Y64786D01*
X63852Y64857D01*
X64029D01*
X64124Y64762D01*
X64104Y64716D01*
X64044D01*
Y64181D01*
X64677D01*
Y64716D01*
X64542D01*
Y64783D01*
X64542Y64783D01*
X64529Y64853D01*
X64489Y64912D01*
X64489Y64912D01*
X64233Y65168D01*
X64174Y65208D01*
X64104Y65222D01*
X64104Y65222D01*
X63852D01*
X63797Y65293D01*
X63723Y65350D01*
X63636Y65386D01*
X63543Y65398D01*
D02*
G37*
G36*
X83681Y67022D02*
X83588Y67010D01*
X83502Y66974D01*
X83427Y66917D01*
X83370Y66843D01*
X83334Y66756D01*
X83322Y66663D01*
X83334Y66570D01*
X83370Y66484D01*
X83427Y66410D01*
X83502Y66353D01*
X83519Y66345D01*
Y65715D01*
X81381Y63578D01*
X80091D01*
X80091Y63578D01*
X80021Y63564D01*
X79962Y63525D01*
X79962Y63525D01*
X79215Y62778D01*
X79171Y62797D01*
X79053Y62812D01*
X78936Y62797D01*
X78826Y62751D01*
X78732Y62679D01*
X78660Y62585D01*
X78615Y62476D01*
X78599Y62358D01*
X78615Y62241D01*
X78660Y62131D01*
X78732Y62037D01*
X78826Y61965D01*
X78936Y61920D01*
X79053Y61904D01*
X79171Y61920D01*
X79280Y61965D01*
X79374Y62037D01*
X79446Y62131D01*
X79492Y62241D01*
X79507Y62358D01*
X79492Y62476D01*
X79473Y62520D01*
X80166Y63213D01*
X81457D01*
X81457Y63213D01*
X81526Y63227D01*
X81586Y63267D01*
X83830Y65511D01*
X83830Y65511D01*
X83869Y65570D01*
X83883Y65640D01*
X83883Y65640D01*
Y66370D01*
X83935Y66410D01*
X83992Y66484D01*
X84028Y66570D01*
X84040Y66663D01*
X84028Y66756D01*
X83992Y66843D01*
X83935Y66917D01*
X83861Y66974D01*
X83774Y67010D01*
X83681Y67022D01*
D02*
G37*
G36*
X83053Y62812D02*
X82936Y62797D01*
X82826Y62751D01*
X82732Y62679D01*
X82660Y62585D01*
X82615Y62476D01*
X82599Y62358D01*
X82615Y62241D01*
X82660Y62131D01*
X82732Y62037D01*
X82826Y61965D01*
X82936Y61920D01*
X83053Y61904D01*
X83171Y61920D01*
X83280Y61965D01*
X83374Y62037D01*
X83446Y62131D01*
X83492Y62241D01*
X83507Y62358D01*
X83492Y62476D01*
X83446Y62585D01*
X83374Y62679D01*
X83280Y62751D01*
X83171Y62797D01*
X83053Y62812D01*
D02*
G37*
G36*
X82053D02*
X81936Y62797D01*
X81826Y62751D01*
X81732Y62679D01*
X81660Y62585D01*
X81615Y62476D01*
X81599Y62358D01*
X81615Y62241D01*
X81660Y62131D01*
X81732Y62037D01*
X81826Y61965D01*
X81936Y61920D01*
X82053Y61904D01*
X82171Y61920D01*
X82280Y61965D01*
X82374Y62037D01*
X82446Y62131D01*
X82492Y62241D01*
X82507Y62358D01*
X82492Y62476D01*
X82446Y62585D01*
X82374Y62679D01*
X82280Y62751D01*
X82171Y62797D01*
X82053Y62812D01*
D02*
G37*
G36*
X81053D02*
X80936Y62797D01*
X80826Y62751D01*
X80732Y62679D01*
X80660Y62585D01*
X80615Y62476D01*
X80599Y62358D01*
X80615Y62241D01*
X80660Y62131D01*
X80732Y62037D01*
X80826Y61965D01*
X80936Y61920D01*
X81053Y61904D01*
X81171Y61920D01*
X81280Y61965D01*
X81374Y62037D01*
X81446Y62131D01*
X81492Y62241D01*
X81507Y62358D01*
X81492Y62476D01*
X81446Y62585D01*
X81374Y62679D01*
X81280Y62751D01*
X81171Y62797D01*
X81053Y62812D01*
D02*
G37*
G36*
X80053D02*
X79936Y62797D01*
X79826Y62751D01*
X79732Y62679D01*
X79660Y62585D01*
X79615Y62476D01*
X79599Y62358D01*
X79615Y62241D01*
X79660Y62131D01*
X79732Y62037D01*
X79826Y61965D01*
X79936Y61920D01*
X80053Y61904D01*
X80171Y61920D01*
X80280Y61965D01*
X80374Y62037D01*
X80446Y62131D01*
X80492Y62241D01*
X80507Y62358D01*
X80492Y62476D01*
X80446Y62585D01*
X80374Y62679D01*
X80280Y62751D01*
X80171Y62797D01*
X80053Y62812D01*
D02*
G37*
G36*
X78053D02*
X77936Y62797D01*
X77826Y62751D01*
X77732Y62679D01*
X77660Y62585D01*
X77615Y62476D01*
X77599Y62358D01*
X77615Y62241D01*
X77660Y62131D01*
X77732Y62037D01*
X77826Y61965D01*
X77936Y61920D01*
X78053Y61904D01*
X78171Y61920D01*
X78280Y61965D01*
X78374Y62037D01*
X78446Y62131D01*
X78492Y62241D01*
X78507Y62358D01*
X78492Y62476D01*
X78446Y62585D01*
X78374Y62679D01*
X78280Y62751D01*
X78171Y62797D01*
X78053Y62812D01*
D02*
G37*
G36*
X77053D02*
X76936Y62797D01*
X76826Y62751D01*
X76732Y62679D01*
X76660Y62585D01*
X76615Y62476D01*
X76599Y62358D01*
X76615Y62241D01*
X76660Y62131D01*
X76732Y62037D01*
X76826Y61965D01*
X76936Y61920D01*
X77053Y61904D01*
X77171Y61920D01*
X77280Y61965D01*
X77374Y62037D01*
X77446Y62131D01*
X77492Y62241D01*
X77507Y62358D01*
X77492Y62476D01*
X77446Y62585D01*
X77374Y62679D01*
X77280Y62751D01*
X77171Y62797D01*
X77053Y62812D01*
D02*
G37*
G36*
X76053D02*
X75936Y62797D01*
X75826Y62751D01*
X75732Y62679D01*
X75660Y62585D01*
X75615Y62476D01*
X75599Y62358D01*
X75615Y62241D01*
X75660Y62131D01*
X75732Y62037D01*
X75826Y61965D01*
X75936Y61920D01*
X76053Y61904D01*
X76171Y61920D01*
X76280Y61965D01*
X76374Y62037D01*
X76446Y62131D01*
X76492Y62241D01*
X76507Y62358D01*
X76492Y62476D01*
X76446Y62585D01*
X76374Y62679D01*
X76280Y62751D01*
X76171Y62797D01*
X76053Y62812D01*
D02*
G37*
G36*
X75053D02*
X74936Y62797D01*
X74826Y62751D01*
X74732Y62679D01*
X74660Y62585D01*
X74615Y62476D01*
X74599Y62358D01*
X74615Y62241D01*
X74660Y62131D01*
X74732Y62037D01*
X74826Y61965D01*
X74936Y61920D01*
X75053Y61904D01*
X75171Y61920D01*
X75280Y61965D01*
X75374Y62037D01*
X75446Y62131D01*
X75492Y62241D01*
X75507Y62358D01*
X75492Y62476D01*
X75446Y62585D01*
X75374Y62679D01*
X75280Y62751D01*
X75171Y62797D01*
X75053Y62812D01*
D02*
G37*
G36*
X74053D02*
X73936Y62797D01*
X73826Y62751D01*
X73732Y62679D01*
X73660Y62585D01*
X73615Y62476D01*
X73599Y62358D01*
X73615Y62241D01*
X73660Y62131D01*
X73732Y62037D01*
X73826Y61965D01*
X73936Y61920D01*
X74053Y61904D01*
X74171Y61920D01*
X74280Y61965D01*
X74374Y62037D01*
X74446Y62131D01*
X74492Y62241D01*
X74507Y62358D01*
X74492Y62476D01*
X74446Y62585D01*
X74374Y62679D01*
X74280Y62751D01*
X74171Y62797D01*
X74053Y62812D01*
D02*
G37*
G36*
X73053D02*
X72936Y62797D01*
X72826Y62751D01*
X72732Y62679D01*
X72660Y62585D01*
X72615Y62476D01*
X72599Y62358D01*
X72615Y62241D01*
X72660Y62131D01*
X72732Y62037D01*
X72826Y61965D01*
X72936Y61920D01*
X73053Y61904D01*
X73171Y61920D01*
X73280Y61965D01*
X73374Y62037D01*
X73446Y62131D01*
X73492Y62241D01*
X73507Y62358D01*
X73492Y62476D01*
X73446Y62585D01*
X73374Y62679D01*
X73280Y62751D01*
X73171Y62797D01*
X73053Y62812D01*
D02*
G37*
G36*
X72053D02*
X71936Y62797D01*
X71826Y62751D01*
X71732Y62679D01*
X71660Y62585D01*
X71615Y62476D01*
X71599Y62358D01*
X71615Y62241D01*
X71660Y62131D01*
X71732Y62037D01*
X71826Y61965D01*
X71936Y61920D01*
X72053Y61904D01*
X72171Y61920D01*
X72280Y61965D01*
X72374Y62037D01*
X72446Y62131D01*
X72492Y62241D01*
X72507Y62358D01*
X72492Y62476D01*
X72446Y62585D01*
X72374Y62679D01*
X72280Y62751D01*
X72171Y62797D01*
X72053Y62812D01*
D02*
G37*
G36*
X71053D02*
X70936Y62797D01*
X70826Y62751D01*
X70732Y62679D01*
X70660Y62585D01*
X70615Y62476D01*
X70599Y62358D01*
X70615Y62241D01*
X70660Y62131D01*
X70732Y62037D01*
X70826Y61965D01*
X70936Y61920D01*
X71053Y61904D01*
X71171Y61920D01*
X71280Y61965D01*
X71374Y62037D01*
X71446Y62131D01*
X71492Y62241D01*
X71507Y62358D01*
X71492Y62476D01*
X71446Y62585D01*
X71374Y62679D01*
X71280Y62751D01*
X71171Y62797D01*
X71053Y62812D01*
D02*
G37*
G36*
X70053D02*
X69936Y62797D01*
X69826Y62751D01*
X69732Y62679D01*
X69660Y62585D01*
X69615Y62476D01*
X69599Y62358D01*
X69615Y62241D01*
X69660Y62131D01*
X69732Y62037D01*
X69826Y61965D01*
X69936Y61920D01*
X70053Y61904D01*
X70171Y61920D01*
X70280Y61965D01*
X70374Y62037D01*
X70446Y62131D01*
X70492Y62241D01*
X70507Y62358D01*
X70492Y62476D01*
X70446Y62585D01*
X70374Y62679D01*
X70280Y62751D01*
X70171Y62797D01*
X70053Y62812D01*
D02*
G37*
G36*
X69053D02*
X68936Y62797D01*
X68826Y62751D01*
X68732Y62679D01*
X68660Y62585D01*
X68615Y62476D01*
X68599Y62358D01*
X68615Y62241D01*
X68660Y62131D01*
X68732Y62037D01*
X68826Y61965D01*
X68936Y61920D01*
X69053Y61904D01*
X69171Y61920D01*
X69280Y61965D01*
X69374Y62037D01*
X69446Y62131D01*
X69492Y62241D01*
X69507Y62358D01*
X69492Y62476D01*
X69446Y62585D01*
X69374Y62679D01*
X69280Y62751D01*
X69171Y62797D01*
X69053Y62812D01*
D02*
G37*
G36*
X68053D02*
X67936Y62797D01*
X67826Y62751D01*
X67732Y62679D01*
X67660Y62585D01*
X67615Y62476D01*
X67599Y62358D01*
X67615Y62241D01*
X67660Y62131D01*
X67732Y62037D01*
X67826Y61965D01*
X67936Y61920D01*
X68053Y61904D01*
X68171Y61920D01*
X68280Y61965D01*
X68374Y62037D01*
X68446Y62131D01*
X68492Y62241D01*
X68507Y62358D01*
X68492Y62476D01*
X68446Y62585D01*
X68374Y62679D01*
X68280Y62751D01*
X68171Y62797D01*
X68053Y62812D01*
D02*
G37*
G36*
X67053D02*
X66936Y62797D01*
X66826Y62751D01*
X66732Y62679D01*
X66660Y62585D01*
X66615Y62476D01*
X66599Y62358D01*
X66615Y62241D01*
X66660Y62131D01*
X66732Y62037D01*
X66826Y61965D01*
X66936Y61920D01*
X67053Y61904D01*
X67171Y61920D01*
X67280Y61965D01*
X67374Y62037D01*
X67446Y62131D01*
X67492Y62241D01*
X67507Y62358D01*
X67492Y62476D01*
X67446Y62585D01*
X67374Y62679D01*
X67280Y62751D01*
X67171Y62797D01*
X67053Y62812D01*
D02*
G37*
G36*
X65053D02*
X64936Y62797D01*
X64826Y62751D01*
X64732Y62679D01*
X64660Y62585D01*
X64615Y62476D01*
X64599Y62358D01*
X64615Y62241D01*
X64660Y62131D01*
X64732Y62037D01*
X64826Y61965D01*
X64936Y61920D01*
X65053Y61904D01*
X65171Y61920D01*
X65280Y61965D01*
X65374Y62037D01*
X65446Y62131D01*
X65492Y62241D01*
X65507Y62358D01*
X65492Y62476D01*
X65446Y62585D01*
X65374Y62679D01*
X65280Y62751D01*
X65171Y62797D01*
X65053Y62812D01*
D02*
G37*
G36*
X64053D02*
X63936Y62797D01*
X63826Y62751D01*
X63732Y62679D01*
X63660Y62585D01*
X63615Y62476D01*
X63599Y62358D01*
X63615Y62241D01*
X63660Y62131D01*
X63732Y62037D01*
X63826Y61965D01*
X63936Y61920D01*
X64053Y61904D01*
X64171Y61920D01*
X64280Y61965D01*
X64374Y62037D01*
X64446Y62131D01*
X64492Y62241D01*
X64507Y62358D01*
X64492Y62476D01*
X64446Y62585D01*
X64374Y62679D01*
X64280Y62751D01*
X64171Y62797D01*
X64053Y62812D01*
D02*
G37*
G36*
X63053D02*
X62936Y62797D01*
X62826Y62751D01*
X62732Y62679D01*
X62660Y62585D01*
X62615Y62476D01*
X62599Y62358D01*
X62615Y62241D01*
X62660Y62131D01*
X62732Y62037D01*
X62826Y61965D01*
X62936Y61920D01*
X63053Y61904D01*
X63171Y61920D01*
X63280Y61965D01*
X63374Y62037D01*
X63446Y62131D01*
X63492Y62241D01*
X63507Y62358D01*
X63492Y62476D01*
X63446Y62585D01*
X63374Y62679D01*
X63280Y62751D01*
X63171Y62797D01*
X63053Y62812D01*
D02*
G37*
G36*
X62053D02*
X61936Y62797D01*
X61826Y62751D01*
X61732Y62679D01*
X61660Y62585D01*
X61615Y62476D01*
X61599Y62358D01*
X61615Y62241D01*
X61660Y62131D01*
X61732Y62037D01*
X61826Y61965D01*
X61936Y61920D01*
X62053Y61904D01*
X62171Y61920D01*
X62280Y61965D01*
X62374Y62037D01*
X62446Y62131D01*
X62492Y62241D01*
X62507Y62358D01*
X62492Y62476D01*
X62446Y62585D01*
X62374Y62679D01*
X62280Y62751D01*
X62171Y62797D01*
X62053Y62812D01*
D02*
G37*
G36*
X83053Y61812D02*
X82936Y61797D01*
X82826Y61751D01*
X82732Y61679D01*
X82660Y61585D01*
X82615Y61476D01*
X82599Y61358D01*
X82615Y61241D01*
X82660Y61131D01*
X82732Y61037D01*
X82826Y60965D01*
X82936Y60920D01*
X83053Y60904D01*
X83171Y60920D01*
X83280Y60965D01*
X83374Y61037D01*
X83446Y61131D01*
X83492Y61241D01*
X83507Y61358D01*
X83492Y61476D01*
X83446Y61585D01*
X83374Y61679D01*
X83280Y61751D01*
X83171Y61797D01*
X83053Y61812D01*
D02*
G37*
G36*
X82053D02*
X81936Y61797D01*
X81826Y61751D01*
X81732Y61679D01*
X81660Y61585D01*
X81615Y61476D01*
X81599Y61358D01*
X81615Y61241D01*
X81660Y61131D01*
X81732Y61037D01*
X81826Y60965D01*
X81936Y60920D01*
X82053Y60904D01*
X82171Y60920D01*
X82280Y60965D01*
X82374Y61037D01*
X82446Y61131D01*
X82492Y61241D01*
X82507Y61358D01*
X82492Y61476D01*
X82446Y61585D01*
X82374Y61679D01*
X82280Y61751D01*
X82171Y61797D01*
X82053Y61812D01*
D02*
G37*
G36*
X81053D02*
X80936Y61797D01*
X80826Y61751D01*
X80732Y61679D01*
X80660Y61585D01*
X80615Y61476D01*
X80599Y61358D01*
X80615Y61241D01*
X80660Y61131D01*
X80732Y61037D01*
X80826Y60965D01*
X80936Y60920D01*
X81053Y60904D01*
X81171Y60920D01*
X81280Y60965D01*
X81374Y61037D01*
X81446Y61131D01*
X81492Y61241D01*
X81507Y61358D01*
X81492Y61476D01*
X81446Y61585D01*
X81374Y61679D01*
X81280Y61751D01*
X81171Y61797D01*
X81053Y61812D01*
D02*
G37*
G36*
X80053D02*
X79936Y61797D01*
X79826Y61751D01*
X79732Y61679D01*
X79660Y61585D01*
X79615Y61476D01*
X79599Y61358D01*
X79615Y61241D01*
X79660Y61131D01*
X79732Y61037D01*
X79826Y60965D01*
X79936Y60920D01*
X80053Y60904D01*
X80171Y60920D01*
X80280Y60965D01*
X80374Y61037D01*
X80446Y61131D01*
X80492Y61241D01*
X80507Y61358D01*
X80492Y61476D01*
X80446Y61585D01*
X80374Y61679D01*
X80280Y61751D01*
X80171Y61797D01*
X80053Y61812D01*
D02*
G37*
G36*
X79053D02*
X78936Y61797D01*
X78826Y61751D01*
X78732Y61679D01*
X78660Y61585D01*
X78615Y61476D01*
X78599Y61358D01*
X78615Y61241D01*
X78660Y61131D01*
X78732Y61037D01*
X78826Y60965D01*
X78936Y60920D01*
X79053Y60904D01*
X79171Y60920D01*
X79280Y60965D01*
X79374Y61037D01*
X79446Y61131D01*
X79492Y61241D01*
X79507Y61358D01*
X79492Y61476D01*
X79446Y61585D01*
X79374Y61679D01*
X79280Y61751D01*
X79171Y61797D01*
X79053Y61812D01*
D02*
G37*
G36*
X78053D02*
X77936Y61797D01*
X77826Y61751D01*
X77732Y61679D01*
X77660Y61585D01*
X77615Y61476D01*
X77599Y61358D01*
X77615Y61241D01*
X77660Y61131D01*
X77732Y61037D01*
X77826Y60965D01*
X77936Y60920D01*
X78053Y60904D01*
X78171Y60920D01*
X78280Y60965D01*
X78374Y61037D01*
X78446Y61131D01*
X78492Y61241D01*
X78507Y61358D01*
X78492Y61476D01*
X78446Y61585D01*
X78374Y61679D01*
X78280Y61751D01*
X78171Y61797D01*
X78053Y61812D01*
D02*
G37*
G36*
X76053D02*
X75936Y61797D01*
X75826Y61751D01*
X75732Y61679D01*
X75660Y61585D01*
X75615Y61476D01*
X75599Y61358D01*
X75615Y61241D01*
X75660Y61131D01*
X75732Y61037D01*
X75826Y60965D01*
X75936Y60920D01*
X76053Y60904D01*
X76171Y60920D01*
X76280Y60965D01*
X76374Y61037D01*
X76446Y61131D01*
X76492Y61241D01*
X76507Y61358D01*
X76492Y61476D01*
X76446Y61585D01*
X76374Y61679D01*
X76280Y61751D01*
X76171Y61797D01*
X76053Y61812D01*
D02*
G37*
G36*
X75053D02*
X74936Y61797D01*
X74826Y61751D01*
X74732Y61679D01*
X74660Y61585D01*
X74615Y61476D01*
X74599Y61358D01*
X74615Y61241D01*
X74660Y61131D01*
X74732Y61037D01*
X74826Y60965D01*
X74936Y60920D01*
X75053Y60904D01*
X75171Y60920D01*
X75280Y60965D01*
X75374Y61037D01*
X75446Y61131D01*
X75492Y61241D01*
X75507Y61358D01*
X75492Y61476D01*
X75446Y61585D01*
X75374Y61679D01*
X75280Y61751D01*
X75171Y61797D01*
X75053Y61812D01*
D02*
G37*
G36*
X74053D02*
X73936Y61797D01*
X73826Y61751D01*
X73732Y61679D01*
X73660Y61585D01*
X73615Y61476D01*
X73599Y61358D01*
X73615Y61241D01*
X73660Y61131D01*
X73732Y61037D01*
X73826Y60965D01*
X73936Y60920D01*
X74053Y60904D01*
X74171Y60920D01*
X74280Y60965D01*
X74374Y61037D01*
X74446Y61131D01*
X74492Y61241D01*
X74507Y61358D01*
X74492Y61476D01*
X74446Y61585D01*
X74374Y61679D01*
X74280Y61751D01*
X74171Y61797D01*
X74053Y61812D01*
D02*
G37*
G36*
X73053D02*
X72936Y61797D01*
X72826Y61751D01*
X72732Y61679D01*
X72660Y61585D01*
X72615Y61476D01*
X72599Y61358D01*
X72615Y61241D01*
X72660Y61131D01*
X72732Y61037D01*
X72826Y60965D01*
X72936Y60920D01*
X73053Y60904D01*
X73171Y60920D01*
X73280Y60965D01*
X73374Y61037D01*
X73446Y61131D01*
X73492Y61241D01*
X73507Y61358D01*
X73492Y61476D01*
X73446Y61585D01*
X73374Y61679D01*
X73280Y61751D01*
X73171Y61797D01*
X73053Y61812D01*
D02*
G37*
G36*
X72053D02*
X71936Y61797D01*
X71826Y61751D01*
X71732Y61679D01*
X71660Y61585D01*
X71615Y61476D01*
X71599Y61358D01*
X71615Y61241D01*
X71660Y61131D01*
X71732Y61037D01*
X71826Y60965D01*
X71936Y60920D01*
X72053Y60904D01*
X72171Y60920D01*
X72280Y60965D01*
X72374Y61037D01*
X72446Y61131D01*
X72492Y61241D01*
X72507Y61358D01*
X72492Y61476D01*
X72446Y61585D01*
X72374Y61679D01*
X72280Y61751D01*
X72171Y61797D01*
X72053Y61812D01*
D02*
G37*
G36*
X70053D02*
X69936Y61797D01*
X69826Y61751D01*
X69732Y61679D01*
X69660Y61585D01*
X69615Y61476D01*
X69599Y61358D01*
X69615Y61241D01*
X69660Y61131D01*
X69732Y61037D01*
X69826Y60965D01*
X69936Y60920D01*
X70053Y60904D01*
X70171Y60920D01*
X70280Y60965D01*
X70374Y61037D01*
X70446Y61131D01*
X70492Y61241D01*
X70507Y61358D01*
X70492Y61476D01*
X70446Y61585D01*
X70374Y61679D01*
X70280Y61751D01*
X70171Y61797D01*
X70053Y61812D01*
D02*
G37*
G36*
X69053D02*
X68936Y61797D01*
X68826Y61751D01*
X68732Y61679D01*
X68660Y61585D01*
X68615Y61476D01*
X68599Y61358D01*
X68615Y61241D01*
X68660Y61131D01*
X68732Y61037D01*
X68826Y60965D01*
X68936Y60920D01*
X69053Y60904D01*
X69171Y60920D01*
X69280Y60965D01*
X69374Y61037D01*
X69446Y61131D01*
X69492Y61241D01*
X69507Y61358D01*
X69492Y61476D01*
X69446Y61585D01*
X69374Y61679D01*
X69280Y61751D01*
X69171Y61797D01*
X69053Y61812D01*
D02*
G37*
G36*
X68053D02*
X67936Y61797D01*
X67826Y61751D01*
X67732Y61679D01*
X67660Y61585D01*
X67615Y61476D01*
X67599Y61358D01*
X67615Y61241D01*
X67660Y61131D01*
X67732Y61037D01*
X67826Y60965D01*
X67936Y60920D01*
X68053Y60904D01*
X68171Y60920D01*
X68280Y60965D01*
X68374Y61037D01*
X68446Y61131D01*
X68492Y61241D01*
X68507Y61358D01*
X68492Y61476D01*
X68446Y61585D01*
X68374Y61679D01*
X68280Y61751D01*
X68171Y61797D01*
X68053Y61812D01*
D02*
G37*
G36*
X64053D02*
X63936Y61797D01*
X63826Y61751D01*
X63732Y61679D01*
X63660Y61585D01*
X63615Y61476D01*
X63599Y61358D01*
X63615Y61241D01*
X63660Y61131D01*
X63732Y61037D01*
X63826Y60965D01*
X63936Y60920D01*
X64053Y60904D01*
X64171Y60920D01*
X64280Y60965D01*
X64374Y61037D01*
X64446Y61131D01*
X64492Y61241D01*
X64507Y61358D01*
X64492Y61476D01*
X64446Y61585D01*
X64374Y61679D01*
X64280Y61751D01*
X64171Y61797D01*
X64053Y61812D01*
D02*
G37*
G36*
X63053D02*
X62936Y61797D01*
X62826Y61751D01*
X62732Y61679D01*
X62660Y61585D01*
X62615Y61476D01*
X62599Y61358D01*
X62615Y61241D01*
X62660Y61131D01*
X62732Y61037D01*
X62826Y60965D01*
X62936Y60920D01*
X63053Y60904D01*
X63171Y60920D01*
X63280Y60965D01*
X63374Y61037D01*
X63446Y61131D01*
X63492Y61241D01*
X63507Y61358D01*
X63492Y61476D01*
X63446Y61585D01*
X63374Y61679D01*
X63280Y61751D01*
X63171Y61797D01*
X63053Y61812D01*
D02*
G37*
G36*
X84518Y66137D02*
X84425Y66124D01*
X84338Y66088D01*
X84264Y66031D01*
X84207Y65957D01*
X84171Y65870D01*
X84159Y65778D01*
X84171Y65685D01*
X84207Y65598D01*
X84264Y65524D01*
X84338Y65467D01*
X84425Y65431D01*
X84518Y65419D01*
X84611Y65431D01*
X84622Y65435D01*
X84975Y65082D01*
Y61207D01*
X84285Y60517D01*
X77546D01*
X77235Y60827D01*
Y60947D01*
X77280Y60965D01*
X77374Y61037D01*
X77446Y61131D01*
X77492Y61241D01*
X77507Y61358D01*
X77492Y61476D01*
X77446Y61585D01*
X77374Y61679D01*
X77280Y61751D01*
X77171Y61797D01*
X77053Y61812D01*
X76936Y61797D01*
X76826Y61751D01*
X76732Y61679D01*
X76660Y61585D01*
X76615Y61476D01*
X76599Y61358D01*
X76615Y61241D01*
X76660Y61131D01*
X76732Y61037D01*
X76826Y60965D01*
X76871Y60947D01*
Y60752D01*
X76871Y60752D01*
X76885Y60682D01*
X76924Y60623D01*
X77342Y60206D01*
X77342Y60206D01*
X77401Y60166D01*
X77470Y60152D01*
X84360D01*
X84360Y60152D01*
X84430Y60166D01*
X84489Y60206D01*
X85286Y61003D01*
X85286Y61003D01*
X85326Y61062D01*
X85340Y61132D01*
Y65157D01*
X85340Y65157D01*
X85326Y65227D01*
X85286Y65286D01*
X85286Y65286D01*
X84867Y65705D01*
X84877Y65778D01*
X84864Y65870D01*
X84829Y65957D01*
X84772Y66031D01*
X84697Y66088D01*
X84611Y66124D01*
X84518Y66137D01*
D02*
G37*
G36*
X65404Y58872D02*
X65326Y58862D01*
X65273Y58840D01*
X65087D01*
Y58306D01*
X65114D01*
Y58075D01*
X65112Y58073D01*
X65076Y57987D01*
X65064Y57894D01*
X65076Y57801D01*
X65112Y57714D01*
X65169Y57640D01*
X65244Y57583D01*
X65330Y57547D01*
X65423Y57535D01*
X65516Y57547D01*
X65603Y57583D01*
X65677Y57640D01*
X65734Y57714D01*
X65770Y57801D01*
X65782Y57894D01*
X65770Y57987D01*
X65734Y58073D01*
X65713Y58101D01*
Y58306D01*
X65720D01*
Y58840D01*
X65534D01*
X65481Y58862D01*
X65404Y58872D01*
D02*
G37*
G36*
X79616Y54770D02*
X79523Y54758D01*
X79437Y54722D01*
X79362Y54665D01*
X79305Y54591D01*
X79269Y54504D01*
X79257Y54411D01*
X79269Y54318D01*
X79305Y54232D01*
X79362Y54157D01*
X79434Y54102D01*
Y53356D01*
X79434Y53356D01*
X79448Y53287D01*
X79487Y53227D01*
X79578Y53137D01*
X79559Y53091D01*
X78189D01*
X78138Y53157D01*
X78063Y53214D01*
X77977Y53250D01*
X77884Y53263D01*
X77791Y53250D01*
X77704Y53214D01*
X77630Y53157D01*
X77573Y53083D01*
X77537Y52996D01*
X77525Y52904D01*
X77537Y52811D01*
X77573Y52724D01*
X77630Y52650D01*
X77704Y52593D01*
X77791Y52557D01*
X77884Y52545D01*
X77977Y52557D01*
X78063Y52593D01*
X78138Y52650D01*
X78195Y52724D01*
X78196Y52726D01*
X79754D01*
X79805Y52660D01*
X79880Y52603D01*
X79966Y52567D01*
X80059Y52554D01*
X80152Y52567D01*
X80239Y52603D01*
X80313Y52660D01*
X80370Y52734D01*
X80406Y52820D01*
X80418Y52913D01*
X80406Y53006D01*
X80370Y53093D01*
X80313Y53167D01*
X80239Y53224D01*
X80152Y53260D01*
X80059Y53272D01*
X79970Y53261D01*
X79798Y53432D01*
Y54102D01*
X79870Y54157D01*
X79927Y54232D01*
X79963Y54318D01*
X79975Y54411D01*
X79963Y54504D01*
X79927Y54591D01*
X79870Y54665D01*
X79796Y54722D01*
X79709Y54758D01*
X79616Y54770D01*
D02*
G37*
G36*
X74803Y54217D02*
X74710Y54205D01*
X74624Y54169D01*
X74549Y54112D01*
X74492Y54038D01*
X74456Y53951D01*
X74444Y53858D01*
X74456Y53765D01*
X74492Y53679D01*
X74549Y53604D01*
X74624Y53547D01*
X74710Y53512D01*
X74803Y53499D01*
X74893Y53511D01*
X74956Y53448D01*
Y52238D01*
X74884Y52183D01*
X74827Y52109D01*
X74791Y52022D01*
X74779Y51929D01*
X74791Y51836D01*
X74827Y51750D01*
X74884Y51675D01*
X74958Y51618D01*
X75045Y51582D01*
X75138Y51570D01*
X75231Y51582D01*
X75317Y51618D01*
X75392Y51675D01*
X75449Y51750D01*
X75485Y51836D01*
X75497Y51929D01*
X75485Y52022D01*
X75449Y52109D01*
X75392Y52183D01*
X75320Y52238D01*
Y53524D01*
X75306Y53593D01*
X75267Y53652D01*
X75267Y53652D01*
X75150Y53769D01*
X75162Y53858D01*
X75150Y53951D01*
X75114Y54038D01*
X75057Y54112D01*
X74983Y54169D01*
X74896Y54205D01*
X74803Y54217D01*
D02*
G37*
G36*
X85927Y45160D02*
X85655Y45047D01*
X85542Y44774D01*
X85655Y44502D01*
X85927Y44389D01*
X86200Y44502D01*
X86312Y44774D01*
X86200Y45047D01*
X85927Y45160D01*
D02*
G37*
G36*
X79975Y43722D02*
X79695Y43607D01*
X79579Y43327D01*
X79695Y43047D01*
X79975Y42931D01*
X80255Y43047D01*
X80370Y43327D01*
X80255Y43607D01*
X79975Y43722D01*
D02*
G37*
G36*
X77975D02*
X77695Y43607D01*
X77579Y43327D01*
X77695Y43047D01*
X77975Y42931D01*
X78255Y43047D01*
X78370Y43327D01*
X78255Y43607D01*
X77975Y43722D01*
D02*
G37*
G36*
X78975D02*
X78695Y43607D01*
X78579Y43327D01*
X78674Y43098D01*
Y42899D01*
X78510D01*
Y42061D01*
X79521D01*
Y42899D01*
X79317D01*
Y43197D01*
X79370Y43327D01*
X79255Y43607D01*
X78975Y43722D01*
D02*
G37*
G36*
X79118Y39358D02*
X78485D01*
Y38725D01*
X79118D01*
Y39358D01*
D02*
G37*
G36*
X82679Y36959D02*
X82309Y36805D01*
X82155Y36435D01*
X82309Y36065D01*
X82679Y35911D01*
X83049Y36065D01*
X83203Y36435D01*
X83049Y36805D01*
X82679Y36959D01*
D02*
G37*
G36*
X74679D02*
X74309Y36805D01*
X74155Y36435D01*
X74309Y36065D01*
X74679Y35911D01*
X75049Y36065D01*
X75203Y36435D01*
X75049Y36805D01*
X74679Y36959D01*
D02*
G37*
G36*
X80892Y19437D02*
X80718D01*
X80679Y19421D01*
X80443D01*
X80404Y19437D01*
X76467D01*
X76315Y19374D01*
X75835Y18894D01*
X75679Y18959D01*
X75309Y18805D01*
X75155Y18435D01*
X75309Y18065D01*
X75679Y17911D01*
X76049Y18065D01*
X76114Y18220D01*
X77532D01*
X77571Y18237D01*
X78006D01*
Y18242D01*
X79236D01*
X79309Y18065D01*
X79429Y18015D01*
Y17907D01*
X79524Y17680D01*
X82700Y14503D01*
Y10271D01*
X81850Y9421D01*
X81696Y9357D01*
X81583Y9085D01*
X81696Y8812D01*
X81968Y8699D01*
X82241Y8812D01*
X82305Y8967D01*
X83249Y9911D01*
X83343Y10138D01*
Y14584D01*
X83364Y14636D01*
X83264Y14878D01*
X83212Y14899D01*
X80072Y18040D01*
Y18119D01*
X80203Y18435D01*
X80049Y18805D01*
X79802Y18908D01*
X79822Y19008D01*
X80404D01*
X80443Y19024D01*
X80679D01*
X80718Y19008D01*
X80803D01*
X81220Y18591D01*
X81155Y18435D01*
X81309Y18065D01*
X81679Y17911D01*
X81728Y17932D01*
X83685Y15975D01*
Y14636D01*
X83689Y14624D01*
Y14319D01*
X83994D01*
X84006Y14315D01*
X84017Y14319D01*
X84322D01*
Y14624D01*
X84327Y14636D01*
Y16108D01*
X84233Y16335D01*
X82183Y18386D01*
X82203Y18435D01*
X82049Y18805D01*
X81679Y18959D01*
X81524Y18894D01*
X81044Y19374D01*
X80892Y19437D01*
D02*
G37*
G36*
X77549Y12501D02*
X77277Y12389D01*
X77164Y12116D01*
X77277Y11844D01*
X77549Y11731D01*
X77822Y11844D01*
X77934Y12116D01*
X77822Y12389D01*
X77549Y12501D01*
D02*
G37*
G36*
X74549D02*
X74277Y12389D01*
X74164Y12116D01*
X74277Y11844D01*
X74549Y11731D01*
X74822Y11844D01*
X74934Y12116D01*
X74822Y12389D01*
X74549Y12501D01*
D02*
G37*
G36*
X84969Y12470D02*
X84696Y12357D01*
X84583Y12085D01*
X84696Y11812D01*
X84969Y11699D01*
X85241Y11812D01*
X85354Y12085D01*
X85241Y12357D01*
X84969Y12470D01*
D02*
G37*
G36*
X81968D02*
X81696Y12357D01*
X81583Y12085D01*
X81696Y11812D01*
X81968Y11699D01*
X82241Y11812D01*
X82354Y12085D01*
X82241Y12357D01*
X81968Y12470D01*
D02*
G37*
G36*
X77549Y9501D02*
X77277Y9389D01*
X77164Y9116D01*
X77277Y8844D01*
X77549Y8731D01*
X77822Y8844D01*
X77934Y9116D01*
X77822Y9389D01*
X77549Y9501D01*
D02*
G37*
G36*
X74549D02*
X74277Y9389D01*
X74164Y9116D01*
X74277Y8844D01*
X74549Y8731D01*
X74822Y8844D01*
X74934Y9116D01*
X74822Y9389D01*
X74549Y9501D01*
D02*
G37*
G36*
X84969Y9470D02*
X84696Y9357D01*
X84583Y9085D01*
X84696Y8812D01*
X84969Y8699D01*
X85241Y8812D01*
X85354Y9085D01*
X85241Y9357D01*
X84969Y9470D01*
D02*
G37*
%LPD*%
G36*
X79556Y18908D02*
X79309Y18805D01*
X79236Y18629D01*
X78006D01*
Y18633D01*
X77571D01*
X77532Y18650D01*
X76328D01*
X76290Y18742D01*
X76555Y19008D01*
X79536D01*
X79556Y18908D01*
D02*
G37*
%LPC*%
G36*
X3819Y66864D02*
X3218Y66615D01*
X2969Y66014D01*
X3218Y65413D01*
X3819Y65164D01*
X4420Y65413D01*
X4669Y66014D01*
X4420Y66615D01*
X3819Y66864D01*
D02*
G37*
G36*
Y59402D02*
X3218Y59153D01*
X2969Y58552D01*
X3218Y57951D01*
X3819Y57702D01*
X4420Y57951D01*
X4669Y58552D01*
X4420Y59153D01*
X3819Y59402D01*
D02*
G37*
G36*
Y51940D02*
X3218Y51691D01*
X2969Y51090D01*
X3218Y50489D01*
X3819Y50240D01*
X4420Y50489D01*
X4669Y51090D01*
X4420Y51691D01*
X3819Y51940D01*
D02*
G37*
G36*
Y44478D02*
X3218Y44229D01*
X2969Y43628D01*
X3218Y43027D01*
X3819Y42778D01*
X4420Y43027D01*
X4669Y43628D01*
X4420Y44229D01*
X3819Y44478D01*
D02*
G37*
G36*
X57892Y11050D02*
X56235Y10364D01*
X55548Y8706D01*
X56235Y7049D01*
X57892Y6363D01*
X59549Y7049D01*
X60236Y8706D01*
X59549Y10364D01*
X57892Y11050D01*
D02*
G37*
G36*
X39398D02*
X37741Y10364D01*
X37054Y8706D01*
X37741Y7049D01*
X39398Y6363D01*
X41055Y7049D01*
X41742Y8706D01*
X41055Y10364D01*
X39398Y11050D01*
D02*
G37*
%LPD*%
D12*
X32938Y93445D02*
X33251Y93132D01*
X38758D02*
X38780Y93110D01*
X27431Y93445D02*
X32938D01*
X33251Y93132D02*
X38758D01*
X62306Y54550D02*
X63829Y56073D01*
X69173D02*
X70965Y57864D01*
X63829Y56073D02*
X69173D01*
X62306Y51789D02*
Y54550D01*
X67053Y60604D02*
X67500Y60157D01*
X70059D01*
X70965Y59252D01*
Y57864D02*
Y59252D01*
X67053Y60604D02*
Y61358D01*
X61358Y52972D02*
X61496D01*
X61329Y52943D02*
X61358Y52972D01*
X61329Y52805D02*
Y52943D01*
X61102Y52579D02*
X61329Y52805D01*
X61102Y51789D02*
Y52579D01*
X44350Y53287D02*
X44355Y53283D01*
X44976D01*
X44980Y53278D01*
X44803Y50913D02*
Y53121D01*
X44961Y53278D01*
X44980D01*
X45472Y50913D02*
Y53239D01*
X45433Y53278D02*
X45472Y53239D01*
X45413Y53278D02*
X45433D01*
X61102Y51789D02*
X62306D01*
X62628Y50913D02*
Y51467D01*
X62306Y51789D02*
X62628Y51467D01*
X44134Y50913D02*
Y51496D01*
X42362Y52192D02*
X43438D01*
X44134Y51496D01*
X80892Y19222D02*
X81679Y18435D01*
X80718Y19222D02*
X80892D01*
X4567Y15551D02*
X5551D01*
X76467Y19222D02*
X80404D01*
X75679Y18435D02*
X76467Y19222D01*
X75679Y18435D02*
X77532D01*
D15*
X86093Y70305D02*
Y73802D01*
X84806Y75089D02*
X86093Y73802D01*
X84806Y76089D02*
X84928D01*
X85118Y75936D02*
X86663Y74390D01*
X84928Y76089D02*
X85081Y75936D01*
X85118D01*
X86663Y70020D02*
Y74390D01*
X85128Y69311D02*
X85955D01*
X86663Y70020D01*
X84518Y65797D02*
X85157Y65157D01*
X83701Y65640D02*
Y66654D01*
X81457Y63396D02*
X83701Y65640D01*
X80091Y63396D02*
X81457D01*
X79053Y62358D02*
X80091Y63396D01*
X85157Y61132D02*
Y65157D01*
X84360Y60335D02*
X85157Y61132D01*
X84390Y58071D02*
X85640Y59321D01*
X72053Y79453D02*
X85640Y65866D01*
Y59321D02*
Y65866D01*
X86033Y59104D02*
Y65837D01*
X73053Y78817D02*
X86033Y65837D01*
X84743Y57813D02*
X86033Y59104D01*
X86417Y58278D02*
Y65984D01*
X85466Y57326D02*
X86417Y58278D01*
X74053Y78348D02*
X86417Y65984D01*
X82795Y53661D02*
X86762Y57628D01*
X75053Y77900D02*
X86762Y66191D01*
Y57628D02*
Y66191D01*
X77053Y60752D02*
X77470Y60335D01*
X84360D01*
X77053Y60752D02*
Y61358D01*
X18687Y93411D02*
X19291Y94016D01*
X49449D01*
X52795Y90669D01*
X65797Y56467D02*
X66535Y57205D01*
X55748Y58425D02*
X57707Y56467D01*
X65797D01*
X21535Y68268D02*
X21654Y68150D01*
X17362Y71024D02*
X20118Y68268D01*
X21535D01*
X7283Y71850D02*
X16899D01*
X19852Y68898D02*
X23778D01*
X16899Y71850D02*
X19852Y68898D01*
X8039Y71024D02*
X17362D01*
X8029Y71034D02*
X8039Y71024D01*
X7271Y72677D02*
Y72707D01*
X7047Y72931D02*
X7271Y72707D01*
X7047Y72931D02*
Y73307D01*
X7165Y71732D02*
X7283Y71850D01*
X7126Y71024D02*
X7146D01*
X7165Y71043D01*
Y71732D01*
X69568Y65256D02*
Y65264D01*
X69608Y65304D01*
X70018D01*
X70463Y65748D01*
X75053Y77900D02*
Y81358D01*
X74053Y78348D02*
Y81358D01*
X81093Y53661D02*
X82795D01*
X73053Y78817D02*
Y81358D01*
X72053Y79453D02*
Y81358D01*
X70138Y67677D02*
X70157Y67697D01*
X70672D01*
X70692Y67717D01*
X67155Y69754D02*
X67756D01*
X68140Y69370D01*
X40039Y93425D02*
X49134D01*
X38543Y92539D02*
X39154D01*
X40039Y93425D01*
X28386Y91811D02*
X29293Y92718D01*
X38364D01*
X38543Y92539D01*
X49134Y93425D02*
X50354Y92205D01*
X52795Y88780D02*
X52795Y88780D01*
Y90669D01*
X52628Y86654D02*
X52677Y86703D01*
Y87205D01*
X63543Y65039D02*
X64104D01*
X64360Y64783D01*
X19764Y69370D02*
X22953D01*
X50354Y90433D02*
Y92205D01*
X26811Y91811D02*
X28386D01*
X26687Y91935D02*
Y92648D01*
Y91935D02*
X26811Y91811D01*
X18687Y92648D02*
Y93411D01*
X55218Y67031D02*
X55748Y66501D01*
Y58425D02*
Y66501D01*
X55218Y67031D02*
Y85569D01*
X50354Y90433D02*
X55218Y85569D01*
X66535Y57205D02*
Y58396D01*
Y58670D01*
X66289Y58916D02*
X66535Y58670D01*
X66289Y58916D02*
Y58926D01*
X77666Y57813D02*
X84743D01*
X81122Y57326D02*
X85466D01*
X61535Y53671D02*
Y54355D01*
X61319Y53661D02*
X61496D01*
X61526D01*
X61535Y53671D01*
X23778Y68898D02*
X23780Y68899D01*
X7586Y72362D02*
X16772D01*
X19764Y69370D01*
X7271Y72677D02*
X7586Y72362D01*
X78957Y79626D02*
X83300D01*
X83546Y79872D01*
X83642D01*
X83907Y84144D02*
X85945Y82106D01*
X84409Y84616D02*
X86074Y82952D01*
X77874Y84616D02*
X84409D01*
X82175Y80157D02*
X82185Y80148D01*
X79557Y80157D02*
X82175D01*
X79547Y80167D02*
X79557Y80157D01*
X77215Y84144D02*
X83907D01*
X76457Y84902D02*
X77215Y84144D01*
X77195Y85295D02*
X77874Y84616D01*
X65915Y63996D02*
Y64158D01*
Y63504D02*
Y63996D01*
X65837Y64075D02*
X65915Y63996D01*
Y64158D02*
X65930Y64173D01*
X66053Y62358D02*
X66131Y62436D01*
Y62944D01*
X66336Y63150D01*
Y63492D01*
X66348Y63504D01*
X58701Y60600D02*
Y62520D01*
X62501Y66320D02*
Y67402D01*
X58701Y62520D02*
X62501Y66320D01*
X62274Y67894D02*
X62284D01*
X60600Y53848D02*
X61132D01*
X61319Y53661D01*
X40236Y51798D02*
Y53110D01*
X39970Y53376D02*
X40236Y53110D01*
X39970Y53376D02*
Y53472D01*
X25830Y53356D02*
X25840Y53346D01*
X26447D01*
X26457Y53337D01*
X26309Y50913D02*
Y53209D01*
X26437Y53337D01*
X26978Y50913D02*
Y53268D01*
X26909Y53337D02*
X26978Y53268D01*
X26890Y53337D02*
X26909D01*
X25376Y53335D02*
X25397Y53356D01*
X63907Y59419D02*
Y60213D01*
X65053Y61358D01*
X67480Y59488D02*
Y59508D01*
X66157Y60831D02*
X67480Y59508D01*
X66157Y60831D02*
Y61254D01*
X66053Y61358D02*
X66157Y61254D01*
X75138Y51929D02*
Y53524D01*
X74803Y53858D02*
X75138Y53524D01*
X61604Y86575D02*
X61639Y86609D01*
X67308D01*
X67343Y86644D01*
X65059Y84902D02*
X76457D01*
X63976Y85984D02*
X65059Y84902D01*
X55607Y86457D02*
X55666Y86516D01*
X61545D01*
X61604Y86575D01*
X64360Y64449D02*
Y64783D01*
X66476Y66633D02*
X67126Y65983D01*
X67296D02*
X67363Y65915D01*
X58701Y60600D02*
X60994Y58307D01*
X62884D01*
X66929Y64587D02*
X68092D01*
X68348Y64843D01*
X66029Y62383D02*
X66053Y62358D01*
X65925Y64654D02*
X65953Y64626D01*
X66457D01*
X66496Y64587D01*
X65930Y64173D02*
Y64651D01*
X65925Y64655D02*
X65930Y64651D01*
X63332Y58292D02*
X63888D01*
X63317Y58307D02*
X63332Y58292D01*
X63888D02*
X63890Y58295D01*
Y58969D02*
X63907Y58986D01*
X63890Y58295D02*
Y58969D01*
X67480Y58401D02*
Y59035D01*
X66983Y58381D02*
X67461D01*
X67480Y58401D01*
X66969Y58396D02*
X66983Y58381D01*
X67579Y58937D02*
X68228D01*
X63907Y58986D02*
X64498D01*
X65226Y64075D02*
X65837D01*
X64498Y58986D02*
X64537Y58947D01*
X67480Y59035D02*
Y59055D01*
Y59035D02*
X67579Y58937D01*
X64311Y63701D02*
X64360D01*
X66348Y63504D02*
X66368D01*
X65404Y59321D02*
X65404Y59321D01*
X69094Y59311D02*
X69144D01*
X63583Y68465D02*
X64124Y69006D01*
X63141Y68465D02*
X63583D01*
X60946Y68386D02*
X61221D01*
X60737Y68595D02*
X60946Y68386D01*
X61251Y67577D02*
Y68002D01*
X62274Y67629D02*
Y67894D01*
X63141Y67609D02*
Y67894D01*
X61221Y68031D02*
X61251Y68002D01*
X61221Y68386D02*
X61733D01*
X61733Y68386D01*
X61251Y67577D02*
X61290Y67538D01*
X62481Y67402D02*
X62501D01*
X62442Y67442D02*
X62481Y67402D01*
X62442Y67442D02*
Y67461D01*
X62274Y67629D02*
X62442Y67461D01*
X62993D02*
X63141Y67609D01*
X62993Y67442D02*
Y67461D01*
X64808Y67396D02*
X65320D01*
X64803Y67391D02*
X64808Y67396D01*
X65320D02*
X65325Y67400D01*
X69222Y85994D02*
X69921Y85295D01*
X77195D01*
X75864Y84547D02*
X78053Y82358D01*
X59242Y84547D02*
X75864D01*
X57894Y85896D02*
X59242Y84547D01*
X77106Y58071D02*
X84390D01*
X75098Y56063D02*
X77106Y58071D01*
X77116Y57264D02*
X77666Y57813D01*
X77116Y54058D02*
Y57264D01*
X79616Y53356D02*
X80059Y52913D01*
X79616Y53356D02*
Y54411D01*
X77884Y52904D02*
X77889Y52908D01*
X80054D01*
X80059Y52913D01*
X72185Y42077D02*
X72240Y42132D01*
X73091D01*
X80327Y36898D02*
X80846Y36378D01*
X79142Y36898D02*
X80327D01*
X78679Y36435D02*
X79142Y36898D01*
X80846Y34823D02*
Y36378D01*
X77847Y18435D02*
X79679D01*
D16*
X62521Y69174D02*
X63179Y69833D01*
X62521Y68986D02*
Y69174D01*
X63179Y69833D02*
X63180D01*
X63469Y69544D01*
X64111D01*
X62274Y68209D02*
Y68405D01*
X61753D02*
X62274D01*
X51488Y87205D02*
X51497Y87215D01*
X69568Y66594D02*
X70060D01*
X69175D02*
X69568D01*
X70060D02*
X70133Y66668D01*
Y67239D01*
Y66639D02*
Y66668D01*
X70128Y66634D02*
X70133Y66639D01*
Y67239D02*
X70138Y67244D01*
X68151Y66102D02*
Y66358D01*
X68800Y64843D02*
Y65160D01*
X68792Y65169D02*
X68800Y65160D01*
X68792Y65169D02*
Y65343D01*
X68761Y65374D02*
X68792Y65343D01*
X68367Y65335D02*
X68407Y65374D01*
X68367Y64843D02*
Y65335D01*
X68761Y65480D02*
X69017Y65736D01*
X68700Y66237D02*
X68831Y66106D01*
X69014D01*
X68151Y66358D02*
X68407Y66614D01*
X68151Y65736D02*
X68407Y65480D01*
X68700Y66237D02*
Y66549D01*
X68987Y66407D02*
X69175Y66594D01*
X68761Y66610D02*
Y66811D01*
X68700Y66549D02*
X68761Y66610D01*
X68151Y65736D02*
Y65846D01*
X69017Y66102D02*
X69429D01*
X69223Y65846D02*
X69381Y65689D01*
X69017Y65846D02*
X69223D01*
X69014Y66106D02*
X69017Y66102D01*
Y65736D02*
Y65846D01*
X69429Y66102D02*
X69547Y66220D01*
X69381Y65689D02*
X69568D01*
X61733Y68386D02*
X61753Y68405D01*
X65601Y67046D02*
X65729Y67175D01*
X64803Y66977D02*
X64872Y67046D01*
X64803Y66958D02*
Y66977D01*
X67198Y67200D02*
X67234Y67164D01*
X66716Y67200D02*
X67198D01*
X65401Y66970D02*
X65738Y66633D01*
X65352Y67046D02*
X65601D01*
X64098Y69547D02*
X64114D01*
X64090Y69556D02*
X64098Y69547D01*
X64111Y69544D02*
X64114Y69547D01*
Y69291D02*
Y69547D01*
X66713Y66869D02*
Y67204D01*
X64090Y69556D02*
Y70100D01*
X64065Y70125D02*
X64090Y70100D01*
X64872Y67046D02*
X65325D01*
X65401Y66970D02*
Y66998D01*
X65352Y67046D02*
X65401Y66998D01*
X65325Y67046D02*
X65352D01*
X65729Y67175D02*
Y67195D01*
X65738Y67204D01*
X65846D01*
X65738Y66633D02*
X66024D01*
X66713Y67204D02*
X66716Y67200D01*
X66713Y67204D02*
Y67460D01*
X66476Y66633D02*
X66713Y66869D01*
X66457Y66633D02*
X66476D01*
D26*
X60600Y53848D02*
D03*
Y53415D02*
D03*
X70138Y67244D02*
D03*
Y67677D02*
D03*
X69568Y65689D02*
D03*
Y65256D02*
D03*
X70128Y66201D02*
D03*
Y66634D02*
D03*
X63907Y58986D02*
D03*
Y59419D02*
D03*
X67480Y59055D02*
D03*
Y59488D02*
D03*
X63731Y67480D02*
D03*
Y67913D02*
D03*
X64803Y67391D02*
D03*
Y66958D02*
D03*
X65561Y69331D02*
D03*
Y69764D02*
D03*
D36*
X74252Y39705D02*
D03*
Y40807D02*
D03*
X79016Y41378D02*
D03*
Y42480D02*
D03*
D42*
X35177Y92244D02*
D03*
X34744D02*
D03*
X66535Y58396D02*
D03*
X66969D02*
D03*
X25397Y53356D02*
D03*
X25830D02*
D03*
X26457Y53337D02*
D03*
X26890D02*
D03*
X43917Y53287D02*
D03*
X44350D02*
D03*
X45413Y53278D02*
D03*
X44980D02*
D03*
X68800Y64843D02*
D03*
X68367D02*
D03*
X66496Y64587D02*
D03*
X66929D02*
D03*
X62884Y58307D02*
D03*
X63317D02*
D03*
X65915Y63504D02*
D03*
X66348D02*
D03*
X62934Y67402D02*
D03*
X62501D02*
D03*
X64754Y67980D02*
D03*
X64321D02*
D03*
X67155Y69754D02*
D03*
X66722D02*
D03*
X66083Y68701D02*
D03*
X65650D02*
D03*
X66024Y66633D02*
D03*
X66457D02*
D03*
D43*
X64065Y70125D02*
D03*
X63711D02*
D03*
D50*
X69568Y66594D02*
D03*
Y66240D02*
D03*
X65925Y64655D02*
D03*
Y65010D02*
D03*
X63873Y58278D02*
D03*
Y57923D02*
D03*
X67559Y58012D02*
D03*
Y58366D02*
D03*
D56*
X72185Y42077D02*
D03*
Y41297D02*
D03*
D136*
X70313Y51286D02*
Y53295D01*
X69574Y54613D02*
X69596D01*
X68863Y55325D02*
X69574Y54613D01*
X70600Y47943D02*
X72165Y46378D01*
X70313Y51286D02*
X70600Y50999D01*
Y47943D02*
Y50999D01*
X64045Y57244D02*
X64065Y57224D01*
X63770Y55197D02*
X63802D01*
X63930Y55325D01*
X68863D01*
X64892Y54528D02*
X64924D01*
X65002Y54449D01*
X69144Y56870D02*
Y57886D01*
X69114Y57916D02*
X69144Y57886D01*
X69685Y55817D02*
X72825Y52677D01*
X69622Y55880D02*
X69685Y55817D01*
X69724D01*
X40912Y46233D02*
X40935Y46256D01*
X40184Y46233D02*
X40912D01*
X39934Y45983D02*
X40184Y46233D01*
X39918Y45983D02*
X39934D01*
X39841Y48280D02*
X39918Y48202D01*
Y45983D02*
Y48202D01*
X65002Y54449D02*
X66939D01*
X59655Y57244D02*
X64045D01*
X58258Y58642D02*
X59655Y57244D01*
X54843Y57717D02*
X57008Y55551D01*
X61329D01*
X35578Y69741D02*
X35844D01*
X34151Y68315D02*
X35578Y69741D01*
X33868Y68315D02*
X34151D01*
X33846Y68292D02*
X33868Y68315D01*
X35844Y69741D02*
X35866Y69764D01*
X25512Y68071D02*
X25531Y68091D01*
X23720Y68071D02*
X25512D01*
X23228Y67579D02*
X23720Y68071D01*
X20276Y67579D02*
X23228D01*
X8760Y70502D02*
X17352D01*
X20276Y67579D01*
X7913Y70236D02*
X7936Y70259D01*
X8517D01*
X8760Y70502D01*
X60690Y65463D02*
Y68595D01*
X59360Y64134D02*
X60690Y65463D01*
X52677Y87205D02*
X54843Y85039D01*
X63199Y65039D02*
X63543D01*
X61006Y62846D02*
X63199Y65039D01*
X61006Y61927D02*
Y62846D01*
Y62358D02*
Y62846D01*
X61053Y61358D02*
Y62358D01*
Y61927D02*
Y62358D01*
X74478Y43740D02*
Y44617D01*
X74803Y44942D01*
Y45787D01*
X72165Y46378D02*
X74213D01*
X74803Y45787D01*
X54843Y57717D02*
Y85039D01*
X51488Y87205D02*
X52677D01*
X72825Y52677D02*
X73629D01*
X74190Y53238D02*
X74222D01*
X73629Y52677D02*
X74190Y53238D01*
X77629Y51743D02*
X77697Y51811D01*
X77252Y51743D02*
X77629D01*
X77133Y51624D02*
X77252Y51743D01*
X77037Y51624D02*
X77133D01*
X77960Y51644D02*
X82096D01*
X77793Y51811D02*
X77960Y51644D01*
X77697Y51811D02*
X77793D01*
X74222Y53238D02*
X74282Y53179D01*
Y51585D02*
X74665Y51201D01*
X74282Y51585D02*
Y53179D01*
X74665Y51201D02*
X76614D01*
X77037Y51624D01*
X61053Y62358D02*
X61074Y62380D01*
X69094Y58563D02*
X69114Y58543D01*
Y57916D02*
Y58543D01*
X65404Y58573D02*
X65413Y58563D01*
Y57904D02*
Y58563D01*
Y57904D02*
X65423Y57894D01*
X78931Y41378D02*
X79016D01*
X78809Y41256D02*
X78931Y41378D01*
X78809Y40427D02*
Y41256D01*
X78802Y40419D02*
X78809Y40427D01*
X78995Y42501D02*
X79016Y42480D01*
X78995Y42501D02*
Y43306D01*
X78975Y43327D02*
X78995Y43306D01*
X73091Y39132D02*
X73679D01*
X74165Y39705D02*
X74252D01*
X74043Y39583D02*
X74165Y39705D01*
X74043Y39496D02*
Y39583D01*
X73679Y39132D02*
X74043Y39496D01*
X73841Y41132D02*
X74165Y40807D01*
X74252D01*
X73054Y41132D02*
X73841D01*
X72185Y41297D02*
X72272Y41211D01*
X72975D01*
X73054Y41132D01*
X79751Y17907D02*
X83022Y14636D01*
X79751Y17907D02*
Y18363D01*
X79679Y18435D02*
X79751Y18363D01*
X84006Y14636D02*
Y16108D01*
X81679Y18435D02*
X84006Y16108D01*
X81968Y9085D02*
X83022Y10138D01*
Y14636D01*
X3150Y24094D02*
X3701Y24646D01*
D137*
X66703Y69754D02*
X66722D01*
X66378Y70079D02*
X66703Y69754D01*
X65561Y69764D02*
Y69783D01*
X65856Y70079D01*
X66378D01*
X67324Y65840D02*
X67843Y66358D01*
X35217Y92283D02*
X37756D01*
X37756Y92283D01*
X35177Y92244D02*
X35217Y92283D01*
X34267Y91209D02*
Y91787D01*
X34724Y92244D01*
X34744D01*
X60600Y53396D02*
Y53415D01*
X60256Y53051D02*
X60600Y53396D01*
X60256Y51427D02*
Y53051D01*
Y51427D02*
X60770Y50913D01*
X61289D01*
X67843Y66358D02*
X68151D01*
X68348Y64843D02*
X68367D01*
X68407Y66614D02*
Y66811D01*
X64124Y68783D02*
X64360Y68546D01*
X64124Y68783D02*
Y69035D01*
X64360Y68491D02*
Y68546D01*
X63456Y68209D02*
X63731Y67933D01*
X63141Y68209D02*
X63456D01*
X63031Y67480D02*
X63731D01*
X61221Y68031D02*
X61733D01*
X61733Y68031D01*
X63141Y67953D02*
X63141D01*
Y67894D02*
Y67953D01*
X62954Y67402D02*
X62993Y67442D01*
X63031Y67480D01*
X62934Y67402D02*
X62954D01*
X63731Y67913D02*
Y67933D01*
X64912Y68701D02*
X65650D01*
X65143Y69764D02*
X65561D01*
X64715Y68546D02*
X64884Y68716D01*
X64734Y68000D02*
X64754Y67980D01*
X65571Y69754D02*
X66105D01*
X65561Y69764D02*
X65571Y69754D01*
X65561Y69331D02*
X66028D01*
X65522Y69291D02*
X65561Y69331D01*
X66220Y68011D02*
X66604D01*
X65411Y67460D02*
X65846D01*
X67175Y66869D02*
X67234Y66810D01*
X65074Y69547D02*
Y69695D01*
X64980Y69547D02*
X65074D01*
X64897Y68716D02*
X64912Y68701D01*
X64884Y68716D02*
X64897D01*
X64980Y68799D01*
X66083Y68701D02*
X66102D01*
X66161Y68642D01*
Y68622D02*
Y68642D01*
X65846Y67715D02*
Y67942D01*
X65916Y68011D01*
X66722Y67715D02*
Y67893D01*
X66604Y68011D02*
X66722Y67893D01*
X64734Y68000D02*
Y68499D01*
X64715Y68519D02*
X64734Y68499D01*
X64321Y67980D02*
Y68452D01*
X64360Y68491D01*
X64715Y68519D02*
Y68546D01*
X65074Y69695D02*
X65143Y69764D01*
X64980Y69291D02*
X65522D01*
X64980Y68799D02*
Y69035D01*
X65352Y67400D02*
X65411Y67460D01*
X65325Y67400D02*
X65352D01*
X66105Y69754D02*
X66114Y69744D01*
X66028Y69331D02*
X66087Y69390D01*
X66114D01*
X65916Y68011D02*
X66220D01*
X66161Y68622D02*
X66220Y68563D01*
Y68011D02*
Y68563D01*
X66713Y67715D02*
X66722D01*
X78802Y40419D02*
X78880D01*
D138*
X48701Y83386D02*
Y84331D01*
X44055Y88976D02*
X48701Y84331D01*
X42874Y88976D02*
X44055D01*
X13150Y9173D02*
X16339D01*
X5551Y15551D02*
X7953Y13150D01*
X10236D01*
X2362Y18268D02*
X2426Y18332D01*
X10197Y9252D02*
X10236Y9213D01*
X4567Y16083D02*
Y16614D01*
Y15551D02*
Y16083D01*
X4626Y16024D01*
D139*
X55669Y73615D02*
Y82323D01*
Y73615D02*
X60690Y68595D01*
X60737D01*
X36267Y90709D02*
Y91209D01*
X36767Y90709D02*
Y91209D01*
X35767Y90709D02*
Y91209D01*
X35267Y90709D02*
Y91209D01*
X34267Y90709D02*
Y91209D01*
X33425Y89567D02*
X33754Y89896D01*
Y90695D02*
X33767Y90709D01*
X33754Y89896D02*
Y90695D01*
X33767Y90825D02*
Y91209D01*
D141*
X29073Y10009D02*
X30376Y8706D01*
X25942Y13140D02*
X29073Y10009D01*
X48870Y10176D02*
Y17036D01*
X47953Y17953D02*
X48917Y18917D01*
Y20669D01*
X47343Y22244D02*
X48917Y20669D01*
X47343Y22244D02*
Y25925D01*
X47795Y26378D01*
X7146Y18799D02*
X12303D01*
X6890Y18543D02*
X7146Y18799D01*
X12303D02*
X17963Y13140D01*
X47953Y17953D02*
X48870Y17036D01*
Y8706D02*
Y10176D01*
X47795Y26378D02*
Y34803D01*
X17963Y13140D02*
X25942D01*
X4567Y18543D02*
X6890D01*
X10236Y9213D02*
X14331Y9213D01*
X2426Y18332D02*
X3174D01*
X3386Y18543D01*
X6845Y10389D02*
X7982Y9252D01*
X6845Y10389D02*
Y11649D01*
X4567Y13622D02*
X4872D01*
X6845Y11649D01*
X7982Y9252D02*
X10197D01*
X2362Y14520D02*
X3260Y13622D01*
X4567D01*
X3386Y18543D02*
X4567D01*
D142*
X36767Y91209D02*
D03*
X36267D02*
D03*
X35767D02*
D03*
X35267D02*
D03*
X34767D02*
D03*
X34267D02*
D03*
X33767D02*
D03*
X33267D02*
D03*
X36767Y90709D02*
D03*
X36267D02*
D03*
X35767D02*
D03*
X35267D02*
D03*
X34767D02*
D03*
X34267D02*
D03*
X33767D02*
D03*
X33267D02*
D03*
X78802Y40419D02*
D03*
X83022Y14636D02*
D03*
D143*
X58335Y48280D02*
D03*
X66921D02*
D03*
X39841D02*
D03*
X48427D02*
D03*
X21346D02*
D03*
X29933D02*
D03*
D144*
X57892Y8706D02*
D03*
X67364D02*
D03*
X39398D02*
D03*
X48870D02*
D03*
X20904D02*
D03*
X30376D02*
D03*
D145*
X68484Y40679D02*
D03*
Y23504D02*
D03*
X56772Y40679D02*
D03*
Y23504D02*
D03*
X49990Y40679D02*
D03*
Y23504D02*
D03*
X38278Y40679D02*
D03*
Y23504D02*
D03*
X31496Y40679D02*
D03*
Y23504D02*
D03*
X19783Y40679D02*
D03*
Y23504D02*
D03*
D146*
X61289Y50913D02*
D03*
X63297D02*
D03*
X61959D02*
D03*
X62628D02*
D03*
X63967D02*
D03*
X42795D02*
D03*
X44803D02*
D03*
X43465D02*
D03*
X44134D02*
D03*
X45472D02*
D03*
X24301D02*
D03*
X26309D02*
D03*
X24970D02*
D03*
X25640D02*
D03*
X26978D02*
D03*
D147*
X18204Y85877D02*
D03*
X38524Y75207D02*
D03*
D148*
X48701Y83386D02*
D03*
D149*
X50669D02*
D03*
D150*
X84806Y75089D02*
D03*
X83806D02*
D03*
X84806Y78089D02*
D03*
X83806D02*
D03*
X84806Y77089D02*
D03*
X83806D02*
D03*
X84806Y76089D02*
D03*
X83806D02*
D03*
Y74089D02*
D03*
X84806D02*
D03*
X83806Y71089D02*
D03*
X84806D02*
D03*
X83806Y72089D02*
D03*
X84806D02*
D03*
X83806Y73089D02*
D03*
X84806D02*
D03*
X85305Y52244D02*
D03*
X86305D02*
D03*
X73169Y48110D02*
D03*
Y47110D02*
D03*
D151*
X66089Y78325D02*
D03*
Y70852D02*
D03*
D152*
X72053Y81358D02*
D03*
X60053Y62358D02*
D03*
X61053Y61358D02*
D03*
Y62358D02*
D03*
X62053Y61358D02*
D03*
Y62358D02*
D03*
X63053Y61358D02*
D03*
Y62358D02*
D03*
X64053Y61358D02*
D03*
Y62358D02*
D03*
X65053Y61358D02*
D03*
Y62358D02*
D03*
X66053Y61358D02*
D03*
Y62358D02*
D03*
X67053Y61358D02*
D03*
Y62358D02*
D03*
X68053Y61358D02*
D03*
Y62358D02*
D03*
X69053Y61358D02*
D03*
Y62358D02*
D03*
X70053Y61358D02*
D03*
Y62358D02*
D03*
X71053Y61358D02*
D03*
Y62358D02*
D03*
X72053Y61358D02*
D03*
Y62358D02*
D03*
X73053Y61358D02*
D03*
Y62358D02*
D03*
X74053Y61358D02*
D03*
Y62358D02*
D03*
X75053Y61358D02*
D03*
Y62358D02*
D03*
X76053Y61358D02*
D03*
Y62358D02*
D03*
X77053Y61358D02*
D03*
Y62358D02*
D03*
X78053Y61358D02*
D03*
Y62358D02*
D03*
X79053Y61358D02*
D03*
Y62358D02*
D03*
X80053Y61358D02*
D03*
Y62358D02*
D03*
X81053Y61358D02*
D03*
Y62358D02*
D03*
X82053Y61358D02*
D03*
Y62358D02*
D03*
X83053Y61358D02*
D03*
Y62358D02*
D03*
X84053Y61358D02*
D03*
Y62358D02*
D03*
Y82358D02*
D03*
Y81358D02*
D03*
X83053Y82358D02*
D03*
Y81358D02*
D03*
X82053Y82358D02*
D03*
Y81358D02*
D03*
X81053Y82358D02*
D03*
Y81358D02*
D03*
X80053Y82358D02*
D03*
Y81358D02*
D03*
X79053Y82358D02*
D03*
Y81358D02*
D03*
X78053Y82358D02*
D03*
Y81358D02*
D03*
X77053Y82358D02*
D03*
Y81358D02*
D03*
X76053Y82358D02*
D03*
Y81358D02*
D03*
X75053Y82358D02*
D03*
Y81358D02*
D03*
X74053Y82358D02*
D03*
Y81358D02*
D03*
X73053Y82358D02*
D03*
Y81358D02*
D03*
X72053Y82358D02*
D03*
X71053D02*
D03*
Y81358D02*
D03*
X70053Y82358D02*
D03*
Y81358D02*
D03*
X69053Y82358D02*
D03*
Y81358D02*
D03*
X68053Y82358D02*
D03*
Y81358D02*
D03*
X67053Y82358D02*
D03*
Y81358D02*
D03*
X66053Y82358D02*
D03*
Y81358D02*
D03*
X65053Y82358D02*
D03*
Y81358D02*
D03*
X64053Y82358D02*
D03*
Y81358D02*
D03*
X63053Y82358D02*
D03*
Y81358D02*
D03*
X62053Y82358D02*
D03*
Y81358D02*
D03*
X61053Y82358D02*
D03*
Y81358D02*
D03*
X60053Y82358D02*
D03*
D153*
X79975Y43327D02*
D03*
X78975D02*
D03*
X77975D02*
D03*
X76975D02*
D03*
X73091Y42132D02*
D03*
Y41132D02*
D03*
Y40132D02*
D03*
Y39132D02*
D03*
D154*
X81679Y18435D02*
D03*
X79679D02*
D03*
X75679D02*
D03*
X82679Y36435D02*
D03*
X78679D02*
D03*
X74679D02*
D03*
X2362Y18268D02*
D03*
Y14520D02*
D03*
D155*
X78802Y39041D02*
D03*
D156*
X82927Y44774D02*
D03*
D157*
X85927D02*
D03*
Y47774D02*
D03*
X84927D02*
D03*
X83927D02*
D03*
X84969Y9085D02*
D03*
Y12085D02*
D03*
X81968D02*
D03*
Y9085D02*
D03*
X74549Y12116D02*
D03*
Y9116D02*
D03*
X77549D02*
D03*
Y12116D02*
D03*
X86093Y70305D02*
D03*
X85128Y69311D02*
D03*
X83681Y66663D02*
D03*
X84518Y65778D02*
D03*
X22027Y52966D02*
D03*
X20748Y53750D02*
D03*
X19144Y51811D02*
D03*
X19468Y55069D02*
D03*
X18937Y61132D02*
D03*
X22726Y58661D02*
D03*
X20171Y66047D02*
D03*
X21407Y66004D02*
D03*
X21900Y63780D02*
D03*
X22028Y62667D02*
D03*
X20167Y58376D02*
D03*
X21161Y52392D02*
D03*
X19390Y53465D02*
D03*
X21486Y54577D02*
D03*
X21739Y56473D02*
D03*
X19923Y56680D02*
D03*
X19098Y56968D02*
D03*
X21285Y58825D02*
D03*
X19882Y59857D02*
D03*
X22067Y60886D02*
D03*
X20256Y62254D02*
D03*
X19016Y63406D02*
D03*
X20413Y64478D02*
D03*
X22234Y64764D02*
D03*
X16142Y86614D02*
D03*
X18366Y88179D02*
D03*
X1231Y88105D02*
D03*
X1713Y85403D02*
D03*
X6525Y86365D02*
D03*
X6083Y87992D02*
D03*
X5079Y88888D02*
D03*
X2825Y91398D02*
D03*
X1496Y90679D02*
D03*
X2823Y93213D02*
D03*
X1528Y92325D02*
D03*
X4154Y93287D02*
D03*
X5817Y92884D02*
D03*
X3860Y91362D02*
D03*
X6080Y90622D02*
D03*
X7006Y92140D02*
D03*
Y93028D02*
D03*
X9264Y93176D02*
D03*
X10596Y91695D02*
D03*
X11781Y87476D02*
D03*
X7746Y88549D02*
D03*
X8375Y87254D02*
D03*
X8709Y86069D02*
D03*
X10596Y85995D02*
D03*
X12595Y85810D02*
D03*
X14113Y86365D02*
D03*
X13483Y87957D02*
D03*
X12410Y89326D02*
D03*
X11744Y91177D02*
D03*
X11263Y92621D02*
D03*
X12595Y93176D02*
D03*
X14520Y93065D02*
D03*
X16004Y91988D02*
D03*
X26447Y89720D02*
D03*
X28278Y89754D02*
D03*
X31061Y89079D02*
D03*
X39429Y86909D02*
D03*
X42234Y84823D02*
D03*
X40319Y85076D02*
D03*
X38578Y85748D02*
D03*
X38120Y87490D02*
D03*
X36191Y85049D02*
D03*
X36654Y86240D02*
D03*
X34754Y87854D02*
D03*
X32254Y87638D02*
D03*
X33533Y86545D02*
D03*
X34605Y85443D02*
D03*
X33327Y85020D02*
D03*
X30965Y85866D02*
D03*
X30541Y87156D02*
D03*
X28652Y87766D02*
D03*
X26875Y88162D02*
D03*
X27303Y86516D02*
D03*
X28740Y85748D02*
D03*
X29439Y84675D02*
D03*
X27028Y84892D02*
D03*
X25807Y86053D02*
D03*
X25404Y87520D02*
D03*
X25039Y89016D02*
D03*
X24459Y90453D02*
D03*
X23056Y88651D02*
D03*
X23425Y86722D02*
D03*
X23484Y85285D02*
D03*
X20797Y85532D02*
D03*
X21437Y87185D02*
D03*
X19665Y88317D02*
D03*
X21102Y89508D02*
D03*
X18720Y90089D02*
D03*
X19902Y71201D02*
D03*
X15472Y73720D02*
D03*
X6024Y82756D02*
D03*
X5256Y80138D02*
D03*
X1358Y78652D02*
D03*
X1645Y71477D02*
D03*
X2963Y71880D02*
D03*
X1683Y72805D02*
D03*
X2904Y74409D02*
D03*
X1496Y75049D02*
D03*
X3957Y76673D02*
D03*
X2047Y77510D02*
D03*
X63179Y69833D02*
D03*
X63356Y68986D02*
D03*
X69196Y53537D02*
D03*
X69596Y54613D02*
D03*
X70335Y53295D02*
D03*
X27431Y93445D02*
D03*
X64114Y57215D02*
D03*
X64892Y54528D02*
D03*
X69724Y55817D02*
D03*
X73809Y58346D02*
D03*
X69144Y56870D02*
D03*
X57392Y57835D02*
D03*
X58169Y57589D02*
D03*
X66939Y54449D02*
D03*
X61329Y55551D02*
D03*
X58258Y58642D02*
D03*
X67963Y52448D02*
D03*
X72313Y49675D02*
D03*
X64636Y49035D02*
D03*
X64675Y47589D02*
D03*
X64951Y46906D02*
D03*
X65463Y46423D02*
D03*
X66191Y46039D02*
D03*
X67087Y45961D02*
D03*
X67884Y46010D02*
D03*
X68465Y46423D02*
D03*
X68937Y46925D02*
D03*
X69232Y47585D02*
D03*
X69301Y48293D02*
D03*
X69282Y48943D02*
D03*
X68937Y49543D02*
D03*
X68514Y50075D02*
D03*
X67933Y50429D02*
D03*
X66978Y50656D02*
D03*
X66181Y50498D02*
D03*
X65512Y50193D02*
D03*
X65000Y49799D02*
D03*
X64646Y48337D02*
D03*
X68976Y50528D02*
D03*
X69449Y50006D02*
D03*
X69596Y47024D02*
D03*
X69252Y46305D02*
D03*
X64468Y46541D02*
D03*
X64961Y45990D02*
D03*
X46063Y49016D02*
D03*
X46102Y47569D02*
D03*
X46378Y46886D02*
D03*
X46890Y46404D02*
D03*
X47618Y46020D02*
D03*
X48514Y45941D02*
D03*
X49311Y45990D02*
D03*
X49892Y46404D02*
D03*
X50364Y46906D02*
D03*
X50659Y47565D02*
D03*
X50728Y48274D02*
D03*
X50709Y48923D02*
D03*
X50364Y49524D02*
D03*
X49941Y50055D02*
D03*
X49360Y50409D02*
D03*
X48406Y50636D02*
D03*
X47608Y50478D02*
D03*
X46939Y50173D02*
D03*
X46427Y49780D02*
D03*
X46073Y48317D02*
D03*
X50404Y50508D02*
D03*
X50876Y49986D02*
D03*
X51024Y47004D02*
D03*
X50679Y46285D02*
D03*
X45896Y46522D02*
D03*
X46388Y45970D02*
D03*
X27904Y45961D02*
D03*
X27411Y46512D02*
D03*
X32195Y46276D02*
D03*
X32539Y46994D02*
D03*
X32392Y49976D02*
D03*
X31919Y50498D02*
D03*
X27589Y48307D02*
D03*
X27943Y49770D02*
D03*
X28455Y50163D02*
D03*
X29124Y50469D02*
D03*
X29921Y50626D02*
D03*
X30876Y50400D02*
D03*
X31457Y50045D02*
D03*
X31880Y49514D02*
D03*
X32224Y48913D02*
D03*
X32244Y48264D02*
D03*
X32175Y47555D02*
D03*
X31880Y46896D02*
D03*
X31407Y46394D02*
D03*
X30827Y45980D02*
D03*
X30030Y45931D02*
D03*
X29134Y46010D02*
D03*
X28406Y46394D02*
D03*
X27894Y46876D02*
D03*
X27618Y47559D02*
D03*
X27579Y49006D02*
D03*
X18986Y48539D02*
D03*
X18996Y47752D02*
D03*
X18976Y49366D02*
D03*
X19567Y49996D02*
D03*
X20276Y50429D02*
D03*
X21299Y50636D02*
D03*
X22392Y50400D02*
D03*
X23051Y49927D02*
D03*
X23533Y49366D02*
D03*
X23671Y48520D02*
D03*
X23691Y47762D02*
D03*
X23376Y47102D02*
D03*
X22943Y46610D02*
D03*
X22441Y46236D02*
D03*
X21447Y45941D02*
D03*
X20443Y46148D02*
D03*
X19872Y46394D02*
D03*
X19301Y46748D02*
D03*
X19646Y50675D02*
D03*
X18996Y50291D02*
D03*
X18976Y46138D02*
D03*
X19587Y45911D02*
D03*
X23652Y46502D02*
D03*
X23130Y45970D02*
D03*
X55984Y48549D02*
D03*
X55994Y47762D02*
D03*
X55974Y49376D02*
D03*
X56565Y50006D02*
D03*
X57274Y50439D02*
D03*
X58297Y50646D02*
D03*
X59390Y50409D02*
D03*
X60049Y49937D02*
D03*
X60532Y49376D02*
D03*
X60669Y48530D02*
D03*
X60689Y47772D02*
D03*
X60374Y47112D02*
D03*
X59941Y46620D02*
D03*
X59439Y46246D02*
D03*
X58445Y45951D02*
D03*
X57441Y46157D02*
D03*
X56870Y46404D02*
D03*
X56299Y46758D02*
D03*
X56644Y50685D02*
D03*
X55994Y50301D02*
D03*
X55974Y46148D02*
D03*
X56585Y45921D02*
D03*
X60650Y46512D02*
D03*
X60128Y45980D02*
D03*
X41624Y45990D02*
D03*
X42146Y46522D02*
D03*
X38081Y45931D02*
D03*
X37470Y46157D02*
D03*
X37490Y50311D02*
D03*
X38140Y50695D02*
D03*
X37795Y46768D02*
D03*
X38366Y46413D02*
D03*
X38937Y46167D02*
D03*
X39941Y45961D02*
D03*
X40935Y46256D02*
D03*
X41437Y46630D02*
D03*
X41870Y47122D02*
D03*
X42185Y47782D02*
D03*
X42165Y48539D02*
D03*
X42028Y49386D02*
D03*
X41545Y49947D02*
D03*
X40886Y50419D02*
D03*
X39793Y50656D02*
D03*
X38770Y50449D02*
D03*
X38061Y50016D02*
D03*
X37470Y49386D02*
D03*
X37490Y47772D02*
D03*
X37480Y48559D02*
D03*
X61949Y33081D02*
D03*
X49604Y71727D02*
D03*
X48167Y71776D02*
D03*
X50972Y63873D02*
D03*
X48991Y63578D02*
D03*
X49819Y64273D02*
D03*
X49367Y65310D02*
D03*
X48245Y64749D02*
D03*
X47921Y63528D02*
D03*
X45568Y63715D02*
D03*
X46586Y64273D02*
D03*
X47045Y65123D02*
D03*
X45785Y65743D02*
D03*
X47387Y66410D02*
D03*
X48403Y66461D02*
D03*
X49741D02*
D03*
X50863Y65103D02*
D03*
X51070Y66491D02*
D03*
X51159Y71589D02*
D03*
X52117Y64112D02*
D03*
X52143Y65260D02*
D03*
Y66461D02*
D03*
X52117Y69884D02*
D03*
X51101Y69937D02*
D03*
X49899Y69857D02*
D03*
X48806Y69808D02*
D03*
X47359Y69906D02*
D03*
X46188Y69995D02*
D03*
X46316Y71136D02*
D03*
X47438Y71087D02*
D03*
X48885Y71117D02*
D03*
X50381Y71087D02*
D03*
X52064D02*
D03*
X52084Y78509D02*
D03*
X51011Y78459D02*
D03*
X52054Y79965D02*
D03*
X50982Y79946D02*
D03*
X33846Y68292D02*
D03*
X25531Y68091D02*
D03*
X8029Y71034D02*
D03*
X58819Y53504D02*
D03*
X59685D02*
D03*
X7913Y70236D02*
D03*
X6772Y73819D02*
D03*
X37756Y68622D02*
D03*
X40610Y71594D02*
D03*
X35866Y69764D02*
D03*
X55669Y82323D02*
D03*
X85205Y85548D02*
D03*
X81742Y85797D02*
D03*
X74734D02*
D03*
X83906Y87451D02*
D03*
X80523Y87330D02*
D03*
X74774Y87411D02*
D03*
X69183Y87608D02*
D03*
X66063Y85433D02*
D03*
X64695Y87766D02*
D03*
X58474Y87884D02*
D03*
X59459Y86033D02*
D03*
X68140Y69370D02*
D03*
X82274Y58819D02*
D03*
X60137Y65738D02*
D03*
X59360Y64134D02*
D03*
X38780Y93110D02*
D03*
X49173Y88770D02*
D03*
X52795Y88780D02*
D03*
X51488Y87205D02*
D03*
X51132Y86181D02*
D03*
X52628Y86654D02*
D03*
X51801Y86220D02*
D03*
X51526Y90197D02*
D03*
X50984Y90669D02*
D03*
X63543Y65039D02*
D03*
X70463Y65748D02*
D03*
X70692Y67717D02*
D03*
X23150Y69409D02*
D03*
X21654Y68150D02*
D03*
X47894Y92626D02*
D03*
X37756Y92283D02*
D03*
X66289Y58926D02*
D03*
X81368Y41457D02*
D03*
X83415Y42087D02*
D03*
X86422Y34868D02*
D03*
X85069Y36063D02*
D03*
X80502Y23543D02*
D03*
X83730Y26142D02*
D03*
X72282Y26709D02*
D03*
X72037Y19606D02*
D03*
X84006Y30748D02*
D03*
X71762Y32913D02*
D03*
X79242Y32047D02*
D03*
X82982Y21457D02*
D03*
X75856Y22874D02*
D03*
X80069Y27087D02*
D03*
X75935Y29252D02*
D03*
X75030Y58150D02*
D03*
X72392Y59606D02*
D03*
X79951Y59724D02*
D03*
X81486Y59646D02*
D03*
X82825D02*
D03*
X84045Y59606D02*
D03*
X80817Y58858D02*
D03*
X79321Y58898D02*
D03*
X81093Y53661D02*
D03*
X71457Y52717D02*
D03*
X63770Y55197D02*
D03*
X61535Y54355D02*
D03*
X74478Y43740D02*
D03*
X73573Y45157D02*
D03*
X38622Y71850D02*
D03*
X23780Y68899D02*
D03*
X7205Y72677D02*
D03*
Y71850D02*
D03*
X16102Y30728D02*
D03*
X17126D02*
D03*
X18150D02*
D03*
X15138D02*
D03*
X10787D02*
D03*
X11811D02*
D03*
X12835D02*
D03*
X9823D02*
D03*
X5236Y30689D02*
D03*
X6260D02*
D03*
X7283D02*
D03*
X4272D02*
D03*
X14370Y27874D02*
D03*
Y26831D02*
D03*
X13287Y27835D02*
D03*
Y26811D02*
D03*
Y25787D02*
D03*
X14370Y25807D02*
D03*
Y28819D02*
D03*
X13287Y28799D02*
D03*
X15472Y28819D02*
D03*
Y25807D02*
D03*
Y26831D02*
D03*
Y27874D02*
D03*
X16575Y28819D02*
D03*
Y25807D02*
D03*
Y26831D02*
D03*
Y27874D02*
D03*
X9921Y27913D02*
D03*
Y26870D02*
D03*
Y25846D02*
D03*
Y28858D02*
D03*
X8819Y27913D02*
D03*
Y26870D02*
D03*
Y25846D02*
D03*
Y28858D02*
D03*
X6634Y28839D02*
D03*
X7717Y28858D02*
D03*
Y25846D02*
D03*
X6634Y25827D02*
D03*
Y26850D02*
D03*
Y27874D02*
D03*
X7717Y26870D02*
D03*
Y27913D02*
D03*
X83642Y79872D02*
D03*
X85915Y82096D02*
D03*
X86142Y82923D02*
D03*
X82185Y80148D02*
D03*
X78957Y79626D02*
D03*
X79547Y80167D02*
D03*
X65289Y53252D02*
D03*
X80285Y50354D02*
D03*
X77116Y46181D02*
D03*
X72155Y51309D02*
D03*
X78366Y47589D02*
D03*
X76929Y48337D02*
D03*
X75630Y50148D02*
D03*
X24749Y53567D02*
D03*
X43132Y53508D02*
D03*
X40236Y51798D02*
D03*
X39970Y53472D02*
D03*
X61102Y51789D02*
D03*
X42362Y52192D02*
D03*
X76801Y40108D02*
D03*
X77697Y51811D02*
D03*
X82096Y51644D02*
D03*
X77037Y51624D02*
D03*
X74222Y53238D02*
D03*
X75138Y51929D02*
D03*
X63976Y85984D02*
D03*
X67343Y86644D02*
D03*
X61604Y86575D02*
D03*
X55607Y86457D02*
D03*
X69738Y79849D02*
D03*
X60725Y79179D02*
D03*
X56542Y80774D02*
D03*
X56819Y76660D02*
D03*
X58110Y69380D02*
D03*
X81407Y65541D02*
D03*
X76260Y64803D02*
D03*
X74429Y67480D02*
D03*
X77874Y68799D02*
D03*
X78917Y65069D02*
D03*
X79331Y67116D02*
D03*
X75955Y70886D02*
D03*
X74242Y71457D02*
D03*
X72146Y75000D02*
D03*
X70571Y76821D02*
D03*
X71310Y73563D02*
D03*
X62067Y74094D02*
D03*
X60286Y76660D02*
D03*
X58091Y73307D02*
D03*
X62894Y63110D02*
D03*
X69154Y57844D02*
D03*
X65423Y57894D02*
D03*
X67363Y65915D02*
D03*
X60690Y68595D02*
D03*
X57894Y85896D02*
D03*
X69222Y85994D02*
D03*
X81122Y57326D02*
D03*
X79616Y54411D02*
D03*
X77116Y54058D02*
D03*
X74803Y53858D02*
D03*
X75098Y56063D02*
D03*
X80059Y52913D02*
D03*
X77884Y52904D02*
D03*
X11496Y79449D02*
D03*
X4616Y78612D02*
D03*
X6713Y79892D02*
D03*
X7539Y82677D02*
D03*
X19006Y72520D02*
D03*
X10709Y74183D02*
D03*
X14793Y76004D02*
D03*
X13957Y74331D02*
D03*
X16713Y74094D02*
D03*
X10659Y77953D02*
D03*
X9144Y76407D02*
D03*
X6132Y77451D02*
D03*
X9055Y80984D02*
D03*
X8435Y78524D02*
D03*
X13150Y77717D02*
D03*
X12116Y76093D02*
D03*
X65630Y9744D02*
D03*
Y8957D02*
D03*
Y8169D02*
D03*
Y7411D02*
D03*
X69173Y9843D02*
D03*
Y9055D02*
D03*
Y8268D02*
D03*
Y7480D02*
D03*
X68590Y10176D02*
D03*
X67803D02*
D03*
X67015D02*
D03*
X66228D02*
D03*
X66274Y7246D02*
D03*
X67061D02*
D03*
X67849D02*
D03*
X68636D02*
D03*
X47134Y9744D02*
D03*
Y8957D02*
D03*
Y8169D02*
D03*
Y7411D02*
D03*
X50678Y9843D02*
D03*
Y9055D02*
D03*
Y8268D02*
D03*
Y7480D02*
D03*
X50094Y10176D02*
D03*
X49307D02*
D03*
X48519D02*
D03*
X47732D02*
D03*
X47778Y7246D02*
D03*
X48566D02*
D03*
X49353D02*
D03*
X50140D02*
D03*
X31648D02*
D03*
X30860D02*
D03*
X30073D02*
D03*
X29286D02*
D03*
X29240Y10176D02*
D03*
X30027D02*
D03*
X30814D02*
D03*
X31602D02*
D03*
X32185Y7480D02*
D03*
Y8268D02*
D03*
Y9055D02*
D03*
Y9843D02*
D03*
X28642Y7411D02*
D03*
Y8169D02*
D03*
Y8957D02*
D03*
Y9744D02*
D03*
X47894Y91447D02*
D03*
X47992Y89855D02*
D03*
Y88510D02*
D03*
Y86722D02*
D03*
D158*
X60053Y61358D02*
D03*
Y81358D02*
D03*
D159*
X84006Y14636D02*
D03*
D160*
X3189Y81929D02*
D03*
Y87008D02*
D03*
X3543Y36024D02*
D03*
X3150Y24094D02*
D03*
D161*
X15354Y5906D02*
D03*
X77068Y88583D02*
D03*
X71556D02*
D03*
X8564Y3937D02*
D03*
X14076D02*
D03*
X9863Y5906D02*
D03*
X73524Y3937D02*
D03*
X79036D02*
D03*
X77068Y5906D02*
D03*
X71556D02*
D03*
X8564Y90551D02*
D03*
X14076D02*
D03*
X10532Y88583D02*
D03*
X16044D02*
D03*
X73524Y90551D02*
D03*
X79036D02*
D03*
D162*
X42874Y89976D02*
D03*
Y88976D02*
D03*
D163*
Y87976D02*
D03*
D164*
X45000Y19528D02*
D03*
X47953Y17953D02*
D03*
X44843Y36378D02*
D03*
X47795Y34803D02*
D03*
Y26378D02*
D03*
X44843Y27953D02*
D03*
D165*
X16339Y10177D02*
D03*
D166*
Y9173D02*
D03*
D167*
Y8169D02*
D03*
X10236Y13150D02*
D03*
X12303Y18799D02*
D03*
D168*
X3819Y68163D02*
D03*
Y45778D02*
D03*
Y53240D02*
D03*
Y60701D02*
D03*
D169*
Y66014D02*
D03*
Y63864D02*
D03*
Y43628D02*
D03*
Y41478D02*
D03*
Y51090D02*
D03*
Y48940D02*
D03*
Y58552D02*
D03*
Y56402D02*
D03*
D170*
X10236Y9213D02*
D03*
D171*
X9519Y21583D02*
D03*
D172*
X27687Y92648D02*
D03*
X26687D02*
D03*
X25687D02*
D03*
X24687D02*
D03*
X23687D02*
D03*
X22687D02*
D03*
X21687D02*
D03*
X20687D02*
D03*
X19687D02*
D03*
D173*
X18687D02*
D03*
D174*
X80846Y34823D02*
D03*
D175*
X6693Y73307D02*
D03*
X7047D02*
D03*
D176*
X7126Y71024D02*
D03*
Y70669D02*
D03*
X66114Y69744D02*
D03*
Y69390D02*
D03*
X61733Y68386D02*
D03*
Y68031D02*
D03*
X65325Y67046D02*
D03*
Y67400D02*
D03*
D177*
X61496Y52972D02*
D03*
Y53661D02*
D03*
D178*
X68151Y65846D02*
D03*
Y66102D02*
D03*
Y66358D02*
D03*
X69017Y65846D02*
D03*
Y66102D02*
D03*
X62274Y67953D02*
D03*
Y68209D02*
D03*
Y68465D02*
D03*
X63141Y67953D02*
D03*
Y68209D02*
D03*
X64114Y69035D02*
D03*
Y69291D02*
D03*
Y69547D02*
D03*
X64980Y69035D02*
D03*
Y69291D02*
D03*
X66713Y67715D02*
D03*
Y67460D02*
D03*
Y67204D02*
D03*
X65846Y67715D02*
D03*
Y67460D02*
D03*
D179*
X69017Y66358D02*
D03*
X63141Y68465D02*
D03*
X64980Y69547D02*
D03*
X65846Y67204D02*
D03*
D180*
X68407Y66811D02*
D03*
X68761D02*
D03*
Y65374D02*
D03*
X68407D02*
D03*
X62521Y68986D02*
D03*
X62875D02*
D03*
X64715Y68519D02*
D03*
X64360D02*
D03*
D181*
X65226Y64075D02*
D03*
X64360Y64449D02*
D03*
Y63701D02*
D03*
X68228Y58937D02*
D03*
X69094Y58563D02*
D03*
Y59311D02*
D03*
X64537Y58947D02*
D03*
X65404Y58573D02*
D03*
Y59321D02*
D03*
D182*
X61221Y68386D02*
D03*
Y68031D02*
D03*
X67234Y67164D02*
D03*
Y66810D02*
D03*
D183*
X80404Y19222D02*
D03*
X80718D02*
D03*
X77847Y18435D02*
D03*
X77532D02*
D03*
D184*
X4567Y18543D02*
D03*
Y16614D02*
D03*
Y15551D02*
D03*
Y13622D02*
D03*
M02*
