G04*
G04 #@! TF.GenerationSoftware,Altium Limited,Altium Designer,20.2.4 (192)*
G04*
G04 Layer_Color=255*
%FSLAX24Y24*%
%MOIN*%
G70*
G04*
G04 #@! TF.SameCoordinates,B9BB7F2B-B7AC-4897-A438-396A0F5AD448*
G04*
G04*
G04 #@! TF.FilePolarity,Positive*
G04*
G01*
G75*
%ADD26R,0.0236X0.0276*%
%ADD36R,0.0811X0.0638*%
%ADD42R,0.0276X0.0236*%
%ADD43R,0.0256X0.0252*%
%ADD50R,0.0252X0.0256*%
%ADD56R,0.0654X0.0567*%
%ADD142C,0.0433*%
%ADD143C,0.3937*%
%ADD144C,0.2362*%
%ADD145C,0.1575*%
%ADD146O,0.0550X0.0570*%
%ADD147C,0.1520*%
%ADD148R,0.0744X0.0744*%
%ADD149O,0.0744X0.0744*%
%ADD150C,0.0610*%
%ADD151C,0.0866*%
%ADD152C,0.0700*%
%ADD153C,0.0531*%
%ADD154C,0.0768*%
%ADD155R,0.0433X0.0433*%
%ADD156R,0.0512X0.0512*%
%ADD157C,0.0512*%
%ADD158R,0.0700X0.0700*%
%ADD159R,0.0433X0.0433*%
%ADD160C,0.3543*%
%ADD161C,0.1181*%
%ADD162C,0.0630*%
%ADD163R,0.0630X0.0630*%
%ADD164C,0.0596*%
%ADD165R,0.0744X0.0650*%
%ADD166C,0.0736*%
%ADD167C,0.0591*%
%ADD168R,0.1098X0.1098*%
%ADD169C,0.1098*%
%ADD170R,0.0591X0.0591*%
%ADD171P,0.0835X4X360.0*%
%ADD172C,0.0650*%
%ADD173R,0.0650X0.0650*%
%ADD175R,0.0197X0.0197*%
%ADD176R,0.0252X0.0197*%
%ADD177R,0.0531X0.0138*%
%ADD178O,0.0335X0.0118*%
%ADD179R,0.0335X0.0118*%
%ADD180R,0.0197X0.0252*%
%ADD181R,0.0433X0.0335*%
%ADD182R,0.0252X0.0236*%
%ADD183R,0.0118X0.0197*%
%ADD184R,0.1063X0.0413*%
D26*
X60600Y53848D02*
D03*
Y53415D02*
D03*
X70138Y67244D02*
D03*
Y67677D02*
D03*
X69568Y65689D02*
D03*
Y65256D02*
D03*
X70128Y66201D02*
D03*
Y66634D02*
D03*
X63907Y58986D02*
D03*
Y59419D02*
D03*
X67480Y59055D02*
D03*
Y59488D02*
D03*
X63731Y67480D02*
D03*
Y67913D02*
D03*
X64803Y67391D02*
D03*
Y66958D02*
D03*
X65561Y69331D02*
D03*
Y69764D02*
D03*
D36*
X74252Y39705D02*
D03*
Y40807D02*
D03*
X79016Y41378D02*
D03*
Y42480D02*
D03*
D42*
X35177Y92244D02*
D03*
X34744D02*
D03*
X66535Y58396D02*
D03*
X66969D02*
D03*
X25397Y53356D02*
D03*
X25830D02*
D03*
X26457Y53337D02*
D03*
X26890D02*
D03*
X43917Y53287D02*
D03*
X44350D02*
D03*
X45413Y53278D02*
D03*
X44980D02*
D03*
X68800Y64843D02*
D03*
X68367D02*
D03*
X66496Y64587D02*
D03*
X66929D02*
D03*
X62884Y58307D02*
D03*
X63317D02*
D03*
X65915Y63504D02*
D03*
X66348D02*
D03*
X62934Y67402D02*
D03*
X62501D02*
D03*
X64754Y67980D02*
D03*
X64321D02*
D03*
X67155Y69754D02*
D03*
X66722D02*
D03*
X66083Y68701D02*
D03*
X65650D02*
D03*
X66024Y66633D02*
D03*
X66457D02*
D03*
D43*
X64065Y70125D02*
D03*
X63711D02*
D03*
D50*
X69568Y66594D02*
D03*
Y66240D02*
D03*
X65925Y64655D02*
D03*
Y65010D02*
D03*
X63873Y58278D02*
D03*
Y57923D02*
D03*
X67559Y58012D02*
D03*
Y58366D02*
D03*
D56*
X72185Y42077D02*
D03*
Y41297D02*
D03*
D142*
X36767Y91209D02*
D03*
X36267D02*
D03*
X35767D02*
D03*
X35267D02*
D03*
X34767D02*
D03*
X34267D02*
D03*
X33767D02*
D03*
X33267D02*
D03*
X36767Y90709D02*
D03*
X36267D02*
D03*
X35767D02*
D03*
X35267D02*
D03*
X34767D02*
D03*
X34267D02*
D03*
X33767D02*
D03*
X33267D02*
D03*
X78802Y40419D02*
D03*
X83022Y14636D02*
D03*
D143*
X58335Y48280D02*
D03*
X66921D02*
D03*
X39841D02*
D03*
X48427D02*
D03*
X21346D02*
D03*
X29933D02*
D03*
D144*
X57892Y8706D02*
D03*
X67364D02*
D03*
X39398D02*
D03*
X48870D02*
D03*
X20904D02*
D03*
X30376D02*
D03*
D145*
X68484Y40679D02*
D03*
Y23504D02*
D03*
X56772Y40679D02*
D03*
Y23504D02*
D03*
X49990Y40679D02*
D03*
Y23504D02*
D03*
X38278Y40679D02*
D03*
Y23504D02*
D03*
X31496Y40679D02*
D03*
Y23504D02*
D03*
X19783Y40679D02*
D03*
Y23504D02*
D03*
D146*
X61289Y50913D02*
D03*
X63297D02*
D03*
X61959D02*
D03*
X62628D02*
D03*
X63967D02*
D03*
X42795D02*
D03*
X44803D02*
D03*
X43465D02*
D03*
X44134D02*
D03*
X45472D02*
D03*
X24301D02*
D03*
X26309D02*
D03*
X24970D02*
D03*
X25640D02*
D03*
X26978D02*
D03*
D147*
X18204Y85877D02*
D03*
X38524Y75207D02*
D03*
D148*
X48701Y83386D02*
D03*
D149*
X50669D02*
D03*
D150*
X84806Y75089D02*
D03*
X83806D02*
D03*
X84806Y78089D02*
D03*
X83806D02*
D03*
X84806Y77089D02*
D03*
X83806D02*
D03*
X84806Y76089D02*
D03*
X83806D02*
D03*
Y74089D02*
D03*
X84806D02*
D03*
X83806Y71089D02*
D03*
X84806D02*
D03*
X83806Y72089D02*
D03*
X84806D02*
D03*
X83806Y73089D02*
D03*
X84806D02*
D03*
X85305Y52244D02*
D03*
X86305D02*
D03*
X73169Y48110D02*
D03*
Y47110D02*
D03*
D151*
X66089Y78325D02*
D03*
Y70852D02*
D03*
D152*
X72053Y81358D02*
D03*
X60053Y62358D02*
D03*
X61053Y61358D02*
D03*
Y62358D02*
D03*
X62053Y61358D02*
D03*
Y62358D02*
D03*
X63053Y61358D02*
D03*
Y62358D02*
D03*
X64053Y61358D02*
D03*
Y62358D02*
D03*
X65053Y61358D02*
D03*
Y62358D02*
D03*
X66053Y61358D02*
D03*
Y62358D02*
D03*
X67053Y61358D02*
D03*
Y62358D02*
D03*
X68053Y61358D02*
D03*
Y62358D02*
D03*
X69053Y61358D02*
D03*
Y62358D02*
D03*
X70053Y61358D02*
D03*
Y62358D02*
D03*
X71053Y61358D02*
D03*
Y62358D02*
D03*
X72053Y61358D02*
D03*
Y62358D02*
D03*
X73053Y61358D02*
D03*
Y62358D02*
D03*
X74053Y61358D02*
D03*
Y62358D02*
D03*
X75053Y61358D02*
D03*
Y62358D02*
D03*
X76053Y61358D02*
D03*
Y62358D02*
D03*
X77053Y61358D02*
D03*
Y62358D02*
D03*
X78053Y61358D02*
D03*
Y62358D02*
D03*
X79053Y61358D02*
D03*
Y62358D02*
D03*
X80053Y61358D02*
D03*
Y62358D02*
D03*
X81053Y61358D02*
D03*
Y62358D02*
D03*
X82053Y61358D02*
D03*
Y62358D02*
D03*
X83053Y61358D02*
D03*
Y62358D02*
D03*
X84053Y61358D02*
D03*
Y62358D02*
D03*
Y82358D02*
D03*
Y81358D02*
D03*
X83053Y82358D02*
D03*
Y81358D02*
D03*
X82053Y82358D02*
D03*
Y81358D02*
D03*
X81053Y82358D02*
D03*
Y81358D02*
D03*
X80053Y82358D02*
D03*
Y81358D02*
D03*
X79053Y82358D02*
D03*
Y81358D02*
D03*
X78053Y82358D02*
D03*
Y81358D02*
D03*
X77053Y82358D02*
D03*
Y81358D02*
D03*
X76053Y82358D02*
D03*
Y81358D02*
D03*
X75053Y82358D02*
D03*
Y81358D02*
D03*
X74053Y82358D02*
D03*
Y81358D02*
D03*
X73053Y82358D02*
D03*
Y81358D02*
D03*
X72053Y82358D02*
D03*
X71053D02*
D03*
Y81358D02*
D03*
X70053Y82358D02*
D03*
Y81358D02*
D03*
X69053Y82358D02*
D03*
Y81358D02*
D03*
X68053Y82358D02*
D03*
Y81358D02*
D03*
X67053Y82358D02*
D03*
Y81358D02*
D03*
X66053Y82358D02*
D03*
Y81358D02*
D03*
X65053Y82358D02*
D03*
Y81358D02*
D03*
X64053Y82358D02*
D03*
Y81358D02*
D03*
X63053Y82358D02*
D03*
Y81358D02*
D03*
X62053Y82358D02*
D03*
Y81358D02*
D03*
X61053Y82358D02*
D03*
Y81358D02*
D03*
X60053Y82358D02*
D03*
D153*
X79975Y43327D02*
D03*
X78975D02*
D03*
X77975D02*
D03*
X76975D02*
D03*
X73091Y42132D02*
D03*
Y41132D02*
D03*
Y40132D02*
D03*
Y39132D02*
D03*
D154*
X81679Y18435D02*
D03*
X79679D02*
D03*
X75679D02*
D03*
X82679Y36435D02*
D03*
X78679D02*
D03*
X74679D02*
D03*
X2362Y18268D02*
D03*
Y14520D02*
D03*
D155*
X78802Y39041D02*
D03*
D156*
X82927Y44774D02*
D03*
D157*
X85927D02*
D03*
Y47774D02*
D03*
X84927D02*
D03*
X83927D02*
D03*
X84969Y9085D02*
D03*
Y12085D02*
D03*
X81968D02*
D03*
Y9085D02*
D03*
X74549Y12116D02*
D03*
Y9116D02*
D03*
X77549D02*
D03*
Y12116D02*
D03*
D158*
X60053Y61358D02*
D03*
Y81358D02*
D03*
D159*
X84006Y14636D02*
D03*
D160*
X3189Y81929D02*
D03*
Y87008D02*
D03*
X3543Y36024D02*
D03*
X3150Y24094D02*
D03*
D161*
X15354Y5906D02*
D03*
X77068Y88583D02*
D03*
X71556D02*
D03*
X8564Y3937D02*
D03*
X14076D02*
D03*
X9863Y5906D02*
D03*
X73524Y3937D02*
D03*
X79036D02*
D03*
X77068Y5906D02*
D03*
X71556D02*
D03*
X8564Y90551D02*
D03*
X14076D02*
D03*
X10532Y88583D02*
D03*
X16044D02*
D03*
X73524Y90551D02*
D03*
X79036D02*
D03*
D162*
X42874Y89976D02*
D03*
Y88976D02*
D03*
D163*
Y87976D02*
D03*
D164*
X45000Y19528D02*
D03*
X47953Y17953D02*
D03*
X44843Y36378D02*
D03*
X47795Y34803D02*
D03*
Y26378D02*
D03*
X44843Y27953D02*
D03*
D165*
X16339Y10177D02*
D03*
D166*
Y9173D02*
D03*
D167*
Y8169D02*
D03*
X10236Y13150D02*
D03*
X12303Y18799D02*
D03*
D168*
X3819Y68163D02*
D03*
Y45778D02*
D03*
Y53240D02*
D03*
Y60701D02*
D03*
D169*
Y66014D02*
D03*
Y63864D02*
D03*
Y43628D02*
D03*
Y41478D02*
D03*
Y51090D02*
D03*
Y48940D02*
D03*
Y58552D02*
D03*
Y56402D02*
D03*
D170*
X10236Y9213D02*
D03*
D171*
X9519Y21583D02*
D03*
D172*
X27687Y92648D02*
D03*
X26687D02*
D03*
X25687D02*
D03*
X24687D02*
D03*
X23687D02*
D03*
X22687D02*
D03*
X21687D02*
D03*
X20687D02*
D03*
X19687D02*
D03*
D173*
X18687D02*
D03*
D175*
X6693Y73307D02*
D03*
X7047D02*
D03*
D176*
X7126Y71024D02*
D03*
Y70669D02*
D03*
X66114Y69744D02*
D03*
Y69390D02*
D03*
X61733Y68386D02*
D03*
Y68031D02*
D03*
X65325Y67046D02*
D03*
Y67400D02*
D03*
D177*
X61496Y52972D02*
D03*
Y53661D02*
D03*
D178*
X68151Y65846D02*
D03*
Y66102D02*
D03*
Y66358D02*
D03*
X69017Y65846D02*
D03*
Y66102D02*
D03*
X62274Y67953D02*
D03*
Y68209D02*
D03*
Y68465D02*
D03*
X63141Y67953D02*
D03*
Y68209D02*
D03*
X64114Y69035D02*
D03*
Y69291D02*
D03*
Y69547D02*
D03*
X64980Y69035D02*
D03*
Y69291D02*
D03*
X66713Y67715D02*
D03*
Y67460D02*
D03*
Y67204D02*
D03*
X65846Y67715D02*
D03*
Y67460D02*
D03*
D179*
X69017Y66358D02*
D03*
X63141Y68465D02*
D03*
X64980Y69547D02*
D03*
X65846Y67204D02*
D03*
D180*
X68407Y66811D02*
D03*
X68761D02*
D03*
Y65374D02*
D03*
X68407D02*
D03*
X62521Y68986D02*
D03*
X62875D02*
D03*
X64715Y68519D02*
D03*
X64360D02*
D03*
D181*
X65226Y64075D02*
D03*
X64360Y64449D02*
D03*
Y63701D02*
D03*
X68228Y58937D02*
D03*
X69094Y58563D02*
D03*
Y59311D02*
D03*
X64537Y58947D02*
D03*
X65404Y58573D02*
D03*
Y59321D02*
D03*
D182*
X61221Y68386D02*
D03*
Y68031D02*
D03*
X67234Y67164D02*
D03*
Y66810D02*
D03*
D183*
X80404Y19222D02*
D03*
X80718D02*
D03*
X77847Y18435D02*
D03*
X77532D02*
D03*
D184*
X4567Y18543D02*
D03*
Y16614D02*
D03*
Y15551D02*
D03*
Y13622D02*
D03*
M02*
