G04*
G04 #@! TF.GenerationSoftware,Altium Limited,Altium Designer,20.2.4 (192)*
G04*
G04 Layer_Color=65535*
%FSLAX24Y24*%
%MOIN*%
G70*
G04*
G04 #@! TF.SameCoordinates,B9BB7F2B-B7AC-4897-A438-396A0F5AD448*
G04*
G04*
G04 #@! TF.FilePolarity,Positive*
G04*
G01*
G75*
%ADD10C,0.0079*%
%ADD11C,0.0787*%
%ADD12C,0.0197*%
%ADD13C,0.0039*%
%ADD14C,0.0315*%
%ADD15C,0.0157*%
%ADD16C,0.0100*%
%ADD17C,0.1110*%
%ADD18C,0.0080*%
%ADD19C,0.0050*%
%ADD20C,0.0059*%
G36*
X3243Y7278D02*
X3281Y7267D01*
X3325Y7256D01*
X3374Y7234D01*
X3418Y7207D01*
X3467Y7169D01*
X3472Y7163D01*
X3483Y7152D01*
X3510Y7125D01*
X3516Y7119D01*
X3521Y7108D01*
X3543Y7076D01*
X5195Y4216D01*
X5200Y4210D01*
X5206Y4194D01*
X5216Y4161D01*
X5233Y4123D01*
X5244Y4079D01*
X5249Y4024D01*
Y3970D01*
X5244Y3910D01*
Y3904D01*
X5238Y3893D01*
X5233Y3871D01*
X5227Y3850D01*
Y3844D01*
X5222Y3833D01*
X5211Y3817D01*
X5200Y3789D01*
X5195D01*
X5189Y3784D01*
X5178Y3768D01*
X5162Y3740D01*
X5134Y3713D01*
X5102Y3680D01*
X5063Y3647D01*
X5014Y3620D01*
X4959Y3598D01*
X4954D01*
X4938Y3593D01*
X4916Y3587D01*
X4894D01*
X4888Y3582D01*
X4867D01*
X4839Y3576D01*
X1509Y3576D01*
X1476Y3582D01*
X1438Y3593D01*
X1389Y3603D01*
X1340Y3625D01*
X1290Y3653D01*
X1241Y3691D01*
X1236Y3696D01*
X1225Y3707D01*
X1198Y3735D01*
X1192Y3740D01*
X1187Y3751D01*
X1165Y3789D01*
X1159Y3795D01*
X1154Y3811D01*
X1143Y3839D01*
X1126Y3877D01*
X1115Y3921D01*
X1110Y3970D01*
Y4024D01*
X1115Y4085D01*
Y4090D01*
X1121Y4107D01*
X1126Y4128D01*
X1132Y4145D01*
Y4150D01*
X1137Y4161D01*
X1148Y4178D01*
X1159Y4199D01*
Y4205D01*
Y4210D01*
X1165D01*
X2811Y7065D01*
Y7070D01*
X2822Y7081D01*
X2843Y7114D01*
X2887Y7163D01*
X2936Y7207D01*
X2947Y7212D01*
X2969Y7223D01*
X2975Y7229D01*
X2986Y7234D01*
X3007Y7245D01*
X3029Y7256D01*
X3062Y7267D01*
X3100Y7272D01*
X3139Y7283D01*
X3210D01*
X3243Y7278D01*
D02*
G37*
G36*
X82393Y93144D02*
Y93215D01*
X82760D01*
Y92953D01*
X83334Y92903D01*
X84127Y92832D01*
X85034Y93707D01*
X85106Y93642D01*
X84258Y92821D01*
X84307Y92816D01*
X84324Y92854D01*
X84351Y92898D01*
X84389Y92936D01*
X84427Y92964D01*
X84471Y92985D01*
X84515Y93002D01*
X84559Y93013D01*
X84613Y93018D01*
X84663Y93013D01*
X84717Y92996D01*
X84777Y92969D01*
X84832Y92931D01*
X84870Y92893D01*
X84903Y92843D01*
X84925Y92783D01*
X84941Y92734D01*
Y92668D01*
X84936Y92603D01*
X84914Y92532D01*
X84870Y92471D01*
X84821Y92428D01*
X84777Y92395D01*
X84734Y92373D01*
Y91728D01*
X84958D01*
Y91520D01*
X84734D01*
Y91493D01*
X84149Y91438D01*
X85106Y90503D01*
X85040Y90437D01*
X84017Y91427D01*
X83564Y91383D01*
X82935Y91323D01*
X82672Y91296D01*
X81710Y90372D01*
X81644Y90437D01*
X82525Y91285D01*
X82311Y91263D01*
Y91121D01*
X82142D01*
Y91252D01*
X82104Y91247D01*
X82082Y91258D01*
X82065Y91269D01*
X82043Y91290D01*
X82016Y91323D01*
X81994Y91356D01*
X81972Y91394D01*
X81956Y91433D01*
X81940Y91460D01*
X81836D01*
Y91684D01*
X81879D01*
X81868Y91755D01*
X81858Y91826D01*
X81852Y91892D01*
Y91936D01*
X81781D01*
Y92461D01*
X81863D01*
X81868Y92526D01*
X81885Y92608D01*
X81901Y92685D01*
X81923Y92761D01*
X81950Y92832D01*
X81972Y92882D01*
X82000Y92920D01*
X82022Y92947D01*
X82005Y92958D01*
X81989Y92985D01*
X81978Y93018D01*
X81972Y93057D01*
X81978Y93095D01*
X81994Y93133D01*
X82016Y93160D01*
X82054Y93182D01*
X82076Y93193D01*
X82109Y93199D01*
X82136Y93193D01*
X82158Y93188D01*
X82186Y93177D01*
X82202Y93160D01*
X82218Y93144D01*
X82229Y93128D01*
X82240Y93117D01*
X82289D01*
X81644Y93740D01*
X81710Y93811D01*
X82393Y93144D01*
D02*
G37*
G36*
X86604Y90569D02*
X86587D01*
X86576D01*
X86555D01*
X86527D01*
X86489D01*
X86483D01*
X86467D01*
X86445D01*
X86412D01*
X86374D01*
X86330D01*
X86232D01*
X86226D01*
X86210D01*
X86183D01*
X86144D01*
X86062D01*
X85975D01*
X85969D01*
X85959D01*
X85937D01*
X85915D01*
X85893D01*
X85871D01*
X85860D01*
X85855D01*
Y93560D01*
X85860D01*
X85871D01*
X85882D01*
X85904D01*
X85937D01*
X85975D01*
X85980D01*
X85997D01*
X86019D01*
X86051D01*
X86090D01*
X86134D01*
X86232D01*
X86237D01*
X86254D01*
X86281D01*
X86319D01*
X86401D01*
X86489D01*
X86494D01*
X86505D01*
X86544D01*
X86587D01*
X86598D01*
X86604D01*
Y90569D01*
D02*
G37*
G36*
X82393Y87654D02*
Y87725D01*
X82760D01*
Y87463D01*
X83334Y87414D01*
X84127Y87342D01*
X85034Y88217D01*
X85106Y88152D01*
X84258Y87332D01*
X84307Y87326D01*
X84324Y87364D01*
X84351Y87408D01*
X84389Y87446D01*
X84427Y87474D01*
X84471Y87496D01*
X84515Y87512D01*
X84559Y87523D01*
X84613Y87528D01*
X84663Y87523D01*
X84717Y87507D01*
X84777Y87479D01*
X84832Y87441D01*
X84870Y87403D01*
X84903Y87353D01*
X84925Y87293D01*
X84941Y87244D01*
Y87178D01*
X84936Y87113D01*
X84914Y87042D01*
X84870Y86982D01*
X84821Y86938D01*
X84777Y86905D01*
X84734Y86883D01*
Y86238D01*
X84958D01*
Y86030D01*
X84734D01*
Y86003D01*
X84149Y85948D01*
X85106Y85013D01*
X85040Y84948D01*
X84017Y85937D01*
X83564Y85893D01*
X82935Y85833D01*
X82672Y85806D01*
X81710Y84882D01*
X81644Y84948D01*
X82525Y85795D01*
X82311Y85773D01*
Y85631D01*
X82142D01*
Y85762D01*
X82104Y85757D01*
X82082Y85768D01*
X82065Y85779D01*
X82043Y85801D01*
X82016Y85833D01*
X81994Y85866D01*
X81972Y85904D01*
X81956Y85943D01*
X81940Y85970D01*
X81836D01*
Y86194D01*
X81879D01*
X81868Y86265D01*
X81858Y86336D01*
X81852Y86402D01*
Y86446D01*
X81781D01*
Y86971D01*
X81863D01*
X81868Y87036D01*
X81885Y87118D01*
X81901Y87195D01*
X81923Y87271D01*
X81950Y87342D01*
X81972Y87392D01*
X82000Y87430D01*
X82022Y87457D01*
X82005Y87468D01*
X81989Y87496D01*
X81978Y87528D01*
X81972Y87567D01*
X81978Y87605D01*
X81994Y87643D01*
X82016Y87671D01*
X82054Y87692D01*
X82076Y87703D01*
X82109Y87709D01*
X82136Y87703D01*
X82158Y87698D01*
X82186Y87687D01*
X82202Y87671D01*
X82218Y87654D01*
X82229Y87638D01*
X82240Y87627D01*
X82289D01*
X81644Y88250D01*
X81710Y88321D01*
X82393Y87654D01*
D02*
G37*
G36*
X86604Y85079D02*
X86587D01*
X86576D01*
X86555D01*
X86527D01*
X86489D01*
X86483D01*
X86467D01*
X86445D01*
X86412D01*
X86374D01*
X86330D01*
X86232D01*
X86226D01*
X86210D01*
X86183D01*
X86144D01*
X86062D01*
X85975D01*
X85969D01*
X85959D01*
X85937D01*
X85915D01*
X85893D01*
X85871D01*
X85860D01*
X85855D01*
Y88070D01*
X85860D01*
X85871D01*
X85882D01*
X85904D01*
X85937D01*
X85975D01*
X85980D01*
X85997D01*
X86019D01*
X86051D01*
X86090D01*
X86134D01*
X86232D01*
X86237D01*
X86254D01*
X86281D01*
X86319D01*
X86401D01*
X86489D01*
X86494D01*
X86505D01*
X86544D01*
X86587D01*
X86598D01*
X86604D01*
Y85079D01*
D02*
G37*
%LPC*%
G36*
X3182Y7005D02*
X3171D01*
X3144Y6999D01*
X3106Y6994D01*
X3062Y6972D01*
Y6966D01*
X3057Y6961D01*
X3046D01*
X3040Y6955D01*
X3024Y6939D01*
X3002Y6917D01*
X2980Y6884D01*
X1411Y4172D01*
Y4167D01*
Y4161D01*
X1405Y4156D01*
X1400Y4134D01*
Y4128D01*
X1394Y4123D01*
X1389Y4101D01*
Y4096D01*
Y4085D01*
X1383Y4074D01*
Y4052D01*
X1389Y3997D01*
X1400Y3970D01*
X1411Y3942D01*
X1416Y3932D01*
X1433Y3915D01*
X1438Y3910D01*
X1454Y3888D01*
X1460D01*
X1465Y3877D01*
X1498Y3860D01*
X1547Y3839D01*
X1580Y3833D01*
X1613Y3828D01*
X4752Y3828D01*
Y3833D01*
X4795D01*
X4812Y3839D01*
X4823Y3844D01*
X4817Y3839D01*
X4823D01*
X4834Y3844D01*
X4867Y3860D01*
X4905Y3893D01*
X4949Y3942D01*
X4954Y3953D01*
X4965Y3975D01*
X4970Y4014D01*
X4976Y4057D01*
Y4063D01*
Y4079D01*
Y4090D01*
X4970Y4112D01*
X4959Y4139D01*
X4943Y4172D01*
Y4178D01*
X3374Y6890D01*
Y6895D01*
X3368Y6901D01*
X3357Y6917D01*
X3352Y6923D01*
X3335Y6939D01*
X3330Y6944D01*
X3325Y6950D01*
X3292Y6972D01*
X3243Y6988D01*
X3215Y6999D01*
X3182D01*
Y7005D01*
D02*
G37*
%LPD*%
G36*
X2729Y5140D02*
X3757Y5670D01*
X3128Y4369D01*
X3357Y4424D01*
X2980Y3986D01*
X2898Y4511D01*
X3068Y4380D01*
X3314Y5315D01*
X2521Y4927D01*
X3029Y6682D01*
X3401Y6693D01*
X2729Y5140D01*
D02*
G37*
%LPC*%
G36*
X82115Y93100D02*
X82109D01*
X82087Y93095D01*
X82071Y93078D01*
X82065Y93051D01*
Y93046D01*
X82071Y93029D01*
X82087Y93013D01*
X82115Y93007D01*
X82120D01*
X82136Y93013D01*
X82153Y93024D01*
X82158Y93051D01*
Y93057D01*
X82153Y93078D01*
X82142Y93095D01*
X82115Y93100D01*
D02*
G37*
G36*
X82667Y93117D02*
X82486D01*
Y92936D01*
X82667D01*
Y93117D01*
D02*
G37*
G36*
X84608Y92843D02*
X84602D01*
X84581D01*
X84553Y92832D01*
X84526Y92821D01*
X84493Y92805D01*
X84471Y92772D01*
X84449Y92734D01*
X84444Y92679D01*
Y92652D01*
X84455Y92630D01*
X84466Y92597D01*
X84482Y92570D01*
X84515Y92543D01*
X84553Y92521D01*
X84608Y92515D01*
X84613D01*
X84635Y92521D01*
X84657Y92526D01*
X84690Y92537D01*
X84717Y92553D01*
X84745Y92586D01*
X84767Y92625D01*
X84772Y92679D01*
Y92685D01*
X84767Y92707D01*
X84761Y92734D01*
X84750Y92761D01*
X84734Y92794D01*
X84701Y92816D01*
X84663Y92838D01*
X84608Y92843D01*
D02*
G37*
G36*
X82760Y92854D02*
Y92843D01*
X82705D01*
X82940Y92614D01*
X83022D01*
Y92532D01*
X83416Y92149D01*
X84034Y92745D01*
X82760Y92854D01*
D02*
G37*
G36*
X81929Y92368D02*
X81874D01*
Y92034D01*
X81929D01*
Y92368D01*
D02*
G37*
G36*
X82929Y92510D02*
X82896D01*
Y92018D01*
X82929D01*
Y92510D01*
D02*
G37*
G36*
X82142Y92903D02*
X82120D01*
X82082Y92865D01*
X82054Y92816D01*
X82022Y92750D01*
X82000Y92668D01*
X81978Y92570D01*
X81961Y92461D01*
X82022D01*
Y91936D01*
X81950D01*
X81956Y91843D01*
X81967Y91761D01*
X81983Y91684D01*
X82142D01*
Y92903D01*
D02*
G37*
G36*
X84865Y91635D02*
X84734D01*
Y91613D01*
X84865D01*
Y91635D01*
D02*
G37*
G36*
X82054Y91591D02*
X81929D01*
Y91553D01*
X82054D01*
Y91591D01*
D02*
G37*
G36*
X84160Y92734D02*
X83487Y92083D01*
X84061Y91526D01*
X84635Y91580D01*
Y92351D01*
X84586Y92346D01*
X84515Y92362D01*
X84449Y92389D01*
X84395Y92428D01*
X84356Y92466D01*
X84324Y92510D01*
X84296Y92570D01*
X84280Y92630D01*
X84274Y92679D01*
X84280Y92723D01*
X84160Y92734D01*
D02*
G37*
G36*
X83416Y92018D02*
X82782Y91405D01*
X83935Y91515D01*
X83416Y92018D01*
D02*
G37*
G36*
X82311Y92893D02*
Y91361D01*
X82629Y91389D01*
X83350Y92083D01*
X83022Y92400D01*
Y91925D01*
X82803D01*
Y92614D01*
X82568Y92843D01*
X82393D01*
Y92882D01*
X82311Y92893D01*
D02*
G37*
G36*
X82142Y91460D02*
X82049D01*
X82076Y91405D01*
X82098Y91372D01*
X82125Y91345D01*
X82142D01*
Y91460D01*
D02*
G37*
%LPD*%
G36*
X84663Y92778D02*
X84684Y92761D01*
X84701Y92745D01*
X84712Y92718D01*
X84717Y92679D01*
Y92663D01*
X84701Y92625D01*
X84690Y92603D01*
X84674Y92586D01*
X84646Y92575D01*
X84608Y92570D01*
X84602D01*
X84592D01*
X84553Y92586D01*
X84531Y92597D01*
X84515Y92614D01*
X84504Y92641D01*
X84499Y92679D01*
Y92696D01*
X84510Y92734D01*
X84526Y92756D01*
X84542Y92772D01*
X84570Y92783D01*
X84608Y92789D01*
X84613D01*
X84624D01*
X84663Y92778D01*
D02*
G37*
%LPC*%
G36*
X84619Y92696D02*
X84608D01*
X84602D01*
X84597D01*
X84592Y92690D01*
Y92674D01*
X84597Y92668D01*
X84608Y92663D01*
X84613D01*
X84619Y92668D01*
X84624Y92679D01*
Y92690D01*
X84619Y92696D01*
D02*
G37*
G36*
X82115Y87610D02*
X82109D01*
X82087Y87605D01*
X82071Y87589D01*
X82065Y87561D01*
Y87556D01*
X82071Y87539D01*
X82087Y87523D01*
X82115Y87517D01*
X82120D01*
X82136Y87523D01*
X82153Y87534D01*
X82158Y87561D01*
Y87567D01*
X82153Y87589D01*
X82142Y87605D01*
X82115Y87610D01*
D02*
G37*
G36*
X82667Y87627D02*
X82486D01*
Y87446D01*
X82667D01*
Y87627D01*
D02*
G37*
G36*
X84608Y87353D02*
X84602D01*
X84581D01*
X84553Y87342D01*
X84526Y87332D01*
X84493Y87315D01*
X84471Y87282D01*
X84449Y87244D01*
X84444Y87189D01*
Y87162D01*
X84455Y87140D01*
X84466Y87107D01*
X84482Y87080D01*
X84515Y87053D01*
X84553Y87031D01*
X84608Y87025D01*
X84613D01*
X84635Y87031D01*
X84657Y87036D01*
X84690Y87047D01*
X84717Y87064D01*
X84745Y87096D01*
X84767Y87135D01*
X84772Y87189D01*
Y87195D01*
X84767Y87217D01*
X84761Y87244D01*
X84750Y87271D01*
X84734Y87304D01*
X84701Y87326D01*
X84663Y87348D01*
X84608Y87353D01*
D02*
G37*
G36*
X82760Y87364D02*
Y87353D01*
X82705D01*
X82940Y87124D01*
X83022D01*
Y87042D01*
X83416Y86659D01*
X84034Y87255D01*
X82760Y87364D01*
D02*
G37*
G36*
X81929Y86878D02*
X81874D01*
Y86544D01*
X81929D01*
Y86878D01*
D02*
G37*
G36*
X82929Y87020D02*
X82896D01*
Y86528D01*
X82929D01*
Y87020D01*
D02*
G37*
G36*
X82142Y87414D02*
X82120D01*
X82082Y87375D01*
X82054Y87326D01*
X82022Y87260D01*
X82000Y87178D01*
X81978Y87080D01*
X81961Y86971D01*
X82022D01*
Y86446D01*
X81950D01*
X81956Y86353D01*
X81967Y86271D01*
X81983Y86194D01*
X82142D01*
Y87414D01*
D02*
G37*
G36*
X84865Y86145D02*
X84734D01*
Y86123D01*
X84865D01*
Y86145D01*
D02*
G37*
G36*
X82054Y86101D02*
X81929D01*
Y86063D01*
X82054D01*
Y86101D01*
D02*
G37*
G36*
X84160Y87244D02*
X83487Y86593D01*
X84061Y86036D01*
X84635Y86090D01*
Y86861D01*
X84586Y86856D01*
X84515Y86872D01*
X84449Y86900D01*
X84395Y86938D01*
X84356Y86976D01*
X84324Y87020D01*
X84296Y87080D01*
X84280Y87140D01*
X84274Y87189D01*
X84280Y87233D01*
X84160Y87244D01*
D02*
G37*
G36*
X83416Y86528D02*
X82782Y85915D01*
X83935Y86025D01*
X83416Y86528D01*
D02*
G37*
G36*
X82311Y87403D02*
Y85872D01*
X82629Y85899D01*
X83350Y86593D01*
X83022Y86911D01*
Y86435D01*
X82803D01*
Y87124D01*
X82568Y87353D01*
X82393D01*
Y87392D01*
X82311Y87403D01*
D02*
G37*
G36*
X82142Y85970D02*
X82049D01*
X82076Y85915D01*
X82098Y85883D01*
X82125Y85855D01*
X82142D01*
Y85970D01*
D02*
G37*
%LPD*%
G36*
X84663Y87288D02*
X84684Y87271D01*
X84701Y87255D01*
X84712Y87228D01*
X84717Y87189D01*
Y87173D01*
X84701Y87135D01*
X84690Y87113D01*
X84674Y87096D01*
X84646Y87085D01*
X84608Y87080D01*
X84602D01*
X84592D01*
X84553Y87096D01*
X84531Y87107D01*
X84515Y87124D01*
X84504Y87151D01*
X84499Y87189D01*
Y87206D01*
X84510Y87244D01*
X84526Y87266D01*
X84542Y87282D01*
X84570Y87293D01*
X84608Y87299D01*
X84613D01*
X84624D01*
X84663Y87288D01*
D02*
G37*
%LPC*%
G36*
X84619Y87206D02*
X84608D01*
X84602D01*
X84597D01*
X84592Y87200D01*
Y87184D01*
X84597Y87178D01*
X84608Y87173D01*
X84613D01*
X84619Y87178D01*
X84624Y87189D01*
Y87200D01*
X84619Y87206D01*
D02*
G37*
%LPD*%
D10*
X32655Y90722D02*
G03*
X32655Y90762I0J20D01*
G01*
D02*
G03*
X32655Y90722I0J-20D01*
G01*
X76939Y42181D02*
G03*
X77018Y42181I39J0D01*
G01*
D02*
G03*
X76939Y42181I-39J0D01*
G01*
X80376Y39730D02*
G03*
X80376Y39730I-1575J0D01*
G01*
X84754Y14636D02*
G03*
X84754Y14636I-1240J0D01*
G01*
X74236Y39096D02*
G03*
X74236Y39175I0J39D01*
G01*
D02*
G03*
X74236Y39096I0J-39D01*
G01*
X14567Y11181D02*
G03*
X14567Y11181I-4331J0D01*
G01*
X15242Y20191D02*
G03*
X15242Y20191I-4331J0D01*
G01*
X10784Y88517D02*
X45984D01*
Y66967D02*
Y88507D01*
X10784Y80707D02*
Y88517D01*
X25184Y66967D02*
X45984D01*
X25184D02*
Y75416D01*
X10784Y80707D02*
X10794D01*
X13205Y78295D01*
X23195D01*
X23255D01*
X25184Y76367D01*
Y75416D02*
Y76367D01*
X75463Y54282D02*
X75719D01*
X76192Y54282D02*
X76448D01*
X57223Y92333D02*
X58168D01*
Y87608D02*
Y92333D01*
X57223Y87608D02*
X58168D01*
X55254Y92333D02*
X56357D01*
X55254Y87608D02*
X56357D01*
X53443Y92333D02*
X54388D01*
X53443Y87608D02*
Y92333D01*
Y87608D02*
X54388D01*
X62874Y92333D02*
X63819D01*
Y87608D02*
Y92333D01*
X62874Y87608D02*
X63819D01*
X60906Y92333D02*
X62008D01*
X60906Y87608D02*
X62008D01*
X59094Y92333D02*
X60039D01*
X59094Y87608D02*
Y92333D01*
Y87608D02*
X60039D01*
X68543Y92392D02*
X69488D01*
Y87667D02*
Y92392D01*
X68543Y87667D02*
X69488D01*
X66575Y92392D02*
X67677D01*
X66575Y87667D02*
X67677D01*
X64764Y92392D02*
X65709D01*
X64764Y87667D02*
Y92392D01*
Y87667D02*
X65709D01*
X73302Y55351D02*
Y55745D01*
X73307Y55886D02*
X74449D01*
X73307D02*
Y56122D01*
X74449D01*
Y55886D02*
Y56122D01*
X85994Y50738D02*
Y50994D01*
X79508Y46467D02*
Y46722D01*
X77884Y45519D02*
Y46493D01*
X78376Y45706D02*
Y46493D01*
X75329Y37998D02*
Y38998D01*
X74954Y39008D02*
X75204D01*
X74829Y37998D02*
Y38998D01*
Y37988D02*
X75079D01*
X75329D01*
X75204Y39008D02*
X75329D01*
X74829D02*
X74954D01*
X83124Y38307D02*
Y40433D01*
X81699Y38081D02*
Y40433D01*
X85679Y41545D02*
Y42096D01*
X85807Y40581D02*
X86043D01*
X84913Y29065D02*
X85621D01*
X85689Y36978D02*
X86240D01*
X81671Y43519D02*
Y49030D01*
X87183D01*
Y43519D02*
Y49030D01*
X81671Y43519D02*
X87183D01*
X84783Y38711D02*
X85197D01*
X74144Y14577D02*
Y15561D01*
X78770D01*
Y13593D02*
Y15561D01*
X74144Y13593D02*
X78770D01*
X74144D02*
Y14577D01*
X81598Y8715D02*
Y12455D01*
X85339D01*
Y8715D02*
Y12455D01*
X81598Y8715D02*
X85339D01*
X6634Y69705D02*
X9665D01*
X6634D02*
Y73996D01*
X9665D01*
Y69705D02*
Y73996D01*
X77919Y8746D02*
Y12486D01*
X74179Y8746D02*
X77919D01*
X74179D02*
Y12486D01*
X77919D01*
X41988Y91083D02*
X43878D01*
X41988Y86870D02*
X43878D01*
Y91083D01*
X41988Y86870D02*
Y91083D01*
X42185Y86870D02*
Y91083D01*
X50748Y91437D02*
Y91850D01*
X36043Y65886D02*
X40335D01*
Y68917D01*
X36043D02*
X40335D01*
X36043Y65886D02*
Y68917D01*
X77797Y48789D02*
Y49478D01*
X77748Y49685D02*
X80307D01*
Y51063D01*
X77748D02*
X80307D01*
X77748Y49685D02*
Y51063D01*
X77230Y55607D02*
Y56001D01*
X77236Y56142D02*
X78377D01*
X77236D02*
Y56378D01*
X78377D01*
Y56142D02*
Y56378D01*
X72352Y55482D02*
Y56270D01*
X72844Y55482D02*
Y56457D01*
X72470Y54439D02*
X72726D01*
X75861Y41063D02*
Y41188D01*
Y41438D02*
Y41563D01*
X76881Y41313D02*
Y41563D01*
Y41063D02*
Y41313D01*
X75871Y41063D02*
X76871D01*
X75861Y41188D02*
Y41438D01*
X75871Y41563D02*
X76871D01*
X50523Y89555D02*
Y90155D01*
X48542Y89417D02*
X50472D01*
X48542Y88157D02*
Y89417D01*
Y88157D02*
X50472D01*
Y89417D01*
X50118Y86673D02*
Y86929D01*
X49291Y92028D02*
Y92441D01*
X79724Y55679D02*
Y55935D01*
Y54931D02*
Y55187D01*
X82586Y53914D02*
Y54308D01*
X82591Y54449D02*
X83733D01*
X82591D02*
Y54685D01*
X83733D01*
Y54449D02*
Y54685D01*
X83738Y56499D02*
Y56893D01*
X82591Y56358D02*
X83733D01*
Y56122D02*
Y56358D01*
X82591Y56122D02*
X83733D01*
X82591D02*
Y56358D01*
X74970Y42628D02*
X75522D01*
X76043Y38868D02*
X76594D01*
X83565Y38996D02*
X84116D01*
X74959Y40683D02*
X75510D01*
X73375Y43592D02*
Y43848D01*
X84724Y39872D02*
Y40659D01*
X85217Y39872D02*
Y40846D01*
X72305Y30322D02*
X73014D01*
X72305Y25866D02*
X73014D01*
X46299Y87136D02*
Y88041D01*
Y88671D02*
Y89577D01*
X46191Y90551D02*
Y90709D01*
X45030Y90551D02*
X46191D01*
X45030D02*
Y90709D01*
X46191D01*
X46201Y90846D02*
Y91280D01*
X45652Y91716D02*
Y92638D01*
X72992Y44272D02*
X73967D01*
X72992Y44764D02*
X73780D01*
X7382Y6949D02*
Y7343D01*
X7185Y7146D02*
X7579D01*
X9937Y25202D02*
X10215Y24924D01*
X9937Y24924D02*
X10215Y25202D01*
X18087Y92173D02*
Y92648D01*
Y92173D02*
X28287D01*
Y93122D01*
X18687D02*
X28287D01*
D11*
X60017Y51080D02*
G03*
X60017Y51080I-283J0D01*
G01*
X41523D02*
G03*
X41523Y51080I-283J0D01*
G01*
X23029D02*
G03*
X23029Y51080I-283J0D01*
G01*
D12*
X87105Y52694D02*
G03*
X87105Y52694I-50J0D01*
G01*
X73669Y46360D02*
G03*
X73669Y46360I-50J0D01*
G01*
X84968Y8439D02*
G03*
X84968Y8518I0J39D01*
G01*
D02*
G03*
X84968Y8439I0J-39D01*
G01*
X74549Y12762D02*
G03*
X74549Y12683I0J-39D01*
G01*
D02*
G03*
X74549Y12762I0J39D01*
G01*
D13*
X56829Y93356D02*
G03*
X56790Y93356I-20J0D01*
G01*
D02*
G03*
X56829Y93356I20J0D01*
G01*
X62480D02*
G03*
X62441Y93356I-20J0D01*
G01*
D02*
G03*
X62480Y93356I20J0D01*
G01*
X68150Y93415D02*
G03*
X68110Y93415I-20J0D01*
G01*
D02*
G03*
X68150Y93415I20J0D01*
G01*
X10984Y70846D02*
G03*
X10945Y70846I-20J0D01*
G01*
D02*
G03*
X10984Y70846I20J0D01*
G01*
X37185Y64606D02*
G03*
X37185Y64567I0J-20D01*
G01*
D02*
G03*
X37185Y64606I0J20D01*
G01*
X2441Y12118D02*
G03*
X2441Y12079I0J-20D01*
G01*
D02*
G03*
X2441Y12118I0J20D01*
G01*
X37108Y90368D02*
Y91549D01*
X32927D02*
X37108D01*
X32927Y90368D02*
Y91549D01*
Y90368D02*
X37108D01*
X62096Y54001D02*
Y54395D01*
Y54001D02*
X63179D01*
Y54788D01*
X62096D02*
X63179D01*
X62096Y54395D02*
Y54788D01*
X83720Y50541D02*
X84508D01*
X83533Y51133D02*
X84508D01*
X76205Y42457D02*
Y44858D01*
Y42457D02*
X80744D01*
Y44858D01*
X76205D02*
X80744D01*
X73679Y17435D02*
X83679D01*
X73679D02*
Y37435D01*
X83679D01*
Y17435D02*
Y37435D01*
X71559Y38362D02*
X73961D01*
Y42901D01*
X71559D02*
X73961D01*
X71559Y38362D02*
Y42901D01*
X43130Y20374D02*
X49823D01*
Y17106D02*
Y20374D01*
X43130Y17106D02*
X49823D01*
X43130D02*
Y20374D01*
X42972Y37224D02*
X49665D01*
Y33957D02*
Y37224D01*
X42972Y33957D02*
X49665D01*
X42972D02*
Y37224D01*
Y25531D02*
Y28799D01*
Y25531D02*
X49665D01*
Y28799D01*
X42972D02*
X49665D01*
X551Y12646D02*
X5472D01*
Y20142D01*
X551D02*
X5472D01*
X551Y12646D02*
Y20142D01*
D14*
X84191Y18380D02*
G03*
X84230Y18380I20J0D01*
G01*
D02*
G03*
X84191Y18380I-20J0D01*
G01*
D15*
X81906Y43274D02*
G03*
X81906Y43274I-79J0D01*
G01*
D16*
X80306Y54835D02*
G03*
X80306Y54835I-31J0D01*
G01*
X76938Y54970D02*
G03*
X76938Y54970I-31J0D01*
G01*
X84805Y51744D02*
X86805D01*
X84805Y52744D02*
X86805D01*
X84805Y52244D02*
Y52744D01*
Y51744D02*
Y52244D01*
X86805Y51744D02*
Y52244D01*
Y52744D01*
X72669Y46610D02*
Y48610D01*
X73669Y46610D02*
Y48610D01*
X73169D02*
X73669D01*
X72669D02*
X73169D01*
X72669Y46610D02*
X73169D01*
X73669D01*
X46738Y58866D02*
X84927D01*
Y84850D01*
X46738D02*
X84927D01*
X46738Y58866D02*
Y84850D01*
X81201Y55945D02*
X81594D01*
X81201Y54843D02*
X81594D01*
X80768Y55315D02*
Y55472D01*
X82028Y55315D02*
Y55472D01*
X75797Y55896D02*
Y56289D01*
X76900Y55896D02*
Y56289D01*
X76270Y55463D02*
X76427D01*
X76270Y56722D02*
X76427D01*
X27347Y91039D02*
Y91638D01*
X27647D01*
X27747Y91539D01*
Y91339D01*
X27647Y91239D01*
X27347D01*
X28346Y91539D02*
X28246Y91638D01*
X28047D01*
X27947Y91539D01*
Y91139D01*
X28047Y91039D01*
X28246D01*
X28346Y91139D01*
X28546Y91638D02*
Y91039D01*
X28846D01*
X28946Y91139D01*
Y91239D01*
X28846Y91339D01*
X28546D01*
X28846D01*
X28946Y91439D01*
Y91539D01*
X28846Y91638D01*
X28546D01*
X29146Y91039D02*
X29346D01*
X29246D01*
Y91638D01*
X29146Y91539D01*
X1561Y28234D02*
Y27634D01*
X1861D01*
X1961Y27734D01*
Y27834D01*
X1861Y27934D01*
X1561D01*
X1861D01*
X1961Y28034D01*
Y28134D01*
X1861Y28234D01*
X1561D01*
X2161Y27634D02*
Y28034D01*
X2361Y28234D01*
X2561Y28034D01*
Y27634D01*
Y27934D01*
X2161D01*
X2761Y28234D02*
X3161D01*
X2961D01*
Y27634D01*
X3361Y27934D02*
X3761D01*
X3961D02*
X4360D01*
X6463Y36393D02*
Y35793D01*
X6763D01*
X6863Y35893D01*
Y35993D01*
X6763Y36093D01*
X6463D01*
X6763D01*
X6863Y36193D01*
Y36293D01*
X6763Y36393D01*
X6463D01*
X7063Y35793D02*
Y36193D01*
X7263Y36393D01*
X7463Y36193D01*
Y35793D01*
Y36093D01*
X7063D01*
X7662Y36393D02*
X8062D01*
X7862D01*
Y35793D01*
X8262Y36093D02*
X8662D01*
X8462Y36293D02*
Y35893D01*
X8862Y36093D02*
X9262D01*
X9062Y36293D02*
Y35893D01*
X83205Y52350D02*
X83105Y52450D01*
X82905D01*
X82805Y52350D01*
Y51950D01*
X82905Y51850D01*
X83105D01*
X83205Y51950D01*
Y52150D01*
X83005D01*
X83405Y51850D02*
Y52450D01*
X83805Y51850D01*
Y52450D01*
X84005D02*
Y51850D01*
X84305D01*
X84405Y51950D01*
Y52350D01*
X84305Y52450D01*
X84005D01*
X87052Y49833D02*
Y50233D01*
X86853Y50033D02*
X87252D01*
Y50432D02*
X87352Y50532D01*
Y50732D01*
X87252Y50832D01*
X86853D01*
X86753Y50732D01*
Y50532D01*
X86853Y50432D01*
X86952D01*
X87052Y50532D01*
Y50832D01*
X86753Y51032D02*
X87152D01*
X87352Y51232D01*
X87152Y51432D01*
X86753D01*
X58135Y53380D02*
Y53780D01*
X57935Y53580D02*
X58335D01*
X57835Y53980D02*
X58435D01*
Y54380D01*
X57835Y54879D02*
Y54679D01*
X57935Y54580D01*
X58335D01*
X58435Y54679D01*
Y54879D01*
X58335Y54979D01*
X57935D01*
X57835Y54879D01*
X57735Y4080D02*
Y4480D01*
X57535Y4280D02*
X57935D01*
X57435Y4680D02*
X58035D01*
X57735D01*
Y5080D01*
X57435D01*
X58035D01*
X57435Y5280D02*
Y5479D01*
Y5379D01*
X58035D01*
Y5280D01*
Y5479D01*
X67120Y53250D02*
Y53649D01*
X66820Y53849D02*
X67420D01*
Y54249D01*
X66820Y54749D02*
Y54549D01*
X66920Y54449D01*
X67320D01*
X67420Y54549D01*
Y54749D01*
X67320Y54849D01*
X66920D01*
X66820Y54749D01*
X67206Y4080D02*
Y4480D01*
X66906Y4680D02*
X67506D01*
X67206D01*
Y5080D01*
X66906D01*
X67506D01*
X66906Y5280D02*
Y5479D01*
Y5379D01*
X67506D01*
Y5280D01*
Y5479D01*
X39641Y53380D02*
Y53780D01*
X39441Y53580D02*
X39841D01*
X39341Y53980D02*
X39941D01*
Y54380D01*
X39341Y54879D02*
Y54679D01*
X39441Y54580D01*
X39841D01*
X39941Y54679D01*
Y54879D01*
X39841Y54979D01*
X39441D01*
X39341Y54879D01*
X39241Y4080D02*
Y4480D01*
X39041Y4280D02*
X39441D01*
X38941Y4680D02*
X39541D01*
X39241D01*
Y5080D01*
X38941D01*
X39541D01*
X38941Y5280D02*
Y5479D01*
Y5379D01*
X39541D01*
Y5280D01*
Y5479D01*
X48626Y53250D02*
Y53649D01*
X48326Y53849D02*
X48926D01*
Y54249D01*
X48326Y54749D02*
Y54549D01*
X48426Y54449D01*
X48826D01*
X48926Y54549D01*
Y54749D01*
X48826Y54849D01*
X48426D01*
X48326Y54749D01*
X48712Y4080D02*
Y4480D01*
X48412Y4680D02*
X49012D01*
X48712D01*
Y5080D01*
X48412D01*
X49012D01*
X48412Y5280D02*
Y5479D01*
Y5379D01*
X49012D01*
Y5280D01*
Y5479D01*
X21147Y53380D02*
Y53780D01*
X20947Y53580D02*
X21346D01*
X20847Y53980D02*
X21446D01*
Y54380D01*
X20847Y54879D02*
Y54679D01*
X20947Y54580D01*
X21346D01*
X21446Y54679D01*
Y54879D01*
X21346Y54979D01*
X20947D01*
X20847Y54879D01*
X20747Y4080D02*
Y4480D01*
X20547Y4280D02*
X20947D01*
X20447Y4680D02*
X21046D01*
X20747D01*
Y5080D01*
X20447D01*
X21046D01*
X20447Y5280D02*
Y5479D01*
Y5379D01*
X21046D01*
Y5280D01*
Y5479D01*
X30132Y53250D02*
Y53649D01*
X29832Y53849D02*
X30432D01*
Y54249D01*
X29832Y54749D02*
Y54549D01*
X29932Y54449D01*
X30332D01*
X30432Y54549D01*
Y54749D01*
X30332Y54849D01*
X29932D01*
X29832Y54749D01*
X30218Y4080D02*
Y4480D01*
X29918Y4680D02*
X30518D01*
X30218D01*
Y5080D01*
X29918D01*
X30518D01*
X29918Y5280D02*
Y5479D01*
Y5379D01*
X30518D01*
Y5280D01*
Y5479D01*
X71663Y93337D02*
Y92737D01*
X71363D01*
X71264Y92837D01*
Y93037D01*
X71363Y93137D01*
X71663D01*
X71463D02*
X71264Y93337D01*
X71064D02*
X70864D01*
X70964D01*
Y92937D01*
X71064D01*
X70364Y93537D02*
X70264D01*
X70164Y93437D01*
Y92937D01*
X70464D01*
X70564Y93037D01*
Y93237D01*
X70464Y93337D01*
X70164D01*
X69964Y92737D02*
Y93337D01*
Y93037D01*
X69864Y92937D01*
X69664D01*
X69564Y93037D01*
Y93337D01*
X69264Y92837D02*
Y92937D01*
X69364D01*
X69164D01*
X69264D01*
Y93237D01*
X69164Y93337D01*
X64336Y92884D02*
X64536D01*
X64636Y92984D01*
Y93384D01*
X64536Y93484D01*
X64336D01*
X64236Y93384D01*
Y92984D01*
X64336Y92884D01*
X64036D02*
Y93484D01*
Y93284D01*
X63636Y92884D01*
X63936Y93184D01*
X63636Y93484D01*
X59626Y92835D02*
Y93435D01*
X59226D01*
X58726D02*
X58926D01*
X59026Y93335D01*
Y93135D01*
X58926Y93035D01*
X58726D01*
X58626Y93135D01*
Y93235D01*
X59026D01*
X58326Y93435D02*
Y92935D01*
Y93135D01*
X58426D01*
X58226D01*
X58326D01*
Y92935D01*
X58226Y92835D01*
X57827Y92935D02*
Y93035D01*
X57927D01*
X57727D01*
X57827D01*
Y93335D01*
X57727Y93435D01*
X56423Y1850D02*
X56024D01*
X56423Y2250D01*
Y2350D01*
X56324Y2450D01*
X56124D01*
X56024Y2350D01*
X56623D02*
X56723Y2450D01*
X56923D01*
X57023Y2350D01*
Y1950D01*
X56923Y1850D01*
X56723D01*
X56623Y1950D01*
Y2350D01*
X57623Y1850D02*
X57223D01*
X57623Y2250D01*
Y2350D01*
X57523Y2450D01*
X57323D01*
X57223Y2350D01*
X57823D02*
X57923Y2450D01*
X58123D01*
X58223Y2350D01*
Y2250D01*
X58123Y2150D01*
X58023D01*
X58123D01*
X58223Y2050D01*
Y1950D01*
X58123Y1850D01*
X57923D01*
X57823Y1950D01*
X56142Y2756D02*
Y3356D01*
X56442D01*
X56542Y3256D01*
Y3056D01*
X56442Y2956D01*
X56142D01*
X56742Y2756D02*
Y3356D01*
X57041D01*
X57141Y3256D01*
Y3056D01*
X57041Y2956D01*
X56742D01*
X56941D02*
X57141Y2756D01*
X57741Y3356D02*
X57341D01*
Y2756D01*
X57741D01*
X57341Y3056D02*
X57541D01*
X57941Y3356D02*
Y2756D01*
X58241D01*
X58341Y2856D01*
Y3256D01*
X58241Y3356D01*
X57941D01*
X58541Y2756D02*
Y3156D01*
X58741Y3356D01*
X58941Y3156D01*
Y2756D01*
Y3056D01*
X58541D01*
X59141Y3356D02*
X59541D01*
X59341D01*
Y2756D01*
X60140Y3356D02*
X59741D01*
Y2756D01*
X60140D01*
X59741Y3056D02*
X59941D01*
X60940Y2756D02*
Y3356D01*
X61240D01*
X61340Y3256D01*
Y3056D01*
X61240Y2956D01*
X60940D01*
X61540Y2756D02*
Y3356D01*
X61840D01*
X61940Y3256D01*
Y3056D01*
X61840Y2956D01*
X61540D01*
X61740D02*
X61940Y2756D01*
X62440Y3356D02*
X62240D01*
X62140Y3256D01*
Y2856D01*
X62240Y2756D01*
X62440D01*
X62540Y2856D01*
Y3256D01*
X62440Y3356D01*
X63139D02*
X62940D01*
X63039D01*
Y2856D01*
X62940Y2756D01*
X62840D01*
X62740Y2856D01*
X63739Y3356D02*
X63339D01*
Y2756D01*
X63739D01*
X63339Y3056D02*
X63539D01*
X64339Y3256D02*
X64239Y3356D01*
X64039D01*
X63939Y3256D01*
Y2856D01*
X64039Y2756D01*
X64239D01*
X64339Y2856D01*
X64539Y3356D02*
X64939D01*
X64739D01*
Y2756D01*
X66039Y3356D02*
X65839D01*
X65739Y3256D01*
Y2856D01*
X65839Y2756D01*
X66039D01*
X66139Y2856D01*
Y3256D01*
X66039Y3356D01*
X66338Y2756D02*
Y3156D01*
X66638D01*
X66738Y3056D01*
Y2756D01*
X66938Y3356D02*
Y2756D01*
X67238D01*
X67338Y2856D01*
Y2956D01*
X67238Y3056D01*
X66938D01*
X67238D01*
X67338Y3156D01*
Y3256D01*
X67238Y3356D01*
X66938D01*
X67638Y2756D02*
X67838D01*
X67938Y2856D01*
Y3056D01*
X67838Y3156D01*
X67638D01*
X67538Y3056D01*
Y2856D01*
X67638Y2756D01*
X68238Y3156D02*
X68438D01*
X68538Y3056D01*
Y2756D01*
X68238D01*
X68138Y2856D01*
X68238Y2956D01*
X68538D01*
X68738Y3156D02*
Y2756D01*
Y2956D01*
X68838Y3056D01*
X68938Y3156D01*
X69038D01*
X69737Y3356D02*
Y2756D01*
X69437D01*
X69337Y2856D01*
Y3056D01*
X69437Y3156D01*
X69737D01*
X70537Y3356D02*
Y2956D01*
X70737Y2756D01*
X70937Y2956D01*
Y3356D01*
X71537Y2756D02*
X71137D01*
X71537Y3156D01*
Y3256D01*
X71437Y3356D01*
X71237D01*
X71137Y3256D01*
X1896Y21209D02*
X1796Y21308D01*
X1596D01*
X1496Y21209D01*
Y20809D01*
X1596Y20709D01*
X1796D01*
X1896Y20809D01*
Y21009D01*
X1696D01*
X2096Y20709D02*
Y21308D01*
X2496Y20709D01*
Y21308D01*
X2696D02*
Y20709D01*
X2996D01*
X3096Y20809D01*
Y21209D01*
X2996Y21308D01*
X2696D01*
X3295Y20609D02*
X3695D01*
X3895Y21209D02*
X3995Y21308D01*
X4195D01*
X4295Y21209D01*
Y21109D01*
X4195Y21009D01*
X4295Y20909D01*
Y20809D01*
X4195Y20709D01*
X3995D01*
X3895Y20809D01*
Y20909D01*
X3995Y21009D01*
X3895Y21109D01*
Y21209D01*
X3995Y21009D02*
X4195D01*
X4495Y21209D02*
X4595Y21308D01*
X4795D01*
X4895Y21209D01*
Y20809D01*
X4795Y20709D01*
X4595D01*
X4495Y20809D01*
Y21209D01*
X5095D02*
X5195Y21308D01*
X5395D01*
X5495Y21209D01*
Y20809D01*
X5395Y20709D01*
X5195D01*
X5095Y20809D01*
Y21209D01*
X2520Y11048D02*
X2920D01*
X2720Y11248D02*
Y10848D01*
X3119Y11248D02*
X3219Y11348D01*
X3419D01*
X3519Y11248D01*
Y11148D01*
X3419Y11048D01*
X3519Y10948D01*
Y10848D01*
X3419Y10748D01*
X3219D01*
X3119Y10848D01*
Y10948D01*
X3219Y11048D01*
X3119Y11148D01*
Y11248D01*
X3219Y11048D02*
X3419D01*
X3719Y11248D02*
X3819Y11348D01*
X4019D01*
X4119Y11248D01*
Y10848D01*
X4019Y10748D01*
X3819D01*
X3719Y10848D01*
Y11248D01*
X4319D02*
X4419Y11348D01*
X4619D01*
X4719Y11248D01*
Y10848D01*
X4619Y10748D01*
X4419D01*
X4319Y10848D01*
Y11248D01*
X4919Y11348D02*
Y10948D01*
X5119Y10748D01*
X5319Y10948D01*
Y11348D01*
X2053Y90027D02*
X1953Y90127D01*
X1754D01*
X1654Y90027D01*
Y89628D01*
X1754Y89528D01*
X1953D01*
X2053Y89628D01*
Y89827D01*
X1853D01*
X2253Y89528D02*
Y90127D01*
X2653Y89528D01*
Y90127D01*
X2853D02*
Y89528D01*
X3153D01*
X3253Y89628D01*
Y90027D01*
X3153Y90127D01*
X2853D01*
X3453Y89428D02*
X3853D01*
X4353Y89528D02*
Y90127D01*
X4053Y89827D01*
X4453D01*
X4653Y90027D02*
X4753Y90127D01*
X4952D01*
X5052Y90027D01*
Y89927D01*
X4952Y89827D01*
X5052Y89727D01*
Y89628D01*
X4952Y89528D01*
X4753D01*
X4653Y89628D01*
Y89727D01*
X4753Y89827D01*
X4653Y89927D01*
Y90027D01*
X4753Y89827D02*
X4952D01*
X1796Y79094D02*
Y79694D01*
X1496Y79394D01*
X1896D01*
X2096Y79594D02*
X2196Y79694D01*
X2396D01*
X2496Y79594D01*
Y79494D01*
X2396Y79394D01*
X2496Y79294D01*
Y79194D01*
X2396Y79094D01*
X2196D01*
X2096Y79194D01*
Y79294D01*
X2196Y79394D01*
X2096Y79494D01*
Y79594D01*
X2196Y79394D02*
X2396D01*
X2696Y79694D02*
Y79294D01*
X2896Y79094D01*
X3096Y79294D01*
Y79694D01*
X3895D02*
Y79094D01*
X4195D01*
X4295Y79194D01*
Y79294D01*
X4195Y79394D01*
X3895D01*
X4195D01*
X4295Y79494D01*
Y79594D01*
X4195Y79694D01*
X3895D01*
X4495Y79494D02*
Y79194D01*
X4595Y79094D01*
X4895D01*
Y79494D01*
X5095Y79094D02*
X5395D01*
X5495Y79194D01*
X5395Y79294D01*
X5195D01*
X5095Y79394D01*
X5195Y79494D01*
X5495D01*
X10841Y88860D02*
Y89460D01*
X11141D01*
X11241Y89360D01*
Y89160D01*
X11141Y89060D01*
X10841D01*
X11841Y89360D02*
X11741Y89460D01*
X11541D01*
X11441Y89360D01*
Y88960D01*
X11541Y88860D01*
X11741D01*
X11841Y88960D01*
X12041Y89460D02*
Y88860D01*
X12341D01*
X12441Y88960D01*
Y89060D01*
X12341Y89160D01*
X12041D01*
X12341D01*
X12441Y89260D01*
Y89360D01*
X12341Y89460D01*
X12041D01*
X12641Y89360D02*
X12741Y89460D01*
X12941D01*
X13041Y89360D01*
Y89260D01*
X12941Y89160D01*
X12841D01*
X12941D01*
X13041Y89060D01*
Y88960D01*
X12941Y88860D01*
X12741D01*
X12641Y88960D01*
X62173Y55110D02*
Y55710D01*
X62473D01*
X62573Y55610D01*
Y55410D01*
X62473Y55310D01*
X62173D01*
X62373D02*
X62573Y55110D01*
X63172Y55710D02*
X62973Y55610D01*
X62773Y55410D01*
Y55210D01*
X62873Y55110D01*
X63073D01*
X63172Y55210D01*
Y55310D01*
X63073Y55410D01*
X62773D01*
X63372Y55610D02*
X63472Y55710D01*
X63672D01*
X63772Y55610D01*
Y55510D01*
X63672Y55410D01*
X63772Y55310D01*
Y55210D01*
X63672Y55110D01*
X63472D01*
X63372Y55210D01*
Y55310D01*
X63472Y55410D01*
X63372Y55510D01*
Y55610D01*
X63472Y55410D02*
X63672D01*
X85256Y53640D02*
X85157Y53740D01*
X84957D01*
X84857Y53640D01*
Y53240D01*
X84957Y53140D01*
X85157D01*
X85256Y53240D01*
X85756Y53740D02*
X85556D01*
X85456Y53640D01*
Y53240D01*
X85556Y53140D01*
X85756D01*
X85856Y53240D01*
Y53640D01*
X85756Y53740D01*
X86056Y53140D02*
Y53740D01*
X86456Y53140D01*
Y53740D01*
X86656Y53640D02*
X86756Y53740D01*
X86956D01*
X87056Y53640D01*
Y53540D01*
X86956Y53440D01*
X86856D01*
X86956D01*
X87056Y53340D01*
Y53240D01*
X86956Y53140D01*
X86756D01*
X86656Y53240D01*
X73122Y49463D02*
X73022Y49563D01*
X72822D01*
X72722Y49463D01*
Y49063D01*
X72822Y48963D01*
X73022D01*
X73122Y49063D01*
X73622Y49563D02*
X73422D01*
X73322Y49463D01*
Y49063D01*
X73422Y48963D01*
X73622D01*
X73722Y49063D01*
Y49463D01*
X73622Y49563D01*
X73922Y48963D02*
Y49563D01*
X74322Y48963D01*
Y49563D01*
X74921Y48963D02*
X74521D01*
X74921Y49363D01*
Y49463D01*
X74821Y49563D01*
X74621D01*
X74521Y49463D01*
X85617Y51358D02*
Y51634D01*
X85755D01*
X85801Y51588D01*
Y51496D01*
X85755Y51450D01*
X85617D01*
X85709D02*
X85801Y51358D01*
X85892Y51634D02*
X86076D01*
Y51588D01*
X85892Y51404D01*
Y51358D01*
X86168Y51588D02*
X86214Y51634D01*
X86306D01*
X86352Y51588D01*
Y51404D01*
X86306Y51358D01*
X86214D01*
X86168Y51404D01*
Y51588D01*
X81360Y49748D02*
Y50024D01*
X81498D01*
X81544Y49978D01*
Y49886D01*
X81498Y49840D01*
X81360D01*
X81819Y49978D02*
X81773Y50024D01*
X81681D01*
X81636Y49978D01*
Y49932D01*
X81681Y49886D01*
X81773D01*
X81819Y49840D01*
Y49794D01*
X81773Y49748D01*
X81681D01*
X81636Y49794D01*
X82095Y50024D02*
X81911D01*
Y49886D01*
X82003Y49932D01*
X82049D01*
X82095Y49886D01*
Y49794D01*
X82049Y49748D01*
X81957D01*
X81911Y49794D01*
X82034Y50787D02*
Y50512D01*
X82218D01*
X82493Y50787D02*
X82310D01*
Y50512D01*
X82493D01*
X82310Y50650D02*
X82402D01*
X82585Y50787D02*
Y50512D01*
X82723D01*
X82769Y50558D01*
Y50741D01*
X82723Y50787D01*
X82585D01*
X82861D02*
X83044D01*
Y50741D01*
X82861Y50558D01*
Y50512D01*
X46336Y85197D02*
Y85796D01*
X46536Y85597D01*
X46736Y85796D01*
Y85197D01*
X47336Y85696D02*
X47236Y85796D01*
X47036D01*
X46936Y85696D01*
Y85297D01*
X47036Y85197D01*
X47236D01*
X47336Y85297D01*
X47536Y85796D02*
Y85297D01*
X47636Y85197D01*
X47836D01*
X47936Y85297D01*
Y85796D01*
X48136Y85197D02*
X48336D01*
X48236D01*
Y85796D01*
X48136Y85696D01*
X5204Y75305D02*
Y74705D01*
X5504D01*
X5604Y74805D01*
Y74905D01*
X5504Y75005D01*
X5204D01*
X5504D01*
X5604Y75105D01*
Y75205D01*
X5504Y75305D01*
X5204D01*
X5804Y74705D02*
X6004D01*
X5904D01*
Y75305D01*
X5804Y75205D01*
X74600Y16502D02*
X74200D01*
Y16202D01*
X74400D01*
X74200D01*
Y15902D01*
X75100D02*
Y16502D01*
X74800Y16202D01*
X75200D01*
X1834Y26809D02*
X1635D01*
X1735D01*
Y26309D01*
X1635Y26209D01*
X1535D01*
X1435Y26309D01*
X2334Y26209D02*
Y26809D01*
X2034Y26509D01*
X2434D01*
X2228Y38738D02*
X2028D01*
X2128D01*
Y38239D01*
X2028Y38139D01*
X1928D01*
X1828Y38239D01*
X2428Y38638D02*
X2528Y38738D01*
X2728D01*
X2828Y38638D01*
Y38538D01*
X2728Y38439D01*
X2628D01*
X2728D01*
X2828Y38339D01*
Y38239D01*
X2728Y38139D01*
X2528D01*
X2428Y38239D01*
X5754Y87450D02*
X5554D01*
X5654D01*
Y86950D01*
X5554Y86850D01*
X5454D01*
X5354Y86950D01*
X6354Y86850D02*
X5954D01*
X6354Y87250D01*
Y87350D01*
X6254Y87450D01*
X6054D01*
X5954Y87350D01*
X5951Y82332D02*
X5751D01*
X5851D01*
Y81832D01*
X5751Y81732D01*
X5651D01*
X5551Y81832D01*
X6151Y81732D02*
X6351D01*
X6251D01*
Y82332D01*
X6151Y82232D01*
X36260Y68189D02*
X36352D01*
X36306D01*
Y67913D01*
X36260D01*
X36352D01*
X36673Y68143D02*
X36627Y68189D01*
X36535D01*
X36489Y68143D01*
Y67959D01*
X36535Y67913D01*
X36627D01*
X36673Y67959D01*
X36949Y68189D02*
X36857Y68143D01*
X36765Y68051D01*
Y67959D01*
X36811Y67913D01*
X36903D01*
X36949Y67959D01*
Y68005D01*
X36903Y68051D01*
X36765D01*
X71978Y32172D02*
X71703D01*
Y32310D01*
X71749Y32356D01*
X71841D01*
X71886Y32310D01*
Y32172D01*
X71749Y32631D02*
X71703Y32585D01*
Y32493D01*
X71749Y32448D01*
X71795D01*
X71841Y32493D01*
Y32585D01*
X71886Y32631D01*
X71932D01*
X71978Y32585D01*
Y32493D01*
X71932Y32448D01*
X71978Y32907D02*
Y32723D01*
X71795Y32907D01*
X71749D01*
X71703Y32861D01*
Y32769D01*
X71749Y32723D01*
X81404Y16027D02*
X81358Y16073D01*
X81266D01*
X81221Y16027D01*
Y15843D01*
X81266Y15797D01*
X81358D01*
X81404Y15843D01*
X81496Y15797D02*
X81588D01*
X81542D01*
Y16073D01*
X81496Y16027D01*
X81909Y15797D02*
X81726D01*
X81909Y15981D01*
Y16027D01*
X81863Y16073D01*
X81772D01*
X81726Y16027D01*
X42820Y21098D02*
Y21374D01*
X42912Y21282D01*
X43004Y21374D01*
Y21098D01*
X43095Y21328D02*
X43141Y21374D01*
X43233D01*
X43279Y21328D01*
Y21282D01*
X43233Y21236D01*
X43187D01*
X43233D01*
X43279Y21190D01*
Y21144D01*
X43233Y21098D01*
X43141D01*
X43095Y21144D01*
X42660Y37948D02*
Y38224D01*
X42752Y38132D01*
X42844Y38224D01*
Y37948D01*
X42936D02*
X43027D01*
X42981D01*
Y38224D01*
X42936Y38178D01*
X21684Y32176D02*
X21500D01*
Y32039D01*
X21592D01*
X21500D01*
Y31901D01*
X21959D02*
X21776D01*
X21959Y32085D01*
Y32130D01*
X21913Y32176D01*
X21821D01*
X21776Y32130D01*
X86467Y40256D02*
X86742D01*
Y40440D01*
X86467Y40715D02*
Y40531D01*
X86604D01*
X86558Y40623D01*
Y40669D01*
X86604Y40715D01*
X86696D01*
X86742Y40669D01*
Y40577D01*
X86696Y40531D01*
X85174Y42828D02*
X85128Y42874D01*
X85036D01*
X84990Y42828D01*
Y42644D01*
X85036Y42598D01*
X85128D01*
X85174Y42644D01*
X85449Y42874D02*
X85357Y42828D01*
X85266Y42736D01*
Y42644D01*
X85312Y42598D01*
X85403D01*
X85449Y42644D01*
Y42690D01*
X85403Y42736D01*
X85266D01*
X85541Y42598D02*
X85633D01*
X85587D01*
Y42874D01*
X85541Y42828D01*
X83914Y49954D02*
X83868Y50000D01*
X83776D01*
X83730Y49954D01*
Y49770D01*
X83776Y49724D01*
X83868D01*
X83914Y49770D01*
X84189Y50000D02*
X84098Y49954D01*
X84006Y49862D01*
Y49770D01*
X84052Y49724D01*
X84144D01*
X84189Y49770D01*
Y49816D01*
X84144Y49862D01*
X84006D01*
X84281Y49954D02*
X84327Y50000D01*
X84419D01*
X84465Y49954D01*
Y49770D01*
X84419Y49724D01*
X84327D01*
X84281Y49770D01*
Y49954D01*
X84741Y37001D02*
X84695Y37047D01*
X84603D01*
X84557Y37001D01*
Y36818D01*
X84603Y36772D01*
X84695D01*
X84741Y36818D01*
X85016Y37047D02*
X84833D01*
Y36909D01*
X84924Y36955D01*
X84970D01*
X85016Y36909D01*
Y36818D01*
X84970Y36772D01*
X84879D01*
X84833Y36818D01*
X85108D02*
X85154Y36772D01*
X85246D01*
X85292Y36818D01*
Y37001D01*
X85246Y37047D01*
X85154D01*
X85108Y37001D01*
Y36955D01*
X85154Y36909D01*
X85292D01*
X41220Y90866D02*
X41496D01*
X41404Y90774D01*
X41496Y90682D01*
X41220D01*
X41496Y90453D02*
Y90545D01*
X41450Y90591D01*
X41266D01*
X41220Y90545D01*
Y90453D01*
X41266Y90407D01*
X41450D01*
X41496Y90453D01*
X41450Y90131D02*
X41496Y90177D01*
Y90269D01*
X41450Y90315D01*
X41404D01*
X41358Y90269D01*
Y90177D01*
X41312Y90131D01*
X41266D01*
X41220Y90177D01*
Y90269D01*
X41266Y90315D01*
X41496Y89856D02*
Y90040D01*
X41358D01*
X41404Y89948D01*
Y89902D01*
X41358Y89856D01*
X41266D01*
X41220Y89902D01*
Y89994D01*
X41266Y90040D01*
X75920Y42173D02*
Y41898D01*
X76104D01*
X76333D02*
Y42173D01*
X76196Y42035D01*
X76379D01*
X74055Y38071D02*
Y37795D01*
X74239D01*
X74331Y38025D02*
X74377Y38071D01*
X74468D01*
X74514Y38025D01*
Y37979D01*
X74468Y37933D01*
X74422D01*
X74468D01*
X74514Y37887D01*
Y37841D01*
X74468Y37795D01*
X74377D01*
X74331Y37841D01*
X67891Y85453D02*
Y85728D01*
X68028D01*
X68074Y85682D01*
Y85591D01*
X68028Y85545D01*
X67891D01*
X67982D02*
X68074Y85453D01*
X68350Y85728D02*
X68258Y85682D01*
X68166Y85591D01*
Y85499D01*
X68212Y85453D01*
X68304D01*
X68350Y85499D01*
Y85545D01*
X68304Y85591D01*
X68166D01*
X68625Y85728D02*
X68533Y85682D01*
X68442Y85591D01*
Y85499D01*
X68487Y85453D01*
X68579D01*
X68625Y85499D01*
Y85545D01*
X68579Y85591D01*
X68442D01*
X62713Y85443D02*
Y85718D01*
X62851D01*
X62897Y85673D01*
Y85581D01*
X62851Y85535D01*
X62713D01*
X62805D02*
X62897Y85443D01*
X63173Y85718D02*
X63081Y85673D01*
X62989Y85581D01*
Y85489D01*
X63035Y85443D01*
X63127D01*
X63173Y85489D01*
Y85535D01*
X63127Y85581D01*
X62989D01*
X63448Y85718D02*
X63264D01*
Y85581D01*
X63356Y85627D01*
X63402D01*
X63448Y85581D01*
Y85489D01*
X63402Y85443D01*
X63310D01*
X63264Y85489D01*
X56542Y85354D02*
Y85630D01*
X56680D01*
X56726Y85584D01*
Y85492D01*
X56680Y85446D01*
X56542D01*
X56634D02*
X56726Y85354D01*
X57001Y85630D02*
X56909Y85584D01*
X56818Y85492D01*
Y85400D01*
X56864Y85354D01*
X56955D01*
X57001Y85400D01*
Y85446D01*
X56955Y85492D01*
X56818D01*
X57231Y85354D02*
Y85630D01*
X57093Y85492D01*
X57277D01*
X48878Y85941D02*
X49153D01*
Y85804D01*
X49108Y85758D01*
X49016D01*
X48970Y85804D01*
Y85941D01*
Y85850D02*
X48878Y85758D01*
X49153Y85482D02*
X49108Y85574D01*
X49016Y85666D01*
X48924D01*
X48878Y85620D01*
Y85528D01*
X48924Y85482D01*
X48970D01*
X49016Y85528D01*
Y85666D01*
X48878Y85390D02*
Y85299D01*
Y85345D01*
X49153D01*
X49108Y85390D01*
X48012Y91106D02*
X48287D01*
Y90968D01*
X48241Y90922D01*
X48150D01*
X48104Y90968D01*
Y91106D01*
Y91014D02*
X48012Y90922D01*
X48287Y90646D02*
X48241Y90738D01*
X48150Y90830D01*
X48058D01*
X48012Y90784D01*
Y90692D01*
X48058Y90646D01*
X48104D01*
X48150Y90692D01*
Y90830D01*
X48241Y90555D02*
X48287Y90509D01*
Y90417D01*
X48241Y90371D01*
X48058D01*
X48012Y90417D01*
Y90509D01*
X48058Y90555D01*
X48241D01*
X48012Y92641D02*
X48287D01*
Y92503D01*
X48241Y92457D01*
X48150D01*
X48104Y92503D01*
Y92641D01*
Y92549D02*
X48012Y92457D01*
X48287Y92182D02*
Y92365D01*
X48150D01*
X48196Y92274D01*
Y92228D01*
X48150Y92182D01*
X48058D01*
X48012Y92228D01*
Y92320D01*
X48058Y92365D01*
Y92090D02*
X48012Y92044D01*
Y91952D01*
X48058Y91906D01*
X48241D01*
X48287Y91952D01*
Y92044D01*
X48241Y92090D01*
X48196D01*
X48150Y92044D01*
Y91906D01*
X49941Y91184D02*
X50216D01*
Y91047D01*
X50171Y91001D01*
X50079D01*
X50033Y91047D01*
Y91184D01*
Y91092D02*
X49941Y91001D01*
X50216Y90725D02*
Y90909D01*
X50079D01*
X50125Y90817D01*
Y90771D01*
X50079Y90725D01*
X49987D01*
X49941Y90771D01*
Y90863D01*
X49987Y90909D01*
X50171Y90633D02*
X50216Y90587D01*
Y90496D01*
X50171Y90450D01*
X50125D01*
X50079Y90496D01*
X50033Y90450D01*
X49987D01*
X49941Y90496D01*
Y90587D01*
X49987Y90633D01*
X50033D01*
X50079Y90587D01*
X50125Y90633D01*
X50171D01*
X50079Y90587D02*
Y90496D01*
X50020Y85791D02*
X50295D01*
Y85653D01*
X50249Y85607D01*
X50157D01*
X50112Y85653D01*
Y85791D01*
Y85699D02*
X50020Y85607D01*
X50295Y85331D02*
Y85515D01*
X50157D01*
X50203Y85423D01*
Y85377D01*
X50157Y85331D01*
X50066D01*
X50020Y85377D01*
Y85469D01*
X50066Y85515D01*
X50295Y85240D02*
Y85056D01*
X50249D01*
X50066Y85240D01*
X50020D01*
X50177Y92995D02*
X50453D01*
Y92858D01*
X50407Y92812D01*
X50315D01*
X50269Y92858D01*
Y92995D01*
Y92903D02*
X50177Y92812D01*
X50453Y92536D02*
Y92720D01*
X50315D01*
X50361Y92628D01*
Y92582D01*
X50315Y92536D01*
X50223D01*
X50177Y92582D01*
Y92674D01*
X50223Y92720D01*
X50453Y92261D02*
X50407Y92352D01*
X50315Y92444D01*
X50223D01*
X50177Y92398D01*
Y92307D01*
X50223Y92261D01*
X50269D01*
X50315Y92307D01*
Y92444D01*
X81641Y57658D02*
Y57933D01*
X81778D01*
X81824Y57887D01*
Y57795D01*
X81778Y57749D01*
X81641D01*
X81732D02*
X81824Y57658D01*
X82100Y57933D02*
X81916D01*
Y57795D01*
X82008Y57841D01*
X82054D01*
X82100Y57795D01*
Y57703D01*
X82054Y57658D01*
X81962D01*
X81916Y57703D01*
X82375Y57933D02*
X82192D01*
Y57795D01*
X82283Y57841D01*
X82329D01*
X82375Y57795D01*
Y57703D01*
X82329Y57658D01*
X82237D01*
X82192Y57703D01*
X73146Y52913D02*
Y53189D01*
X73284D01*
X73330Y53143D01*
Y53051D01*
X73284Y53005D01*
X73146D01*
X73238D02*
X73330Y52913D01*
X73606Y53189D02*
X73422D01*
Y53051D01*
X73514Y53097D01*
X73560D01*
X73606Y53051D01*
Y52959D01*
X73560Y52913D01*
X73468D01*
X73422Y52959D01*
X73697Y53143D02*
X73743Y53189D01*
X73835D01*
X73881Y53143D01*
Y53097D01*
X73835Y53051D01*
X73789D01*
X73835D01*
X73881Y53005D01*
Y52959D01*
X73835Y52913D01*
X73743D01*
X73697Y52959D01*
X79751Y53484D02*
Y53760D01*
X79889D01*
X79934Y53714D01*
Y53622D01*
X79889Y53576D01*
X79751D01*
X79843D02*
X79934Y53484D01*
X80210Y53760D02*
X80026D01*
Y53622D01*
X80118Y53668D01*
X80164D01*
X80210Y53622D01*
Y53530D01*
X80164Y53484D01*
X80072D01*
X80026Y53530D01*
X80485Y53484D02*
X80302D01*
X80485Y53668D01*
Y53714D01*
X80440Y53760D01*
X80348D01*
X80302Y53714D01*
X80604Y57057D02*
Y57333D01*
X80742D01*
X80787Y57287D01*
Y57195D01*
X80742Y57149D01*
X80604D01*
X80696D02*
X80787Y57057D01*
X81063Y57333D02*
X80879D01*
Y57195D01*
X80971Y57241D01*
X81017D01*
X81063Y57195D01*
Y57103D01*
X81017Y57057D01*
X80925D01*
X80879Y57103D01*
X81155Y57057D02*
X81247D01*
X81201D01*
Y57333D01*
X81155Y57287D01*
X74406Y54360D02*
Y54636D01*
X74544D01*
X74590Y54590D01*
Y54498D01*
X74544Y54452D01*
X74406D01*
X74498D02*
X74590Y54360D01*
X74865Y54636D02*
X74682D01*
Y54498D01*
X74774Y54544D01*
X74820D01*
X74865Y54498D01*
Y54406D01*
X74820Y54360D01*
X74728D01*
X74682Y54406D01*
X74957Y54590D02*
X75003Y54636D01*
X75095D01*
X75141Y54590D01*
Y54406D01*
X75095Y54360D01*
X75003D01*
X74957Y54406D01*
Y54590D01*
X78517Y53622D02*
Y53347D01*
X78379D01*
X78333Y53392D01*
Y53484D01*
X78379Y53530D01*
X78517D01*
X78425D02*
X78333Y53622D01*
X78104D02*
Y53347D01*
X78241Y53484D01*
X78058D01*
X77966Y53576D02*
X77920Y53622D01*
X77828D01*
X77782Y53576D01*
Y53392D01*
X77828Y53347D01*
X77920D01*
X77966Y53392D01*
Y53438D01*
X77920Y53484D01*
X77782D01*
X78986Y53609D02*
X78711D01*
Y53747D01*
X78757Y53793D01*
X78848D01*
X78894Y53747D01*
Y53609D01*
Y53701D02*
X78986Y53793D01*
Y54022D02*
X78711D01*
X78848Y53885D01*
Y54068D01*
X78757Y54160D02*
X78711Y54206D01*
Y54298D01*
X78757Y54344D01*
X78803D01*
X78848Y54298D01*
X78894Y54344D01*
X78940D01*
X78986Y54298D01*
Y54206D01*
X78940Y54160D01*
X78894D01*
X78848Y54206D01*
X78803Y54160D01*
X78757D01*
X78848Y54206D02*
Y54298D01*
X72192Y53366D02*
Y53642D01*
X72329D01*
X72375Y53596D01*
Y53504D01*
X72329Y53458D01*
X72192D01*
X72284D02*
X72375Y53366D01*
X72605D02*
Y53642D01*
X72467Y53504D01*
X72651D01*
X72743Y53642D02*
X72926D01*
Y53596D01*
X72743Y53412D01*
Y53366D01*
X79367Y56969D02*
Y57244D01*
X79505D01*
X79551Y57198D01*
Y57106D01*
X79505Y57060D01*
X79367D01*
X79459D02*
X79551Y56969D01*
X79780D02*
Y57244D01*
X79642Y57106D01*
X79826D01*
X80102Y57244D02*
X80010Y57198D01*
X79918Y57106D01*
Y57014D01*
X79964Y56969D01*
X80056D01*
X80102Y57014D01*
Y57060D01*
X80056Y57106D01*
X79918D01*
X79367Y56171D02*
Y56447D01*
X79505D01*
X79551Y56401D01*
Y56309D01*
X79505Y56263D01*
X79367D01*
X79459D02*
X79551Y56171D01*
X79780D02*
Y56447D01*
X79642Y56309D01*
X79826D01*
X80102Y56447D02*
X79918D01*
Y56309D01*
X80010Y56355D01*
X80056D01*
X80102Y56309D01*
Y56217D01*
X80056Y56171D01*
X79964D01*
X79918Y56217D01*
X75879Y53533D02*
Y53258D01*
X75741D01*
X75695Y53304D01*
Y53396D01*
X75741Y53442D01*
X75879D01*
X75787D02*
X75695Y53533D01*
X75466D02*
Y53258D01*
X75604Y53396D01*
X75420D01*
X75190Y53533D02*
Y53258D01*
X75328Y53396D01*
X75144D01*
X76825Y53583D02*
Y53307D01*
X76687D01*
X76642Y53353D01*
Y53445D01*
X76687Y53491D01*
X76825D01*
X76733D02*
X76642Y53583D01*
X76412D02*
Y53307D01*
X76550Y53445D01*
X76366D01*
X76274Y53353D02*
X76228Y53307D01*
X76136D01*
X76090Y53353D01*
Y53399D01*
X76136Y53445D01*
X76182D01*
X76136D01*
X76090Y53491D01*
Y53537D01*
X76136Y53583D01*
X76228D01*
X76274Y53537D01*
X20105Y93957D02*
Y94232D01*
X20243D01*
X20289Y94186D01*
Y94094D01*
X20243Y94049D01*
X20105D01*
X20197D02*
X20289Y93957D01*
X20564D02*
X20381D01*
X20564Y94140D01*
Y94186D01*
X20518Y94232D01*
X20427D01*
X20381Y94186D01*
X20656Y94232D02*
X20840D01*
Y94186D01*
X20656Y94003D01*
Y93957D01*
X23399Y93091D02*
Y92815D01*
X23261D01*
X23215Y92861D01*
Y92953D01*
X23261Y92999D01*
X23399D01*
X23307D02*
X23215Y93091D01*
X22940D02*
X23123D01*
X22940Y92907D01*
Y92861D01*
X22986Y92815D01*
X23077D01*
X23123Y92861D01*
X22664Y92815D02*
X22848D01*
Y92953D01*
X22756Y92907D01*
X22710D01*
X22664Y92953D01*
Y93045D01*
X22710Y93091D01*
X22802D01*
X22848Y93045D01*
X35814Y71261D02*
Y71536D01*
X35952D01*
X35997Y71490D01*
Y71399D01*
X35952Y71353D01*
X35814D01*
X35906D02*
X35997Y71261D01*
X36273D02*
X36089D01*
X36273Y71444D01*
Y71490D01*
X36227Y71536D01*
X36135D01*
X36089Y71490D01*
X36365D02*
X36411Y71536D01*
X36503D01*
X36548Y71490D01*
Y71444D01*
X36503Y71399D01*
X36457D01*
X36503D01*
X36548Y71353D01*
Y71307D01*
X36503Y71261D01*
X36411D01*
X36365Y71307D01*
X37657Y71197D02*
X37382D01*
Y71335D01*
X37428Y71381D01*
X37520D01*
X37566Y71335D01*
Y71197D01*
Y71289D02*
X37657Y71381D01*
Y71657D02*
Y71473D01*
X37474Y71657D01*
X37428D01*
X37382Y71611D01*
Y71519D01*
X37428Y71473D01*
X37657Y71932D02*
Y71748D01*
X37474Y71932D01*
X37428D01*
X37382Y71886D01*
Y71794D01*
X37428Y71748D01*
X34757Y70571D02*
Y70846D01*
X34895D01*
X34941Y70800D01*
Y70709D01*
X34895Y70663D01*
X34757D01*
X34849D02*
X34941Y70571D01*
X35216D02*
X35033D01*
X35216Y70755D01*
Y70800D01*
X35171Y70846D01*
X35079D01*
X35033Y70800D01*
X35308Y70571D02*
X35400D01*
X35354D01*
Y70846D01*
X35308Y70800D01*
X36641Y72264D02*
Y72539D01*
X36778D01*
X36824Y72493D01*
Y72402D01*
X36778Y72356D01*
X36641D01*
X36732D02*
X36824Y72264D01*
X37100D02*
X36916D01*
X37100Y72447D01*
Y72493D01*
X37054Y72539D01*
X36962D01*
X36916Y72493D01*
X37192D02*
X37237Y72539D01*
X37329D01*
X37375Y72493D01*
Y72310D01*
X37329Y72264D01*
X37237D01*
X37192Y72310D01*
Y72493D01*
X72992Y44439D02*
Y44715D01*
X73130D01*
X73176Y44669D01*
Y44577D01*
X73130Y44531D01*
X72992D01*
X73084D02*
X73176Y44439D01*
X73268D02*
X73360D01*
X73314D01*
Y44715D01*
X73268Y44669D01*
X73497Y44485D02*
X73543Y44439D01*
X73635D01*
X73681Y44485D01*
Y44669D01*
X73635Y44715D01*
X73543D01*
X73497Y44669D01*
Y44623D01*
X73543Y44577D01*
X73681D01*
X63243Y53142D02*
Y53417D01*
X63381D01*
X63427Y53372D01*
Y53280D01*
X63381Y53234D01*
X63243D01*
X63335D02*
X63427Y53142D01*
X63519D02*
X63611D01*
X63565D01*
Y53417D01*
X63519Y53372D01*
X63932Y53142D02*
X63749D01*
X63932Y53326D01*
Y53372D01*
X63886Y53417D01*
X63794D01*
X63749Y53372D01*
X40876Y52321D02*
Y52596D01*
X41014D01*
X41060Y52550D01*
Y52458D01*
X41014Y52413D01*
X40876D01*
X40968D02*
X41060Y52321D01*
X41151D02*
X41243D01*
X41197D01*
Y52596D01*
X41151Y52550D01*
X41381D02*
X41427Y52596D01*
X41519D01*
X41565Y52550D01*
Y52367D01*
X41519Y52321D01*
X41427D01*
X41381Y52367D01*
Y52550D01*
X24470Y53205D02*
Y53480D01*
X24608D01*
X24654Y53434D01*
Y53342D01*
X24608Y53296D01*
X24470D01*
X24562D02*
X24654Y53205D01*
X24745Y53434D02*
X24791Y53480D01*
X24883D01*
X24929Y53434D01*
Y53388D01*
X24883Y53342D01*
X24929Y53296D01*
Y53251D01*
X24883Y53205D01*
X24791D01*
X24745Y53251D01*
Y53296D01*
X24791Y53342D01*
X24745Y53388D01*
Y53434D01*
X24791Y53342D02*
X24883D01*
X66936Y85433D02*
Y85709D01*
X67074D01*
X67119Y85663D01*
Y85571D01*
X67074Y85525D01*
X66936D01*
X67028D02*
X67119Y85433D01*
X67395Y85709D02*
X67211D01*
Y85571D01*
X67303Y85617D01*
X67349D01*
X67395Y85571D01*
Y85479D01*
X67349Y85433D01*
X67257D01*
X67211Y85479D01*
X61552Y85453D02*
Y85728D01*
X61690D01*
X61736Y85682D01*
Y85591D01*
X61690Y85545D01*
X61552D01*
X61644D02*
X61736Y85453D01*
X61965D02*
Y85728D01*
X61827Y85591D01*
X62011D01*
X55607Y85354D02*
Y85630D01*
X55745D01*
X55791Y85584D01*
Y85492D01*
X55745Y85446D01*
X55607D01*
X55699D02*
X55791Y85354D01*
X55883Y85584D02*
X55928Y85630D01*
X56020D01*
X56066Y85584D01*
Y85538D01*
X56020Y85492D01*
X55974D01*
X56020D01*
X56066Y85446D01*
Y85400D01*
X56020Y85354D01*
X55928D01*
X55883Y85400D01*
X85866Y38530D02*
X85591D01*
Y38668D01*
X85637Y38714D01*
X85728D01*
X85774Y38668D01*
Y38530D01*
Y38622D02*
X85866Y38714D01*
Y38989D02*
Y38806D01*
X85682Y38989D01*
X85637D01*
X85591Y38944D01*
Y38852D01*
X85637Y38806D01*
X80407Y46467D02*
Y46742D01*
X80545D01*
X80591Y46696D01*
Y46604D01*
X80545Y46558D01*
X80407D01*
X80499D02*
X80591Y46467D01*
X80682D02*
X80774D01*
X80728D01*
Y46742D01*
X80682Y46696D01*
X84382Y53924D02*
X84107D01*
X84199Y54016D01*
X84107Y54108D01*
X84382D01*
X84107Y54337D02*
Y54245D01*
X84153Y54200D01*
X84336D01*
X84382Y54245D01*
Y54337D01*
X84336Y54383D01*
X84153D01*
X84107Y54337D01*
X84153Y54659D02*
X84107Y54613D01*
Y54521D01*
X84153Y54475D01*
X84199D01*
X84244Y54521D01*
Y54613D01*
X84290Y54659D01*
X84336D01*
X84382Y54613D01*
Y54521D01*
X84336Y54475D01*
X84382Y54888D02*
X84107D01*
X84244Y54751D01*
Y54934D01*
X84350Y55174D02*
X84075D01*
X84167Y55266D01*
X84075Y55358D01*
X84350D01*
X84075Y55587D02*
Y55495D01*
X84121Y55450D01*
X84304D01*
X84350Y55495D01*
Y55587D01*
X84304Y55633D01*
X84121D01*
X84075Y55587D01*
X84121Y55909D02*
X84075Y55863D01*
Y55771D01*
X84121Y55725D01*
X84167D01*
X84213Y55771D01*
Y55863D01*
X84259Y55909D01*
X84304D01*
X84350Y55863D01*
Y55771D01*
X84304Y55725D01*
X84121Y56001D02*
X84075Y56046D01*
Y56138D01*
X84121Y56184D01*
X84167D01*
X84213Y56138D01*
Y56092D01*
Y56138D01*
X84259Y56184D01*
X84304D01*
X84350Y56138D01*
Y56046D01*
X84304Y56001D01*
X73402Y56949D02*
Y57224D01*
X73494Y57133D01*
X73586Y57224D01*
Y56949D01*
X73816Y57224D02*
X73724D01*
X73678Y57178D01*
Y56995D01*
X73724Y56949D01*
X73816D01*
X73862Y56995D01*
Y57178D01*
X73816Y57224D01*
X74137Y57178D02*
X74091Y57224D01*
X73999D01*
X73953Y57178D01*
Y57133D01*
X73999Y57087D01*
X74091D01*
X74137Y57041D01*
Y56995D01*
X74091Y56949D01*
X73999D01*
X73953Y56995D01*
X74413Y56949D02*
X74229D01*
X74413Y57133D01*
Y57178D01*
X74367Y57224D01*
X74275D01*
X74229Y57178D01*
X78947Y55850D02*
X78671D01*
X78763Y55942D01*
X78671Y56034D01*
X78947D01*
X78671Y56263D02*
Y56171D01*
X78717Y56125D01*
X78901D01*
X78947Y56171D01*
Y56263D01*
X78901Y56309D01*
X78717D01*
X78671Y56263D01*
X78717Y56585D02*
X78671Y56539D01*
Y56447D01*
X78717Y56401D01*
X78763D01*
X78809Y56447D01*
Y56539D01*
X78855Y56585D01*
X78901D01*
X78947Y56539D01*
Y56447D01*
X78901Y56401D01*
X78947Y56676D02*
Y56768D01*
Y56722D01*
X78671D01*
X78717Y56676D01*
X42660Y29518D02*
Y29794D01*
X42752Y29702D01*
X42844Y29794D01*
Y29518D01*
X43119D02*
X42936D01*
X43119Y29702D01*
Y29748D01*
X43073Y29794D01*
X42981D01*
X42936Y29748D01*
X71801Y55371D02*
X72077D01*
Y55555D01*
X71801Y55830D02*
Y55646D01*
X72077D01*
Y55830D01*
X71939Y55646D02*
Y55738D01*
X71801Y55922D02*
X72077D01*
Y56060D01*
X72031Y56106D01*
X71847D01*
X71801Y56060D01*
Y55922D01*
Y56381D02*
X71847Y56289D01*
X71939Y56197D01*
X72031D01*
X72077Y56243D01*
Y56335D01*
X72031Y56381D01*
X71985D01*
X71939Y56335D01*
Y56197D01*
X80902Y56417D02*
Y56142D01*
X81086D01*
X81362Y56417D02*
X81178D01*
Y56142D01*
X81362D01*
X81178Y56280D02*
X81270D01*
X81453Y56417D02*
Y56142D01*
X81591D01*
X81637Y56188D01*
Y56371D01*
X81591Y56417D01*
X81453D01*
X81913D02*
X81729D01*
Y56280D01*
X81821Y56325D01*
X81867D01*
X81913Y56280D01*
Y56188D01*
X81867Y56142D01*
X81775D01*
X81729Y56188D01*
X76903Y57175D02*
Y57451D01*
X76719D01*
X76444Y57175D02*
X76627D01*
Y57451D01*
X76444D01*
X76627Y57313D02*
X76535D01*
X76352Y57175D02*
Y57451D01*
X76214D01*
X76168Y57405D01*
Y57221D01*
X76214Y57175D01*
X76352D01*
X75938Y57451D02*
Y57175D01*
X76076Y57313D01*
X75893D01*
X72765Y45464D02*
Y45189D01*
X72949D01*
X73224Y45464D02*
X73041D01*
Y45189D01*
X73224D01*
X73041Y45326D02*
X73133D01*
X73316Y45464D02*
Y45189D01*
X73454D01*
X73500Y45235D01*
Y45418D01*
X73454Y45464D01*
X73316D01*
X73592Y45418D02*
X73638Y45464D01*
X73730D01*
X73775Y45418D01*
Y45372D01*
X73730Y45326D01*
X73684D01*
X73730D01*
X73775Y45280D01*
Y45235D01*
X73730Y45189D01*
X73638D01*
X73592Y45235D01*
X83688Y41299D02*
Y41024D01*
X83871D01*
X84147Y41299D02*
X83963D01*
Y41024D01*
X84147D01*
X83963Y41161D02*
X84055D01*
X84239Y41299D02*
Y41024D01*
X84377D01*
X84423Y41070D01*
Y41253D01*
X84377Y41299D01*
X84239D01*
X84698Y41024D02*
X84514D01*
X84698Y41207D01*
Y41253D01*
X84652Y41299D01*
X84560D01*
X84514Y41253D01*
X84672Y13573D02*
Y13297D01*
X84856D01*
X85131D02*
X84947D01*
X85131Y13481D01*
Y13527D01*
X85085Y13573D01*
X84993D01*
X84947Y13527D01*
X75043Y13396D02*
Y13120D01*
X75226D01*
X75318D02*
X75410D01*
X75364D01*
Y13396D01*
X75318Y13350D01*
X51791Y91004D02*
Y90912D01*
Y90958D01*
X51516D01*
Y91004D01*
Y90912D01*
X51745Y90591D02*
X51791Y90636D01*
Y90728D01*
X51745Y90774D01*
X51562D01*
X51516Y90728D01*
Y90636D01*
X51562Y90591D01*
X51791Y90499D02*
Y90315D01*
X51745D01*
X51562Y90499D01*
X51516D01*
X44434Y93413D02*
X44250D01*
Y93276D01*
X44342D01*
X44250D01*
Y93138D01*
X44526Y93368D02*
X44572Y93413D01*
X44663D01*
X44709Y93368D01*
Y93322D01*
X44663Y93276D01*
X44709Y93230D01*
Y93184D01*
X44663Y93138D01*
X44572D01*
X44526Y93184D01*
Y93230D01*
X44572Y93276D01*
X44526Y93322D01*
Y93368D01*
X44572Y93276D02*
X44663D01*
X21684Y21584D02*
X21500D01*
Y21446D01*
X21592D01*
X21500D01*
Y21308D01*
X21776Y21538D02*
X21821Y21584D01*
X21913D01*
X21959Y21538D01*
Y21492D01*
X21913Y21446D01*
X21867D01*
X21913D01*
X21959Y21400D01*
Y21354D01*
X21913Y21308D01*
X21821D01*
X21776Y21354D01*
X21684Y39574D02*
X21500D01*
Y39436D01*
X21592D01*
X21500D01*
Y39298D01*
X21776D02*
X21867D01*
X21821D01*
Y39574D01*
X21776Y39528D01*
X44967Y91995D02*
Y91719D01*
X45105D01*
X45150Y91765D01*
Y91949D01*
X45105Y91995D01*
X44967D01*
X45242D02*
X45426D01*
Y91949D01*
X45242Y91765D01*
Y91719D01*
X45426D01*
X45518D02*
X45610D01*
X45564D01*
Y91995D01*
X45518Y91949D01*
X424Y21088D02*
X378Y21134D01*
X286D01*
X240Y21088D01*
Y20904D01*
X286Y20858D01*
X378D01*
X424Y20904D01*
X653Y21134D02*
X561D01*
X516Y21088D01*
Y20904D01*
X561Y20858D01*
X653D01*
X699Y20904D01*
Y21088D01*
X653Y21134D01*
X791Y20858D02*
Y21134D01*
X975Y20858D01*
Y21134D01*
X1067Y20904D02*
X1112Y20858D01*
X1204D01*
X1250Y20904D01*
Y21088D01*
X1204Y21134D01*
X1112D01*
X1067Y21088D01*
Y21042D01*
X1112Y20996D01*
X1250D01*
X25283Y49178D02*
X25237Y49224D01*
X25145D01*
X25100Y49178D01*
Y48994D01*
X25145Y48948D01*
X25237D01*
X25283Y48994D01*
X25559Y49224D02*
X25375D01*
Y49086D01*
X25467Y49132D01*
X25513D01*
X25559Y49086D01*
Y48994D01*
X25513Y48948D01*
X25421D01*
X25375Y48994D01*
X25651Y49178D02*
X25696Y49224D01*
X25788D01*
X25834Y49178D01*
Y49132D01*
X25788Y49086D01*
X25834Y49040D01*
Y48994D01*
X25788Y48948D01*
X25696D01*
X25651Y48994D01*
Y49040D01*
X25696Y49086D01*
X25651Y49132D01*
Y49178D01*
X25696Y49086D02*
X25788D01*
X44278Y47074D02*
X44324Y47028D01*
X44416D01*
X44462Y47074D01*
Y47257D01*
X44416Y47303D01*
X44324D01*
X44278Y47257D01*
X44003Y47028D02*
X44186D01*
Y47165D01*
X44094Y47119D01*
X44049D01*
X44003Y47165D01*
Y47257D01*
X44049Y47303D01*
X44140D01*
X44186Y47257D01*
X43911Y47028D02*
X43727D01*
Y47074D01*
X43911Y47257D01*
Y47303D01*
X62286Y49188D02*
X62240Y49234D01*
X62148D01*
X62102Y49188D01*
Y49004D01*
X62148Y48959D01*
X62240D01*
X62286Y49004D01*
X62561Y49234D02*
X62378D01*
Y49096D01*
X62469Y49142D01*
X62515D01*
X62561Y49096D01*
Y49004D01*
X62515Y48959D01*
X62424D01*
X62378Y49004D01*
X62837Y49234D02*
X62745Y49188D01*
X62653Y49096D01*
Y49004D01*
X62699Y48959D01*
X62791D01*
X62837Y49004D01*
Y49050D01*
X62791Y49096D01*
X62653D01*
X75092Y55292D02*
X75138Y55338D01*
Y55430D01*
X75092Y55476D01*
X74908D01*
X74862Y55430D01*
Y55338D01*
X74908Y55292D01*
X75138Y55016D02*
Y55200D01*
X75000D01*
X75046Y55108D01*
Y55062D01*
X75000Y55016D01*
X74908D01*
X74862Y55062D01*
Y55154D01*
X74908Y55200D01*
X75138Y54741D02*
Y54925D01*
X75000D01*
X75046Y54833D01*
Y54787D01*
X75000Y54741D01*
X74908D01*
X74862Y54787D01*
Y54879D01*
X74908Y54925D01*
X82995Y57838D02*
X82950Y57884D01*
X82858D01*
X82812Y57838D01*
Y57654D01*
X82858Y57608D01*
X82950D01*
X82995Y57654D01*
X83271Y57884D02*
X83087D01*
Y57746D01*
X83179Y57792D01*
X83225D01*
X83271Y57746D01*
Y57654D01*
X83225Y57608D01*
X83133D01*
X83087Y57654D01*
X83501Y57608D02*
Y57884D01*
X83363Y57746D01*
X83546D01*
X83763Y53625D02*
X83717Y53671D01*
X83625D01*
X83580Y53625D01*
Y53442D01*
X83625Y53396D01*
X83717D01*
X83763Y53442D01*
X84039Y53671D02*
X83855D01*
Y53533D01*
X83947Y53579D01*
X83993D01*
X84039Y53533D01*
Y53442D01*
X83993Y53396D01*
X83901D01*
X83855Y53442D01*
X84131Y53625D02*
X84176Y53671D01*
X84268D01*
X84314Y53625D01*
Y53579D01*
X84268Y53533D01*
X84222D01*
X84268D01*
X84314Y53488D01*
Y53442D01*
X84268Y53396D01*
X84176D01*
X84131Y53442D01*
X78422Y54984D02*
X78376Y54938D01*
Y54846D01*
X78422Y54800D01*
X78606D01*
X78652Y54846D01*
Y54938D01*
X78606Y54984D01*
X78376Y55259D02*
Y55075D01*
X78514D01*
X78468Y55167D01*
Y55213D01*
X78514Y55259D01*
X78606D01*
X78652Y55213D01*
Y55121D01*
X78606Y55075D01*
X78652Y55535D02*
Y55351D01*
X78468Y55535D01*
X78422D01*
X78376Y55489D01*
Y55397D01*
X78422Y55351D01*
X38727Y71837D02*
X38773Y71791D01*
X38865D01*
X38911Y71837D01*
Y72021D01*
X38865Y72067D01*
X38773D01*
X38727Y72021D01*
X38497Y72067D02*
Y71791D01*
X38635Y71929D01*
X38451D01*
X38360Y72021D02*
X38314Y72067D01*
X38222D01*
X38176Y72021D01*
Y71837D01*
X38222Y71791D01*
X38314D01*
X38360Y71837D01*
Y71883D01*
X38314Y71929D01*
X38176D01*
X45618Y88763D02*
X45572Y88809D01*
X45480D01*
X45434Y88763D01*
Y88579D01*
X45480Y88533D01*
X45572D01*
X45618Y88579D01*
X45847Y88533D02*
Y88809D01*
X45709Y88671D01*
X45893D01*
X45985Y88763D02*
X46031Y88809D01*
X46123D01*
X46169Y88763D01*
Y88717D01*
X46123Y88671D01*
X46169Y88625D01*
Y88579D01*
X46123Y88533D01*
X46031D01*
X45985Y88579D01*
Y88625D01*
X46031Y88671D01*
X45985Y88717D01*
Y88763D01*
X46031Y88671D02*
X46123D01*
X45618Y90293D02*
X45572Y90339D01*
X45480D01*
X45434Y90293D01*
Y90109D01*
X45480Y90063D01*
X45572D01*
X45618Y90109D01*
X45847Y90063D02*
Y90339D01*
X45709Y90201D01*
X45893D01*
X45985Y90339D02*
X46169D01*
Y90293D01*
X45985Y90109D01*
Y90063D01*
X52100Y88008D02*
X52146Y88054D01*
Y88146D01*
X52100Y88192D01*
X51916D01*
X51870Y88146D01*
Y88054D01*
X51916Y88008D01*
X51870Y87779D02*
X52146D01*
X52008Y87917D01*
Y87733D01*
X52146Y87457D02*
X52100Y87549D01*
X52008Y87641D01*
X51916D01*
X51870Y87595D01*
Y87503D01*
X51916Y87457D01*
X51962D01*
X52008Y87503D01*
Y87641D01*
X50997Y87024D02*
X51043Y87070D01*
Y87162D01*
X50997Y87208D01*
X50814D01*
X50768Y87162D01*
Y87070D01*
X50814Y87024D01*
X50768Y86795D02*
X51043D01*
X50906Y86932D01*
Y86749D01*
X51043Y86473D02*
Y86657D01*
X50906D01*
X50951Y86565D01*
Y86519D01*
X50906Y86473D01*
X50814D01*
X50768Y86519D01*
Y86611D01*
X50814Y86657D01*
X51529Y89150D02*
X51575Y89196D01*
Y89288D01*
X51529Y89334D01*
X51345D01*
X51299Y89288D01*
Y89196D01*
X51345Y89150D01*
X51299Y88921D02*
X51575D01*
X51437Y89058D01*
Y88875D01*
X51299Y88645D02*
X51575D01*
X51437Y88783D01*
Y88599D01*
X75053Y43980D02*
X75007Y44026D01*
X74915D01*
X74869Y43980D01*
Y43796D01*
X74915Y43750D01*
X75007D01*
X75053Y43796D01*
X75282Y43750D02*
Y44026D01*
X75144Y43888D01*
X75328D01*
X75604Y43750D02*
X75420D01*
X75604Y43934D01*
Y43980D01*
X75558Y44026D01*
X75466D01*
X75420Y43980D01*
X84537Y37838D02*
X84492Y37884D01*
X84400D01*
X84354Y37838D01*
Y37654D01*
X84400Y37608D01*
X84492D01*
X84537Y37654D01*
X84767Y37608D02*
Y37884D01*
X84629Y37746D01*
X84813D01*
X84905Y37608D02*
X84997D01*
X84951D01*
Y37884D01*
X84905Y37838D01*
X79034Y12203D02*
X78988Y12249D01*
X78897D01*
X78851Y12203D01*
Y12019D01*
X78897Y11974D01*
X78988D01*
X79034Y12019D01*
X79126Y12203D02*
X79172Y12249D01*
X79264D01*
X79310Y12203D01*
Y12157D01*
X79264Y12111D01*
X79218D01*
X79264D01*
X79310Y12065D01*
Y12019D01*
X79264Y11974D01*
X79172D01*
X79126Y12019D01*
X79402Y12249D02*
X79585D01*
Y12203D01*
X79402Y12019D01*
Y11974D01*
X72352Y12786D02*
X72307Y12832D01*
X72215D01*
X72169Y12786D01*
Y12602D01*
X72215Y12556D01*
X72307D01*
X72352Y12602D01*
X72444Y12786D02*
X72490Y12832D01*
X72582D01*
X72628Y12786D01*
Y12740D01*
X72582Y12694D01*
X72536D01*
X72582D01*
X72628Y12648D01*
Y12602D01*
X72582Y12556D01*
X72490D01*
X72444Y12602D01*
X72903Y12832D02*
X72812Y12786D01*
X72720Y12694D01*
Y12602D01*
X72766Y12556D01*
X72858D01*
X72903Y12602D01*
Y12648D01*
X72858Y12694D01*
X72720D01*
X86168Y28773D02*
X86122Y28727D01*
Y28635D01*
X86168Y28589D01*
X86352D01*
X86398Y28635D01*
Y28727D01*
X86352Y28773D01*
X86168Y28865D02*
X86122Y28911D01*
Y29003D01*
X86168Y29049D01*
X86214D01*
X86260Y29003D01*
Y28957D01*
Y29003D01*
X86306Y29049D01*
X86352D01*
X86398Y29003D01*
Y28911D01*
X86352Y28865D01*
X86122Y29324D02*
Y29140D01*
X86260D01*
X86214Y29232D01*
Y29278D01*
X86260Y29324D01*
X86352D01*
X86398Y29278D01*
Y29186D01*
X86352Y29140D01*
X23438Y93793D02*
X23392Y93839D01*
X23301D01*
X23255Y93793D01*
Y93609D01*
X23301Y93563D01*
X23392D01*
X23438Y93609D01*
X23714Y93563D02*
X23530D01*
X23714Y93747D01*
Y93793D01*
X23668Y93839D01*
X23576D01*
X23530Y93793D01*
X23806Y93839D02*
X23989D01*
Y93793D01*
X23806Y93609D01*
Y93563D01*
X39239Y70495D02*
X39193Y70541D01*
X39101D01*
X39055Y70495D01*
Y70312D01*
X39101Y70266D01*
X39193D01*
X39239Y70312D01*
X39331Y70266D02*
X39422D01*
X39377D01*
Y70541D01*
X39331Y70495D01*
X39560Y70312D02*
X39606Y70266D01*
X39698D01*
X39744Y70312D01*
Y70495D01*
X39698Y70541D01*
X39606D01*
X39560Y70495D01*
Y70449D01*
X39606Y70403D01*
X39744D01*
X40063Y70353D02*
X40017Y70399D01*
X39925D01*
X39879Y70353D01*
Y70170D01*
X39925Y70124D01*
X40017D01*
X40063Y70170D01*
X40155Y70124D02*
X40246D01*
X40200D01*
Y70399D01*
X40155Y70353D01*
X40384D02*
X40430Y70399D01*
X40522D01*
X40568Y70353D01*
Y70307D01*
X40522Y70262D01*
X40568Y70216D01*
Y70170D01*
X40522Y70124D01*
X40430D01*
X40384Y70170D01*
Y70216D01*
X40430Y70262D01*
X40384Y70307D01*
Y70353D01*
X40430Y70262D02*
X40522D01*
X38743Y71293D02*
X38789Y71247D01*
X38881D01*
X38927Y71293D01*
Y71477D01*
X38881Y71523D01*
X38789D01*
X38743Y71477D01*
X38652Y71523D02*
X38560D01*
X38606D01*
Y71247D01*
X38652Y71293D01*
X38422Y71247D02*
X38238D01*
Y71293D01*
X38422Y71477D01*
Y71523D01*
X36532Y70958D02*
X36486Y71004D01*
X36394D01*
X36349Y70958D01*
Y70774D01*
X36394Y70728D01*
X36486D01*
X36532Y70774D01*
X36624Y70728D02*
X36716D01*
X36670D01*
Y71004D01*
X36624Y70958D01*
X37037Y71004D02*
X36945Y70958D01*
X36854Y70866D01*
Y70774D01*
X36900Y70728D01*
X36991D01*
X37037Y70774D01*
Y70820D01*
X36991Y70866D01*
X36854D01*
X34879Y71312D02*
X34833Y71358D01*
X34741D01*
X34695Y71312D01*
Y71129D01*
X34741Y71083D01*
X34833D01*
X34879Y71129D01*
X34970Y71083D02*
X35062D01*
X35016D01*
Y71358D01*
X34970Y71312D01*
X35384Y71358D02*
X35200D01*
Y71220D01*
X35292Y71266D01*
X35338D01*
X35384Y71220D01*
Y71129D01*
X35338Y71083D01*
X35246D01*
X35200Y71129D01*
X74259Y40873D02*
X74213Y40827D01*
Y40735D01*
X74259Y40689D01*
X74442D01*
X74488Y40735D01*
Y40827D01*
X74442Y40873D01*
X74488Y40965D02*
Y41056D01*
Y41011D01*
X74213D01*
X74259Y40965D01*
Y41194D02*
X74213Y41240D01*
Y41332D01*
X74259Y41378D01*
X74304D01*
X74350Y41332D01*
Y41286D01*
Y41332D01*
X74396Y41378D01*
X74442D01*
X74488Y41332D01*
Y41240D01*
X74442Y41194D01*
X4934Y26983D02*
X4888Y27029D01*
X4796D01*
X4750Y26983D01*
Y26799D01*
X4796Y26754D01*
X4888D01*
X4934Y26799D01*
X5026Y26754D02*
X5118D01*
X5072D01*
Y27029D01*
X5026Y26983D01*
X5255Y26754D02*
X5347D01*
X5301D01*
Y27029D01*
X5255Y26983D01*
X5986Y16245D02*
X5940Y16291D01*
X5848D01*
X5803Y16245D01*
Y16062D01*
X5848Y16016D01*
X5940D01*
X5986Y16062D01*
X6078Y16016D02*
X6170D01*
X6124D01*
Y16291D01*
X6078Y16245D01*
X6308D02*
X6354Y16291D01*
X6445D01*
X6491Y16245D01*
Y16062D01*
X6445Y16016D01*
X6354D01*
X6308Y16062D01*
Y16245D01*
X66056Y85663D02*
X66011Y85709D01*
X65919D01*
X65873Y85663D01*
Y85479D01*
X65919Y85433D01*
X66011D01*
X66056Y85479D01*
X66148D02*
X66194Y85433D01*
X66286D01*
X66332Y85479D01*
Y85663D01*
X66286Y85709D01*
X66194D01*
X66148Y85663D01*
Y85617D01*
X66194Y85571D01*
X66332D01*
X60614Y85633D02*
X60568Y85679D01*
X60476D01*
X60430Y85633D01*
Y85449D01*
X60476Y85404D01*
X60568D01*
X60614Y85449D01*
X60705Y85633D02*
X60751Y85679D01*
X60843D01*
X60889Y85633D01*
Y85587D01*
X60843Y85541D01*
X60889Y85495D01*
Y85449D01*
X60843Y85404D01*
X60751D01*
X60705Y85449D01*
Y85495D01*
X60751Y85541D01*
X60705Y85587D01*
Y85633D01*
X60751Y85541D02*
X60843D01*
X54767Y85584D02*
X54721Y85630D01*
X54629D01*
X54583Y85584D01*
Y85400D01*
X54629Y85354D01*
X54721D01*
X54767Y85400D01*
X54859Y85630D02*
X55043D01*
Y85584D01*
X54859Y85400D01*
Y85354D01*
X81007Y39865D02*
X80961Y39911D01*
X80869D01*
X80824Y39865D01*
Y39682D01*
X80869Y39636D01*
X80961D01*
X81007Y39682D01*
X81099Y39865D02*
X81145Y39911D01*
X81237D01*
X81283Y39865D01*
Y39820D01*
X81237Y39774D01*
X81191D01*
X81237D01*
X81283Y39728D01*
Y39682D01*
X81237Y39636D01*
X81145D01*
X81099Y39682D01*
X80673Y45810D02*
X80627Y45856D01*
X80535D01*
X80489Y45810D01*
Y45627D01*
X80535Y45581D01*
X80627D01*
X80673Y45627D01*
X80948Y45581D02*
X80764D01*
X80948Y45764D01*
Y45810D01*
X80902Y45856D01*
X80810D01*
X80764Y45810D01*
X72438Y23665D02*
X72392Y23619D01*
Y23527D01*
X72438Y23481D01*
X72621D01*
X72667Y23527D01*
Y23619D01*
X72621Y23665D01*
X72438Y23757D02*
X72392Y23803D01*
Y23894D01*
X72438Y23940D01*
X72484D01*
X72530Y23894D01*
Y23848D01*
Y23894D01*
X72575Y23940D01*
X72621D01*
X72667Y23894D01*
Y23803D01*
X72621Y23757D01*
Y24032D02*
X72667Y24078D01*
Y24170D01*
X72621Y24216D01*
X72438D01*
X72392Y24170D01*
Y24078D01*
X72438Y24032D01*
X72484D01*
X72530Y24078D01*
Y24216D01*
X72556Y28212D02*
X72510Y28166D01*
Y28074D01*
X72556Y28028D01*
X72739D01*
X72785Y28074D01*
Y28166D01*
X72739Y28212D01*
X72556Y28304D02*
X72510Y28350D01*
Y28442D01*
X72556Y28488D01*
X72602D01*
X72648Y28442D01*
Y28396D01*
Y28442D01*
X72694Y28488D01*
X72739D01*
X72785Y28442D01*
Y28350D01*
X72739Y28304D01*
X72556Y28579D02*
X72510Y28625D01*
Y28717D01*
X72556Y28763D01*
X72602D01*
X72648Y28717D01*
X72694Y28763D01*
X72739D01*
X72785Y28717D01*
Y28625D01*
X72739Y28579D01*
X72694D01*
X72648Y28625D01*
X72602Y28579D01*
X72556D01*
X72648Y28625D02*
Y28717D01*
X69810Y89787D02*
X69764Y89741D01*
Y89649D01*
X69810Y89603D01*
X69856D01*
X69902Y89649D01*
Y89741D01*
X69947Y89787D01*
X69993D01*
X70039Y89741D01*
Y89649D01*
X69993Y89603D01*
X69764Y89879D02*
X70039D01*
X69947Y89970D01*
X70039Y90062D01*
X69764D01*
X69810Y90154D02*
X69764Y90200D01*
Y90292D01*
X69810Y90338D01*
X69856D01*
X69902Y90292D01*
Y90246D01*
Y90292D01*
X69947Y90338D01*
X69993D01*
X70039Y90292D01*
Y90200D01*
X69993Y90154D01*
X64229Y89856D02*
X64183Y89810D01*
Y89718D01*
X64229Y89672D01*
X64275D01*
X64321Y89718D01*
Y89810D01*
X64367Y89856D01*
X64413D01*
X64459Y89810D01*
Y89718D01*
X64413Y89672D01*
X64183Y89948D02*
X64459D01*
X64367Y90039D01*
X64459Y90131D01*
X64183D01*
X64459Y90407D02*
Y90223D01*
X64275Y90407D01*
X64229D01*
X64183Y90361D01*
Y90269D01*
X64229Y90223D01*
X58499Y89843D02*
X58453Y89797D01*
Y89705D01*
X58499Y89659D01*
X58545D01*
X58591Y89705D01*
Y89797D01*
X58637Y89843D01*
X58683D01*
X58729Y89797D01*
Y89705D01*
X58683Y89659D01*
X58453Y89934D02*
X58729D01*
X58637Y90026D01*
X58729Y90118D01*
X58453D01*
X58729Y90210D02*
Y90302D01*
Y90256D01*
X58453D01*
X58499Y90210D01*
X81611Y53573D02*
Y53848D01*
X81749D01*
X81795Y53802D01*
Y53711D01*
X81749Y53665D01*
X81611D01*
X81703D02*
X81795Y53573D01*
X82070Y53848D02*
X81887D01*
Y53711D01*
X81978Y53757D01*
X82024D01*
X82070Y53711D01*
Y53619D01*
X82024Y53573D01*
X81932D01*
X81887Y53619D01*
X82300Y53573D02*
Y53848D01*
X82162Y53711D01*
X82346D01*
X64223Y53189D02*
Y53465D01*
X64360D01*
X64406Y53419D01*
Y53327D01*
X64360Y53281D01*
X64223D01*
X64314D02*
X64406Y53189D01*
X64498D02*
X64590D01*
X64544D01*
Y53465D01*
X64498Y53419D01*
X64865Y53189D02*
Y53465D01*
X64728Y53327D01*
X64911D01*
X77244Y45653D02*
X77520D01*
Y45837D01*
X77244Y46112D02*
Y45929D01*
X77520D01*
Y46112D01*
X77382Y45929D02*
Y46020D01*
X77244Y46204D02*
X77520D01*
Y46342D01*
X77474Y46388D01*
X77290D01*
X77244Y46342D01*
Y46204D01*
X77520Y46480D02*
Y46571D01*
Y46525D01*
X77244D01*
X77290Y46480D01*
X76398Y40269D02*
X76352Y40315D01*
X76260D01*
X76214Y40269D01*
Y40085D01*
X76260Y40039D01*
X76352D01*
X76398Y40085D01*
X76489Y40039D02*
X76581D01*
X76535D01*
Y40315D01*
X76489Y40269D01*
X78704Y41804D02*
X78658Y41850D01*
X78566D01*
X78520Y41804D01*
Y41621D01*
X78566Y41575D01*
X78658D01*
X78704Y41621D01*
X78934Y41575D02*
Y41850D01*
X78796Y41713D01*
X78980D01*
X80449Y47946D02*
X80404Y47900D01*
Y47808D01*
X80449Y47763D01*
X80633D01*
X80679Y47808D01*
Y47900D01*
X80633Y47946D01*
X80404Y48222D02*
Y48038D01*
X80541D01*
X80495Y48130D01*
Y48176D01*
X80541Y48222D01*
X80633D01*
X80679Y48176D01*
Y48084D01*
X80633Y48038D01*
X78205Y50440D02*
X78251Y50394D01*
X78343D01*
X78389Y50440D01*
Y50623D01*
X78343Y50669D01*
X78251D01*
X78205Y50623D01*
X77930Y50394D02*
X78022Y50440D01*
X78114Y50532D01*
Y50623D01*
X78068Y50669D01*
X77976D01*
X77930Y50623D01*
Y50577D01*
X77976Y50532D01*
X78114D01*
X76352Y45069D02*
Y45344D01*
X76490D01*
X76535Y45299D01*
Y45207D01*
X76490Y45161D01*
X76352D01*
X76811Y45299D02*
X76765Y45344D01*
X76673D01*
X76627Y45299D01*
Y45253D01*
X76673Y45207D01*
X76765D01*
X76811Y45161D01*
Y45115D01*
X76765Y45069D01*
X76673D01*
X76627Y45115D01*
X76903Y45069D02*
X76995D01*
X76949D01*
Y45344D01*
X76903Y45299D01*
X76473Y49291D02*
Y49567D01*
X76611D01*
X76657Y49521D01*
Y49429D01*
X76611Y49383D01*
X76473D01*
X76932Y49521D02*
X76886Y49567D01*
X76795D01*
X76749Y49521D01*
Y49475D01*
X76795Y49429D01*
X76886D01*
X76932Y49383D01*
Y49337D01*
X76886Y49291D01*
X76795D01*
X76749Y49337D01*
X77024Y49521D02*
X77070Y49567D01*
X77162D01*
X77208Y49521D01*
Y49475D01*
X77162Y49429D01*
X77116D01*
X77162D01*
X77208Y49383D01*
Y49337D01*
X77162Y49291D01*
X77070D01*
X77024Y49337D01*
X18261Y93758D02*
X18215Y93804D01*
X18123D01*
X18077Y93758D01*
Y93574D01*
X18123Y93528D01*
X18215D01*
X18261Y93574D01*
X18490Y93804D02*
X18399D01*
X18353Y93758D01*
Y93574D01*
X18399Y93528D01*
X18490D01*
X18536Y93574D01*
Y93758D01*
X18490Y93804D01*
X18628Y93528D02*
Y93804D01*
X18812Y93528D01*
Y93804D01*
X18904Y93528D02*
X18996D01*
X18950D01*
Y93804D01*
X18904Y93758D01*
X82306Y41466D02*
Y41191D01*
X82444D01*
X82490Y41237D01*
Y41421D01*
X82444Y41466D01*
X82306D01*
X82582Y41191D02*
X82674D01*
X82628D01*
Y41466D01*
X82582Y41421D01*
X71955Y37845D02*
Y38120D01*
X72093D01*
X72139Y38074D01*
Y37982D01*
X72093Y37936D01*
X71955D01*
X72415Y38074D02*
X72369Y38120D01*
X72277D01*
X72231Y38074D01*
Y38028D01*
X72277Y37982D01*
X72369D01*
X72415Y37936D01*
Y37890D01*
X72369Y37845D01*
X72277D01*
X72231Y37890D01*
X72644Y37845D02*
Y38120D01*
X72506Y37982D01*
X72690D01*
D17*
X55135Y52380D02*
X70335D01*
X55135Y6380D02*
X70335D01*
X55135D02*
Y52380D01*
X70335Y6380D02*
Y52380D01*
X36641D02*
X51841D01*
X36641Y6380D02*
X51841D01*
X36641D02*
Y52380D01*
X51841Y6380D02*
Y52380D01*
X18146D02*
X33346D01*
X18146Y6380D02*
X33346D01*
X18146D02*
Y52380D01*
X33346Y6380D02*
Y52380D01*
D18*
X59577Y62858D02*
X84533D01*
Y60858D02*
Y62858D01*
X59577Y60858D02*
X84533D01*
X59577D02*
Y62858D01*
Y80858D02*
Y82858D01*
Y80858D02*
X84533D01*
Y82858D01*
X59577D02*
X84533D01*
D19*
X59589Y61858D02*
X60537D01*
Y60846D02*
Y61858D01*
Y80846D02*
Y81858D01*
X59589D02*
X60537D01*
X84918Y65228D02*
X86008D01*
Y67236D01*
X84918D02*
X86008D01*
D20*
X44164Y89780D02*
X44065Y89878D01*
Y90075D01*
X44164Y90173D01*
X44262D01*
X44360Y90075D01*
Y89976D01*
Y90075D01*
X44459Y90173D01*
X44557D01*
X44656Y90075D01*
Y89878D01*
X44557Y89780D01*
X44656Y89173D02*
Y88780D01*
X44262Y89173D01*
X44164D01*
X44065Y89075D01*
Y88878D01*
X44164Y88780D01*
X44656Y87878D02*
Y88075D01*
Y87976D01*
X44065D01*
X44164Y87878D01*
M02*
