G04*
G04 #@! TF.GenerationSoftware,Altium Limited,Altium Designer,20.2.4 (192)*
G04*
G04 Layer_Physical_Order=1*
G04 Layer_Color=255*
%FSLAX24Y24*%
%MOIN*%
G70*
G04*
G04 #@! TF.SameCoordinates,B9BB7F2B-B7AC-4897-A438-396A0F5AD448*
G04*
G04*
G04 #@! TF.FilePolarity,Positive*
G04*
G01*
G75*
%ADD10C,0.0079*%
%ADD11C,0.0787*%
%ADD12C,0.0197*%
%ADD14C,0.0315*%
%ADD15C,0.0157*%
%ADD16C,0.0100*%
%ADD21R,0.0236X0.0252*%
%ADD22R,0.0138X0.0531*%
%ADD23R,0.0394X0.0315*%
%ADD24R,0.0591X0.0787*%
%ADD25R,0.0236X0.0394*%
%ADD26R,0.0236X0.0276*%
%ADD27R,0.0567X0.0654*%
%ADD28R,0.0472X0.0413*%
%ADD29R,0.0315X0.0394*%
%ADD30R,0.0413X0.0472*%
%ADD31R,0.0315X0.0236*%
%ADD32R,0.0846X0.0866*%
%ADD33R,0.0638X0.0811*%
%ADD34R,0.0394X0.0354*%
%ADD35R,0.0906X0.0689*%
%ADD36R,0.0811X0.0638*%
%ADD37R,0.0571X0.0394*%
%ADD38R,0.0787X0.1476*%
%ADD39R,0.0626X0.1748*%
%ADD40R,0.0626X0.0252*%
%ADD41R,0.0394X0.0571*%
%ADD42R,0.0276X0.0236*%
%ADD43R,0.0256X0.0252*%
%ADD44R,0.0252X0.0626*%
%ADD45R,0.1748X0.0626*%
%ADD46R,0.1260X0.0689*%
%ADD47R,0.0374X0.0689*%
%ADD48R,0.2559X0.2559*%
%ADD49R,0.0236X0.0315*%
%ADD50R,0.0252X0.0256*%
%ADD51R,0.0283X0.0701*%
%ADD52R,0.0591X0.0354*%
%ADD53R,0.0354X0.0591*%
%ADD54R,0.0579X0.0402*%
%ADD55R,0.0402X0.0579*%
%ADD56R,0.0654X0.0567*%
%ADD57R,0.0874X0.0323*%
%ADD58R,0.0638X0.1185*%
%ADD59R,0.0335X0.0433*%
%ADD60R,0.0846X0.1102*%
%ADD61R,0.1417X0.0709*%
%ADD136C,0.0394*%
%ADD137C,0.0118*%
%ADD138C,0.0433*%
%ADD139C,0.0276*%
%ADD140C,0.0591*%
%ADD141C,0.1181*%
%ADD142C,0.0433*%
%ADD143C,0.3937*%
%ADD144C,0.2362*%
%ADD145C,0.1575*%
%ADD146O,0.0550X0.0570*%
%ADD147C,0.1520*%
%ADD148R,0.0744X0.0744*%
%ADD149O,0.0744X0.0744*%
%ADD150C,0.0610*%
%ADD151C,0.0866*%
%ADD152C,0.0700*%
%ADD153C,0.0531*%
%ADD154C,0.0768*%
%ADD155R,0.0433X0.0433*%
%ADD156R,0.0512X0.0512*%
%ADD157C,0.0512*%
%ADD158R,0.0700X0.0700*%
%ADD159R,0.0433X0.0433*%
%ADD160C,0.3543*%
%ADD161C,0.1181*%
%ADD162C,0.0630*%
%ADD163R,0.0630X0.0630*%
%ADD164C,0.0596*%
%ADD165R,0.0744X0.0650*%
%ADD166C,0.0736*%
%ADD167C,0.0591*%
%ADD168R,0.1098X0.1098*%
%ADD169C,0.1098*%
%ADD170R,0.0591X0.0591*%
%ADD171P,0.0835X4X360.0*%
%ADD172C,0.0650*%
%ADD173R,0.0650X0.0650*%
%ADD174C,0.0500*%
G36*
X86575Y88313D02*
X86575Y83561D01*
X86529Y83542D01*
X85700Y84371D01*
X85641Y84410D01*
X85571Y84424D01*
X85571Y84424D01*
X65676D01*
X65478Y84623D01*
Y86053D01*
X65866Y86442D01*
X67049D01*
X67089Y86390D01*
X67163Y86333D01*
X67180Y86326D01*
Y86261D01*
X66711D01*
Y86230D01*
X66527D01*
Y86279D01*
X66071D01*
Y85827D01*
X66527D01*
Y85866D01*
X66711D01*
Y85825D01*
X66826D01*
Y85758D01*
X66826Y85758D01*
X66839Y85688D01*
X66879Y85629D01*
X67145Y85363D01*
X67145Y85363D01*
X67204Y85324D01*
X67274Y85310D01*
X67274Y85310D01*
X67664D01*
X67664Y85310D01*
X67733Y85324D01*
X67793Y85363D01*
X67931Y85502D01*
X68064Y85369D01*
X68064Y85369D01*
X68123Y85330D01*
X68193Y85316D01*
X68193Y85316D01*
X68727D01*
X68727Y85316D01*
X68796Y85330D01*
X68856Y85369D01*
X69133Y85647D01*
X69222Y85635D01*
X69315Y85647D01*
X69402Y85683D01*
X69476Y85740D01*
X69533Y85815D01*
X69569Y85901D01*
X69581Y85994D01*
X69569Y86087D01*
X69533Y86174D01*
X69476Y86248D01*
X69402Y86305D01*
X69315Y86341D01*
X69222Y86353D01*
X69130Y86341D01*
X69043Y86305D01*
X68969Y86248D01*
X68912Y86174D01*
X68876Y86087D01*
X68863Y85994D01*
X68875Y85905D01*
X68651Y85681D01*
X68268D01*
X68174Y85775D01*
Y85846D01*
X68662D01*
Y86282D01*
X68607D01*
Y86802D01*
X68593Y86872D01*
X68553Y86931D01*
X68553Y86931D01*
X68506Y86979D01*
Y87708D01*
X68410D01*
Y88313D01*
X69443Y88315D01*
X69495Y88053D01*
X69585Y87790D01*
X69707Y87541D01*
X69862Y87310D01*
X70045Y87101D01*
X70254Y86918D01*
X70485Y86764D01*
X70734Y86641D01*
X70997Y86552D01*
X71269Y86497D01*
X71546Y86479D01*
X71823Y86497D01*
X72096Y86552D01*
X72359Y86641D01*
X72608Y86764D01*
X72839Y86918D01*
X73047Y87101D01*
X73230Y87310D01*
X73385Y87541D01*
X73508Y87790D01*
X73597Y88053D01*
X73651Y88323D01*
X74962Y88326D01*
X74963Y88306D01*
X75017Y88033D01*
X75106Y87770D01*
X75229Y87521D01*
X75383Y87290D01*
X75567Y87081D01*
X75775Y86898D01*
X76006Y86744D01*
X76255Y86621D01*
X76518Y86532D01*
X76791Y86478D01*
X77068Y86460D01*
X77345Y86478D01*
X77617Y86532D01*
X77880Y86621D01*
X78129Y86744D01*
X78360Y86898D01*
X78569Y87081D01*
X78752Y87290D01*
X78906Y87521D01*
X79029Y87770D01*
X79118Y88033D01*
X79173Y88306D01*
X79174Y88334D01*
X86539Y88349D01*
X86575Y88313D01*
D02*
G37*
G36*
X48386Y89409D02*
X48425D01*
X48780Y89055D01*
X49685D01*
X49843Y88898D01*
Y88583D01*
X49764Y88504D01*
X48740D01*
X48346Y88110D01*
Y86181D01*
X47362D01*
X46575Y86968D01*
Y90630D01*
X45906Y91299D01*
Y92717D01*
X48386D01*
Y89409D01*
D02*
G37*
G36*
X52323Y91401D02*
Y88925D01*
X52316Y88908D01*
X52299Y88780D01*
X52316Y88651D01*
X52323Y88634D01*
Y87040D01*
X52277Y87005D01*
X52198Y86902D01*
X52185Y86870D01*
X52087Y86772D01*
Y85987D01*
X51730D01*
X51654Y86063D01*
Y86496D01*
X52008Y86850D01*
Y89213D01*
X50906Y90315D01*
Y92047D01*
X51677D01*
X52323Y91401D01*
D02*
G37*
G36*
X67811Y88276D02*
Y87708D01*
X67715D01*
Y86805D01*
X67665Y86795D01*
X67653Y86823D01*
X67596Y86898D01*
X67522Y86955D01*
X67435Y86990D01*
X67343Y87003D01*
X67250Y86990D01*
X67163Y86955D01*
X67089Y86898D01*
X67032Y86823D01*
X67025Y86806D01*
X65791D01*
X65791Y86806D01*
X65721Y86792D01*
X65662Y86753D01*
X65662Y86753D01*
X65166Y86258D01*
X65127Y86199D01*
X65113Y86129D01*
X65113Y86129D01*
Y84547D01*
X65113Y84547D01*
X65127Y84478D01*
X65166Y84418D01*
X65472Y84113D01*
X65531Y84074D01*
X65600Y84060D01*
X65600Y84060D01*
X69779D01*
Y82715D01*
X69732Y82679D01*
X69660Y82585D01*
X69615Y82476D01*
X69599Y82358D01*
X69615Y82241D01*
X69660Y82131D01*
X69732Y82037D01*
X69826Y81965D01*
X69936Y81920D01*
X70053Y81904D01*
X70171Y81920D01*
X70280Y81965D01*
X70374Y82037D01*
X70446Y82131D01*
X70492Y82241D01*
X70507Y82358D01*
X70492Y82476D01*
X70446Y82585D01*
X70378Y82674D01*
Y84000D01*
X70397Y84047D01*
X70399Y84060D01*
X85495D01*
X86235Y83320D01*
X86212Y83273D01*
X86142Y83282D01*
X86049Y83270D01*
X85962Y83234D01*
X85888Y83177D01*
X85831Y83103D01*
X85795Y83016D01*
X85783Y82923D01*
X85795Y82830D01*
X85831Y82744D01*
X85888Y82669D01*
X85962Y82612D01*
X86049Y82576D01*
X86142Y82564D01*
X86196Y82571D01*
X86343Y82425D01*
Y81404D01*
X84993Y80054D01*
X83950D01*
X83896Y80126D01*
X83824Y80181D01*
X83823Y80186D01*
X83842Y80231D01*
X84232D01*
X84232Y80231D01*
X84302Y80245D01*
X84361Y80285D01*
X85826Y81749D01*
X85915Y81737D01*
X86008Y81750D01*
X86095Y81786D01*
X86169Y81843D01*
X86226Y81917D01*
X86262Y82004D01*
X86274Y82096D01*
X86262Y82189D01*
X86226Y82276D01*
X86169Y82350D01*
X86095Y82407D01*
X86008Y82443D01*
X85915Y82455D01*
X85822Y82443D01*
X85736Y82407D01*
X85662Y82350D01*
X85604Y82276D01*
X85569Y82189D01*
X85556Y82096D01*
X85568Y82007D01*
X84157Y80596D01*
X82454D01*
X82385Y80582D01*
X82326Y80542D01*
X82326Y80542D01*
X82278Y80494D01*
X82185Y80507D01*
X82092Y80494D01*
X82006Y80459D01*
X81931Y80401D01*
X81874Y80327D01*
X81838Y80241D01*
X81826Y80148D01*
X81838Y80055D01*
X81874Y79968D01*
X81931Y79894D01*
X82006Y79837D01*
X82092Y79801D01*
X82185Y79789D01*
X82278Y79801D01*
X82365Y79837D01*
X82439Y79894D01*
X82496Y79968D01*
X82532Y80055D01*
X82544Y80148D01*
X82538Y80194D01*
X82571Y80231D01*
X83441D01*
X83460Y80186D01*
X83460Y80181D01*
X83388Y80126D01*
X83331Y80052D01*
X83295Y79965D01*
X83283Y79872D01*
X83295Y79779D01*
X83331Y79693D01*
X83388Y79618D01*
X83462Y79561D01*
X83549Y79525D01*
X83642Y79513D01*
X83735Y79525D01*
X83821Y79561D01*
X83896Y79618D01*
X83950Y79690D01*
X85069D01*
X85069Y79690D01*
X85139Y79704D01*
X85198Y79743D01*
X86529Y81074D01*
X86575Y81055D01*
X86575Y72439D01*
X86533Y72412D01*
X86524Y72415D01*
X86447Y72425D01*
X85032D01*
X85010Y72443D01*
X84912Y72483D01*
X84806Y72497D01*
X84700Y72483D01*
X84601Y72443D01*
X84517Y72378D01*
X84452Y72293D01*
X84411Y72194D01*
X84397Y72089D01*
X84411Y71983D01*
X84452Y71884D01*
X84517Y71800D01*
X84601Y71735D01*
X84700Y71694D01*
X84806Y71680D01*
X84912Y71694D01*
X85010Y71735D01*
X85095Y71800D01*
X85115Y71827D01*
X86447D01*
X86524Y71837D01*
X86533Y71840D01*
X86575Y71813D01*
X86575Y58986D01*
X85929D01*
Y62323D01*
X85919Y62400D01*
X85902Y62443D01*
X85889Y62473D01*
X85842Y62535D01*
X84031Y64346D01*
X83969Y64393D01*
X83896Y64423D01*
X83819Y64433D01*
X70704D01*
X70690Y64459D01*
X70686Y64483D01*
X71310Y65107D01*
X71310Y65107D01*
X71349Y65166D01*
X71363Y65236D01*
Y67227D01*
X71363Y67227D01*
X71349Y67297D01*
X71310Y67356D01*
X71310Y67356D01*
X71039Y67627D01*
X71051Y67717D01*
X71039Y67809D01*
X71003Y67896D01*
X70946Y67970D01*
X70871Y68027D01*
X70785Y68063D01*
X70692Y68076D01*
X70599Y68063D01*
X70512Y68027D01*
X70438Y67970D01*
X70381Y67896D01*
X70345Y67809D01*
X70333Y67717D01*
X70345Y67624D01*
X70381Y67537D01*
X70438Y67463D01*
X70512Y67406D01*
X70599Y67370D01*
X70692Y67358D01*
X70781Y67369D01*
X70999Y67152D01*
Y66107D01*
X70949Y66066D01*
X70945Y66067D01*
X70787D01*
X70741Y66058D01*
X70701Y66031D01*
X70682Y66028D01*
X70642Y66059D01*
X70556Y66095D01*
X70463Y66107D01*
X70370Y66095D01*
X70283Y66059D01*
X70209Y66002D01*
X70152Y65928D01*
X70116Y65841D01*
X70104Y65748D01*
X70115Y65659D01*
X69773Y65316D01*
X65991D01*
X63580Y67727D01*
X63521Y67767D01*
X63451Y67781D01*
X63451Y67781D01*
X60199D01*
X60180Y67827D01*
X60600Y68248D01*
X60690Y68236D01*
X60783Y68248D01*
X60869Y68284D01*
X60944Y68341D01*
X61001Y68415D01*
X61037Y68502D01*
X61049Y68595D01*
X61037Y68684D01*
X62003Y69650D01*
X62870D01*
X62925Y69579D01*
X63000Y69522D01*
X63086Y69486D01*
X63179Y69474D01*
X63269Y69486D01*
X66900Y65854D01*
X66959Y65815D01*
X67025Y65802D01*
X67053Y65736D01*
X67110Y65662D01*
X67184Y65604D01*
X67271Y65569D01*
X67363Y65556D01*
X67456Y65569D01*
X67543Y65604D01*
X67617Y65662D01*
X67674Y65736D01*
X67710Y65822D01*
X67722Y65915D01*
X67710Y66008D01*
X67674Y66095D01*
X67617Y66169D01*
X67543Y66226D01*
X67456Y66262D01*
X67363Y66274D01*
X67271Y66262D01*
X67184Y66226D01*
X67110Y66169D01*
X67070Y66200D01*
X63526Y69743D01*
X63532Y69785D01*
X63539Y69793D01*
X63587Y69818D01*
X63636Y69808D01*
X67375D01*
X67785Y69399D01*
X67781Y69370D01*
X67793Y69277D01*
X67829Y69191D01*
X67886Y69116D01*
X67960Y69059D01*
X68047Y69023D01*
X68140Y69011D01*
X68233Y69023D01*
X68319Y69059D01*
X68394Y69116D01*
X68451Y69191D01*
X68486Y69277D01*
X68499Y69370D01*
X68486Y69463D01*
X68451Y69550D01*
X68394Y69624D01*
X68319Y69681D01*
X68233Y69717D01*
X68140Y69729D01*
X68047Y69717D01*
X68001Y69698D01*
X67580Y70119D01*
X67520Y70159D01*
X67451Y70172D01*
X67451Y70172D01*
X63712D01*
X63488Y70396D01*
X63429Y70436D01*
X63359Y70450D01*
X63359Y70450D01*
X61606D01*
X61606Y70450D01*
X61536Y70436D01*
X61477Y70396D01*
X59452Y68371D01*
X54262D01*
X54262Y82080D01*
X55407D01*
X55415Y82069D01*
X55490Y82012D01*
X55576Y81976D01*
X55669Y81964D01*
X55762Y81976D01*
X55849Y82012D01*
X55923Y82069D01*
X55980Y82143D01*
X56016Y82230D01*
X56028Y82323D01*
X56016Y82416D01*
X55980Y82502D01*
X55923Y82577D01*
X55849Y82634D01*
X55762Y82670D01*
X55669Y82682D01*
X55576Y82670D01*
X55490Y82634D01*
X55415Y82577D01*
X55407Y82565D01*
X54262D01*
X54262Y88285D01*
X55389Y88287D01*
X55425Y88252D01*
Y86765D01*
X55353Y86711D01*
X55296Y86636D01*
X55260Y86550D01*
X55248Y86457D01*
X55260Y86364D01*
X55296Y86277D01*
X55353Y86203D01*
X55417Y86154D01*
Y86104D01*
X55353D01*
Y85668D01*
X55989D01*
Y85566D01*
X55361D01*
X55228Y85699D01*
Y86102D01*
X54772D01*
Y85650D01*
X54805D01*
X54851Y85636D01*
X54865Y85566D01*
X54904Y85507D01*
X55157Y85255D01*
X55157Y85255D01*
X55216Y85215D01*
X55285Y85202D01*
X55285Y85202D01*
X56079D01*
X56079Y85202D01*
X56149Y85215D01*
X56208Y85255D01*
X56300Y85347D01*
X56300Y85347D01*
X56340Y85406D01*
X56354Y85476D01*
Y85713D01*
X56455D01*
Y85687D01*
X56539D01*
X56570Y85650D01*
X56584Y85580D01*
X56623Y85521D01*
X56781Y85363D01*
X56781Y85363D01*
X56840Y85324D01*
X56909Y85310D01*
X57490D01*
X57490Y85310D01*
X57560Y85324D01*
X57619Y85363D01*
X57804Y85548D01*
X57894Y85537D01*
X57987Y85549D01*
X58073Y85585D01*
X58148Y85642D01*
X58205Y85716D01*
X58240Y85803D01*
X58253Y85896D01*
X58240Y85989D01*
X58205Y86075D01*
X58148Y86150D01*
X58073Y86207D01*
X57987Y86242D01*
X57894Y86255D01*
X57801Y86242D01*
X57714Y86207D01*
X57640Y86150D01*
X57583Y86075D01*
X57547Y85989D01*
X57535Y85896D01*
X57547Y85806D01*
X57415Y85674D01*
X57408D01*
X57364Y85687D01*
Y86124D01*
X57308D01*
Y86721D01*
X57294Y86791D01*
X57255Y86850D01*
X57255Y86850D01*
X57185Y86920D01*
Y87649D01*
X57089D01*
Y88290D01*
X62106Y88300D01*
X62142Y88265D01*
Y87649D01*
X62046D01*
Y86662D01*
X62640D01*
X62657Y86658D01*
X62657Y86658D01*
X62680D01*
X63067Y86272D01*
X63046Y86222D01*
X62607D01*
Y86044D01*
X62287Y85724D01*
X61480D01*
X61472Y85736D01*
X61499Y85786D01*
X62236D01*
Y86222D01*
X62120D01*
X62107Y86283D01*
X62068Y86342D01*
X62068Y86342D01*
X61944Y86466D01*
X61951Y86482D01*
X61963Y86575D01*
X61951Y86668D01*
X61915Y86754D01*
X61858Y86829D01*
X61784Y86886D01*
X61697Y86922D01*
X61604Y86934D01*
X61511Y86922D01*
X61425Y86886D01*
X61350Y86829D01*
X61293Y86754D01*
X61258Y86668D01*
X61245Y86575D01*
X61258Y86482D01*
X61293Y86395D01*
X61350Y86321D01*
X61414Y86272D01*
X61404Y86226D01*
X61401Y86222D01*
X61327D01*
Y86171D01*
X61124D01*
Y86200D01*
X60668D01*
Y85748D01*
X61038D01*
Y85689D01*
X61038Y85689D01*
X61052Y85619D01*
X61092Y85560D01*
X61239Y85412D01*
X61239Y85412D01*
X61298Y85373D01*
X61368Y85359D01*
X61368Y85359D01*
X62362D01*
X62362Y85359D01*
X62432Y85373D01*
X62491Y85412D01*
X62749Y85671D01*
X62775Y85668D01*
X63024Y85419D01*
X63024Y85419D01*
X63084Y85379D01*
X63153Y85365D01*
X63153Y85365D01*
X63540D01*
X63540Y85365D01*
X63609Y85379D01*
X63668Y85419D01*
X63887Y85637D01*
X63976Y85625D01*
X64069Y85638D01*
X64156Y85673D01*
X64230Y85730D01*
X64287Y85805D01*
X64323Y85891D01*
X64335Y85984D01*
X64323Y86077D01*
X64287Y86164D01*
X64230Y86238D01*
X64156Y86295D01*
X64069Y86331D01*
X63976Y86343D01*
X63883Y86331D01*
X63797Y86295D01*
X63723Y86238D01*
X63665Y86164D01*
X63630Y86077D01*
X63617Y85984D01*
X63629Y85895D01*
X63565Y85831D01*
X63515Y85852D01*
Y86222D01*
X63460D01*
Y86319D01*
X63460Y86319D01*
X63446Y86389D01*
X63406Y86448D01*
X62885Y86969D01*
X62836Y87002D01*
Y87649D01*
X62740D01*
Y88302D01*
X67775Y88312D01*
X67811Y88276D01*
D02*
G37*
G36*
X18789Y90925D02*
X30719D01*
X33110Y88533D01*
X39272D01*
X43625Y84180D01*
X43606Y84134D01*
X18061D01*
X17790Y84405D01*
X17816Y84450D01*
X17972Y84412D01*
X18204Y84394D01*
X18436Y84412D01*
X18662Y84467D01*
X18877Y84556D01*
X19075Y84677D01*
X19252Y84828D01*
X19403Y85005D01*
X19525Y85204D01*
X19614Y85419D01*
X19668Y85645D01*
X19686Y85877D01*
X19668Y86109D01*
X19614Y86335D01*
X19525Y86550D01*
X19403Y86748D01*
X19252Y86925D01*
X19075Y87076D01*
X18877Y87198D01*
X18662Y87287D01*
X18436Y87341D01*
X18204Y87359D01*
X17972Y87341D01*
X17745Y87287D01*
X17531Y87198D01*
X17332Y87076D01*
X17155Y86925D01*
X17004Y86748D01*
X16883Y86550D01*
X16794Y86335D01*
X16739Y86109D01*
X16721Y85877D01*
X16739Y85645D01*
X16777Y85489D01*
X16731Y85463D01*
X16368Y85827D01*
X15394Y84852D01*
X582Y84852D01*
X540Y93803D01*
X575Y93839D01*
X15876Y93839D01*
X18789Y90925D01*
D02*
G37*
G36*
X46024Y86929D02*
X46063D01*
X47598Y85394D01*
X50472D01*
X50548Y85362D01*
X50630Y85352D01*
X51617D01*
X52165Y84803D01*
Y83307D01*
X51457Y82598D01*
X50118D01*
Y83740D01*
X49173Y84685D01*
X45906D01*
X44961Y85630D01*
Y89685D01*
X46024D01*
Y86929D01*
D02*
G37*
G36*
X51575Y82520D02*
X51624Y82471D01*
X51605Y82424D01*
X47322D01*
X47273Y82473D01*
X47292Y82520D01*
X51575Y82520D01*
D02*
G37*
G36*
X8417Y73995D02*
Y71158D01*
X8367Y71148D01*
X8339Y71213D01*
X8282Y71288D01*
X8208Y71345D01*
X8122Y71381D01*
X8029Y71393D01*
X7936Y71381D01*
X7849Y71345D01*
X7775Y71288D01*
X7718Y71213D01*
X7715Y71206D01*
X7398D01*
X7157Y71447D01*
X7180Y71495D01*
X7205Y71491D01*
X7298Y71504D01*
X7384Y71540D01*
X7459Y71597D01*
X7516Y71671D01*
X7551Y71757D01*
X7564Y71850D01*
X7551Y71943D01*
X7516Y72030D01*
X7459Y72104D01*
X7384Y72161D01*
X7298Y72197D01*
X7205Y72209D01*
X7112Y72197D01*
X7047Y72170D01*
X6988Y72229D01*
X6929Y72269D01*
X6859Y72283D01*
X6859Y72283D01*
X6262D01*
X6242Y72326D01*
Y72374D01*
X6242Y72376D01*
Y72457D01*
X6925D01*
X6951Y72423D01*
X7025Y72366D01*
X7112Y72330D01*
X7205Y72318D01*
X7298Y72330D01*
X7384Y72366D01*
X7459Y72423D01*
X7516Y72498D01*
X7551Y72584D01*
X7564Y72677D01*
X7551Y72770D01*
X7516Y72857D01*
X7459Y72931D01*
X7384Y72988D01*
X7298Y73024D01*
X7205Y73036D01*
X7112Y73024D01*
X7025Y72988D01*
X6951Y72931D01*
X6894Y72857D01*
X6879Y72821D01*
X6242D01*
Y72826D01*
X5416D01*
Y72376D01*
X5416Y72374D01*
Y72326D01*
X5416Y72324D01*
Y71874D01*
X5416D01*
Y71826D01*
X5416D01*
Y71376D01*
X5416Y71374D01*
Y71326D01*
X5416Y71324D01*
Y70876D01*
X5416Y70874D01*
Y70826D01*
X5416Y70824D01*
Y70374D01*
X6242D01*
Y70824D01*
X6242Y70826D01*
Y70874D01*
X6242Y70876D01*
Y71324D01*
X6242Y71326D01*
Y71374D01*
X6262Y71418D01*
X6671D01*
X7194Y70895D01*
X7194Y70895D01*
X7253Y70855D01*
X7323Y70841D01*
X7728D01*
X7775Y70780D01*
X7849Y70723D01*
X7936Y70687D01*
X8029Y70675D01*
X8122Y70687D01*
X8208Y70723D01*
X8282Y70780D01*
X8339Y70854D01*
X8367Y70920D01*
X8417Y70910D01*
Y70373D01*
X8023Y69979D01*
X5464D01*
X5109Y70334D01*
Y73999D01*
X5145Y74034D01*
X8417Y73995D01*
D02*
G37*
G36*
X37813Y71526D02*
X37620D01*
Y71577D01*
X37144D01*
Y71141D01*
X37620D01*
Y71162D01*
X37810D01*
Y71107D01*
X37716Y71013D01*
X37538D01*
Y70766D01*
X37534Y70748D01*
X37534Y70748D01*
Y70625D01*
X37310Y70401D01*
X37271Y70341D01*
X37257Y70272D01*
X37257Y70272D01*
Y70151D01*
X37213Y70135D01*
X37171D01*
X37121Y70151D01*
Y70641D01*
X37121Y70641D01*
X37107Y70710D01*
X37068Y70769D01*
X37068Y70769D01*
X37000Y70838D01*
X36941Y70877D01*
X36871Y70891D01*
X36871Y70891D01*
X36478D01*
Y70927D01*
X36444D01*
X36422Y70970D01*
X36415Y71005D01*
X36439Y71034D01*
X36439D01*
Y71486D01*
X36002D01*
Y71034D01*
X36026D01*
X36038Y70989D01*
X36043Y70965D01*
X36011Y70927D01*
X36002D01*
Y70491D01*
X36478D01*
Y70526D01*
X36757D01*
Y70135D01*
X36713D01*
Y69309D01*
X36757D01*
Y69036D01*
X36486Y68765D01*
X35942D01*
X35497Y69209D01*
Y71130D01*
X36114Y71747D01*
X36554D01*
Y71711D01*
X37462D01*
Y71747D01*
X37813D01*
Y71526D01*
D02*
G37*
G36*
X41339Y72244D02*
Y68371D01*
X39170D01*
X38668Y68873D01*
Y69296D01*
X38713Y69309D01*
X38718Y69309D01*
X39163D01*
X39165Y69309D01*
X39213D01*
X39215Y69309D01*
X39665D01*
Y69878D01*
X39763Y69976D01*
X39763Y69976D01*
X39803Y70035D01*
X39816Y70105D01*
X39816Y70105D01*
Y70219D01*
X40115Y70518D01*
X40294D01*
Y70970D01*
X39858D01*
Y70776D01*
X39505Y70423D01*
X39466Y70364D01*
X39452Y70294D01*
X39452Y70294D01*
Y70180D01*
X39407Y70135D01*
X39215D01*
X39213Y70135D01*
X39165D01*
X39121Y70155D01*
Y70509D01*
X39252Y70640D01*
X39431D01*
Y71092D01*
X38994D01*
Y70898D01*
X38848Y70752D01*
X38802Y70776D01*
X38804Y70787D01*
X38804Y70787D01*
Y71542D01*
X38876Y71597D01*
X38933Y71671D01*
X38940Y71688D01*
X39103D01*
Y71664D01*
X39168D01*
Y71611D01*
X39152D01*
Y71159D01*
X39588D01*
Y71611D01*
X39533D01*
Y71664D01*
X39559D01*
Y72116D01*
X39103D01*
Y72052D01*
X38916D01*
X38876Y72104D01*
X38802Y72161D01*
X38715Y72197D01*
X38622Y72209D01*
X38533Y72198D01*
X38317Y72413D01*
X38338Y72463D01*
X41102Y72480D01*
X41339Y72244D01*
D02*
G37*
G36*
X38311Y71671D02*
X38368Y71597D01*
X38440Y71542D01*
Y70863D01*
X37848Y70271D01*
X37809Y70212D01*
X37795Y70142D01*
X37762Y70138D01*
X37713Y70135D01*
X37671D01*
X37627Y70149D01*
X37622Y70197D01*
X37845Y70420D01*
X37845Y70420D01*
X37885Y70479D01*
X37899Y70549D01*
X37946Y70561D01*
X37974D01*
Y70756D01*
X38121Y70903D01*
X38121Y70903D01*
X38160Y70962D01*
X38174Y71031D01*
Y71091D01*
X38250D01*
Y71524D01*
Y71689D01*
X38300Y71699D01*
X38311Y71671D01*
D02*
G37*
G36*
X17126Y70315D02*
Y67362D01*
X15984D01*
X15984Y40551D01*
X3894Y40551D01*
X3874Y40651D01*
X4420Y40877D01*
X4669Y41478D01*
X4420Y42080D01*
X3819Y42329D01*
X3218Y42080D01*
X2969Y41478D01*
X3218Y40877D01*
X3763Y40651D01*
X3744Y40551D01*
X866Y40551D01*
X866Y69409D01*
X8898Y69409D01*
X9173Y69685D01*
Y71693D01*
X15748Y71693D01*
X17126Y70315D01*
D02*
G37*
G36*
X16693Y82520D02*
X38701D01*
X45130Y82520D01*
X46423Y81227D01*
X46514Y81157D01*
X46619Y81114D01*
X46732Y81099D01*
X52717D01*
X52717Y69059D01*
X45236D01*
Y70827D01*
X43425Y72638D01*
Y72756D01*
X36299Y72756D01*
X36184Y72641D01*
X35512D01*
X35430Y72630D01*
X35353Y72598D01*
X35287Y72547D01*
X33447Y70707D01*
X33396Y70641D01*
X33364Y70564D01*
X33354Y70482D01*
Y70200D01*
X22520D01*
X22437Y70189D01*
X22361Y70157D01*
X22310Y70118D01*
X18543Y70118D01*
X16535Y72126D01*
X9094D01*
X9094Y74055D01*
X8386Y74764D01*
X3955D01*
X3976Y70656D01*
X3926Y70630D01*
X630D01*
Y76496D01*
Y77756D01*
Y84055D01*
X15157D01*
X16693Y82520D01*
D02*
G37*
G36*
X35958Y72091D02*
X35910Y72058D01*
X35910Y72058D01*
X35186Y71334D01*
X35147Y71275D01*
X35133Y71206D01*
X35133Y71206D01*
Y69134D01*
X35133Y69134D01*
X35147Y69064D01*
X35186Y69005D01*
X35737Y68454D01*
X35737Y68454D01*
X35796Y68414D01*
X35866Y68400D01*
X35866Y68400D01*
X36561D01*
X36561Y68400D01*
X36631Y68414D01*
X36690Y68454D01*
X37068Y68831D01*
X37068Y68832D01*
X37107Y68891D01*
X37121Y68960D01*
Y69294D01*
X37165Y69309D01*
X37213D01*
Y69309D01*
X37665D01*
Y69309D01*
X37713D01*
Y69309D01*
X38163D01*
X38165Y69309D01*
Y69309D01*
X38213D01*
Y69309D01*
X38304D01*
Y68797D01*
X38304Y68797D01*
X38318Y68727D01*
X38357Y68668D01*
X38919Y68106D01*
X38899Y68056D01*
X35863D01*
X34764Y69155D01*
Y71317D01*
X35587Y72141D01*
X35949D01*
X35958Y72091D01*
D02*
G37*
G36*
X64300Y65442D02*
X64300Y65442D01*
X65259Y64483D01*
X65255Y64459D01*
X65241Y64433D01*
X59555D01*
X59540Y64445D01*
X59453Y64481D01*
X59360Y64493D01*
X59267Y64481D01*
X59181Y64445D01*
X59106Y64388D01*
X59049Y64313D01*
X59013Y64227D01*
X59001Y64134D01*
X59013Y64041D01*
X59049Y63954D01*
X59061Y63939D01*
Y63028D01*
X58843Y62810D01*
X58796Y62748D01*
X58766Y62676D01*
X58756Y62598D01*
Y58986D01*
X58614D01*
X58609Y58993D01*
X58506Y59072D01*
X58453Y59093D01*
X56283Y61264D01*
X56193Y61333D01*
X56087Y61377D01*
X55974Y61392D01*
X54262D01*
X54262Y67159D01*
X62584D01*
X64300Y65442D01*
D02*
G37*
G36*
X85331Y62199D02*
Y58986D01*
Y55282D01*
X83262Y53213D01*
X82474D01*
Y53219D01*
X82470Y53238D01*
X82466Y53258D01*
X82466Y53258D01*
X82466Y53258D01*
X82455Y53275D01*
X82445Y53291D01*
X82444Y53291D01*
X82444Y53291D01*
X82428Y53302D01*
X82412Y53313D01*
X82411Y53313D01*
X82411Y53314D01*
X82392Y53317D01*
X82373Y53321D01*
X81325Y53328D01*
X81308Y53378D01*
X81346Y53408D01*
X81403Y53482D01*
X81439Y53569D01*
X81451Y53661D01*
X81439Y53754D01*
X81403Y53841D01*
X81346Y53915D01*
X81295Y53954D01*
X81277Y53985D01*
X81294Y54035D01*
X81426D01*
Y54004D01*
X82077D01*
X82096Y53985D01*
X82096Y53985D01*
X82155Y53946D01*
X82224Y53932D01*
X82224Y53932D01*
X82570D01*
Y53817D01*
X82711D01*
Y53720D01*
X82666D01*
Y53268D01*
X83122D01*
Y53720D01*
X83076D01*
Y53929D01*
X83076Y53929D01*
X83062Y53999D01*
X83023Y54058D01*
X83023Y54058D01*
X83006Y54075D01*
Y54411D01*
X82570D01*
Y54296D01*
X82334D01*
Y54441D01*
X81426D01*
Y54400D01*
X81271D01*
Y54431D01*
X80363D01*
Y54252D01*
X80013Y53903D01*
X79210D01*
Y54388D01*
X79260Y54391D01*
X79269Y54318D01*
X79305Y54232D01*
X79362Y54157D01*
X79437Y54100D01*
X79523Y54064D01*
X79616Y54052D01*
X79709Y54064D01*
X79796Y54100D01*
X79870Y54157D01*
X79927Y54232D01*
X79963Y54318D01*
X79975Y54411D01*
X79963Y54504D01*
X79927Y54591D01*
X79870Y54665D01*
X79808Y54712D01*
X79824Y54762D01*
X79824Y54762D01*
X80297D01*
Y54877D01*
X80392D01*
Y54782D01*
X81183D01*
Y55336D01*
X80392D01*
Y55241D01*
X80297D01*
Y55356D01*
X79782D01*
Y54784D01*
X79782Y54784D01*
Y54784D01*
X79782Y54782D01*
X79776Y54777D01*
X79739Y54745D01*
X79709Y54758D01*
X79667Y54763D01*
Y55356D01*
X79592D01*
Y55510D01*
X79667D01*
Y56104D01*
X79257D01*
X79236Y56154D01*
X79672Y56589D01*
X81012D01*
Y56554D01*
X81921D01*
Y56990D01*
X81865D01*
Y57124D01*
X82452D01*
Y57302D01*
X82714Y57564D01*
X83011D01*
X83077Y57498D01*
Y57355D01*
X83077Y57355D01*
X83079Y57345D01*
Y57082D01*
X83277D01*
X83319Y57040D01*
X83318Y56990D01*
X83318D01*
Y56396D01*
X83754D01*
Y56990D01*
X83718D01*
Y57081D01*
X83718Y57081D01*
X83704Y57151D01*
X83665Y57210D01*
X83665Y57210D01*
X83535Y57340D01*
Y57534D01*
X83442D01*
Y57573D01*
X83428Y57643D01*
X83388Y57702D01*
X83388Y57702D01*
X83216Y57875D01*
X83157Y57914D01*
X83087Y57928D01*
X83087Y57928D01*
X82639D01*
X82639Y57928D01*
X82569Y57914D01*
X82510Y57875D01*
X82510Y57875D01*
X82195Y57560D01*
X81544D01*
Y57516D01*
X81425D01*
X81376Y57580D01*
X81302Y57637D01*
X81215Y57673D01*
X81122Y57685D01*
X81029Y57673D01*
X80943Y57637D01*
X80868Y57580D01*
X80811Y57505D01*
X80775Y57419D01*
X80763Y57326D01*
X80775Y57233D01*
X80811Y57147D01*
X80868Y57072D01*
X80943Y57015D01*
X80970Y57004D01*
X80960Y56954D01*
X79596D01*
X79596Y56954D01*
X79527Y56940D01*
X79468Y56901D01*
X79468Y56901D01*
X78899Y56332D01*
X78859Y56272D01*
X78845Y56203D01*
X78845Y56203D01*
Y54590D01*
X78802Y54563D01*
X78795Y54563D01*
X78692Y54666D01*
X78633Y54706D01*
X78563Y54720D01*
X78563Y54720D01*
X78376D01*
X78376Y54720D01*
X78358Y54716D01*
X78119D01*
Y54237D01*
X77974D01*
Y54736D01*
X77796D01*
X77781Y54751D01*
Y54951D01*
X77826D01*
Y55403D01*
X77781D01*
Y55562D01*
X77781Y55562D01*
X77767Y55632D01*
X77727Y55691D01*
X77727Y55691D01*
X77650Y55768D01*
Y56104D01*
X77214D01*
Y55510D01*
X77393D01*
X77416Y55487D01*
Y55403D01*
X77370D01*
Y54951D01*
X77416D01*
Y54675D01*
X77416Y54675D01*
X77430Y54605D01*
X77470Y54546D01*
X77538Y54478D01*
Y54244D01*
X77422D01*
X77370Y54312D01*
X77296Y54369D01*
X77209Y54405D01*
X77116Y54417D01*
X77023Y54405D01*
X76937Y54369D01*
X76862Y54312D01*
X76805Y54238D01*
X76769Y54151D01*
X76757Y54058D01*
X76769Y53965D01*
X76805Y53879D01*
X76862Y53804D01*
X76937Y53747D01*
X77023Y53712D01*
X77116Y53699D01*
X77209Y53712D01*
X77296Y53747D01*
X77370Y53804D01*
X77427Y53879D01*
X77427Y53879D01*
X77538D01*
Y53827D01*
X77974D01*
Y53873D01*
X78119D01*
Y53807D01*
X78555D01*
Y54219D01*
X78598Y54245D01*
X78605Y54246D01*
X78641Y54221D01*
X78653Y54219D01*
X78845Y54027D01*
Y53720D01*
Y52169D01*
X77769D01*
X77765Y52171D01*
X77726Y52179D01*
X76280D01*
X76241Y52171D01*
X76207Y52149D01*
X76185Y52116D01*
X76178Y52077D01*
Y50699D01*
X76185Y50660D01*
X76207Y50627D01*
X76326Y50509D01*
X76359Y50487D01*
X76398Y50479D01*
X76663D01*
X76683Y50483D01*
X76702Y50486D01*
X76702Y50486D01*
X76702Y50487D01*
X76718Y50497D01*
X76722Y50499D01*
X76723Y50499D01*
X76723Y50499D01*
X76723Y50499D01*
X76723Y50499D01*
X76731Y50505D01*
X76738Y50511D01*
X76748Y50511D01*
X76748D01*
X77559Y50502D01*
X77579Y50502D01*
X77585Y50496D01*
X77594Y50492D01*
X77602Y50487D01*
X77612Y50485D01*
X77621Y50481D01*
X77631Y50481D01*
X77641Y50479D01*
X78540D01*
X78658Y50361D01*
Y48711D01*
X78666Y48672D01*
X78688Y48639D01*
X78721Y48616D01*
X78760Y48609D01*
X79282D01*
X79299Y48612D01*
X79321Y48616D01*
X79321Y48616D01*
X79330Y48621D01*
X79363Y48643D01*
X79363Y48643D01*
X79386Y48676D01*
X79386Y48676D01*
X79393Y48715D01*
Y50332D01*
X80505Y51444D01*
X80527Y51477D01*
X80528Y51481D01*
X80546Y51492D01*
X80778Y51483D01*
Y47362D01*
X80152D01*
Y47583D01*
X80157D01*
Y47942D01*
X80192Y47988D01*
X80205Y48018D01*
X80222Y48060D01*
X80232Y48138D01*
Y49134D01*
X80222Y49211D01*
X80220Y49217D01*
Y49578D01*
X79646D01*
Y49217D01*
X79644Y49211D01*
X79634Y49134D01*
Y48362D01*
X79556D01*
Y47988D01*
X79553Y47969D01*
Y47187D01*
X79534Y47140D01*
X79523Y47063D01*
Y46703D01*
X79473Y46693D01*
X79452Y46744D01*
X79450Y46747D01*
Y46891D01*
X79212D01*
X79193Y46894D01*
X79009D01*
X78989Y46891D01*
X78935D01*
Y46884D01*
X78931Y46884D01*
X78889Y46866D01*
X78859Y46854D01*
X78805Y46812D01*
X78140D01*
X78120Y46810D01*
X77823D01*
Y46137D01*
X78437D01*
Y46214D01*
X78927D01*
X79005Y46224D01*
X79077Y46254D01*
X79131Y46295D01*
X79193D01*
X79212Y46298D01*
X79450D01*
Y46442D01*
X79452Y46445D01*
X79482Y46517D01*
X79483Y46521D01*
X79533D01*
X79534Y46517D01*
X79564Y46445D01*
X79565Y46442D01*
Y46298D01*
X79604D01*
Y46176D01*
X79520D01*
Y45620D01*
X79252D01*
Y45297D01*
X79224Y45279D01*
X79202Y45246D01*
X79194Y45207D01*
Y43559D01*
X79197Y43545D01*
X79198Y43530D01*
X79201Y43525D01*
X79202Y43520D01*
X79210Y43508D01*
X79217Y43495D01*
X79252Y43452D01*
Y43307D01*
X79176Y43125D01*
X79022Y43061D01*
X78928D01*
X78773Y43125D01*
X78689Y43327D01*
X78748Y43467D01*
X78755Y43506D01*
Y45207D01*
X78748Y45246D01*
X78726Y45279D01*
X78692Y45301D01*
X78653Y45309D01*
X77044D01*
X76732Y45620D01*
X76181D01*
Y47018D01*
X74193Y49006D01*
X72096D01*
X71706Y49396D01*
Y51230D01*
X71692Y51343D01*
X71648Y51449D01*
X71579Y51539D01*
X71412Y51706D01*
X70899Y52218D01*
X70809Y52288D01*
X70704Y52331D01*
X70591Y52346D01*
X69275D01*
Y52854D01*
X69261Y52967D01*
X69217Y53073D01*
X69147Y53163D01*
X68444Y53867D01*
X68463Y53913D01*
X69755D01*
X69873D01*
X70013Y53774D01*
Y53447D01*
X69988Y53387D01*
X69976Y53295D01*
X69988Y53202D01*
X70024Y53115D01*
X70081Y53041D01*
X70155Y52984D01*
X70242Y52948D01*
X70335Y52936D01*
X70428Y52948D01*
X70514Y52984D01*
X70588Y53041D01*
X70646Y53115D01*
X70681Y53202D01*
X70694Y53295D01*
X70681Y53387D01*
X70646Y53474D01*
X70611Y53518D01*
Y53863D01*
X70655Y53913D01*
X71270Y53913D01*
Y56210D01*
X74092Y59032D01*
X74444Y59384D01*
X78415D01*
X78493Y59400D01*
X78558Y59444D01*
X79196Y60081D01*
X79240Y60147D01*
X79255Y60224D01*
Y60955D01*
X79280Y60965D01*
X79374Y61037D01*
X79446Y61131D01*
X79492Y61241D01*
X79507Y61358D01*
X79492Y61476D01*
X79446Y61585D01*
X79374Y61679D01*
X79280Y61751D01*
X79171Y61797D01*
X79053Y61812D01*
X78936Y61797D01*
X78826Y61751D01*
X78732Y61679D01*
X78660Y61585D01*
X78615Y61476D01*
X78599Y61358D01*
X78615Y61241D01*
X78660Y61131D01*
X78732Y61037D01*
X78826Y60965D01*
X78851Y60955D01*
Y60308D01*
X78332Y59789D01*
X74360D01*
X74283Y59774D01*
X74217Y59730D01*
X73474Y58986D01*
X66640Y58986D01*
X66636Y59019D01*
X66600Y59106D01*
X66543Y59180D01*
X66469Y59237D01*
X66382Y59273D01*
X66289Y59285D01*
X66196Y59273D01*
X66110Y59237D01*
X66036Y59180D01*
X65978Y59106D01*
X65943Y59019D01*
X65938Y58986D01*
X62618Y58986D01*
X61323Y60282D01*
Y60998D01*
X61374Y61037D01*
X61446Y61131D01*
X61492Y61241D01*
X61507Y61358D01*
X61492Y61476D01*
X61446Y61585D01*
X61374Y61679D01*
X61353Y61696D01*
Y62021D01*
X61374Y62037D01*
X61446Y62131D01*
X61492Y62241D01*
X61507Y62358D01*
X61492Y62476D01*
X61446Y62585D01*
X61374Y62679D01*
X61280Y62751D01*
X61171Y62797D01*
X61053Y62812D01*
X60936Y62797D01*
X60826Y62751D01*
X60732Y62679D01*
X60660Y62585D01*
X60615Y62476D01*
X60599Y62358D01*
X60615Y62241D01*
X60660Y62131D01*
X60732Y62037D01*
X60754Y62021D01*
Y61696D01*
X60732Y61679D01*
X60660Y61585D01*
X60615Y61476D01*
X60599Y61358D01*
X60615Y61241D01*
X60660Y61131D01*
X60724Y61048D01*
Y60157D01*
X60734Y60080D01*
X60764Y60008D01*
X60812Y59946D01*
X61725Y59032D01*
X61706Y58986D01*
X59355Y58986D01*
Y62474D01*
X59572Y62692D01*
X59620Y62754D01*
X59632Y62784D01*
X59649Y62826D01*
X59660Y62904D01*
Y63834D01*
X83695D01*
X85331Y62199D01*
D02*
G37*
G36*
X52717Y56968D02*
X50157Y54409D01*
X39449D01*
X38346Y55512D01*
Y66142D01*
X38543Y66299D01*
X43032D01*
X43756Y67023D01*
X52717D01*
X52717Y56968D01*
D02*
G37*
G36*
X25256Y67034D02*
X25338Y67023D01*
X32150D01*
X33071Y66102D01*
X38031D01*
X38031Y55512D01*
X36929Y54409D01*
X23701Y54409D01*
X23346Y54055D01*
Y50532D01*
X24124Y49754D01*
X25591D01*
X25620Y49724D01*
Y48831D01*
X25583D01*
Y47705D01*
X25620D01*
Y46299D01*
X27234Y44685D01*
X33622D01*
X34114Y45177D01*
X34085Y45207D01*
Y50000D01*
X35246Y51161D01*
X41161D01*
X42815Y49508D01*
X43976D01*
X44006Y49478D01*
Y46673D01*
X45217Y45463D01*
X48382D01*
X48385Y45461D01*
X48385Y45461D01*
D01*
X48388Y45461D01*
X48396Y45460D01*
X48396D01*
X48514Y45445D01*
X48642Y45461D01*
X48642Y45461D01*
X48642Y45461D01*
X48646Y45463D01*
X53051D01*
X54872Y47283D01*
Y51161D01*
X60030D01*
X61526Y49665D01*
X61555Y49695D01*
X62382D01*
Y36939D01*
X60089Y34646D01*
X50285D01*
X45896Y39035D01*
X36919D01*
X33110Y35226D01*
X28612D01*
X24892Y38947D01*
X22205D01*
X21594Y39557D01*
Y41506D01*
X20364Y42736D01*
X17904D01*
X17264Y43376D01*
Y53209D01*
X17323Y53268D01*
Y63898D01*
X20472Y67047D01*
X25224D01*
X25256Y67034D01*
D02*
G37*
G36*
X42585Y53142D02*
X42560Y53096D01*
X42510Y53106D01*
X40148D01*
X40138Y53156D01*
X40150Y53161D01*
X40224Y53218D01*
X40279Y53289D01*
X42437D01*
X42585Y53142D01*
D02*
G37*
G36*
X57775Y58536D02*
X57778Y58513D01*
X57828Y58394D01*
X57907Y58291D01*
X58010Y58212D01*
X58129Y58162D01*
X58258Y58145D01*
X58386Y58162D01*
X58506Y58212D01*
X58609Y58291D01*
X58614Y58298D01*
X58661Y58281D01*
Y55827D01*
X59724Y54764D01*
X60575Y53913D01*
X60770D01*
X60789Y53867D01*
X59742Y52820D01*
X43422D01*
X42641Y53601D01*
X42582Y53640D01*
X42513Y53654D01*
X42513Y53654D01*
X40279D01*
X40224Y53726D01*
X40150Y53783D01*
X40063Y53818D01*
X39970Y53831D01*
X39878Y53818D01*
X39791Y53783D01*
X39717Y53726D01*
X39662Y53654D01*
X39338D01*
X39338Y53654D01*
X39268Y53640D01*
X39209Y53601D01*
X39209Y53601D01*
X39098Y53489D01*
X25918D01*
X25848Y53475D01*
X25789Y53436D01*
X25789Y53436D01*
X25177Y52824D01*
X24834D01*
Y52895D01*
X24398D01*
Y52420D01*
Y52244D01*
X24257Y52103D01*
X24211Y52122D01*
Y53674D01*
X24450Y53913D01*
X54291Y53913D01*
Y59016D01*
X57296D01*
X57775Y58536D01*
D02*
G37*
G36*
X42626Y52502D02*
X42593Y52464D01*
X42542Y52503D01*
X42455Y52539D01*
X42362Y52551D01*
X42269Y52539D01*
X42236Y52525D01*
X42234Y52525D01*
X26565D01*
X26488Y52510D01*
X26422Y52466D01*
X25662Y51706D01*
X25492D01*
X25473Y51752D01*
X26422Y52701D01*
X42426D01*
X42626Y52502D01*
D02*
G37*
G36*
X26238Y53075D02*
X26196Y53047D01*
X24855Y51706D01*
X24483D01*
Y51814D01*
X24656Y51987D01*
X24834D01*
Y52459D01*
X25163D01*
X25166Y52457D01*
X25236Y52443D01*
X25306Y52457D01*
X25365Y52496D01*
X25994Y53125D01*
X26223D01*
X26238Y53075D01*
D02*
G37*
G36*
X82372Y53219D02*
Y52470D01*
X82343Y52441D01*
X79789D01*
X79754Y52476D01*
X79754Y53201D01*
X79789Y53237D01*
X82372Y53219D01*
D02*
G37*
G36*
X63146Y53807D02*
X62544Y53204D01*
X62500Y53138D01*
X62485Y53061D01*
Y52771D01*
X61860Y52146D01*
X61551Y52456D01*
X61485Y52500D01*
X61407Y52515D01*
X60018D01*
X59999Y52561D01*
X61351Y53913D01*
X63040D01*
X63146Y53807D01*
D02*
G37*
G36*
X85689Y52648D02*
Y51535D01*
X84124D01*
X83976Y51388D01*
Y50492D01*
X84213Y50256D01*
X85482D01*
Y49675D01*
X85187Y49380D01*
Y45207D01*
X85506D01*
X85623Y44970D01*
X85542Y44774D01*
X85655Y44502D01*
X85755Y44461D01*
X85909Y44306D01*
Y42326D01*
X85811D01*
Y41758D01*
X85787Y41699D01*
Y41212D01*
X85748Y41173D01*
X85628D01*
Y40955D01*
X85604Y40896D01*
X85622Y40852D01*
X85628Y40619D01*
Y40543D01*
X85628D01*
Y40325D01*
X85604Y40266D01*
Y39559D01*
X85368Y39471D01*
X85277Y39576D01*
Y40228D01*
X84664D01*
Y39556D01*
X84664Y39556D01*
X84605Y39381D01*
X84605D01*
X84605Y39344D01*
Y39015D01*
X84385Y38857D01*
X84369Y38855D01*
X84346Y38864D01*
Y38864D01*
X83335D01*
Y38658D01*
X82935D01*
Y39037D01*
X81888D01*
Y38825D01*
X81540D01*
X81469Y38796D01*
X79501D01*
X79118Y39179D01*
Y39358D01*
X78940D01*
X78055Y40242D01*
Y40265D01*
X77961Y40492D01*
X77056Y41397D01*
X77152Y41633D01*
X77379Y41728D01*
X78176Y42524D01*
X78270Y42752D01*
Y43084D01*
X78361Y43304D01*
X78589D01*
X78695Y43047D01*
X78975Y42931D01*
X79255Y43047D01*
X79361Y43304D01*
X79589D01*
X79695Y43047D01*
X79975Y42931D01*
X80255Y43047D01*
X80370Y43327D01*
X80270Y43570D01*
Y45207D01*
X81860D01*
Y50266D01*
X83730Y52136D01*
X84409Y52136D01*
X84931Y52657D01*
X85679D01*
X85689Y52648D01*
D02*
G37*
G36*
X42957Y52170D02*
X43330Y51797D01*
Y51706D01*
X41828D01*
X41694Y51840D01*
Y52009D01*
X40786D01*
Y51977D01*
X40547D01*
X40547Y51978D01*
X40490Y52052D01*
X40466Y52071D01*
X40483Y52121D01*
X42013D01*
X42015Y52099D01*
X42051Y52013D01*
X42108Y51938D01*
X42183Y51881D01*
X42269Y51845D01*
X42362Y51833D01*
X42455Y51845D01*
X42542Y51881D01*
X42616Y51938D01*
X42673Y52013D01*
X42709Y52099D01*
X42721Y52192D01*
X42709Y52285D01*
X42673Y52372D01*
X42634Y52423D01*
X42672Y52456D01*
X42957Y52170D01*
D02*
G37*
G36*
X68402Y52673D02*
Y52156D01*
X68417Y52042D01*
X68460Y51937D01*
X68530Y51847D01*
X68624Y51752D01*
X68605Y51706D01*
X64149D01*
Y52008D01*
X64149Y52008D01*
X64145Y52025D01*
Y52265D01*
X63548D01*
Y52382D01*
X63643D01*
Y52818D01*
X63168D01*
Y52382D01*
X63184D01*
Y51706D01*
X62161D01*
Y51762D01*
X62146Y51839D01*
X62137Y51851D01*
X62830Y52544D01*
X62874Y52610D01*
X62889Y52687D01*
Y52977D01*
X63519Y53607D01*
X63555Y53661D01*
X65074D01*
X65151Y53676D01*
X65217Y53720D01*
X65410Y53913D01*
X67162Y53913D01*
X68402Y52673D01*
D02*
G37*
G36*
X60872Y52061D02*
X60849Y52042D01*
X60791Y51968D01*
X60790Y51964D01*
X44685D01*
X44608Y51949D01*
X44542Y51905D01*
X44343Y51706D01*
X43734D01*
Y51881D01*
X43719Y51959D01*
X43675Y52024D01*
X43635Y52064D01*
X43654Y52111D01*
X60855D01*
X60872Y52061D01*
D02*
G37*
G36*
X40006Y52071D02*
X39982Y52052D01*
X39925Y51978D01*
X39889Y51891D01*
X39877Y51798D01*
X39885Y51743D01*
X39852Y51706D01*
X26299D01*
X26280Y51752D01*
X26649Y52121D01*
X39989D01*
X40006Y52071D01*
D02*
G37*
G36*
X77736Y52067D02*
X80433D01*
Y51635D01*
X80429Y51619D01*
X80433Y51595D01*
Y51516D01*
X79291Y50374D01*
Y48715D01*
X79282Y48711D01*
X78760D01*
Y50404D01*
X78583Y50581D01*
X77641D01*
X77635Y50585D01*
X77619Y50596D01*
X77618Y50596D01*
X77618Y50596D01*
X77599Y50600D01*
X77580Y50604D01*
X76739Y50613D01*
X76739Y50613D01*
X76739Y50613D01*
X76720Y50610D01*
X76700Y50606D01*
X76700Y50606D01*
X76700Y50606D01*
X76683Y50595D01*
X76667Y50584D01*
X76667Y50584D01*
X76667Y50584D01*
X76663Y50581D01*
X76398D01*
X76280Y50699D01*
Y52077D01*
X77726D01*
X77736Y52067D01*
D02*
G37*
G36*
X51388Y45703D02*
X48645D01*
X48645Y45703D01*
X48645Y45703D01*
X48645D01*
X48625Y45699D01*
X48611Y45700D01*
X48600Y45699D01*
X48428D01*
X48417Y45700D01*
X48403Y45699D01*
X48383Y45703D01*
X48383D01*
X48383Y45703D01*
X48383Y45703D01*
X46206D01*
X45640Y46270D01*
X45640Y49872D01*
X46742Y50974D01*
X51388D01*
X51388Y45703D01*
D02*
G37*
G36*
X32835Y45677D02*
X27658Y45677D01*
X27087Y46248D01*
X27087Y49850D01*
X28189Y50953D01*
X32835D01*
X32835Y45677D01*
D02*
G37*
G36*
X69862Y45638D02*
X64685Y45638D01*
X64114Y46209D01*
X64114Y49811D01*
X65217Y50913D01*
X69862D01*
X69862Y45638D01*
D02*
G37*
G36*
X79627Y43528D02*
X79426Y43456D01*
X79378Y43459D01*
X79296Y43559D01*
Y45207D01*
X79627D01*
Y43528D01*
D02*
G37*
G36*
X75492Y47264D02*
Y46368D01*
X75502Y46358D01*
Y45207D01*
X78653D01*
Y43506D01*
X78589Y43350D01*
X78361D01*
X78255Y43607D01*
X77975Y43722D01*
X77695Y43607D01*
X77579Y43327D01*
X77627Y43211D01*
Y42885D01*
X77018Y42276D01*
X75752D01*
Y42496D01*
X74741D01*
Y41658D01*
X75309D01*
X75368Y41633D01*
X75692D01*
X75735Y41591D01*
Y41313D01*
X75829Y41086D01*
X75838Y41082D01*
Y41055D01*
X75902D01*
X76056Y40991D01*
X76210Y41055D01*
X76274D01*
X76274Y41055D01*
X76456Y41043D01*
X76515Y41029D01*
X77413Y40132D01*
Y40109D01*
X77507Y39882D01*
X78347Y39041D01*
X77944Y38638D01*
X76824D01*
Y38736D01*
X75813D01*
Y38516D01*
X75540D01*
X75493Y38534D01*
X75375Y38752D01*
X75400Y38813D01*
Y39713D01*
X75740D01*
Y40550D01*
X74729D01*
Y40453D01*
X73270D01*
X73114Y40518D01*
Y40746D01*
X73371Y40852D01*
X73486Y41132D01*
X73371Y41411D01*
X73114Y41518D01*
Y41746D01*
X73371Y41852D01*
X73486Y42132D01*
X73451Y42218D01*
X73827Y42594D01*
X73827Y42594D01*
X73884Y42731D01*
X73884Y42731D01*
Y43399D01*
X74373D01*
X74478Y43355D01*
X74751Y43468D01*
X74864Y43740D01*
X74751Y44013D01*
X74478Y44125D01*
X74275Y44041D01*
X74255D01*
X74096Y44212D01*
X74096Y44277D01*
Y44825D01*
X74096Y44825D01*
X74099Y45025D01*
X74075Y45049D01*
Y47411D01*
X73671Y47815D01*
X72825D01*
X72805Y47835D01*
X72786Y48675D01*
X72821Y48711D01*
X74045D01*
X75492Y47264D01*
D02*
G37*
G36*
X73144Y45030D02*
X73014Y44825D01*
X72676D01*
Y44212D01*
X72703D01*
X72803Y44017D01*
Y43423D01*
X73196D01*
X73318Y43423D01*
X73497Y43285D01*
Y42811D01*
X73177Y42492D01*
X73091Y42527D01*
X72811Y42411D01*
X72695Y42132D01*
X72811Y41852D01*
X73068Y41746D01*
Y41518D01*
X72811Y41411D01*
X72695Y41132D01*
X72811Y40852D01*
X73068Y40746D01*
Y40518D01*
X72811Y40411D01*
X72695Y40132D01*
X72811Y39852D01*
X73091Y39736D01*
X73270Y39810D01*
X74729D01*
Y39713D01*
X74757D01*
Y38813D01*
X74787Y38740D01*
X74681Y38531D01*
X74623Y38504D01*
X72342D01*
X72300Y38546D01*
Y45207D01*
X73052D01*
X73144Y45030D01*
D02*
G37*
G36*
X18898Y24417D02*
X18883Y24404D01*
X18753Y24253D01*
X18649Y24082D01*
X18572Y23897D01*
X18526Y23703D01*
X18510Y23504D01*
X18526Y23305D01*
X18572Y23110D01*
X18649Y22926D01*
X18753Y22755D01*
X18883Y22603D01*
X18898Y22591D01*
Y22047D01*
X18110Y21260D01*
X17717D01*
X14567Y24409D01*
X8268D01*
X5906Y22047D01*
X787D01*
Y29921D01*
X3150Y32283D01*
X18898D01*
Y24417D01*
D02*
G37*
G36*
X71657Y38413D02*
X71751Y38186D01*
X71982Y37956D01*
X72209Y37861D01*
X75311D01*
X75340Y37874D01*
X76197D01*
X76256Y37898D01*
X76824D01*
Y37996D01*
X78078D01*
X78305Y38090D01*
X78802Y38587D01*
X79141Y38248D01*
X79368Y38153D01*
X80634D01*
Y37892D01*
X81487D01*
Y38153D01*
X81510D01*
X81581Y38183D01*
X81888D01*
Y37971D01*
X82286D01*
Y36751D01*
X82155Y36435D01*
X82309Y36065D01*
X82449Y36007D01*
X82452Y35999D01*
X82500Y35979D01*
X82560Y35919D01*
X82580Y35871D01*
X84757Y33693D01*
Y30376D01*
X84714D01*
Y29487D01*
X85820D01*
Y30376D01*
X85400D01*
Y33826D01*
X85306Y34054D01*
X83121Y36238D01*
X83203Y36435D01*
X83049Y36805D01*
X82929Y36855D01*
Y37971D01*
X82935D01*
Y38015D01*
X83841D01*
X83867Y38026D01*
X83982D01*
X84056Y37996D01*
X84767D01*
X84814Y38015D01*
X85373D01*
Y37800D01*
X85459Y37592D01*
Y37111D01*
X86470D01*
Y37948D01*
X86016D01*
Y38204D01*
X86152Y38340D01*
X86247Y38567D01*
Y40266D01*
X86228Y40309D01*
X86222Y40543D01*
X86251Y40767D01*
X86335Y40852D01*
X86430Y41079D01*
Y41315D01*
X86649D01*
Y42326D01*
X86552D01*
Y44439D01*
X86458Y44667D01*
X86286Y44838D01*
X86231Y44970D01*
X86348Y45207D01*
X87018D01*
X87018Y9144D01*
X85049Y7175D01*
X71900D01*
X70010Y9065D01*
X70089Y9144D01*
Y13204D01*
X70307Y13294D01*
X70702Y12898D01*
Y11542D01*
X70796Y11315D01*
X72052Y10059D01*
Y9605D01*
X73670D01*
Y9738D01*
X76473D01*
X77213Y8998D01*
X77277Y8844D01*
X77549Y8731D01*
X77683Y8786D01*
X77817Y8586D01*
X77583Y8353D01*
X75767D01*
X74886Y9234D01*
X74822Y9389D01*
X74549Y9501D01*
X74277Y9389D01*
X74164Y9116D01*
X74277Y8844D01*
X74431Y8780D01*
X75407Y7804D01*
X75634Y7710D01*
X77717D01*
X77944Y7804D01*
X79203Y9063D01*
X79911D01*
X81446Y7529D01*
X81673Y7435D01*
X83608D01*
X83835Y7529D01*
X85032Y8726D01*
X85241Y8812D01*
X85354Y9085D01*
X85241Y9357D01*
X84969Y9470D01*
X84696Y9357D01*
X84655Y9257D01*
X83475Y8077D01*
X81806D01*
X80366Y9518D01*
Y9972D01*
X78748D01*
Y9518D01*
X78079Y8849D01*
X77879Y8983D01*
X77934Y9116D01*
X77822Y9389D01*
X77667Y9452D01*
X76834Y10286D01*
X76606Y10380D01*
X73670D01*
Y10513D01*
X72507D01*
X71893Y11128D01*
X72057Y11298D01*
X72287Y11298D01*
X73670D01*
Y11409D01*
X74211D01*
X74454Y11510D01*
X74718Y11774D01*
X75610D01*
X75852Y11874D01*
X77691Y13713D01*
X77953D01*
X78016Y13739D01*
X78624D01*
Y15415D01*
X77636D01*
Y14398D01*
X77549D01*
X77307Y14297D01*
X75468Y12459D01*
X74652D01*
X74549Y12501D01*
X74277Y12389D01*
X74215Y12240D01*
X74070Y12095D01*
X73670D01*
Y12206D01*
X72052D01*
Y11534D01*
X72052Y11302D01*
X71882Y11138D01*
X71345Y11675D01*
Y13032D01*
X71251Y13259D01*
X70089Y14421D01*
Y15672D01*
X70307Y15763D01*
X71824Y14245D01*
X71824Y14245D01*
X72156Y14108D01*
X74154D01*
Y13602D01*
X75413D01*
Y15551D01*
X74154D01*
Y15046D01*
X72350D01*
X70089Y17307D01*
Y44504D01*
X70791Y45207D01*
X71657D01*
Y38413D01*
D02*
G37*
G36*
X60797Y10433D02*
Y6949D01*
X55780D01*
X55709Y7018D01*
Y10571D01*
X60640D01*
X60650Y10581D01*
X60797Y10433D01*
D02*
G37*
G36*
X42234Y10423D02*
Y6939D01*
X37217D01*
X37146Y7008D01*
Y10571D01*
X42087D01*
X42234Y10423D01*
D02*
G37*
G36*
X51378Y10374D02*
Y6890D01*
X46361D01*
X46289Y6959D01*
Y10512D01*
X51220D01*
X51230Y10522D01*
X51378Y10374D01*
D02*
G37*
G36*
X69783Y10364D02*
Y6880D01*
X64766D01*
X64695Y6949D01*
Y10502D01*
X69626D01*
X69636Y10512D01*
X69783Y10364D01*
D02*
G37*
G36*
X23819D02*
Y6880D01*
X18802D01*
X18730Y6949D01*
Y10502D01*
X23661D01*
X23671Y10512D01*
X23819Y10364D01*
D02*
G37*
G36*
X32815Y10335D02*
Y6850D01*
X27798D01*
X27726Y6919D01*
Y10472D01*
X32657D01*
X32667Y10482D01*
X32815Y10335D01*
D02*
G37*
%LPC*%
G36*
X83053Y82812D02*
X82936Y82797D01*
X82826Y82751D01*
X82732Y82679D01*
X82660Y82585D01*
X82615Y82476D01*
X82599Y82358D01*
X82615Y82241D01*
X82660Y82131D01*
X82732Y82037D01*
X82826Y81965D01*
X82936Y81920D01*
X83053Y81904D01*
X83171Y81920D01*
X83280Y81965D01*
X83374Y82037D01*
X83446Y82131D01*
X83492Y82241D01*
X83507Y82358D01*
X83492Y82476D01*
X83446Y82585D01*
X83374Y82679D01*
X83280Y82751D01*
X83171Y82797D01*
X83053Y82812D01*
D02*
G37*
G36*
X82053D02*
X81936Y82797D01*
X81826Y82751D01*
X81732Y82679D01*
X81660Y82585D01*
X81615Y82476D01*
X81599Y82358D01*
X81615Y82241D01*
X81660Y82131D01*
X81732Y82037D01*
X81826Y81965D01*
X81936Y81920D01*
X82053Y81904D01*
X82171Y81920D01*
X82280Y81965D01*
X82374Y82037D01*
X82446Y82131D01*
X82492Y82241D01*
X82507Y82358D01*
X82492Y82476D01*
X82446Y82585D01*
X82374Y82679D01*
X82280Y82751D01*
X82171Y82797D01*
X82053Y82812D01*
D02*
G37*
G36*
X81053D02*
X80936Y82797D01*
X80826Y82751D01*
X80732Y82679D01*
X80660Y82585D01*
X80615Y82476D01*
X80599Y82358D01*
X80615Y82241D01*
X80660Y82131D01*
X80732Y82037D01*
X80826Y81965D01*
X80936Y81920D01*
X81053Y81904D01*
X81171Y81920D01*
X81280Y81965D01*
X81374Y82037D01*
X81446Y82131D01*
X81492Y82241D01*
X81507Y82358D01*
X81492Y82476D01*
X81446Y82585D01*
X81374Y82679D01*
X81280Y82751D01*
X81171Y82797D01*
X81053Y82812D01*
D02*
G37*
G36*
X80053D02*
X79936Y82797D01*
X79826Y82751D01*
X79732Y82679D01*
X79660Y82585D01*
X79615Y82476D01*
X79599Y82358D01*
X79615Y82241D01*
X79660Y82131D01*
X79732Y82037D01*
X79826Y81965D01*
X79936Y81920D01*
X80053Y81904D01*
X80171Y81920D01*
X80280Y81965D01*
X80374Y82037D01*
X80446Y82131D01*
X80492Y82241D01*
X80507Y82358D01*
X80492Y82476D01*
X80446Y82585D01*
X80374Y82679D01*
X80280Y82751D01*
X80171Y82797D01*
X80053Y82812D01*
D02*
G37*
G36*
X79053D02*
X78936Y82797D01*
X78826Y82751D01*
X78732Y82679D01*
X78660Y82585D01*
X78615Y82476D01*
X78599Y82358D01*
X78615Y82241D01*
X78660Y82131D01*
X78732Y82037D01*
X78826Y81965D01*
X78936Y81920D01*
X79053Y81904D01*
X79171Y81920D01*
X79280Y81965D01*
X79374Y82037D01*
X79446Y82131D01*
X79492Y82241D01*
X79507Y82358D01*
X79492Y82476D01*
X79446Y82585D01*
X79374Y82679D01*
X79280Y82751D01*
X79171Y82797D01*
X79053Y82812D01*
D02*
G37*
G36*
X78053D02*
X77936Y82797D01*
X77826Y82751D01*
X77732Y82679D01*
X77660Y82585D01*
X77615Y82476D01*
X77599Y82358D01*
X77615Y82241D01*
X77660Y82131D01*
X77732Y82037D01*
X77826Y81965D01*
X77936Y81920D01*
X78053Y81904D01*
X78171Y81920D01*
X78280Y81965D01*
X78374Y82037D01*
X78446Y82131D01*
X78492Y82241D01*
X78507Y82358D01*
X78492Y82476D01*
X78446Y82585D01*
X78374Y82679D01*
X78280Y82751D01*
X78171Y82797D01*
X78053Y82812D01*
D02*
G37*
G36*
X77053D02*
X76936Y82797D01*
X76826Y82751D01*
X76732Y82679D01*
X76660Y82585D01*
X76615Y82476D01*
X76599Y82358D01*
X76615Y82241D01*
X76660Y82131D01*
X76732Y82037D01*
X76826Y81965D01*
X76936Y81920D01*
X77053Y81904D01*
X77171Y81920D01*
X77280Y81965D01*
X77374Y82037D01*
X77446Y82131D01*
X77492Y82241D01*
X77507Y82358D01*
X77492Y82476D01*
X77446Y82585D01*
X77374Y82679D01*
X77280Y82751D01*
X77171Y82797D01*
X77053Y82812D01*
D02*
G37*
G36*
X76053D02*
X75936Y82797D01*
X75826Y82751D01*
X75732Y82679D01*
X75660Y82585D01*
X75615Y82476D01*
X75599Y82358D01*
X75615Y82241D01*
X75660Y82131D01*
X75732Y82037D01*
X75826Y81965D01*
X75936Y81920D01*
X76053Y81904D01*
X76171Y81920D01*
X76280Y81965D01*
X76374Y82037D01*
X76446Y82131D01*
X76492Y82241D01*
X76507Y82358D01*
X76492Y82476D01*
X76446Y82585D01*
X76374Y82679D01*
X76280Y82751D01*
X76171Y82797D01*
X76053Y82812D01*
D02*
G37*
G36*
X75053D02*
X74936Y82797D01*
X74826Y82751D01*
X74732Y82679D01*
X74660Y82585D01*
X74615Y82476D01*
X74599Y82358D01*
X74615Y82241D01*
X74660Y82131D01*
X74732Y82037D01*
X74826Y81965D01*
X74936Y81920D01*
X75053Y81904D01*
X75171Y81920D01*
X75280Y81965D01*
X75374Y82037D01*
X75446Y82131D01*
X75492Y82241D01*
X75507Y82358D01*
X75492Y82476D01*
X75446Y82585D01*
X75374Y82679D01*
X75280Y82751D01*
X75171Y82797D01*
X75053Y82812D01*
D02*
G37*
G36*
X74053D02*
X73936Y82797D01*
X73826Y82751D01*
X73732Y82679D01*
X73660Y82585D01*
X73615Y82476D01*
X73599Y82358D01*
X73615Y82241D01*
X73660Y82131D01*
X73732Y82037D01*
X73826Y81965D01*
X73936Y81920D01*
X74053Y81904D01*
X74171Y81920D01*
X74280Y81965D01*
X74374Y82037D01*
X74446Y82131D01*
X74492Y82241D01*
X74507Y82358D01*
X74492Y82476D01*
X74446Y82585D01*
X74374Y82679D01*
X74280Y82751D01*
X74171Y82797D01*
X74053Y82812D01*
D02*
G37*
G36*
X73053D02*
X72936Y82797D01*
X72826Y82751D01*
X72732Y82679D01*
X72660Y82585D01*
X72615Y82476D01*
X72599Y82358D01*
X72615Y82241D01*
X72660Y82131D01*
X72732Y82037D01*
X72826Y81965D01*
X72936Y81920D01*
X73053Y81904D01*
X73171Y81920D01*
X73280Y81965D01*
X73374Y82037D01*
X73446Y82131D01*
X73492Y82241D01*
X73507Y82358D01*
X73492Y82476D01*
X73446Y82585D01*
X73374Y82679D01*
X73280Y82751D01*
X73171Y82797D01*
X73053Y82812D01*
D02*
G37*
G36*
X72053D02*
X71936Y82797D01*
X71826Y82751D01*
X71732Y82679D01*
X71660Y82585D01*
X71615Y82476D01*
X71599Y82358D01*
X71615Y82241D01*
X71660Y82131D01*
X71732Y82037D01*
X71826Y81965D01*
X71936Y81920D01*
X72053Y81904D01*
X72171Y81920D01*
X72280Y81965D01*
X72374Y82037D01*
X72446Y82131D01*
X72492Y82241D01*
X72507Y82358D01*
X72492Y82476D01*
X72446Y82585D01*
X72374Y82679D01*
X72280Y82751D01*
X72171Y82797D01*
X72053Y82812D01*
D02*
G37*
G36*
X71053D02*
X70936Y82797D01*
X70826Y82751D01*
X70732Y82679D01*
X70660Y82585D01*
X70615Y82476D01*
X70599Y82358D01*
X70615Y82241D01*
X70660Y82131D01*
X70732Y82037D01*
X70826Y81965D01*
X70936Y81920D01*
X71053Y81904D01*
X71171Y81920D01*
X71280Y81965D01*
X71374Y82037D01*
X71446Y82131D01*
X71492Y82241D01*
X71507Y82358D01*
X71492Y82476D01*
X71446Y82585D01*
X71374Y82679D01*
X71280Y82751D01*
X71171Y82797D01*
X71053Y82812D01*
D02*
G37*
G36*
X69053D02*
X68936Y82797D01*
X68826Y82751D01*
X68732Y82679D01*
X68660Y82585D01*
X68615Y82476D01*
X68599Y82358D01*
X68615Y82241D01*
X68660Y82131D01*
X68732Y82037D01*
X68826Y81965D01*
X68936Y81920D01*
X69053Y81904D01*
X69171Y81920D01*
X69280Y81965D01*
X69374Y82037D01*
X69446Y82131D01*
X69492Y82241D01*
X69507Y82358D01*
X69492Y82476D01*
X69446Y82585D01*
X69374Y82679D01*
X69280Y82751D01*
X69171Y82797D01*
X69053Y82812D01*
D02*
G37*
G36*
X68053D02*
X67936Y82797D01*
X67826Y82751D01*
X67732Y82679D01*
X67660Y82585D01*
X67615Y82476D01*
X67599Y82358D01*
X67615Y82241D01*
X67660Y82131D01*
X67732Y82037D01*
X67826Y81965D01*
X67936Y81920D01*
X68053Y81904D01*
X68171Y81920D01*
X68280Y81965D01*
X68374Y82037D01*
X68446Y82131D01*
X68492Y82241D01*
X68507Y82358D01*
X68492Y82476D01*
X68446Y82585D01*
X68374Y82679D01*
X68280Y82751D01*
X68171Y82797D01*
X68053Y82812D01*
D02*
G37*
G36*
X67053D02*
X66936Y82797D01*
X66826Y82751D01*
X66732Y82679D01*
X66660Y82585D01*
X66615Y82476D01*
X66599Y82358D01*
X66615Y82241D01*
X66660Y82131D01*
X66732Y82037D01*
X66826Y81965D01*
X66936Y81920D01*
X67053Y81904D01*
X67171Y81920D01*
X67280Y81965D01*
X67374Y82037D01*
X67446Y82131D01*
X67492Y82241D01*
X67507Y82358D01*
X67492Y82476D01*
X67446Y82585D01*
X67374Y82679D01*
X67280Y82751D01*
X67171Y82797D01*
X67053Y82812D01*
D02*
G37*
G36*
X66053D02*
X65936Y82797D01*
X65826Y82751D01*
X65732Y82679D01*
X65660Y82585D01*
X65615Y82476D01*
X65599Y82358D01*
X65615Y82241D01*
X65660Y82131D01*
X65732Y82037D01*
X65826Y81965D01*
X65936Y81920D01*
X66053Y81904D01*
X66171Y81920D01*
X66280Y81965D01*
X66374Y82037D01*
X66446Y82131D01*
X66492Y82241D01*
X66507Y82358D01*
X66492Y82476D01*
X66446Y82585D01*
X66374Y82679D01*
X66280Y82751D01*
X66171Y82797D01*
X66053Y82812D01*
D02*
G37*
G36*
X65053D02*
X64936Y82797D01*
X64826Y82751D01*
X64732Y82679D01*
X64660Y82585D01*
X64615Y82476D01*
X64599Y82358D01*
X64615Y82241D01*
X64660Y82131D01*
X64732Y82037D01*
X64826Y81965D01*
X64936Y81920D01*
X65053Y81904D01*
X65171Y81920D01*
X65280Y81965D01*
X65374Y82037D01*
X65446Y82131D01*
X65492Y82241D01*
X65507Y82358D01*
X65492Y82476D01*
X65446Y82585D01*
X65374Y82679D01*
X65280Y82751D01*
X65171Y82797D01*
X65053Y82812D01*
D02*
G37*
G36*
X64053D02*
X63936Y82797D01*
X63826Y82751D01*
X63732Y82679D01*
X63660Y82585D01*
X63615Y82476D01*
X63599Y82358D01*
X63615Y82241D01*
X63660Y82131D01*
X63732Y82037D01*
X63826Y81965D01*
X63936Y81920D01*
X64053Y81904D01*
X64171Y81920D01*
X64280Y81965D01*
X64374Y82037D01*
X64446Y82131D01*
X64492Y82241D01*
X64507Y82358D01*
X64492Y82476D01*
X64446Y82585D01*
X64374Y82679D01*
X64280Y82751D01*
X64171Y82797D01*
X64053Y82812D01*
D02*
G37*
G36*
X63053D02*
X62936Y82797D01*
X62826Y82751D01*
X62732Y82679D01*
X62660Y82585D01*
X62615Y82476D01*
X62599Y82358D01*
X62615Y82241D01*
X62660Y82131D01*
X62732Y82037D01*
X62826Y81965D01*
X62936Y81920D01*
X63053Y81904D01*
X63171Y81920D01*
X63280Y81965D01*
X63374Y82037D01*
X63446Y82131D01*
X63492Y82241D01*
X63507Y82358D01*
X63492Y82476D01*
X63446Y82585D01*
X63374Y82679D01*
X63280Y82751D01*
X63171Y82797D01*
X63053Y82812D01*
D02*
G37*
G36*
X62053D02*
X61936Y82797D01*
X61826Y82751D01*
X61732Y82679D01*
X61660Y82585D01*
X61615Y82476D01*
X61599Y82358D01*
X61615Y82241D01*
X61660Y82131D01*
X61732Y82037D01*
X61826Y81965D01*
X61936Y81920D01*
X62053Y81904D01*
X62171Y81920D01*
X62280Y81965D01*
X62374Y82037D01*
X62446Y82131D01*
X62492Y82241D01*
X62507Y82358D01*
X62492Y82476D01*
X62446Y82585D01*
X62374Y82679D01*
X62280Y82751D01*
X62171Y82797D01*
X62053Y82812D01*
D02*
G37*
G36*
X61053D02*
X60936Y82797D01*
X60826Y82751D01*
X60732Y82679D01*
X60660Y82585D01*
X60615Y82476D01*
X60599Y82358D01*
X60615Y82241D01*
X60660Y82131D01*
X60732Y82037D01*
X60826Y81965D01*
X60936Y81920D01*
X61053Y81904D01*
X61171Y81920D01*
X61280Y81965D01*
X61374Y82037D01*
X61446Y82131D01*
X61492Y82241D01*
X61507Y82358D01*
X61492Y82476D01*
X61446Y82585D01*
X61374Y82679D01*
X61280Y82751D01*
X61171Y82797D01*
X61053Y82812D01*
D02*
G37*
G36*
X78053Y81812D02*
X77936Y81797D01*
X77826Y81751D01*
X77732Y81679D01*
X77660Y81585D01*
X77615Y81476D01*
X77599Y81358D01*
X77615Y81241D01*
X77636Y81189D01*
X77594Y81161D01*
X77494Y81261D01*
X77507Y81358D01*
X77492Y81476D01*
X77446Y81585D01*
X77374Y81679D01*
X77280Y81751D01*
X77171Y81797D01*
X77053Y81812D01*
X76936Y81797D01*
X76826Y81751D01*
X76732Y81679D01*
X76660Y81585D01*
X76615Y81476D01*
X76599Y81358D01*
X76615Y81241D01*
X76660Y81131D01*
X76732Y81037D01*
X76826Y80965D01*
X76936Y80920D01*
X77053Y80904D01*
X77171Y80920D01*
X77276Y80963D01*
X78600Y79640D01*
X78598Y79626D01*
X78610Y79533D01*
X78646Y79447D01*
X78703Y79372D01*
X78777Y79315D01*
X78864Y79279D01*
X78957Y79267D01*
X79050Y79279D01*
X79136Y79315D01*
X79211Y79372D01*
X79268Y79447D01*
X79303Y79533D01*
X79316Y79626D01*
X79303Y79719D01*
X79268Y79805D01*
X79211Y79880D01*
X79136Y79937D01*
X79050Y79973D01*
X78957Y79985D01*
X78864Y79973D01*
X78806Y79949D01*
X77856Y80899D01*
X77884Y80941D01*
X77936Y80920D01*
X78053Y80904D01*
X78171Y80920D01*
X78215Y80938D01*
X79047Y80106D01*
X79047Y80106D01*
X79107Y80067D01*
X79176Y80053D01*
X79176Y80053D01*
X79209D01*
X79236Y79988D01*
X79293Y79913D01*
X79368Y79856D01*
X79454Y79821D01*
X79547Y79808D01*
X79640Y79821D01*
X79727Y79856D01*
X79801Y79913D01*
X79858Y79988D01*
X79894Y80074D01*
X79906Y80167D01*
X79894Y80260D01*
X79858Y80347D01*
X79801Y80421D01*
X79727Y80478D01*
X79640Y80514D01*
X79547Y80526D01*
X79454Y80514D01*
X79368Y80478D01*
X79293Y80421D01*
X79245Y80425D01*
X78473Y81196D01*
X78492Y81241D01*
X78507Y81358D01*
X78492Y81476D01*
X78446Y81585D01*
X78374Y81679D01*
X78280Y81751D01*
X78171Y81797D01*
X78053Y81812D01*
D02*
G37*
G36*
X83053D02*
X82936Y81797D01*
X82826Y81751D01*
X82732Y81679D01*
X82660Y81585D01*
X82615Y81476D01*
X82599Y81358D01*
X82615Y81241D01*
X82660Y81131D01*
X82732Y81037D01*
X82826Y80965D01*
X82936Y80920D01*
X83053Y80904D01*
X83171Y80920D01*
X83280Y80965D01*
X83374Y81037D01*
X83446Y81131D01*
X83492Y81241D01*
X83507Y81358D01*
X83492Y81476D01*
X83446Y81585D01*
X83374Y81679D01*
X83280Y81751D01*
X83171Y81797D01*
X83053Y81812D01*
D02*
G37*
G36*
X82053D02*
X81936Y81797D01*
X81826Y81751D01*
X81732Y81679D01*
X81660Y81585D01*
X81615Y81476D01*
X81599Y81358D01*
X81615Y81241D01*
X81660Y81131D01*
X81732Y81037D01*
X81826Y80965D01*
X81936Y80920D01*
X82053Y80904D01*
X82171Y80920D01*
X82280Y80965D01*
X82374Y81037D01*
X82446Y81131D01*
X82492Y81241D01*
X82507Y81358D01*
X82492Y81476D01*
X82446Y81585D01*
X82374Y81679D01*
X82280Y81751D01*
X82171Y81797D01*
X82053Y81812D01*
D02*
G37*
G36*
X81053D02*
X80936Y81797D01*
X80826Y81751D01*
X80732Y81679D01*
X80660Y81585D01*
X80615Y81476D01*
X80599Y81358D01*
X80615Y81241D01*
X80660Y81131D01*
X80732Y81037D01*
X80826Y80965D01*
X80936Y80920D01*
X81053Y80904D01*
X81171Y80920D01*
X81280Y80965D01*
X81374Y81037D01*
X81446Y81131D01*
X81492Y81241D01*
X81507Y81358D01*
X81492Y81476D01*
X81446Y81585D01*
X81374Y81679D01*
X81280Y81751D01*
X81171Y81797D01*
X81053Y81812D01*
D02*
G37*
G36*
X80053D02*
X79936Y81797D01*
X79826Y81751D01*
X79732Y81679D01*
X79660Y81585D01*
X79615Y81476D01*
X79599Y81358D01*
X79615Y81241D01*
X79660Y81131D01*
X79732Y81037D01*
X79826Y80965D01*
X79936Y80920D01*
X80053Y80904D01*
X80171Y80920D01*
X80280Y80965D01*
X80374Y81037D01*
X80446Y81131D01*
X80492Y81241D01*
X80507Y81358D01*
X80492Y81476D01*
X80446Y81585D01*
X80374Y81679D01*
X80280Y81751D01*
X80171Y81797D01*
X80053Y81812D01*
D02*
G37*
G36*
X79053D02*
X78936Y81797D01*
X78826Y81751D01*
X78732Y81679D01*
X78660Y81585D01*
X78615Y81476D01*
X78599Y81358D01*
X78615Y81241D01*
X78660Y81131D01*
X78732Y81037D01*
X78826Y80965D01*
X78936Y80920D01*
X79053Y80904D01*
X79171Y80920D01*
X79280Y80965D01*
X79374Y81037D01*
X79446Y81131D01*
X79492Y81241D01*
X79507Y81358D01*
X79492Y81476D01*
X79446Y81585D01*
X79374Y81679D01*
X79280Y81751D01*
X79171Y81797D01*
X79053Y81812D01*
D02*
G37*
G36*
X76053D02*
X75936Y81797D01*
X75826Y81751D01*
X75732Y81679D01*
X75660Y81585D01*
X75615Y81476D01*
X75599Y81358D01*
X75615Y81241D01*
X75660Y81131D01*
X75732Y81037D01*
X75826Y80965D01*
X75936Y80920D01*
X76053Y80904D01*
X76171Y80920D01*
X76280Y80965D01*
X76374Y81037D01*
X76446Y81131D01*
X76492Y81241D01*
X76507Y81358D01*
X76492Y81476D01*
X76446Y81585D01*
X76374Y81679D01*
X76280Y81751D01*
X76171Y81797D01*
X76053Y81812D01*
D02*
G37*
G36*
X75053D02*
X74936Y81797D01*
X74826Y81751D01*
X74732Y81679D01*
X74660Y81585D01*
X74615Y81476D01*
X74599Y81358D01*
X74615Y81241D01*
X74660Y81131D01*
X74732Y81037D01*
X74826Y80965D01*
X74936Y80920D01*
X75053Y80904D01*
X75171Y80920D01*
X75280Y80965D01*
X75374Y81037D01*
X75446Y81131D01*
X75492Y81241D01*
X75507Y81358D01*
X75492Y81476D01*
X75446Y81585D01*
X75374Y81679D01*
X75280Y81751D01*
X75171Y81797D01*
X75053Y81812D01*
D02*
G37*
G36*
X74053D02*
X73936Y81797D01*
X73826Y81751D01*
X73732Y81679D01*
X73660Y81585D01*
X73615Y81476D01*
X73599Y81358D01*
X73615Y81241D01*
X73660Y81131D01*
X73732Y81037D01*
X73826Y80965D01*
X73936Y80920D01*
X74053Y80904D01*
X74171Y80920D01*
X74280Y80965D01*
X74374Y81037D01*
X74446Y81131D01*
X74492Y81241D01*
X74507Y81358D01*
X74492Y81476D01*
X74446Y81585D01*
X74374Y81679D01*
X74280Y81751D01*
X74171Y81797D01*
X74053Y81812D01*
D02*
G37*
G36*
X73053D02*
X72936Y81797D01*
X72826Y81751D01*
X72732Y81679D01*
X72660Y81585D01*
X72615Y81476D01*
X72599Y81358D01*
X72615Y81241D01*
X72660Y81131D01*
X72732Y81037D01*
X72826Y80965D01*
X72936Y80920D01*
X73053Y80904D01*
X73171Y80920D01*
X73280Y80965D01*
X73374Y81037D01*
X73446Y81131D01*
X73492Y81241D01*
X73507Y81358D01*
X73492Y81476D01*
X73446Y81585D01*
X73374Y81679D01*
X73280Y81751D01*
X73171Y81797D01*
X73053Y81812D01*
D02*
G37*
G36*
X72053D02*
X71936Y81797D01*
X71826Y81751D01*
X71732Y81679D01*
X71660Y81585D01*
X71615Y81476D01*
X71599Y81358D01*
X71615Y81241D01*
X71660Y81131D01*
X71732Y81037D01*
X71826Y80965D01*
X71936Y80920D01*
X72053Y80904D01*
X72171Y80920D01*
X72280Y80965D01*
X72374Y81037D01*
X72446Y81131D01*
X72492Y81241D01*
X72507Y81358D01*
X72492Y81476D01*
X72446Y81585D01*
X72374Y81679D01*
X72280Y81751D01*
X72171Y81797D01*
X72053Y81812D01*
D02*
G37*
G36*
X71053D02*
X70936Y81797D01*
X70826Y81751D01*
X70732Y81679D01*
X70660Y81585D01*
X70615Y81476D01*
X70599Y81358D01*
X70615Y81241D01*
X70660Y81131D01*
X70732Y81037D01*
X70826Y80965D01*
X70936Y80920D01*
X71053Y80904D01*
X71171Y80920D01*
X71280Y80965D01*
X71374Y81037D01*
X71446Y81131D01*
X71492Y81241D01*
X71507Y81358D01*
X71492Y81476D01*
X71446Y81585D01*
X71374Y81679D01*
X71280Y81751D01*
X71171Y81797D01*
X71053Y81812D01*
D02*
G37*
G36*
X70053D02*
X69936Y81797D01*
X69826Y81751D01*
X69732Y81679D01*
X69660Y81585D01*
X69615Y81476D01*
X69599Y81358D01*
X69615Y81241D01*
X69660Y81131D01*
X69732Y81037D01*
X69826Y80965D01*
X69936Y80920D01*
X70053Y80904D01*
X70171Y80920D01*
X70280Y80965D01*
X70374Y81037D01*
X70446Y81131D01*
X70492Y81241D01*
X70507Y81358D01*
X70492Y81476D01*
X70446Y81585D01*
X70374Y81679D01*
X70280Y81751D01*
X70171Y81797D01*
X70053Y81812D01*
D02*
G37*
G36*
X69053D02*
X68936Y81797D01*
X68826Y81751D01*
X68732Y81679D01*
X68660Y81585D01*
X68615Y81476D01*
X68599Y81358D01*
X68615Y81241D01*
X68660Y81131D01*
X68732Y81037D01*
X68826Y80965D01*
X68936Y80920D01*
X69053Y80904D01*
X69171Y80920D01*
X69280Y80965D01*
X69374Y81037D01*
X69446Y81131D01*
X69492Y81241D01*
X69507Y81358D01*
X69492Y81476D01*
X69446Y81585D01*
X69374Y81679D01*
X69280Y81751D01*
X69171Y81797D01*
X69053Y81812D01*
D02*
G37*
G36*
X68053D02*
X67936Y81797D01*
X67826Y81751D01*
X67732Y81679D01*
X67660Y81585D01*
X67615Y81476D01*
X67599Y81358D01*
X67615Y81241D01*
X67660Y81131D01*
X67732Y81037D01*
X67826Y80965D01*
X67936Y80920D01*
X68053Y80904D01*
X68171Y80920D01*
X68280Y80965D01*
X68374Y81037D01*
X68446Y81131D01*
X68492Y81241D01*
X68507Y81358D01*
X68492Y81476D01*
X68446Y81585D01*
X68374Y81679D01*
X68280Y81751D01*
X68171Y81797D01*
X68053Y81812D01*
D02*
G37*
G36*
X67053D02*
X66936Y81797D01*
X66826Y81751D01*
X66732Y81679D01*
X66660Y81585D01*
X66615Y81476D01*
X66599Y81358D01*
X66615Y81241D01*
X66660Y81131D01*
X66732Y81037D01*
X66826Y80965D01*
X66936Y80920D01*
X67053Y80904D01*
X67171Y80920D01*
X67280Y80965D01*
X67374Y81037D01*
X67446Y81131D01*
X67492Y81241D01*
X67507Y81358D01*
X67492Y81476D01*
X67446Y81585D01*
X67374Y81679D01*
X67280Y81751D01*
X67171Y81797D01*
X67053Y81812D01*
D02*
G37*
G36*
X66053D02*
X65936Y81797D01*
X65826Y81751D01*
X65732Y81679D01*
X65660Y81585D01*
X65615Y81476D01*
X65599Y81358D01*
X65615Y81241D01*
X65660Y81131D01*
X65732Y81037D01*
X65826Y80965D01*
X65936Y80920D01*
X66053Y80904D01*
X66171Y80920D01*
X66280Y80965D01*
X66374Y81037D01*
X66446Y81131D01*
X66492Y81241D01*
X66507Y81358D01*
X66492Y81476D01*
X66446Y81585D01*
X66374Y81679D01*
X66280Y81751D01*
X66171Y81797D01*
X66053Y81812D01*
D02*
G37*
G36*
X65053D02*
X64936Y81797D01*
X64826Y81751D01*
X64732Y81679D01*
X64660Y81585D01*
X64615Y81476D01*
X64599Y81358D01*
X64615Y81241D01*
X64660Y81131D01*
X64732Y81037D01*
X64826Y80965D01*
X64936Y80920D01*
X65053Y80904D01*
X65171Y80920D01*
X65280Y80965D01*
X65374Y81037D01*
X65446Y81131D01*
X65492Y81241D01*
X65507Y81358D01*
X65492Y81476D01*
X65446Y81585D01*
X65374Y81679D01*
X65280Y81751D01*
X65171Y81797D01*
X65053Y81812D01*
D02*
G37*
G36*
X64053D02*
X63936Y81797D01*
X63826Y81751D01*
X63732Y81679D01*
X63660Y81585D01*
X63615Y81476D01*
X63599Y81358D01*
X63615Y81241D01*
X63660Y81131D01*
X63732Y81037D01*
X63826Y80965D01*
X63936Y80920D01*
X64053Y80904D01*
X64171Y80920D01*
X64280Y80965D01*
X64374Y81037D01*
X64446Y81131D01*
X64492Y81241D01*
X64507Y81358D01*
X64492Y81476D01*
X64446Y81585D01*
X64374Y81679D01*
X64280Y81751D01*
X64171Y81797D01*
X64053Y81812D01*
D02*
G37*
G36*
X63053D02*
X62936Y81797D01*
X62826Y81751D01*
X62732Y81679D01*
X62660Y81585D01*
X62615Y81476D01*
X62599Y81358D01*
X62615Y81241D01*
X62660Y81131D01*
X62732Y81037D01*
X62826Y80965D01*
X62936Y80920D01*
X63053Y80904D01*
X63171Y80920D01*
X63280Y80965D01*
X63374Y81037D01*
X63446Y81131D01*
X63492Y81241D01*
X63507Y81358D01*
X63492Y81476D01*
X63446Y81585D01*
X63374Y81679D01*
X63280Y81751D01*
X63171Y81797D01*
X63053Y81812D01*
D02*
G37*
G36*
X62053D02*
X61936Y81797D01*
X61826Y81751D01*
X61732Y81679D01*
X61660Y81585D01*
X61615Y81476D01*
X61599Y81358D01*
X61615Y81241D01*
X61660Y81131D01*
X61732Y81037D01*
X61826Y80965D01*
X61936Y80920D01*
X62053Y80904D01*
X62171Y80920D01*
X62280Y80965D01*
X62374Y81037D01*
X62446Y81131D01*
X62492Y81241D01*
X62507Y81358D01*
X62492Y81476D01*
X62446Y81585D01*
X62374Y81679D01*
X62280Y81751D01*
X62171Y81797D01*
X62053Y81812D01*
D02*
G37*
G36*
X61053D02*
X60936Y81797D01*
X60826Y81751D01*
X60732Y81679D01*
X60660Y81585D01*
X60615Y81476D01*
X60599Y81358D01*
X60615Y81241D01*
X60660Y81131D01*
X60732Y81037D01*
X60826Y80965D01*
X60936Y80920D01*
X61053Y80904D01*
X61171Y80920D01*
X61280Y80965D01*
X61374Y81037D01*
X61446Y81131D01*
X61492Y81241D01*
X61507Y81358D01*
X61492Y81476D01*
X61446Y81585D01*
X61374Y81679D01*
X61280Y81751D01*
X61171Y81797D01*
X61053Y81812D01*
D02*
G37*
G36*
X66089Y78863D02*
X65950Y78844D01*
X65820Y78791D01*
X65709Y78705D01*
X65624Y78594D01*
X65570Y78464D01*
X65552Y78325D01*
X65570Y78186D01*
X65624Y78056D01*
X65709Y77945D01*
X65820Y77859D01*
X65950Y77806D01*
X66089Y77787D01*
X66228Y77806D01*
X66358Y77859D01*
X66469Y77945D01*
X66555Y78056D01*
X66609Y78186D01*
X66627Y78325D01*
X66609Y78464D01*
X66555Y78594D01*
X66469Y78705D01*
X66358Y78791D01*
X66228Y78844D01*
X66089Y78863D01*
D02*
G37*
G36*
X84806Y78497D02*
X84700Y78483D01*
X84601Y78443D01*
X84517Y78378D01*
X84452Y78293D01*
X84411Y78194D01*
X84397Y78089D01*
X84411Y77983D01*
X84452Y77884D01*
X84517Y77800D01*
X84601Y77735D01*
X84700Y77694D01*
X84806Y77680D01*
X84912Y77694D01*
X85010Y77735D01*
X85095Y77800D01*
X85160Y77884D01*
X85200Y77983D01*
X85214Y78089D01*
X85200Y78194D01*
X85160Y78293D01*
X85095Y78378D01*
X85010Y78443D01*
X84912Y78483D01*
X84806Y78497D01*
D02*
G37*
G36*
X83806D02*
X83700Y78483D01*
X83601Y78443D01*
X83517Y78378D01*
X83452Y78293D01*
X83411Y78194D01*
X83397Y78089D01*
X83411Y77983D01*
X83452Y77884D01*
X83517Y77800D01*
X83601Y77735D01*
X83700Y77694D01*
X83806Y77680D01*
X83912Y77694D01*
X84010Y77735D01*
X84095Y77800D01*
X84160Y77884D01*
X84200Y77983D01*
X84214Y78089D01*
X84200Y78194D01*
X84160Y78293D01*
X84095Y78378D01*
X84010Y78443D01*
X83912Y78483D01*
X83806Y78497D01*
D02*
G37*
G36*
X84806Y77497D02*
X84700Y77483D01*
X84601Y77443D01*
X84517Y77378D01*
X84452Y77293D01*
X84411Y77194D01*
X84397Y77089D01*
X84411Y76983D01*
X84452Y76884D01*
X84517Y76800D01*
X84601Y76735D01*
X84700Y76694D01*
X84806Y76680D01*
X84912Y76694D01*
X85010Y76735D01*
X85095Y76800D01*
X85160Y76884D01*
X85200Y76983D01*
X85214Y77089D01*
X85200Y77194D01*
X85160Y77293D01*
X85095Y77378D01*
X85010Y77443D01*
X84912Y77483D01*
X84806Y77497D01*
D02*
G37*
G36*
X83806D02*
X83700Y77483D01*
X83601Y77443D01*
X83517Y77378D01*
X83452Y77293D01*
X83411Y77194D01*
X83397Y77089D01*
X83411Y76983D01*
X83452Y76884D01*
X83517Y76800D01*
X83601Y76735D01*
X83700Y76694D01*
X83806Y76680D01*
X83912Y76694D01*
X84010Y76735D01*
X84095Y76800D01*
X84160Y76884D01*
X84200Y76983D01*
X84214Y77089D01*
X84200Y77194D01*
X84160Y77293D01*
X84095Y77378D01*
X84010Y77443D01*
X83912Y77483D01*
X83806Y77497D01*
D02*
G37*
G36*
X84806Y76497D02*
X84700Y76483D01*
X84601Y76443D01*
X84517Y76378D01*
X84452Y76293D01*
X84411Y76194D01*
X84397Y76089D01*
X84411Y75983D01*
X84452Y75884D01*
X84517Y75800D01*
X84601Y75735D01*
X84700Y75694D01*
X84806Y75680D01*
X84912Y75694D01*
X85010Y75735D01*
X85095Y75800D01*
X85160Y75884D01*
X85200Y75983D01*
X85214Y76089D01*
X85200Y76194D01*
X85160Y76293D01*
X85095Y76378D01*
X85010Y76443D01*
X84912Y76483D01*
X84806Y76497D01*
D02*
G37*
G36*
X83806D02*
X83700Y76483D01*
X83601Y76443D01*
X83517Y76378D01*
X83452Y76293D01*
X83411Y76194D01*
X83397Y76089D01*
X83411Y75983D01*
X83452Y75884D01*
X83517Y75800D01*
X83601Y75735D01*
X83700Y75694D01*
X83806Y75680D01*
X83912Y75694D01*
X84010Y75735D01*
X84095Y75800D01*
X84160Y75884D01*
X84200Y75983D01*
X84214Y76089D01*
X84200Y76194D01*
X84160Y76293D01*
X84095Y76378D01*
X84010Y76443D01*
X83912Y76483D01*
X83806Y76497D01*
D02*
G37*
G36*
X84806Y75497D02*
X84700Y75483D01*
X84601Y75443D01*
X84517Y75378D01*
X84452Y75293D01*
X84411Y75194D01*
X84397Y75089D01*
X84411Y74983D01*
X84452Y74884D01*
X84517Y74800D01*
X84601Y74735D01*
X84700Y74694D01*
X84806Y74680D01*
X84912Y74694D01*
X85010Y74735D01*
X85095Y74800D01*
X85160Y74884D01*
X85200Y74983D01*
X85214Y75089D01*
X85200Y75194D01*
X85160Y75293D01*
X85095Y75378D01*
X85010Y75443D01*
X84912Y75483D01*
X84806Y75497D01*
D02*
G37*
G36*
X83806D02*
X83700Y75483D01*
X83601Y75443D01*
X83517Y75378D01*
X83452Y75293D01*
X83411Y75194D01*
X83397Y75089D01*
X83411Y74983D01*
X83452Y74884D01*
X83517Y74800D01*
X83601Y74735D01*
X83700Y74694D01*
X83806Y74680D01*
X83912Y74694D01*
X84010Y74735D01*
X84095Y74800D01*
X84160Y74884D01*
X84200Y74983D01*
X84214Y75089D01*
X84200Y75194D01*
X84160Y75293D01*
X84095Y75378D01*
X84010Y75443D01*
X83912Y75483D01*
X83806Y75497D01*
D02*
G37*
G36*
X84806Y74497D02*
X84700Y74483D01*
X84601Y74443D01*
X84517Y74378D01*
X84452Y74293D01*
X84411Y74194D01*
X84397Y74089D01*
X84411Y73983D01*
X84452Y73884D01*
X84517Y73800D01*
X84601Y73735D01*
X84700Y73694D01*
X84806Y73680D01*
X84912Y73694D01*
X85010Y73735D01*
X85095Y73800D01*
X85160Y73884D01*
X85200Y73983D01*
X85214Y74089D01*
X85200Y74194D01*
X85160Y74293D01*
X85095Y74378D01*
X85010Y74443D01*
X84912Y74483D01*
X84806Y74497D01*
D02*
G37*
G36*
X83806D02*
X83700Y74483D01*
X83601Y74443D01*
X83517Y74378D01*
X83452Y74293D01*
X83411Y74194D01*
X83397Y74089D01*
X83411Y73983D01*
X83452Y73884D01*
X83517Y73800D01*
X83601Y73735D01*
X83700Y73694D01*
X83806Y73680D01*
X83912Y73694D01*
X84010Y73735D01*
X84095Y73800D01*
X84160Y73884D01*
X84200Y73983D01*
X84214Y74089D01*
X84200Y74194D01*
X84160Y74293D01*
X84095Y74378D01*
X84010Y74443D01*
X83912Y74483D01*
X83806Y74497D01*
D02*
G37*
G36*
Y73497D02*
X83700Y73483D01*
X83601Y73443D01*
X83517Y73378D01*
X83452Y73293D01*
X83411Y73194D01*
X83397Y73089D01*
X83411Y72983D01*
X83452Y72884D01*
X83517Y72800D01*
X83601Y72735D01*
X83700Y72694D01*
X83806Y72680D01*
X83912Y72694D01*
X84010Y72735D01*
X84095Y72800D01*
X84160Y72884D01*
X84200Y72983D01*
X84214Y73089D01*
X84200Y73194D01*
X84160Y73293D01*
X84095Y73378D01*
X84010Y73443D01*
X83912Y73483D01*
X83806Y73497D01*
D02*
G37*
G36*
Y72497D02*
X83700Y72483D01*
X83601Y72443D01*
X83517Y72378D01*
X83452Y72293D01*
X83411Y72194D01*
X83397Y72089D01*
X83411Y71983D01*
X83452Y71884D01*
X83517Y71800D01*
X83601Y71735D01*
X83700Y71694D01*
X83806Y71680D01*
X83912Y71694D01*
X84010Y71735D01*
X84095Y71800D01*
X84160Y71884D01*
X84200Y71983D01*
X84214Y72089D01*
X84200Y72194D01*
X84160Y72293D01*
X84095Y72378D01*
X84010Y72443D01*
X83912Y72483D01*
X83806Y72497D01*
D02*
G37*
G36*
X84806Y71497D02*
X84700Y71483D01*
X84601Y71443D01*
X84517Y71378D01*
X84452Y71293D01*
X84411Y71194D01*
X84397Y71089D01*
X84411Y70983D01*
X84452Y70884D01*
X84517Y70800D01*
X84601Y70735D01*
X84700Y70694D01*
X84806Y70680D01*
X84912Y70694D01*
X85010Y70735D01*
X85095Y70800D01*
X85160Y70884D01*
X85200Y70983D01*
X85214Y71089D01*
X85200Y71194D01*
X85160Y71293D01*
X85095Y71378D01*
X85010Y71443D01*
X84912Y71483D01*
X84806Y71497D01*
D02*
G37*
G36*
X83806D02*
X83700Y71483D01*
X83601Y71443D01*
X83517Y71378D01*
X83452Y71293D01*
X83411Y71194D01*
X83397Y71089D01*
X83411Y70983D01*
X83452Y70884D01*
X83517Y70800D01*
X83601Y70735D01*
X83700Y70694D01*
X83806Y70680D01*
X83912Y70694D01*
X84010Y70735D01*
X84095Y70800D01*
X84160Y70884D01*
X84200Y70983D01*
X84214Y71089D01*
X84200Y71194D01*
X84160Y71293D01*
X84095Y71378D01*
X84010Y71443D01*
X83912Y71483D01*
X83806Y71497D01*
D02*
G37*
G36*
X66089Y71390D02*
X65950Y71372D01*
X65820Y71318D01*
X65709Y71233D01*
X65624Y71121D01*
X65570Y70992D01*
X65552Y70852D01*
X65570Y70713D01*
X65624Y70584D01*
X65709Y70472D01*
X65820Y70387D01*
X65950Y70333D01*
X66089Y70315D01*
X66228Y70333D01*
X66358Y70387D01*
X66469Y70472D01*
X66555Y70584D01*
X66609Y70713D01*
X66627Y70852D01*
X66609Y70992D01*
X66555Y71121D01*
X66469Y71233D01*
X66358Y71318D01*
X66228Y71372D01*
X66089Y71390D01*
D02*
G37*
G36*
X85128Y69670D02*
X85035Y69658D01*
X84948Y69622D01*
X84874Y69565D01*
X84817Y69491D01*
X84814Y69483D01*
X84734D01*
X84734Y69483D01*
X84665Y69470D01*
X84605Y69430D01*
X84605Y69430D01*
X83552Y68377D01*
X83513Y68318D01*
X83499Y68248D01*
X83499Y68248D01*
Y66972D01*
X83427Y66917D01*
X83370Y66843D01*
X83334Y66756D01*
X83322Y66663D01*
X83334Y66570D01*
X83370Y66484D01*
X83427Y66410D01*
X83502Y66353D01*
X83588Y66317D01*
X83681Y66304D01*
X83774Y66317D01*
X83861Y66353D01*
X83935Y66410D01*
X83992Y66484D01*
X84028Y66570D01*
X84040Y66663D01*
X84028Y66756D01*
X83992Y66843D01*
X83935Y66917D01*
X83863Y66972D01*
Y68173D01*
X84785Y69095D01*
X84848Y69091D01*
X84874Y69057D01*
X84948Y69000D01*
X85035Y68964D01*
X85128Y68952D01*
X85221Y68964D01*
X85307Y69000D01*
X85382Y69057D01*
X85439Y69132D01*
X85475Y69218D01*
X85487Y69311D01*
X85475Y69404D01*
X85439Y69491D01*
X85382Y69565D01*
X85307Y69622D01*
X85221Y69658D01*
X85128Y69670D01*
D02*
G37*
G36*
X86093Y70664D02*
X86000Y70652D01*
X85913Y70616D01*
X85839Y70559D01*
X85782Y70485D01*
X85746Y70398D01*
X85734Y70305D01*
X85746Y70212D01*
X85782Y70126D01*
X85839Y70051D01*
X85913Y69994D01*
X85926Y69989D01*
Y67443D01*
X84607Y66125D01*
X84518Y66137D01*
X84425Y66124D01*
X84338Y66088D01*
X84264Y66031D01*
X84207Y65957D01*
X84171Y65870D01*
X84159Y65778D01*
X84171Y65685D01*
X84207Y65598D01*
X84264Y65524D01*
X84338Y65467D01*
X84425Y65431D01*
X84518Y65419D01*
X84611Y65431D01*
X84697Y65467D01*
X84772Y65524D01*
X84829Y65598D01*
X84864Y65685D01*
X84877Y65778D01*
X84865Y65867D01*
X86237Y67239D01*
X86237Y67239D01*
X86276Y67298D01*
X86290Y67368D01*
X86290Y67368D01*
Y70008D01*
X86346Y70051D01*
X86403Y70126D01*
X86439Y70212D01*
X86452Y70305D01*
X86439Y70398D01*
X86403Y70485D01*
X86346Y70559D01*
X86272Y70616D01*
X86185Y70652D01*
X86093Y70664D01*
D02*
G37*
G36*
X14076Y91720D02*
X13893Y91706D01*
X13714Y91663D01*
X13545Y91593D01*
X13388Y91497D01*
X13249Y91378D01*
X13130Y91238D01*
X13034Y91082D01*
X12964Y90912D01*
X12921Y90734D01*
X12907Y90551D01*
X12921Y90368D01*
X12964Y90190D01*
X13034Y90020D01*
X13130Y89864D01*
X13249Y89725D01*
X13388Y89605D01*
X13545Y89510D01*
X13714Y89439D01*
X13893Y89397D01*
X14076Y89382D01*
X14258Y89397D01*
X14437Y89439D01*
X14606Y89510D01*
X14763Y89605D01*
X14902Y89725D01*
X15021Y89864D01*
X15117Y90020D01*
X15187Y90190D01*
X15230Y90368D01*
X15245Y90551D01*
X15230Y90734D01*
X15187Y90912D01*
X15117Y91082D01*
X15021Y91238D01*
X14902Y91378D01*
X14763Y91497D01*
X14606Y91593D01*
X14437Y91663D01*
X14258Y91706D01*
X14076Y91720D01*
D02*
G37*
G36*
X8564D02*
X8381Y91706D01*
X8203Y91663D01*
X8033Y91593D01*
X7877Y91497D01*
X7737Y91378D01*
X7618Y91238D01*
X7522Y91082D01*
X7452Y90912D01*
X7409Y90734D01*
X7395Y90551D01*
X7409Y90368D01*
X7452Y90190D01*
X7522Y90020D01*
X7618Y89864D01*
X7737Y89725D01*
X7877Y89605D01*
X8033Y89510D01*
X8203Y89439D01*
X8381Y89397D01*
X8564Y89382D01*
X8747Y89397D01*
X8925Y89439D01*
X9095Y89510D01*
X9251Y89605D01*
X9390Y89725D01*
X9510Y89864D01*
X9605Y90020D01*
X9676Y90190D01*
X9718Y90368D01*
X9733Y90551D01*
X9718Y90734D01*
X9676Y90912D01*
X9605Y91082D01*
X9510Y91238D01*
X9390Y91378D01*
X9251Y91497D01*
X9095Y91593D01*
X8925Y91663D01*
X8747Y91706D01*
X8564Y91720D01*
D02*
G37*
G36*
X16044Y89752D02*
X15861Y89737D01*
X15683Y89695D01*
X15513Y89624D01*
X15357Y89528D01*
X15217Y89409D01*
X15098Y89270D01*
X15002Y89113D01*
X14932Y88944D01*
X14889Y88766D01*
X14875Y88583D01*
X14889Y88400D01*
X14932Y88221D01*
X15002Y88052D01*
X15098Y87896D01*
X15217Y87756D01*
X15357Y87637D01*
X15513Y87541D01*
X15683Y87471D01*
X15861Y87428D01*
X16044Y87414D01*
X16227Y87428D01*
X16405Y87471D01*
X16575Y87541D01*
X16731Y87637D01*
X16871Y87756D01*
X16990Y87896D01*
X17086Y88052D01*
X17156Y88221D01*
X17199Y88400D01*
X17213Y88583D01*
X17199Y88766D01*
X17156Y88944D01*
X17086Y89113D01*
X16990Y89270D01*
X16871Y89409D01*
X16731Y89528D01*
X16575Y89624D01*
X16405Y89695D01*
X16227Y89737D01*
X16044Y89752D01*
D02*
G37*
G36*
X10532D02*
X10349Y89737D01*
X10171Y89695D01*
X10002Y89624D01*
X9845Y89528D01*
X9706Y89409D01*
X9586Y89270D01*
X9491Y89113D01*
X9420Y88944D01*
X9378Y88766D01*
X9363Y88583D01*
X9378Y88400D01*
X9420Y88221D01*
X9491Y88052D01*
X9586Y87896D01*
X9706Y87756D01*
X9845Y87637D01*
X10002Y87541D01*
X10171Y87471D01*
X10349Y87428D01*
X10532Y87414D01*
X10715Y87428D01*
X10894Y87471D01*
X11063Y87541D01*
X11219Y87637D01*
X11359Y87756D01*
X11478Y87896D01*
X11574Y88052D01*
X11644Y88221D01*
X11687Y88400D01*
X11701Y88583D01*
X11687Y88766D01*
X11644Y88944D01*
X11574Y89113D01*
X11478Y89270D01*
X11359Y89409D01*
X11219Y89528D01*
X11063Y89624D01*
X10894Y89695D01*
X10715Y89737D01*
X10532Y89752D01*
D02*
G37*
G36*
X4604Y68949D02*
X3033D01*
Y67378D01*
X4604D01*
Y68949D01*
D02*
G37*
G36*
X3819Y64714D02*
X3218Y64465D01*
X2969Y63864D01*
X3218Y63263D01*
X3819Y63014D01*
X4420Y63263D01*
X4669Y63864D01*
X4420Y64465D01*
X3819Y64714D01*
D02*
G37*
G36*
X4604Y61487D02*
X3033D01*
Y59916D01*
X4604D01*
Y61487D01*
D02*
G37*
G36*
X3819Y57252D02*
X3218Y57003D01*
X2969Y56402D01*
X3218Y55801D01*
X3819Y55552D01*
X4420Y55801D01*
X4669Y56402D01*
X4420Y57003D01*
X3819Y57252D01*
D02*
G37*
G36*
X4604Y54025D02*
X3033D01*
Y52454D01*
X4604D01*
Y54025D01*
D02*
G37*
G36*
X3819Y49790D02*
X3218Y49541D01*
X2969Y48940D01*
X3218Y48339D01*
X3819Y48090D01*
X4420Y48339D01*
X4669Y48940D01*
X4420Y49541D01*
X3819Y49790D01*
D02*
G37*
G36*
X4604Y46563D02*
X3033D01*
Y44992D01*
X4604D01*
Y46563D01*
D02*
G37*
G36*
X38524Y76826D02*
X38270Y76806D01*
X38023Y76747D01*
X37789Y76649D01*
X37572Y76517D01*
X37379Y76352D01*
X37214Y76158D01*
X37081Y75942D01*
X36984Y75707D01*
X36924Y75460D01*
X36904Y75207D01*
X36924Y74953D01*
X36984Y74706D01*
X37081Y74472D01*
X37214Y74255D01*
X37379Y74062D01*
X37572Y73897D01*
X37789Y73764D01*
X38023Y73667D01*
X38270Y73607D01*
X38524Y73588D01*
X38777Y73607D01*
X39024Y73667D01*
X39259Y73764D01*
X39475Y73897D01*
X39669Y74062D01*
X39834Y74255D01*
X39966Y74472D01*
X40064Y74706D01*
X40123Y74953D01*
X40143Y75207D01*
X40123Y75460D01*
X40064Y75707D01*
X39966Y75942D01*
X39834Y76158D01*
X39669Y76352D01*
X39475Y76517D01*
X39259Y76649D01*
X39024Y76747D01*
X38777Y76806D01*
X38524Y76826D01*
D02*
G37*
G36*
X63543Y65398D02*
X63450Y65386D01*
X63364Y65350D01*
X63289Y65293D01*
X63232Y65219D01*
X63197Y65132D01*
X63184Y65039D01*
X63197Y64946D01*
X63232Y64860D01*
X63289Y64786D01*
X63364Y64728D01*
X63450Y64693D01*
X63543Y64680D01*
X63636Y64693D01*
X63723Y64728D01*
X63797Y64786D01*
X63854Y64860D01*
X63890Y64946D01*
X63902Y65039D01*
X63890Y65132D01*
X63854Y65219D01*
X63797Y65293D01*
X63723Y65350D01*
X63636Y65386D01*
X63543Y65398D01*
D02*
G37*
G36*
X83053Y62812D02*
X82936Y62797D01*
X82826Y62751D01*
X82732Y62679D01*
X82660Y62585D01*
X82615Y62476D01*
X82599Y62358D01*
X82615Y62241D01*
X82660Y62131D01*
X82732Y62037D01*
X82826Y61965D01*
X82936Y61920D01*
X83053Y61904D01*
X83171Y61920D01*
X83280Y61965D01*
X83374Y62037D01*
X83446Y62131D01*
X83492Y62241D01*
X83507Y62358D01*
X83492Y62476D01*
X83446Y62585D01*
X83374Y62679D01*
X83280Y62751D01*
X83171Y62797D01*
X83053Y62812D01*
D02*
G37*
G36*
X82053D02*
X81936Y62797D01*
X81826Y62751D01*
X81732Y62679D01*
X81660Y62585D01*
X81615Y62476D01*
X81599Y62358D01*
X81615Y62241D01*
X81660Y62131D01*
X81732Y62037D01*
X81826Y61965D01*
X81936Y61920D01*
X82053Y61904D01*
X82171Y61920D01*
X82280Y61965D01*
X82374Y62037D01*
X82446Y62131D01*
X82492Y62241D01*
X82507Y62358D01*
X82492Y62476D01*
X82446Y62585D01*
X82374Y62679D01*
X82280Y62751D01*
X82171Y62797D01*
X82053Y62812D01*
D02*
G37*
G36*
X81053D02*
X80936Y62797D01*
X80826Y62751D01*
X80732Y62679D01*
X80660Y62585D01*
X80615Y62476D01*
X80599Y62358D01*
X80615Y62241D01*
X80660Y62131D01*
X80732Y62037D01*
X80826Y61965D01*
X80936Y61920D01*
X81053Y61904D01*
X81171Y61920D01*
X81280Y61965D01*
X81374Y62037D01*
X81446Y62131D01*
X81492Y62241D01*
X81507Y62358D01*
X81492Y62476D01*
X81446Y62585D01*
X81374Y62679D01*
X81280Y62751D01*
X81171Y62797D01*
X81053Y62812D01*
D02*
G37*
G36*
X80053D02*
X79936Y62797D01*
X79826Y62751D01*
X79732Y62679D01*
X79660Y62585D01*
X79615Y62476D01*
X79599Y62358D01*
X79615Y62241D01*
X79660Y62131D01*
X79732Y62037D01*
X79826Y61965D01*
X79936Y61920D01*
X80053Y61904D01*
X80171Y61920D01*
X80280Y61965D01*
X80374Y62037D01*
X80446Y62131D01*
X80492Y62241D01*
X80507Y62358D01*
X80492Y62476D01*
X80446Y62585D01*
X80374Y62679D01*
X80280Y62751D01*
X80171Y62797D01*
X80053Y62812D01*
D02*
G37*
G36*
X79053D02*
X78936Y62797D01*
X78826Y62751D01*
X78732Y62679D01*
X78660Y62585D01*
X78615Y62476D01*
X78599Y62358D01*
X78615Y62241D01*
X78660Y62131D01*
X78732Y62037D01*
X78826Y61965D01*
X78936Y61920D01*
X79053Y61904D01*
X79171Y61920D01*
X79280Y61965D01*
X79374Y62037D01*
X79446Y62131D01*
X79492Y62241D01*
X79507Y62358D01*
X79492Y62476D01*
X79446Y62585D01*
X79374Y62679D01*
X79280Y62751D01*
X79171Y62797D01*
X79053Y62812D01*
D02*
G37*
G36*
X78053D02*
X77936Y62797D01*
X77826Y62751D01*
X77732Y62679D01*
X77660Y62585D01*
X77615Y62476D01*
X77599Y62358D01*
X77615Y62241D01*
X77660Y62131D01*
X77732Y62037D01*
X77826Y61965D01*
X77936Y61920D01*
X78053Y61904D01*
X78171Y61920D01*
X78280Y61965D01*
X78374Y62037D01*
X78446Y62131D01*
X78492Y62241D01*
X78507Y62358D01*
X78492Y62476D01*
X78446Y62585D01*
X78374Y62679D01*
X78280Y62751D01*
X78171Y62797D01*
X78053Y62812D01*
D02*
G37*
G36*
X77053D02*
X76936Y62797D01*
X76826Y62751D01*
X76732Y62679D01*
X76660Y62585D01*
X76615Y62476D01*
X76599Y62358D01*
X76615Y62241D01*
X76660Y62131D01*
X76732Y62037D01*
X76826Y61965D01*
X76936Y61920D01*
X77053Y61904D01*
X77171Y61920D01*
X77280Y61965D01*
X77374Y62037D01*
X77446Y62131D01*
X77492Y62241D01*
X77507Y62358D01*
X77492Y62476D01*
X77446Y62585D01*
X77374Y62679D01*
X77280Y62751D01*
X77171Y62797D01*
X77053Y62812D01*
D02*
G37*
G36*
X76053D02*
X75936Y62797D01*
X75826Y62751D01*
X75732Y62679D01*
X75660Y62585D01*
X75615Y62476D01*
X75599Y62358D01*
X75615Y62241D01*
X75660Y62131D01*
X75732Y62037D01*
X75826Y61965D01*
X75936Y61920D01*
X76053Y61904D01*
X76171Y61920D01*
X76280Y61965D01*
X76374Y62037D01*
X76446Y62131D01*
X76492Y62241D01*
X76507Y62358D01*
X76492Y62476D01*
X76446Y62585D01*
X76374Y62679D01*
X76280Y62751D01*
X76171Y62797D01*
X76053Y62812D01*
D02*
G37*
G36*
X75053D02*
X74936Y62797D01*
X74826Y62751D01*
X74732Y62679D01*
X74660Y62585D01*
X74615Y62476D01*
X74599Y62358D01*
X74615Y62241D01*
X74660Y62131D01*
X74732Y62037D01*
X74826Y61965D01*
X74936Y61920D01*
X75053Y61904D01*
X75171Y61920D01*
X75280Y61965D01*
X75374Y62037D01*
X75446Y62131D01*
X75492Y62241D01*
X75507Y62358D01*
X75492Y62476D01*
X75446Y62585D01*
X75374Y62679D01*
X75280Y62751D01*
X75171Y62797D01*
X75053Y62812D01*
D02*
G37*
G36*
X74053D02*
X73936Y62797D01*
X73826Y62751D01*
X73732Y62679D01*
X73660Y62585D01*
X73615Y62476D01*
X73599Y62358D01*
X73615Y62241D01*
X73660Y62131D01*
X73732Y62037D01*
X73826Y61965D01*
X73936Y61920D01*
X74053Y61904D01*
X74171Y61920D01*
X74280Y61965D01*
X74374Y62037D01*
X74446Y62131D01*
X74492Y62241D01*
X74507Y62358D01*
X74492Y62476D01*
X74446Y62585D01*
X74374Y62679D01*
X74280Y62751D01*
X74171Y62797D01*
X74053Y62812D01*
D02*
G37*
G36*
X73053D02*
X72936Y62797D01*
X72826Y62751D01*
X72732Y62679D01*
X72660Y62585D01*
X72615Y62476D01*
X72599Y62358D01*
X72615Y62241D01*
X72660Y62131D01*
X72732Y62037D01*
X72826Y61965D01*
X72936Y61920D01*
X73053Y61904D01*
X73171Y61920D01*
X73280Y61965D01*
X73374Y62037D01*
X73446Y62131D01*
X73492Y62241D01*
X73507Y62358D01*
X73492Y62476D01*
X73446Y62585D01*
X73374Y62679D01*
X73280Y62751D01*
X73171Y62797D01*
X73053Y62812D01*
D02*
G37*
G36*
X72053D02*
X71936Y62797D01*
X71826Y62751D01*
X71732Y62679D01*
X71660Y62585D01*
X71615Y62476D01*
X71599Y62358D01*
X71615Y62241D01*
X71660Y62131D01*
X71732Y62037D01*
X71826Y61965D01*
X71936Y61920D01*
X72053Y61904D01*
X72171Y61920D01*
X72280Y61965D01*
X72374Y62037D01*
X72446Y62131D01*
X72492Y62241D01*
X72507Y62358D01*
X72492Y62476D01*
X72446Y62585D01*
X72374Y62679D01*
X72280Y62751D01*
X72171Y62797D01*
X72053Y62812D01*
D02*
G37*
G36*
X71053D02*
X70936Y62797D01*
X70826Y62751D01*
X70732Y62679D01*
X70660Y62585D01*
X70615Y62476D01*
X70599Y62358D01*
X70615Y62241D01*
X70660Y62131D01*
X70732Y62037D01*
X70826Y61965D01*
X70936Y61920D01*
X71053Y61904D01*
X71171Y61920D01*
X71280Y61965D01*
X71374Y62037D01*
X71446Y62131D01*
X71492Y62241D01*
X71507Y62358D01*
X71492Y62476D01*
X71446Y62585D01*
X71374Y62679D01*
X71280Y62751D01*
X71171Y62797D01*
X71053Y62812D01*
D02*
G37*
G36*
X70053D02*
X69936Y62797D01*
X69826Y62751D01*
X69732Y62679D01*
X69660Y62585D01*
X69615Y62476D01*
X69599Y62358D01*
X69615Y62241D01*
X69660Y62131D01*
X69732Y62037D01*
X69826Y61965D01*
X69936Y61920D01*
X70053Y61904D01*
X70171Y61920D01*
X70280Y61965D01*
X70374Y62037D01*
X70446Y62131D01*
X70492Y62241D01*
X70507Y62358D01*
X70492Y62476D01*
X70446Y62585D01*
X70374Y62679D01*
X70280Y62751D01*
X70171Y62797D01*
X70053Y62812D01*
D02*
G37*
G36*
X69053D02*
X68936Y62797D01*
X68826Y62751D01*
X68732Y62679D01*
X68660Y62585D01*
X68615Y62476D01*
X68599Y62358D01*
X68615Y62241D01*
X68660Y62131D01*
X68732Y62037D01*
X68826Y61965D01*
X68936Y61920D01*
X69053Y61904D01*
X69171Y61920D01*
X69280Y61965D01*
X69374Y62037D01*
X69446Y62131D01*
X69492Y62241D01*
X69507Y62358D01*
X69492Y62476D01*
X69446Y62585D01*
X69374Y62679D01*
X69280Y62751D01*
X69171Y62797D01*
X69053Y62812D01*
D02*
G37*
G36*
X68053D02*
X67936Y62797D01*
X67826Y62751D01*
X67732Y62679D01*
X67660Y62585D01*
X67615Y62476D01*
X67599Y62358D01*
X67615Y62241D01*
X67660Y62131D01*
X67732Y62037D01*
X67826Y61965D01*
X67936Y61920D01*
X68053Y61904D01*
X68171Y61920D01*
X68280Y61965D01*
X68374Y62037D01*
X68446Y62131D01*
X68492Y62241D01*
X68507Y62358D01*
X68492Y62476D01*
X68446Y62585D01*
X68374Y62679D01*
X68280Y62751D01*
X68171Y62797D01*
X68053Y62812D01*
D02*
G37*
G36*
X67053D02*
X66936Y62797D01*
X66826Y62751D01*
X66732Y62679D01*
X66660Y62585D01*
X66615Y62476D01*
X66599Y62358D01*
X66615Y62241D01*
X66660Y62131D01*
X66732Y62037D01*
X66826Y61965D01*
X66936Y61920D01*
X67053Y61904D01*
X67171Y61920D01*
X67280Y61965D01*
X67374Y62037D01*
X67446Y62131D01*
X67492Y62241D01*
X67507Y62358D01*
X67492Y62476D01*
X67446Y62585D01*
X67374Y62679D01*
X67280Y62751D01*
X67171Y62797D01*
X67053Y62812D01*
D02*
G37*
G36*
X66053D02*
X65936Y62797D01*
X65826Y62751D01*
X65732Y62679D01*
X65660Y62585D01*
X65615Y62476D01*
X65599Y62358D01*
X65615Y62241D01*
X65660Y62131D01*
X65732Y62037D01*
X65826Y61965D01*
X65936Y61920D01*
X66053Y61904D01*
X66171Y61920D01*
X66280Y61965D01*
X66374Y62037D01*
X66446Y62131D01*
X66492Y62241D01*
X66507Y62358D01*
X66492Y62476D01*
X66446Y62585D01*
X66374Y62679D01*
X66280Y62751D01*
X66171Y62797D01*
X66053Y62812D01*
D02*
G37*
G36*
X65053D02*
X64936Y62797D01*
X64826Y62751D01*
X64732Y62679D01*
X64660Y62585D01*
X64615Y62476D01*
X64599Y62358D01*
X64615Y62241D01*
X64660Y62131D01*
X64732Y62037D01*
X64826Y61965D01*
X64936Y61920D01*
X65053Y61904D01*
X65171Y61920D01*
X65280Y61965D01*
X65374Y62037D01*
X65446Y62131D01*
X65492Y62241D01*
X65507Y62358D01*
X65492Y62476D01*
X65446Y62585D01*
X65374Y62679D01*
X65280Y62751D01*
X65171Y62797D01*
X65053Y62812D01*
D02*
G37*
G36*
X64053D02*
X63936Y62797D01*
X63826Y62751D01*
X63732Y62679D01*
X63660Y62585D01*
X63615Y62476D01*
X63599Y62358D01*
X63615Y62241D01*
X63660Y62131D01*
X63732Y62037D01*
X63826Y61965D01*
X63936Y61920D01*
X64053Y61904D01*
X64171Y61920D01*
X64280Y61965D01*
X64374Y62037D01*
X64446Y62131D01*
X64492Y62241D01*
X64507Y62358D01*
X64492Y62476D01*
X64446Y62585D01*
X64374Y62679D01*
X64280Y62751D01*
X64171Y62797D01*
X64053Y62812D01*
D02*
G37*
G36*
X63053D02*
X62936Y62797D01*
X62826Y62751D01*
X62732Y62679D01*
X62660Y62585D01*
X62615Y62476D01*
X62599Y62358D01*
X62615Y62241D01*
X62660Y62131D01*
X62732Y62037D01*
X62826Y61965D01*
X62936Y61920D01*
X63053Y61904D01*
X63171Y61920D01*
X63280Y61965D01*
X63374Y62037D01*
X63446Y62131D01*
X63492Y62241D01*
X63507Y62358D01*
X63492Y62476D01*
X63446Y62585D01*
X63374Y62679D01*
X63280Y62751D01*
X63171Y62797D01*
X63053Y62812D01*
D02*
G37*
G36*
X62053D02*
X61936Y62797D01*
X61826Y62751D01*
X61732Y62679D01*
X61660Y62585D01*
X61615Y62476D01*
X61599Y62358D01*
X61615Y62241D01*
X61660Y62131D01*
X61732Y62037D01*
X61826Y61965D01*
X61936Y61920D01*
X62053Y61904D01*
X62171Y61920D01*
X62280Y61965D01*
X62374Y62037D01*
X62446Y62131D01*
X62492Y62241D01*
X62507Y62358D01*
X62492Y62476D01*
X62446Y62585D01*
X62374Y62679D01*
X62280Y62751D01*
X62171Y62797D01*
X62053Y62812D01*
D02*
G37*
G36*
X83053Y61812D02*
X82936Y61797D01*
X82826Y61751D01*
X82732Y61679D01*
X82660Y61585D01*
X82615Y61476D01*
X82599Y61358D01*
X82615Y61241D01*
X82660Y61131D01*
X82732Y61037D01*
X82826Y60965D01*
X82936Y60920D01*
X83053Y60904D01*
X83171Y60920D01*
X83280Y60965D01*
X83374Y61037D01*
X83446Y61131D01*
X83492Y61241D01*
X83507Y61358D01*
X83492Y61476D01*
X83446Y61585D01*
X83374Y61679D01*
X83280Y61751D01*
X83171Y61797D01*
X83053Y61812D01*
D02*
G37*
G36*
X82053D02*
X81936Y61797D01*
X81826Y61751D01*
X81732Y61679D01*
X81660Y61585D01*
X81615Y61476D01*
X81599Y61358D01*
X81615Y61241D01*
X81660Y61131D01*
X81732Y61037D01*
X81826Y60965D01*
X81936Y60920D01*
X82053Y60904D01*
X82171Y60920D01*
X82280Y60965D01*
X82374Y61037D01*
X82446Y61131D01*
X82492Y61241D01*
X82507Y61358D01*
X82492Y61476D01*
X82446Y61585D01*
X82374Y61679D01*
X82280Y61751D01*
X82171Y61797D01*
X82053Y61812D01*
D02*
G37*
G36*
X81053D02*
X80936Y61797D01*
X80826Y61751D01*
X80732Y61679D01*
X80660Y61585D01*
X80615Y61476D01*
X80599Y61358D01*
X80615Y61241D01*
X80660Y61131D01*
X80732Y61037D01*
X80826Y60965D01*
X80936Y60920D01*
X81053Y60904D01*
X81171Y60920D01*
X81280Y60965D01*
X81374Y61037D01*
X81446Y61131D01*
X81492Y61241D01*
X81507Y61358D01*
X81492Y61476D01*
X81446Y61585D01*
X81374Y61679D01*
X81280Y61751D01*
X81171Y61797D01*
X81053Y61812D01*
D02*
G37*
G36*
X80053D02*
X79936Y61797D01*
X79826Y61751D01*
X79732Y61679D01*
X79660Y61585D01*
X79615Y61476D01*
X79599Y61358D01*
X79615Y61241D01*
X79660Y61131D01*
X79732Y61037D01*
X79826Y60965D01*
X79936Y60920D01*
X80053Y60904D01*
X80171Y60920D01*
X80280Y60965D01*
X80374Y61037D01*
X80446Y61131D01*
X80492Y61241D01*
X80507Y61358D01*
X80492Y61476D01*
X80446Y61585D01*
X80374Y61679D01*
X80280Y61751D01*
X80171Y61797D01*
X80053Y61812D01*
D02*
G37*
G36*
X78053D02*
X77936Y61797D01*
X77826Y61751D01*
X77732Y61679D01*
X77660Y61585D01*
X77615Y61476D01*
X77599Y61358D01*
X77615Y61241D01*
X77660Y61131D01*
X77732Y61037D01*
X77826Y60965D01*
X77936Y60920D01*
X78053Y60904D01*
X78171Y60920D01*
X78280Y60965D01*
X78374Y61037D01*
X78446Y61131D01*
X78492Y61241D01*
X78507Y61358D01*
X78492Y61476D01*
X78446Y61585D01*
X78374Y61679D01*
X78280Y61751D01*
X78171Y61797D01*
X78053Y61812D01*
D02*
G37*
G36*
X77053D02*
X76936Y61797D01*
X76826Y61751D01*
X76732Y61679D01*
X76660Y61585D01*
X76615Y61476D01*
X76599Y61358D01*
X76615Y61241D01*
X76660Y61131D01*
X76732Y61037D01*
X76826Y60965D01*
X76936Y60920D01*
X77053Y60904D01*
X77171Y60920D01*
X77280Y60965D01*
X77374Y61037D01*
X77446Y61131D01*
X77492Y61241D01*
X77507Y61358D01*
X77492Y61476D01*
X77446Y61585D01*
X77374Y61679D01*
X77280Y61751D01*
X77171Y61797D01*
X77053Y61812D01*
D02*
G37*
G36*
X76053D02*
X75936Y61797D01*
X75826Y61751D01*
X75732Y61679D01*
X75660Y61585D01*
X75615Y61476D01*
X75599Y61358D01*
X75615Y61241D01*
X75660Y61131D01*
X75732Y61037D01*
X75826Y60965D01*
X75936Y60920D01*
X76053Y60904D01*
X76171Y60920D01*
X76280Y60965D01*
X76374Y61037D01*
X76446Y61131D01*
X76492Y61241D01*
X76507Y61358D01*
X76492Y61476D01*
X76446Y61585D01*
X76374Y61679D01*
X76280Y61751D01*
X76171Y61797D01*
X76053Y61812D01*
D02*
G37*
G36*
X75053D02*
X74936Y61797D01*
X74826Y61751D01*
X74732Y61679D01*
X74660Y61585D01*
X74615Y61476D01*
X74599Y61358D01*
X74615Y61241D01*
X74660Y61131D01*
X74732Y61037D01*
X74826Y60965D01*
X74936Y60920D01*
X75053Y60904D01*
X75171Y60920D01*
X75280Y60965D01*
X75374Y61037D01*
X75446Y61131D01*
X75492Y61241D01*
X75507Y61358D01*
X75492Y61476D01*
X75446Y61585D01*
X75374Y61679D01*
X75280Y61751D01*
X75171Y61797D01*
X75053Y61812D01*
D02*
G37*
G36*
X74053D02*
X73936Y61797D01*
X73826Y61751D01*
X73732Y61679D01*
X73660Y61585D01*
X73615Y61476D01*
X73599Y61358D01*
X73615Y61241D01*
X73660Y61131D01*
X73732Y61037D01*
X73826Y60965D01*
X73936Y60920D01*
X74053Y60904D01*
X74171Y60920D01*
X74280Y60965D01*
X74374Y61037D01*
X74446Y61131D01*
X74492Y61241D01*
X74507Y61358D01*
X74492Y61476D01*
X74446Y61585D01*
X74374Y61679D01*
X74280Y61751D01*
X74171Y61797D01*
X74053Y61812D01*
D02*
G37*
G36*
X73053D02*
X72936Y61797D01*
X72826Y61751D01*
X72732Y61679D01*
X72660Y61585D01*
X72615Y61476D01*
X72599Y61358D01*
X72615Y61241D01*
X72660Y61131D01*
X72732Y61037D01*
X72826Y60965D01*
X72936Y60920D01*
X73053Y60904D01*
X73171Y60920D01*
X73280Y60965D01*
X73374Y61037D01*
X73446Y61131D01*
X73492Y61241D01*
X73507Y61358D01*
X73492Y61476D01*
X73446Y61585D01*
X73374Y61679D01*
X73280Y61751D01*
X73171Y61797D01*
X73053Y61812D01*
D02*
G37*
G36*
X72053D02*
X71936Y61797D01*
X71826Y61751D01*
X71732Y61679D01*
X71660Y61585D01*
X71615Y61476D01*
X71599Y61358D01*
X71615Y61241D01*
X71660Y61131D01*
X71732Y61037D01*
X71826Y60965D01*
X71936Y60920D01*
X72053Y60904D01*
X72171Y60920D01*
X72280Y60965D01*
X72374Y61037D01*
X72446Y61131D01*
X72492Y61241D01*
X72507Y61358D01*
X72492Y61476D01*
X72446Y61585D01*
X72374Y61679D01*
X72280Y61751D01*
X72171Y61797D01*
X72053Y61812D01*
D02*
G37*
G36*
X70053D02*
X69936Y61797D01*
X69826Y61751D01*
X69732Y61679D01*
X69660Y61585D01*
X69615Y61476D01*
X69599Y61358D01*
X69615Y61241D01*
X69660Y61131D01*
X69732Y61037D01*
X69826Y60965D01*
X69936Y60920D01*
X70053Y60904D01*
X70171Y60920D01*
X70280Y60965D01*
X70374Y61037D01*
X70446Y61131D01*
X70492Y61241D01*
X70507Y61358D01*
X70492Y61476D01*
X70446Y61585D01*
X70374Y61679D01*
X70280Y61751D01*
X70171Y61797D01*
X70053Y61812D01*
D02*
G37*
G36*
X69053D02*
X68936Y61797D01*
X68826Y61751D01*
X68732Y61679D01*
X68660Y61585D01*
X68615Y61476D01*
X68599Y61358D01*
X68615Y61241D01*
X68660Y61131D01*
X68732Y61037D01*
X68826Y60965D01*
X68936Y60920D01*
X69053Y60904D01*
X69171Y60920D01*
X69280Y60965D01*
X69374Y61037D01*
X69446Y61131D01*
X69492Y61241D01*
X69507Y61358D01*
X69492Y61476D01*
X69446Y61585D01*
X69374Y61679D01*
X69280Y61751D01*
X69171Y61797D01*
X69053Y61812D01*
D02*
G37*
G36*
X68053D02*
X67936Y61797D01*
X67826Y61751D01*
X67732Y61679D01*
X67660Y61585D01*
X67615Y61476D01*
X67599Y61358D01*
X67615Y61241D01*
X67660Y61131D01*
X67732Y61037D01*
X67826Y60965D01*
X67936Y60920D01*
X68053Y60904D01*
X68171Y60920D01*
X68280Y60965D01*
X68374Y61037D01*
X68446Y61131D01*
X68492Y61241D01*
X68507Y61358D01*
X68492Y61476D01*
X68446Y61585D01*
X68374Y61679D01*
X68280Y61751D01*
X68171Y61797D01*
X68053Y61812D01*
D02*
G37*
G36*
X67053D02*
X66936Y61797D01*
X66826Y61751D01*
X66732Y61679D01*
X66660Y61585D01*
X66615Y61476D01*
X66599Y61358D01*
X66615Y61241D01*
X66660Y61131D01*
X66732Y61037D01*
X66826Y60965D01*
X66936Y60920D01*
X67053Y60904D01*
X67171Y60920D01*
X67280Y60965D01*
X67374Y61037D01*
X67446Y61131D01*
X67492Y61241D01*
X67507Y61358D01*
X67492Y61476D01*
X67446Y61585D01*
X67374Y61679D01*
X67280Y61751D01*
X67171Y61797D01*
X67053Y61812D01*
D02*
G37*
G36*
X66053D02*
X65936Y61797D01*
X65826Y61751D01*
X65732Y61679D01*
X65660Y61585D01*
X65615Y61476D01*
X65599Y61358D01*
X65615Y61241D01*
X65660Y61131D01*
X65732Y61037D01*
X65826Y60965D01*
X65936Y60920D01*
X66053Y60904D01*
X66171Y60920D01*
X66280Y60965D01*
X66374Y61037D01*
X66446Y61131D01*
X66492Y61241D01*
X66507Y61358D01*
X66492Y61476D01*
X66446Y61585D01*
X66374Y61679D01*
X66280Y61751D01*
X66171Y61797D01*
X66053Y61812D01*
D02*
G37*
G36*
X65053D02*
X64936Y61797D01*
X64826Y61751D01*
X64732Y61679D01*
X64660Y61585D01*
X64615Y61476D01*
X64599Y61358D01*
X64615Y61241D01*
X64660Y61131D01*
X64732Y61037D01*
X64826Y60965D01*
X64936Y60920D01*
X65053Y60904D01*
X65171Y60920D01*
X65280Y60965D01*
X65374Y61037D01*
X65446Y61131D01*
X65492Y61241D01*
X65507Y61358D01*
X65492Y61476D01*
X65446Y61585D01*
X65374Y61679D01*
X65280Y61751D01*
X65171Y61797D01*
X65053Y61812D01*
D02*
G37*
G36*
X64053D02*
X63936Y61797D01*
X63826Y61751D01*
X63732Y61679D01*
X63660Y61585D01*
X63615Y61476D01*
X63599Y61358D01*
X63615Y61241D01*
X63660Y61131D01*
X63732Y61037D01*
X63826Y60965D01*
X63936Y60920D01*
X64053Y60904D01*
X64171Y60920D01*
X64280Y60965D01*
X64374Y61037D01*
X64446Y61131D01*
X64492Y61241D01*
X64507Y61358D01*
X64492Y61476D01*
X64446Y61585D01*
X64374Y61679D01*
X64280Y61751D01*
X64171Y61797D01*
X64053Y61812D01*
D02*
G37*
G36*
X63053D02*
X62936Y61797D01*
X62826Y61751D01*
X62732Y61679D01*
X62660Y61585D01*
X62615Y61476D01*
X62599Y61358D01*
X62615Y61241D01*
X62660Y61131D01*
X62732Y61037D01*
X62826Y60965D01*
X62936Y60920D01*
X63053Y60904D01*
X63171Y60920D01*
X63280Y60965D01*
X63374Y61037D01*
X63446Y61131D01*
X63492Y61241D01*
X63507Y61358D01*
X63492Y61476D01*
X63446Y61585D01*
X63374Y61679D01*
X63280Y61751D01*
X63171Y61797D01*
X63053Y61812D01*
D02*
G37*
G36*
X74096Y56754D02*
X73660D01*
Y56639D01*
X72776D01*
X72776Y56639D01*
X72706Y56625D01*
X72648Y56586D01*
X72292D01*
Y55914D01*
X72905D01*
Y56274D01*
X73660D01*
Y56160D01*
X74096D01*
Y56754D01*
D02*
G37*
G36*
X76960Y57098D02*
X76406D01*
Y56307D01*
X76960D01*
Y56530D01*
X77588D01*
Y56416D01*
X78025D01*
Y57009D01*
X77588D01*
Y56895D01*
X76960D01*
Y57098D01*
D02*
G37*
G36*
X83380Y56084D02*
X82944D01*
Y55940D01*
X82403D01*
Y56006D01*
X81613D01*
Y55451D01*
X82403D01*
Y55576D01*
X82944D01*
Y55491D01*
X83380D01*
Y56084D01*
D02*
G37*
G36*
X80297Y56104D02*
X79782D01*
Y55510D01*
X80297D01*
Y55585D01*
X80392D01*
Y55451D01*
X81183D01*
Y56006D01*
X80392D01*
Y55950D01*
X80297D01*
Y56104D01*
D02*
G37*
G36*
X82403Y55336D02*
X81613D01*
Y54782D01*
X82403D01*
Y54857D01*
X82944D01*
Y54723D01*
X83380D01*
Y55317D01*
X82944D01*
Y55222D01*
X82403D01*
Y55336D01*
D02*
G37*
G36*
X75098Y56422D02*
X75006Y56410D01*
X74919Y56374D01*
X74845Y56317D01*
X74788Y56242D01*
X74752Y56156D01*
X74739Y56063D01*
X74752Y55970D01*
X74788Y55883D01*
X74845Y55809D01*
X74919Y55752D01*
X74936Y55745D01*
Y54948D01*
X74531Y54543D01*
X74254D01*
Y54559D01*
X73967D01*
X73958Y54568D01*
X73898Y54607D01*
X73829Y54621D01*
X73829Y54621D01*
X73673D01*
Y54709D01*
X73857D01*
Y54684D01*
X74313D01*
Y55136D01*
X73857D01*
Y55073D01*
X73673D01*
Y55110D01*
X73637D01*
Y55206D01*
X73646Y55254D01*
X73722D01*
Y55848D01*
X73286D01*
Y55529D01*
X73282Y55512D01*
X73282Y55512D01*
Y55296D01*
X73272Y55246D01*
X73272Y55246D01*
Y55110D01*
X73237D01*
Y54634D01*
Y54201D01*
X73673D01*
Y54257D01*
X73753D01*
X73817Y54193D01*
Y53650D01*
X73853D01*
Y53514D01*
X73853Y53514D01*
X73867Y53444D01*
X73901Y53393D01*
X73876Y53331D01*
X73863Y53238D01*
X73876Y53145D01*
X73912Y53059D01*
X73969Y52984D01*
X74002Y52959D01*
X73985Y52909D01*
X73560D01*
X72899Y53570D01*
Y54045D01*
X72899Y54045D01*
X72895Y54063D01*
Y54381D01*
X72302D01*
Y53867D01*
X72534D01*
Y53494D01*
X72534Y53494D01*
X72548Y53424D01*
X72588Y53365D01*
X73355Y52598D01*
X73355Y52598D01*
X73415Y52558D01*
X73484Y52544D01*
X73484Y52544D01*
X74916D01*
Y52208D01*
X74884Y52183D01*
X74827Y52109D01*
X74791Y52022D01*
X74779Y51929D01*
X74791Y51836D01*
X74827Y51750D01*
X74884Y51675D01*
X74958Y51618D01*
X75045Y51582D01*
X75138Y51570D01*
X75231Y51582D01*
X75317Y51618D01*
X75392Y51675D01*
X75449Y51750D01*
X75485Y51836D01*
X75497Y51929D01*
X75485Y52022D01*
X75449Y52109D01*
X75392Y52183D01*
X75317Y52240D01*
X75281Y52255D01*
Y52554D01*
X77621D01*
X77621Y52554D01*
X77690Y52568D01*
X77719Y52587D01*
X77791Y52557D01*
X77884Y52545D01*
X77977Y52557D01*
X78063Y52593D01*
X78138Y52650D01*
X78195Y52724D01*
X78231Y52811D01*
X78243Y52904D01*
X78231Y52996D01*
X78195Y53083D01*
X78138Y53157D01*
X78063Y53214D01*
X77977Y53250D01*
X77884Y53263D01*
X77791Y53250D01*
X77704Y53214D01*
X77630Y53157D01*
X77573Y53083D01*
X77537Y52996D01*
X77527Y52918D01*
X75108D01*
X75108Y52918D01*
X75059Y52909D01*
X74460D01*
X74443Y52959D01*
X74476Y52984D01*
X74533Y53059D01*
X74569Y53145D01*
X74581Y53238D01*
X74569Y53331D01*
X74533Y53418D01*
X74476Y53492D01*
X74402Y53549D01*
X74315Y53585D01*
X74222Y53597D01*
X74219Y53600D01*
X74219Y53615D01*
X74254Y53650D01*
X74254D01*
Y54178D01*
X74553D01*
X74570Y54128D01*
X74549Y54112D01*
X74492Y54038D01*
X74456Y53951D01*
X74444Y53858D01*
X74456Y53765D01*
X74492Y53679D01*
X74549Y53604D01*
X74624Y53547D01*
X74710Y53512D01*
X74803Y53499D01*
X74896Y53512D01*
X74983Y53547D01*
X75057Y53604D01*
X75112Y53676D01*
X75807D01*
X75807Y53676D01*
X75877Y53690D01*
X75936Y53729D01*
X75973Y53767D01*
X76023Y53746D01*
Y53709D01*
X76617D01*
Y54224D01*
X76023D01*
Y54168D01*
X75935D01*
X75935Y54168D01*
X75926Y54167D01*
X75887Y54198D01*
Y54224D01*
X75294D01*
Y54041D01*
X75112D01*
X75057Y54112D01*
X74983Y54169D01*
X74896Y54205D01*
X74803Y54217D01*
X74790Y54216D01*
X74767Y54263D01*
X75244Y54740D01*
X75258Y54739D01*
X75294Y54723D01*
Y54339D01*
X75887D01*
Y54754D01*
X75973Y54839D01*
X76023Y54819D01*
Y54339D01*
X76617D01*
Y54596D01*
X76812Y54791D01*
X76812Y54791D01*
X76851Y54850D01*
X76865Y54920D01*
X76865Y54920D01*
Y55087D01*
X76960D01*
Y55878D01*
X76406D01*
Y55087D01*
X76501D01*
Y54996D01*
X76359Y54854D01*
X76058D01*
X76038Y54904D01*
X76064Y54930D01*
X76064Y54930D01*
X76103Y54989D01*
X76117Y55059D01*
Y55087D01*
X76291D01*
Y55878D01*
X75737D01*
Y55118D01*
X75472Y54854D01*
X75315D01*
X75300Y54872D01*
X75300Y54872D01*
X75300Y54886D01*
Y55769D01*
X75352Y55809D01*
X75409Y55883D01*
X75445Y55970D01*
X75457Y56063D01*
X75445Y56156D01*
X75409Y56242D01*
X75352Y56317D01*
X75278Y56374D01*
X75191Y56410D01*
X75098Y56422D01*
D02*
G37*
G36*
X72905Y55838D02*
X72292D01*
Y55166D01*
X72416D01*
Y55011D01*
X72302D01*
Y54496D01*
X72895D01*
Y55011D01*
X72781D01*
Y55166D01*
X72905D01*
Y55838D01*
D02*
G37*
G36*
X56772Y42089D02*
X56551Y42072D01*
X56336Y42020D01*
X56131Y41936D01*
X55943Y41820D01*
X55774Y41676D01*
X55631Y41508D01*
X55515Y41319D01*
X55430Y41115D01*
X55379Y40900D01*
X55361Y40679D01*
X55379Y40459D01*
X55430Y40243D01*
X55515Y40039D01*
X55631Y39850D01*
X55774Y39682D01*
X55943Y39538D01*
X56131Y39423D01*
X56336Y39338D01*
X56551Y39286D01*
X56772Y39269D01*
X56992Y39286D01*
X57207Y39338D01*
X57412Y39423D01*
X57601Y39538D01*
X57769Y39682D01*
X57913Y39850D01*
X58028Y40039D01*
X58113Y40243D01*
X58165Y40459D01*
X58182Y40679D01*
X58165Y40900D01*
X58113Y41115D01*
X58028Y41319D01*
X57913Y41508D01*
X57769Y41676D01*
X57601Y41820D01*
X57412Y41936D01*
X57207Y42020D01*
X56992Y42072D01*
X56772Y42089D01*
D02*
G37*
G36*
X49990D02*
X49770Y42072D01*
X49554Y42020D01*
X49350Y41936D01*
X49161Y41820D01*
X48993Y41676D01*
X48849Y41508D01*
X48734Y41319D01*
X48649Y41115D01*
X48597Y40900D01*
X48580Y40679D01*
X48597Y40459D01*
X48649Y40243D01*
X48734Y40039D01*
X48849Y39850D01*
X48993Y39682D01*
X49161Y39538D01*
X49350Y39423D01*
X49554Y39338D01*
X49770Y39286D01*
X49990Y39269D01*
X50211Y39286D01*
X50426Y39338D01*
X50630Y39423D01*
X50819Y39538D01*
X50987Y39682D01*
X51131Y39850D01*
X51247Y40039D01*
X51331Y40243D01*
X51383Y40459D01*
X51400Y40679D01*
X51383Y40900D01*
X51331Y41115D01*
X51247Y41319D01*
X51131Y41508D01*
X50987Y41676D01*
X50819Y41820D01*
X50630Y41936D01*
X50426Y42020D01*
X50211Y42072D01*
X49990Y42089D01*
D02*
G37*
G36*
X38278D02*
X38057Y42072D01*
X37842Y42020D01*
X37637Y41936D01*
X37449Y41820D01*
X37280Y41676D01*
X37137Y41508D01*
X37021Y41319D01*
X36936Y41115D01*
X36885Y40900D01*
X36867Y40679D01*
X36885Y40459D01*
X36936Y40243D01*
X37021Y40039D01*
X37137Y39850D01*
X37280Y39682D01*
X37449Y39538D01*
X37637Y39423D01*
X37842Y39338D01*
X38057Y39286D01*
X38278Y39269D01*
X38498Y39286D01*
X38713Y39338D01*
X38918Y39423D01*
X39106Y39538D01*
X39275Y39682D01*
X39418Y39850D01*
X39534Y40039D01*
X39619Y40243D01*
X39670Y40459D01*
X39688Y40679D01*
X39670Y40900D01*
X39619Y41115D01*
X39534Y41319D01*
X39418Y41508D01*
X39275Y41676D01*
X39106Y41820D01*
X38918Y41936D01*
X38713Y42020D01*
X38498Y42072D01*
X38278Y42089D01*
D02*
G37*
G36*
X31496D02*
X31275Y42072D01*
X31060Y42020D01*
X30856Y41936D01*
X30667Y41820D01*
X30499Y41676D01*
X30355Y41508D01*
X30240Y41319D01*
X30155Y41115D01*
X30103Y40900D01*
X30086Y40679D01*
X30103Y40459D01*
X30155Y40243D01*
X30240Y40039D01*
X30355Y39850D01*
X30499Y39682D01*
X30667Y39538D01*
X30856Y39423D01*
X31060Y39338D01*
X31275Y39286D01*
X31496Y39269D01*
X31717Y39286D01*
X31932Y39338D01*
X32136Y39423D01*
X32325Y39538D01*
X32493Y39682D01*
X32637Y39850D01*
X32753Y40039D01*
X32837Y40243D01*
X32889Y40459D01*
X32906Y40679D01*
X32889Y40900D01*
X32837Y41115D01*
X32753Y41319D01*
X32637Y41508D01*
X32493Y41676D01*
X32325Y41820D01*
X32136Y41936D01*
X31932Y42020D01*
X31717Y42072D01*
X31496Y42089D01*
D02*
G37*
G36*
X83927Y48133D02*
X83834Y48121D01*
X83748Y48085D01*
X83673Y48028D01*
X83616Y47954D01*
X83580Y47867D01*
X83568Y47774D01*
X83580Y47682D01*
X83616Y47595D01*
X83673Y47521D01*
X83748Y47464D01*
X83834Y47428D01*
X83927Y47415D01*
X84020Y47428D01*
X84107Y47464D01*
X84181Y47521D01*
X84238Y47595D01*
X84274Y47682D01*
X84286Y47774D01*
X84274Y47867D01*
X84238Y47954D01*
X84181Y48028D01*
X84107Y48085D01*
X84020Y48121D01*
X83927Y48133D01*
D02*
G37*
G36*
X74679Y36959D02*
X74309Y36805D01*
X74155Y36435D01*
X74176Y36386D01*
X72433Y34643D01*
X72338Y34416D01*
Y31449D01*
X72123D01*
Y30927D01*
X72515D01*
X72660Y30867D01*
X72804Y30927D01*
X73197D01*
Y31449D01*
X72981D01*
Y34283D01*
X74630Y35932D01*
X74679Y35911D01*
X75049Y36065D01*
X75203Y36435D01*
X75049Y36805D01*
X74679Y36959D01*
D02*
G37*
G36*
X85820Y28643D02*
X84714D01*
Y27754D01*
X85289D01*
Y21232D01*
X82725Y18668D01*
X82106D01*
X82049Y18805D01*
X81679Y18959D01*
X81309Y18805D01*
X81155Y18435D01*
X81309Y18065D01*
X81679Y17911D01*
X81728Y17932D01*
X83685Y15975D01*
Y14636D01*
X83689Y14624D01*
Y14319D01*
X83868D01*
X84647Y13540D01*
Y12239D01*
X84583Y12085D01*
X84696Y11812D01*
X84969Y11699D01*
X85241Y11812D01*
X85354Y12085D01*
X85290Y12239D01*
Y13673D01*
X85196Y13900D01*
X84327Y14769D01*
Y16108D01*
X84233Y16335D01*
X82506Y18063D01*
X82596Y18281D01*
X82805D01*
X82942Y18338D01*
X85619Y21015D01*
X85676Y21152D01*
Y27754D01*
X85820D01*
Y28643D01*
D02*
G37*
G36*
X75679Y18959D02*
X75309Y18805D01*
X75155Y18435D01*
X75309Y18065D01*
X75679Y17911D01*
X76049Y18065D01*
X76203Y18435D01*
X76049Y18805D01*
X75679Y18959D01*
D02*
G37*
G36*
X73707Y29777D02*
X72660D01*
X72515Y29717D01*
X72123D01*
Y29194D01*
X72515D01*
X72660Y29134D01*
X73574D01*
X73950Y28758D01*
Y26745D01*
X72708Y25503D01*
X72708Y25503D01*
X72467Y25261D01*
X72123D01*
Y24739D01*
X72338D01*
Y22498D01*
X72433Y22271D01*
X74901Y19802D01*
X75128Y19708D01*
X77952D01*
X79176Y18484D01*
X79155Y18435D01*
X79309Y18065D01*
X79429Y18015D01*
Y17907D01*
X79524Y17680D01*
X82758Y14445D01*
X82779Y14394D01*
X83022Y14293D01*
X83264Y14394D01*
X83364Y14636D01*
X83264Y14878D01*
X83212Y14899D01*
X80072Y18040D01*
Y18119D01*
X80203Y18435D01*
X80049Y18805D01*
X79679Y18959D01*
X79630Y18938D01*
X78312Y20257D01*
X78085Y20351D01*
X75261D01*
X72981Y22631D01*
Y24739D01*
X73197D01*
Y25083D01*
X74499Y26385D01*
X74593Y26612D01*
Y28891D01*
X74499Y29118D01*
X73934Y29683D01*
X73707Y29777D01*
D02*
G37*
G36*
X81804Y12608D02*
X81562Y12507D01*
X80608Y11553D01*
X80366D01*
Y11665D01*
X78748D01*
Y11553D01*
X78429D01*
X77915Y12068D01*
X77934Y12116D01*
X77822Y12389D01*
X77549Y12501D01*
X77277Y12389D01*
X77164Y12116D01*
X77168Y12107D01*
X77133Y12023D01*
X77233Y11780D01*
X78045Y10968D01*
X78287Y10868D01*
X78748D01*
Y10756D01*
X80366D01*
Y10868D01*
X80750D01*
X80992Y10968D01*
X81795Y11771D01*
X81968Y11699D01*
X82241Y11812D01*
X82354Y12085D01*
X82241Y12357D01*
X82082Y12423D01*
X82047Y12507D01*
X81804Y12608D01*
D02*
G37*
G36*
X81968Y9470D02*
X81696Y9357D01*
X81583Y9085D01*
X81696Y8812D01*
X81968Y8699D01*
X82241Y8812D01*
X82354Y9085D01*
X82241Y9357D01*
X81968Y9470D01*
D02*
G37*
%LPD*%
D10*
X5907Y72600D02*
X5909Y72598D01*
D11*
X41339Y22962D02*
Y26683D01*
X41068Y26954D02*
X42067Y27953D01*
X45693Y87589D02*
Y89124D01*
X39333Y20956D02*
X41339Y22962D01*
X38378Y20956D02*
X39333D01*
X36811Y19390D02*
X38378Y20956D01*
X36811Y14744D02*
Y19390D01*
Y14744D02*
X39398Y12157D01*
X9519Y13867D02*
Y21583D01*
Y13867D02*
X10236Y13150D01*
X43898Y35433D02*
X44843Y36378D01*
X40433Y35433D02*
X43898D01*
X39398Y8706D02*
Y12157D01*
X34528Y22047D02*
Y29528D01*
X21187Y8706D02*
X34528Y22047D01*
Y29528D02*
X40433Y35433D01*
X42067Y27953D02*
X44843D01*
X22717Y26319D02*
Y35433D01*
Y17441D02*
Y26319D01*
X16339Y11063D02*
X22717Y17441D01*
D12*
X27402Y93474D02*
X27431Y93445D01*
X27402Y93474D02*
Y93504D01*
X22854Y93622D02*
X27283D01*
X27402Y93504D01*
X65074Y53863D02*
X66447Y55236D01*
X70010D02*
X74360Y59587D01*
X66447Y55236D02*
X70010D01*
X74360Y59587D02*
X78415D01*
X63376Y53863D02*
X65074D01*
X62687Y52687D02*
Y53061D01*
X43100Y52313D02*
X61407D01*
X44197Y51273D02*
X44685Y51762D01*
X44197Y50976D02*
Y51273D01*
X61407Y52313D02*
X61860Y51860D01*
X61076Y51762D02*
X61102Y51789D01*
X44685Y51762D02*
X61076D01*
X44134Y50913D02*
X44197Y50976D01*
X38976Y93110D02*
X39173Y93307D01*
X38780Y93110D02*
X38976D01*
X39173Y93307D02*
X50000D01*
X51122Y92185D01*
Y91644D02*
Y92185D01*
X51045Y91566D02*
X51122Y91644D01*
X51045Y90730D02*
Y91566D01*
X50984Y90669D02*
X51045Y90730D01*
X51491Y90197D02*
X51526D01*
X51019Y90669D02*
X51491Y90197D01*
X50984Y90669D02*
X51019D01*
X51526Y90197D02*
X52205Y89518D01*
Y87087D02*
Y89518D01*
X51801Y86220D02*
X51861Y86281D01*
Y86743D01*
X52205Y87087D01*
X21260Y93176D02*
Y93583D01*
Y93176D02*
X21687Y92749D01*
X49757Y88291D02*
X50157Y88691D01*
X62687Y53061D02*
X63376Y53750D01*
X62982Y54257D02*
Y54395D01*
Y54257D02*
X63376Y53863D01*
Y53750D02*
Y53863D01*
X61860Y51860D02*
X61959Y51762D01*
X79053Y60224D02*
Y61358D01*
X78415Y59587D02*
X79053Y60224D01*
X61860Y51860D02*
X62687Y52687D01*
X24970Y51535D02*
X26339Y52904D01*
X25640Y51398D02*
X26565Y52323D01*
X26339Y52904D02*
X42510D01*
X26565Y52323D02*
X42234D01*
X42352Y52205D01*
X42510Y52904D02*
X43100Y52313D01*
X42335Y50913D02*
X42795D01*
X41496Y51752D02*
X42335Y50913D01*
X41496Y51752D02*
Y51772D01*
X41476Y51791D02*
X41496Y51772D01*
X41457Y51791D02*
X41476D01*
X61959Y50913D02*
Y51762D01*
X43100Y52313D02*
X43532Y51881D01*
Y50981D02*
Y51881D01*
X25640Y50913D02*
Y51398D01*
X24970Y50913D02*
Y51535D01*
X43465Y50913D02*
X43532Y50981D01*
X44540Y48280D02*
X48427D01*
X44528Y48268D02*
X44540Y48280D01*
X26115D02*
X29933D01*
X26102Y48268D02*
X26115Y48280D01*
X77000Y39159D02*
X77272D01*
X49291Y86801D02*
X49803D01*
X49252Y86841D02*
X49291Y86801D01*
X49232Y86841D02*
X49252D01*
X50433Y86801D02*
Y87335D01*
X50284Y87484D02*
X50433Y87335D01*
X49232Y86841D02*
X49245Y86853D01*
Y87707D01*
X49257Y87719D01*
X50284Y87746D02*
X50906D01*
X51339D01*
X50906Y88100D02*
X50906Y88100D01*
X50906Y88100D02*
Y88691D01*
X50905Y88691D02*
X50906Y88691D01*
X50906Y88100D02*
X51339D01*
X50157Y88691D02*
X50905D01*
X49757Y87719D02*
Y88291D01*
X50257Y89855D02*
X50279Y89833D01*
X50591D01*
X50905Y89045D02*
Y89518D01*
X50591Y89833D02*
X50905Y89518D01*
X49724Y91526D02*
X50276D01*
X49705D02*
X49724D01*
X50374Y91624D02*
Y91644D01*
X50276Y91526D02*
X50374Y91624D01*
X49685Y91545D02*
X49705Y91526D01*
X49685Y91545D02*
Y92215D01*
X49665Y92234D02*
X49685Y92215D01*
X49757Y89855D02*
Y91493D01*
X49724Y91526D02*
X49757Y91493D01*
X48839Y90856D02*
X48858D01*
X48878Y90876D01*
Y90896D01*
X48917Y90935D01*
Y92234D01*
X48757Y89855D02*
Y90794D01*
X48819Y90856D01*
X48839D01*
X75079Y38813D02*
X75079Y38813D01*
D14*
X86309Y50866D02*
Y52240D01*
X86305Y52244D02*
X86309Y52240D01*
X84503Y50851D02*
X85679D01*
Y50866D01*
X84488Y50837D02*
X84503Y50851D01*
X86016Y49921D02*
Y49965D01*
X86309Y50258D01*
Y50866D01*
D15*
X70079Y84242D02*
X85571D01*
X65600D02*
X70079D01*
X86782Y72126D02*
X86968Y72313D01*
Y82844D01*
X86447Y72126D02*
X86841D01*
Y55305D02*
Y72126D01*
X83945Y52410D02*
X86841Y55305D01*
X84518Y65778D02*
X86108Y67368D01*
Y70290D01*
X86093Y70305D02*
X86108Y70290D01*
X84734Y69301D02*
X85197D01*
X83681Y68248D02*
X84734Y69301D01*
X83681Y66663D02*
Y68248D01*
X67029Y65983D02*
X67296D01*
X63179Y69833D02*
X67029Y65983D01*
X63359Y70267D02*
X63636Y69990D01*
X61606Y70267D02*
X63359D01*
X59528Y68189D02*
X61606Y70267D01*
X63636Y69990D02*
X67451D01*
X60690Y68595D02*
X61928Y69833D01*
X63179D01*
X67451Y69990D02*
X68105Y69336D01*
X39634Y70105D02*
Y70294D01*
X40076Y70736D02*
Y70744D01*
X39439Y69909D02*
X39634Y70105D01*
X39439Y69722D02*
Y69909D01*
X39634Y70294D02*
X40076Y70736D01*
X38495Y71977D02*
X38622Y71850D01*
X8018Y71024D02*
X8029Y71034D01*
X7323Y71024D02*
X8018D01*
X37224Y71929D02*
X38447D01*
X33671Y69882D02*
X33780D01*
X22520D02*
X33671D01*
X38150Y72323D02*
X38495Y71977D01*
X35512Y72323D02*
X38150D01*
X33671Y70482D02*
X35512Y72323D01*
X33671Y69882D02*
Y70482D01*
X59818Y52638D02*
X61535Y54355D01*
X62293Y54365D02*
Y54395D01*
X62283Y54355D02*
X62293Y54365D01*
X61535Y54355D02*
X62283D01*
X61468Y54423D02*
X61535Y54355D01*
X42513Y53472D02*
X43346Y52638D01*
X59818D01*
X39970Y53472D02*
X42513D01*
X6746Y71600D02*
X7323Y71024D01*
X5829Y72100D02*
X6859D01*
X35315Y69134D02*
X35866Y68583D01*
X35315Y71206D02*
X36039Y71929D01*
X35315Y69134D02*
Y71206D01*
X39094Y68189D02*
X59528D01*
X38486Y68797D02*
X39094Y68189D01*
X74803Y53858D02*
X75807D01*
X82096Y51644D02*
X82863Y52410D01*
X83945D01*
X38240Y93752D02*
X50421D01*
X36767Y92279D02*
X38240Y93752D01*
X37126Y94016D02*
X54921D01*
X55607Y93330D01*
X36767Y91209D02*
Y92279D01*
X50421Y93752D02*
X53465Y90709D01*
X52756Y86877D02*
Y88740D01*
X52795Y88780D01*
X49843Y86457D02*
X50630Y85669D01*
X52913D02*
X53465Y86220D01*
X51488Y87205D02*
Y87597D01*
X53465Y86220D02*
Y90709D01*
X52628Y86654D02*
Y86749D01*
X52756Y86877D01*
X50630Y85669D02*
X52913D01*
X51339Y87746D02*
X51488Y87597D01*
X54646Y85876D02*
Y86959D01*
X64429Y65571D02*
Y65571D01*
X25338Y67341D02*
X62659D01*
X64429Y65571D01*
Y65571D02*
X65394Y64606D01*
X70551D01*
X71181Y65236D02*
Y67227D01*
X70551Y64606D02*
X71181Y65236D01*
X69849Y65134D02*
X70463Y65748D01*
X70692Y67717D02*
X71181Y67227D01*
X65915Y65134D02*
X69849D01*
X59969Y67874D02*
X60690Y68595D01*
X33780Y69882D02*
X35787Y67874D01*
X21654Y69016D02*
X22520Y69882D01*
X23150Y69409D02*
X33701D01*
X21654Y68150D02*
Y69016D01*
X23780Y68899D02*
X25338Y67341D01*
X35512Y67598D02*
X63451D01*
X33701Y69409D02*
X35512Y67598D01*
X63451D02*
X65915Y65134D01*
X39439Y69535D02*
Y69722D01*
X38486Y68797D02*
Y69675D01*
X35787Y67874D02*
X59969D01*
X35767Y90709D02*
X35787Y90688D01*
Y90118D02*
Y90688D01*
Y90118D02*
X36339Y89567D01*
X49843Y86457D02*
Y86762D01*
X49803Y86801D02*
X49843Y86762D01*
X21575Y93622D02*
X21614Y93583D01*
X21575Y93622D02*
Y93858D01*
X21614Y93583D02*
X21634Y93602D01*
X22402D01*
X22402Y93602D01*
X21417Y94016D02*
X21575Y93858D01*
X20532Y93622D02*
X20551D01*
X20945Y94016D01*
X21417D01*
X20687Y92648D02*
Y93486D01*
X20551Y93622D02*
X20687Y93486D01*
X27687Y92648D02*
X29055Y94016D01*
X37126D01*
X35267Y91209D02*
Y92157D01*
X37126Y94016D01*
X55607Y86457D02*
Y93330D01*
X81033Y54213D02*
X81063Y54183D01*
Y53691D02*
Y54183D01*
Y53691D02*
X81093Y53661D01*
X5829Y71600D02*
X6746D01*
X6859Y72100D02*
X7109Y71850D01*
X7205D01*
X5829Y72600D02*
X5867Y72639D01*
X7166D01*
X7205Y72677D01*
X35866Y68583D02*
X36561D01*
X36939Y68960D02*
Y69722D01*
X36561Y68583D02*
X36939Y68960D01*
X36039Y71929D02*
X36791D01*
X38016Y71344D02*
X38031Y71328D01*
X37397Y71344D02*
X38016D01*
X37382Y71359D02*
X37397Y71344D01*
X37756Y70787D02*
Y70795D01*
X37992Y71031D01*
Y71289D01*
X38031Y71328D01*
X37439Y69722D02*
Y70272D01*
X37717Y70549D01*
Y70748D01*
X37756Y70787D01*
X38939Y69722D02*
Y70585D01*
X39213Y70858D01*
Y70866D01*
X39311Y71870D02*
X39331Y71890D01*
X38642Y71870D02*
X39311D01*
X39350Y71405D02*
X39370Y71385D01*
X39350Y71405D02*
Y71870D01*
X39331Y71890D02*
X39350Y71870D01*
X38622Y70787D02*
Y71850D01*
X38571Y71806D02*
X38578D01*
X37977Y70142D02*
X38622Y70787D01*
X37939Y69722D02*
X37977Y69761D01*
Y70142D01*
X38439Y69722D02*
X38486Y69675D01*
X78053Y81358D02*
X79176Y80235D01*
X79479D01*
X79547Y80167D01*
X77053Y81358D02*
X77139D01*
X78871Y79626D01*
X78957D01*
X83642Y79872D02*
X85069D01*
X84232Y80413D02*
X85915Y82096D01*
X82185Y80148D02*
X82189D01*
X82454Y80413D01*
X84232D01*
X86526Y81329D02*
Y82500D01*
X85069Y79872D02*
X86526Y81329D01*
X86142Y82884D02*
Y82923D01*
Y82884D02*
X86526Y82500D01*
X85571Y84242D02*
X86968Y82844D01*
X41020Y51795D02*
X41024Y51791D01*
X40240Y51795D02*
X41020D01*
X40236Y51798D02*
X40240Y51795D01*
X39338Y53472D02*
X39970D01*
X39173Y53307D02*
X39338Y53472D01*
X25236Y52625D02*
X25918Y53307D01*
X39173D01*
X24616Y52657D02*
X24632Y52641D01*
X25220D01*
X25236Y52625D01*
X24301Y50913D02*
Y51890D01*
X24616Y52205D01*
Y52224D01*
X63366Y50982D02*
Y52561D01*
X63406Y52600D01*
X63297Y50913D02*
X63366Y50982D01*
X63967Y50913D02*
Y52008D01*
X63907Y52047D02*
X63927D01*
X63967Y52008D01*
X65295Y84547D02*
X65600Y84242D01*
X65295Y86129D02*
X65791Y86624D01*
X65295Y84547D02*
Y86129D01*
X65791Y86624D02*
X67323D01*
X67343Y86644D01*
X79596Y56772D02*
X81250D01*
X79028Y56203D02*
X79596Y56772D01*
X79028Y54102D02*
Y56203D01*
Y53720D02*
Y54102D01*
Y51614D02*
Y53720D01*
X80581Y54213D02*
X80600D01*
X80089Y53720D02*
X80581Y54213D01*
X79028Y53720D02*
X80089D01*
X78337Y54478D02*
Y54498D01*
X78376Y54537D01*
X78563D01*
X78711Y54390D02*
X78740D01*
X78563Y54537D02*
X78711Y54390D01*
X78740D02*
X79028Y54102D01*
X74035Y53514D02*
Y53888D01*
Y53514D02*
X74222Y53327D01*
Y53238D02*
Y53327D01*
X77788Y52904D02*
X77884D01*
X77621Y52736D02*
X77788Y52904D01*
X75108Y52736D02*
X77621D01*
X75098Y52726D02*
X75108Y52736D01*
X72717Y53494D02*
X73484Y52726D01*
X75098D01*
Y51968D02*
Y52726D01*
Y51968D02*
X75138Y51929D01*
X63540Y85548D02*
X63976Y85984D01*
X55591Y85886D02*
X55599Y85894D01*
Y86448D01*
X55607Y86457D01*
X61978Y86004D02*
X61998D01*
X61939Y86043D02*
X61978Y86004D01*
X61939Y86043D02*
Y86213D01*
X61604Y86548D02*
X61939Y86213D01*
X61604Y86548D02*
Y86575D01*
X67362Y86063D02*
X67382Y86043D01*
X67362Y86063D02*
Y86624D01*
X67343Y86644D02*
X67362Y86624D01*
X67296Y65983D02*
X67363Y65915D01*
X67991Y85700D02*
X68193Y85498D01*
X68727D02*
X69222Y85994D01*
X68193Y85498D02*
X68727D01*
X67991Y85700D02*
Y86064D01*
X62904Y85797D02*
X63153Y85548D01*
X63540D01*
X62844Y86004D02*
X62864D01*
X62904Y85965D01*
Y85797D02*
Y85965D01*
X57490Y85492D02*
X57894Y85896D01*
X56909Y85492D02*
X57490D01*
X56693Y85906D02*
X56713D01*
X56752Y85866D01*
Y85650D02*
Y85866D01*
Y85650D02*
X56909Y85492D01*
X67664D02*
X67976Y85804D01*
X67274Y85492D02*
X67664D01*
X66944Y86048D02*
X66949Y86043D01*
X66304Y86048D02*
X66944D01*
X66299Y86053D02*
X66304Y86048D01*
X66949Y86043D02*
X66968D01*
X67008Y86004D01*
Y85758D02*
Y86004D01*
Y85758D02*
X67274Y85492D01*
X68424Y86064D02*
Y86802D01*
X68110Y87116D02*
X68424Y86802D01*
X68110Y87116D02*
Y87215D01*
X55033Y85636D02*
X55285Y85384D01*
X56079D01*
X55000Y85876D02*
X55033Y85843D01*
Y85636D02*
Y85843D01*
X56171Y85896D02*
X56683D01*
X56171Y85476D02*
Y85896D01*
X56079Y85384D02*
X56171Y85476D01*
X56683Y85896D02*
X56693Y85906D01*
X57126D02*
Y86721D01*
X56790Y87057D02*
X57126Y86721D01*
X56790Y87057D02*
Y87156D01*
X60472Y86041D02*
Y87156D01*
Y86041D02*
X60539Y85974D01*
X60541D01*
X63278Y86004D02*
Y86319D01*
X62756Y86841D02*
X63278Y86319D01*
X62657Y86841D02*
X62756D01*
X62441Y87057D02*
X62657Y86841D01*
X62441Y87057D02*
Y87156D01*
X61220Y85989D02*
X61550D01*
X60910D02*
X61220D01*
Y85689D02*
X61368Y85541D01*
X61220Y85689D02*
Y85989D01*
X61368Y85541D02*
X62362D01*
X62825Y86004D02*
X62844D01*
X62362Y85541D02*
X62825Y86004D01*
X61550Y85989D02*
X61565Y86004D01*
X60896Y85974D02*
X60910Y85989D01*
X73445Y54429D02*
X73455Y54439D01*
X72717Y53494D02*
Y54045D01*
X72638Y54124D02*
X72717Y54045D01*
X72598Y54124D02*
X72638D01*
X81683Y57263D02*
X81754Y57334D01*
X81774D01*
X81130D02*
X81754D01*
X81774D02*
X81781Y57342D01*
X81122Y57326D02*
X81130Y57334D01*
X79409Y54667D02*
Y55059D01*
Y54667D02*
X79616Y54460D01*
Y54411D02*
Y54460D01*
X77753Y54062D02*
X77756Y54065D01*
X77119Y54062D02*
X77753D01*
X77116Y54058D02*
X77119Y54062D01*
X76320Y54596D02*
X76359D01*
X76683Y54920D01*
Y55482D01*
X75571Y54695D02*
X75935Y55059D01*
Y55404D01*
X76014Y55482D01*
X74606Y54360D02*
X75118Y54872D01*
X73829Y54439D02*
X73991Y54277D01*
X74035Y54321D02*
Y54321D01*
X74075Y54360D01*
X74606D01*
X75807Y53858D02*
X75935Y53986D01*
X77756Y54065D02*
X77766Y54055D01*
X78327D01*
X78337Y54045D01*
X77598Y54675D02*
X77776Y54498D01*
X75098Y56063D02*
X75118Y56043D01*
Y54872D02*
Y56043D01*
X82639Y57746D02*
X83087D01*
X83307Y57308D02*
X83307D01*
X83259Y57355D02*
X83307Y57308D01*
X83259Y57355D02*
Y57573D01*
X83087Y57746D02*
X83259Y57573D01*
X82215Y57342D02*
X82234D01*
X82639Y57746D01*
X81683Y56772D02*
Y57263D01*
X73060Y43720D02*
Y44470D01*
X73012Y44518D02*
X73060Y44470D01*
X83536Y56693D02*
Y57081D01*
X83309Y57308D02*
X83536Y57081D01*
X83307Y57308D02*
X83309D01*
X79409Y55059D02*
Y55807D01*
X80039Y55059D02*
X80787D01*
X80748Y55768D02*
X80787Y55728D01*
X80079Y55768D02*
X80748D01*
X80039Y55807D02*
X80079Y55768D01*
X83132Y55758D02*
X83162Y55787D01*
X82037Y55758D02*
X83132D01*
X82008Y55728D02*
X82037Y55758D01*
X83142Y55039D02*
X83162Y55020D01*
X82028Y55039D02*
X83142D01*
X82008Y55059D02*
X82028Y55039D01*
X81658Y54218D02*
X81663Y54222D01*
X81038Y54218D02*
X81658D01*
X81033Y54213D02*
X81038Y54218D01*
X82224Y54114D02*
X82788D01*
X82116Y54222D02*
X82224Y54114D01*
X82096Y54222D02*
X82116D01*
X83496Y53742D02*
Y54075D01*
X83248Y53494D02*
X83250D01*
X83297Y53541D01*
Y53543D01*
X83496Y53742D01*
Y54075D02*
X83536Y54114D01*
X82894Y53494D02*
Y53929D01*
X82788Y54035D02*
X82894Y53929D01*
X82788Y54035D02*
Y54114D01*
X73455Y54439D02*
X73829D01*
X74252Y55472D02*
Y55551D01*
Y55472D02*
X74439Y55285D01*
Y54910D02*
Y55285D01*
X74066Y54891D02*
X74085Y54910D01*
X73474Y54891D02*
X74066D01*
X73455Y54872D02*
X73474Y54891D01*
X73465Y55512D02*
X73504Y55551D01*
X73465Y55256D02*
Y55512D01*
X73455Y55246D02*
X73465Y55256D01*
X73455Y54872D02*
Y55246D01*
X72776Y56457D02*
X73878D01*
X72598Y56280D02*
X72776Y56457D01*
X72598Y56250D02*
Y56280D01*
Y54754D02*
Y55502D01*
X78180Y55403D02*
Y55807D01*
X77955Y55177D02*
X78180Y55403D01*
X77953Y55177D02*
X77955D01*
X75935Y53986D02*
X76319D01*
X76693Y56713D02*
X77806D01*
X76683Y56703D02*
X76693Y56713D01*
X76683Y55482D02*
X76683Y55482D01*
X77598Y54675D02*
Y55177D01*
Y55562D01*
X77432Y55728D02*
X77598Y55562D01*
X77432Y55728D02*
Y55807D01*
X73690Y42731D02*
Y43720D01*
X73091Y42132D02*
X73690Y42731D01*
X73026Y43754D02*
X73060Y43720D01*
X74912Y40629D02*
X75714D01*
X76103Y40240D01*
X74587Y40955D02*
X74912Y40629D01*
X76103Y39548D02*
Y40240D01*
Y39548D02*
X76492Y39159D01*
X84971Y39104D02*
Y39892D01*
X26978Y50913D02*
Y50913D01*
X78651Y36226D02*
X78679D01*
X78551Y36127D02*
X78651Y36226D01*
X78551Y36098D02*
Y36127D01*
X73120Y30667D02*
X78551Y36098D01*
X73120Y30167D02*
Y30667D01*
X78679Y36226D02*
Y36435D01*
X36939Y69722D02*
Y70641D01*
X36871Y70709D02*
X36939Y70641D01*
X36240Y70709D02*
X36871D01*
X76492Y39159D02*
X77000D01*
X81979Y18474D02*
X82805D01*
X85482Y21152D02*
Y28173D01*
X82805Y18474D02*
X85482Y21152D01*
X36220Y70989D02*
Y71260D01*
Y70989D02*
X36240Y70970D01*
Y70709D02*
Y70970D01*
D16*
X50284Y87484D02*
Y87746D01*
D21*
X40430Y70744D02*
D03*
X40076D02*
D03*
X21260Y93583D02*
D03*
X21614D02*
D03*
X37402Y70787D02*
D03*
X37756D02*
D03*
X35866Y71260D02*
D03*
X36220D02*
D03*
X39567Y70866D02*
D03*
X39213D02*
D03*
X39724Y71385D02*
D03*
X39370D02*
D03*
D22*
X62293Y54395D02*
D03*
X62982D02*
D03*
D23*
X75591Y54596D02*
D03*
Y53967D02*
D03*
X76320Y54596D02*
D03*
Y53967D02*
D03*
X72598Y54124D02*
D03*
Y54754D02*
D03*
D24*
X56790Y92785D02*
D03*
Y87156D02*
D03*
X54821Y92785D02*
D03*
Y87156D02*
D03*
X62441Y92785D02*
D03*
Y87156D02*
D03*
X60472Y92785D02*
D03*
Y87156D02*
D03*
X68110Y92844D02*
D03*
Y87215D02*
D03*
X66142Y92844D02*
D03*
Y87215D02*
D03*
D25*
X73878Y56457D02*
D03*
X73504Y55551D02*
D03*
X74252D02*
D03*
X77806Y56713D02*
D03*
X77432Y55807D02*
D03*
X78180D02*
D03*
X83162Y55020D02*
D03*
X82788Y54114D02*
D03*
X83536D02*
D03*
X83162Y55787D02*
D03*
X83536Y56693D02*
D03*
X82788D02*
D03*
D26*
X74035Y53888D02*
D03*
Y54321D02*
D03*
X38031Y71328D02*
D03*
Y71762D02*
D03*
X77756Y54498D02*
D03*
Y54065D02*
D03*
X78337Y54478D02*
D03*
Y54045D02*
D03*
X73455Y54439D02*
D03*
Y54872D02*
D03*
X24616Y52224D02*
D03*
Y52657D02*
D03*
D27*
X85236Y49921D02*
D03*
X86016D02*
D03*
X79904Y45749D02*
D03*
X79124D02*
D03*
X43748Y48268D02*
D03*
X44528D02*
D03*
X63102Y48278D02*
D03*
X62323D02*
D03*
X26102Y48268D02*
D03*
X25323D02*
D03*
D28*
X84488Y50837D02*
D03*
X83740D02*
D03*
X73760Y44518D02*
D03*
X73012D02*
D03*
D29*
X85679Y50866D02*
D03*
X86309D02*
D03*
X79823Y46594D02*
D03*
X79193D02*
D03*
X50433Y86801D02*
D03*
X49803D02*
D03*
X79409Y55807D02*
D03*
X80039D02*
D03*
X79409Y55059D02*
D03*
X80039D02*
D03*
X73690Y43720D02*
D03*
X73060D02*
D03*
D30*
X78130Y45726D02*
D03*
Y46474D02*
D03*
X72598Y55502D02*
D03*
Y56250D02*
D03*
X84971Y39892D02*
D03*
Y40640D02*
D03*
D31*
X75079Y38183D02*
D03*
Y38813D02*
D03*
D32*
X82411Y40236D02*
D03*
Y38504D02*
D03*
D33*
X86230Y41821D02*
D03*
X85128D02*
D03*
D34*
X85925Y40896D02*
D03*
Y40266D02*
D03*
D35*
X85267Y29931D02*
D03*
Y28199D02*
D03*
D36*
X85965Y37530D02*
D03*
Y36427D02*
D03*
X75246Y43179D02*
D03*
Y42077D02*
D03*
X76319Y39419D02*
D03*
Y38317D02*
D03*
X83841Y39548D02*
D03*
Y38445D02*
D03*
X75235Y41234D02*
D03*
Y40132D02*
D03*
D37*
X84990Y38337D02*
D03*
Y39085D02*
D03*
D38*
X78130Y14577D02*
D03*
X74783D02*
D03*
D39*
X10470Y70846D02*
D03*
Y72854D02*
D03*
D40*
X5829Y73600D02*
D03*
Y73100D02*
D03*
Y72600D02*
D03*
Y72100D02*
D03*
Y71600D02*
D03*
Y71100D02*
D03*
Y70600D02*
D03*
Y70100D02*
D03*
D41*
X51122Y91644D02*
D03*
X50374D02*
D03*
X49665Y92234D02*
D03*
X48917D02*
D03*
D42*
X49705Y91526D02*
D03*
X49272D02*
D03*
X36791Y71929D02*
D03*
X37224D02*
D03*
X63474Y52047D02*
D03*
X63907D02*
D03*
X48799Y86841D02*
D03*
X49232D02*
D03*
X49272Y90856D02*
D03*
X48839D02*
D03*
X82096Y54222D02*
D03*
X81663D02*
D03*
X81781Y57342D02*
D03*
X82215D02*
D03*
X81250Y56772D02*
D03*
X81683D02*
D03*
X80600Y54213D02*
D03*
X81033D02*
D03*
X68424Y86064D02*
D03*
X67991D02*
D03*
X67382Y86043D02*
D03*
X66949D02*
D03*
X63278Y86004D02*
D03*
X62844D02*
D03*
X61998Y86004D02*
D03*
X61565D02*
D03*
X55591Y85886D02*
D03*
X56024D02*
D03*
X57126Y85906D02*
D03*
X56693D02*
D03*
X22854Y93622D02*
D03*
X22421D02*
D03*
X20532Y93622D02*
D03*
X20098D02*
D03*
X36949Y71359D02*
D03*
X37382D02*
D03*
X35807Y70709D02*
D03*
X36240D02*
D03*
X41457Y51791D02*
D03*
X41024D02*
D03*
X63406Y52600D02*
D03*
X63839D02*
D03*
D43*
X65945Y86053D02*
D03*
X66299D02*
D03*
X54646Y85876D02*
D03*
X55000D02*
D03*
X60541Y85974D02*
D03*
X60896D02*
D03*
X77953Y55177D02*
D03*
X77598D02*
D03*
X83248Y53494D02*
D03*
X82894D02*
D03*
X82953Y57308D02*
D03*
X83307D02*
D03*
X74439Y54910D02*
D03*
X74085D02*
D03*
X39685Y71890D02*
D03*
X39331D02*
D03*
D44*
X36439Y69722D02*
D03*
X36939D02*
D03*
X37439D02*
D03*
X37939D02*
D03*
X38439D02*
D03*
X38939D02*
D03*
X39439D02*
D03*
X39939D02*
D03*
D45*
X39193Y65081D02*
D03*
X37185D02*
D03*
D46*
X79028Y51614D02*
D03*
D47*
X79933Y49134D02*
D03*
X79028D02*
D03*
X78122D02*
D03*
D48*
X40433Y28032D02*
D03*
X22717D02*
D03*
Y35433D02*
D03*
X40433D02*
D03*
X22717Y17441D02*
D03*
X40433D02*
D03*
D49*
X76056Y41313D02*
D03*
X76686D02*
D03*
D50*
X51339Y88100D02*
D03*
Y87746D02*
D03*
X50906D02*
D03*
Y88100D02*
D03*
X50905Y88691D02*
D03*
Y89045D02*
D03*
D51*
X50257Y87719D02*
D03*
X49757D02*
D03*
X49257D02*
D03*
X48757D02*
D03*
Y89855D02*
D03*
X49257D02*
D03*
X49757D02*
D03*
X50257D02*
D03*
D52*
X80787Y55059D02*
D03*
Y55728D02*
D03*
X82008Y55059D02*
D03*
Y55728D02*
D03*
D53*
X76683Y55482D02*
D03*
X76014D02*
D03*
X76683Y56703D02*
D03*
X76014D02*
D03*
D54*
X77136Y50929D02*
D03*
Y50291D02*
D03*
D55*
X79856Y47972D02*
D03*
X79219D02*
D03*
D56*
X81061Y38276D02*
D03*
Y39055D02*
D03*
D57*
X72660Y31188D02*
D03*
Y29456D02*
D03*
Y26732D02*
D03*
Y25000D02*
D03*
D58*
X46906Y87589D02*
D03*
X45693D02*
D03*
X46906Y89124D02*
D03*
X45693D02*
D03*
D59*
X45984Y91063D02*
D03*
X45236D02*
D03*
X45610Y90197D02*
D03*
D60*
X46618Y92177D02*
D03*
X44685D02*
D03*
D61*
X79557Y11211D02*
D03*
Y9518D02*
D03*
X72861Y10059D02*
D03*
Y11752D02*
D03*
D136*
X84843Y72126D02*
X86447D01*
X84806Y72089D02*
X84843Y72126D01*
X70079Y82384D02*
Y84094D01*
X70053Y82358D02*
X70079Y82384D01*
Y84094D02*
X70108Y84124D01*
X70591Y51909D02*
X71270Y51230D01*
X69085Y51909D02*
X70591D01*
X68839Y52156D02*
X69085Y51909D01*
X68839Y52156D02*
Y52854D01*
X67267Y54426D02*
X68839Y52854D01*
X66962Y54426D02*
X67267D01*
X71270Y46348D02*
Y51230D01*
X66939Y54449D02*
X66962Y54426D01*
X69596Y54613D02*
X70312Y53898D01*
Y53317D02*
Y53898D01*
Y53317D02*
X70335Y53295D01*
X64646Y48279D02*
X66920D01*
X80748Y52913D02*
X83386D01*
X80059D02*
X80748D01*
X59360Y64134D02*
X83819D01*
X85630Y62323D01*
Y55157D02*
Y62323D01*
X64114Y57215D02*
X64892Y56437D01*
Y54528D02*
Y56437D01*
X69724Y55817D02*
Y55849D01*
X69166Y56407D02*
X69724Y55849D01*
X69166Y56407D02*
Y56847D01*
X69144Y56870D02*
X69166Y56847D01*
X55974Y60955D02*
X58278Y58652D01*
X63425Y55551D02*
X63780Y55197D01*
X61329Y55551D02*
X63425D01*
X51565Y60955D02*
X55974D01*
X69616Y44695D02*
X71270Y46348D01*
X66909Y44695D02*
X69616D01*
X65955Y43740D02*
X66909Y44695D01*
X65955Y20778D02*
Y43740D01*
Y20778D02*
X72156Y14577D01*
X61949Y22106D02*
Y33081D01*
Y22106D02*
X71024Y13032D01*
X33632Y68091D02*
X33858Y68317D01*
X25531Y68091D02*
X33632D01*
X41220Y68622D02*
X57352D01*
X40010Y69606D02*
Y69652D01*
Y69606D02*
X40236D01*
X41220Y68622D01*
X57352D02*
X58110Y69380D01*
X38701Y89567D02*
X46732Y81535D01*
X55780D02*
X56542Y80774D01*
X46732Y81535D02*
X55780D01*
X36339Y89567D02*
X38701D01*
X83386Y52913D02*
X85630Y55157D01*
X59360Y62904D02*
Y64134D01*
X59055Y62598D02*
X59360Y62904D01*
X59055Y56641D02*
Y62598D01*
X61273Y54423D02*
X61468D01*
X59055Y56641D02*
X61273Y54423D01*
X46693Y92525D02*
Y92541D01*
X43976Y89685D02*
X44488Y90197D01*
X45581D01*
X49173Y88770D02*
X49205D01*
X49353Y88622D01*
X54821Y86399D02*
Y87156D01*
X43976Y88425D02*
Y89685D01*
X43646Y88094D02*
X43976Y88425D01*
X42992Y88094D02*
X43646D01*
X42874Y87976D02*
X42992Y88094D01*
X33504Y89567D02*
X36339D01*
X31457Y91614D02*
X33504Y89567D01*
X26024Y91614D02*
X31457D01*
X25687Y92648D02*
X25736Y92599D01*
Y91902D02*
Y92599D01*
Y91902D02*
X26024Y91614D01*
X37756Y92283D02*
X38228D01*
X42756Y88094D02*
X42874Y87976D01*
X42417Y88094D02*
X42756D01*
X38228Y92283D02*
X42417Y88094D01*
X49353Y88622D02*
X50089D01*
X63104Y48279D02*
X64646D01*
X63102Y48278D02*
X63104Y48279D01*
X66920D02*
X66921Y48280D01*
X62322Y48279D02*
X62323Y48278D01*
X58336Y48279D02*
X62322D01*
X58335Y48280D02*
X58336Y48279D01*
X73690Y43720D02*
X74458D01*
X74478Y43740D01*
X73730Y44518D02*
X73760D01*
X73720Y44528D02*
X73730Y44518D01*
X73720Y44528D02*
Y44978D01*
X73573Y45126D02*
X73720Y44978D01*
X73573Y45126D02*
Y45157D01*
X72156Y14577D02*
X74783D01*
X71024Y11542D02*
Y13032D01*
X72507Y10059D02*
X72861D01*
X71024Y11542D02*
X72507Y10059D01*
X61024Y61329D02*
X61053Y61358D01*
X61024Y60157D02*
Y61329D01*
X63287Y57894D02*
X65423D01*
X61024Y60157D02*
X63287Y57894D01*
X65423D02*
X69072D01*
X69122Y57844D01*
X69154D01*
X79823Y47063D02*
X81010D01*
X81329Y47382D02*
Y52323D01*
X81010Y47063D02*
X81329Y47382D01*
X80748Y52904D02*
X81329Y52323D01*
X61053Y61358D02*
Y62358D01*
X82927Y44774D02*
X84927Y46774D01*
Y47774D01*
X60053Y61358D02*
Y62358D01*
X85878Y37530D02*
X85965D01*
X85756Y37652D02*
X85878Y37530D01*
X85756Y37652D02*
Y37738D01*
X85695Y37800D02*
X85756Y37738D01*
X85695Y37800D02*
Y38337D01*
X71978Y45919D02*
X73169Y47110D01*
X71978Y38413D02*
Y45919D01*
X72209Y38183D02*
X75079D01*
X71978Y38413D02*
X72209Y38183D01*
X79856Y47972D02*
Y48061D01*
X79933Y48138D01*
Y49134D01*
X79823Y46594D02*
Y47063D01*
X79852Y47093D01*
Y47969D01*
X79856Y47972D01*
X76319Y38317D02*
X78078D01*
X78802Y39041D01*
X56790Y87156D02*
Y92785D01*
X54821Y87156D02*
Y92785D01*
X62441Y87156D02*
Y92785D01*
X60472Y87156D02*
Y92785D01*
X68110Y87215D02*
Y92844D01*
X66142Y87215D02*
Y89915D01*
Y92844D01*
X85695Y38337D02*
X85925Y38567D01*
X84990Y38337D02*
X85695D01*
X85925Y38567D02*
Y40266D01*
X84786Y38337D02*
X84990D01*
X79904Y45749D02*
Y46514D01*
X79823Y46594D02*
X79904Y46514D01*
X79009Y46594D02*
X79193D01*
X78927Y46513D02*
X79009Y46594D01*
X78140Y46513D02*
X78927D01*
X78130Y46503D02*
X78140Y46513D01*
X78130Y46474D02*
Y46503D01*
X78140Y45749D02*
X79124D01*
X78130Y45739D02*
X78140Y45749D01*
X78130Y45726D02*
Y45739D01*
X78975Y43327D02*
Y45557D01*
X79124Y45706D01*
Y45749D01*
X79948Y43353D02*
X79975Y43327D01*
X79948Y43353D02*
Y45704D01*
X79904Y45749D02*
X79948Y45704D01*
X84148Y50051D02*
X85150D01*
X83780Y50419D02*
Y50827D01*
Y50419D02*
X84148Y50051D01*
X85236Y49878D02*
Y49965D01*
X85150Y50051D02*
X85236Y49965D01*
X83770Y50837D02*
X83780Y50827D01*
X83740Y50837D02*
X83770D01*
X84927Y47774D02*
Y49569D01*
X85236Y49878D01*
X85927Y47774D02*
X85950Y47797D01*
Y49855D01*
X86016Y49921D01*
X86230Y41821D02*
Y44439D01*
X85927Y44743D02*
X86230Y44439D01*
X85927Y44743D02*
Y44774D01*
X85925Y40896D02*
X86108Y41079D01*
Y41699D01*
X86230Y41821D01*
X75825Y41955D02*
X77152D01*
X75368D02*
X75825D01*
X77948Y43300D02*
X77975Y43327D01*
X77948Y42752D02*
Y43300D01*
X77152Y41955D02*
X77948Y42752D01*
X75825Y41955D02*
X76056Y41724D01*
X75246Y42077D02*
X75368Y41955D01*
X76056Y41313D02*
Y41724D01*
X76686Y41313D02*
X77734Y40265D01*
Y40109D02*
Y40265D01*
Y40109D02*
X78802Y39041D01*
X82636Y38337D02*
X83841D01*
X84767Y38317D02*
X84786Y38337D01*
X84056Y38317D02*
X84767D01*
X83928Y38445D02*
X84056Y38317D01*
X83841Y38445D02*
X83928D01*
X73091Y40132D02*
X75201D01*
X75079Y40010D02*
X75201Y40132D01*
X75079Y38813D02*
Y40010D01*
Y38183D02*
X75311D01*
X75323Y38195D01*
X76197D01*
X76319Y38317D01*
X82608Y38308D02*
X82636Y38337D01*
X79368Y38475D02*
X81510D01*
X81540Y38504D02*
X82411D01*
X81510Y38475D02*
X81540Y38504D01*
X78802Y39041D02*
X79368Y38475D01*
X82679Y36226D02*
X82708D01*
X82608Y36507D02*
X82679Y36435D01*
X82608Y36507D02*
Y38308D01*
X82411Y38504D02*
X82608Y38308D01*
X82807Y36098D02*
X85079Y33826D01*
X85226Y29931D02*
X85267D01*
X85079Y30079D02*
X85226Y29931D01*
X85079Y30079D02*
Y33826D01*
X72660Y31188D02*
Y34416D01*
X74679Y36435D01*
X73707Y29456D02*
X74272Y28891D01*
Y26612D02*
Y28891D01*
X72660Y29456D02*
X73707D01*
X72935Y25276D02*
X74272Y26612D01*
X72935Y25276D02*
Y25276D01*
X72660Y25000D02*
X72935Y25276D01*
X72660Y22498D02*
Y25000D01*
Y22498D02*
X75128Y20030D01*
X78085D01*
X79679Y18435D01*
X79751Y17907D02*
X83022Y14636D01*
X79751Y17907D02*
Y18363D01*
X79679Y18435D02*
X79751Y18363D01*
X84006Y14636D02*
Y16108D01*
X81679Y18435D02*
X84006Y16108D01*
X84969Y12085D02*
Y13673D01*
X84006Y14636D02*
X84969Y13673D01*
X79911Y9518D02*
X81673Y7756D01*
X83608D02*
X84937Y9085D01*
X81673Y7756D02*
X83608D01*
X79557Y9518D02*
X79911D01*
X84937Y9085D02*
X84969D01*
X79203Y9518D02*
X79557D01*
X77717Y8031D02*
X79203Y9518D01*
X74549Y9116D02*
X75634Y8031D01*
X77717D01*
X72861Y10059D02*
X76606D01*
X77549Y9116D01*
X47327Y92234D02*
X48917D01*
X16299Y9213D02*
X16339Y9173D01*
X46906Y87315D02*
Y87589D01*
Y87315D02*
X47498Y86722D01*
X47992D01*
X82708Y36226D02*
X82807Y36127D01*
Y36098D02*
Y36127D01*
X82679Y36226D02*
Y36435D01*
D137*
X39796Y70933D02*
X39892Y71029D01*
X39567Y70866D02*
Y70874D01*
X40260Y71029D02*
X40353Y70936D01*
X40183Y70382D02*
X40353Y70552D01*
Y70936D01*
X39892Y71029D02*
X40260D01*
X39939Y69722D02*
Y70213D01*
X40109Y70382D01*
X40183D01*
X39626Y70933D02*
X39796D01*
X39567Y70874D02*
X39626Y70933D01*
X39910Y69694D02*
X39939Y69722D01*
X39910Y68572D02*
Y69694D01*
X39882Y68543D02*
X39910Y68572D01*
X39705Y71405D02*
X39724Y71385D01*
X39705Y71405D02*
Y71870D01*
X39685Y71890D02*
X39705Y71870D01*
X39567Y70866D02*
Y70874D01*
X39724Y71032D01*
Y71385D01*
X36439Y69722D02*
Y69909D01*
X35886Y70463D02*
X36439Y69909D01*
X35886Y70463D02*
Y70650D01*
X35827Y70709D02*
X35886Y70650D01*
X35807Y70709D02*
X35827D01*
X36929Y71359D02*
X36949D01*
X36753Y71535D02*
X36929Y71359D01*
X36732Y71535D02*
X36753D01*
X36036Y71545D02*
X36723D01*
X36732Y71535D01*
X35866Y71260D02*
X35925Y71319D01*
Y71434D01*
X36036Y71545D01*
X35807Y70709D02*
Y71193D01*
X35866Y71252D01*
Y71260D01*
X37402Y70787D02*
Y70795D01*
X37028Y71169D02*
X37402Y70795D01*
X37028Y71169D02*
Y71300D01*
X36969Y71359D02*
X37028Y71300D01*
X36949Y71359D02*
X36969D01*
X5799Y73071D02*
X5829Y73100D01*
X48778Y86862D02*
X48799Y86841D01*
X48778Y86862D02*
Y87698D01*
X48757Y87719D02*
X48778Y87698D01*
X81833Y18329D02*
X81979Y18474D01*
D138*
X40433Y27087D02*
X40935D01*
X41339Y26683D01*
X75610Y12116D02*
X77549Y14055D01*
X77953D01*
X78130Y14232D01*
Y14577D01*
X74211Y11752D02*
X74562Y12103D01*
X74549Y12116D02*
X75610D01*
X78287Y11211D02*
X79567D01*
X77475Y12023D02*
X78287Y11211D01*
X80750Y11211D02*
X81804Y12265D01*
X20904Y8706D02*
X21187D01*
X79557Y11211D02*
X80750D01*
X72861Y11752D02*
X74211D01*
D139*
X53425Y82047D02*
X53701Y82323D01*
X55669D01*
X47165Y82047D02*
X53425D01*
X39134Y90079D02*
X47165Y82047D01*
X36614Y90079D02*
X39134D01*
X36267Y90709D02*
X36297Y90679D01*
Y90396D02*
Y90679D01*
Y90396D02*
X36614Y90079D01*
X21615Y92576D02*
X21687Y92648D01*
X21615Y92088D02*
Y92576D01*
X21260Y91732D02*
X21615Y92088D01*
X20000Y91732D02*
X21260D01*
X19687Y92648D02*
X19759Y92576D01*
Y91974D02*
Y92576D01*
Y91974D02*
X20000Y91732D01*
X20098Y93160D02*
Y93622D01*
X19687Y92749D02*
X20098Y93160D01*
X19687Y92648D02*
Y92749D01*
X21687Y92648D02*
Y92749D01*
X33767Y90709D02*
Y91209D01*
X34267Y90709D02*
Y91209D01*
X35767Y90709D02*
Y91209D01*
X36267Y90709D02*
Y91209D01*
X36767Y90709D02*
Y91209D01*
X35267Y90709D02*
Y91209D01*
X14291Y9213D02*
X16299D01*
X49272Y90856D02*
Y91526D01*
X49257Y89855D02*
Y90842D01*
X49272Y90856D01*
X16339Y10177D02*
Y11063D01*
D140*
X42874Y90817D02*
X44234Y92177D01*
X44685D01*
X42874Y89976D02*
Y90817D01*
X46646Y92149D02*
X46654Y92157D01*
X46815Y92195D02*
Y92323D01*
X46906Y87589D02*
Y89124D01*
X46882Y89148D02*
X46906Y89124D01*
X46618Y92177D02*
X46646Y92149D01*
X46122Y91063D02*
Y91502D01*
X46815Y92195D01*
D141*
X55696Y20374D02*
X57892Y18178D01*
X45846Y20374D02*
X55696D01*
X45000Y19528D02*
X45846Y20374D01*
X57892Y8706D02*
Y18178D01*
X14291Y9213D02*
X14291Y9213D01*
X10236Y9213D02*
X14291D01*
X2362Y14520D02*
X7669Y9213D01*
X10236D01*
X42520Y19528D02*
X45000D01*
X40433Y17441D02*
X42520Y19528D01*
D142*
X36767Y91209D02*
D03*
X36267D02*
D03*
X35767D02*
D03*
X35267D02*
D03*
X34767D02*
D03*
X34267D02*
D03*
X33767D02*
D03*
X33267D02*
D03*
X36767Y90709D02*
D03*
X36267D02*
D03*
X35767D02*
D03*
X35267D02*
D03*
X34767D02*
D03*
X34267D02*
D03*
X33767D02*
D03*
X33267D02*
D03*
X78802Y40419D02*
D03*
X83022Y14636D02*
D03*
D143*
X58335Y48280D02*
D03*
X66921D02*
D03*
X39841D02*
D03*
X48427D02*
D03*
X21346D02*
D03*
X29933D02*
D03*
D144*
X57892Y8706D02*
D03*
X67364D02*
D03*
X39398D02*
D03*
X48870D02*
D03*
X20904D02*
D03*
X30376D02*
D03*
D145*
X68484Y40679D02*
D03*
Y23504D02*
D03*
X56772Y40679D02*
D03*
Y23504D02*
D03*
X49990Y40679D02*
D03*
Y23504D02*
D03*
X38278Y40679D02*
D03*
Y23504D02*
D03*
X31496Y40679D02*
D03*
Y23504D02*
D03*
X19783Y40679D02*
D03*
Y23504D02*
D03*
D146*
X61289Y50913D02*
D03*
X63297D02*
D03*
X61959D02*
D03*
X62628D02*
D03*
X63967D02*
D03*
X42795D02*
D03*
X44803D02*
D03*
X43465D02*
D03*
X44134D02*
D03*
X45472D02*
D03*
X24301D02*
D03*
X26309D02*
D03*
X24970D02*
D03*
X25640D02*
D03*
X26978D02*
D03*
D147*
X18204Y85877D02*
D03*
X38524Y75207D02*
D03*
D148*
X48701Y83386D02*
D03*
D149*
X50669D02*
D03*
D150*
X84806Y75089D02*
D03*
X83806D02*
D03*
X84806Y78089D02*
D03*
X83806D02*
D03*
X84806Y77089D02*
D03*
X83806D02*
D03*
X84806Y76089D02*
D03*
X83806D02*
D03*
Y74089D02*
D03*
X84806D02*
D03*
X83806Y71089D02*
D03*
X84806D02*
D03*
X83806Y72089D02*
D03*
X84806D02*
D03*
X83806Y73089D02*
D03*
X84806D02*
D03*
X85305Y52244D02*
D03*
X86305D02*
D03*
X73169Y48110D02*
D03*
Y47110D02*
D03*
D151*
X66089Y78325D02*
D03*
Y70852D02*
D03*
D152*
X72053Y81358D02*
D03*
X60053Y62358D02*
D03*
X61053Y61358D02*
D03*
Y62358D02*
D03*
X62053Y61358D02*
D03*
Y62358D02*
D03*
X63053Y61358D02*
D03*
Y62358D02*
D03*
X64053Y61358D02*
D03*
Y62358D02*
D03*
X65053Y61358D02*
D03*
Y62358D02*
D03*
X66053Y61358D02*
D03*
Y62358D02*
D03*
X67053Y61358D02*
D03*
Y62358D02*
D03*
X68053Y61358D02*
D03*
Y62358D02*
D03*
X69053Y61358D02*
D03*
Y62358D02*
D03*
X70053Y61358D02*
D03*
Y62358D02*
D03*
X71053Y61358D02*
D03*
Y62358D02*
D03*
X72053Y61358D02*
D03*
Y62358D02*
D03*
X73053Y61358D02*
D03*
Y62358D02*
D03*
X74053Y61358D02*
D03*
Y62358D02*
D03*
X75053Y61358D02*
D03*
Y62358D02*
D03*
X76053Y61358D02*
D03*
Y62358D02*
D03*
X77053Y61358D02*
D03*
Y62358D02*
D03*
X78053Y61358D02*
D03*
Y62358D02*
D03*
X79053Y61358D02*
D03*
Y62358D02*
D03*
X80053Y61358D02*
D03*
Y62358D02*
D03*
X81053Y61358D02*
D03*
Y62358D02*
D03*
X82053Y61358D02*
D03*
Y62358D02*
D03*
X83053Y61358D02*
D03*
Y62358D02*
D03*
X84053Y61358D02*
D03*
Y62358D02*
D03*
Y82358D02*
D03*
Y81358D02*
D03*
X83053Y82358D02*
D03*
Y81358D02*
D03*
X82053Y82358D02*
D03*
Y81358D02*
D03*
X81053Y82358D02*
D03*
Y81358D02*
D03*
X80053Y82358D02*
D03*
Y81358D02*
D03*
X79053Y82358D02*
D03*
Y81358D02*
D03*
X78053Y82358D02*
D03*
Y81358D02*
D03*
X77053Y82358D02*
D03*
Y81358D02*
D03*
X76053Y82358D02*
D03*
Y81358D02*
D03*
X75053Y82358D02*
D03*
Y81358D02*
D03*
X74053Y82358D02*
D03*
Y81358D02*
D03*
X73053Y82358D02*
D03*
Y81358D02*
D03*
X72053Y82358D02*
D03*
X71053D02*
D03*
Y81358D02*
D03*
X70053Y82358D02*
D03*
Y81358D02*
D03*
X69053Y82358D02*
D03*
Y81358D02*
D03*
X68053Y82358D02*
D03*
Y81358D02*
D03*
X67053Y82358D02*
D03*
Y81358D02*
D03*
X66053Y82358D02*
D03*
Y81358D02*
D03*
X65053Y82358D02*
D03*
Y81358D02*
D03*
X64053Y82358D02*
D03*
Y81358D02*
D03*
X63053Y82358D02*
D03*
Y81358D02*
D03*
X62053Y82358D02*
D03*
Y81358D02*
D03*
X61053Y82358D02*
D03*
Y81358D02*
D03*
X60053Y82358D02*
D03*
D153*
X79975Y43327D02*
D03*
X78975D02*
D03*
X77975D02*
D03*
X76975D02*
D03*
X73091Y42132D02*
D03*
Y41132D02*
D03*
Y40132D02*
D03*
Y39132D02*
D03*
D154*
X81679Y18435D02*
D03*
X79679D02*
D03*
X75679D02*
D03*
X82679Y36435D02*
D03*
X78679D02*
D03*
X74679D02*
D03*
X2362Y18268D02*
D03*
Y14520D02*
D03*
D155*
X78802Y39041D02*
D03*
D156*
X82927Y44774D02*
D03*
D157*
X85927D02*
D03*
Y47774D02*
D03*
X84927D02*
D03*
X83927D02*
D03*
X84969Y9085D02*
D03*
Y12085D02*
D03*
X81968D02*
D03*
Y9085D02*
D03*
X74549Y12116D02*
D03*
Y9116D02*
D03*
X77549D02*
D03*
Y12116D02*
D03*
X86093Y70305D02*
D03*
X85128Y69311D02*
D03*
X83681Y66663D02*
D03*
X84518Y65778D02*
D03*
X22027Y52966D02*
D03*
X20748Y53750D02*
D03*
X19144Y51811D02*
D03*
X19468Y55069D02*
D03*
X18937Y61132D02*
D03*
X22726Y58661D02*
D03*
X20171Y66047D02*
D03*
X21407Y66004D02*
D03*
X21900Y63780D02*
D03*
X22028Y62667D02*
D03*
X20167Y58376D02*
D03*
X21161Y52392D02*
D03*
X19390Y53465D02*
D03*
X21486Y54577D02*
D03*
X21739Y56473D02*
D03*
X19923Y56680D02*
D03*
X19098Y56968D02*
D03*
X21285Y58825D02*
D03*
X19882Y59857D02*
D03*
X22067Y60886D02*
D03*
X20256Y62254D02*
D03*
X19016Y63406D02*
D03*
X20413Y64478D02*
D03*
X22234Y64764D02*
D03*
X16142Y86614D02*
D03*
X18366Y88179D02*
D03*
X1231Y88105D02*
D03*
X1713Y85403D02*
D03*
X6525Y86365D02*
D03*
X6083Y87992D02*
D03*
X5079Y88888D02*
D03*
X2825Y91398D02*
D03*
X1496Y90679D02*
D03*
X2823Y93213D02*
D03*
X1528Y92325D02*
D03*
X4154Y93287D02*
D03*
X5817Y92884D02*
D03*
X3860Y91362D02*
D03*
X6080Y90622D02*
D03*
X7006Y92140D02*
D03*
Y93028D02*
D03*
X9264Y93176D02*
D03*
X10596Y91695D02*
D03*
X11781Y87476D02*
D03*
X7746Y88549D02*
D03*
X8375Y87254D02*
D03*
X8709Y86069D02*
D03*
X10596Y85995D02*
D03*
X12595Y85810D02*
D03*
X14113Y86365D02*
D03*
X13483Y87957D02*
D03*
X12410Y89326D02*
D03*
X11744Y91177D02*
D03*
X11263Y92621D02*
D03*
X12595Y93176D02*
D03*
X14520Y93065D02*
D03*
X16004Y91988D02*
D03*
X26447Y89720D02*
D03*
X28278Y89754D02*
D03*
X31061Y89079D02*
D03*
X39429Y86909D02*
D03*
X42234Y84823D02*
D03*
X40319Y85076D02*
D03*
X38578Y85748D02*
D03*
X38120Y87490D02*
D03*
X36191Y85049D02*
D03*
X36654Y86240D02*
D03*
X34754Y87854D02*
D03*
X32254Y87638D02*
D03*
X33533Y86545D02*
D03*
X34605Y85443D02*
D03*
X33327Y85020D02*
D03*
X30965Y85866D02*
D03*
X30541Y87156D02*
D03*
X28652Y87766D02*
D03*
X26875Y88162D02*
D03*
X27303Y86516D02*
D03*
X28740Y85748D02*
D03*
X29439Y84675D02*
D03*
X27028Y84892D02*
D03*
X25807Y86053D02*
D03*
X25404Y87520D02*
D03*
X25039Y89016D02*
D03*
X24459Y90453D02*
D03*
X23056Y88651D02*
D03*
X23425Y86722D02*
D03*
X23484Y85285D02*
D03*
X20797Y85532D02*
D03*
X21437Y87185D02*
D03*
X19665Y88317D02*
D03*
X21102Y89508D02*
D03*
X18720Y90089D02*
D03*
X19902Y71201D02*
D03*
X15472Y73720D02*
D03*
X6024Y82756D02*
D03*
X5256Y80138D02*
D03*
X1358Y78652D02*
D03*
X1645Y71477D02*
D03*
X2963Y71880D02*
D03*
X1683Y72805D02*
D03*
X2904Y74409D02*
D03*
X1496Y75049D02*
D03*
X3957Y76673D02*
D03*
X2047Y77510D02*
D03*
X63179Y69833D02*
D03*
X63356Y68986D02*
D03*
X69196Y53537D02*
D03*
X69596Y54613D02*
D03*
X70335Y53295D02*
D03*
X27431Y93445D02*
D03*
X64114Y57215D02*
D03*
X64892Y54528D02*
D03*
X69724Y55817D02*
D03*
X73809Y58346D02*
D03*
X69144Y56870D02*
D03*
X57392Y57835D02*
D03*
X58169Y57589D02*
D03*
X66939Y54449D02*
D03*
X61329Y55551D02*
D03*
X58258Y58642D02*
D03*
X67963Y52448D02*
D03*
X72313Y49675D02*
D03*
X64636Y49035D02*
D03*
X64675Y47589D02*
D03*
X64951Y46906D02*
D03*
X65463Y46423D02*
D03*
X66191Y46039D02*
D03*
X67087Y45961D02*
D03*
X67884Y46010D02*
D03*
X68465Y46423D02*
D03*
X68937Y46925D02*
D03*
X69232Y47585D02*
D03*
X69301Y48293D02*
D03*
X69282Y48943D02*
D03*
X68937Y49543D02*
D03*
X68514Y50075D02*
D03*
X67933Y50429D02*
D03*
X66978Y50656D02*
D03*
X66181Y50498D02*
D03*
X65512Y50193D02*
D03*
X65000Y49799D02*
D03*
X64646Y48337D02*
D03*
X68976Y50528D02*
D03*
X69449Y50006D02*
D03*
X69596Y47024D02*
D03*
X69252Y46305D02*
D03*
X64468Y46541D02*
D03*
X64961Y45990D02*
D03*
X46063Y49016D02*
D03*
X46102Y47569D02*
D03*
X46378Y46886D02*
D03*
X46890Y46404D02*
D03*
X47618Y46020D02*
D03*
X48514Y45941D02*
D03*
X49311Y45990D02*
D03*
X49892Y46404D02*
D03*
X50364Y46906D02*
D03*
X50659Y47565D02*
D03*
X50728Y48274D02*
D03*
X50709Y48923D02*
D03*
X50364Y49524D02*
D03*
X49941Y50055D02*
D03*
X49360Y50409D02*
D03*
X48406Y50636D02*
D03*
X47608Y50478D02*
D03*
X46939Y50173D02*
D03*
X46427Y49780D02*
D03*
X46073Y48317D02*
D03*
X50404Y50508D02*
D03*
X50876Y49986D02*
D03*
X51024Y47004D02*
D03*
X50679Y46285D02*
D03*
X45896Y46522D02*
D03*
X46388Y45970D02*
D03*
X27904Y45961D02*
D03*
X27411Y46512D02*
D03*
X32195Y46276D02*
D03*
X32539Y46994D02*
D03*
X32392Y49976D02*
D03*
X31919Y50498D02*
D03*
X27589Y48307D02*
D03*
X27943Y49770D02*
D03*
X28455Y50163D02*
D03*
X29124Y50469D02*
D03*
X29921Y50626D02*
D03*
X30876Y50400D02*
D03*
X31457Y50045D02*
D03*
X31880Y49514D02*
D03*
X32224Y48913D02*
D03*
X32244Y48264D02*
D03*
X32175Y47555D02*
D03*
X31880Y46896D02*
D03*
X31407Y46394D02*
D03*
X30827Y45980D02*
D03*
X30030Y45931D02*
D03*
X29134Y46010D02*
D03*
X28406Y46394D02*
D03*
X27894Y46876D02*
D03*
X27618Y47559D02*
D03*
X27579Y49006D02*
D03*
X18986Y48539D02*
D03*
X18996Y47752D02*
D03*
X18976Y49366D02*
D03*
X19567Y49996D02*
D03*
X20276Y50429D02*
D03*
X21299Y50636D02*
D03*
X22392Y50400D02*
D03*
X23051Y49927D02*
D03*
X23533Y49366D02*
D03*
X23671Y48520D02*
D03*
X23691Y47762D02*
D03*
X23376Y47102D02*
D03*
X22943Y46610D02*
D03*
X22441Y46236D02*
D03*
X21447Y45941D02*
D03*
X20443Y46148D02*
D03*
X19872Y46394D02*
D03*
X19301Y46748D02*
D03*
X19646Y50675D02*
D03*
X18996Y50291D02*
D03*
X18976Y46138D02*
D03*
X19587Y45911D02*
D03*
X23652Y46502D02*
D03*
X23130Y45970D02*
D03*
X55984Y48549D02*
D03*
X55994Y47762D02*
D03*
X55974Y49376D02*
D03*
X56565Y50006D02*
D03*
X57274Y50439D02*
D03*
X58297Y50646D02*
D03*
X59390Y50409D02*
D03*
X60049Y49937D02*
D03*
X60532Y49376D02*
D03*
X60669Y48530D02*
D03*
X60689Y47772D02*
D03*
X60374Y47112D02*
D03*
X59941Y46620D02*
D03*
X59439Y46246D02*
D03*
X58445Y45951D02*
D03*
X57441Y46157D02*
D03*
X56870Y46404D02*
D03*
X56299Y46758D02*
D03*
X56644Y50685D02*
D03*
X55994Y50301D02*
D03*
X55974Y46148D02*
D03*
X56585Y45921D02*
D03*
X60650Y46512D02*
D03*
X60128Y45980D02*
D03*
X41624Y45990D02*
D03*
X42146Y46522D02*
D03*
X38081Y45931D02*
D03*
X37470Y46157D02*
D03*
X37490Y50311D02*
D03*
X38140Y50695D02*
D03*
X37795Y46768D02*
D03*
X38366Y46413D02*
D03*
X38937Y46167D02*
D03*
X39941Y45961D02*
D03*
X40935Y46256D02*
D03*
X41437Y46630D02*
D03*
X41870Y47122D02*
D03*
X42185Y47782D02*
D03*
X42165Y48539D02*
D03*
X42028Y49386D02*
D03*
X41545Y49947D02*
D03*
X40886Y50419D02*
D03*
X39793Y50656D02*
D03*
X38770Y50449D02*
D03*
X38061Y50016D02*
D03*
X37470Y49386D02*
D03*
X37490Y47772D02*
D03*
X37480Y48559D02*
D03*
X61949Y33081D02*
D03*
X49604Y71727D02*
D03*
X48167Y71776D02*
D03*
X50972Y63873D02*
D03*
X48991Y63578D02*
D03*
X49819Y64273D02*
D03*
X49367Y65310D02*
D03*
X48245Y64749D02*
D03*
X47921Y63528D02*
D03*
X45568Y63715D02*
D03*
X46586Y64273D02*
D03*
X47045Y65123D02*
D03*
X45785Y65743D02*
D03*
X47387Y66410D02*
D03*
X48403Y66461D02*
D03*
X49741D02*
D03*
X50863Y65103D02*
D03*
X51070Y66491D02*
D03*
X51159Y71589D02*
D03*
X52117Y64112D02*
D03*
X52143Y65260D02*
D03*
Y66461D02*
D03*
X52117Y69884D02*
D03*
X51101Y69937D02*
D03*
X49899Y69857D02*
D03*
X48806Y69808D02*
D03*
X47359Y69906D02*
D03*
X46188Y69995D02*
D03*
X46316Y71136D02*
D03*
X47438Y71087D02*
D03*
X48885Y71117D02*
D03*
X50381Y71087D02*
D03*
X52064D02*
D03*
X52084Y78509D02*
D03*
X51011Y78459D02*
D03*
X52054Y79965D02*
D03*
X50982Y79946D02*
D03*
X33846Y68292D02*
D03*
X25531Y68091D02*
D03*
X8029Y71034D02*
D03*
X58819Y53504D02*
D03*
X59685D02*
D03*
X7913Y70236D02*
D03*
X6772Y73819D02*
D03*
X37756Y68622D02*
D03*
X40610Y71594D02*
D03*
X35866Y69764D02*
D03*
X55669Y82323D02*
D03*
X85205Y85548D02*
D03*
X81742Y85797D02*
D03*
X74734D02*
D03*
X83906Y87451D02*
D03*
X80523Y87330D02*
D03*
X74774Y87411D02*
D03*
X69183Y87608D02*
D03*
X66063Y85433D02*
D03*
X64695Y87766D02*
D03*
X58474Y87884D02*
D03*
X59459Y86033D02*
D03*
X68140Y69370D02*
D03*
X82274Y58819D02*
D03*
X60137Y65738D02*
D03*
X59360Y64134D02*
D03*
X38780Y93110D02*
D03*
X49173Y88770D02*
D03*
X52795Y88780D02*
D03*
X51488Y87205D02*
D03*
X51132Y86181D02*
D03*
X52628Y86654D02*
D03*
X51801Y86220D02*
D03*
X51526Y90197D02*
D03*
X50984Y90669D02*
D03*
X63543Y65039D02*
D03*
X70463Y65748D02*
D03*
X70692Y67717D02*
D03*
X23150Y69409D02*
D03*
X21654Y68150D02*
D03*
X47894Y92626D02*
D03*
X37756Y92283D02*
D03*
X66289Y58926D02*
D03*
X81368Y41457D02*
D03*
X83415Y42087D02*
D03*
X86422Y34868D02*
D03*
X85069Y36063D02*
D03*
X80502Y23543D02*
D03*
X83730Y26142D02*
D03*
X72282Y26709D02*
D03*
X72037Y19606D02*
D03*
X84006Y30748D02*
D03*
X71762Y32913D02*
D03*
X79242Y32047D02*
D03*
X82982Y21457D02*
D03*
X75856Y22874D02*
D03*
X80069Y27087D02*
D03*
X75935Y29252D02*
D03*
X75030Y58150D02*
D03*
X72392Y59606D02*
D03*
X79951Y59724D02*
D03*
X81486Y59646D02*
D03*
X82825D02*
D03*
X84045Y59606D02*
D03*
X80817Y58858D02*
D03*
X79321Y58898D02*
D03*
X81093Y53661D02*
D03*
X71457Y52717D02*
D03*
X63770Y55197D02*
D03*
X61535Y54355D02*
D03*
X74478Y43740D02*
D03*
X73573Y45157D02*
D03*
X38622Y71850D02*
D03*
X23780Y68899D02*
D03*
X7205Y72677D02*
D03*
Y71850D02*
D03*
X16102Y30728D02*
D03*
X17126D02*
D03*
X18150D02*
D03*
X15138D02*
D03*
X10787D02*
D03*
X11811D02*
D03*
X12835D02*
D03*
X9823D02*
D03*
X5236Y30689D02*
D03*
X6260D02*
D03*
X7283D02*
D03*
X4272D02*
D03*
X14370Y27874D02*
D03*
Y26831D02*
D03*
X13287Y27835D02*
D03*
Y26811D02*
D03*
Y25787D02*
D03*
X14370Y25807D02*
D03*
Y28819D02*
D03*
X13287Y28799D02*
D03*
X15472Y28819D02*
D03*
Y25807D02*
D03*
Y26831D02*
D03*
Y27874D02*
D03*
X16575Y28819D02*
D03*
Y25807D02*
D03*
Y26831D02*
D03*
Y27874D02*
D03*
X9921Y27913D02*
D03*
Y26870D02*
D03*
Y25846D02*
D03*
Y28858D02*
D03*
X8819Y27913D02*
D03*
Y26870D02*
D03*
Y25846D02*
D03*
Y28858D02*
D03*
X6634Y28839D02*
D03*
X7717Y28858D02*
D03*
Y25846D02*
D03*
X6634Y25827D02*
D03*
Y26850D02*
D03*
Y27874D02*
D03*
X7717Y26870D02*
D03*
Y27913D02*
D03*
X83642Y79872D02*
D03*
X85915Y82096D02*
D03*
X86142Y82923D02*
D03*
X82185Y80148D02*
D03*
X78957Y79626D02*
D03*
X79547Y80167D02*
D03*
X65289Y53252D02*
D03*
X80285Y50354D02*
D03*
X77116Y46181D02*
D03*
X72155Y51309D02*
D03*
X78366Y47589D02*
D03*
X76929Y48337D02*
D03*
X75630Y50148D02*
D03*
X24749Y53567D02*
D03*
X43132Y53508D02*
D03*
X40236Y51798D02*
D03*
X39970Y53472D02*
D03*
X61102Y51789D02*
D03*
X42362Y52192D02*
D03*
X76801Y40108D02*
D03*
X77697Y51811D02*
D03*
X82096Y51644D02*
D03*
X77037Y51624D02*
D03*
X74222Y53238D02*
D03*
X75138Y51929D02*
D03*
X63976Y85984D02*
D03*
X67343Y86644D02*
D03*
X61604Y86575D02*
D03*
X55607Y86457D02*
D03*
X69738Y79849D02*
D03*
X60725Y79179D02*
D03*
X56542Y80774D02*
D03*
X56819Y76660D02*
D03*
X58110Y69380D02*
D03*
X81407Y65541D02*
D03*
X76260Y64803D02*
D03*
X74429Y67480D02*
D03*
X77874Y68799D02*
D03*
X78917Y65069D02*
D03*
X79331Y67116D02*
D03*
X75955Y70886D02*
D03*
X74242Y71457D02*
D03*
X72146Y75000D02*
D03*
X70571Y76821D02*
D03*
X71310Y73563D02*
D03*
X62067Y74094D02*
D03*
X60286Y76660D02*
D03*
X58091Y73307D02*
D03*
X62894Y63110D02*
D03*
X69154Y57844D02*
D03*
X65423Y57894D02*
D03*
X67363Y65915D02*
D03*
X60690Y68595D02*
D03*
X57894Y85896D02*
D03*
X69222Y85994D02*
D03*
X81122Y57326D02*
D03*
X79616Y54411D02*
D03*
X77116Y54058D02*
D03*
X74803Y53858D02*
D03*
X75098Y56063D02*
D03*
X80059Y52913D02*
D03*
X77884Y52904D02*
D03*
X11496Y79449D02*
D03*
X4616Y78612D02*
D03*
X6713Y79892D02*
D03*
X7539Y82677D02*
D03*
X19006Y72520D02*
D03*
X10709Y74183D02*
D03*
X14793Y76004D02*
D03*
X13957Y74331D02*
D03*
X16713Y74094D02*
D03*
X10659Y77953D02*
D03*
X9144Y76407D02*
D03*
X6132Y77451D02*
D03*
X9055Y80984D02*
D03*
X8435Y78524D02*
D03*
X13150Y77717D02*
D03*
X12116Y76093D02*
D03*
X65630Y9744D02*
D03*
Y8957D02*
D03*
Y8169D02*
D03*
Y7411D02*
D03*
X69173Y9843D02*
D03*
Y9055D02*
D03*
Y8268D02*
D03*
Y7480D02*
D03*
X68590Y10176D02*
D03*
X67803D02*
D03*
X67015D02*
D03*
X66228D02*
D03*
X66274Y7246D02*
D03*
X67061D02*
D03*
X67849D02*
D03*
X68636D02*
D03*
X47134Y9744D02*
D03*
Y8957D02*
D03*
Y8169D02*
D03*
Y7411D02*
D03*
X50678Y9843D02*
D03*
Y9055D02*
D03*
Y8268D02*
D03*
Y7480D02*
D03*
X50094Y10176D02*
D03*
X49307D02*
D03*
X48519D02*
D03*
X47732D02*
D03*
X47778Y7246D02*
D03*
X48566D02*
D03*
X49353D02*
D03*
X50140D02*
D03*
X31648D02*
D03*
X30860D02*
D03*
X30073D02*
D03*
X29286D02*
D03*
X29240Y10176D02*
D03*
X30027D02*
D03*
X30814D02*
D03*
X31602D02*
D03*
X32185Y7480D02*
D03*
Y8268D02*
D03*
Y9055D02*
D03*
Y9843D02*
D03*
X28642Y7411D02*
D03*
Y8169D02*
D03*
Y8957D02*
D03*
Y9744D02*
D03*
X47894Y91447D02*
D03*
X47992Y89855D02*
D03*
Y88510D02*
D03*
Y86722D02*
D03*
D158*
X60053Y61358D02*
D03*
Y81358D02*
D03*
D159*
X84006Y14636D02*
D03*
D160*
X3189Y81929D02*
D03*
Y87008D02*
D03*
X3543Y36024D02*
D03*
X3150Y24094D02*
D03*
D161*
X15354Y5906D02*
D03*
X77068Y88583D02*
D03*
X71556D02*
D03*
X8564Y3937D02*
D03*
X14076D02*
D03*
X9863Y5906D02*
D03*
X73524Y3937D02*
D03*
X79036D02*
D03*
X77068Y5906D02*
D03*
X71556D02*
D03*
X8564Y90551D02*
D03*
X14076D02*
D03*
X10532Y88583D02*
D03*
X16044D02*
D03*
X73524Y90551D02*
D03*
X79036D02*
D03*
D162*
X42874Y89976D02*
D03*
Y88976D02*
D03*
D163*
Y87976D02*
D03*
D164*
X45000Y19528D02*
D03*
X47953Y17953D02*
D03*
X44843Y36378D02*
D03*
X47795Y34803D02*
D03*
Y26378D02*
D03*
X44843Y27953D02*
D03*
D165*
X16339Y10177D02*
D03*
D166*
Y9173D02*
D03*
D167*
Y8169D02*
D03*
X10236Y13150D02*
D03*
X12303Y18799D02*
D03*
D168*
X3819Y68163D02*
D03*
Y45778D02*
D03*
Y53240D02*
D03*
Y60701D02*
D03*
D169*
Y66014D02*
D03*
Y63864D02*
D03*
Y43628D02*
D03*
Y41478D02*
D03*
Y51090D02*
D03*
Y48940D02*
D03*
Y58552D02*
D03*
Y56402D02*
D03*
D170*
X10236Y9213D02*
D03*
D171*
X9519Y21583D02*
D03*
D172*
X27687Y92648D02*
D03*
X26687D02*
D03*
X25687D02*
D03*
X24687D02*
D03*
X23687D02*
D03*
X22687D02*
D03*
X21687D02*
D03*
X20687D02*
D03*
X19687D02*
D03*
D173*
X18687D02*
D03*
D174*
X80846Y34823D02*
D03*
M02*
