G04*
G04 #@! TF.GenerationSoftware,Altium Limited,Altium Designer,20.2.4 (192)*
G04*
G04 Layer_Color=16711935*
%FSLAX24Y24*%
%MOIN*%
G70*
G04*
G04 #@! TF.SameCoordinates,B9BB7F2B-B7AC-4897-A438-396A0F5AD448*
G04*
G04*
G04 #@! TF.FilePolarity,Positive*
G04*
G01*
G75*
%ADD10C,0.0079*%
%ADD13C,0.0039*%
%ADD16C,0.0100*%
D10*
X37108Y90368D02*
Y91549D01*
X32927D02*
X37108D01*
X32927Y90368D02*
Y91549D01*
Y90368D02*
X37108D01*
X76205Y42457D02*
Y44858D01*
Y42457D02*
X80744D01*
Y44858D01*
X76205D02*
X80744D01*
X73679Y17435D02*
X83679D01*
X73679D02*
Y37435D01*
X83679D01*
Y17435D02*
Y37435D01*
X71559Y38362D02*
X73961D01*
Y42901D01*
X71559D02*
X73961D01*
X71559Y38362D02*
Y42901D01*
X43130Y20374D02*
X49823D01*
Y17106D02*
Y20374D01*
X43130Y17106D02*
X49823D01*
X43130D02*
Y20374D01*
X42972Y37224D02*
X49665D01*
Y33957D02*
Y37224D01*
X42972Y33957D02*
X49665D01*
X42972D02*
Y37224D01*
X78927Y9478D02*
X80187D01*
Y11250D01*
X78927D02*
X80187D01*
X78927Y9478D02*
Y11250D01*
X72231Y11791D02*
X73491D01*
X72231Y10020D02*
Y11791D01*
Y10020D02*
X73491D01*
Y11791D01*
X42972Y25531D02*
Y28799D01*
Y25531D02*
X49665D01*
Y28799D01*
X42972D02*
X49665D01*
X551Y12646D02*
X5472D01*
Y20142D01*
X551D02*
X5472D01*
X551Y12646D02*
Y20142D01*
D13*
X80376Y39730D02*
G03*
X80376Y39730I-1575J0D01*
G01*
X84754Y14636D02*
G03*
X84754Y14636I-1240J0D01*
G01*
X14567Y11181D02*
G03*
X14567Y11181I-4331J0D01*
G01*
X15242Y20191D02*
G03*
X15242Y20191I-4331J0D01*
G01*
X7067Y73209D02*
Y73406D01*
X6673Y73209D02*
X7067D01*
X6673D02*
Y73406D01*
X7067D01*
X7028Y70650D02*
X7224D01*
X7028D02*
Y71043D01*
X7224D01*
Y70650D02*
Y71043D01*
X40056Y70645D02*
Y70842D01*
Y70645D02*
X40450D01*
Y70842D01*
X40056D02*
X40450D01*
X34764Y92146D02*
Y92343D01*
X35157D01*
Y92146D02*
Y92343D01*
X34764Y92146D02*
X35157D01*
X66555Y58297D02*
X66949D01*
Y58494D01*
X66555D02*
X66949D01*
X66555Y58297D02*
Y58494D01*
X66016Y69370D02*
Y69764D01*
Y69370D02*
X66213D01*
Y69764D01*
X66016D02*
X66213D01*
X25810Y53258D02*
Y53455D01*
X25417Y53258D02*
X25810D01*
X25417D02*
Y53455D01*
X25810D01*
X26476Y53238D02*
X26870D01*
Y53435D01*
X26476D02*
X26870D01*
X26476Y53238D02*
Y53435D01*
X44331Y53189D02*
Y53386D01*
X43937Y53189D02*
X44331D01*
X43937D02*
Y53386D01*
X44331D01*
X45000Y53377D02*
X45394D01*
X45000Y53180D02*
Y53377D01*
Y53180D02*
X45394D01*
Y53377D01*
X60502Y53435D02*
X60699D01*
X60502D02*
Y53829D01*
X60699D01*
Y53435D02*
Y53829D01*
X70236Y67264D02*
Y67657D01*
X70039D02*
X70236D01*
X70039Y67264D02*
Y67657D01*
Y67264D02*
X70236D01*
X69470Y66220D02*
Y66614D01*
Y66220D02*
X69667D01*
Y66614D01*
X69470D02*
X69667D01*
X69470Y65276D02*
Y65669D01*
Y65276D02*
X69667D01*
Y65669D01*
X69470D02*
X69667D01*
X68387Y64941D02*
X68781D01*
X68387Y64744D02*
Y64941D01*
Y64744D02*
X68781D01*
Y64941D01*
X68387Y66713D02*
X68781D01*
Y66909D01*
X68387D02*
X68781D01*
X68387Y66713D02*
Y66909D01*
Y65472D02*
X68781D01*
X68387Y65276D02*
Y65472D01*
Y65276D02*
X68781D01*
Y65472D01*
X70226Y66220D02*
Y66614D01*
X70030D02*
X70226D01*
X70030Y66220D02*
Y66614D01*
Y66220D02*
X70226D01*
X66024Y64636D02*
Y65029D01*
X65827D02*
X66024D01*
X65827Y64636D02*
Y65029D01*
Y64636D02*
X66024D01*
X66909Y64488D02*
Y64685D01*
X66516Y64488D02*
X66909D01*
X66516D02*
Y64685D01*
X66909D01*
X64534Y63868D02*
X64908Y63494D01*
X64534D02*
Y64655D01*
X65052D01*
Y63494D02*
Y64655D01*
X64534Y63494D02*
X65052D01*
X68546Y59518D02*
X68920Y59144D01*
Y58356D02*
Y59518D01*
X68402Y58356D02*
X68920D01*
X68402D02*
Y59518D01*
X68920D01*
X64856Y59528D02*
X65230Y59154D01*
Y58366D02*
Y59528D01*
X64711Y58366D02*
X65230D01*
X64711D02*
Y59528D01*
X65230D01*
X63774Y57904D02*
Y58297D01*
Y57904D02*
X63971D01*
Y58297D01*
X63774D02*
X63971D01*
X62904Y58209D02*
X63297D01*
Y58406D01*
X62904D02*
X63297D01*
X62904Y58209D02*
Y58406D01*
X65935Y63405D02*
X66329D01*
Y63602D01*
X65935D02*
X66329D01*
X65935Y63405D02*
Y63602D01*
X64006Y59006D02*
Y59400D01*
X63809D02*
X64006D01*
X63809Y59006D02*
Y59400D01*
Y59006D02*
X64006D01*
X67579Y59075D02*
Y59468D01*
X67382D02*
X67579D01*
X67382Y59075D02*
Y59468D01*
Y59075D02*
X67579D01*
X67461Y58386D02*
X67657D01*
Y57992D02*
Y58386D01*
X67461Y57992D02*
X67657D01*
X67461D02*
Y58386D01*
X61635Y68012D02*
Y68405D01*
Y68012D02*
X61832D01*
Y68405D01*
X61635D02*
X61832D01*
X61123Y68012D02*
Y68405D01*
Y68012D02*
X61320D01*
Y68405D01*
X61123D02*
X61320D01*
X62501Y68888D02*
X62895D01*
Y69085D01*
X62501D02*
X62895D01*
X62501Y68888D02*
Y69085D01*
X62521Y67501D02*
X62914D01*
X62521Y67304D02*
Y67501D01*
Y67304D02*
X62914D01*
Y67501D01*
X63830Y67500D02*
Y67894D01*
X63633D02*
X63830D01*
X63633Y67500D02*
Y67894D01*
Y67500D02*
X63830D01*
X64705Y66977D02*
Y67371D01*
Y66977D02*
X64902D01*
Y67371D01*
X64705D02*
X64902D01*
X65659Y69350D02*
Y69744D01*
X65463D02*
X65659D01*
X65463Y69350D02*
Y69744D01*
Y69350D02*
X65659D01*
X67136Y66790D02*
Y67184D01*
Y66790D02*
X67333D01*
Y67184D01*
X67136D02*
X67333D01*
X64341Y68079D02*
X64734D01*
X64341Y67882D02*
Y68079D01*
Y67882D02*
X64734D01*
Y68079D01*
X66742Y69852D02*
X67136D01*
X66742Y69656D02*
Y69852D01*
Y69656D02*
X67136D01*
Y69852D01*
X65669Y68799D02*
X66063D01*
X65669Y68602D02*
Y68799D01*
Y68602D02*
X66063D01*
Y68799D01*
X63691Y70223D02*
X64085D01*
X63691Y70026D02*
Y70223D01*
Y70026D02*
X64085D01*
Y70223D01*
X64341Y68617D02*
X64734D01*
X64341Y68420D02*
Y68617D01*
Y68420D02*
X64734D01*
Y68617D01*
X65423Y67026D02*
Y67420D01*
X65226D02*
X65423D01*
X65226Y67026D02*
Y67420D01*
Y67026D02*
X65423D01*
X66043Y66534D02*
X66437D01*
Y66731D01*
X66043D02*
X66437D01*
X66043Y66534D02*
Y66731D01*
X75758Y53976D02*
Y54587D01*
X75423Y53976D02*
X75758D01*
X75423D02*
Y54587D01*
X75758D01*
X76487Y53976D02*
Y54587D01*
X76153Y53976D02*
X76487D01*
X76153D02*
Y54587D01*
X76487D01*
X74567Y39626D02*
Y40886D01*
X73937D02*
X74567D01*
X73937Y39626D02*
Y40886D01*
Y39626D02*
X74567D01*
X79331Y41299D02*
Y42559D01*
X78701D02*
X79331D01*
X78701Y41299D02*
Y42559D01*
Y41299D02*
X79331D01*
X58168Y87608D02*
Y92333D01*
X53443Y87608D02*
X58168D01*
X53443D02*
Y92333D01*
X58168D01*
X63819Y87608D02*
Y92333D01*
X59094Y87608D02*
X63819D01*
X59094D02*
Y92333D01*
X63819D01*
X69488Y87667D02*
Y92392D01*
X64764Y87667D02*
X69488D01*
X64764D02*
Y92392D01*
X69488D01*
X73307Y56112D02*
X73681Y55738D01*
X73307D02*
X74449D01*
X73307D02*
Y56270D01*
X74449D01*
Y55738D02*
Y56270D01*
X73937Y54301D02*
X74134D01*
X73937Y53907D02*
Y54301D01*
Y53907D02*
X74134D01*
Y54301D01*
X86093Y49675D02*
Y50167D01*
X85301D02*
X86093D01*
X85301Y49675D02*
Y50167D01*
Y49675D02*
X86093D01*
X83720Y50876D02*
X83927Y51083D01*
X83720Y50591D02*
X84508D01*
Y51083D01*
X83720Y50591D02*
Y51083D01*
X84508D01*
X85689Y51033D02*
X86299D01*
Y50699D02*
Y51033D01*
X85689Y50699D02*
X86299D01*
X85689D02*
Y51033D01*
X79203Y46427D02*
Y46762D01*
Y46427D02*
X79813D01*
Y46762D01*
X79203D02*
X79813D01*
X77884Y45706D02*
Y46493D01*
X78376D01*
Y45706D02*
Y46493D01*
X77884Y45706D02*
X78376D01*
X77884Y45913D02*
X78091Y45706D01*
X79189Y45503D02*
X79980D01*
X79189D02*
Y45995D01*
X79980D01*
Y45503D02*
Y45995D01*
X81699Y38730D02*
X82122Y38307D01*
X81699D02*
X83124D01*
Y40433D01*
X81699D02*
X83124D01*
X81699Y38307D02*
Y40433D01*
X85049Y41506D02*
X86309D01*
X85049D02*
Y42136D01*
X86309D01*
Y41506D02*
Y42136D01*
X85768Y40266D02*
X86083D01*
Y40896D01*
X85768D02*
X86083D01*
X85768Y40266D02*
Y40896D01*
X84873Y28179D02*
X85661D01*
Y29951D01*
X84873D02*
X85661D01*
X84873Y28179D02*
Y29951D01*
X86280Y36348D02*
Y37608D01*
X85650Y36348D02*
X86280D01*
X85650D02*
Y37608D01*
X86280D01*
X81671Y43519D02*
Y49030D01*
X87183D01*
Y43519D02*
Y49030D01*
X81671Y43519D02*
X87183D01*
X71939Y41362D02*
Y42154D01*
Y41362D02*
X72431D01*
Y42154D01*
X71939D02*
X72431D01*
X84744Y39104D02*
X85236D01*
X84744Y38317D02*
Y39104D01*
Y38317D02*
X85236D01*
Y39104D01*
X81598Y8715D02*
Y12455D01*
X85339D01*
Y8715D02*
Y12455D01*
X81598Y8715D02*
X85339D01*
X43671Y48514D02*
X44463D01*
Y48022D02*
Y48514D01*
X43671Y48022D02*
X44463D01*
X43671D02*
Y48514D01*
X77919Y8746D02*
Y12486D01*
X74179Y8746D02*
X77919D01*
X74179D02*
Y12486D01*
X77919D01*
X50354Y91398D02*
Y91890D01*
Y91398D02*
X51142D01*
Y91890D01*
X50354D02*
X51142D01*
X49291Y91427D02*
Y91624D01*
Y91427D02*
X49685D01*
Y91624D01*
X49291D02*
X49685D01*
X66319Y85955D02*
Y86152D01*
X65925D02*
X66319D01*
X65925Y85955D02*
Y86152D01*
Y85955D02*
X66319D01*
X55020Y85778D02*
Y85974D01*
X54626D02*
X55020D01*
X54626Y85778D02*
Y85974D01*
Y85778D02*
X55020D01*
X60915Y85876D02*
Y86073D01*
X60522D02*
X60915D01*
X60522Y85876D02*
Y86073D01*
Y85876D02*
X60915D01*
X37933Y71742D02*
X38130D01*
X37933Y71348D02*
Y71742D01*
Y71348D02*
X38130D01*
Y71742D01*
X37205Y71831D02*
Y72028D01*
X36811D02*
X37205D01*
X36811Y71831D02*
Y72028D01*
Y71831D02*
X37205D01*
X77748Y50591D02*
X78654Y49685D01*
X77748D02*
X80307D01*
Y51063D01*
X77748D02*
X80307D01*
X77748Y49685D02*
Y51063D01*
X15130Y7098D02*
Y11248D01*
Y7098D02*
X16980D01*
Y11248D01*
X15130D02*
X16980D01*
X15130Y10746D02*
X15632Y11248D01*
X4075Y16594D02*
Y18563D01*
Y16594D02*
X5059D01*
Y18563D01*
X4075D02*
X5059D01*
X4075Y13602D02*
Y15571D01*
Y13602D02*
X5059D01*
Y15571D01*
X4075D02*
X5059D01*
X2624Y62890D02*
Y69138D01*
Y62890D02*
X4715D01*
Y69138D01*
X2624D02*
X4715D01*
X2624Y68063D02*
X3699Y69138D01*
X2624Y40504D02*
Y46752D01*
Y40504D02*
X4715D01*
Y46752D01*
X2624D02*
X4715D01*
X2624Y45677D02*
X3699Y46752D01*
X2624Y47966D02*
Y54214D01*
Y47966D02*
X4715D01*
Y54214D01*
X2624D02*
X4715D01*
X2624Y53139D02*
X3699Y54214D01*
X2624Y55428D02*
Y61676D01*
Y55428D02*
X4715D01*
Y61676D01*
X2624D02*
X4715D01*
X2624Y60601D02*
X3699Y61676D01*
X21634Y93484D02*
Y93681D01*
X21240D02*
X21634D01*
X21240Y93484D02*
Y93681D01*
Y93484D02*
X21634D01*
X77236Y56368D02*
X77610Y55994D01*
X77236D02*
X78377D01*
X77236D02*
Y56526D01*
X78377D01*
Y55994D02*
Y56526D01*
X72638Y56270D02*
X72844Y56063D01*
X72352Y56270D02*
X72844D01*
X72352Y55482D02*
Y56270D01*
Y55482D02*
X72844D01*
Y56270D01*
X72431Y54744D02*
X72766D01*
X72431Y54134D02*
Y54744D01*
Y54134D02*
X72766D01*
Y54744D01*
X77579Y55079D02*
Y55276D01*
Y55079D02*
X77972D01*
Y55276D01*
X77579D02*
X77972D01*
X63888Y51949D02*
Y52146D01*
X63494D02*
X63888D01*
X63494Y51949D02*
Y52146D01*
Y51949D02*
X63888D01*
X51240Y87726D02*
X51437D01*
Y88120D01*
X51240D02*
X51437D01*
X51240Y87726D02*
Y88120D01*
X49972Y89555D02*
X50472Y89055D01*
X48542Y89555D02*
X50472D01*
X48542Y88019D02*
Y89555D01*
Y88019D02*
X50472D01*
Y89555D01*
X50807Y88120D02*
X51004D01*
X50807Y87726D02*
Y88120D01*
Y87726D02*
X51004D01*
Y88120D01*
X49813Y86634D02*
Y86969D01*
Y86634D02*
X50423D01*
Y86969D01*
X49813D02*
X50423D01*
X49213Y86742D02*
Y86939D01*
X48819D02*
X49213D01*
X48819Y86742D02*
Y86939D01*
Y86742D02*
X49213D01*
X50807Y89065D02*
X51004D01*
X50807Y88671D02*
Y89065D01*
Y88671D02*
X51004D01*
Y89065D01*
X48858Y90758D02*
Y90955D01*
Y90758D02*
X49252D01*
Y90955D01*
X48858D02*
X49252D01*
X48898Y91988D02*
Y92480D01*
Y91988D02*
X49685D01*
Y92480D01*
X48898D02*
X49685D01*
X81683Y54124D02*
Y54321D01*
Y54124D02*
X82077D01*
Y54321D01*
X81683D02*
X82077D01*
X82874Y53396D02*
Y53593D01*
Y53396D02*
X83268D01*
Y53593D01*
X82874D02*
X83268D01*
X80030Y55640D02*
Y55974D01*
X79419D02*
X80030D01*
X79419Y55640D02*
Y55974D01*
Y55640D02*
X80030D01*
Y54892D02*
Y55226D01*
X79419D02*
X80030D01*
X79419Y54892D02*
Y55226D01*
Y54892D02*
X80030D01*
X83327Y57209D02*
Y57406D01*
X82933D02*
X83327D01*
X82933Y57209D02*
Y57406D01*
Y57209D02*
X83327D01*
X82195Y57243D02*
Y57440D01*
X81801D02*
X82195D01*
X81801Y57243D02*
Y57440D01*
Y57243D02*
X82195D01*
X81663Y56673D02*
Y56870D01*
X81270D02*
X81663D01*
X81270Y56673D02*
Y56870D01*
Y56673D02*
X81663D01*
X74065Y54812D02*
Y55008D01*
Y54812D02*
X74459D01*
Y55008D01*
X74065D02*
X74459D01*
X77657Y54085D02*
X77854D01*
Y54478D01*
X77657D02*
X77854D01*
X77657Y54085D02*
Y54478D01*
X81014Y54114D02*
Y54311D01*
X80620D02*
X81014D01*
X80620Y54114D02*
Y54311D01*
Y54114D02*
X81014D01*
X78238Y54065D02*
X78435D01*
Y54459D01*
X78238D02*
X78435D01*
X78238Y54065D02*
Y54459D01*
X73356Y54852D02*
X73553D01*
X73356Y54459D02*
Y54852D01*
Y54459D02*
X73553D01*
Y54852D01*
X82591Y54675D02*
X82965Y54301D01*
X82591D02*
X83733D01*
X82591D02*
Y54833D01*
X83733D01*
Y54301D02*
Y54833D01*
X83359Y56506D02*
X83733Y56132D01*
X82591Y56506D02*
X83733D01*
Y55974D02*
Y56506D01*
X82591Y55974D02*
X83733D01*
X82591D02*
Y56506D01*
X68011Y85965D02*
Y86162D01*
Y85965D02*
X68405D01*
Y86162D01*
X68011D02*
X68405D01*
X66968Y85945D02*
Y86142D01*
Y85945D02*
X67362D01*
Y86142D01*
X66968D02*
X67362D01*
X62864Y85906D02*
Y86102D01*
Y85906D02*
X63258D01*
Y86102D01*
X62864D02*
X63258D01*
X61585Y85906D02*
Y86102D01*
Y85906D02*
X61978D01*
Y86102D01*
X61585D02*
X61978D01*
X56004Y85787D02*
Y85984D01*
X55610D02*
X56004D01*
X55610Y85787D02*
Y85984D01*
Y85787D02*
X56004D01*
X56713Y85807D02*
Y86004D01*
Y85807D02*
X57106D01*
Y86004D01*
X56713D02*
X57106D01*
X74931Y41998D02*
X75561D01*
Y43258D01*
X74931D02*
X75561D01*
X74931Y41998D02*
Y43258D01*
X76004Y38238D02*
X76634D01*
Y39498D01*
X76004D02*
X76634D01*
X76004Y38238D02*
Y39498D01*
X83526Y38366D02*
X84156D01*
Y39626D01*
X83526D02*
X84156D01*
X83526Y38366D02*
Y39626D01*
X74920Y40053D02*
X75550D01*
Y41313D01*
X74920D02*
X75550D01*
X74920Y40053D02*
Y41313D01*
X77382Y50215D02*
Y51006D01*
X76890Y50215D02*
X77382D01*
X76890D02*
Y51006D01*
X77382D01*
X79142Y47726D02*
X79933D01*
X79142D02*
Y48218D01*
X79933D01*
Y47726D02*
Y48218D01*
X73070Y43553D02*
Y43887D01*
Y43553D02*
X73680D01*
Y43887D01*
X73070D02*
X73680D01*
X85010Y40659D02*
X85217Y40453D01*
X84724Y40659D02*
X85217D01*
X84724Y39872D02*
Y40659D01*
Y39872D02*
X85217D01*
Y40659D01*
X80815Y38199D02*
Y38990D01*
X81307D01*
Y38199D02*
Y38990D01*
X80815Y38199D02*
X81307D01*
X72266Y29436D02*
X73053D01*
Y31208D01*
X72266D02*
X73053D01*
X72266Y29436D02*
Y31208D01*
Y24980D02*
X73053D01*
Y26752D01*
X72266D02*
X73053D01*
X72266Y24980D02*
Y26752D01*
X22441Y93524D02*
Y93720D01*
Y93524D02*
X22835D01*
Y93720D01*
X22441D02*
X22835D01*
X20118Y93524D02*
Y93720D01*
Y93524D02*
X20512D01*
Y93720D01*
X20118D02*
X20512D01*
X37776Y70689D02*
Y70886D01*
X37382D02*
X37776D01*
X37382Y70689D02*
Y70886D01*
Y70689D02*
X37776D01*
X36240Y71161D02*
Y71358D01*
X35846D02*
X36240D01*
X35846Y71161D02*
Y71358D01*
Y71161D02*
X36240D01*
X37362Y71261D02*
Y71458D01*
X36969D02*
X37362D01*
X36969Y71261D02*
Y71458D01*
Y71261D02*
X37362D01*
X36220Y70610D02*
Y70807D01*
X35827D02*
X36220D01*
X35827Y70610D02*
Y70807D01*
Y70610D02*
X36220D01*
X39193Y70768D02*
Y70965D01*
Y70768D02*
X39587D01*
Y70965D01*
X39193D02*
X39587D01*
X39350Y71287D02*
Y71483D01*
Y71287D02*
X39744D01*
Y71483D01*
X39350D02*
X39744D01*
X39311Y71791D02*
Y71988D01*
Y71791D02*
X39705D01*
Y71988D01*
X39311D02*
X39705D01*
X45669Y87096D02*
Y88081D01*
Y87096D02*
X46929D01*
Y88081D01*
X45669D02*
X46929D01*
X45669Y88632D02*
Y89616D01*
Y88632D02*
X46929D01*
Y89616D01*
X45669D02*
X46929D01*
X46191Y90371D02*
Y90889D01*
X45030Y90371D02*
X46191D01*
X45030D02*
Y90889D01*
X46191D01*
X45817D02*
X46191Y90515D01*
X44451Y91677D02*
X46852D01*
X44451D02*
Y92677D01*
X46852D01*
Y91677D02*
Y92677D01*
X72992Y44272D02*
X73780D01*
X72992D02*
Y44764D01*
X73780D01*
Y44272D02*
Y44764D01*
X73573Y44272D02*
X73780Y44479D01*
X24518Y52244D02*
Y52638D01*
X24715D01*
Y52244D02*
Y52638D01*
X24518Y52244D02*
X24715D01*
X62246Y48032D02*
Y48524D01*
Y48032D02*
X63037D01*
Y48524D01*
X62246D02*
X63037D01*
X41043Y51693D02*
X41437D01*
X41043D02*
Y51890D01*
X41437D01*
Y51693D02*
Y51890D01*
X63425Y52699D02*
X63819D01*
Y52502D02*
Y52699D01*
X63425Y52502D02*
X63819D01*
X63425D02*
Y52699D01*
X25246Y48022D02*
Y48514D01*
Y48022D02*
X26037D01*
Y48514D01*
X25246D02*
X26037D01*
X18087Y92173D02*
Y93122D01*
Y92173D02*
X28287D01*
Y93122D01*
X18087D02*
X28287D01*
D16*
X80768Y55945D02*
X82028D01*
Y54843D02*
Y55945D01*
X80768Y54843D02*
X82028D01*
X80768D02*
Y55945D01*
X75797Y55463D02*
Y56722D01*
X76900D01*
Y55463D02*
Y56722D01*
X75797Y55463D02*
X76900D01*
M02*
