G04*
G04 #@! TF.GenerationSoftware,Altium Limited,Altium Designer,20.2.4 (192)*
G04*
G04 Layer_Color=8421504*
%FSLAX24Y24*%
%MOIN*%
G70*
G04*
G04 #@! TF.SameCoordinates,B9BB7F2B-B7AC-4897-A438-396A0F5AD448*
G04*
G04*
G04 #@! TF.FilePolarity,Positive*
G04*
G01*
G75*
%ADD21R,0.0236X0.0252*%
%ADD22R,0.0138X0.0531*%
%ADD23R,0.0394X0.0315*%
%ADD24R,0.0591X0.0787*%
%ADD25R,0.0236X0.0394*%
%ADD26R,0.0236X0.0276*%
%ADD27R,0.0567X0.0654*%
%ADD28R,0.0472X0.0413*%
%ADD29R,0.0315X0.0394*%
%ADD30R,0.0413X0.0472*%
%ADD31R,0.0315X0.0236*%
%ADD32R,0.0846X0.0866*%
%ADD33R,0.0638X0.0811*%
%ADD34R,0.0394X0.0354*%
%ADD35R,0.0906X0.0689*%
%ADD36R,0.0811X0.0638*%
%ADD37R,0.0571X0.0394*%
%ADD38R,0.0787X0.1476*%
%ADD39R,0.0626X0.1748*%
%ADD40R,0.0626X0.0252*%
%ADD41R,0.0394X0.0571*%
%ADD42R,0.0276X0.0236*%
%ADD43R,0.0256X0.0252*%
%ADD44R,0.0252X0.0626*%
%ADD45R,0.1748X0.0626*%
%ADD46R,0.1260X0.0689*%
%ADD47R,0.0374X0.0689*%
%ADD48R,0.2559X0.2559*%
%ADD49R,0.0236X0.0315*%
%ADD50R,0.0252X0.0256*%
%ADD51R,0.0283X0.0701*%
%ADD52R,0.0591X0.0354*%
%ADD53R,0.0354X0.0591*%
%ADD54R,0.0579X0.0402*%
%ADD55R,0.0402X0.0579*%
%ADD56R,0.0654X0.0567*%
%ADD57R,0.0874X0.0323*%
%ADD58R,0.0638X0.1185*%
%ADD59R,0.0335X0.0433*%
%ADD60R,0.0846X0.1102*%
%ADD61R,0.1417X0.0709*%
D21*
X40430Y70744D02*
D03*
X40076D02*
D03*
X21260Y93583D02*
D03*
X21614D02*
D03*
X37402Y70787D02*
D03*
X37756D02*
D03*
X35866Y71260D02*
D03*
X36220D02*
D03*
X39567Y70866D02*
D03*
X39213D02*
D03*
X39724Y71385D02*
D03*
X39370D02*
D03*
D22*
X62293Y54395D02*
D03*
X62982D02*
D03*
D23*
X75591Y54596D02*
D03*
Y53967D02*
D03*
X76320Y54596D02*
D03*
Y53967D02*
D03*
X72598Y54124D02*
D03*
Y54754D02*
D03*
D24*
X56790Y92785D02*
D03*
Y87156D02*
D03*
X54821Y92785D02*
D03*
Y87156D02*
D03*
X62441Y92785D02*
D03*
Y87156D02*
D03*
X60472Y92785D02*
D03*
Y87156D02*
D03*
X68110Y92844D02*
D03*
Y87215D02*
D03*
X66142Y92844D02*
D03*
Y87215D02*
D03*
D25*
X73878Y56457D02*
D03*
X73504Y55551D02*
D03*
X74252D02*
D03*
X77806Y56713D02*
D03*
X77432Y55807D02*
D03*
X78180D02*
D03*
X83162Y55020D02*
D03*
X82788Y54114D02*
D03*
X83536D02*
D03*
X83162Y55787D02*
D03*
X83536Y56693D02*
D03*
X82788D02*
D03*
D26*
X74035Y53888D02*
D03*
Y54321D02*
D03*
X38031Y71328D02*
D03*
Y71762D02*
D03*
X77756Y54498D02*
D03*
Y54065D02*
D03*
X78337Y54478D02*
D03*
Y54045D02*
D03*
X73455Y54439D02*
D03*
Y54872D02*
D03*
X24616Y52224D02*
D03*
Y52657D02*
D03*
D27*
X85236Y49921D02*
D03*
X86016D02*
D03*
X79904Y45749D02*
D03*
X79124D02*
D03*
X43748Y48268D02*
D03*
X44528D02*
D03*
X63102Y48278D02*
D03*
X62323D02*
D03*
X26102Y48268D02*
D03*
X25323D02*
D03*
D28*
X84488Y50837D02*
D03*
X83740D02*
D03*
X73760Y44518D02*
D03*
X73012D02*
D03*
D29*
X85679Y50866D02*
D03*
X86309D02*
D03*
X79823Y46594D02*
D03*
X79193D02*
D03*
X50433Y86801D02*
D03*
X49803D02*
D03*
X79409Y55807D02*
D03*
X80039D02*
D03*
X79409Y55059D02*
D03*
X80039D02*
D03*
X73690Y43720D02*
D03*
X73060D02*
D03*
D30*
X78130Y45726D02*
D03*
Y46474D02*
D03*
X72598Y55502D02*
D03*
Y56250D02*
D03*
X84971Y39892D02*
D03*
Y40640D02*
D03*
D31*
X75079Y38183D02*
D03*
Y38813D02*
D03*
D32*
X82411Y40236D02*
D03*
Y38504D02*
D03*
D33*
X86230Y41821D02*
D03*
X85128D02*
D03*
D34*
X85925Y40896D02*
D03*
Y40266D02*
D03*
D35*
X85267Y29931D02*
D03*
Y28199D02*
D03*
D36*
X85965Y37530D02*
D03*
Y36427D02*
D03*
X75246Y43179D02*
D03*
Y42077D02*
D03*
X76319Y39419D02*
D03*
Y38317D02*
D03*
X83841Y39548D02*
D03*
Y38445D02*
D03*
X75235Y41234D02*
D03*
Y40132D02*
D03*
D37*
X84990Y38337D02*
D03*
Y39085D02*
D03*
D38*
X78130Y14577D02*
D03*
X74783D02*
D03*
D39*
X10470Y70846D02*
D03*
Y72854D02*
D03*
D40*
X5829Y73600D02*
D03*
Y73100D02*
D03*
Y72600D02*
D03*
Y72100D02*
D03*
Y71600D02*
D03*
Y71100D02*
D03*
Y70600D02*
D03*
Y70100D02*
D03*
D41*
X51122Y91644D02*
D03*
X50374D02*
D03*
X49665Y92234D02*
D03*
X48917D02*
D03*
D42*
X49705Y91526D02*
D03*
X49272D02*
D03*
X36791Y71929D02*
D03*
X37224D02*
D03*
X63474Y52047D02*
D03*
X63907D02*
D03*
X48799Y86841D02*
D03*
X49232D02*
D03*
X49272Y90856D02*
D03*
X48839D02*
D03*
X82096Y54222D02*
D03*
X81663D02*
D03*
X81781Y57342D02*
D03*
X82215D02*
D03*
X81250Y56772D02*
D03*
X81683D02*
D03*
X80600Y54213D02*
D03*
X81033D02*
D03*
X68424Y86064D02*
D03*
X67991D02*
D03*
X67382Y86043D02*
D03*
X66949D02*
D03*
X63278Y86004D02*
D03*
X62844D02*
D03*
X61998Y86004D02*
D03*
X61565D02*
D03*
X55591Y85886D02*
D03*
X56024D02*
D03*
X57126Y85906D02*
D03*
X56693D02*
D03*
X22854Y93622D02*
D03*
X22421D02*
D03*
X20532Y93622D02*
D03*
X20098D02*
D03*
X36949Y71359D02*
D03*
X37382D02*
D03*
X35807Y70709D02*
D03*
X36240D02*
D03*
X41457Y51791D02*
D03*
X41024D02*
D03*
X63406Y52600D02*
D03*
X63839D02*
D03*
D43*
X65945Y86053D02*
D03*
X66299D02*
D03*
X54646Y85876D02*
D03*
X55000D02*
D03*
X60541Y85974D02*
D03*
X60896D02*
D03*
X77953Y55177D02*
D03*
X77598D02*
D03*
X83248Y53494D02*
D03*
X82894D02*
D03*
X82953Y57308D02*
D03*
X83307D02*
D03*
X74439Y54910D02*
D03*
X74085D02*
D03*
X39685Y71890D02*
D03*
X39331D02*
D03*
D44*
X36439Y69722D02*
D03*
X36939D02*
D03*
X37439D02*
D03*
X37939D02*
D03*
X38439D02*
D03*
X38939D02*
D03*
X39439D02*
D03*
X39939D02*
D03*
D45*
X39193Y65081D02*
D03*
X37185D02*
D03*
D46*
X79028Y51614D02*
D03*
D47*
X79933Y49134D02*
D03*
X79028D02*
D03*
X78122D02*
D03*
D48*
X40433Y28032D02*
D03*
X22717D02*
D03*
Y35433D02*
D03*
X40433D02*
D03*
X22717Y17441D02*
D03*
X40433D02*
D03*
D49*
X76056Y41313D02*
D03*
X76686D02*
D03*
D50*
X51339Y88100D02*
D03*
Y87746D02*
D03*
X50906D02*
D03*
Y88100D02*
D03*
X50905Y88691D02*
D03*
Y89045D02*
D03*
D51*
X50257Y87719D02*
D03*
X49757D02*
D03*
X49257D02*
D03*
X48757D02*
D03*
Y89855D02*
D03*
X49257D02*
D03*
X49757D02*
D03*
X50257D02*
D03*
D52*
X80787Y55059D02*
D03*
Y55728D02*
D03*
X82008Y55059D02*
D03*
Y55728D02*
D03*
D53*
X76683Y55482D02*
D03*
X76014D02*
D03*
X76683Y56703D02*
D03*
X76014D02*
D03*
D54*
X77136Y50929D02*
D03*
Y50291D02*
D03*
D55*
X79856Y47972D02*
D03*
X79219D02*
D03*
D56*
X81061Y38276D02*
D03*
Y39055D02*
D03*
D57*
X72660Y31188D02*
D03*
Y29456D02*
D03*
Y26732D02*
D03*
Y25000D02*
D03*
D58*
X46906Y87589D02*
D03*
X45693D02*
D03*
X46906Y89124D02*
D03*
X45693D02*
D03*
D59*
X45984Y91063D02*
D03*
X45236D02*
D03*
X45610Y90197D02*
D03*
D60*
X46618Y92177D02*
D03*
X44685D02*
D03*
D61*
X79557Y11211D02*
D03*
Y9518D02*
D03*
X72861Y10059D02*
D03*
Y11752D02*
D03*
M02*
