G04*
G04 #@! TF.GenerationSoftware,Altium Limited,Altium Designer,20.2.4 (192)*
G04*
G04 Layer_Color=128*
%FSLAX24Y24*%
%MOIN*%
G70*
G04*
G04 #@! TF.SameCoordinates,B9BB7F2B-B7AC-4897-A438-396A0F5AD448*
G04*
G04*
G04 #@! TF.FilePolarity,Positive*
G04*
G01*
G75*
%ADD197C,0.0020*%
D197*
X36629Y91209D02*
X36905D01*
X36767Y91071D02*
Y91346D01*
X36129Y91209D02*
X36405D01*
X36267Y91071D02*
Y91346D01*
X35629Y91209D02*
X35905D01*
X35767Y91071D02*
Y91346D01*
X35129Y91209D02*
X35405D01*
X35267Y91071D02*
Y91346D01*
X34629Y91209D02*
X34905D01*
X34767Y91071D02*
Y91346D01*
X34129Y91209D02*
X34405D01*
X34267Y91071D02*
Y91346D01*
X33629Y91209D02*
X33905D01*
X33767Y91071D02*
Y91346D01*
X33129Y91209D02*
X33405D01*
X33267Y91071D02*
Y91346D01*
X36629Y90709D02*
X36905D01*
X36767Y90571D02*
Y90846D01*
X36129Y90709D02*
X36405D01*
X36267Y90571D02*
Y90846D01*
X35629Y90709D02*
X35905D01*
X35767Y90571D02*
Y90846D01*
X35129Y90709D02*
X35405D01*
X35267Y90571D02*
Y90846D01*
X34629Y90709D02*
X34905D01*
X34767Y90571D02*
Y90846D01*
X34129Y90709D02*
X34405D01*
X34267Y90571D02*
Y90846D01*
X33629Y90709D02*
X33905D01*
X33767Y90571D02*
Y90846D01*
X33129Y90709D02*
X33405D01*
X33267Y90571D02*
Y90846D01*
X57385Y48280D02*
X59285D01*
X58335Y47330D02*
Y49230D01*
X57292Y8706D02*
X58492D01*
X57892Y8106D02*
Y9306D01*
X65971Y48280D02*
X67871D01*
X66921Y47330D02*
Y49230D01*
X67624Y40679D02*
X69344D01*
X68484Y39819D02*
Y41539D01*
X66764Y8706D02*
X67964D01*
X67364Y8106D02*
Y9306D01*
X61132Y50913D02*
X61447D01*
X61289Y50756D02*
Y51071D01*
X67624Y23504D02*
X69344D01*
X68484Y22644D02*
Y24364D01*
X55912Y40679D02*
X57632D01*
X56772Y39819D02*
Y41539D01*
X55912Y23504D02*
X57632D01*
X56772Y22644D02*
Y24364D01*
X63140Y50913D02*
X63455D01*
X63297Y50756D02*
Y51071D01*
X61801Y50913D02*
X62116D01*
X61959Y50756D02*
Y51071D01*
X62470Y50913D02*
X62785D01*
X62628Y50756D02*
Y51071D01*
X63809Y50913D02*
X64124D01*
X63967Y50756D02*
Y51071D01*
X38891Y48280D02*
X40791D01*
X39841Y47330D02*
Y49230D01*
X38798Y8706D02*
X39998D01*
X39398Y8106D02*
Y9306D01*
X47477Y48280D02*
X49377D01*
X48427Y47330D02*
Y49230D01*
X49130Y40679D02*
X50850D01*
X49990Y39819D02*
Y41539D01*
X48270Y8706D02*
X49470D01*
X48870Y8106D02*
Y9306D01*
X42638Y50913D02*
X42953D01*
X42795Y50756D02*
Y51071D01*
X49130Y23504D02*
X50850D01*
X49990Y22644D02*
Y24364D01*
X37418Y40679D02*
X39138D01*
X38278Y39819D02*
Y41539D01*
X37418Y23504D02*
X39138D01*
X38278Y22644D02*
Y24364D01*
X44646Y50913D02*
X44961D01*
X44803Y50756D02*
Y51071D01*
X43307Y50913D02*
X43622D01*
X43465Y50756D02*
Y51071D01*
X43976Y50913D02*
X44291D01*
X44134Y50756D02*
Y51071D01*
X45315Y50913D02*
X45630D01*
X45472Y50756D02*
Y51071D01*
X20396Y48280D02*
X22296D01*
X21346Y47330D02*
Y49230D01*
X20304Y8706D02*
X21504D01*
X20904Y8106D02*
Y9306D01*
X28983Y48280D02*
X30883D01*
X29933Y47330D02*
Y49230D01*
X30636Y40679D02*
X32356D01*
X31496Y39819D02*
Y41539D01*
X29776Y8706D02*
X30976D01*
X30376Y8106D02*
Y9306D01*
X24144Y50913D02*
X24459D01*
X24301Y50756D02*
Y51071D01*
X30636Y23504D02*
X32356D01*
X31496Y22644D02*
Y24364D01*
X18923Y40679D02*
X20644D01*
X19783Y39819D02*
Y41539D01*
X18923Y23504D02*
X20644D01*
X19783Y22644D02*
Y24364D01*
X26152Y50913D02*
X26467D01*
X26309Y50756D02*
Y51071D01*
X24813Y50913D02*
X25128D01*
X24970Y50756D02*
Y51071D01*
X25482Y50913D02*
X25797D01*
X25640Y50756D02*
Y51071D01*
X26821Y50913D02*
X27136D01*
X26978Y50756D02*
Y51071D01*
X16826Y85877D02*
X19582D01*
X18204Y84499D02*
Y87255D01*
X37146Y75207D02*
X39902D01*
X38524Y73829D02*
Y76585D01*
X48425Y83386D02*
X48976D01*
X48701Y83110D02*
Y83661D01*
X50394Y83386D02*
X50945D01*
X50669Y83110D02*
Y83661D01*
X84605Y75089D02*
X85007D01*
X84806Y74888D02*
Y75289D01*
X83605Y75089D02*
X84007D01*
X83806Y74888D02*
Y75289D01*
X84605Y78089D02*
X85007D01*
X84806Y77888D02*
Y78289D01*
X83605Y78089D02*
X84007D01*
X83806Y77888D02*
Y78289D01*
X84605Y77089D02*
X85007D01*
X84806Y76888D02*
Y77289D01*
X83605Y77089D02*
X84007D01*
X83806Y76888D02*
Y77289D01*
X84605Y76089D02*
X85007D01*
X84806Y75888D02*
Y76289D01*
X83605Y76089D02*
X84007D01*
X83806Y75888D02*
Y76289D01*
X83605Y74089D02*
X84007D01*
X83806Y73888D02*
Y74289D01*
X84605Y74089D02*
X85007D01*
X84806Y73888D02*
Y74289D01*
X83605Y71089D02*
X84007D01*
X83806Y70888D02*
Y71289D01*
X84605Y71089D02*
X85007D01*
X84806Y70888D02*
Y71289D01*
X83605Y72089D02*
X84007D01*
X83806Y71888D02*
Y72289D01*
X84605Y72089D02*
X85007D01*
X84806Y71888D02*
Y72289D01*
X83605Y73089D02*
X84007D01*
X83806Y72888D02*
Y73289D01*
X84605Y73089D02*
X85007D01*
X84806Y72888D02*
Y73289D01*
X65814Y78325D02*
X66365D01*
X66089Y78049D02*
Y78600D01*
X65814Y70852D02*
X66365D01*
X66089Y70577D02*
Y71128D01*
X71853Y81358D02*
X72253D01*
X72053Y81158D02*
Y81558D01*
X85104Y52244D02*
X85506D01*
X85305Y52043D02*
Y52445D01*
X86104Y52244D02*
X86506D01*
X86305Y52043D02*
Y52445D01*
X72969Y48110D02*
X73370D01*
X73169Y47909D02*
Y48311D01*
X72969Y47110D02*
X73370D01*
X73169Y46909D02*
Y47311D01*
X79811Y43327D02*
X80138D01*
X79975Y43163D02*
Y43490D01*
X78811Y43327D02*
X79138D01*
X78975Y43163D02*
Y43490D01*
X77811Y43327D02*
X78138D01*
X77975Y43163D02*
Y43490D01*
X76811Y43327D02*
X77138D01*
X76975Y43163D02*
Y43490D01*
X81423Y18435D02*
X81935D01*
X81679Y18179D02*
Y18691D01*
X79423Y18435D02*
X79935D01*
X79679Y18179D02*
Y18691D01*
X75423Y18435D02*
X75935D01*
X75679Y18179D02*
Y18691D01*
X82423Y36435D02*
X82935D01*
X82679Y36179D02*
Y36691D01*
X78423Y36435D02*
X78935D01*
X78679Y36179D02*
Y36691D01*
X74423Y36435D02*
X74935D01*
X74679Y36179D02*
Y36691D01*
X78664Y39041D02*
X78939D01*
X78802Y38903D02*
Y39179D01*
X78664Y40419D02*
X78939D01*
X78802Y40281D02*
Y40557D01*
X82770Y44774D02*
X83085D01*
X82927Y44617D02*
Y44932D01*
X85770Y44774D02*
X86085D01*
X85927Y44617D02*
Y44932D01*
X85770Y47774D02*
X86085D01*
X85927Y47617D02*
Y47932D01*
X84770Y47774D02*
X85085D01*
X84927Y47617D02*
Y47932D01*
X83770Y47774D02*
X84085D01*
X83927Y47617D02*
Y47932D01*
X59853Y61358D02*
X60253D01*
X60053Y61158D02*
Y61558D01*
X59853Y62358D02*
X60253D01*
X60053Y62158D02*
Y62558D01*
X60853Y61358D02*
X61253D01*
X61053Y61158D02*
Y61558D01*
X60853Y62358D02*
X61253D01*
X61053Y62158D02*
Y62558D01*
X61853Y61358D02*
X62253D01*
X62053Y61158D02*
Y61558D01*
X61853Y62358D02*
X62253D01*
X62053Y62158D02*
Y62558D01*
X62853Y61358D02*
X63253D01*
X63053Y61158D02*
Y61558D01*
X62853Y62358D02*
X63253D01*
X63053Y62158D02*
Y62558D01*
X63853Y61358D02*
X64253D01*
X64053Y61158D02*
Y61558D01*
X63853Y62358D02*
X64253D01*
X64053Y62158D02*
Y62558D01*
X64853Y61358D02*
X65253D01*
X65053Y61158D02*
Y61558D01*
X64853Y62358D02*
X65253D01*
X65053Y62158D02*
Y62558D01*
X65853Y61358D02*
X66253D01*
X66053Y61158D02*
Y61558D01*
X65853Y62358D02*
X66253D01*
X66053Y62158D02*
Y62558D01*
X66853Y61358D02*
X67253D01*
X67053Y61158D02*
Y61558D01*
X66853Y62358D02*
X67253D01*
X67053Y62158D02*
Y62558D01*
X67853Y61358D02*
X68253D01*
X68053Y61158D02*
Y61558D01*
X67853Y62358D02*
X68253D01*
X68053Y62158D02*
Y62558D01*
X68853Y61358D02*
X69253D01*
X69053Y61158D02*
Y61558D01*
X68853Y62358D02*
X69253D01*
X69053Y62158D02*
Y62558D01*
X69853Y61358D02*
X70253D01*
X70053Y61158D02*
Y61558D01*
X69853Y62358D02*
X70253D01*
X70053Y62158D02*
Y62558D01*
X70853Y61358D02*
X71253D01*
X71053Y61158D02*
Y61558D01*
X70853Y62358D02*
X71253D01*
X71053Y62158D02*
Y62558D01*
X71853Y61358D02*
X72253D01*
X72053Y61158D02*
Y61558D01*
X71853Y62358D02*
X72253D01*
X72053Y62158D02*
Y62558D01*
X72853Y61358D02*
X73253D01*
X73053Y61158D02*
Y61558D01*
X72853Y62358D02*
X73253D01*
X73053Y62158D02*
Y62558D01*
X73853Y61358D02*
X74253D01*
X74053Y61158D02*
Y61558D01*
X73853Y62358D02*
X74253D01*
X74053Y62158D02*
Y62558D01*
X74853Y61358D02*
X75253D01*
X75053Y61158D02*
Y61558D01*
X74853Y62358D02*
X75253D01*
X75053Y62158D02*
Y62558D01*
X75853Y61358D02*
X76253D01*
X76053Y61158D02*
Y61558D01*
X75853Y62358D02*
X76253D01*
X76053Y62158D02*
Y62558D01*
X76853Y61358D02*
X77253D01*
X77053Y61158D02*
Y61558D01*
X76853Y62358D02*
X77253D01*
X77053Y62158D02*
Y62558D01*
X77853Y61358D02*
X78253D01*
X78053Y61158D02*
Y61558D01*
X77853Y62358D02*
X78253D01*
X78053Y62158D02*
Y62558D01*
X78853Y61358D02*
X79253D01*
X79053Y61158D02*
Y61558D01*
X78853Y62358D02*
X79253D01*
X79053Y62158D02*
Y62558D01*
X79853Y61358D02*
X80253D01*
X80053Y61158D02*
Y61558D01*
X79853Y62358D02*
X80253D01*
X80053Y62158D02*
Y62558D01*
X80853Y61358D02*
X81253D01*
X81053Y61158D02*
Y61558D01*
X80853Y62358D02*
X81253D01*
X81053Y62158D02*
Y62558D01*
X81853Y61358D02*
X82253D01*
X82053Y61158D02*
Y61558D01*
X81853Y62358D02*
X82253D01*
X82053Y62158D02*
Y62558D01*
X82853Y61358D02*
X83253D01*
X83053Y61158D02*
Y61558D01*
X82853Y62358D02*
X83253D01*
X83053Y62158D02*
Y62558D01*
X83853Y61358D02*
X84253D01*
X84053Y61158D02*
Y61558D01*
X83853Y62358D02*
X84253D01*
X84053Y62158D02*
Y62558D01*
X83853Y82358D02*
X84253D01*
X84053Y82158D02*
Y82558D01*
X83853Y81358D02*
X84253D01*
X84053Y81158D02*
Y81558D01*
X82853Y82358D02*
X83253D01*
X83053Y82158D02*
Y82558D01*
X82853Y81358D02*
X83253D01*
X83053Y81158D02*
Y81558D01*
X81853Y82358D02*
X82253D01*
X82053Y82158D02*
Y82558D01*
X81853Y81358D02*
X82253D01*
X82053Y81158D02*
Y81558D01*
X80853Y82358D02*
X81253D01*
X81053Y82158D02*
Y82558D01*
X80853Y81358D02*
X81253D01*
X81053Y81158D02*
Y81558D01*
X79853Y82358D02*
X80253D01*
X80053Y82158D02*
Y82558D01*
X79853Y81358D02*
X80253D01*
X80053Y81158D02*
Y81558D01*
X78853Y82358D02*
X79253D01*
X79053Y82158D02*
Y82558D01*
X78853Y81358D02*
X79253D01*
X79053Y81158D02*
Y81558D01*
X77853Y82358D02*
X78253D01*
X78053Y82158D02*
Y82558D01*
X77853Y81358D02*
X78253D01*
X78053Y81158D02*
Y81558D01*
X76853Y82358D02*
X77253D01*
X77053Y82158D02*
Y82558D01*
X76853Y81358D02*
X77253D01*
X77053Y81158D02*
Y81558D01*
X75853Y82358D02*
X76253D01*
X76053Y82158D02*
Y82558D01*
X75853Y81358D02*
X76253D01*
X76053Y81158D02*
Y81558D01*
X74853Y82358D02*
X75253D01*
X75053Y82158D02*
Y82558D01*
X74853Y81358D02*
X75253D01*
X75053Y81158D02*
Y81558D01*
X73853Y82358D02*
X74253D01*
X74053Y82158D02*
Y82558D01*
X73853Y81358D02*
X74253D01*
X74053Y81158D02*
Y81558D01*
X72853Y82358D02*
X73253D01*
X73053Y82158D02*
Y82558D01*
X72853Y81358D02*
X73253D01*
X73053Y81158D02*
Y81558D01*
X71853Y82358D02*
X72253D01*
X72053Y82158D02*
Y82558D01*
X70853Y82358D02*
X71253D01*
X71053Y82158D02*
Y82558D01*
X70853Y81358D02*
X71253D01*
X71053Y81158D02*
Y81558D01*
X69853Y82358D02*
X70253D01*
X70053Y82158D02*
Y82558D01*
X69853Y81358D02*
X70253D01*
X70053Y81158D02*
Y81558D01*
X68853Y82358D02*
X69253D01*
X69053Y82158D02*
Y82558D01*
X68853Y81358D02*
X69253D01*
X69053Y81158D02*
Y81558D01*
X67853Y82358D02*
X68253D01*
X68053Y82158D02*
Y82558D01*
X67853Y81358D02*
X68253D01*
X68053Y81158D02*
Y81558D01*
X66853Y82358D02*
X67253D01*
X67053Y82158D02*
Y82558D01*
X66853Y81358D02*
X67253D01*
X67053Y81158D02*
Y81558D01*
X65853Y82358D02*
X66253D01*
X66053Y82158D02*
Y82558D01*
X65853Y81358D02*
X66253D01*
X66053Y81158D02*
Y81558D01*
X64853Y82358D02*
X65253D01*
X65053Y82158D02*
Y82558D01*
X64853Y81358D02*
X65253D01*
X65053Y81158D02*
Y81558D01*
X63853Y82358D02*
X64253D01*
X64053Y82158D02*
Y82558D01*
X63853Y81358D02*
X64253D01*
X64053Y81158D02*
Y81558D01*
X62853Y82358D02*
X63253D01*
X63053Y82158D02*
Y82558D01*
X62853Y81358D02*
X63253D01*
X63053Y81158D02*
Y81558D01*
X61853Y82358D02*
X62253D01*
X62053Y82158D02*
Y82558D01*
X61853Y81358D02*
X62253D01*
X62053Y81158D02*
Y81558D01*
X60853Y82358D02*
X61253D01*
X61053Y82158D02*
Y82558D01*
X60853Y81358D02*
X61253D01*
X61053Y81158D02*
Y81558D01*
X59853Y82358D02*
X60253D01*
X60053Y82158D02*
Y82558D01*
X59853Y81358D02*
X60253D01*
X60053Y81158D02*
Y81558D01*
X84801Y9085D02*
X85136D01*
X84969Y8917D02*
Y9252D01*
X84801Y12085D02*
X85136D01*
X84969Y11917D02*
Y12252D01*
X81801Y12085D02*
X82136D01*
X81968Y11917D02*
Y12252D01*
X81801Y9085D02*
X82136D01*
X81968Y8917D02*
Y9252D01*
X83868Y14636D02*
X84144D01*
X84006Y14498D02*
Y14774D01*
X82884Y14636D02*
X83159D01*
X83022Y14498D02*
Y14774D01*
X1683Y81929D02*
X4695D01*
X3189Y80423D02*
Y83435D01*
X1683Y87008D02*
X4695D01*
X3189Y85502D02*
Y88514D01*
X74382Y12116D02*
X74717D01*
X74549Y11949D02*
Y12283D01*
X74382Y9116D02*
X74717D01*
X74549Y8949D02*
Y9283D01*
X77382Y9116D02*
X77717D01*
X77549Y8949D02*
Y9283D01*
X77382Y12116D02*
X77717D01*
X77549Y11949D02*
Y12283D01*
X14764Y5906D02*
X15945D01*
X15354Y5315D02*
Y6496D01*
X2037Y36024D02*
X5049D01*
X3543Y34518D02*
Y37530D01*
X1644Y24094D02*
X4656D01*
X3150Y22589D02*
Y25600D01*
X42677Y89976D02*
X43071D01*
X42874Y89780D02*
Y90173D01*
X42677Y88976D02*
X43071D01*
X42874Y88780D02*
Y89173D01*
X42677Y87976D02*
X43071D01*
X42874Y87780D02*
Y88173D01*
X72927Y42132D02*
X73254D01*
X73091Y41968D02*
Y42295D01*
X72927Y41132D02*
X73254D01*
X73091Y40968D02*
Y41295D01*
X72927Y40132D02*
X73254D01*
X73091Y39968D02*
Y40295D01*
X72927Y39132D02*
X73254D01*
X73091Y38968D02*
Y39295D01*
X44793Y19528D02*
X45207D01*
X45000Y19321D02*
Y19734D01*
X47746Y17953D02*
X48159D01*
X47953Y17746D02*
Y18159D01*
X44636Y36378D02*
X45049D01*
X44843Y36171D02*
Y36585D01*
X47589Y34803D02*
X48002D01*
X47795Y34596D02*
Y35010D01*
X16091Y10177D02*
X16587D01*
X16339Y9929D02*
Y10425D01*
X16091Y9173D02*
X16587D01*
X16339Y8925D02*
Y9421D01*
X16091Y8169D02*
X16587D01*
X16339Y7921D02*
Y8417D01*
X3453Y68163D02*
X4185D01*
X3819Y67797D02*
Y68530D01*
X3453Y66014D02*
X4185D01*
X3819Y65648D02*
Y66380D01*
X3453Y63864D02*
X4185D01*
X3819Y63498D02*
Y64230D01*
X3453Y45778D02*
X4185D01*
X3819Y45411D02*
Y46144D01*
X3453Y43628D02*
X4185D01*
X3819Y43262D02*
Y43994D01*
X3453Y41478D02*
X4185D01*
X3819Y41112D02*
Y41844D01*
X3453Y53240D02*
X4185D01*
X3819Y52873D02*
Y53606D01*
X3453Y51090D02*
X4185D01*
X3819Y50724D02*
Y51456D01*
X3453Y48940D02*
X4185D01*
X3819Y48574D02*
Y49306D01*
X3453Y60701D02*
X4185D01*
X3819Y60335D02*
Y61068D01*
X3453Y58552D02*
X4185D01*
X3819Y58186D02*
Y58918D01*
X3453Y56402D02*
X4185D01*
X3819Y56036D02*
Y56768D01*
X10039Y13150D02*
X10433D01*
X10236Y12953D02*
Y13346D01*
X10039Y9213D02*
X10433D01*
X10236Y9016D02*
Y9409D01*
X47589Y26378D02*
X48002D01*
X47795Y26171D02*
Y26585D01*
X44636Y27953D02*
X45049D01*
X44843Y27746D02*
Y28159D01*
X12106Y18799D02*
X12500D01*
X12303Y18602D02*
Y18996D01*
X9322Y21583D02*
X9716D01*
X9519Y21386D02*
Y21780D01*
X2106Y18268D02*
X2618D01*
X2362Y18012D02*
Y18524D01*
X2106Y14520D02*
X2618D01*
X2362Y14264D02*
Y14776D01*
X27470Y92648D02*
X27904D01*
X27687Y92431D02*
Y92864D01*
X26470Y92648D02*
X26904D01*
X26687Y92431D02*
Y92864D01*
X25470Y92648D02*
X25904D01*
X25687Y92431D02*
Y92864D01*
X24470Y92648D02*
X24904D01*
X24687Y92431D02*
Y92864D01*
X23470Y92648D02*
X23904D01*
X23687Y92431D02*
Y92864D01*
X22470Y92648D02*
X22904D01*
X22687Y92431D02*
Y92864D01*
X21470Y92648D02*
X21904D01*
X21687Y92431D02*
Y92864D01*
X20470Y92648D02*
X20904D01*
X20687Y92431D02*
Y92864D01*
X19470Y92648D02*
X19904D01*
X19687Y92431D02*
Y92864D01*
X18470Y92648D02*
X18904D01*
X18687Y92431D02*
Y92864D01*
X76477Y88583D02*
X77658D01*
X77068Y87992D02*
Y89173D01*
X70965Y88583D02*
X72146D01*
X71556Y87992D02*
Y89173D01*
X7973Y3937D02*
X9154D01*
X8564Y3346D02*
Y4528D01*
X13485Y3937D02*
X14666D01*
X14076Y3346D02*
Y4528D01*
X9272Y5906D02*
X10454D01*
X9863Y5315D02*
Y6496D01*
X72934Y3937D02*
X74115D01*
X73524Y3346D02*
Y4528D01*
X78446Y3937D02*
X79627D01*
X79036Y3346D02*
Y4528D01*
X76477Y5906D02*
X77658D01*
X77068Y5315D02*
Y6496D01*
X70965Y5906D02*
X72146D01*
X71556Y5315D02*
Y6496D01*
X7973Y90551D02*
X9154D01*
X8564Y89961D02*
Y91142D01*
X13485Y90551D02*
X14666D01*
X14076Y89961D02*
Y91142D01*
X9942Y88583D02*
X11123D01*
X10532Y87992D02*
Y89173D01*
X15454Y88583D02*
X16635D01*
X16044Y87992D02*
Y89173D01*
X72934Y90551D02*
X74115D01*
X73524Y89961D02*
Y91142D01*
X78446Y90551D02*
X79627D01*
X79036Y89961D02*
Y91142D01*
X85945Y70305D02*
X86240D01*
X86093Y70157D02*
Y70453D01*
X84980Y69311D02*
X85276D01*
X85128Y69163D02*
Y69459D01*
X83533Y66663D02*
X83829D01*
X83681Y66516D02*
Y66811D01*
X84370Y65778D02*
X84665D01*
X84518Y65630D02*
Y65925D01*
X21880Y52966D02*
X22175D01*
X22027Y52818D02*
Y53113D01*
X20600Y53750D02*
X20896D01*
X20748Y53602D02*
Y53898D01*
X18996Y51811D02*
X19291D01*
X19144Y51663D02*
Y51959D01*
X19321Y55069D02*
X19616D01*
X19468Y54921D02*
Y55217D01*
X18789Y61132D02*
X19085D01*
X18937Y60984D02*
Y61280D01*
X22579Y58661D02*
X22874D01*
X22726Y58514D02*
Y58809D01*
X20023Y66047D02*
X20318D01*
X20171Y65899D02*
Y66195D01*
X21260Y66004D02*
X21555D01*
X21407Y65856D02*
Y66152D01*
X21752Y63780D02*
X22047D01*
X21900Y63632D02*
Y63927D01*
X21880Y62667D02*
X22175D01*
X22028Y62520D02*
Y62815D01*
X20020Y58376D02*
X20315D01*
X20167Y58228D02*
Y58524D01*
X21014Y52392D02*
X21309D01*
X21161Y52244D02*
Y52539D01*
X19242Y53465D02*
X19537D01*
X19390Y53317D02*
Y53612D01*
X21339Y54577D02*
X21634D01*
X21486Y54429D02*
Y54724D01*
X21591Y56473D02*
X21886D01*
X21739Y56326D02*
Y56621D01*
X19775Y56680D02*
X20071D01*
X19923Y56532D02*
Y56827D01*
X18950Y56968D02*
X19245D01*
X19098Y56821D02*
Y57116D01*
X21137Y58825D02*
X21432D01*
X21285Y58678D02*
Y58973D01*
X19734Y59857D02*
X20029D01*
X19882Y59709D02*
Y60005D01*
X21919Y60886D02*
X22215D01*
X22067Y60738D02*
Y61033D01*
X20108Y62254D02*
X20404D01*
X20256Y62106D02*
Y62402D01*
X18868Y63406D02*
X19163D01*
X19016Y63258D02*
Y63553D01*
X20266Y64478D02*
X20561D01*
X20413Y64331D02*
Y64626D01*
X22087Y64764D02*
X22382D01*
X22234Y64616D02*
Y64911D01*
X15994Y86614D02*
X16289D01*
X16142Y86467D02*
Y86762D01*
X18218Y88179D02*
X18514D01*
X18366Y88032D02*
Y88327D01*
X1084Y88105D02*
X1379D01*
X1231Y87957D02*
Y88252D01*
X1565Y85403D02*
X1860D01*
X1713Y85255D02*
Y85550D01*
X6377Y86365D02*
X6672D01*
X6525Y86218D02*
Y86513D01*
X5935Y87992D02*
X6230D01*
X6083Y87844D02*
Y88140D01*
X4931Y88888D02*
X5226D01*
X5079Y88740D02*
Y89035D01*
X2677Y91398D02*
X2972D01*
X2825Y91250D02*
Y91545D01*
X1348Y90679D02*
X1644D01*
X1496Y90532D02*
Y90827D01*
X2675Y93213D02*
X2971D01*
X2823Y93065D02*
Y93361D01*
X1380Y92325D02*
X1675D01*
X1528Y92177D02*
Y92472D01*
X4006Y93287D02*
X4301D01*
X4154Y93140D02*
Y93435D01*
X5669Y92884D02*
X5965D01*
X5817Y92736D02*
Y93032D01*
X3712Y91362D02*
X4007D01*
X3860Y91215D02*
Y91510D01*
X5933Y90622D02*
X6228D01*
X6080Y90474D02*
Y90770D01*
X6858Y92140D02*
X7153D01*
X7006Y91992D02*
Y92287D01*
X6858Y93028D02*
X7153D01*
X7006Y92880D02*
Y93176D01*
X9116Y93176D02*
X9411D01*
X9264Y93028D02*
Y93324D01*
X10449Y91695D02*
X10744D01*
X10596Y91548D02*
Y91843D01*
X11633Y87476D02*
X11928D01*
X11781Y87328D02*
Y87623D01*
X7598Y88549D02*
X7894D01*
X7746Y88401D02*
Y88697D01*
X8228Y87254D02*
X8523D01*
X8375Y87106D02*
Y87401D01*
X8561Y86069D02*
X8856D01*
X8709Y85921D02*
Y86217D01*
X10449Y85995D02*
X10744D01*
X10596Y85847D02*
Y86143D01*
X12447Y85810D02*
X12743D01*
X12595Y85662D02*
Y85958D01*
X13965Y86365D02*
X14260D01*
X14113Y86217D02*
Y86513D01*
X13336Y87957D02*
X13631D01*
X13483Y87809D02*
Y88104D01*
X12262Y89326D02*
X12558D01*
X12410Y89179D02*
Y89474D01*
X11596Y91177D02*
X11891D01*
X11744Y91029D02*
Y91325D01*
X11115Y92621D02*
X11410D01*
X11263Y92473D02*
Y92768D01*
X12447Y93176D02*
X12743D01*
X12595Y93028D02*
Y93324D01*
X14372Y93065D02*
X14668D01*
X14520Y92917D02*
Y93213D01*
X15856Y91988D02*
X16152D01*
X16004Y91841D02*
Y92136D01*
X26300Y89720D02*
X26595D01*
X26447Y89573D02*
Y89868D01*
X28130Y89754D02*
X28425D01*
X28278Y89606D02*
Y89902D01*
X30913Y89079D02*
X31209D01*
X31061Y88931D02*
Y89226D01*
X39281Y86909D02*
X39577D01*
X39429Y86762D02*
Y87057D01*
X42087Y84823D02*
X42382D01*
X42234Y84675D02*
Y84970D01*
X40172Y85076D02*
X40467D01*
X40319Y84928D02*
Y85224D01*
X38430Y85748D02*
X38725D01*
X38578Y85600D02*
Y85896D01*
X37972Y87490D02*
X38268D01*
X38120Y87343D02*
Y87638D01*
X36043Y85049D02*
X36339D01*
X36191Y84902D02*
Y85197D01*
X36506Y86240D02*
X36801D01*
X36654Y86093D02*
Y86388D01*
X34606Y87854D02*
X34902D01*
X34754Y87707D02*
Y88002D01*
X32106Y87638D02*
X32402D01*
X32254Y87490D02*
Y87785D01*
X33386Y86545D02*
X33681D01*
X33533Y86398D02*
Y86693D01*
X34458Y85443D02*
X34753D01*
X34605Y85295D02*
Y85590D01*
X33179Y85020D02*
X33474D01*
X33327Y84872D02*
Y85167D01*
X30817Y85866D02*
X31112D01*
X30965Y85718D02*
Y86014D01*
X30394Y87156D02*
X30689D01*
X30541Y87008D02*
Y87303D01*
X28504Y87766D02*
X28799D01*
X28652Y87618D02*
Y87913D01*
X26727Y88162D02*
X27023D01*
X26875Y88014D02*
Y88310D01*
X27156Y86516D02*
X27451D01*
X27303Y86368D02*
Y86663D01*
X28593Y85748D02*
X28888D01*
X28740Y85600D02*
Y85896D01*
X29291Y84675D02*
X29587D01*
X29439Y84528D02*
Y84823D01*
X26880Y84892D02*
X27175D01*
X27028Y84744D02*
Y85039D01*
X25659Y86053D02*
X25955D01*
X25807Y85906D02*
Y86201D01*
X25256Y87520D02*
X25551D01*
X25404Y87372D02*
Y87667D01*
X24892Y89016D02*
X25187D01*
X25039Y88868D02*
Y89163D01*
X24311Y90453D02*
X24606D01*
X24459Y90305D02*
Y90600D01*
X22908Y88651D02*
X23203D01*
X23056Y88503D02*
Y88798D01*
X23278Y86722D02*
X23573D01*
X23425Y86575D02*
Y86870D01*
X23337Y85285D02*
X23632D01*
X23484Y85138D02*
Y85433D01*
X20650Y85532D02*
X20945D01*
X20797Y85384D02*
Y85679D01*
X21289Y87185D02*
X21585D01*
X21437Y87037D02*
Y87333D01*
X19518Y88317D02*
X19813D01*
X19665Y88169D02*
Y88465D01*
X20955Y89508D02*
X21250D01*
X21102Y89360D02*
Y89656D01*
X18573Y90089D02*
X18868D01*
X18720Y89941D02*
Y90236D01*
X19754Y71201D02*
X20049D01*
X19902Y71053D02*
Y71348D01*
X15325Y73720D02*
X15620D01*
X15472Y73573D02*
Y73868D01*
X5876Y82756D02*
X6171D01*
X6024Y82608D02*
Y82904D01*
X5108Y80138D02*
X5404D01*
X5256Y79990D02*
Y80285D01*
X1211Y78652D02*
X1506D01*
X1358Y78504D02*
Y78799D01*
X1497Y71477D02*
X1793D01*
X1645Y71330D02*
Y71625D01*
X2815Y71880D02*
X3110D01*
X2963Y71732D02*
Y72028D01*
X1535Y72805D02*
X1831D01*
X1683Y72657D02*
Y72953D01*
X2756Y74409D02*
X3051D01*
X2904Y74262D02*
Y74557D01*
X1348Y75049D02*
X1644D01*
X1496Y74902D02*
Y75197D01*
X3809Y76673D02*
X4104D01*
X3957Y76526D02*
Y76821D01*
X1900Y77510D02*
X2195D01*
X2047Y77362D02*
Y77657D01*
X63031Y69833D02*
X63327D01*
X63179Y69685D02*
Y69980D01*
X63209Y68986D02*
X63504D01*
X63356Y68839D02*
Y69134D01*
X69048Y53537D02*
X69344D01*
X69196Y53390D02*
Y53685D01*
X69449Y54613D02*
X69744D01*
X69596Y54466D02*
Y54761D01*
X70187Y53295D02*
X70482D01*
X70335Y53147D02*
Y53442D01*
X27283Y93445D02*
X27579D01*
X27431Y93297D02*
Y93593D01*
X63967Y57215D02*
X64262D01*
X64114Y57067D02*
Y57362D01*
X64744Y54528D02*
X65039D01*
X64892Y54380D02*
Y54675D01*
X69577Y55817D02*
X69872D01*
X69724Y55669D02*
Y55965D01*
X73661Y58346D02*
X73957D01*
X73809Y58199D02*
Y58494D01*
X68996Y56870D02*
X69291D01*
X69144Y56722D02*
Y57018D01*
X57244Y57835D02*
X57539D01*
X57392Y57687D02*
Y57982D01*
X58022Y57589D02*
X58317D01*
X58169Y57441D02*
Y57736D01*
X66791Y54449D02*
X67087D01*
X66939Y54301D02*
Y54596D01*
X61181Y55551D02*
X61476D01*
X61329Y55404D02*
Y55699D01*
X58110Y58642D02*
X58405D01*
X58258Y58494D02*
Y58789D01*
X67815Y52448D02*
X68110D01*
X67963Y52300D02*
Y52596D01*
X72165Y49675D02*
X72461D01*
X72313Y49528D02*
Y49823D01*
X64488Y49035D02*
X64783D01*
X64636Y48888D02*
Y49183D01*
X64528Y47589D02*
X64823D01*
X64675Y47441D02*
Y47736D01*
X64803Y46906D02*
X65098D01*
X64951Y46758D02*
Y47053D01*
X65315Y46423D02*
X65610D01*
X65463Y46276D02*
Y46571D01*
X66043Y46039D02*
X66339D01*
X66191Y45892D02*
Y46187D01*
X66939Y45961D02*
X67234D01*
X67087Y45813D02*
Y46108D01*
X67736Y46010D02*
X68032D01*
X67884Y45862D02*
Y46157D01*
X68317Y46423D02*
X68612D01*
X68465Y46276D02*
Y46571D01*
X68789Y46925D02*
X69085D01*
X68937Y46778D02*
Y47073D01*
X69085Y47585D02*
X69380D01*
X69232Y47437D02*
Y47732D01*
X69154Y48293D02*
X69449D01*
X69301Y48146D02*
Y48441D01*
X69134Y48943D02*
X69429D01*
X69282Y48795D02*
Y49091D01*
X68789Y49543D02*
X69085D01*
X68937Y49396D02*
Y49691D01*
X68366Y50075D02*
X68661D01*
X68514Y49927D02*
Y50222D01*
X67785Y50429D02*
X68081D01*
X67933Y50282D02*
Y50577D01*
X66831Y50656D02*
X67126D01*
X66978Y50508D02*
Y50803D01*
X66033Y50498D02*
X66329D01*
X66181Y50350D02*
Y50646D01*
X65364Y50193D02*
X65659D01*
X65512Y50045D02*
Y50341D01*
X64852Y49799D02*
X65148D01*
X65000Y49652D02*
Y49947D01*
X64498Y48337D02*
X64793D01*
X64646Y48189D02*
Y48484D01*
X68829Y50528D02*
X69124D01*
X68976Y50380D02*
Y50675D01*
X69301Y50006D02*
X69596D01*
X69449Y49858D02*
Y50154D01*
Y47024D02*
X69744D01*
X69596Y46876D02*
Y47171D01*
X69104Y46305D02*
X69400D01*
X69252Y46157D02*
Y46453D01*
X64321Y46541D02*
X64616D01*
X64468Y46394D02*
Y46689D01*
X64813Y45990D02*
X65108D01*
X64961Y45843D02*
Y46138D01*
X45915Y49016D02*
X46211D01*
X46063Y48868D02*
Y49163D01*
X45955Y47569D02*
X46250D01*
X46102Y47421D02*
Y47717D01*
X46230Y46886D02*
X46526D01*
X46378Y46738D02*
Y47033D01*
X46742Y46404D02*
X47037D01*
X46890Y46256D02*
Y46551D01*
X47470Y46020D02*
X47766D01*
X47618Y45872D02*
Y46167D01*
X48366Y45941D02*
X48661D01*
X48514Y45793D02*
Y46089D01*
X49163Y45990D02*
X49459D01*
X49311Y45843D02*
Y46138D01*
X49744Y46404D02*
X50039D01*
X49892Y46256D02*
Y46551D01*
X50217Y46906D02*
X50512D01*
X50364Y46758D02*
Y47053D01*
X50512Y47565D02*
X50807D01*
X50659Y47417D02*
Y47713D01*
X50581Y48274D02*
X50876D01*
X50728Y48126D02*
Y48421D01*
X50561Y48923D02*
X50856D01*
X50709Y48776D02*
Y49071D01*
X50217Y49524D02*
X50512D01*
X50364Y49376D02*
Y49671D01*
X49793Y50055D02*
X50089D01*
X49941Y49907D02*
Y50203D01*
X49213Y50409D02*
X49508D01*
X49360Y50262D02*
Y50557D01*
X48258Y50636D02*
X48553D01*
X48406Y50488D02*
Y50783D01*
X47461Y50478D02*
X47756D01*
X47608Y50331D02*
Y50626D01*
X46791Y50173D02*
X47087D01*
X46939Y50026D02*
Y50321D01*
X46280Y49780D02*
X46575D01*
X46427Y49632D02*
Y49927D01*
X45925Y48317D02*
X46220D01*
X46073Y48169D02*
Y48465D01*
X50256Y50508D02*
X50551D01*
X50404Y50360D02*
Y50656D01*
X50728Y49986D02*
X51024D01*
X50876Y49839D02*
Y50134D01*
Y47004D02*
X51171D01*
X51024Y46856D02*
Y47152D01*
X50532Y46285D02*
X50827D01*
X50679Y46138D02*
Y46433D01*
X45748Y46522D02*
X46043D01*
X45896Y46374D02*
Y46669D01*
X46240Y45970D02*
X46535D01*
X46388Y45823D02*
Y46118D01*
X27756Y45961D02*
X28051D01*
X27904Y45813D02*
Y46108D01*
X27264Y46512D02*
X27559D01*
X27411Y46364D02*
Y46659D01*
X32047Y46276D02*
X32343D01*
X32195Y46128D02*
Y46423D01*
X32392Y46994D02*
X32687D01*
X32539Y46846D02*
Y47142D01*
X32244Y49976D02*
X32539D01*
X32392Y49829D02*
Y50124D01*
X31772Y50498D02*
X32067D01*
X31919Y50350D02*
Y50646D01*
X27441Y48307D02*
X27736D01*
X27589Y48159D02*
Y48455D01*
X27795Y49770D02*
X28091D01*
X27943Y49622D02*
Y49917D01*
X28307Y50163D02*
X28602D01*
X28455Y50016D02*
Y50311D01*
X28976Y50469D02*
X29272D01*
X29124Y50321D02*
Y50616D01*
X29774Y50626D02*
X30069D01*
X29921Y50478D02*
Y50774D01*
X30728Y50400D02*
X31024D01*
X30876Y50252D02*
Y50547D01*
X31309Y50045D02*
X31604D01*
X31457Y49898D02*
Y50193D01*
X31732Y49514D02*
X32028D01*
X31880Y49366D02*
Y49661D01*
X32077Y48913D02*
X32372D01*
X32224Y48766D02*
Y49061D01*
X32096Y48264D02*
X32392D01*
X32244Y48116D02*
Y48411D01*
X32028Y47555D02*
X32323D01*
X32175Y47407D02*
Y47703D01*
X31732Y46896D02*
X32028D01*
X31880Y46748D02*
Y47043D01*
X31260Y46394D02*
X31555D01*
X31407Y46246D02*
Y46541D01*
X30679Y45980D02*
X30974D01*
X30827Y45833D02*
Y46128D01*
X29882Y45931D02*
X30177D01*
X30030Y45783D02*
Y46079D01*
X28986Y46010D02*
X29281D01*
X29134Y45862D02*
Y46157D01*
X28258Y46394D02*
X28553D01*
X28406Y46246D02*
Y46541D01*
X27746Y46876D02*
X28041D01*
X27894Y46728D02*
Y47024D01*
X27470Y47559D02*
X27766D01*
X27618Y47411D02*
Y47707D01*
X27431Y49006D02*
X27726D01*
X27579Y48858D02*
Y49154D01*
X18839Y48539D02*
X19134D01*
X18986Y48392D02*
Y48687D01*
X18848Y47752D02*
X19144D01*
X18996Y47604D02*
Y47900D01*
X18829Y49366D02*
X19124D01*
X18976Y49219D02*
Y49514D01*
X19419Y49996D02*
X19715D01*
X19567Y49848D02*
Y50144D01*
X20128Y50429D02*
X20423D01*
X20276Y50282D02*
Y50577D01*
X21152Y50636D02*
X21447D01*
X21299Y50488D02*
Y50783D01*
X22244Y50400D02*
X22539D01*
X22392Y50252D02*
Y50547D01*
X22904Y49927D02*
X23199D01*
X23051Y49780D02*
Y50075D01*
X23386Y49366D02*
X23681D01*
X23533Y49219D02*
Y49514D01*
X23524Y48520D02*
X23819D01*
X23671Y48372D02*
Y48667D01*
X23543Y47762D02*
X23839D01*
X23691Y47614D02*
Y47909D01*
X23228Y47102D02*
X23524D01*
X23376Y46955D02*
Y47250D01*
X22795Y46610D02*
X23091D01*
X22943Y46463D02*
Y46758D01*
X22293Y46236D02*
X22589D01*
X22441Y46089D02*
Y46384D01*
X21299Y45941D02*
X21594D01*
X21447Y45793D02*
Y46089D01*
X20295Y46148D02*
X20591D01*
X20443Y46000D02*
Y46295D01*
X19724Y46394D02*
X20020D01*
X19872Y46246D02*
Y46541D01*
X19154Y46748D02*
X19449D01*
X19301Y46600D02*
Y46896D01*
X19498Y50675D02*
X19793D01*
X19646Y50528D02*
Y50823D01*
X18848Y50291D02*
X19144D01*
X18996Y50144D02*
Y50439D01*
X18829Y46138D02*
X19124D01*
X18976Y45990D02*
Y46285D01*
X19439Y45911D02*
X19734D01*
X19587Y45764D02*
Y46059D01*
X23504Y46502D02*
X23799D01*
X23652Y46354D02*
Y46650D01*
X22982Y45970D02*
X23278D01*
X23130Y45823D02*
Y46118D01*
X55837Y48549D02*
X56132D01*
X55984Y48402D02*
Y48697D01*
X55846Y47762D02*
X56142D01*
X55994Y47614D02*
Y47909D01*
X55827Y49376D02*
X56122D01*
X55974Y49228D02*
Y49524D01*
X56417Y50006D02*
X56713D01*
X56565Y49858D02*
Y50154D01*
X57126Y50439D02*
X57421D01*
X57274Y50291D02*
Y50587D01*
X58150Y50646D02*
X58445D01*
X58297Y50498D02*
Y50793D01*
X59242Y50409D02*
X59537D01*
X59390Y50262D02*
Y50557D01*
X59902Y49937D02*
X60197D01*
X60049Y49789D02*
Y50085D01*
X60384Y49376D02*
X60679D01*
X60532Y49228D02*
Y49524D01*
X60522Y48530D02*
X60817D01*
X60669Y48382D02*
Y48677D01*
X60541Y47772D02*
X60837D01*
X60689Y47624D02*
Y47919D01*
X60226Y47112D02*
X60522D01*
X60374Y46965D02*
Y47260D01*
X59793Y46620D02*
X60089D01*
X59941Y46472D02*
Y46768D01*
X59291Y46246D02*
X59587D01*
X59439Y46098D02*
Y46394D01*
X58297Y45951D02*
X58593D01*
X58445Y45803D02*
Y46098D01*
X57293Y46157D02*
X57589D01*
X57441Y46010D02*
Y46305D01*
X56722Y46404D02*
X57018D01*
X56870Y46256D02*
Y46551D01*
X56152Y46758D02*
X56447D01*
X56299Y46610D02*
Y46906D01*
X56496Y50685D02*
X56791D01*
X56644Y50537D02*
Y50833D01*
X55846Y50301D02*
X56142D01*
X55994Y50154D02*
Y50449D01*
X55827Y46148D02*
X56122D01*
X55974Y46000D02*
Y46295D01*
X56437Y45921D02*
X56732D01*
X56585Y45774D02*
Y46069D01*
X60502Y46512D02*
X60797D01*
X60650Y46364D02*
Y46659D01*
X59980Y45980D02*
X60276D01*
X60128Y45833D02*
Y46128D01*
X41476Y45990D02*
X41772D01*
X41624Y45843D02*
Y46138D01*
X41998Y46522D02*
X42293D01*
X42146Y46374D02*
Y46669D01*
X37933Y45931D02*
X38228D01*
X38081Y45783D02*
Y46079D01*
X37323Y46157D02*
X37618D01*
X37470Y46010D02*
Y46305D01*
X37343Y50311D02*
X37638D01*
X37490Y50163D02*
Y50459D01*
X37992Y50695D02*
X38287D01*
X38140Y50547D02*
Y50843D01*
X37648Y46768D02*
X37943D01*
X37795Y46620D02*
Y46915D01*
X38219Y46413D02*
X38514D01*
X38366Y46266D02*
Y46561D01*
X38789Y46167D02*
X39085D01*
X38937Y46020D02*
Y46315D01*
X39793Y45961D02*
X40089D01*
X39941Y45813D02*
Y46108D01*
X40787Y46256D02*
X41083D01*
X40935Y46108D02*
Y46404D01*
X41289Y46630D02*
X41585D01*
X41437Y46482D02*
Y46778D01*
X41722Y47122D02*
X42018D01*
X41870Y46974D02*
Y47270D01*
X42037Y47782D02*
X42333D01*
X42185Y47634D02*
Y47929D01*
X42018Y48539D02*
X42313D01*
X42165Y48392D02*
Y48687D01*
X41880Y49386D02*
X42175D01*
X42028Y49238D02*
Y49533D01*
X41398Y49947D02*
X41693D01*
X41545Y49799D02*
Y50094D01*
X40738Y50419D02*
X41033D01*
X40886Y50272D02*
Y50567D01*
X39646Y50656D02*
X39941D01*
X39793Y50508D02*
Y50803D01*
X38622Y50449D02*
X38917D01*
X38770Y50301D02*
Y50596D01*
X37913Y50016D02*
X38209D01*
X38061Y49868D02*
Y50163D01*
X37323Y49386D02*
X37618D01*
X37470Y49238D02*
Y49533D01*
X37343Y47772D02*
X37638D01*
X37490Y47624D02*
Y47919D01*
X37333Y48559D02*
X37628D01*
X37480Y48411D02*
Y48707D01*
X61801Y33081D02*
X62096D01*
X61949Y32933D02*
Y33228D01*
X49456Y71727D02*
X49751D01*
X49604Y71579D02*
Y71875D01*
X48019Y71776D02*
X48314D01*
X48167Y71629D02*
Y71924D01*
X50824Y63873D02*
X51119D01*
X50972Y63725D02*
Y64020D01*
X48843Y63578D02*
X49138D01*
X48991Y63430D02*
Y63725D01*
X49671Y64273D02*
X49966D01*
X49819Y64125D02*
Y64420D01*
X49220Y65310D02*
X49515D01*
X49367Y65162D02*
Y65457D01*
X48098Y64749D02*
X48393D01*
X48245Y64601D02*
Y64896D01*
X47773Y63528D02*
X48068D01*
X47921Y63381D02*
Y63676D01*
X45421Y63715D02*
X45716D01*
X45568Y63568D02*
Y63863D01*
X46438Y64273D02*
X46733D01*
X46586Y64125D02*
Y64420D01*
X46897Y65123D02*
X47192D01*
X47045Y64975D02*
Y65270D01*
X45637Y65743D02*
X45932D01*
X45785Y65595D02*
Y65890D01*
X47240Y66410D02*
X47535D01*
X47387Y66262D02*
Y66558D01*
X48255Y66461D02*
X48550D01*
X48403Y66314D02*
Y66609D01*
X49594Y66461D02*
X49889D01*
X49741Y66314D02*
Y66609D01*
X50716Y65103D02*
X51011D01*
X50863Y64955D02*
Y65251D01*
X50922Y66491D02*
X51218D01*
X51070Y66343D02*
Y66638D01*
X51011Y71589D02*
X51306D01*
X51159Y71442D02*
Y71737D01*
X51969Y64112D02*
X52264D01*
X52117Y63965D02*
Y64260D01*
X51995Y65260D02*
X52291D01*
X52143Y65113D02*
Y65408D01*
X51995Y66461D02*
X52291D01*
X52143Y66314D02*
Y66609D01*
X51969Y69884D02*
X52264D01*
X52117Y69736D02*
Y70031D01*
X50954Y69937D02*
X51249D01*
X51101Y69789D02*
Y70085D01*
X49751Y69857D02*
X50047D01*
X49899Y69709D02*
Y70005D01*
X48659Y69808D02*
X48954D01*
X48806Y69660D02*
Y69955D01*
X47212Y69906D02*
X47507D01*
X47359Y69759D02*
Y70054D01*
X46041Y69995D02*
X46336D01*
X46188Y69847D02*
Y70142D01*
X46169Y71136D02*
X46464D01*
X46316Y70989D02*
Y71284D01*
X47291Y71087D02*
X47586D01*
X47438Y70940D02*
Y71235D01*
X48737Y71117D02*
X49033D01*
X48885Y70969D02*
Y71264D01*
X50234Y71087D02*
X50529D01*
X50381Y70940D02*
Y71235D01*
X51917Y71087D02*
X52212D01*
X52064Y70940D02*
Y71235D01*
X51936Y78509D02*
X52232D01*
X52084Y78361D02*
Y78656D01*
X50863Y78459D02*
X51159D01*
X51011Y78312D02*
Y78607D01*
X51907Y79965D02*
X52202D01*
X52054Y79818D02*
Y80113D01*
X50834Y79946D02*
X51129D01*
X50982Y79798D02*
Y80093D01*
X33698Y68292D02*
X33993D01*
X33846Y68144D02*
Y68440D01*
X25384Y68091D02*
X25679D01*
X25531Y67943D02*
Y68238D01*
X7881Y71034D02*
X8176D01*
X8029Y70886D02*
Y71181D01*
X58671Y53504D02*
X58967D01*
X58819Y53356D02*
Y53652D01*
X59537Y53504D02*
X59833D01*
X59685Y53356D02*
Y53652D01*
X7766Y70236D02*
X8061D01*
X7913Y70089D02*
Y70384D01*
X6624Y73819D02*
X6919D01*
X6772Y73671D02*
Y73967D01*
X37608Y68622D02*
X37904D01*
X37756Y68474D02*
Y68770D01*
X40463Y71594D02*
X40758D01*
X40610Y71447D02*
Y71742D01*
X35719Y69764D02*
X36014D01*
X35866Y69616D02*
Y69911D01*
X55522Y82323D02*
X55817D01*
X55669Y82175D02*
Y82470D01*
X85057Y85548D02*
X85352D01*
X85205Y85400D02*
Y85695D01*
X81594Y85797D02*
X81890D01*
X81742Y85650D02*
Y85945D01*
X74587Y85797D02*
X74882D01*
X74734Y85650D02*
Y85945D01*
X83758Y87451D02*
X84053D01*
X83906Y87303D02*
Y87598D01*
X80375Y87330D02*
X80670D01*
X80523Y87182D02*
Y87478D01*
X74626Y87411D02*
X74921D01*
X74774Y87264D02*
Y87559D01*
X69035Y87608D02*
X69331D01*
X69183Y87461D02*
Y87756D01*
X65915Y85433D02*
X66211D01*
X66063Y85285D02*
Y85581D01*
X64547Y87766D02*
X64843D01*
X64695Y87618D02*
Y87913D01*
X58327Y87884D02*
X58622D01*
X58474Y87736D02*
Y88032D01*
X59311Y86033D02*
X59606D01*
X59459Y85886D02*
Y86181D01*
X67992Y69370D02*
X68287D01*
X68140Y69222D02*
Y69518D01*
X82126Y58819D02*
X82421D01*
X82274Y58671D02*
Y58967D01*
X59989Y65738D02*
X60285D01*
X60137Y65591D02*
Y65886D01*
X59213Y64134D02*
X59508D01*
X59360Y63986D02*
Y64282D01*
X38632Y93110D02*
X38927D01*
X38780Y92963D02*
Y93258D01*
X49026Y88770D02*
X49321D01*
X49173Y88622D02*
Y88917D01*
X52648Y88780D02*
X52943D01*
X52795Y88632D02*
Y88927D01*
X51340Y87205D02*
X51635D01*
X51488Y87057D02*
Y87352D01*
X50984Y86181D02*
X51280D01*
X51132Y86033D02*
Y86329D01*
X52480Y86654D02*
X52776D01*
X52628Y86506D02*
Y86801D01*
X51654Y86220D02*
X51949D01*
X51801Y86073D02*
Y86368D01*
X51378Y90197D02*
X51673D01*
X51526Y90049D02*
Y90344D01*
X50837Y90669D02*
X51132D01*
X50984Y90522D02*
Y90817D01*
X63396Y65039D02*
X63691D01*
X63543Y64892D02*
Y65187D01*
X70315Y65748D02*
X70610D01*
X70463Y65600D02*
Y65896D01*
X70544Y67717D02*
X70840D01*
X70692Y67569D02*
Y67864D01*
X23002Y69409D02*
X23297D01*
X23150Y69262D02*
Y69557D01*
X21506Y68150D02*
X21801D01*
X21654Y68002D02*
Y68297D01*
X47746Y92626D02*
X48041D01*
X47894Y92478D02*
Y92774D01*
X37608Y92283D02*
X37904D01*
X37756Y92136D02*
Y92431D01*
X66142Y58926D02*
X66437D01*
X66289Y58779D02*
Y59074D01*
X81220Y41457D02*
X81516D01*
X81368Y41309D02*
Y41604D01*
X83268Y42087D02*
X83563D01*
X83415Y41939D02*
Y42234D01*
X86274Y34868D02*
X86570D01*
X86422Y34721D02*
Y35016D01*
X84921Y36063D02*
X85217D01*
X85069Y35915D02*
Y36211D01*
X80354Y23543D02*
X80650D01*
X80502Y23396D02*
Y23691D01*
X83583Y26142D02*
X83878D01*
X83730Y25994D02*
Y26289D01*
X72134Y26709D02*
X72430D01*
X72282Y26561D02*
Y26856D01*
X71890Y19606D02*
X72185D01*
X72037Y19459D02*
Y19754D01*
X83858Y30748D02*
X84154D01*
X84006Y30600D02*
Y30896D01*
X71614Y32913D02*
X71909D01*
X71762Y32766D02*
Y33061D01*
X79094Y32047D02*
X79390D01*
X79242Y31900D02*
Y32195D01*
X82835Y21457D02*
X83130D01*
X82982Y21309D02*
Y21604D01*
X75709Y22874D02*
X76004D01*
X75856Y22726D02*
Y23022D01*
X79921Y27087D02*
X80217D01*
X80069Y26939D02*
Y27234D01*
X75787Y29252D02*
X76083D01*
X75935Y29104D02*
Y29400D01*
X74882Y58150D02*
X75177D01*
X75030Y58002D02*
Y58297D01*
X72244Y59606D02*
X72539D01*
X72392Y59459D02*
Y59754D01*
X79803Y59724D02*
X80098D01*
X79951Y59577D02*
Y59872D01*
X81339Y59646D02*
X81634D01*
X81486Y59498D02*
Y59793D01*
X82677Y59646D02*
X82972D01*
X82825Y59498D02*
Y59793D01*
X83898Y59606D02*
X84193D01*
X84045Y59459D02*
Y59754D01*
X80669Y58858D02*
X80965D01*
X80817Y58711D02*
Y59006D01*
X79173Y58898D02*
X79468D01*
X79321Y58750D02*
Y59045D01*
X80945Y53661D02*
X81240D01*
X81093Y53514D02*
Y53809D01*
X71309Y52717D02*
X71604D01*
X71457Y52569D02*
Y52864D01*
X63622Y55197D02*
X63917D01*
X63770Y55049D02*
Y55344D01*
X61388Y54355D02*
X61683D01*
X61535Y54208D02*
Y54503D01*
X74331Y43740D02*
X74626D01*
X74478Y43593D02*
Y43888D01*
X73425Y45157D02*
X73720D01*
X73573Y45010D02*
Y45305D01*
X38474Y71850D02*
X38770D01*
X38622Y71703D02*
Y71998D01*
X23632Y68899D02*
X23927D01*
X23780Y68752D02*
Y69047D01*
X7057Y72677D02*
X7352D01*
X7205Y72530D02*
Y72825D01*
X7057Y71850D02*
X7352D01*
X7205Y71703D02*
Y71998D01*
X15955Y30728D02*
X16250D01*
X16102Y30581D02*
Y30876D01*
X16978Y30728D02*
X17274D01*
X17126Y30581D02*
Y30876D01*
X18002Y30728D02*
X18297D01*
X18150Y30581D02*
Y30876D01*
X14990Y30728D02*
X15285D01*
X15138Y30581D02*
Y30876D01*
X10640Y30728D02*
X10935D01*
X10787Y30581D02*
Y30876D01*
X11663Y30728D02*
X11959D01*
X11811Y30581D02*
Y30876D01*
X12687Y30728D02*
X12982D01*
X12835Y30581D02*
Y30876D01*
X9675Y30728D02*
X9970D01*
X9823Y30581D02*
Y30876D01*
X5089Y30689D02*
X5384D01*
X5236Y30541D02*
Y30837D01*
X6112Y30689D02*
X6407D01*
X6260Y30541D02*
Y30837D01*
X7136Y30689D02*
X7431D01*
X7283Y30541D02*
Y30837D01*
X4124Y30689D02*
X4419D01*
X4272Y30541D02*
Y30837D01*
X14222Y27874D02*
X14518D01*
X14370Y27726D02*
Y28022D01*
X14222Y26831D02*
X14518D01*
X14370Y26683D02*
Y26978D01*
X13140Y27835D02*
X13435D01*
X13287Y27687D02*
Y27982D01*
X13140Y26811D02*
X13435D01*
X13287Y26663D02*
Y26959D01*
X13140Y25787D02*
X13435D01*
X13287Y25640D02*
Y25935D01*
X14222Y25807D02*
X14518D01*
X14370Y25659D02*
Y25955D01*
X14222Y28819D02*
X14518D01*
X14370Y28671D02*
Y28967D01*
X13140Y28799D02*
X13435D01*
X13287Y28652D02*
Y28947D01*
X15325Y28819D02*
X15620D01*
X15472Y28671D02*
Y28967D01*
X15325Y25807D02*
X15620D01*
X15472Y25659D02*
Y25955D01*
X15325Y26831D02*
X15620D01*
X15472Y26683D02*
Y26978D01*
X15325Y27874D02*
X15620D01*
X15472Y27726D02*
Y28022D01*
X16427Y28819D02*
X16722D01*
X16575Y28671D02*
Y28967D01*
X16427Y25807D02*
X16722D01*
X16575Y25659D02*
Y25955D01*
X16427Y26831D02*
X16722D01*
X16575Y26683D02*
Y26978D01*
X16427Y27874D02*
X16722D01*
X16575Y27726D02*
Y28022D01*
X9774Y27913D02*
X10069D01*
X9921Y27766D02*
Y28061D01*
X9774Y26870D02*
X10069D01*
X9921Y26722D02*
Y27018D01*
X9774Y25846D02*
X10069D01*
X9921Y25699D02*
Y25994D01*
X9774Y28858D02*
X10069D01*
X9921Y28711D02*
Y29006D01*
X8671Y27913D02*
X8967D01*
X8819Y27766D02*
Y28061D01*
X8671Y26870D02*
X8967D01*
X8819Y26722D02*
Y27018D01*
X8671Y25846D02*
X8967D01*
X8819Y25699D02*
Y25994D01*
X8671Y28858D02*
X8967D01*
X8819Y28711D02*
Y29006D01*
X6486Y28839D02*
X6781D01*
X6634Y28691D02*
Y28986D01*
X7569Y28858D02*
X7864D01*
X7717Y28711D02*
Y29006D01*
X7569Y25846D02*
X7864D01*
X7717Y25699D02*
Y25994D01*
X6486Y25827D02*
X6781D01*
X6634Y25679D02*
Y25974D01*
X6486Y26850D02*
X6781D01*
X6634Y26703D02*
Y26998D01*
X6486Y27874D02*
X6781D01*
X6634Y27726D02*
Y28022D01*
X7569Y26870D02*
X7864D01*
X7717Y26722D02*
Y27018D01*
X7569Y27913D02*
X7864D01*
X7717Y27766D02*
Y28061D01*
X83494Y79872D02*
X83789D01*
X83642Y79724D02*
Y80020D01*
X85768Y82096D02*
X86063D01*
X85915Y81949D02*
Y82244D01*
X85994Y82923D02*
X86289D01*
X86142Y82776D02*
Y83071D01*
X82037Y80148D02*
X82333D01*
X82185Y80000D02*
Y80295D01*
X78809Y79626D02*
X79104D01*
X78957Y79478D02*
Y79774D01*
X79400Y80167D02*
X79695D01*
X79547Y80020D02*
Y80315D01*
X65142Y53252D02*
X65437D01*
X65289Y53105D02*
Y53400D01*
X80138Y50354D02*
X80433D01*
X80285Y50207D02*
Y50502D01*
X76968Y46181D02*
X77264D01*
X77116Y46033D02*
Y46329D01*
X72008Y51309D02*
X72303D01*
X72155Y51161D02*
Y51457D01*
X78218Y47589D02*
X78514D01*
X78366Y47441D02*
Y47736D01*
X76781Y48337D02*
X77077D01*
X76929Y48189D02*
Y48484D01*
X75482Y50148D02*
X75778D01*
X75630Y50000D02*
Y50295D01*
X24602Y53567D02*
X24897D01*
X24749Y53419D02*
Y53715D01*
X42984Y53508D02*
X43280D01*
X43132Y53360D02*
Y53656D01*
X40089Y51798D02*
X40384D01*
X40236Y51651D02*
Y51946D01*
X39823Y53472D02*
X40118D01*
X39970Y53324D02*
Y53619D01*
X60955Y51789D02*
X61250D01*
X61102Y51641D02*
Y51936D01*
X42215Y52192D02*
X42510D01*
X42362Y52045D02*
Y52340D01*
X76654Y40108D02*
X76949D01*
X76801Y39961D02*
Y40256D01*
X77549Y51811D02*
X77844D01*
X77697Y51663D02*
Y51959D01*
X81949Y51644D02*
X82244D01*
X82096Y51496D02*
Y51791D01*
X76890Y51624D02*
X77185D01*
X77037Y51476D02*
Y51772D01*
X74075Y53238D02*
X74370D01*
X74222Y53091D02*
Y53386D01*
X74990Y51929D02*
X75285D01*
X75138Y51782D02*
Y52077D01*
X63829Y85984D02*
X64124D01*
X63976Y85837D02*
Y86132D01*
X67195Y86644D02*
X67490D01*
X67343Y86496D02*
Y86791D01*
X61457Y86575D02*
X61752D01*
X61604Y86427D02*
Y86722D01*
X55459Y86457D02*
X55755D01*
X55607Y86309D02*
Y86604D01*
X69591Y79849D02*
X69886D01*
X69738Y79701D02*
Y79997D01*
X60577Y79179D02*
X60873D01*
X60725Y79031D02*
Y79327D01*
X56394Y80774D02*
X56690D01*
X56542Y80626D02*
Y80921D01*
X56672Y76660D02*
X56967D01*
X56819Y76512D02*
Y76807D01*
X57963Y69380D02*
X58258D01*
X58110Y69232D02*
Y69528D01*
X81260Y65541D02*
X81555D01*
X81407Y65394D02*
Y65689D01*
X76112Y64803D02*
X76407D01*
X76260Y64656D02*
Y64951D01*
X74282Y67480D02*
X74577D01*
X74429Y67333D02*
Y67628D01*
X77726Y68799D02*
X78022D01*
X77874Y68652D02*
Y68947D01*
X78770Y65069D02*
X79065D01*
X78917Y64921D02*
Y65217D01*
X79183Y67116D02*
X79478D01*
X79331Y66968D02*
Y67264D01*
X75807Y70886D02*
X76102D01*
X75955Y70738D02*
Y71033D01*
X74094Y71457D02*
X74390D01*
X74242Y71309D02*
Y71604D01*
X71998Y75000D02*
X72293D01*
X72146Y74852D02*
Y75148D01*
X70423Y76821D02*
X70718D01*
X70571Y76673D02*
Y76968D01*
X71162Y73563D02*
X71457D01*
X71310Y73415D02*
Y73710D01*
X61919Y74094D02*
X62215D01*
X62067Y73947D02*
Y74242D01*
X60138Y76660D02*
X60433D01*
X60286Y76512D02*
Y76807D01*
X57943Y73307D02*
X58238D01*
X58091Y73159D02*
Y73455D01*
X62746Y63110D02*
X63041D01*
X62894Y62963D02*
Y63258D01*
X69006Y57844D02*
X69301D01*
X69154Y57697D02*
Y57992D01*
X65276Y57894D02*
X65571D01*
X65423Y57746D02*
Y58041D01*
X67216Y65915D02*
X67511D01*
X67363Y65768D02*
Y66063D01*
X60542Y68595D02*
X60837D01*
X60690Y68447D02*
Y68743D01*
X57746Y85896D02*
X58041D01*
X57894Y85748D02*
Y86043D01*
X69075Y85994D02*
X69370D01*
X69222Y85846D02*
Y86142D01*
X80974Y57326D02*
X81270D01*
X81122Y57178D02*
Y57474D01*
X79468Y54411D02*
X79764D01*
X79616Y54263D02*
Y54559D01*
X76968Y54058D02*
X77264D01*
X77116Y53911D02*
Y54206D01*
X74656Y53858D02*
X74951D01*
X74803Y53711D02*
Y54006D01*
X74951Y56063D02*
X75246D01*
X75098Y55915D02*
Y56211D01*
X79911Y52913D02*
X80207D01*
X80059Y52766D02*
Y53061D01*
X77736Y52904D02*
X78032D01*
X77884Y52756D02*
Y53051D01*
X80706Y34823D02*
X80986D01*
X80846Y34683D02*
Y34963D01*
X11348Y79449D02*
X11644D01*
X11496Y79301D02*
Y79596D01*
X4469Y78612D02*
X4764D01*
X4616Y78465D02*
Y78760D01*
X6565Y79892D02*
X6860D01*
X6713Y79744D02*
Y80039D01*
X7392Y82677D02*
X7687D01*
X7539Y82530D02*
Y82825D01*
X18858Y72520D02*
X19154D01*
X19006Y72372D02*
Y72667D01*
X10561Y74183D02*
X10856D01*
X10709Y74035D02*
Y74331D01*
X14646Y76004D02*
X14941D01*
X14793Y75856D02*
Y76152D01*
X13809Y74331D02*
X14104D01*
X13957Y74183D02*
Y74478D01*
X16565Y74094D02*
X16860D01*
X16713Y73947D02*
Y74242D01*
X10512Y77953D02*
X10807D01*
X10659Y77805D02*
Y78100D01*
X8996Y76407D02*
X9291D01*
X9144Y76260D02*
Y76555D01*
X5984Y77451D02*
X6280D01*
X6132Y77303D02*
Y77598D01*
X8907Y80984D02*
X9203D01*
X9055Y80837D02*
Y81132D01*
X8287Y78524D02*
X8583D01*
X8435Y78376D02*
Y78671D01*
X13002Y77717D02*
X13297D01*
X13150Y77569D02*
Y77864D01*
X11968Y76093D02*
X12264D01*
X12116Y75945D02*
Y76240D01*
X65482Y9744D02*
X65778D01*
X65630Y9596D02*
Y9892D01*
X65482Y8957D02*
X65778D01*
X65630Y8809D02*
Y9104D01*
X65482Y8169D02*
X65778D01*
X65630Y8022D02*
Y8317D01*
X65482Y7411D02*
X65778D01*
X65630Y7264D02*
Y7559D01*
X69026Y9843D02*
X69321D01*
X69173Y9695D02*
Y9990D01*
X69026Y9055D02*
X69321D01*
X69173Y8907D02*
Y9203D01*
X69026Y8268D02*
X69321D01*
X69173Y8120D02*
Y8415D01*
X69026Y7480D02*
X69321D01*
X69173Y7333D02*
Y7628D01*
X68442Y10176D02*
X68738D01*
X68590Y10028D02*
Y10323D01*
X67655Y10176D02*
X67950D01*
X67803Y10028D02*
Y10323D01*
X66868Y10176D02*
X67163D01*
X67015Y10028D02*
Y10323D01*
X66080Y10176D02*
X66375D01*
X66228Y10028D02*
Y10323D01*
X66126Y7246D02*
X66421D01*
X66274Y7098D02*
Y7393D01*
X66914Y7246D02*
X67209D01*
X67061Y7098D02*
Y7393D01*
X67701Y7246D02*
X67996D01*
X67849Y7098D02*
Y7393D01*
X68488Y7246D02*
X68784D01*
X68636Y7098D02*
Y7393D01*
X46987Y9744D02*
X47282D01*
X47134Y9596D02*
Y9892D01*
X46987Y8957D02*
X47282D01*
X47134Y8809D02*
Y9104D01*
X46987Y8169D02*
X47282D01*
X47134Y8022D02*
Y8317D01*
X46987Y7411D02*
X47282D01*
X47134Y7264D02*
Y7559D01*
X50530Y9843D02*
X50825D01*
X50678Y9695D02*
Y9990D01*
X50530Y9055D02*
X50825D01*
X50678Y8907D02*
Y9203D01*
X50530Y8268D02*
X50825D01*
X50678Y8120D02*
Y8415D01*
X50530Y7480D02*
X50825D01*
X50678Y7333D02*
Y7628D01*
X49947Y10176D02*
X50242D01*
X50094Y10028D02*
Y10323D01*
X49159Y10176D02*
X49455D01*
X49307Y10028D02*
Y10323D01*
X48372Y10176D02*
X48667D01*
X48519Y10028D02*
Y10323D01*
X47584Y10176D02*
X47880D01*
X47732Y10028D02*
Y10323D01*
X47631Y7246D02*
X47926D01*
X47778Y7098D02*
Y7393D01*
X48418Y7246D02*
X48713D01*
X48566Y7098D02*
Y7393D01*
X49205Y7246D02*
X49501D01*
X49353Y7098D02*
Y7393D01*
X49993Y7246D02*
X50288D01*
X50140Y7098D02*
Y7393D01*
X31500Y7246D02*
X31795D01*
X31648Y7098D02*
Y7393D01*
X30713Y7246D02*
X31008D01*
X30860Y7098D02*
Y7393D01*
X29925Y7246D02*
X30221D01*
X30073Y7098D02*
Y7393D01*
X29138Y7246D02*
X29433D01*
X29286Y7098D02*
Y7393D01*
X29092Y10176D02*
X29387D01*
X29240Y10028D02*
Y10323D01*
X29879Y10176D02*
X30175D01*
X30027Y10028D02*
Y10323D01*
X30667Y10176D02*
X30962D01*
X30814Y10028D02*
Y10323D01*
X31454Y10176D02*
X31749D01*
X31602Y10028D02*
Y10323D01*
X32037Y7480D02*
X32333D01*
X32185Y7333D02*
Y7628D01*
X32037Y8268D02*
X32333D01*
X32185Y8120D02*
Y8415D01*
X32037Y9055D02*
X32333D01*
X32185Y8907D02*
Y9203D01*
X32037Y9843D02*
X32333D01*
X32185Y9695D02*
Y9990D01*
X28494Y7411D02*
X28789D01*
X28642Y7264D02*
Y7559D01*
X28494Y8169D02*
X28789D01*
X28642Y8022D02*
Y8317D01*
X28494Y8957D02*
X28789D01*
X28642Y8809D02*
Y9104D01*
X28494Y9744D02*
X28789D01*
X28642Y9596D02*
Y9892D01*
X47746Y91447D02*
X48041D01*
X47894Y91299D02*
Y91594D01*
X47844Y89855D02*
X48140D01*
X47992Y89707D02*
Y90002D01*
X47844Y88510D02*
X48140D01*
X47992Y88362D02*
Y88657D01*
X47844Y86722D02*
X48140D01*
X47992Y86575D02*
Y86870D01*
M02*
