G04*
G04 #@! TF.GenerationSoftware,Altium Limited,Altium Designer,20.2.4 (192)*
G04*
G04 Layer_Color=32768*
%FSLAX24Y24*%
%MOIN*%
G70*
G04*
G04 #@! TF.SameCoordinates,88804F16-18CD-4051-863E-DBC97BB31399*
G04*
G04*
G04 #@! TF.FilePolarity,Positive*
G04*
G01*
G75*
%ADD10C,0.0197*%
%ADD11C,0.0079*%
%ADD14C,0.0039*%
%ADD15C,0.0394*%
%ADD128C,0.0050*%
%ADD130C,0.0020*%
%ADD131C,0.1181*%
D10*
X9443Y35315D02*
G03*
X9443Y35315I-100J0D01*
G01*
X47815Y50787D02*
G03*
X47815Y50787I-79J0D01*
G01*
D11*
X7081Y62246D02*
G03*
X7081Y62246I-39J0D01*
G01*
X5205Y56224D02*
G03*
X5205Y56224I-39J0D01*
G01*
X11031Y54871D02*
G03*
X11031Y54871I-50J0D01*
G01*
X10160Y52363D02*
G03*
X10160Y52363I-50J0D01*
G01*
X38902Y28044D02*
G03*
X38902Y28044I-50J0D01*
G01*
X12261Y44632D02*
G03*
X12261Y44632I-39J0D01*
G01*
D14*
X7957Y41890D02*
G03*
X7957Y41890I-4J0D01*
G01*
X4765Y48515D02*
G03*
X4765Y48515I-4J0D01*
G01*
X5978Y43789D02*
G03*
X5978Y43789I-4J0D01*
G01*
X26330Y6598D02*
G03*
X26330Y6598I-20J0D01*
G01*
X30032Y6548D02*
G03*
X30032Y6548I-20J0D01*
G01*
X3293Y35065D02*
X9593D01*
X3293D02*
Y41364D01*
X9593D01*
Y35065D02*
Y41364D01*
X43106Y57145D02*
X51956D01*
X43106D02*
Y62854D01*
X51956D01*
Y57145D02*
Y62854D01*
X52095Y57145D02*
X60946D01*
X52095D02*
Y62854D01*
X60946D01*
Y57145D02*
Y62854D01*
X1600Y58024D02*
X22876D01*
X1600D02*
Y65622D01*
X22876D01*
Y58024D02*
Y65622D01*
X41361Y53435D02*
Y64459D01*
X25810D02*
X41361D01*
X25810Y53435D02*
Y64459D01*
Y53435D02*
X41361D01*
X10110Y47037D02*
Y52363D01*
X6606Y47037D02*
X10110D01*
X6606D02*
Y52363D01*
X10110D01*
X2532Y26830D02*
X8910D01*
X2532D02*
Y31948D01*
X8910D01*
Y26830D02*
Y31948D01*
X2704Y21178D02*
X9909D01*
X2704D02*
Y26690D01*
X9909D01*
Y21178D02*
Y26690D01*
X2704Y21178D02*
X9909D01*
X2704D02*
Y26690D01*
X9909D01*
Y21178D02*
Y26690D01*
X2704Y15078D02*
X9909D01*
X2704D02*
Y20590D01*
X9909D01*
Y15078D02*
Y20590D01*
X2704Y15078D02*
X9909D01*
X2704D02*
Y20590D01*
X9909D01*
Y15078D02*
Y20590D01*
X2704Y9028D02*
X9909D01*
X2704D02*
Y14540D01*
X9909D01*
Y9028D02*
Y14540D01*
X2704Y9028D02*
X9909D01*
X2704D02*
Y14540D01*
X9909D01*
Y9028D02*
Y14540D01*
X54008Y32497D02*
Y54298D01*
X50559Y32497D02*
X54008D01*
X50559D02*
Y54298D01*
X54008D01*
D15*
X12292Y24369D02*
G03*
X12292Y24369I-71J0D01*
G01*
X22410Y64812D02*
G03*
X22410Y64812I-112J0D01*
G01*
X41142Y53694D02*
G03*
X41142Y53694I-71J0D01*
G01*
X9677Y21584D02*
G03*
X9677Y21584I-71J0D01*
G01*
Y15484D02*
G03*
X9677Y15484I-71J0D01*
G01*
Y9434D02*
G03*
X9677Y9434I-71J0D01*
G01*
X53454Y53606D02*
G03*
X53454Y53606I-71J0D01*
G01*
D128*
X187Y48856D02*
G03*
X187Y48856I-2J0D01*
G01*
X1262Y49624D02*
G03*
X1262Y49624I-2J0D01*
G01*
X6884Y41558D02*
G03*
X6884Y41558I-2J0D01*
G01*
X42726Y36235D02*
G03*
X42726Y36235I-2J0D01*
G01*
X48100Y36246D02*
G03*
X48100Y36246I-2J0D01*
G01*
X42738Y40449D02*
G03*
X42738Y40449I-2J0D01*
G01*
X48100Y40460D02*
G03*
X48100Y40460I-2J0D01*
G01*
X42738Y44673D02*
G03*
X42738Y44673I-2J0D01*
G01*
X48100Y44605D02*
G03*
X48100Y44605I-2J0D01*
G01*
X42738Y48877D02*
G03*
X42738Y48877I-2J0D01*
G01*
X48100Y48810D02*
G03*
X48100Y48810I-2J0D01*
G01*
X77864Y11364D02*
G03*
X77864Y11364I-2J0D01*
G01*
Y10813D02*
G03*
X77864Y10813I-2J0D01*
G01*
X5730Y61555D02*
G03*
X5730Y61555I-2J0D01*
G01*
X8426Y61280D02*
G03*
X8426Y61280I-2J0D01*
G01*
X25506Y6035D02*
G03*
X25506Y6035I-2J0D01*
G01*
X29006Y5889D02*
G03*
X29006Y5889I-2J0D01*
G01*
X51063Y52133D02*
G03*
X51063Y52133I-2J0D01*
G01*
X2140Y24415D02*
G03*
X2140Y24415I-2J0D01*
G01*
X2191Y18215D02*
G03*
X2191Y18215I-2J0D01*
G01*
X2140Y12215D02*
G03*
X2140Y12215I-2J0D01*
G01*
X14308Y54654D02*
G03*
X14308Y54654I-2J0D01*
G01*
X9315Y62382D02*
G03*
X9315Y62382I-2J0D01*
G01*
X6662Y33222D02*
G03*
X6662Y33222I-2J0D01*
G01*
X73171Y10610D02*
G03*
X73171Y10610I-2J0D01*
G01*
X72384Y12972D02*
G03*
X72384Y12972I-2J0D01*
G01*
X74825Y13878D02*
G03*
X74825Y13878I-2J0D01*
G01*
X75337Y10610D02*
G03*
X75337Y10610I-2J0D01*
G01*
X9348Y34081D02*
G03*
X9348Y34081I-2J0D01*
G01*
X5491Y41569D02*
G03*
X5491Y41569I-2J0D01*
G01*
X2821Y56367D02*
G03*
X2821Y56367I-2J0D01*
G01*
X7699Y57106D02*
G03*
X7699Y57106I-2J0D01*
G01*
X9785Y57539D02*
G03*
X9785Y57539I-2J0D01*
G01*
X25730Y5297D02*
G03*
X25730Y5297I-2J0D01*
G01*
X47421Y52164D02*
G03*
X47421Y52164I-2J0D01*
G01*
X48729Y52147D02*
G03*
X48729Y52147I-2J0D01*
G01*
X51257Y52103D02*
G03*
X51257Y52103I-2J0D01*
G01*
X25576Y6189D02*
G03*
X25576Y6189I-2J0D01*
G01*
X13426Y54654D02*
G03*
X13426Y54654I-2J0D01*
G01*
X14071Y55483D02*
G03*
X14071Y55483I-2J0D01*
G01*
X5100Y61594D02*
G03*
X5100Y61594I-2J0D01*
G01*
X5297Y59528D02*
G03*
X5297Y59528I-2J0D01*
G01*
X16222Y61043D02*
G03*
X16222Y61043I-2J0D01*
G01*
X14215Y60650D02*
G03*
X14215Y60650I-2J0D01*
G01*
X5990Y55703D02*
G03*
X5990Y55703I-2J0D01*
G01*
X4915Y50538D02*
G03*
X4915Y50538I-2J0D01*
G01*
X6454Y49864D02*
G03*
X6454Y49864I-2J0D01*
G01*
X4734Y48006D02*
G03*
X4734Y48006I-2J0D01*
G01*
X6299Y47324D02*
G03*
X6299Y47324I-2J0D01*
G01*
X9896Y46045D02*
G03*
X9896Y46045I-2J0D01*
G01*
X5051Y44634D02*
G03*
X5051Y44634I-2J0D01*
G01*
X37135Y29500D02*
G03*
X37135Y29500I-2J0D01*
G01*
X37741Y30200D02*
G03*
X37741Y30200I-2J0D01*
G01*
X15071Y23285D02*
G03*
X15071Y23285I-2J0D01*
G01*
X2540Y23703D02*
G03*
X2540Y23703I-2J0D01*
G01*
Y17503D02*
G03*
X2540Y17503I-2J0D01*
G01*
Y11553D02*
G03*
X2540Y11553I-2J0D01*
G01*
X29407Y5597D02*
G03*
X29407Y5597I-2J0D01*
G01*
X28370Y6467D02*
G03*
X28370Y6467I-2J0D01*
G01*
X9123Y44212D02*
G03*
X9123Y44212I-2J0D01*
G01*
X27226Y25133D02*
G03*
X27226Y25133I-2J0D01*
G01*
X4521Y54904D02*
G03*
X4521Y54904I-2J0D01*
G01*
X43231Y46279D02*
G03*
X43231Y46279I-2J0D01*
G01*
X48532Y46275D02*
G03*
X48532Y46275I-2J0D01*
G01*
X43181Y42095D02*
G03*
X43181Y42095I-2J0D01*
G01*
X48532Y42029D02*
G03*
X48532Y42029I-2J0D01*
G01*
X43181Y37801D02*
G03*
X43181Y37801I-2J0D01*
G01*
X48532Y37912D02*
G03*
X48532Y37912I-2J0D01*
G01*
X43170Y33687D02*
G03*
X43170Y33687I-2J0D01*
G01*
X48532Y33618D02*
G03*
X48532Y33618I-2J0D01*
G01*
D130*
X43019Y34855D02*
G03*
X43019Y34855I-1772J0D01*
G01*
X48393Y34866D02*
G03*
X48393Y34866I-1772J0D01*
G01*
X43031Y39069D02*
G03*
X43031Y39069I-1772J0D01*
G01*
X48393Y39080D02*
G03*
X48393Y39080I-1772J0D01*
G01*
X43031Y43293D02*
G03*
X43031Y43293I-1772J0D01*
G01*
X48393Y43225D02*
G03*
X48393Y43225I-1772J0D01*
G01*
X43031Y47497D02*
G03*
X43031Y47497I-1772J0D01*
G01*
X48393Y47430D02*
G03*
X48393Y47430I-1772J0D01*
G01*
X10190Y44665D02*
G03*
X10190Y44665I-1772J0D01*
G01*
X2431Y46573D02*
Y49427D01*
X1092Y46573D02*
X2431D01*
X1092D02*
Y49427D01*
X2431D01*
X185Y48858D02*
Y50197D01*
X972D01*
Y48858D02*
Y50197D01*
X185Y48858D02*
X972D01*
X1260Y49626D02*
Y50965D01*
X2047D01*
Y49626D02*
Y50965D01*
X1260Y49626D02*
X2047D01*
X6882Y41560D02*
Y42151D01*
X5740D02*
X6882D01*
X5740Y41560D02*
Y42151D01*
Y41560D02*
X6882D01*
X77864Y10996D02*
Y11366D01*
X77136Y10996D02*
X77864D01*
X77136D02*
Y11366D01*
X77864D01*
Y10445D02*
Y10815D01*
X77136Y10445D02*
X77864D01*
X77136D02*
Y10815D01*
X77864D01*
X5728Y61555D02*
X6634D01*
Y61988D01*
X5728D02*
X6634D01*
X5728Y61555D02*
Y61988D01*
X8424Y61280D02*
X9330D01*
Y61713D01*
X8424D02*
X9330D01*
X8424Y61280D02*
Y61713D01*
X25136Y6037D02*
X25506D01*
X25136Y5309D02*
Y6037D01*
Y5309D02*
X25506D01*
Y6037D01*
X28636Y5891D02*
X29006D01*
X28636Y5163D02*
Y5891D01*
Y5163D02*
X29006D01*
Y5891D01*
X51063Y51765D02*
Y52135D01*
X50334Y51765D02*
X51063D01*
X50334D02*
Y52135D01*
X51063D01*
X2136Y24413D02*
X2506D01*
Y25141D01*
X2136D02*
X2506D01*
X2136Y24413D02*
Y25141D01*
X2186Y18213D02*
X2556D01*
Y18941D01*
X2186D02*
X2556D01*
X2186Y18213D02*
Y18941D01*
X2136Y12213D02*
X2506D01*
Y12941D01*
X2136D02*
X2506D01*
X2136Y12213D02*
Y12941D01*
X14308Y54287D02*
Y54657D01*
X13580Y54287D02*
X14308D01*
X13580D02*
Y54657D01*
X14308D01*
X8407Y62382D02*
X9313D01*
X8407Y61949D02*
Y62382D01*
Y61949D02*
X9313D01*
Y62382D01*
X6791Y61063D02*
X8287D01*
X6791D02*
Y62480D01*
X8287D01*
Y61063D02*
Y62480D01*
X6660Y33224D02*
Y34846D01*
X7495D01*
Y33224D02*
Y34846D01*
X6660Y33224D02*
X7495D01*
X73169Y10610D02*
Y11516D01*
X73602D01*
Y10610D02*
Y11516D01*
X73169Y10610D02*
X73602D01*
X72382Y12972D02*
Y13878D01*
X72815D01*
Y12972D02*
Y13878D01*
X72382Y12972D02*
X72815D01*
X74823D02*
Y13878D01*
X74390Y12972D02*
X74823D01*
X74390D02*
Y13878D01*
X74823D01*
X75335Y10610D02*
Y11516D01*
X75768D01*
Y10610D02*
Y11516D01*
X75335Y10610D02*
X75768D01*
X9114Y33352D02*
Y33943D01*
X7933D02*
X9114D01*
X7933Y33352D02*
Y33943D01*
Y33352D02*
X9114D01*
X7722Y34081D02*
X9344D01*
X7722D02*
Y34915D01*
X9344D01*
Y34081D02*
Y34915D01*
X5487Y41569D02*
Y42270D01*
X4330D02*
X5487D01*
X4330Y41569D02*
Y42270D01*
Y41569D02*
X5487D01*
X8661Y41526D02*
Y42254D01*
X7244D02*
X8661D01*
X7244Y41526D02*
Y42254D01*
Y41526D02*
X8661D01*
X5470Y48151D02*
Y48879D01*
X4052D02*
X5470D01*
X4052Y48151D02*
Y48879D01*
Y48151D02*
X5470D01*
X5610Y43081D02*
X6339D01*
Y44498D01*
X5610D02*
X6339D01*
X5610Y43081D02*
Y44498D01*
X2819Y55933D02*
Y56367D01*
Y55933D02*
X3724D01*
Y56367D01*
X2819D02*
X3724D01*
X3920Y55041D02*
Y56459D01*
X5417D01*
Y55041D02*
Y56459D01*
X3920Y55041D02*
X5417D01*
X7697Y57106D02*
Y57539D01*
X8602D01*
Y57106D02*
Y57539D01*
X7697Y57106D02*
X8602D01*
X9783D02*
Y57539D01*
X8878Y57106D02*
X9783D01*
X8878D02*
Y57539D01*
X9783D01*
X27728Y5102D02*
Y6598D01*
X26311Y5102D02*
X27728D01*
X26311D02*
Y6598D01*
X27728D01*
X25728Y5297D02*
X26161D01*
Y6203D01*
X25728D02*
X26161D01*
X25728Y5297D02*
Y6203D01*
X46826Y52164D02*
X47417D01*
X46826D02*
Y53306D01*
X47417D01*
Y52164D02*
Y53306D01*
X48727Y51555D02*
Y52145D01*
X47585Y51555D02*
X48727D01*
X47585D02*
Y52145D01*
X48727D01*
X51255Y52103D02*
X51688D01*
Y51197D02*
Y52103D01*
X51255Y51197D02*
X51688D01*
X51255D02*
Y52103D01*
X24669Y6189D02*
X25574D01*
X24669D02*
Y6622D01*
X25574D01*
Y6189D02*
Y6622D01*
X47593Y52287D02*
Y56913D01*
Y52287D02*
X51849D01*
Y56913D01*
X47593D02*
X51849D01*
X13424Y54221D02*
Y54654D01*
X12519Y54221D02*
X13424D01*
X12519D02*
Y54654D01*
X13424D01*
X10972Y54867D02*
Y57033D01*
X13906D01*
Y54867D02*
Y57033D01*
X10972Y54867D02*
X13906D01*
X14068Y55483D02*
Y55917D01*
X14974D01*
Y55483D02*
Y55917D01*
X14068Y55483D02*
X14974D01*
X5098Y61594D02*
X5531D01*
Y60689D02*
Y61594D01*
X5098Y60689D02*
X5531D01*
X5098D02*
Y61594D01*
X4862Y59528D02*
X5295D01*
X4862D02*
Y60433D01*
X5295D01*
Y59528D02*
Y60433D01*
X16220Y60610D02*
Y61043D01*
X15315Y60610D02*
X16220D01*
X15315D02*
Y61043D01*
X16220D01*
X14213Y60650D02*
Y61083D01*
X15118D01*
Y60650D02*
Y61083D01*
X14213Y60650D02*
X15118D01*
X5555Y55703D02*
X5988D01*
X5555Y54797D02*
Y55703D01*
Y54797D02*
X5988D01*
Y55703D01*
X4913Y50540D02*
X5748D01*
Y52162D01*
X4913D02*
X5748D01*
X4913Y50540D02*
Y52162D01*
X6477Y50124D02*
Y51306D01*
X5886Y50124D02*
X6477D01*
X5886D02*
Y51306D01*
X6477D01*
X5618Y49862D02*
X6452D01*
X5618Y48240D02*
Y49862D01*
Y48240D02*
X6452D01*
Y49862D01*
X4140Y48006D02*
X4730D01*
X4140Y46864D02*
Y48006D01*
Y46864D02*
X4730D01*
Y48006D01*
X5137Y47324D02*
X6295D01*
X5137D02*
Y48025D01*
X6295D01*
Y47324D02*
Y48025D01*
X5049Y44636D02*
X5837D01*
Y45974D01*
X5049D02*
X5837D01*
X5049Y44636D02*
Y45974D01*
X35974Y29500D02*
X37131D01*
X35974D02*
Y30200D01*
X37131D01*
Y29500D02*
Y30200D01*
X37741D02*
X38898D01*
Y29500D02*
Y30200D01*
X37741Y29500D02*
X38898D01*
X37741D02*
Y30200D01*
X15069Y22852D02*
Y23285D01*
Y22852D02*
X15974D01*
Y23285D01*
X15069D02*
X15974D01*
X2105Y23703D02*
X2538D01*
X2105Y22797D02*
Y23703D01*
Y22797D02*
X2538D01*
Y23703D01*
X2105Y17503D02*
X2538D01*
X2105Y16597D02*
Y17503D01*
Y16597D02*
X2538D01*
Y17503D01*
X2105Y11553D02*
X2538D01*
X2105Y10647D02*
Y11553D01*
Y10647D02*
X2538D01*
Y11553D01*
X30013Y6548D02*
X31430D01*
X30013Y5052D02*
Y6548D01*
Y5052D02*
X31430D01*
Y6548D01*
X29405Y5597D02*
X29838D01*
Y6503D01*
X29405D02*
X29838D01*
X29405Y5597D02*
Y6503D01*
X28368Y6033D02*
Y6467D01*
Y6033D02*
X29274D01*
Y6467D01*
X28368D02*
X29274D01*
X9121Y44210D02*
X9822D01*
Y43052D02*
Y44210D01*
X9121Y43052D02*
X9822D01*
X9121D02*
Y44210D01*
X26319Y25133D02*
X27224D01*
X26319D02*
Y25567D01*
X27224D01*
Y25133D02*
Y25567D01*
X4518Y54904D02*
X5424D01*
Y54471D02*
Y54904D01*
X4518Y54471D02*
X5424D01*
X4518D02*
Y54904D01*
X36404Y29273D02*
X39239D01*
X36404Y25907D02*
Y29273D01*
Y25907D02*
X39239D01*
Y29273D01*
X10647Y42018D02*
Y44814D01*
Y42018D02*
X12395D01*
Y44814D01*
X10647D02*
X12395D01*
X43229Y46281D02*
X44489D01*
Y48820D01*
X43229D02*
X44489D01*
X43229Y46281D02*
Y48820D01*
X48530Y46277D02*
X49790D01*
Y48816D01*
X48530D02*
X49790D01*
X48530Y46277D02*
Y48816D01*
X42283Y50394D02*
X47992D01*
X42283D02*
Y55709D01*
X47992D01*
Y50394D02*
Y55709D01*
X43179Y42097D02*
X44439D01*
Y44637D01*
X43179D02*
X44439D01*
X43179Y42097D02*
Y44637D01*
X48530Y42031D02*
X49790D01*
Y44571D01*
X48530D02*
X49790D01*
X48530Y42031D02*
Y44571D01*
X43179Y37803D02*
X44439D01*
Y40343D01*
X43179D02*
X44439D01*
X43179Y37803D02*
Y40343D01*
X48530Y37914D02*
X49790D01*
Y40453D01*
X48530D02*
X49790D01*
X48530Y37914D02*
Y40453D01*
X43168Y33689D02*
X44428D01*
Y36228D01*
X43168D02*
X44428D01*
X43168Y33689D02*
Y36228D01*
X48530Y33620D02*
X49790D01*
Y36160D01*
X48530D02*
X49790D01*
X48530Y33620D02*
Y36160D01*
D131*
X46122Y6994D02*
G03*
X46122Y6994I-591J0D01*
G01*
M02*
