G04*
G04 #@! TF.GenerationSoftware,Altium Limited,Altium Designer,20.2.4 (192)*
G04*
G04 Layer_Color=255*
%FSLAX24Y24*%
%MOIN*%
G70*
G04*
G04 #@! TF.SameCoordinates,88804F16-18CD-4051-863E-DBC97BB31399*
G04*
G04*
G04 #@! TF.FilePolarity,Positive*
G04*
G01*
G75*
%ADD19R,0.0315X0.0394*%
%ADD22R,0.0236X0.0276*%
%ADD28R,0.0276X0.0236*%
%ADD29R,0.0394X0.0236*%
%ADD32R,0.0394X0.0315*%
%ADD93C,0.1520*%
%ADD94C,0.0610*%
%ADD95C,0.0866*%
%ADD96R,0.0512X0.0512*%
%ADD97C,0.0551*%
%ADD98R,0.0512X0.0512*%
%ADD99C,0.0512*%
%ADD100C,0.0630*%
%ADD101C,0.1260*%
%ADD102C,0.0768*%
%ADD103C,0.1575*%
%ADD104C,0.0669*%
%ADD105C,0.1907*%
%ADD106C,0.0886*%
%ADD107R,0.0700X0.0700*%
%ADD108C,0.0700*%
%ADD109R,0.0433X0.0433*%
%ADD110C,0.0433*%
%ADD111C,0.0709*%
%ADD112C,0.1417*%
%ADD113C,0.0787*%
%ADD114R,0.0596X0.0596*%
%ADD115C,0.0596*%
%ADD116C,0.0984*%
%ADD118R,0.0256X0.0252*%
%ADD119R,0.0256X0.0709*%
%ADD120R,0.0701X0.0283*%
%ADD121R,0.0654X0.0567*%
%ADD122R,0.0846X0.0866*%
D19*
X47841Y51850D02*
D03*
X48471D02*
D03*
D22*
X51471Y51433D02*
D03*
Y51867D02*
D03*
X5315Y60925D02*
D03*
Y61358D02*
D03*
X5079Y60197D02*
D03*
Y59764D02*
D03*
D28*
X5965Y61772D02*
D03*
X6398D02*
D03*
X8661Y61496D02*
D03*
X9094D02*
D03*
X9076Y62165D02*
D03*
X8643D02*
D03*
X8366Y57323D02*
D03*
X7933D02*
D03*
X9114D02*
D03*
X9547D02*
D03*
X12755Y54438D02*
D03*
X13188D02*
D03*
X14738Y55700D02*
D03*
X14305D02*
D03*
X15551Y60827D02*
D03*
X15984D02*
D03*
X14882Y60866D02*
D03*
X14449D02*
D03*
D29*
X7992Y61398D02*
D03*
Y62146D02*
D03*
X7087Y61772D02*
D03*
D32*
X47121Y53050D02*
D03*
Y52420D02*
D03*
D93*
X57425Y12479D02*
D03*
X68095Y32799D02*
D03*
D94*
X669Y47811D02*
D03*
Y46811D02*
D03*
X82929Y18134D02*
D03*
Y19134D02*
D03*
X83929Y18134D02*
D03*
Y19134D02*
D03*
X84929Y18134D02*
D03*
Y19134D02*
D03*
X81929Y18134D02*
D03*
Y19134D02*
D03*
X79929D02*
D03*
Y18134D02*
D03*
X78929Y19134D02*
D03*
Y18134D02*
D03*
X77929Y19134D02*
D03*
Y18134D02*
D03*
X80929Y19134D02*
D03*
Y18134D02*
D03*
X48721Y24000D02*
D03*
Y23000D02*
D03*
Y22000D02*
D03*
Y21000D02*
D03*
Y20000D02*
D03*
Y19000D02*
D03*
X69588Y12200D02*
D03*
X70588D02*
D03*
X71588D02*
D03*
X72588D02*
D03*
X73588D02*
D03*
X74588D02*
D03*
X75588D02*
D03*
X76588D02*
D03*
X77588D02*
D03*
X5459Y32618D02*
D03*
X4459D02*
D03*
D95*
X85165Y36850D02*
D03*
X77693D02*
D03*
D96*
X41248Y35544D02*
D03*
X46621Y35555D02*
D03*
X41259Y39758D02*
D03*
X46621Y39769D02*
D03*
X41259Y43982D02*
D03*
X46621Y43914D02*
D03*
X41259Y48186D02*
D03*
X46621Y48119D02*
D03*
D97*
X41248Y34166D02*
D03*
X46621Y34177D02*
D03*
X41259Y38380D02*
D03*
X46621Y38391D02*
D03*
X41259Y42604D02*
D03*
X46621Y42536D02*
D03*
X41259Y46808D02*
D03*
X46621Y46741D02*
D03*
D98*
X7943Y36715D02*
D03*
D99*
Y39715D02*
D03*
X4943D02*
D03*
Y38715D02*
D03*
Y37715D02*
D03*
D100*
X28321Y24019D02*
D03*
X27321D02*
D03*
X26321D02*
D03*
X25321D02*
D03*
X24321D02*
D03*
X23321D02*
D03*
X22321D02*
D03*
X21321D02*
D03*
X20321D02*
D03*
X19321D02*
D03*
X18321D02*
D03*
X17321D02*
D03*
X16321D02*
D03*
X15321D02*
D03*
X14321D02*
D03*
X13321D02*
D03*
D101*
X69588Y5200D02*
D03*
X77588D02*
D03*
D102*
X49121Y59350D02*
D03*
X45373D02*
D03*
X58111D02*
D03*
X54363D02*
D03*
D103*
X72491Y46467D02*
D03*
X83121Y61000D02*
D03*
X65371D02*
D03*
X83257Y3351D02*
D03*
X23021Y54900D02*
D03*
X50671Y2100D02*
D03*
X40762Y24019D02*
D03*
Y11656D02*
D03*
X2921Y3000D02*
D03*
D104*
X18781Y58803D02*
D03*
X17691D02*
D03*
X16600D02*
D03*
X15510D02*
D03*
X14419D02*
D03*
X13329D02*
D03*
X12238D02*
D03*
X11148D02*
D03*
X10057D02*
D03*
X8967D02*
D03*
X7876D02*
D03*
X6785D02*
D03*
X5695D02*
D03*
X18236Y59921D02*
D03*
X17146D02*
D03*
X16055D02*
D03*
X14965D02*
D03*
X13874D02*
D03*
X12783D02*
D03*
X11693D02*
D03*
X10602D02*
D03*
X9512D02*
D03*
X8421D02*
D03*
X7331D02*
D03*
X6240D02*
D03*
X8185Y51200D02*
D03*
Y50200D02*
D03*
Y49200D02*
D03*
Y48200D02*
D03*
D105*
X21498Y59362D02*
D03*
X2978D02*
D03*
D106*
X29354Y55994D02*
D03*
Y61900D02*
D03*
X37621D02*
D03*
Y55994D02*
D03*
D107*
X34421Y27400D02*
D03*
Y7400D02*
D03*
D108*
Y28400D02*
D03*
X33421Y27400D02*
D03*
Y28400D02*
D03*
X32421Y27400D02*
D03*
Y28400D02*
D03*
X31421Y27400D02*
D03*
Y28400D02*
D03*
X30421Y27400D02*
D03*
Y28400D02*
D03*
X29421Y27400D02*
D03*
Y28400D02*
D03*
X28421Y27400D02*
D03*
Y28400D02*
D03*
X27421Y27400D02*
D03*
Y28400D02*
D03*
X26421Y27400D02*
D03*
Y28400D02*
D03*
X25421Y27400D02*
D03*
Y28400D02*
D03*
X24421Y27400D02*
D03*
Y28400D02*
D03*
X23421Y27400D02*
D03*
Y28400D02*
D03*
X22421Y27400D02*
D03*
Y28400D02*
D03*
X21421Y27400D02*
D03*
Y28400D02*
D03*
X20421Y27400D02*
D03*
Y28400D02*
D03*
X19421Y27400D02*
D03*
Y28400D02*
D03*
X18421Y27400D02*
D03*
Y28400D02*
D03*
X17421Y27400D02*
D03*
Y28400D02*
D03*
X16421Y27400D02*
D03*
Y28400D02*
D03*
X15421Y27400D02*
D03*
Y28400D02*
D03*
X14421Y27400D02*
D03*
Y28400D02*
D03*
X13421Y27400D02*
D03*
Y28400D02*
D03*
X12421Y27400D02*
D03*
Y28400D02*
D03*
X11421Y27400D02*
D03*
Y28400D02*
D03*
X10421Y27400D02*
D03*
Y28400D02*
D03*
Y8400D02*
D03*
Y7400D02*
D03*
X11421Y8400D02*
D03*
Y7400D02*
D03*
X12421Y8400D02*
D03*
Y7400D02*
D03*
X13421Y8400D02*
D03*
Y7400D02*
D03*
X14421Y8400D02*
D03*
Y7400D02*
D03*
X15421Y8400D02*
D03*
Y7400D02*
D03*
X16421Y8400D02*
D03*
Y7400D02*
D03*
X17421Y8400D02*
D03*
Y7400D02*
D03*
X18421Y8400D02*
D03*
Y7400D02*
D03*
X19421Y8400D02*
D03*
Y7400D02*
D03*
X20421Y8400D02*
D03*
Y7400D02*
D03*
X21421Y8400D02*
D03*
Y7400D02*
D03*
X22421Y8400D02*
D03*
Y7400D02*
D03*
X23421Y8400D02*
D03*
Y7400D02*
D03*
X24421Y8400D02*
D03*
Y7400D02*
D03*
X25421Y8400D02*
D03*
Y7400D02*
D03*
X26421Y8400D02*
D03*
Y7400D02*
D03*
X27421Y8400D02*
D03*
Y7400D02*
D03*
X28421Y8400D02*
D03*
Y7400D02*
D03*
X29421Y8400D02*
D03*
Y7400D02*
D03*
X30421Y8400D02*
D03*
Y7400D02*
D03*
X31421Y8400D02*
D03*
Y7400D02*
D03*
X32421Y8400D02*
D03*
Y7400D02*
D03*
X33421Y8400D02*
D03*
Y7400D02*
D03*
X34421Y8400D02*
D03*
D109*
X8418Y45354D02*
D03*
D110*
Y43976D02*
D03*
D111*
X6706Y30767D02*
D03*
X5721D02*
D03*
X4737D02*
D03*
D112*
X7650Y28011D02*
D03*
X3792D02*
D03*
D113*
X6306Y25706D02*
D03*
Y22163D02*
D03*
Y19606D02*
D03*
Y16063D02*
D03*
Y13556D02*
D03*
Y10013D02*
D03*
D114*
X52283Y53606D02*
D03*
D115*
Y33189D02*
D03*
D116*
X36516Y43122D02*
D03*
Y50996D02*
D03*
X12071Y47650D02*
D03*
Y38595D02*
D03*
D118*
X77313Y11181D02*
D03*
X77677D02*
D03*
X77313Y10630D02*
D03*
X77677D02*
D03*
X50511Y51950D02*
D03*
X50876D02*
D03*
X13757Y54472D02*
D03*
X14121D02*
D03*
D119*
X47971Y56460D02*
D03*
X48471D02*
D03*
X48971D02*
D03*
X49471D02*
D03*
X49971D02*
D03*
X50471D02*
D03*
X50971D02*
D03*
X51471D02*
D03*
Y52740D02*
D03*
X50971D02*
D03*
X50471D02*
D03*
X49971D02*
D03*
X49471D02*
D03*
X48971D02*
D03*
X48471D02*
D03*
X47971D02*
D03*
D120*
X13507Y55200D02*
D03*
Y55700D02*
D03*
Y56200D02*
D03*
Y56700D02*
D03*
X11371D02*
D03*
Y56200D02*
D03*
Y55700D02*
D03*
Y55200D02*
D03*
D121*
X9471Y43250D02*
D03*
Y44030D02*
D03*
D122*
X11521Y44282D02*
D03*
Y42550D02*
D03*
M02*
