G04*
G04 #@! TF.GenerationSoftware,Altium Limited,Altium Designer,20.2.4 (192)*
G04*
G04 Layer_Color=65535*
%FSLAX24Y24*%
%MOIN*%
G70*
G04*
G04 #@! TF.SameCoordinates,88804F16-18CD-4051-863E-DBC97BB31399*
G04*
G04*
G04 #@! TF.FilePolarity,Positive*
G04*
G01*
G75*
%ADD10C,0.0197*%
%ADD11C,0.0079*%
%ADD12C,0.0157*%
%ADD13C,0.0100*%
%ADD14C,0.0039*%
%ADD15C,0.0394*%
%ADD16C,0.0295*%
G36*
X63381Y56650D02*
X63419Y56639D01*
X63463Y56629D01*
X63512Y56607D01*
X63556Y56579D01*
X63605Y56541D01*
X63611Y56536D01*
X63622Y56525D01*
X63649Y56497D01*
X63655Y56492D01*
X63660Y56481D01*
X63682Y56448D01*
X65333Y53588D01*
X65339Y53583D01*
X65344Y53566D01*
X65355Y53534D01*
X65371Y53495D01*
X65382Y53452D01*
X65388Y53397D01*
Y53342D01*
X65382Y53282D01*
Y53277D01*
X65377Y53266D01*
X65371Y53244D01*
X65366Y53222D01*
Y53217D01*
X65361Y53206D01*
X65350Y53189D01*
X65339Y53162D01*
X65333D01*
X65328Y53156D01*
X65317Y53140D01*
X65300Y53113D01*
X65273Y53085D01*
X65240Y53052D01*
X65202Y53020D01*
X65153Y52992D01*
X65098Y52970D01*
X65093D01*
X65076Y52965D01*
X65054Y52959D01*
X65032D01*
X65027Y52954D01*
X65005D01*
X64978Y52949D01*
X61648Y52949D01*
X61615Y52954D01*
X61577Y52965D01*
X61527Y52976D01*
X61478Y52998D01*
X61429Y53025D01*
X61380Y53063D01*
X61374Y53069D01*
X61363Y53080D01*
X61336Y53107D01*
X61331Y53113D01*
X61325Y53124D01*
X61303Y53162D01*
X61298Y53167D01*
X61292Y53184D01*
X61281Y53211D01*
X61265Y53249D01*
X61254Y53293D01*
X61249Y53342D01*
Y53397D01*
X61254Y53457D01*
Y53463D01*
X61260Y53479D01*
X61265Y53501D01*
X61270Y53517D01*
Y53523D01*
X61276Y53534D01*
X61287Y53550D01*
X61298Y53572D01*
Y53577D01*
Y53583D01*
X61303D01*
X62949Y56437D01*
Y56443D01*
X62960Y56454D01*
X62982Y56486D01*
X63026Y56536D01*
X63075Y56579D01*
X63086Y56585D01*
X63108Y56596D01*
X63113Y56601D01*
X63124Y56607D01*
X63146Y56618D01*
X63168Y56629D01*
X63201Y56639D01*
X63239Y56645D01*
X63277Y56656D01*
X63348D01*
X63381Y56650D01*
D02*
G37*
G36*
X46624Y24198D02*
X46628D01*
X46639Y24197D01*
X46650Y24195D01*
X46663Y24193D01*
X46676Y24189D01*
X46689Y24185D01*
X46689D01*
X46690Y24184D01*
X46692Y24184D01*
X46694Y24183D01*
X46700Y24179D01*
X46708Y24175D01*
X46717Y24170D01*
X46725Y24163D01*
X46734Y24156D01*
X46741Y24147D01*
X46743Y24146D01*
X46745Y24143D01*
X46748Y24138D01*
X46753Y24130D01*
X46757Y24122D01*
X46762Y24110D01*
X46767Y24098D01*
X46771Y24084D01*
X46725Y24072D01*
Y24073D01*
X46724Y24073D01*
X46724Y24075D01*
X46723Y24077D01*
X46722Y24082D01*
X46719Y24089D01*
X46716Y24097D01*
X46712Y24104D01*
X46708Y24112D01*
X46703Y24118D01*
X46703Y24119D01*
X46701Y24121D01*
X46698Y24124D01*
X46694Y24128D01*
X46689Y24132D01*
X46682Y24137D01*
X46675Y24141D01*
X46667Y24145D01*
X46665Y24145D01*
X46663Y24147D01*
X46658Y24148D01*
X46651Y24150D01*
X46643Y24152D01*
X46634Y24154D01*
X46624Y24155D01*
X46614Y24155D01*
X46608D01*
X46605Y24155D01*
X46602D01*
X46593Y24154D01*
X46584Y24153D01*
X46573Y24151D01*
X46563Y24148D01*
X46553Y24144D01*
X46552Y24144D01*
X46549Y24143D01*
X46544Y24140D01*
X46539Y24137D01*
X46532Y24133D01*
X46525Y24128D01*
X46518Y24123D01*
X46512Y24117D01*
X46512Y24116D01*
X46509Y24114D01*
X46507Y24110D01*
X46503Y24105D01*
X46500Y24100D01*
X46496Y24093D01*
X46492Y24086D01*
X46488Y24078D01*
Y24078D01*
X46487Y24077D01*
X46487Y24075D01*
X46486Y24072D01*
X46485Y24069D01*
X46483Y24065D01*
X46482Y24060D01*
X46481Y24056D01*
X46478Y24044D01*
X46476Y24031D01*
X46474Y24017D01*
X46473Y24001D01*
Y24001D01*
Y23999D01*
Y23996D01*
X46474Y23993D01*
Y23988D01*
X46475Y23983D01*
X46475Y23977D01*
X46476Y23971D01*
X46478Y23957D01*
X46481Y23943D01*
X46485Y23928D01*
X46491Y23915D01*
Y23914D01*
X46492Y23913D01*
X46492Y23911D01*
X46494Y23909D01*
X46498Y23903D01*
X46504Y23895D01*
X46511Y23887D01*
X46520Y23878D01*
X46531Y23871D01*
X46542Y23863D01*
X46543D01*
X46544Y23863D01*
X46546Y23862D01*
X46548Y23861D01*
X46551Y23860D01*
X46555Y23858D01*
X46564Y23855D01*
X46575Y23852D01*
X46587Y23850D01*
X46601Y23847D01*
X46614Y23847D01*
X46620D01*
X46623Y23847D01*
X46627D01*
X46635Y23848D01*
X46645Y23850D01*
X46655Y23852D01*
X46667Y23855D01*
X46679Y23859D01*
X46679D01*
X46680Y23860D01*
X46682Y23860D01*
X46684Y23861D01*
X46690Y23864D01*
X46697Y23867D01*
X46704Y23871D01*
X46713Y23876D01*
X46720Y23881D01*
X46727Y23886D01*
Y23958D01*
X46614D01*
Y24004D01*
X46777D01*
Y23861D01*
X46776Y23861D01*
X46775Y23860D01*
X46773Y23858D01*
X46770Y23856D01*
X46767Y23854D01*
X46763Y23851D01*
X46758Y23848D01*
X46753Y23845D01*
X46741Y23837D01*
X46728Y23830D01*
X46714Y23822D01*
X46699Y23816D01*
X46699D01*
X46698Y23816D01*
X46695Y23815D01*
X46693Y23814D01*
X46689Y23813D01*
X46684Y23811D01*
X46679Y23810D01*
X46674Y23809D01*
X46662Y23806D01*
X46648Y23804D01*
X46633Y23802D01*
X46618Y23801D01*
X46612D01*
X46608Y23802D01*
X46603D01*
X46597Y23802D01*
X46591Y23804D01*
X46583Y23804D01*
X46567Y23807D01*
X46550Y23811D01*
X46532Y23817D01*
X46523Y23821D01*
X46515Y23825D01*
X46514Y23826D01*
X46512Y23826D01*
X46510Y23828D01*
X46507Y23830D01*
X46503Y23832D01*
X46499Y23835D01*
X46488Y23843D01*
X46477Y23853D01*
X46466Y23865D01*
X46455Y23879D01*
X46445Y23895D01*
Y23896D01*
X46443Y23897D01*
X46442Y23900D01*
X46441Y23903D01*
X46439Y23907D01*
X46437Y23913D01*
X46435Y23918D01*
X46433Y23925D01*
X46431Y23932D01*
X46428Y23941D01*
X46427Y23949D01*
X46425Y23958D01*
X46422Y23977D01*
X46421Y23998D01*
Y23998D01*
Y24001D01*
Y24003D01*
X46422Y24007D01*
Y24012D01*
X46422Y24018D01*
X46423Y24024D01*
X46424Y24032D01*
X46426Y24039D01*
X46427Y24048D01*
X46431Y24065D01*
X46437Y24084D01*
X46445Y24102D01*
X46445Y24103D01*
X46446Y24104D01*
X46447Y24107D01*
X46449Y24110D01*
X46451Y24114D01*
X46454Y24119D01*
X46462Y24129D01*
X46471Y24142D01*
X46483Y24153D01*
X46496Y24165D01*
X46504Y24170D01*
X46512Y24175D01*
X46512Y24175D01*
X46514Y24176D01*
X46516Y24177D01*
X46519Y24179D01*
X46524Y24180D01*
X46529Y24183D01*
X46534Y24185D01*
X46541Y24187D01*
X46548Y24189D01*
X46556Y24191D01*
X46564Y24193D01*
X46573Y24195D01*
X46593Y24198D01*
X46603Y24199D01*
X46620D01*
X46624Y24198D01*
D02*
G37*
G36*
X47154Y23808D02*
X47101D01*
X46900Y24109D01*
Y23808D01*
X46851D01*
Y24192D01*
X46904D01*
X47105Y23890D01*
Y24192D01*
X47154D01*
Y23808D01*
D02*
G37*
G36*
X47397Y24191D02*
X47408Y24191D01*
X47419Y24190D01*
X47430Y24188D01*
X47440Y24186D01*
X47440D01*
X47441Y24186D01*
X47443D01*
X47445Y24185D01*
X47451Y24183D01*
X47459Y24180D01*
X47468Y24176D01*
X47477Y24171D01*
X47487Y24166D01*
X47496Y24159D01*
X47496Y24158D01*
X47497Y24158D01*
X47499Y24156D01*
X47501Y24154D01*
X47506Y24149D01*
X47513Y24141D01*
X47520Y24132D01*
X47528Y24120D01*
X47535Y24108D01*
X47541Y24093D01*
Y24093D01*
X47542Y24092D01*
X47543Y24089D01*
X47543Y24086D01*
X47545Y24082D01*
X47546Y24078D01*
X47547Y24073D01*
X47549Y24067D01*
X47551Y24060D01*
X47552Y24053D01*
X47555Y24038D01*
X47556Y24021D01*
X47557Y24002D01*
Y24001D01*
Y24000D01*
Y23997D01*
Y23994D01*
X47556Y23991D01*
Y23986D01*
X47556Y23976D01*
X47554Y23963D01*
X47552Y23951D01*
X47550Y23937D01*
X47546Y23924D01*
Y23923D01*
X47546Y23922D01*
X47545Y23921D01*
X47545Y23918D01*
X47542Y23912D01*
X47539Y23905D01*
X47536Y23896D01*
X47531Y23887D01*
X47526Y23877D01*
X47520Y23868D01*
X47520Y23867D01*
X47517Y23865D01*
X47514Y23861D01*
X47510Y23856D01*
X47505Y23850D01*
X47499Y23845D01*
X47492Y23838D01*
X47485Y23833D01*
X47484Y23833D01*
X47482Y23831D01*
X47478Y23829D01*
X47472Y23826D01*
X47466Y23823D01*
X47458Y23820D01*
X47449Y23817D01*
X47439Y23814D01*
X47438D01*
X47436Y23814D01*
X47435Y23813D01*
X47429Y23812D01*
X47421Y23811D01*
X47412Y23810D01*
X47402Y23809D01*
X47390Y23809D01*
X47378Y23808D01*
X47239D01*
Y24192D01*
X47387D01*
X47397Y24191D01*
D02*
G37*
G36*
X47209Y19196D02*
X47217Y19195D01*
X47225Y19193D01*
X47235Y19190D01*
X47245Y19187D01*
X47255Y19182D01*
X47256D01*
X47257Y19182D01*
X47260Y19180D01*
X47265Y19177D01*
X47270Y19173D01*
X47277Y19167D01*
X47284Y19161D01*
X47290Y19154D01*
X47296Y19146D01*
X47296Y19145D01*
X47298Y19142D01*
X47300Y19137D01*
X47303Y19131D01*
X47306Y19123D01*
X47308Y19115D01*
X47310Y19106D01*
X47310Y19096D01*
Y19095D01*
Y19092D01*
X47310Y19087D01*
X47309Y19081D01*
X47307Y19074D01*
X47304Y19066D01*
X47301Y19059D01*
X47296Y19051D01*
X47296Y19050D01*
X47294Y19047D01*
X47291Y19044D01*
X47287Y19039D01*
X47281Y19034D01*
X47274Y19029D01*
X47267Y19024D01*
X47257Y19019D01*
X47258D01*
X47259Y19018D01*
X47260Y19017D01*
X47263Y19017D01*
X47269Y19015D01*
X47277Y19011D01*
X47285Y19007D01*
X47294Y19001D01*
X47303Y18994D01*
X47310Y18986D01*
X47311Y18985D01*
X47313Y18981D01*
X47316Y18976D01*
X47320Y18969D01*
X47323Y18960D01*
X47326Y18949D01*
X47329Y18937D01*
X47329Y18924D01*
Y18923D01*
Y18921D01*
Y18919D01*
X47329Y18915D01*
X47328Y18911D01*
X47327Y18906D01*
X47326Y18900D01*
X47325Y18894D01*
X47320Y18881D01*
X47317Y18874D01*
X47314Y18867D01*
X47309Y18860D01*
X47304Y18853D01*
X47299Y18845D01*
X47292Y18839D01*
X47291Y18838D01*
X47290Y18837D01*
X47288Y18835D01*
X47285Y18833D01*
X47282Y18830D01*
X47278Y18828D01*
X47273Y18824D01*
X47267Y18822D01*
X47260Y18818D01*
X47253Y18815D01*
X47246Y18812D01*
X47238Y18809D01*
X47229Y18807D01*
X47219Y18805D01*
X47210Y18804D01*
X47199Y18804D01*
X47194D01*
X47191Y18804D01*
X47187Y18805D01*
X47182Y18805D01*
X47176Y18807D01*
X47170Y18808D01*
X47157Y18811D01*
X47143Y18817D01*
X47136Y18820D01*
X47129Y18824D01*
X47122Y18829D01*
X47116Y18834D01*
X47115Y18834D01*
X47114Y18835D01*
X47112Y18837D01*
X47111Y18839D01*
X47108Y18842D01*
X47105Y18846D01*
X47102Y18850D01*
X47098Y18855D01*
X47095Y18860D01*
X47092Y18866D01*
X47086Y18879D01*
X47081Y18895D01*
X47079Y18903D01*
X47078Y18912D01*
X47125Y18918D01*
Y18918D01*
X47126Y18916D01*
X47126Y18914D01*
X47127Y18911D01*
X47127Y18908D01*
X47128Y18904D01*
X47131Y18896D01*
X47135Y18886D01*
X47140Y18877D01*
X47146Y18868D01*
X47152Y18860D01*
X47153Y18859D01*
X47156Y18857D01*
X47160Y18854D01*
X47166Y18852D01*
X47172Y18848D01*
X47181Y18845D01*
X47190Y18843D01*
X47200Y18843D01*
X47203D01*
X47205Y18843D01*
X47212Y18844D01*
X47219Y18845D01*
X47228Y18848D01*
X47238Y18852D01*
X47247Y18858D01*
X47256Y18865D01*
X47257Y18867D01*
X47260Y18870D01*
X47263Y18875D01*
X47268Y18882D01*
X47272Y18890D01*
X47275Y18899D01*
X47278Y18910D01*
X47279Y18923D01*
Y18923D01*
Y18924D01*
Y18926D01*
X47279Y18928D01*
X47278Y18934D01*
X47277Y18941D01*
X47274Y18950D01*
X47270Y18959D01*
X47265Y18968D01*
X47258Y18976D01*
X47257Y18978D01*
X47254Y18980D01*
X47249Y18983D01*
X47243Y18987D01*
X47235Y18991D01*
X47226Y18994D01*
X47215Y18996D01*
X47204Y18997D01*
X47199D01*
X47195Y18997D01*
X47190Y18996D01*
X47184Y18995D01*
X47178Y18994D01*
X47171Y18993D01*
X47176Y19034D01*
X47179D01*
X47181Y19034D01*
X47188D01*
X47194Y19035D01*
X47202Y19036D01*
X47210Y19037D01*
X47219Y19040D01*
X47228Y19044D01*
X47238Y19049D01*
X47238D01*
X47239Y19050D01*
X47242Y19052D01*
X47245Y19056D01*
X47250Y19061D01*
X47254Y19068D01*
X47258Y19076D01*
X47261Y19086D01*
X47262Y19091D01*
Y19097D01*
Y19098D01*
Y19099D01*
Y19102D01*
X47261Y19106D01*
X47260Y19112D01*
X47258Y19119D01*
X47255Y19126D01*
X47250Y19133D01*
X47244Y19140D01*
X47244Y19141D01*
X47241Y19143D01*
X47237Y19146D01*
X47232Y19149D01*
X47225Y19152D01*
X47218Y19155D01*
X47209Y19157D01*
X47199Y19157D01*
X47194D01*
X47189Y19156D01*
X47183Y19155D01*
X47175Y19153D01*
X47168Y19150D01*
X47161Y19146D01*
X47153Y19140D01*
X47153Y19140D01*
X47151Y19137D01*
X47147Y19133D01*
X47143Y19127D01*
X47139Y19120D01*
X47136Y19111D01*
X47132Y19101D01*
X47130Y19089D01*
X47083Y19097D01*
Y19097D01*
X47083Y19099D01*
X47084Y19101D01*
X47084Y19105D01*
X47086Y19109D01*
X47087Y19113D01*
X47091Y19123D01*
X47096Y19136D01*
X47103Y19148D01*
X47111Y19160D01*
X47122Y19170D01*
X47122Y19171D01*
X47123Y19171D01*
X47125Y19172D01*
X47127Y19174D01*
X47130Y19176D01*
X47134Y19178D01*
X47138Y19181D01*
X47143Y19183D01*
X47154Y19188D01*
X47167Y19192D01*
X47182Y19195D01*
X47189Y19196D01*
X47203D01*
X47209Y19196D01*
D02*
G37*
G36*
X46553D02*
X46560Y19195D01*
X46569Y19193D01*
X46579Y19190D01*
X46589Y19187D01*
X46599Y19182D01*
X46599D01*
X46600Y19182D01*
X46603Y19180D01*
X46608Y19177D01*
X46614Y19173D01*
X46620Y19167D01*
X46627Y19161D01*
X46634Y19154D01*
X46639Y19146D01*
X46640Y19145D01*
X46642Y19142D01*
X46644Y19137D01*
X46647Y19131D01*
X46649Y19123D01*
X46652Y19115D01*
X46653Y19106D01*
X46654Y19096D01*
Y19095D01*
Y19092D01*
X46653Y19087D01*
X46652Y19081D01*
X46650Y19074D01*
X46648Y19066D01*
X46644Y19059D01*
X46640Y19051D01*
X46639Y19050D01*
X46638Y19047D01*
X46634Y19044D01*
X46630Y19039D01*
X46624Y19034D01*
X46618Y19029D01*
X46610Y19024D01*
X46601Y19019D01*
X46601D01*
X46602Y19018D01*
X46604Y19017D01*
X46606Y19017D01*
X46612Y19015D01*
X46620Y19011D01*
X46629Y19007D01*
X46638Y19001D01*
X46646Y18994D01*
X46654Y18986D01*
X46654Y18985D01*
X46657Y18981D01*
X46660Y18976D01*
X46663Y18969D01*
X46667Y18960D01*
X46670Y18949D01*
X46672Y18937D01*
X46673Y18924D01*
Y18923D01*
Y18921D01*
Y18919D01*
X46672Y18915D01*
X46672Y18911D01*
X46670Y18906D01*
X46669Y18900D01*
X46668Y18894D01*
X46664Y18881D01*
X46660Y18874D01*
X46657Y18867D01*
X46653Y18860D01*
X46648Y18853D01*
X46642Y18845D01*
X46635Y18839D01*
X46635Y18838D01*
X46634Y18837D01*
X46632Y18835D01*
X46629Y18833D01*
X46625Y18830D01*
X46621Y18828D01*
X46616Y18824D01*
X46610Y18822D01*
X46604Y18818D01*
X46597Y18815D01*
X46589Y18812D01*
X46581Y18809D01*
X46572Y18807D01*
X46563Y18805D01*
X46553Y18804D01*
X46543Y18804D01*
X46538D01*
X46534Y18804D01*
X46530Y18805D01*
X46525Y18805D01*
X46519Y18807D01*
X46513Y18808D01*
X46500Y18811D01*
X46486Y18817D01*
X46479Y18820D01*
X46472Y18824D01*
X46466Y18829D01*
X46459Y18834D01*
X46458Y18834D01*
X46457Y18835D01*
X46456Y18837D01*
X46454Y18839D01*
X46451Y18842D01*
X46448Y18846D01*
X46445Y18850D01*
X46442Y18855D01*
X46438Y18860D01*
X46435Y18866D01*
X46429Y18879D01*
X46424Y18895D01*
X46422Y18903D01*
X46421Y18912D01*
X46468Y18918D01*
Y18918D01*
X46469Y18916D01*
X46470Y18914D01*
X46470Y18911D01*
X46471Y18908D01*
X46472Y18904D01*
X46475Y18896D01*
X46478Y18886D01*
X46483Y18877D01*
X46489Y18868D01*
X46496Y18860D01*
X46497Y18859D01*
X46499Y18857D01*
X46503Y18854D01*
X46509Y18852D01*
X46516Y18848D01*
X46524Y18845D01*
X46533Y18843D01*
X46543Y18843D01*
X46547D01*
X46549Y18843D01*
X46555Y18844D01*
X46563Y18845D01*
X46572Y18848D01*
X46581Y18852D01*
X46591Y18858D01*
X46599Y18865D01*
X46601Y18867D01*
X46603Y18870D01*
X46607Y18875D01*
X46611Y18882D01*
X46616Y18890D01*
X46619Y18899D01*
X46622Y18910D01*
X46623Y18923D01*
Y18923D01*
Y18924D01*
Y18926D01*
X46622Y18928D01*
X46622Y18934D01*
X46620Y18941D01*
X46618Y18950D01*
X46614Y18959D01*
X46608Y18968D01*
X46601Y18976D01*
X46600Y18978D01*
X46597Y18980D01*
X46593Y18983D01*
X46587Y18987D01*
X46579Y18991D01*
X46569Y18994D01*
X46559Y18996D01*
X46547Y18997D01*
X46542D01*
X46538Y18997D01*
X46533Y18996D01*
X46528Y18995D01*
X46521Y18994D01*
X46514Y18993D01*
X46519Y19034D01*
X46522D01*
X46524Y19034D01*
X46532D01*
X46538Y19035D01*
X46545Y19036D01*
X46553Y19037D01*
X46563Y19040D01*
X46572Y19044D01*
X46581Y19049D01*
X46582D01*
X46582Y19050D01*
X46585Y19052D01*
X46589Y19056D01*
X46593Y19061D01*
X46598Y19068D01*
X46602Y19076D01*
X46604Y19086D01*
X46606Y19091D01*
Y19097D01*
Y19098D01*
Y19099D01*
Y19102D01*
X46604Y19106D01*
X46603Y19112D01*
X46601Y19119D01*
X46598Y19126D01*
X46594Y19133D01*
X46588Y19140D01*
X46587Y19141D01*
X46584Y19143D01*
X46581Y19146D01*
X46576Y19149D01*
X46569Y19152D01*
X46561Y19155D01*
X46552Y19157D01*
X46542Y19157D01*
X46538D01*
X46533Y19156D01*
X46526Y19155D01*
X46519Y19153D01*
X46512Y19150D01*
X46504Y19146D01*
X46497Y19140D01*
X46496Y19140D01*
X46494Y19137D01*
X46491Y19133D01*
X46487Y19127D01*
X46483Y19120D01*
X46479Y19111D01*
X46476Y19101D01*
X46473Y19089D01*
X46426Y19097D01*
Y19097D01*
X46427Y19099D01*
X46427Y19101D01*
X46428Y19105D01*
X46429Y19109D01*
X46431Y19113D01*
X46434Y19123D01*
X46440Y19136D01*
X46446Y19148D01*
X46455Y19160D01*
X46465Y19170D01*
X46466Y19171D01*
X46467Y19171D01*
X46468Y19172D01*
X46471Y19174D01*
X46473Y19176D01*
X46477Y19178D01*
X46481Y19181D01*
X46486Y19183D01*
X46497Y19188D01*
X46510Y19192D01*
X46525Y19195D01*
X46533Y19196D01*
X46547D01*
X46553Y19196D01*
D02*
G37*
G36*
X46901Y18810D02*
X46848D01*
X46699Y19195D01*
X46754D01*
X46854Y18915D01*
Y18915D01*
X46855Y18914D01*
X46855Y18912D01*
X46856Y18910D01*
X46857Y18906D01*
X46858Y18903D01*
X46861Y18895D01*
X46864Y18885D01*
X46867Y18875D01*
X46874Y18853D01*
Y18853D01*
X46875Y18854D01*
X46875Y18856D01*
X46876Y18858D01*
X46877Y18864D01*
X46880Y18873D01*
X46883Y18882D01*
X46886Y18893D01*
X46890Y18904D01*
X46895Y18915D01*
X46999Y19195D01*
X47051D01*
X46901Y18810D01*
D02*
G37*
G36*
X47588Y17841D02*
X47541D01*
Y17895D01*
X47588D01*
Y17841D01*
D02*
G37*
G36*
X48368Y17795D02*
X48375Y17794D01*
X48382Y17792D01*
X48390Y17789D01*
X48398Y17785D01*
X48408Y17780D01*
X48391Y17737D01*
X48390Y17737D01*
X48388Y17739D01*
X48385Y17740D01*
X48380Y17742D01*
X48375Y17744D01*
X48369Y17745D01*
X48363Y17746D01*
X48357Y17747D01*
X48354D01*
X48351Y17746D01*
X48347Y17746D01*
X48343Y17745D01*
X48338Y17743D01*
X48333Y17741D01*
X48329Y17737D01*
X48328Y17737D01*
X48327Y17736D01*
X48325Y17734D01*
X48322Y17731D01*
X48320Y17727D01*
X48317Y17722D01*
X48314Y17717D01*
X48312Y17711D01*
X48311Y17710D01*
X48311Y17707D01*
X48310Y17702D01*
X48308Y17695D01*
X48306Y17687D01*
X48305Y17678D01*
X48305Y17668D01*
X48304Y17656D01*
Y17511D01*
X48257D01*
Y17790D01*
X48300D01*
Y17747D01*
X48300Y17748D01*
X48302Y17752D01*
X48305Y17757D01*
X48310Y17763D01*
X48314Y17769D01*
X48319Y17776D01*
X48324Y17781D01*
X48329Y17786D01*
X48330Y17786D01*
X48331Y17787D01*
X48335Y17789D01*
X48338Y17791D01*
X48342Y17792D01*
X48348Y17794D01*
X48353Y17795D01*
X48360Y17796D01*
X48363D01*
X48368Y17795D01*
D02*
G37*
G36*
X47588Y17511D02*
X47541D01*
Y17790D01*
X47588D01*
Y17511D01*
D02*
G37*
G36*
X47481Y17850D02*
X47272D01*
Y17731D01*
X47453D01*
Y17685D01*
X47272D01*
Y17511D01*
X47221D01*
Y17895D01*
X47481D01*
Y17850D01*
D02*
G37*
G36*
X48082Y17795D02*
X48087Y17795D01*
X48092Y17794D01*
X48098Y17792D01*
X48105Y17791D01*
X48112Y17789D01*
X48120Y17786D01*
X48127Y17784D01*
X48135Y17780D01*
X48143Y17775D01*
X48150Y17770D01*
X48158Y17764D01*
X48164Y17757D01*
X48165Y17757D01*
X48166Y17756D01*
X48168Y17754D01*
X48170Y17750D01*
X48173Y17746D01*
X48175Y17742D01*
X48179Y17736D01*
X48182Y17730D01*
X48185Y17722D01*
X48189Y17715D01*
X48191Y17706D01*
X48194Y17696D01*
X48196Y17686D01*
X48198Y17675D01*
X48199Y17663D01*
X48200Y17650D01*
Y17650D01*
Y17648D01*
Y17644D01*
X48199Y17638D01*
X47991D01*
Y17638D01*
Y17636D01*
X47992Y17634D01*
Y17630D01*
X47992Y17626D01*
X47993Y17622D01*
X47995Y17612D01*
X47998Y17601D01*
X48003Y17589D01*
X48009Y17578D01*
X48017Y17568D01*
X48017D01*
X48018Y17567D01*
X48021Y17564D01*
X48026Y17560D01*
X48033Y17556D01*
X48042Y17552D01*
X48052Y17548D01*
X48063Y17545D01*
X48069Y17544D01*
X48075Y17544D01*
X48080D01*
X48085Y17544D01*
X48091Y17545D01*
X48098Y17547D01*
X48105Y17549D01*
X48113Y17553D01*
X48120Y17557D01*
X48120Y17558D01*
X48123Y17560D01*
X48126Y17563D01*
X48130Y17568D01*
X48135Y17574D01*
X48140Y17582D01*
X48145Y17590D01*
X48149Y17601D01*
X48198Y17595D01*
Y17594D01*
X48197Y17593D01*
X48197Y17591D01*
X48196Y17588D01*
X48194Y17584D01*
X48193Y17580D01*
X48188Y17570D01*
X48183Y17560D01*
X48175Y17549D01*
X48166Y17538D01*
X48155Y17528D01*
X48154D01*
X48153Y17527D01*
X48151Y17526D01*
X48149Y17524D01*
X48146Y17523D01*
X48143Y17521D01*
X48138Y17519D01*
X48133Y17517D01*
X48128Y17514D01*
X48122Y17512D01*
X48108Y17509D01*
X48093Y17506D01*
X48075Y17505D01*
X48069D01*
X48065Y17505D01*
X48060Y17506D01*
X48054Y17507D01*
X48048Y17508D01*
X48040Y17509D01*
X48025Y17514D01*
X48017Y17517D01*
X48009Y17520D01*
X48000Y17525D01*
X47993Y17530D01*
X47985Y17535D01*
X47978Y17542D01*
X47978Y17543D01*
X47977Y17544D01*
X47975Y17546D01*
X47973Y17549D01*
X47970Y17553D01*
X47967Y17558D01*
X47964Y17563D01*
X47961Y17569D01*
X47957Y17577D01*
X47954Y17584D01*
X47951Y17593D01*
X47948Y17603D01*
X47946Y17613D01*
X47944Y17624D01*
X47943Y17635D01*
X47943Y17648D01*
Y17648D01*
Y17651D01*
Y17654D01*
X47943Y17659D01*
X47944Y17665D01*
X47944Y17672D01*
X47946Y17680D01*
X47947Y17688D01*
X47952Y17705D01*
X47954Y17714D01*
X47958Y17724D01*
X47962Y17732D01*
X47967Y17741D01*
X47973Y17749D01*
X47979Y17757D01*
X47979Y17757D01*
X47980Y17759D01*
X47983Y17760D01*
X47985Y17763D01*
X47989Y17766D01*
X47993Y17769D01*
X47998Y17773D01*
X48004Y17776D01*
X48010Y17780D01*
X48018Y17784D01*
X48025Y17787D01*
X48034Y17790D01*
X48043Y17792D01*
X48052Y17794D01*
X48062Y17795D01*
X48073Y17796D01*
X48078D01*
X48082Y17795D01*
D02*
G37*
G36*
X47706Y17758D02*
X47707Y17759D01*
X47707Y17760D01*
X47709Y17761D01*
X47712Y17764D01*
X47715Y17767D01*
X47718Y17770D01*
X47722Y17774D01*
X47727Y17777D01*
X47738Y17784D01*
X47751Y17790D01*
X47758Y17792D01*
X47766Y17794D01*
X47774Y17795D01*
X47782Y17796D01*
X47787D01*
X47792Y17795D01*
X47798Y17795D01*
X47805Y17793D01*
X47813Y17791D01*
X47822Y17789D01*
X47831Y17785D01*
X47832Y17785D01*
X47835Y17784D01*
X47839Y17781D01*
X47844Y17777D01*
X47850Y17774D01*
X47856Y17769D01*
X47863Y17762D01*
X47868Y17756D01*
X47869Y17755D01*
X47871Y17752D01*
X47873Y17749D01*
X47877Y17744D01*
X47881Y17737D01*
X47884Y17729D01*
X47888Y17720D01*
X47892Y17711D01*
Y17710D01*
X47892Y17710D01*
X47893Y17708D01*
X47893Y17706D01*
X47894Y17701D01*
X47896Y17694D01*
X47898Y17685D01*
X47899Y17676D01*
X47900Y17665D01*
X47901Y17654D01*
Y17654D01*
Y17651D01*
Y17648D01*
X47900Y17643D01*
X47899Y17636D01*
X47899Y17630D01*
X47898Y17622D01*
X47896Y17614D01*
X47892Y17596D01*
X47889Y17586D01*
X47886Y17578D01*
X47882Y17568D01*
X47877Y17560D01*
X47871Y17552D01*
X47865Y17544D01*
X47864Y17543D01*
X47863Y17542D01*
X47862Y17540D01*
X47859Y17538D01*
X47855Y17535D01*
X47851Y17532D01*
X47847Y17528D01*
X47841Y17524D01*
X47835Y17521D01*
X47829Y17517D01*
X47814Y17511D01*
X47806Y17508D01*
X47798Y17507D01*
X47789Y17505D01*
X47780Y17505D01*
X47778D01*
X47775Y17505D01*
X47772D01*
X47768Y17506D01*
X47763Y17507D01*
X47752Y17510D01*
X47746Y17512D01*
X47740Y17515D01*
X47733Y17518D01*
X47727Y17522D01*
X47720Y17527D01*
X47714Y17533D01*
X47709Y17539D01*
X47703Y17546D01*
Y17511D01*
X47659D01*
Y17895D01*
X47706D01*
Y17758D01*
D02*
G37*
G36*
X46967Y23198D02*
X46971D01*
X46981Y23197D01*
X46993Y23195D01*
X47005Y23193D01*
X47018Y23189D01*
X47031Y23185D01*
X47031D01*
X47032Y23184D01*
X47034Y23183D01*
X47036Y23182D01*
X47042Y23179D01*
X47049Y23174D01*
X47057Y23169D01*
X47066Y23162D01*
X47073Y23153D01*
X47081Y23144D01*
Y23143D01*
X47081Y23143D01*
X47082Y23141D01*
X47083Y23139D01*
X47086Y23134D01*
X47089Y23127D01*
X47093Y23118D01*
X47096Y23107D01*
X47099Y23096D01*
X47100Y23084D01*
X47051Y23080D01*
Y23080D01*
Y23082D01*
X47051Y23083D01*
X47050Y23086D01*
X47048Y23092D01*
X47046Y23100D01*
X47043Y23109D01*
X47038Y23118D01*
X47032Y23127D01*
X47024Y23134D01*
X47023Y23135D01*
X47020Y23137D01*
X47015Y23140D01*
X47007Y23144D01*
X46998Y23147D01*
X46987Y23150D01*
X46973Y23153D01*
X46957Y23153D01*
X46950D01*
X46946Y23153D01*
X46942Y23152D01*
X46932Y23151D01*
X46921Y23149D01*
X46910Y23146D01*
X46899Y23142D01*
X46895Y23139D01*
X46890Y23136D01*
X46889Y23135D01*
X46887Y23133D01*
X46884Y23129D01*
X46880Y23125D01*
X46876Y23119D01*
X46873Y23112D01*
X46871Y23104D01*
X46870Y23095D01*
Y23094D01*
Y23092D01*
X46870Y23088D01*
X46871Y23084D01*
X46873Y23078D01*
X46876Y23073D01*
X46879Y23067D01*
X46884Y23062D01*
X46885Y23061D01*
X46887Y23059D01*
X46890Y23058D01*
X46892Y23057D01*
X46895Y23055D01*
X46899Y23053D01*
X46904Y23051D01*
X46910Y23049D01*
X46916Y23047D01*
X46923Y23044D01*
X46931Y23042D01*
X46940Y23039D01*
X46950Y23037D01*
X46961Y23034D01*
X46961D01*
X46963Y23033D01*
X46967Y23033D01*
X46971Y23032D01*
X46976Y23031D01*
X46982Y23029D01*
X46988Y23027D01*
X46995Y23026D01*
X47009Y23022D01*
X47023Y23018D01*
X47030Y23016D01*
X47036Y23013D01*
X47041Y23012D01*
X47046Y23009D01*
X47046D01*
X47047Y23009D01*
X47049Y23008D01*
X47051Y23007D01*
X47057Y23003D01*
X47064Y22999D01*
X47073Y22993D01*
X47081Y22986D01*
X47089Y22978D01*
X47096Y22970D01*
X47096Y22969D01*
X47098Y22966D01*
X47101Y22961D01*
X47104Y22954D01*
X47107Y22947D01*
X47109Y22937D01*
X47111Y22927D01*
X47112Y22916D01*
Y22915D01*
Y22915D01*
Y22913D01*
Y22911D01*
X47111Y22905D01*
X47109Y22897D01*
X47107Y22888D01*
X47104Y22878D01*
X47100Y22868D01*
X47094Y22858D01*
Y22857D01*
X47093Y22857D01*
X47091Y22853D01*
X47087Y22848D01*
X47081Y22843D01*
X47074Y22836D01*
X47065Y22829D01*
X47055Y22822D01*
X47043Y22816D01*
X47043D01*
X47042Y22816D01*
X47040Y22815D01*
X47038Y22814D01*
X47035Y22813D01*
X47031Y22811D01*
X47022Y22809D01*
X47011Y22806D01*
X46998Y22804D01*
X46985Y22802D01*
X46970Y22801D01*
X46961D01*
X46956Y22802D01*
X46951D01*
X46946Y22802D01*
X46939Y22803D01*
X46925Y22805D01*
X46911Y22807D01*
X46896Y22811D01*
X46882Y22816D01*
X46882D01*
X46881Y22817D01*
X46879Y22818D01*
X46877Y22819D01*
X46870Y22822D01*
X46862Y22827D01*
X46854Y22834D01*
X46844Y22842D01*
X46835Y22851D01*
X46827Y22862D01*
Y22862D01*
X46826Y22863D01*
X46825Y22865D01*
X46824Y22867D01*
X46823Y22870D01*
X46821Y22873D01*
X46817Y22882D01*
X46813Y22892D01*
X46810Y22904D01*
X46808Y22917D01*
X46806Y22931D01*
X46854Y22936D01*
Y22935D01*
Y22935D01*
X46855Y22933D01*
Y22931D01*
X46856Y22926D01*
X46857Y22918D01*
X46860Y22911D01*
X46862Y22903D01*
X46866Y22895D01*
X46870Y22888D01*
X46870Y22887D01*
X46872Y22885D01*
X46875Y22881D01*
X46879Y22877D01*
X46885Y22872D01*
X46891Y22867D01*
X46899Y22862D01*
X46908Y22858D01*
X46909D01*
X46909Y22857D01*
X46911Y22857D01*
X46912Y22856D01*
X46918Y22855D01*
X46925Y22852D01*
X46934Y22850D01*
X46944Y22848D01*
X46955Y22847D01*
X46967Y22847D01*
X46972D01*
X46978Y22847D01*
X46985Y22848D01*
X46992Y22849D01*
X47001Y22850D01*
X47010Y22852D01*
X47018Y22855D01*
X47020Y22856D01*
X47022Y22857D01*
X47026Y22859D01*
X47031Y22861D01*
X47036Y22865D01*
X47042Y22869D01*
X47047Y22873D01*
X47052Y22879D01*
X47052Y22880D01*
X47053Y22882D01*
X47055Y22885D01*
X47057Y22889D01*
X47060Y22893D01*
X47061Y22899D01*
X47062Y22905D01*
X47063Y22912D01*
Y22912D01*
Y22915D01*
X47062Y22918D01*
X47062Y22923D01*
X47060Y22927D01*
X47058Y22933D01*
X47056Y22938D01*
X47052Y22943D01*
X47051Y22944D01*
X47050Y22946D01*
X47047Y22948D01*
X47043Y22951D01*
X47039Y22954D01*
X47033Y22958D01*
X47026Y22962D01*
X47017Y22966D01*
X47017Y22966D01*
X47014Y22967D01*
X47010Y22968D01*
X47007Y22969D01*
X47003Y22970D01*
X46999Y22972D01*
X46994Y22973D01*
X46988Y22974D01*
X46982Y22976D01*
X46975Y22978D01*
X46967Y22980D01*
X46958Y22982D01*
X46949Y22984D01*
X46949D01*
X46947Y22985D01*
X46944Y22986D01*
X46941Y22987D01*
X46936Y22988D01*
X46931Y22989D01*
X46920Y22992D01*
X46908Y22996D01*
X46895Y23000D01*
X46884Y23004D01*
X46879Y23006D01*
X46875Y23008D01*
X46874D01*
X46874Y23009D01*
X46870Y23011D01*
X46865Y23014D01*
X46860Y23018D01*
X46853Y23023D01*
X46846Y23029D01*
X46840Y23037D01*
X46834Y23044D01*
X46834Y23046D01*
X46832Y23048D01*
X46830Y23053D01*
X46828Y23058D01*
X46825Y23065D01*
X46823Y23074D01*
X46821Y23083D01*
X46821Y23092D01*
Y23093D01*
Y23093D01*
Y23095D01*
Y23097D01*
X46822Y23103D01*
X46823Y23110D01*
X46825Y23118D01*
X46828Y23128D01*
X46831Y23137D01*
X46837Y23147D01*
Y23147D01*
X46838Y23148D01*
X46840Y23151D01*
X46844Y23155D01*
X46849Y23161D01*
X46856Y23167D01*
X46864Y23174D01*
X46874Y23180D01*
X46885Y23185D01*
X46886D01*
X46887Y23186D01*
X46889Y23186D01*
X46891Y23188D01*
X46894Y23189D01*
X46897Y23190D01*
X46906Y23192D01*
X46916Y23194D01*
X46929Y23196D01*
X46941Y23198D01*
X46956Y23199D01*
X46963D01*
X46967Y23198D01*
D02*
G37*
G36*
X46612D02*
X46617Y23198D01*
X46623Y23197D01*
X46629Y23196D01*
X46636Y23195D01*
X46651Y23191D01*
X46668Y23186D01*
X46676Y23183D01*
X46684Y23179D01*
X46692Y23174D01*
X46699Y23169D01*
X46700Y23169D01*
X46701Y23168D01*
X46703Y23166D01*
X46706Y23164D01*
X46709Y23161D01*
X46713Y23157D01*
X46717Y23153D01*
X46721Y23148D01*
X46725Y23143D01*
X46730Y23136D01*
X46735Y23129D01*
X46739Y23122D01*
X46743Y23114D01*
X46748Y23105D01*
X46751Y23097D01*
X46754Y23087D01*
X46704Y23075D01*
Y23075D01*
X46704Y23077D01*
X46703Y23079D01*
X46702Y23082D01*
X46700Y23085D01*
X46699Y23089D01*
X46694Y23098D01*
X46689Y23108D01*
X46682Y23118D01*
X46674Y23128D01*
X46665Y23136D01*
X46664Y23137D01*
X46660Y23139D01*
X46655Y23142D01*
X46648Y23146D01*
X46638Y23149D01*
X46628Y23153D01*
X46615Y23155D01*
X46601Y23155D01*
X46597D01*
X46594Y23155D01*
X46590D01*
X46586Y23154D01*
X46575Y23153D01*
X46563Y23150D01*
X46551Y23147D01*
X46538Y23141D01*
X46527Y23134D01*
X46526D01*
X46526Y23133D01*
X46522Y23130D01*
X46517Y23125D01*
X46511Y23119D01*
X46503Y23110D01*
X46497Y23101D01*
X46491Y23089D01*
X46485Y23077D01*
Y23076D01*
X46485Y23075D01*
X46484Y23073D01*
X46483Y23070D01*
X46482Y23067D01*
X46481Y23063D01*
X46480Y23054D01*
X46477Y23043D01*
X46475Y23031D01*
X46474Y23017D01*
X46473Y23003D01*
Y23002D01*
Y23001D01*
Y22998D01*
Y22994D01*
X46474Y22991D01*
Y22986D01*
X46475Y22980D01*
X46475Y22974D01*
X46477Y22961D01*
X46480Y22946D01*
X46483Y22932D01*
X46487Y22917D01*
Y22917D01*
X46488Y22916D01*
X46489Y22914D01*
X46490Y22911D01*
X46493Y22905D01*
X46498Y22897D01*
X46505Y22888D01*
X46512Y22878D01*
X46521Y22870D01*
X46532Y22862D01*
X46532D01*
X46533Y22862D01*
X46535Y22861D01*
X46537Y22860D01*
X46540Y22858D01*
X46543Y22857D01*
X46551Y22853D01*
X46561Y22850D01*
X46572Y22847D01*
X46584Y22845D01*
X46597Y22845D01*
X46601D01*
X46604Y22845D01*
X46608D01*
X46612Y22846D01*
X46622Y22848D01*
X46634Y22851D01*
X46645Y22855D01*
X46658Y22861D01*
X46664Y22865D01*
X46669Y22869D01*
X46670Y22870D01*
X46670Y22870D01*
X46672Y22872D01*
X46674Y22873D01*
X46677Y22876D01*
X46679Y22880D01*
X46683Y22883D01*
X46685Y22887D01*
X46689Y22892D01*
X46693Y22898D01*
X46696Y22903D01*
X46699Y22910D01*
X46702Y22917D01*
X46705Y22925D01*
X46708Y22933D01*
X46710Y22942D01*
X46761Y22930D01*
Y22929D01*
X46760Y22927D01*
X46759Y22923D01*
X46758Y22919D01*
X46756Y22914D01*
X46754Y22908D01*
X46751Y22901D01*
X46748Y22894D01*
X46740Y22878D01*
X46730Y22863D01*
X46724Y22855D01*
X46718Y22847D01*
X46711Y22841D01*
X46703Y22834D01*
X46703Y22833D01*
X46702Y22832D01*
X46699Y22831D01*
X46696Y22829D01*
X46692Y22826D01*
X46687Y22824D01*
X46681Y22821D01*
X46675Y22818D01*
X46668Y22815D01*
X46660Y22812D01*
X46652Y22809D01*
X46643Y22806D01*
X46633Y22804D01*
X46623Y22803D01*
X46613Y22802D01*
X46602Y22801D01*
X46596D01*
X46591Y22802D01*
X46586D01*
X46580Y22802D01*
X46573Y22804D01*
X46566Y22805D01*
X46549Y22807D01*
X46533Y22812D01*
X46516Y22818D01*
X46508Y22822D01*
X46501Y22826D01*
X46500Y22827D01*
X46499Y22827D01*
X46497Y22829D01*
X46495Y22831D01*
X46491Y22833D01*
X46487Y22837D01*
X46483Y22841D01*
X46478Y22845D01*
X46474Y22850D01*
X46469Y22855D01*
X46459Y22868D01*
X46450Y22883D01*
X46441Y22900D01*
Y22900D01*
X46440Y22902D01*
X46440Y22905D01*
X46438Y22908D01*
X46437Y22912D01*
X46435Y22918D01*
X46433Y22924D01*
X46431Y22931D01*
X46430Y22938D01*
X46427Y22946D01*
X46425Y22963D01*
X46422Y22983D01*
X46421Y23003D01*
Y23003D01*
Y23006D01*
Y23009D01*
X46422Y23013D01*
Y23018D01*
X46422Y23024D01*
X46423Y23031D01*
X46424Y23038D01*
X46427Y23054D01*
X46431Y23072D01*
X46436Y23090D01*
X46444Y23107D01*
X46445Y23108D01*
X46445Y23109D01*
X46446Y23112D01*
X46448Y23114D01*
X46451Y23118D01*
X46453Y23123D01*
X46461Y23133D01*
X46470Y23144D01*
X46481Y23155D01*
X46494Y23166D01*
X46509Y23175D01*
X46509Y23176D01*
X46511Y23176D01*
X46513Y23178D01*
X46516Y23179D01*
X46521Y23181D01*
X46525Y23183D01*
X46531Y23185D01*
X46537Y23187D01*
X46543Y23189D01*
X46551Y23191D01*
X46566Y23195D01*
X46584Y23198D01*
X46602Y23199D01*
X46608D01*
X46612Y23198D01*
D02*
G37*
G36*
X47163Y22198D02*
X47167D01*
X47177Y22197D01*
X47189Y22195D01*
X47201Y22193D01*
X47214Y22189D01*
X47227Y22185D01*
X47227D01*
X47228Y22184D01*
X47230Y22183D01*
X47232Y22182D01*
X47238Y22179D01*
X47245Y22174D01*
X47253Y22169D01*
X47262Y22162D01*
X47269Y22153D01*
X47277Y22144D01*
Y22143D01*
X47277Y22143D01*
X47278Y22141D01*
X47279Y22139D01*
X47282Y22134D01*
X47285Y22127D01*
X47289Y22118D01*
X47292Y22107D01*
X47295Y22096D01*
X47296Y22084D01*
X47247Y22080D01*
Y22080D01*
Y22082D01*
X47247Y22083D01*
X47246Y22086D01*
X47244Y22092D01*
X47242Y22100D01*
X47239Y22109D01*
X47234Y22118D01*
X47228Y22127D01*
X47220Y22134D01*
X47219Y22135D01*
X47216Y22137D01*
X47210Y22140D01*
X47203Y22144D01*
X47194Y22147D01*
X47183Y22150D01*
X47169Y22153D01*
X47153Y22153D01*
X47146D01*
X47142Y22153D01*
X47138Y22152D01*
X47128Y22151D01*
X47117Y22149D01*
X47106Y22146D01*
X47095Y22142D01*
X47091Y22139D01*
X47086Y22136D01*
X47085Y22135D01*
X47083Y22133D01*
X47079Y22129D01*
X47076Y22125D01*
X47072Y22119D01*
X47069Y22112D01*
X47067Y22104D01*
X47066Y22095D01*
Y22094D01*
Y22092D01*
X47066Y22088D01*
X47067Y22084D01*
X47069Y22078D01*
X47072Y22073D01*
X47075Y22067D01*
X47080Y22062D01*
X47081Y22061D01*
X47083Y22059D01*
X47086Y22058D01*
X47088Y22057D01*
X47091Y22055D01*
X47095Y22053D01*
X47100Y22051D01*
X47106Y22049D01*
X47112Y22047D01*
X47119Y22044D01*
X47127Y22042D01*
X47136Y22039D01*
X47146Y22037D01*
X47157Y22034D01*
X47157D01*
X47159Y22033D01*
X47163Y22033D01*
X47167Y22032D01*
X47172Y22031D01*
X47178Y22029D01*
X47184Y22027D01*
X47190Y22026D01*
X47205Y22022D01*
X47219Y22018D01*
X47225Y22016D01*
X47232Y22013D01*
X47237Y22012D01*
X47242Y22009D01*
X47242D01*
X47243Y22009D01*
X47245Y22008D01*
X47247Y22007D01*
X47253Y22003D01*
X47260Y21999D01*
X47269Y21993D01*
X47277Y21986D01*
X47285Y21978D01*
X47291Y21970D01*
X47292Y21969D01*
X47294Y21966D01*
X47296Y21961D01*
X47300Y21954D01*
X47303Y21947D01*
X47305Y21937D01*
X47307Y21927D01*
X47308Y21916D01*
Y21915D01*
Y21915D01*
Y21913D01*
Y21911D01*
X47306Y21905D01*
X47305Y21897D01*
X47303Y21888D01*
X47300Y21878D01*
X47296Y21868D01*
X47290Y21858D01*
Y21857D01*
X47289Y21857D01*
X47287Y21853D01*
X47283Y21848D01*
X47277Y21843D01*
X47270Y21836D01*
X47261Y21829D01*
X47251Y21822D01*
X47239Y21816D01*
X47239D01*
X47238Y21816D01*
X47236Y21815D01*
X47234Y21814D01*
X47230Y21813D01*
X47227Y21811D01*
X47218Y21809D01*
X47207Y21806D01*
X47194Y21804D01*
X47181Y21802D01*
X47166Y21801D01*
X47157D01*
X47152Y21802D01*
X47147D01*
X47142Y21802D01*
X47135Y21803D01*
X47121Y21805D01*
X47107Y21807D01*
X47092Y21811D01*
X47078Y21816D01*
X47078D01*
X47077Y21817D01*
X47075Y21818D01*
X47073Y21819D01*
X47066Y21822D01*
X47058Y21827D01*
X47050Y21834D01*
X47040Y21842D01*
X47031Y21851D01*
X47023Y21862D01*
Y21862D01*
X47022Y21863D01*
X47021Y21865D01*
X47020Y21867D01*
X47018Y21870D01*
X47017Y21873D01*
X47013Y21882D01*
X47009Y21892D01*
X47006Y21904D01*
X47003Y21917D01*
X47002Y21931D01*
X47050Y21936D01*
Y21935D01*
Y21935D01*
X47051Y21933D01*
Y21931D01*
X47052Y21926D01*
X47053Y21918D01*
X47056Y21911D01*
X47058Y21903D01*
X47062Y21895D01*
X47066Y21888D01*
X47066Y21887D01*
X47068Y21885D01*
X47071Y21881D01*
X47075Y21877D01*
X47081Y21872D01*
X47087Y21867D01*
X47095Y21862D01*
X47104Y21858D01*
X47104D01*
X47105Y21857D01*
X47107Y21857D01*
X47108Y21856D01*
X47114Y21855D01*
X47121Y21852D01*
X47130Y21850D01*
X47140Y21848D01*
X47151Y21847D01*
X47163Y21847D01*
X47168D01*
X47174Y21847D01*
X47181Y21848D01*
X47188Y21849D01*
X47197Y21850D01*
X47206Y21852D01*
X47214Y21855D01*
X47215Y21856D01*
X47218Y21857D01*
X47222Y21859D01*
X47227Y21861D01*
X47232Y21865D01*
X47238Y21869D01*
X47243Y21873D01*
X47248Y21879D01*
X47248Y21880D01*
X47249Y21882D01*
X47251Y21885D01*
X47253Y21889D01*
X47255Y21893D01*
X47257Y21899D01*
X47258Y21905D01*
X47259Y21912D01*
Y21912D01*
Y21915D01*
X47258Y21918D01*
X47258Y21923D01*
X47256Y21927D01*
X47254Y21933D01*
X47252Y21938D01*
X47248Y21943D01*
X47247Y21944D01*
X47245Y21946D01*
X47243Y21948D01*
X47239Y21951D01*
X47235Y21954D01*
X47229Y21958D01*
X47222Y21962D01*
X47213Y21966D01*
X47213Y21966D01*
X47210Y21967D01*
X47205Y21968D01*
X47203Y21969D01*
X47199Y21970D01*
X47195Y21972D01*
X47190Y21973D01*
X47184Y21974D01*
X47178Y21976D01*
X47171Y21978D01*
X47163Y21980D01*
X47154Y21982D01*
X47145Y21984D01*
X47144D01*
X47143Y21985D01*
X47140Y21986D01*
X47137Y21987D01*
X47132Y21988D01*
X47127Y21989D01*
X47116Y21992D01*
X47104Y21996D01*
X47091Y22000D01*
X47080Y22004D01*
X47075Y22006D01*
X47071Y22008D01*
X47070D01*
X47070Y22009D01*
X47066Y22011D01*
X47061Y22014D01*
X47056Y22018D01*
X47049Y22023D01*
X47042Y22029D01*
X47036Y22037D01*
X47030Y22044D01*
X47030Y22046D01*
X47028Y22048D01*
X47026Y22053D01*
X47023Y22058D01*
X47021Y22065D01*
X47019Y22074D01*
X47017Y22083D01*
X47017Y22092D01*
Y22093D01*
Y22093D01*
Y22095D01*
Y22097D01*
X47018Y22103D01*
X47019Y22110D01*
X47021Y22118D01*
X47023Y22128D01*
X47027Y22137D01*
X47033Y22147D01*
Y22147D01*
X47033Y22148D01*
X47036Y22151D01*
X47040Y22155D01*
X47045Y22161D01*
X47052Y22167D01*
X47060Y22174D01*
X47070Y22180D01*
X47081Y22185D01*
X47082D01*
X47083Y22186D01*
X47084Y22186D01*
X47087Y22188D01*
X47089Y22189D01*
X47093Y22190D01*
X47102Y22192D01*
X47112Y22194D01*
X47124Y22196D01*
X47137Y22198D01*
X47152Y22199D01*
X47159D01*
X47163Y22198D01*
D02*
G37*
G36*
X46788Y21808D02*
X46739D01*
Y22129D01*
X46627Y21808D01*
X46581D01*
X46470Y22135D01*
Y21808D01*
X46421D01*
Y22192D01*
X46497D01*
X46588Y21920D01*
Y21919D01*
X46589Y21918D01*
X46589Y21916D01*
X46591Y21913D01*
X46593Y21907D01*
X46596Y21898D01*
X46598Y21889D01*
X46602Y21880D01*
X46604Y21871D01*
X46607Y21863D01*
X46607Y21864D01*
X46608Y21867D01*
X46609Y21872D01*
X46612Y21878D01*
X46614Y21887D01*
X46618Y21898D01*
X46622Y21910D01*
X46627Y21925D01*
X46719Y22192D01*
X46788D01*
Y21808D01*
D02*
G37*
G36*
X46930D02*
X46879D01*
Y22192D01*
X46930D01*
Y21808D01*
D02*
G37*
G36*
X47555Y22198D02*
X47560D01*
X47565Y22198D01*
X47571Y22196D01*
X47578Y22195D01*
X47592Y22193D01*
X47609Y22188D01*
X47625Y22181D01*
X47633Y22178D01*
X47642Y22173D01*
X47642Y22173D01*
X47643Y22172D01*
X47646Y22170D01*
X47649Y22169D01*
X47652Y22166D01*
X47657Y22163D01*
X47666Y22155D01*
X47676Y22145D01*
X47687Y22133D01*
X47698Y22118D01*
X47707Y22102D01*
Y22102D01*
X47708Y22100D01*
X47709Y22098D01*
X47710Y22094D01*
X47712Y22090D01*
X47714Y22085D01*
X47716Y22079D01*
X47718Y22072D01*
X47720Y22065D01*
X47722Y22057D01*
X47724Y22048D01*
X47726Y22039D01*
X47728Y22020D01*
X47729Y21999D01*
Y21998D01*
Y21996D01*
Y21993D01*
X47729Y21989D01*
Y21984D01*
X47728Y21978D01*
X47727Y21971D01*
X47727Y21964D01*
X47724Y21948D01*
X47719Y21930D01*
X47713Y21912D01*
X47710Y21903D01*
X47706Y21895D01*
Y21894D01*
X47704Y21892D01*
X47703Y21890D01*
X47701Y21887D01*
X47699Y21883D01*
X47696Y21879D01*
X47688Y21868D01*
X47679Y21857D01*
X47668Y21846D01*
X47654Y21835D01*
X47639Y21825D01*
X47638D01*
X47637Y21824D01*
X47634Y21822D01*
X47631Y21821D01*
X47627Y21819D01*
X47623Y21817D01*
X47617Y21815D01*
X47611Y21813D01*
X47605Y21811D01*
X47597Y21809D01*
X47581Y21805D01*
X47564Y21802D01*
X47546Y21801D01*
X47540D01*
X47537Y21802D01*
X47532D01*
X47526Y21803D01*
X47520Y21804D01*
X47513Y21805D01*
X47498Y21808D01*
X47482Y21812D01*
X47465Y21819D01*
X47457Y21823D01*
X47449Y21827D01*
X47448Y21828D01*
X47447Y21829D01*
X47445Y21830D01*
X47441Y21832D01*
X47438Y21835D01*
X47434Y21838D01*
X47425Y21846D01*
X47414Y21856D01*
X47403Y21868D01*
X47393Y21882D01*
X47384Y21898D01*
Y21899D01*
X47383Y21901D01*
X47381Y21903D01*
X47380Y21906D01*
X47379Y21911D01*
X47377Y21916D01*
X47375Y21921D01*
X47373Y21927D01*
X47371Y21935D01*
X47369Y21942D01*
X47365Y21958D01*
X47363Y21976D01*
X47362Y21994D01*
Y21995D01*
Y21996D01*
Y21999D01*
X47363Y22004D01*
Y22011D01*
X47364Y22018D01*
X47365Y22028D01*
X47366Y22038D01*
X47369Y22049D01*
X47371Y22061D01*
X47374Y22073D01*
X47379Y22085D01*
X47384Y22098D01*
X47389Y22110D01*
X47396Y22123D01*
X47404Y22134D01*
X47413Y22144D01*
X47414Y22145D01*
X47415Y22147D01*
X47419Y22149D01*
X47422Y22153D01*
X47427Y22157D01*
X47434Y22162D01*
X47441Y22167D01*
X47449Y22171D01*
X47458Y22176D01*
X47468Y22181D01*
X47479Y22186D01*
X47491Y22190D01*
X47504Y22194D01*
X47517Y22196D01*
X47531Y22198D01*
X47546Y22199D01*
X47551D01*
X47555Y22198D01*
D02*
G37*
G36*
X47431Y21198D02*
X47435D01*
X47445Y21197D01*
X47457Y21195D01*
X47469Y21193D01*
X47482Y21189D01*
X47495Y21185D01*
X47495D01*
X47496Y21184D01*
X47498Y21183D01*
X47500Y21182D01*
X47506Y21179D01*
X47513Y21174D01*
X47521Y21169D01*
X47530Y21162D01*
X47537Y21153D01*
X47545Y21144D01*
Y21143D01*
X47545Y21143D01*
X47546Y21141D01*
X47547Y21139D01*
X47550Y21134D01*
X47553Y21127D01*
X47557Y21118D01*
X47560Y21107D01*
X47563Y21096D01*
X47564Y21084D01*
X47515Y21080D01*
Y21080D01*
Y21082D01*
X47515Y21083D01*
X47514Y21086D01*
X47512Y21092D01*
X47510Y21100D01*
X47507Y21109D01*
X47502Y21118D01*
X47496Y21127D01*
X47488Y21134D01*
X47487Y21135D01*
X47484Y21137D01*
X47479Y21140D01*
X47471Y21144D01*
X47462Y21147D01*
X47451Y21150D01*
X47437Y21153D01*
X47421Y21153D01*
X47414D01*
X47410Y21153D01*
X47406Y21152D01*
X47396Y21151D01*
X47385Y21149D01*
X47374Y21146D01*
X47363Y21142D01*
X47359Y21139D01*
X47354Y21136D01*
X47353Y21135D01*
X47351Y21133D01*
X47348Y21129D01*
X47344Y21125D01*
X47340Y21119D01*
X47337Y21112D01*
X47335Y21104D01*
X47334Y21095D01*
Y21094D01*
Y21092D01*
X47334Y21088D01*
X47335Y21084D01*
X47337Y21078D01*
X47340Y21073D01*
X47343Y21067D01*
X47348Y21062D01*
X47349Y21061D01*
X47351Y21059D01*
X47354Y21058D01*
X47356Y21057D01*
X47359Y21055D01*
X47363Y21053D01*
X47368Y21051D01*
X47374Y21049D01*
X47380Y21047D01*
X47387Y21044D01*
X47395Y21042D01*
X47404Y21039D01*
X47414Y21037D01*
X47425Y21034D01*
X47425D01*
X47427Y21033D01*
X47431Y21033D01*
X47435Y21032D01*
X47440Y21031D01*
X47446Y21029D01*
X47452Y21027D01*
X47459Y21026D01*
X47473Y21022D01*
X47487Y21018D01*
X47494Y21016D01*
X47500Y21013D01*
X47505Y21012D01*
X47510Y21009D01*
X47510D01*
X47511Y21009D01*
X47513Y21008D01*
X47515Y21007D01*
X47521Y21003D01*
X47528Y20999D01*
X47537Y20993D01*
X47545Y20986D01*
X47553Y20978D01*
X47560Y20970D01*
X47560Y20969D01*
X47562Y20966D01*
X47565Y20961D01*
X47568Y20954D01*
X47571Y20947D01*
X47573Y20937D01*
X47575Y20927D01*
X47576Y20916D01*
Y20915D01*
Y20915D01*
Y20913D01*
Y20911D01*
X47575Y20905D01*
X47573Y20897D01*
X47571Y20888D01*
X47568Y20878D01*
X47564Y20868D01*
X47558Y20858D01*
Y20857D01*
X47557Y20857D01*
X47555Y20853D01*
X47551Y20848D01*
X47545Y20843D01*
X47538Y20836D01*
X47529Y20829D01*
X47519Y20822D01*
X47507Y20816D01*
X47507D01*
X47506Y20816D01*
X47504Y20815D01*
X47502Y20814D01*
X47499Y20813D01*
X47495Y20811D01*
X47486Y20809D01*
X47475Y20806D01*
X47462Y20804D01*
X47449Y20802D01*
X47434Y20801D01*
X47425D01*
X47420Y20802D01*
X47415D01*
X47410Y20802D01*
X47403Y20803D01*
X47389Y20805D01*
X47375Y20807D01*
X47360Y20811D01*
X47346Y20816D01*
X47346D01*
X47345Y20817D01*
X47343Y20818D01*
X47341Y20819D01*
X47334Y20822D01*
X47326Y20827D01*
X47318Y20834D01*
X47308Y20842D01*
X47299Y20851D01*
X47291Y20862D01*
Y20862D01*
X47290Y20863D01*
X47289Y20865D01*
X47288Y20867D01*
X47287Y20870D01*
X47285Y20873D01*
X47281Y20882D01*
X47277Y20892D01*
X47274Y20904D01*
X47272Y20917D01*
X47270Y20931D01*
X47318Y20936D01*
Y20935D01*
Y20935D01*
X47319Y20933D01*
Y20931D01*
X47320Y20926D01*
X47321Y20918D01*
X47324Y20911D01*
X47326Y20903D01*
X47330Y20895D01*
X47334Y20888D01*
X47334Y20887D01*
X47336Y20885D01*
X47339Y20881D01*
X47343Y20877D01*
X47349Y20872D01*
X47355Y20867D01*
X47363Y20862D01*
X47372Y20858D01*
X47373D01*
X47373Y20857D01*
X47375Y20857D01*
X47376Y20856D01*
X47382Y20855D01*
X47389Y20852D01*
X47398Y20850D01*
X47408Y20848D01*
X47419Y20847D01*
X47431Y20847D01*
X47436D01*
X47442Y20847D01*
X47449Y20848D01*
X47456Y20849D01*
X47465Y20850D01*
X47474Y20852D01*
X47482Y20855D01*
X47484Y20856D01*
X47486Y20857D01*
X47490Y20859D01*
X47495Y20861D01*
X47500Y20865D01*
X47506Y20869D01*
X47511Y20873D01*
X47516Y20879D01*
X47516Y20880D01*
X47517Y20882D01*
X47519Y20885D01*
X47521Y20889D01*
X47523Y20893D01*
X47525Y20899D01*
X47526Y20905D01*
X47527Y20912D01*
Y20912D01*
Y20915D01*
X47526Y20918D01*
X47526Y20923D01*
X47524Y20927D01*
X47522Y20933D01*
X47520Y20938D01*
X47516Y20943D01*
X47515Y20944D01*
X47513Y20946D01*
X47511Y20948D01*
X47507Y20951D01*
X47503Y20954D01*
X47497Y20958D01*
X47490Y20962D01*
X47481Y20966D01*
X47481Y20966D01*
X47478Y20967D01*
X47474Y20968D01*
X47471Y20969D01*
X47467Y20970D01*
X47463Y20972D01*
X47458Y20973D01*
X47452Y20974D01*
X47446Y20976D01*
X47439Y20978D01*
X47431Y20980D01*
X47422Y20982D01*
X47413Y20984D01*
X47412D01*
X47411Y20985D01*
X47408Y20986D01*
X47405Y20987D01*
X47400Y20988D01*
X47395Y20989D01*
X47384Y20992D01*
X47372Y20996D01*
X47359Y21000D01*
X47348Y21004D01*
X47343Y21006D01*
X47339Y21008D01*
X47338D01*
X47338Y21009D01*
X47334Y21011D01*
X47329Y21014D01*
X47324Y21018D01*
X47317Y21023D01*
X47310Y21029D01*
X47304Y21037D01*
X47298Y21044D01*
X47298Y21046D01*
X47296Y21048D01*
X47294Y21053D01*
X47291Y21058D01*
X47289Y21065D01*
X47287Y21074D01*
X47285Y21083D01*
X47285Y21092D01*
Y21093D01*
Y21093D01*
Y21095D01*
Y21097D01*
X47286Y21103D01*
X47287Y21110D01*
X47289Y21118D01*
X47291Y21128D01*
X47295Y21137D01*
X47301Y21147D01*
Y21147D01*
X47301Y21148D01*
X47304Y21151D01*
X47308Y21155D01*
X47313Y21161D01*
X47320Y21167D01*
X47328Y21174D01*
X47338Y21180D01*
X47349Y21185D01*
X47350D01*
X47351Y21186D01*
X47353Y21186D01*
X47355Y21188D01*
X47358Y21189D01*
X47361Y21190D01*
X47370Y21192D01*
X47380Y21194D01*
X47393Y21196D01*
X47405Y21198D01*
X47420Y21199D01*
X47427D01*
X47431Y21198D01*
D02*
G37*
G36*
X46788Y20808D02*
X46739D01*
Y21129D01*
X46627Y20808D01*
X46581D01*
X46470Y21135D01*
Y20808D01*
X46421D01*
Y21192D01*
X46497D01*
X46588Y20920D01*
Y20919D01*
X46589Y20918D01*
X46589Y20916D01*
X46591Y20913D01*
X46593Y20907D01*
X46596Y20898D01*
X46598Y20889D01*
X46602Y20880D01*
X46604Y20871D01*
X46607Y20863D01*
X46607Y20864D01*
X46608Y20867D01*
X46609Y20872D01*
X46612Y20878D01*
X46614Y20887D01*
X46618Y20898D01*
X46622Y20910D01*
X46627Y20925D01*
X46719Y21192D01*
X46788D01*
Y20808D01*
D02*
G37*
G36*
X47705D02*
X47654D01*
Y21192D01*
X47705D01*
Y20808D01*
D02*
G37*
G36*
X47047Y21198D02*
X47052D01*
X47057Y21198D01*
X47064Y21196D01*
X47071Y21195D01*
X47085Y21193D01*
X47102Y21188D01*
X47118Y21181D01*
X47126Y21178D01*
X47134Y21173D01*
X47135Y21173D01*
X47136Y21172D01*
X47138Y21170D01*
X47142Y21169D01*
X47145Y21166D01*
X47149Y21163D01*
X47159Y21155D01*
X47169Y21145D01*
X47180Y21133D01*
X47190Y21118D01*
X47199Y21102D01*
Y21102D01*
X47200Y21100D01*
X47202Y21098D01*
X47203Y21094D01*
X47205Y21090D01*
X47207Y21085D01*
X47209Y21079D01*
X47211Y21072D01*
X47213Y21065D01*
X47215Y21057D01*
X47217Y21048D01*
X47219Y21039D01*
X47221Y21020D01*
X47222Y20999D01*
Y20998D01*
Y20996D01*
Y20993D01*
X47222Y20989D01*
Y20984D01*
X47221Y20978D01*
X47220Y20971D01*
X47219Y20964D01*
X47217Y20948D01*
X47212Y20930D01*
X47206Y20912D01*
X47203Y20903D01*
X47198Y20895D01*
Y20894D01*
X47197Y20892D01*
X47196Y20890D01*
X47194Y20887D01*
X47192Y20883D01*
X47189Y20879D01*
X47181Y20868D01*
X47172Y20857D01*
X47161Y20846D01*
X47147Y20835D01*
X47132Y20825D01*
X47131D01*
X47130Y20824D01*
X47127Y20822D01*
X47124Y20821D01*
X47120Y20819D01*
X47116Y20817D01*
X47110Y20815D01*
X47104Y20813D01*
X47097Y20811D01*
X47090Y20809D01*
X47074Y20805D01*
X47057Y20802D01*
X47038Y20801D01*
X47033D01*
X47030Y20802D01*
X47025D01*
X47019Y20803D01*
X47013Y20804D01*
X47006Y20805D01*
X46991Y20808D01*
X46975Y20812D01*
X46958Y20819D01*
X46950Y20823D01*
X46941Y20827D01*
X46941Y20828D01*
X46940Y20829D01*
X46937Y20830D01*
X46934Y20832D01*
X46931Y20835D01*
X46927Y20838D01*
X46917Y20846D01*
X46907Y20856D01*
X46896Y20868D01*
X46886Y20882D01*
X46876Y20898D01*
Y20899D01*
X46875Y20901D01*
X46874Y20903D01*
X46873Y20906D01*
X46871Y20911D01*
X46870Y20916D01*
X46867Y20921D01*
X46866Y20927D01*
X46864Y20935D01*
X46861Y20942D01*
X46858Y20958D01*
X46856Y20976D01*
X46855Y20994D01*
Y20995D01*
Y20996D01*
Y20999D01*
X46855Y21004D01*
Y21011D01*
X46856Y21018D01*
X46857Y21028D01*
X46859Y21038D01*
X46861Y21049D01*
X46864Y21061D01*
X46867Y21073D01*
X46871Y21085D01*
X46876Y21098D01*
X46882Y21110D01*
X46889Y21123D01*
X46897Y21134D01*
X46906Y21144D01*
X46906Y21145D01*
X46908Y21147D01*
X46911Y21149D01*
X46915Y21153D01*
X46920Y21157D01*
X46926Y21162D01*
X46934Y21167D01*
X46942Y21171D01*
X46951Y21176D01*
X46961Y21181D01*
X46972Y21186D01*
X46983Y21190D01*
X46996Y21194D01*
X47010Y21196D01*
X47023Y21198D01*
X47038Y21199D01*
X47043D01*
X47047Y21198D01*
D02*
G37*
G36*
X46582Y20198D02*
X46586D01*
X46596Y20197D01*
X46608Y20195D01*
X46620Y20193D01*
X46633Y20189D01*
X46645Y20185D01*
X46646D01*
X46647Y20184D01*
X46649Y20183D01*
X46651Y20182D01*
X46657Y20179D01*
X46664Y20174D01*
X46672Y20169D01*
X46680Y20161D01*
X46688Y20153D01*
X46695Y20144D01*
Y20143D01*
X46696Y20143D01*
X46697Y20141D01*
X46698Y20139D01*
X46701Y20134D01*
X46704Y20127D01*
X46708Y20118D01*
X46711Y20107D01*
X46714Y20096D01*
X46715Y20084D01*
X46666Y20080D01*
Y20080D01*
Y20082D01*
X46665Y20083D01*
X46665Y20086D01*
X46663Y20092D01*
X46661Y20100D01*
X46658Y20109D01*
X46653Y20118D01*
X46647Y20127D01*
X46639Y20134D01*
X46638Y20135D01*
X46635Y20137D01*
X46629Y20140D01*
X46622Y20144D01*
X46613Y20147D01*
X46602Y20150D01*
X46588Y20153D01*
X46572Y20153D01*
X46564D01*
X46561Y20153D01*
X46557Y20152D01*
X46547Y20151D01*
X46536Y20149D01*
X46524Y20146D01*
X46514Y20142D01*
X46509Y20139D01*
X46505Y20136D01*
X46504Y20135D01*
X46502Y20133D01*
X46498Y20129D01*
X46495Y20125D01*
X46491Y20119D01*
X46488Y20112D01*
X46486Y20104D01*
X46485Y20095D01*
Y20094D01*
Y20092D01*
X46485Y20088D01*
X46486Y20084D01*
X46488Y20078D01*
X46491Y20073D01*
X46494Y20067D01*
X46499Y20062D01*
X46500Y20061D01*
X46502Y20059D01*
X46505Y20058D01*
X46507Y20057D01*
X46510Y20055D01*
X46514Y20053D01*
X46519Y20051D01*
X46524Y20049D01*
X46531Y20047D01*
X46538Y20044D01*
X46546Y20042D01*
X46554Y20039D01*
X46564Y20037D01*
X46576Y20034D01*
X46576D01*
X46578Y20033D01*
X46582Y20033D01*
X46586Y20032D01*
X46591Y20031D01*
X46597Y20029D01*
X46603Y20027D01*
X46609Y20026D01*
X46624Y20022D01*
X46638Y20018D01*
X46644Y20016D01*
X46650Y20013D01*
X46656Y20012D01*
X46660Y20009D01*
X46661D01*
X46662Y20009D01*
X46664Y20008D01*
X46666Y20007D01*
X46672Y20003D01*
X46679Y19999D01*
X46688Y19993D01*
X46696Y19986D01*
X46704Y19978D01*
X46710Y19970D01*
X46711Y19969D01*
X46713Y19966D01*
X46715Y19961D01*
X46719Y19954D01*
X46722Y19947D01*
X46724Y19937D01*
X46726Y19927D01*
X46727Y19916D01*
Y19915D01*
Y19915D01*
Y19913D01*
Y19911D01*
X46725Y19905D01*
X46724Y19897D01*
X46722Y19888D01*
X46719Y19878D01*
X46715Y19868D01*
X46709Y19858D01*
Y19857D01*
X46708Y19857D01*
X46705Y19853D01*
X46702Y19848D01*
X46696Y19843D01*
X46689Y19836D01*
X46680Y19829D01*
X46670Y19822D01*
X46658Y19816D01*
X46658D01*
X46657Y19816D01*
X46655Y19815D01*
X46653Y19814D01*
X46649Y19813D01*
X46645Y19811D01*
X46637Y19809D01*
X46626Y19806D01*
X46613Y19804D01*
X46599Y19802D01*
X46584Y19801D01*
X46576D01*
X46571Y19802D01*
X46566D01*
X46561Y19802D01*
X46554Y19803D01*
X46540Y19805D01*
X46526Y19807D01*
X46511Y19811D01*
X46497Y19816D01*
X46497D01*
X46496Y19817D01*
X46494Y19818D01*
X46492Y19819D01*
X46485Y19822D01*
X46477Y19827D01*
X46468Y19834D01*
X46459Y19842D01*
X46450Y19851D01*
X46442Y19862D01*
Y19862D01*
X46441Y19863D01*
X46440Y19865D01*
X46438Y19867D01*
X46437Y19870D01*
X46436Y19873D01*
X46432Y19882D01*
X46428Y19892D01*
X46425Y19904D01*
X46422Y19917D01*
X46421Y19931D01*
X46469Y19936D01*
Y19935D01*
Y19935D01*
X46470Y19933D01*
Y19931D01*
X46471Y19926D01*
X46472Y19918D01*
X46475Y19911D01*
X46477Y19903D01*
X46481Y19895D01*
X46485Y19888D01*
X46485Y19887D01*
X46487Y19885D01*
X46490Y19881D01*
X46494Y19877D01*
X46500Y19872D01*
X46506Y19867D01*
X46514Y19862D01*
X46523Y19858D01*
X46523D01*
X46524Y19857D01*
X46526Y19857D01*
X46527Y19856D01*
X46533Y19855D01*
X46540Y19852D01*
X46549Y19850D01*
X46559Y19848D01*
X46570Y19847D01*
X46582Y19847D01*
X46587D01*
X46593Y19847D01*
X46599Y19848D01*
X46607Y19849D01*
X46616Y19850D01*
X46625Y19852D01*
X46633Y19855D01*
X46634Y19856D01*
X46637Y19857D01*
X46641Y19859D01*
X46646Y19861D01*
X46651Y19865D01*
X46657Y19869D01*
X46662Y19873D01*
X46667Y19879D01*
X46667Y19880D01*
X46668Y19882D01*
X46670Y19885D01*
X46672Y19889D01*
X46674Y19893D01*
X46676Y19899D01*
X46677Y19905D01*
X46678Y19912D01*
Y19912D01*
Y19915D01*
X46677Y19918D01*
X46677Y19923D01*
X46675Y19927D01*
X46673Y19933D01*
X46670Y19938D01*
X46667Y19943D01*
X46666Y19944D01*
X46664Y19946D01*
X46662Y19948D01*
X46658Y19951D01*
X46654Y19954D01*
X46648Y19958D01*
X46640Y19962D01*
X46632Y19966D01*
X46632Y19966D01*
X46629Y19967D01*
X46624Y19968D01*
X46622Y19969D01*
X46618Y19970D01*
X46614Y19972D01*
X46609Y19973D01*
X46603Y19974D01*
X46597Y19976D01*
X46590Y19978D01*
X46582Y19980D01*
X46573Y19982D01*
X46564Y19984D01*
X46563D01*
X46562Y19985D01*
X46559Y19986D01*
X46556Y19987D01*
X46551Y19988D01*
X46546Y19989D01*
X46535Y19992D01*
X46523Y19996D01*
X46510Y20000D01*
X46499Y20004D01*
X46494Y20006D01*
X46490Y20008D01*
X46489D01*
X46488Y20009D01*
X46485Y20011D01*
X46480Y20014D01*
X46475Y20018D01*
X46468Y20023D01*
X46461Y20029D01*
X46455Y20037D01*
X46449Y20044D01*
X46448Y20046D01*
X46447Y20048D01*
X46445Y20053D01*
X46442Y20058D01*
X46440Y20065D01*
X46438Y20074D01*
X46436Y20083D01*
X46436Y20092D01*
Y20093D01*
Y20093D01*
Y20095D01*
Y20097D01*
X46437Y20103D01*
X46438Y20110D01*
X46440Y20118D01*
X46442Y20128D01*
X46446Y20137D01*
X46452Y20147D01*
Y20147D01*
X46452Y20148D01*
X46455Y20151D01*
X46459Y20155D01*
X46464Y20161D01*
X46471Y20167D01*
X46479Y20174D01*
X46489Y20180D01*
X46500Y20185D01*
X46501D01*
X46502Y20186D01*
X46503Y20186D01*
X46506Y20188D01*
X46508Y20189D01*
X46512Y20190D01*
X46521Y20192D01*
X46531Y20194D01*
X46543Y20196D01*
X46556Y20198D01*
X46571Y20199D01*
X46578D01*
X46582Y20198D01*
D02*
G37*
G36*
X46972D02*
X46977Y20198D01*
X46983Y20197D01*
X46989Y20196D01*
X46996Y20195D01*
X47011Y20191D01*
X47028Y20186D01*
X47036Y20183D01*
X47044Y20179D01*
X47052Y20174D01*
X47060Y20169D01*
X47060Y20169D01*
X47061Y20168D01*
X47063Y20166D01*
X47066Y20164D01*
X47069Y20161D01*
X47073Y20157D01*
X47077Y20153D01*
X47081Y20148D01*
X47086Y20143D01*
X47090Y20136D01*
X47095Y20129D01*
X47099Y20122D01*
X47103Y20114D01*
X47108Y20105D01*
X47111Y20097D01*
X47114Y20087D01*
X47064Y20075D01*
Y20075D01*
X47064Y20077D01*
X47063Y20079D01*
X47062Y20082D01*
X47061Y20085D01*
X47059Y20089D01*
X47055Y20098D01*
X47049Y20108D01*
X47042Y20118D01*
X47034Y20128D01*
X47025Y20136D01*
X47024Y20137D01*
X47021Y20139D01*
X47015Y20142D01*
X47008Y20146D01*
X46998Y20149D01*
X46988Y20153D01*
X46975Y20155D01*
X46961Y20155D01*
X46957D01*
X46954Y20155D01*
X46950D01*
X46946Y20154D01*
X46935Y20153D01*
X46924Y20150D01*
X46911Y20147D01*
X46899Y20141D01*
X46887Y20134D01*
X46886D01*
X46886Y20133D01*
X46882Y20130D01*
X46877Y20125D01*
X46871Y20119D01*
X46864Y20110D01*
X46857Y20101D01*
X46851Y20089D01*
X46845Y20077D01*
Y20076D01*
X46845Y20075D01*
X46844Y20073D01*
X46844Y20070D01*
X46842Y20067D01*
X46841Y20063D01*
X46840Y20054D01*
X46838Y20043D01*
X46835Y20031D01*
X46834Y20017D01*
X46834Y20003D01*
Y20002D01*
Y20001D01*
Y19998D01*
Y19994D01*
X46834Y19991D01*
Y19986D01*
X46835Y19980D01*
X46835Y19974D01*
X46837Y19961D01*
X46840Y19946D01*
X46843Y19932D01*
X46848Y19917D01*
Y19917D01*
X46848Y19916D01*
X46849Y19914D01*
X46850Y19911D01*
X46854Y19905D01*
X46859Y19897D01*
X46865Y19888D01*
X46872Y19878D01*
X46881Y19870D01*
X46892Y19862D01*
X46892D01*
X46894Y19862D01*
X46895Y19861D01*
X46897Y19860D01*
X46900Y19858D01*
X46904Y19857D01*
X46911Y19853D01*
X46921Y19850D01*
X46932Y19847D01*
X46945Y19845D01*
X46957Y19845D01*
X46961D01*
X46965Y19845D01*
X46968D01*
X46972Y19846D01*
X46982Y19848D01*
X46994Y19851D01*
X47006Y19855D01*
X47018Y19861D01*
X47024Y19865D01*
X47030Y19869D01*
X47030Y19870D01*
X47031Y19870D01*
X47032Y19872D01*
X47035Y19873D01*
X47037Y19876D01*
X47040Y19880D01*
X47043Y19883D01*
X47046Y19887D01*
X47049Y19892D01*
X47053Y19898D01*
X47056Y19903D01*
X47060Y19910D01*
X47062Y19917D01*
X47065Y19925D01*
X47068Y19933D01*
X47070Y19942D01*
X47121Y19930D01*
Y19929D01*
X47121Y19927D01*
X47119Y19923D01*
X47118Y19919D01*
X47116Y19914D01*
X47114Y19908D01*
X47111Y19901D01*
X47108Y19894D01*
X47100Y19878D01*
X47090Y19863D01*
X47084Y19855D01*
X47078Y19847D01*
X47071Y19841D01*
X47063Y19834D01*
X47063Y19834D01*
X47062Y19832D01*
X47059Y19831D01*
X47056Y19829D01*
X47052Y19826D01*
X47047Y19824D01*
X47041Y19821D01*
X47035Y19818D01*
X47028Y19815D01*
X47020Y19812D01*
X47012Y19809D01*
X47003Y19806D01*
X46993Y19804D01*
X46983Y19803D01*
X46973Y19802D01*
X46962Y19801D01*
X46956D01*
X46951Y19802D01*
X46946D01*
X46940Y19802D01*
X46934Y19804D01*
X46926Y19805D01*
X46910Y19807D01*
X46893Y19812D01*
X46876Y19818D01*
X46869Y19822D01*
X46861Y19826D01*
X46860Y19827D01*
X46859Y19827D01*
X46857Y19829D01*
X46855Y19831D01*
X46851Y19834D01*
X46848Y19837D01*
X46843Y19841D01*
X46839Y19845D01*
X46834Y19850D01*
X46829Y19855D01*
X46819Y19868D01*
X46810Y19883D01*
X46801Y19900D01*
Y19900D01*
X46800Y19902D01*
X46800Y19905D01*
X46798Y19908D01*
X46797Y19912D01*
X46795Y19918D01*
X46793Y19924D01*
X46791Y19931D01*
X46790Y19938D01*
X46788Y19946D01*
X46785Y19963D01*
X46783Y19983D01*
X46781Y20003D01*
Y20003D01*
Y20006D01*
Y20009D01*
X46782Y20013D01*
Y20018D01*
X46783Y20024D01*
X46783Y20031D01*
X46784Y20038D01*
X46787Y20054D01*
X46791Y20072D01*
X46796Y20090D01*
X46804Y20107D01*
X46805Y20108D01*
X46805Y20109D01*
X46806Y20112D01*
X46809Y20114D01*
X46811Y20118D01*
X46814Y20123D01*
X46821Y20133D01*
X46830Y20144D01*
X46841Y20155D01*
X46854Y20166D01*
X46869Y20175D01*
X46870Y20176D01*
X46871Y20176D01*
X46874Y20178D01*
X46876Y20179D01*
X46881Y20181D01*
X46885Y20183D01*
X46891Y20185D01*
X46897Y20187D01*
X46904Y20189D01*
X46911Y20191D01*
X46926Y20195D01*
X46944Y20198D01*
X46962Y20199D01*
X46968D01*
X46972Y20198D01*
D02*
G37*
G36*
X47331Y20036D02*
X47499Y19808D01*
X47432D01*
X47295Y20002D01*
X47233Y19941D01*
Y19808D01*
X47182D01*
Y20192D01*
X47233D01*
Y20001D01*
X47422Y20192D01*
X47492D01*
X47331Y20036D01*
D02*
G37*
G36*
X24449Y64541D02*
X24172D01*
X24171D01*
X24170D01*
X24164D01*
X24156D01*
X24146Y64540D01*
X24134Y64539D01*
X24122Y64537D01*
X24111Y64535D01*
X24101Y64532D01*
X24100D01*
X24097Y64530D01*
X24093Y64527D01*
X24087Y64525D01*
X24082Y64520D01*
X24076Y64515D01*
X24069Y64507D01*
X24064Y64499D01*
X24063Y64498D01*
X24061Y64495D01*
X24059Y64490D01*
X24056Y64484D01*
X24054Y64476D01*
X24051Y64467D01*
X24050Y64456D01*
X24049Y64445D01*
Y64441D01*
X24050Y64437D01*
X24051Y64428D01*
X24053Y64416D01*
X24057Y64403D01*
X24063Y64389D01*
X24070Y64374D01*
X24081Y64361D01*
X24083Y64359D01*
X24087Y64355D01*
X24091Y64352D01*
X24096Y64350D01*
X24101Y64346D01*
X24107Y64343D01*
X24115Y64340D01*
X24124Y64336D01*
X24134Y64333D01*
X24145Y64331D01*
X24157Y64329D01*
X24169Y64327D01*
X24185Y64325D01*
X24200D01*
X24449D01*
Y64248D01*
X23992D01*
Y64317D01*
X24057D01*
X24056Y64318D01*
X24054Y64320D01*
X24050Y64322D01*
X24045Y64326D01*
X24040Y64331D01*
X24034Y64338D01*
X24026Y64345D01*
X24019Y64354D01*
X24013Y64363D01*
X24005Y64374D01*
X23999Y64386D01*
X23994Y64399D01*
X23989Y64413D01*
X23985Y64428D01*
X23983Y64444D01*
X23982Y64462D01*
Y64469D01*
X23983Y64476D01*
X23984Y64486D01*
X23985Y64498D01*
X23988Y64511D01*
X23992Y64525D01*
X23997Y64537D01*
X23998Y64539D01*
X24000Y64543D01*
X24003Y64549D01*
X24007Y64556D01*
X24013Y64566D01*
X24020Y64574D01*
X24027Y64582D01*
X24036Y64589D01*
X24037Y64590D01*
X24041Y64592D01*
X24045Y64595D01*
X24052Y64599D01*
X24061Y64603D01*
X24070Y64607D01*
X24081Y64611D01*
X24093Y64614D01*
X24094D01*
X24097Y64615D01*
X24103Y64616D01*
X24110Y64617D01*
X24121D01*
X24134Y64618D01*
X24149Y64618D01*
X24168D01*
X24449D01*
Y64541D01*
D02*
G37*
G36*
X24236Y64156D02*
X24245Y64155D01*
X24254D01*
X24264Y64153D01*
X24287Y64150D01*
X24310Y64145D01*
X24332Y64138D01*
X24353Y64129D01*
X24354D01*
X24355Y64128D01*
X24358Y64127D01*
X24362Y64125D01*
X24371Y64118D01*
X24382Y64110D01*
X24394Y64099D01*
X24407Y64086D01*
X24420Y64070D01*
X24432Y64052D01*
Y64051D01*
X24433Y64050D01*
X24434Y64047D01*
X24436Y64043D01*
X24438Y64038D01*
X24440Y64033D01*
X24445Y64019D01*
X24450Y64004D01*
X24455Y63984D01*
X24458Y63964D01*
X24459Y63942D01*
Y63933D01*
X24458Y63926D01*
X24457Y63918D01*
X24455Y63909D01*
X24454Y63898D01*
X24452Y63887D01*
X24445Y63862D01*
X24439Y63849D01*
X24434Y63836D01*
X24426Y63823D01*
X24418Y63810D01*
X24409Y63799D01*
X24398Y63787D01*
X24397Y63786D01*
X24395Y63784D01*
X24392Y63781D01*
X24386Y63778D01*
X24380Y63773D01*
X24373Y63768D01*
X24363Y63763D01*
X24352Y63758D01*
X24341Y63752D01*
X24327Y63747D01*
X24312Y63742D01*
X24297Y63738D01*
X24280Y63734D01*
X24261Y63731D01*
X24241Y63729D01*
X24220Y63728D01*
X24219D01*
X24215D01*
X24209Y63729D01*
X24199D01*
X24189Y63730D01*
X24177Y63732D01*
X24164Y63734D01*
X24149Y63738D01*
X24135Y63741D01*
X24119Y63746D01*
X24103Y63751D01*
X24087Y63758D01*
X24073Y63766D01*
X24058Y63776D01*
X24045Y63786D01*
X24033Y63799D01*
X24032Y63799D01*
X24031Y63801D01*
X24028Y63805D01*
X24025Y63809D01*
X24021Y63815D01*
X24016Y63822D01*
X24012Y63830D01*
X24007Y63839D01*
X24003Y63849D01*
X23998Y63860D01*
X23990Y63884D01*
X23984Y63912D01*
X23983Y63927D01*
X23982Y63942D01*
Y63952D01*
X23983Y63958D01*
X23984Y63966D01*
X23985Y63975D01*
X23987Y63985D01*
X23989Y63997D01*
X23997Y64022D01*
X24002Y64034D01*
X24008Y64047D01*
X24015Y64060D01*
X24024Y64073D01*
X24033Y64085D01*
X24044Y64096D01*
X24045Y64097D01*
X24046Y64099D01*
X24050Y64102D01*
X24055Y64106D01*
X24061Y64110D01*
X24069Y64116D01*
X24078Y64121D01*
X24088Y64127D01*
X24099Y64132D01*
X24113Y64137D01*
X24127Y64143D01*
X24142Y64147D01*
X24158Y64151D01*
X24176Y64154D01*
X24194Y64156D01*
X24214Y64157D01*
X24215D01*
X24218D01*
X24222D01*
X24229D01*
X24236Y64156D01*
D02*
G37*
G36*
X24449Y63562D02*
X23992D01*
Y63639D01*
X24449D01*
Y63562D01*
D02*
G37*
G36*
X23907D02*
X23819D01*
Y63639D01*
X23907D01*
Y63562D01*
D02*
G37*
G36*
X24449Y63493D02*
X24450Y63490D01*
X24451Y63483D01*
X24452Y63475D01*
X24454Y63466D01*
X24455Y63456D01*
X24455Y63436D01*
Y63429D01*
X24455Y63421D01*
X24454Y63412D01*
X24453Y63401D01*
X24450Y63390D01*
X24447Y63380D01*
X24443Y63370D01*
X24442Y63369D01*
X24440Y63367D01*
X24437Y63363D01*
X24433Y63358D01*
X24428Y63353D01*
X24422Y63348D01*
X24415Y63342D01*
X24407Y63338D01*
X24406D01*
X24403Y63337D01*
X24396Y63336D01*
X24387Y63334D01*
X24375Y63332D01*
X24368Y63331D01*
X24360D01*
X24350Y63330D01*
X24340Y63329D01*
X24329D01*
X24316D01*
X24052D01*
Y63272D01*
X23992D01*
Y63329D01*
X23879D01*
X23832Y63407D01*
X23992D01*
Y63485D01*
X24052D01*
Y63407D01*
X24321D01*
X24322D01*
X24326D01*
X24332D01*
X24338Y63408D01*
X24352Y63409D01*
X24359Y63410D01*
X24363Y63410D01*
X24365Y63411D01*
X24369Y63414D01*
X24373Y63418D01*
X24378Y63424D01*
X24379Y63426D01*
X24381Y63431D01*
X24383Y63439D01*
X24383Y63451D01*
Y63460D01*
X24383Y63464D01*
Y63471D01*
X24382Y63478D01*
X24381Y63485D01*
X24449Y63495D01*
Y63493D01*
D02*
G37*
G36*
Y63140D02*
X24448Y63139D01*
X24445Y63138D01*
X24440Y63136D01*
X24433Y63134D01*
X24424Y63131D01*
X24414Y63129D01*
X24404Y63127D01*
X24392Y63125D01*
Y63124D01*
X24393Y63123D01*
X24398Y63118D01*
X24404Y63110D01*
X24413Y63099D01*
X24421Y63085D01*
X24430Y63072D01*
X24438Y63057D01*
X24445Y63042D01*
X24445Y63040D01*
X24446Y63034D01*
X24449Y63026D01*
X24452Y63016D01*
X24455Y63003D01*
X24456Y62989D01*
X24458Y62972D01*
X24459Y62956D01*
Y62949D01*
X24458Y62943D01*
Y62937D01*
X24457Y62929D01*
X24455Y62913D01*
X24450Y62895D01*
X24444Y62875D01*
X24434Y62857D01*
X24423Y62840D01*
X24421Y62838D01*
X24416Y62834D01*
X24408Y62827D01*
X24397Y62820D01*
X24383Y62813D01*
X24368Y62806D01*
X24349Y62802D01*
X24340Y62801D01*
X24329Y62800D01*
X24327D01*
X24323D01*
X24317Y62801D01*
X24309Y62802D01*
X24299Y62804D01*
X24289Y62806D01*
X24278Y62810D01*
X24268Y62815D01*
X24267Y62816D01*
X24263Y62817D01*
X24258Y62821D01*
X24251Y62826D01*
X24244Y62831D01*
X24237Y62838D01*
X24230Y62846D01*
X24223Y62855D01*
X24222Y62856D01*
X24220Y62859D01*
X24217Y62864D01*
X24213Y62871D01*
X24209Y62879D01*
X24205Y62889D01*
X24201Y62899D01*
X24198Y62911D01*
Y62912D01*
X24197Y62916D01*
X24195Y62921D01*
X24194Y62929D01*
X24192Y62938D01*
X24190Y62949D01*
X24188Y62963D01*
X24186Y62980D01*
Y62980D01*
X24185Y62984D01*
Y62989D01*
X24184Y62995D01*
X24183Y63002D01*
X24181Y63011D01*
X24180Y63021D01*
X24178Y63032D01*
X24174Y63054D01*
X24169Y63078D01*
X24164Y63099D01*
X24161Y63109D01*
X24158Y63118D01*
X24158D01*
X24156D01*
X24150Y63119D01*
X24144D01*
X24140D01*
X24138D01*
X24137D01*
X24137D01*
X24131D01*
X24122Y63118D01*
X24112Y63116D01*
X24101Y63113D01*
X24090Y63109D01*
X24080Y63103D01*
X24072Y63096D01*
X24071Y63095D01*
X24067Y63091D01*
X24064Y63083D01*
X24058Y63074D01*
X24054Y63062D01*
X24049Y63047D01*
X24046Y63029D01*
X24045Y63008D01*
Y62999D01*
X24046Y62990D01*
X24048Y62977D01*
X24050Y62964D01*
X24054Y62950D01*
X24058Y62938D01*
X24065Y62927D01*
X24066Y62926D01*
X24068Y62922D01*
X24073Y62918D01*
X24080Y62912D01*
X24089Y62907D01*
X24101Y62900D01*
X24116Y62895D01*
X24132Y62889D01*
X24122Y62814D01*
X24121D01*
X24120Y62815D01*
X24117D01*
X24114Y62816D01*
X24106Y62818D01*
X24094Y62822D01*
X24082Y62826D01*
X24069Y62832D01*
X24056Y62839D01*
X24045Y62847D01*
X24044Y62848D01*
X24040Y62852D01*
X24035Y62857D01*
X24027Y62865D01*
X24020Y62875D01*
X24013Y62887D01*
X24004Y62900D01*
X23998Y62916D01*
Y62917D01*
X23997Y62918D01*
X23996Y62920D01*
X23995Y62924D01*
X23993Y62933D01*
X23990Y62946D01*
X23987Y62960D01*
X23984Y62979D01*
X23983Y62998D01*
X23982Y63020D01*
Y63030D01*
X23983Y63040D01*
X23984Y63053D01*
X23985Y63069D01*
X23988Y63084D01*
X23992Y63100D01*
X23996Y63114D01*
X23997Y63116D01*
X23999Y63121D01*
X24002Y63127D01*
X24005Y63135D01*
X24011Y63144D01*
X24016Y63154D01*
X24024Y63162D01*
X24031Y63169D01*
X24032Y63170D01*
X24035Y63172D01*
X24039Y63175D01*
X24045Y63178D01*
X24053Y63183D01*
X24061Y63186D01*
X24071Y63190D01*
X24083Y63193D01*
X24084D01*
X24086Y63194D01*
X24092Y63195D01*
X24099Y63195D01*
X24109D01*
X24121Y63196D01*
X24137Y63197D01*
X24154D01*
X24258D01*
X24259D01*
X24262D01*
X24268D01*
X24275D01*
X24283D01*
X24293D01*
X24315Y63198D01*
X24338D01*
X24361Y63199D01*
X24371Y63200D01*
X24380D01*
X24388Y63201D01*
X24394Y63202D01*
X24395D01*
X24399Y63203D01*
X24404Y63204D01*
X24412Y63206D01*
X24420Y63208D01*
X24429Y63212D01*
X24439Y63216D01*
X24449Y63221D01*
Y63140D01*
D02*
G37*
G36*
X24295Y62759D02*
X24299Y62758D01*
X24304Y62757D01*
X24311Y62755D01*
X24319Y62754D01*
X24337Y62747D01*
X24356Y62739D01*
X24377Y62727D01*
X24397Y62713D01*
X24406Y62704D01*
X24415Y62695D01*
X24416Y62694D01*
X24417Y62693D01*
X24419Y62690D01*
X24422Y62686D01*
X24425Y62682D01*
X24429Y62675D01*
X24433Y62668D01*
X24437Y62661D01*
X24445Y62642D01*
X24452Y62621D01*
X24457Y62597D01*
X24458Y62583D01*
X24459Y62570D01*
Y62560D01*
X24458Y62554D01*
X24457Y62546D01*
X24455Y62537D01*
X24454Y62527D01*
X24452Y62516D01*
X24445Y62491D01*
X24439Y62479D01*
X24434Y62467D01*
X24426Y62454D01*
X24418Y62442D01*
X24409Y62430D01*
X24398Y62419D01*
X24397Y62418D01*
X24395Y62417D01*
X24392Y62414D01*
X24387Y62410D01*
X24381Y62407D01*
X24373Y62401D01*
X24363Y62397D01*
X24353Y62391D01*
X24342Y62386D01*
X24328Y62381D01*
X24314Y62376D01*
X24298Y62372D01*
X24281Y62368D01*
X24262Y62366D01*
X24243Y62364D01*
X24222Y62363D01*
X24221D01*
X24219D01*
X24215D01*
X24209D01*
X24203Y62364D01*
X24196D01*
X24188Y62365D01*
X24178Y62366D01*
X24158Y62368D01*
X24137Y62373D01*
X24115Y62378D01*
X24093Y62386D01*
X24092D01*
X24090Y62387D01*
X24087Y62389D01*
X24084Y62391D01*
X24074Y62397D01*
X24062Y62405D01*
X24048Y62416D01*
X24035Y62428D01*
X24021Y62444D01*
X24010Y62461D01*
Y62462D01*
X24009Y62464D01*
X24007Y62467D01*
X24005Y62470D01*
X24004Y62475D01*
X24001Y62480D01*
X23995Y62494D01*
X23991Y62509D01*
X23986Y62529D01*
X23983Y62549D01*
X23982Y62571D01*
Y62578D01*
X23983Y62583D01*
Y62589D01*
X23984Y62596D01*
X23986Y62613D01*
X23991Y62632D01*
X23998Y62653D01*
X24007Y62673D01*
X24020Y62692D01*
Y62693D01*
X24022Y62694D01*
X24027Y62699D01*
X24035Y62707D01*
X24047Y62717D01*
X24062Y62727D01*
X24080Y62737D01*
X24101Y62746D01*
X24126Y62753D01*
X24137Y62677D01*
X24137D01*
X24136Y62676D01*
X24130Y62675D01*
X24122Y62673D01*
X24112Y62668D01*
X24101Y62663D01*
X24089Y62656D01*
X24078Y62648D01*
X24069Y62639D01*
X24068Y62638D01*
X24066Y62634D01*
X24062Y62628D01*
X24057Y62621D01*
X24053Y62611D01*
X24049Y62600D01*
X24046Y62587D01*
X24045Y62573D01*
Y62568D01*
X24046Y62563D01*
X24047Y62553D01*
X24051Y62540D01*
X24056Y62525D01*
X24063Y62509D01*
X24074Y62493D01*
X24080Y62486D01*
X24087Y62478D01*
X24088D01*
X24089Y62477D01*
X24092Y62475D01*
X24096Y62473D01*
X24100Y62470D01*
X24106Y62467D01*
X24112Y62464D01*
X24119Y62460D01*
X24128Y62457D01*
X24138Y62454D01*
X24149Y62450D01*
X24161Y62448D01*
X24174Y62446D01*
X24189Y62444D01*
X24204Y62442D01*
X24220D01*
X24221D01*
X24224D01*
X24230D01*
X24235Y62443D01*
X24243D01*
X24251Y62444D01*
X24271Y62447D01*
X24293Y62450D01*
X24316Y62457D01*
X24336Y62465D01*
X24346Y62470D01*
X24354Y62477D01*
X24356Y62478D01*
X24361Y62483D01*
X24367Y62491D01*
X24374Y62501D01*
X24383Y62515D01*
X24389Y62530D01*
X24393Y62549D01*
X24394Y62559D01*
X24395Y62569D01*
Y62571D01*
X24394Y62576D01*
X24393Y62585D01*
X24392Y62595D01*
X24389Y62607D01*
X24383Y62620D01*
X24377Y62632D01*
X24368Y62644D01*
X24367Y62646D01*
X24363Y62649D01*
X24356Y62654D01*
X24346Y62661D01*
X24334Y62667D01*
X24320Y62674D01*
X24301Y62680D01*
X24281Y62683D01*
X24291Y62760D01*
X24292D01*
X24295Y62759D01*
D02*
G37*
G36*
X24449Y62190D02*
X23992D01*
Y62267D01*
X24449D01*
Y62190D01*
D02*
G37*
G36*
X23907D02*
X23819D01*
Y62267D01*
X23907D01*
Y62190D01*
D02*
G37*
G36*
X24449Y61993D02*
X24172D01*
X24171D01*
X24170D01*
X24164D01*
X24156D01*
X24146Y61992D01*
X24134Y61991D01*
X24122Y61989D01*
X24111Y61987D01*
X24101Y61984D01*
X24100D01*
X24097Y61982D01*
X24093Y61979D01*
X24087Y61977D01*
X24082Y61972D01*
X24076Y61967D01*
X24069Y61959D01*
X24064Y61951D01*
X24063Y61950D01*
X24061Y61947D01*
X24059Y61942D01*
X24056Y61936D01*
X24054Y61928D01*
X24051Y61919D01*
X24050Y61908D01*
X24049Y61897D01*
Y61893D01*
X24050Y61889D01*
X24051Y61880D01*
X24053Y61868D01*
X24057Y61855D01*
X24063Y61841D01*
X24070Y61826D01*
X24081Y61813D01*
X24083Y61811D01*
X24087Y61807D01*
X24091Y61804D01*
X24096Y61802D01*
X24101Y61798D01*
X24107Y61795D01*
X24115Y61792D01*
X24124Y61788D01*
X24134Y61785D01*
X24145Y61782D01*
X24157Y61781D01*
X24169Y61779D01*
X24185Y61777D01*
X24200D01*
X24449D01*
Y61700D01*
X23992D01*
Y61769D01*
X24057D01*
X24056Y61770D01*
X24054Y61772D01*
X24050Y61774D01*
X24045Y61778D01*
X24040Y61783D01*
X24034Y61790D01*
X24026Y61797D01*
X24019Y61806D01*
X24013Y61815D01*
X24005Y61826D01*
X23999Y61838D01*
X23994Y61851D01*
X23989Y61865D01*
X23985Y61880D01*
X23983Y61896D01*
X23982Y61914D01*
Y61921D01*
X23983Y61928D01*
X23984Y61938D01*
X23985Y61950D01*
X23988Y61963D01*
X23992Y61977D01*
X23997Y61989D01*
X23998Y61991D01*
X24000Y61995D01*
X24003Y62001D01*
X24007Y62008D01*
X24013Y62018D01*
X24020Y62026D01*
X24027Y62034D01*
X24036Y62041D01*
X24037Y62042D01*
X24041Y62044D01*
X24045Y62047D01*
X24052Y62051D01*
X24061Y62055D01*
X24070Y62059D01*
X24081Y62063D01*
X24093Y62066D01*
X24094D01*
X24097Y62067D01*
X24103Y62068D01*
X24110Y62069D01*
X24121D01*
X24134Y62069D01*
X24149Y62070D01*
X24168D01*
X24449D01*
Y61993D01*
D02*
G37*
G36*
Y61509D02*
X24383D01*
X24383Y61508D01*
X24386Y61506D01*
X24390Y61504D01*
X24394Y61499D01*
X24400Y61494D01*
X24407Y61487D01*
X24414Y61480D01*
X24421Y61471D01*
X24428Y61461D01*
X24434Y61450D01*
X24441Y61438D01*
X24447Y61425D01*
X24452Y61411D01*
X24455Y61396D01*
X24458Y61380D01*
X24459Y61363D01*
Y61357D01*
X24458Y61349D01*
X24457Y61339D01*
X24455Y61327D01*
X24453Y61314D01*
X24449Y61301D01*
X24444Y61288D01*
X24443Y61286D01*
X24441Y61282D01*
X24437Y61276D01*
X24433Y61269D01*
X24427Y61260D01*
X24421Y61251D01*
X24414Y61243D01*
X24405Y61236D01*
X24404Y61235D01*
X24401Y61233D01*
X24396Y61230D01*
X24389Y61227D01*
X24381Y61222D01*
X24371Y61219D01*
X24360Y61215D01*
X24348Y61212D01*
X24347D01*
X24343Y61211D01*
X24338Y61210D01*
X24331D01*
X24320Y61209D01*
X24308Y61209D01*
X24292Y61208D01*
X24275D01*
X23992D01*
Y61285D01*
X24246D01*
X24247D01*
X24249D01*
X24251D01*
X24256D01*
X24266D01*
X24279Y61286D01*
X24292D01*
X24306Y61287D01*
X24318Y61288D01*
X24328Y61290D01*
X24329D01*
X24332Y61291D01*
X24338Y61293D01*
X24345Y61296D01*
X24352Y61301D01*
X24361Y61306D01*
X24368Y61312D01*
X24375Y61321D01*
X24376Y61322D01*
X24378Y61325D01*
X24381Y61330D01*
X24383Y61337D01*
X24387Y61345D01*
X24390Y61355D01*
X24392Y61366D01*
X24393Y61379D01*
Y61385D01*
X24392Y61392D01*
X24391Y61400D01*
X24388Y61410D01*
X24385Y61421D01*
X24381Y61433D01*
X24375Y61445D01*
X24374Y61446D01*
X24372Y61450D01*
X24368Y61455D01*
X24363Y61462D01*
X24355Y61469D01*
X24347Y61476D01*
X24338Y61483D01*
X24327Y61488D01*
X24325Y61489D01*
X24322Y61490D01*
X24314Y61492D01*
X24304Y61495D01*
X24291Y61497D01*
X24276Y61499D01*
X24258Y61500D01*
X24237Y61501D01*
X23992D01*
Y61578D01*
X24449D01*
Y61509D01*
D02*
G37*
G36*
Y61017D02*
X24162D01*
X24161D01*
X24160D01*
X24155D01*
X24147D01*
X24137Y61016D01*
X24126Y61015D01*
X24115Y61015D01*
X24104Y61013D01*
X24096Y61010D01*
X24095D01*
X24092Y61008D01*
X24088Y61006D01*
X24084Y61004D01*
X24078Y61000D01*
X24073Y60995D01*
X24067Y60990D01*
X24062Y60983D01*
X24061Y60982D01*
X24060Y60979D01*
X24058Y60975D01*
X24056Y60969D01*
X24053Y60963D01*
X24051Y60954D01*
X24050Y60946D01*
X24049Y60936D01*
Y60932D01*
X24050Y60928D01*
X24051Y60919D01*
X24053Y60908D01*
X24057Y60895D01*
X24063Y60882D01*
X24071Y60868D01*
X24082Y60855D01*
X24084Y60854D01*
X24088Y60851D01*
X24096Y60845D01*
X24107Y60840D01*
X24121Y60833D01*
X24138Y60829D01*
X24159Y60825D01*
X24184Y60823D01*
X24449D01*
Y60746D01*
X24153D01*
X24152D01*
X24150D01*
X24148D01*
X24145D01*
X24135Y60745D01*
X24124Y60743D01*
X24111Y60741D01*
X24098Y60738D01*
X24086Y60733D01*
X24076Y60727D01*
X24075Y60726D01*
X24071Y60723D01*
X24067Y60718D01*
X24062Y60712D01*
X24057Y60704D01*
X24053Y60693D01*
X24050Y60680D01*
X24049Y60665D01*
Y60659D01*
X24050Y60653D01*
X24051Y60646D01*
X24054Y60636D01*
X24056Y60626D01*
X24061Y60616D01*
X24066Y60605D01*
X24067Y60604D01*
X24070Y60600D01*
X24074Y60595D01*
X24079Y60589D01*
X24086Y60583D01*
X24096Y60576D01*
X24106Y60570D01*
X24117Y60564D01*
X24119Y60564D01*
X24124Y60563D01*
X24131Y60561D01*
X24141Y60558D01*
X24155Y60555D01*
X24171Y60554D01*
X24190Y60553D01*
X24212Y60552D01*
X24449D01*
Y60474D01*
X23992D01*
Y60544D01*
X24057D01*
X24056Y60544D01*
X24052Y60547D01*
X24045Y60553D01*
X24038Y60559D01*
X24029Y60567D01*
X24020Y60577D01*
X24011Y60588D01*
X24003Y60601D01*
X24002Y60603D01*
X23999Y60607D01*
X23996Y60615D01*
X23992Y60625D01*
X23988Y60636D01*
X23985Y60650D01*
X23983Y60666D01*
X23982Y60682D01*
Y60690D01*
X23983Y60700D01*
X23984Y60711D01*
X23987Y60725D01*
X23991Y60738D01*
X23996Y60752D01*
X24004Y60765D01*
X24004Y60767D01*
X24007Y60770D01*
X24012Y60776D01*
X24019Y60783D01*
X24027Y60790D01*
X24037Y60799D01*
X24049Y60806D01*
X24063Y60811D01*
X24062Y60812D01*
X24059Y60814D01*
X24056Y60817D01*
X24050Y60821D01*
X24044Y60827D01*
X24037Y60833D01*
X24030Y60841D01*
X24022Y60850D01*
X24015Y60860D01*
X24007Y60870D01*
X24001Y60882D01*
X23994Y60894D01*
X23989Y60908D01*
X23985Y60923D01*
X23983Y60937D01*
X23982Y60953D01*
Y60960D01*
X23983Y60964D01*
Y60971D01*
X23984Y60977D01*
X23986Y60993D01*
X23991Y61009D01*
X23998Y61026D01*
X24007Y61044D01*
X24020Y61058D01*
X24022Y61060D01*
X24027Y61064D01*
X24035Y61070D01*
X24042Y61073D01*
X24048Y61076D01*
X24056Y61080D01*
X24065Y61083D01*
X24074Y61086D01*
X24085Y61089D01*
X24096Y61091D01*
X24108Y61093D01*
X24121Y61095D01*
X24136D01*
X24449D01*
Y61017D01*
D02*
G37*
G36*
Y60283D02*
X24162D01*
X24161D01*
X24160D01*
X24155D01*
X24147D01*
X24137Y60282D01*
X24126Y60281D01*
X24115Y60280D01*
X24104Y60278D01*
X24096Y60276D01*
X24095D01*
X24092Y60274D01*
X24088Y60272D01*
X24084Y60269D01*
X24078Y60266D01*
X24073Y60261D01*
X24067Y60256D01*
X24062Y60248D01*
X24061Y60247D01*
X24060Y60245D01*
X24058Y60241D01*
X24056Y60235D01*
X24053Y60228D01*
X24051Y60220D01*
X24050Y60212D01*
X24049Y60202D01*
Y60197D01*
X24050Y60194D01*
X24051Y60185D01*
X24053Y60174D01*
X24057Y60161D01*
X24063Y60147D01*
X24071Y60134D01*
X24082Y60121D01*
X24084Y60120D01*
X24088Y60116D01*
X24096Y60111D01*
X24107Y60105D01*
X24121Y60099D01*
X24138Y60094D01*
X24159Y60091D01*
X24184Y60089D01*
X24449D01*
Y60012D01*
X24153D01*
X24152D01*
X24150D01*
X24148D01*
X24145D01*
X24135Y60011D01*
X24124Y60009D01*
X24111Y60007D01*
X24098Y60003D01*
X24086Y59999D01*
X24076Y59992D01*
X24075Y59991D01*
X24071Y59989D01*
X24067Y59984D01*
X24062Y59978D01*
X24057Y59970D01*
X24053Y59959D01*
X24050Y59946D01*
X24049Y59930D01*
Y59925D01*
X24050Y59919D01*
X24051Y59911D01*
X24054Y59902D01*
X24056Y59891D01*
X24061Y59881D01*
X24066Y59870D01*
X24067Y59869D01*
X24070Y59866D01*
X24074Y59861D01*
X24079Y59855D01*
X24086Y59848D01*
X24096Y59842D01*
X24106Y59836D01*
X24117Y59830D01*
X24119Y59829D01*
X24124Y59828D01*
X24131Y59827D01*
X24141Y59824D01*
X24155Y59821D01*
X24171Y59819D01*
X24190Y59818D01*
X24212Y59817D01*
X24449D01*
Y59740D01*
X23992D01*
Y59809D01*
X24057D01*
X24056Y59810D01*
X24052Y59813D01*
X24045Y59818D01*
X24038Y59825D01*
X24029Y59833D01*
X24020Y59843D01*
X24011Y59854D01*
X24003Y59867D01*
X24002Y59868D01*
X23999Y59873D01*
X23996Y59880D01*
X23992Y59890D01*
X23988Y59902D01*
X23985Y59916D01*
X23983Y59931D01*
X23982Y59948D01*
Y59956D01*
X23983Y59966D01*
X23984Y59977D01*
X23987Y59991D01*
X23991Y60004D01*
X23996Y60018D01*
X24004Y60031D01*
X24004Y60032D01*
X24007Y60036D01*
X24012Y60042D01*
X24019Y60049D01*
X24027Y60056D01*
X24037Y60064D01*
X24049Y60072D01*
X24063Y60077D01*
X24062Y60078D01*
X24059Y60080D01*
X24056Y60083D01*
X24050Y60087D01*
X24044Y60093D01*
X24037Y60099D01*
X24030Y60106D01*
X24022Y60115D01*
X24015Y60125D01*
X24007Y60135D01*
X24001Y60147D01*
X23994Y60160D01*
X23989Y60174D01*
X23985Y60188D01*
X23983Y60203D01*
X23982Y60219D01*
Y60226D01*
X23983Y60230D01*
Y60237D01*
X23984Y60243D01*
X23986Y60258D01*
X23991Y60275D01*
X23998Y60292D01*
X24007Y60309D01*
X24020Y60324D01*
X24022Y60326D01*
X24027Y60329D01*
X24035Y60336D01*
X24042Y60339D01*
X24048Y60342D01*
X24056Y60346D01*
X24065Y60349D01*
X24074Y60352D01*
X24085Y60355D01*
X24096Y60357D01*
X24108Y60359D01*
X24121Y60360D01*
X24136D01*
X24449D01*
Y60283D01*
D02*
G37*
G36*
X24236Y59649D02*
X24245Y59648D01*
X24254D01*
X24264Y59646D01*
X24287Y59643D01*
X24310Y59638D01*
X24332Y59632D01*
X24353Y59623D01*
X24354D01*
X24355Y59622D01*
X24358Y59620D01*
X24362Y59618D01*
X24371Y59612D01*
X24382Y59603D01*
X24394Y59592D01*
X24407Y59579D01*
X24420Y59563D01*
X24432Y59545D01*
Y59544D01*
X24433Y59543D01*
X24434Y59541D01*
X24436Y59536D01*
X24438Y59531D01*
X24440Y59526D01*
X24445Y59512D01*
X24450Y59497D01*
X24455Y59478D01*
X24458Y59458D01*
X24459Y59436D01*
Y59427D01*
X24458Y59419D01*
X24457Y59411D01*
X24455Y59402D01*
X24454Y59391D01*
X24452Y59380D01*
X24445Y59356D01*
X24439Y59342D01*
X24434Y59329D01*
X24426Y59316D01*
X24418Y59304D01*
X24409Y59292D01*
X24398Y59280D01*
X24397Y59279D01*
X24395Y59277D01*
X24392Y59275D01*
X24386Y59271D01*
X24380Y59266D01*
X24373Y59262D01*
X24363Y59256D01*
X24352Y59251D01*
X24341Y59245D01*
X24327Y59240D01*
X24312Y59235D01*
X24297Y59231D01*
X24280Y59227D01*
X24261Y59224D01*
X24241Y59223D01*
X24220Y59222D01*
X24219D01*
X24215D01*
X24209Y59223D01*
X24199D01*
X24189Y59223D01*
X24177Y59225D01*
X24164Y59227D01*
X24149Y59231D01*
X24135Y59234D01*
X24119Y59239D01*
X24103Y59244D01*
X24087Y59252D01*
X24073Y59259D01*
X24058Y59269D01*
X24045Y59279D01*
X24033Y59292D01*
X24032Y59293D01*
X24031Y59295D01*
X24028Y59298D01*
X24025Y59303D01*
X24021Y59308D01*
X24016Y59316D01*
X24012Y59323D01*
X24007Y59332D01*
X24003Y59342D01*
X23998Y59353D01*
X23990Y59377D01*
X23984Y59406D01*
X23983Y59420D01*
X23982Y59436D01*
Y59445D01*
X23983Y59451D01*
X23984Y59459D01*
X23985Y59469D01*
X23987Y59479D01*
X23989Y59490D01*
X23997Y59515D01*
X24002Y59528D01*
X24008Y59541D01*
X24015Y59553D01*
X24024Y59566D01*
X24033Y59578D01*
X24044Y59590D01*
X24045Y59591D01*
X24046Y59592D01*
X24050Y59595D01*
X24055Y59599D01*
X24061Y59603D01*
X24069Y59609D01*
X24078Y59614D01*
X24088Y59620D01*
X24099Y59625D01*
X24113Y59631D01*
X24127Y59636D01*
X24142Y59641D01*
X24158Y59644D01*
X24176Y59647D01*
X24194Y59649D01*
X24214Y59650D01*
X24215D01*
X24218D01*
X24222D01*
X24229D01*
X24236Y59649D01*
D02*
G37*
G36*
X24254Y59157D02*
X24260Y59155D01*
X24267Y59152D01*
X24275Y59150D01*
X24285Y59146D01*
X24296Y59142D01*
X24308Y59136D01*
X24333Y59123D01*
X24359Y59107D01*
X24372Y59097D01*
X24384Y59087D01*
X24395Y59076D01*
X24406Y59063D01*
X24407Y59062D01*
X24409Y59060D01*
X24411Y59056D01*
X24414Y59051D01*
X24419Y59044D01*
X24424Y59037D01*
X24428Y59027D01*
X24433Y59017D01*
X24438Y59005D01*
X24443Y58992D01*
X24447Y58978D01*
X24452Y58964D01*
X24455Y58948D01*
X24457Y58932D01*
X24459Y58915D01*
X24460Y58896D01*
Y58886D01*
X24459Y58879D01*
Y58871D01*
X24458Y58861D01*
X24456Y58850D01*
X24455Y58837D01*
X24450Y58811D01*
X24443Y58783D01*
X24433Y58756D01*
X24426Y58743D01*
X24419Y58731D01*
X24418Y58730D01*
X24417Y58728D01*
X24414Y58724D01*
X24411Y58721D01*
X24407Y58715D01*
X24402Y58709D01*
X24395Y58702D01*
X24388Y58694D01*
X24380Y58687D01*
X24372Y58679D01*
X24351Y58662D01*
X24326Y58647D01*
X24299Y58633D01*
X24298D01*
X24295Y58631D01*
X24291Y58630D01*
X24285Y58628D01*
X24278Y58626D01*
X24269Y58623D01*
X24259Y58620D01*
X24248Y58617D01*
X24236Y58614D01*
X24222Y58610D01*
X24194Y58606D01*
X24162Y58602D01*
X24129Y58600D01*
X24128D01*
X24125D01*
X24119D01*
X24113Y58601D01*
X24104D01*
X24095Y58602D01*
X24083Y58603D01*
X24071Y58605D01*
X24045Y58609D01*
X24015Y58616D01*
X23986Y58625D01*
X23958Y58638D01*
X23957Y58639D01*
X23954Y58640D01*
X23951Y58641D01*
X23946Y58645D01*
X23940Y58649D01*
X23933Y58653D01*
X23916Y58665D01*
X23898Y58681D01*
X23880Y58699D01*
X23861Y58720D01*
X23846Y58744D01*
X23845Y58745D01*
X23844Y58748D01*
X23842Y58752D01*
X23840Y58756D01*
X23837Y58763D01*
X23834Y58771D01*
X23830Y58780D01*
X23827Y58790D01*
X23823Y58801D01*
X23820Y58813D01*
X23814Y58838D01*
X23810Y58867D01*
X23808Y58897D01*
Y58906D01*
X23809Y58913D01*
X23810Y58921D01*
X23810Y58931D01*
X23811Y58941D01*
X23814Y58953D01*
X23820Y58978D01*
X23828Y59005D01*
X23833Y59019D01*
X23840Y59031D01*
X23848Y59044D01*
X23856Y59057D01*
X23857Y59058D01*
X23858Y59060D01*
X23861Y59063D01*
X23865Y59068D01*
X23870Y59072D01*
X23876Y59079D01*
X23883Y59085D01*
X23891Y59092D01*
X23900Y59100D01*
X23911Y59107D01*
X23922Y59115D01*
X23933Y59122D01*
X23947Y59129D01*
X23961Y59136D01*
X23975Y59142D01*
X23992Y59147D01*
X24011Y59065D01*
X24010D01*
X24008Y59064D01*
X24004Y59062D01*
X24000Y59060D01*
X23994Y59059D01*
X23987Y59056D01*
X23973Y59049D01*
X23956Y59039D01*
X23940Y59029D01*
X23924Y59015D01*
X23911Y59000D01*
X23909Y58998D01*
X23905Y58993D01*
X23901Y58984D01*
X23894Y58972D01*
X23889Y58957D01*
X23883Y58939D01*
X23880Y58918D01*
X23879Y58896D01*
Y58888D01*
X23880Y58884D01*
Y58877D01*
X23881Y58870D01*
X23883Y58853D01*
X23887Y58834D01*
X23893Y58814D01*
X23902Y58793D01*
X23914Y58773D01*
Y58773D01*
X23916Y58772D01*
X23921Y58765D01*
X23928Y58757D01*
X23939Y58747D01*
X23953Y58735D01*
X23968Y58724D01*
X23987Y58714D01*
X24008Y58705D01*
X24009D01*
X24011Y58704D01*
X24014Y58703D01*
X24018Y58702D01*
X24024Y58701D01*
X24030Y58699D01*
X24045Y58696D01*
X24064Y58692D01*
X24084Y58689D01*
X24106Y58687D01*
X24129Y58686D01*
X24130D01*
X24133D01*
X24137D01*
X24143D01*
X24149Y58687D01*
X24158D01*
X24167Y58688D01*
X24177Y58689D01*
X24199Y58691D01*
X24222Y58696D01*
X24246Y58702D01*
X24270Y58709D01*
X24271D01*
X24272Y58710D01*
X24275Y58712D01*
X24280Y58713D01*
X24291Y58719D01*
X24303Y58727D01*
X24318Y58737D01*
X24333Y58750D01*
X24347Y58764D01*
X24360Y58782D01*
Y58783D01*
X24361Y58784D01*
X24363Y58787D01*
X24364Y58791D01*
X24366Y58795D01*
X24369Y58801D01*
X24374Y58814D01*
X24380Y58830D01*
X24384Y58848D01*
X24388Y58868D01*
X24389Y58889D01*
Y58896D01*
X24388Y58901D01*
Y58907D01*
X24387Y58914D01*
X24383Y58930D01*
X24379Y58949D01*
X24372Y58968D01*
X24362Y58988D01*
X24356Y58998D01*
X24349Y59008D01*
X24348Y59008D01*
X24347Y59009D01*
X24344Y59012D01*
X24342Y59016D01*
X24337Y59019D01*
X24332Y59024D01*
X24326Y59029D01*
X24319Y59034D01*
X24311Y59039D01*
X24301Y59046D01*
X24292Y59051D01*
X24281Y59057D01*
X24270Y59061D01*
X24257Y59066D01*
X24243Y59070D01*
X24229Y59074D01*
X24250Y59158D01*
X24250D01*
X24254Y59157D01*
D02*
G37*
G36*
X24291Y58263D02*
X24303Y58261D01*
X24318Y58258D01*
X24333Y58253D01*
X24350Y58246D01*
X24367Y58236D01*
X24368D01*
X24369Y58235D01*
X24374Y58231D01*
X24383Y58224D01*
X24392Y58215D01*
X24403Y58203D01*
X24414Y58189D01*
X24425Y58172D01*
X24435Y58153D01*
Y58152D01*
X24436Y58150D01*
X24437Y58148D01*
X24439Y58144D01*
X24441Y58138D01*
X24444Y58132D01*
X24447Y58118D01*
X24452Y58100D01*
X24456Y58079D01*
X24459Y58057D01*
X24460Y58032D01*
Y58017D01*
X24459Y58010D01*
Y58002D01*
X24458Y57993D01*
X24457Y57982D01*
X24454Y57959D01*
X24450Y57935D01*
X24444Y57912D01*
X24435Y57889D01*
Y57888D01*
X24434Y57886D01*
X24433Y57883D01*
X24431Y57880D01*
X24425Y57869D01*
X24417Y57856D01*
X24406Y57842D01*
X24393Y57826D01*
X24378Y57811D01*
X24361Y57798D01*
X24360D01*
X24358Y57796D01*
X24355Y57795D01*
X24352Y57792D01*
X24347Y57790D01*
X24342Y57788D01*
X24328Y57781D01*
X24311Y57775D01*
X24291Y57770D01*
X24270Y57766D01*
X24247Y57764D01*
X24240Y57842D01*
X24240D01*
X24241D01*
X24244Y57843D01*
X24248D01*
X24256Y57845D01*
X24268Y57848D01*
X24280Y57852D01*
X24293Y57855D01*
X24306Y57862D01*
X24318Y57868D01*
X24319Y57869D01*
X24322Y57872D01*
X24329Y57876D01*
X24335Y57883D01*
X24343Y57893D01*
X24352Y57903D01*
X24360Y57916D01*
X24367Y57931D01*
Y57932D01*
X24368Y57933D01*
X24369Y57935D01*
X24370Y57938D01*
X24373Y57947D01*
X24376Y57959D01*
X24380Y57974D01*
X24383Y57990D01*
X24384Y58008D01*
X24385Y58028D01*
Y58036D01*
X24384Y58046D01*
X24383Y58057D01*
X24382Y58069D01*
X24380Y58084D01*
X24376Y58098D01*
X24372Y58112D01*
X24371Y58114D01*
X24369Y58118D01*
X24365Y58125D01*
X24362Y58133D01*
X24355Y58141D01*
X24349Y58150D01*
X24342Y58159D01*
X24332Y58167D01*
X24332Y58168D01*
X24328Y58169D01*
X24323Y58172D01*
X24316Y58176D01*
X24309Y58179D01*
X24300Y58182D01*
X24290Y58184D01*
X24279Y58185D01*
X24278D01*
X24273D01*
X24268Y58184D01*
X24260Y58183D01*
X24253Y58180D01*
X24244Y58178D01*
X24235Y58173D01*
X24227Y58167D01*
X24226Y58166D01*
X24223Y58163D01*
X24219Y58159D01*
X24214Y58153D01*
X24209Y58146D01*
X24202Y58136D01*
X24196Y58124D01*
X24190Y58110D01*
X24189Y58109D01*
X24189Y58105D01*
X24186Y58098D01*
X24185Y58093D01*
X24183Y58087D01*
X24180Y58080D01*
X24178Y58072D01*
X24176Y58063D01*
X24173Y58052D01*
X24170Y58041D01*
X24167Y58028D01*
X24163Y58014D01*
X24159Y57998D01*
Y57997D01*
X24158Y57995D01*
X24158Y57990D01*
X24156Y57985D01*
X24154Y57977D01*
X24152Y57969D01*
X24147Y57951D01*
X24140Y57931D01*
X24134Y57910D01*
X24127Y57892D01*
X24124Y57883D01*
X24120Y57876D01*
Y57875D01*
X24119Y57874D01*
X24116Y57869D01*
X24111Y57861D01*
X24104Y57852D01*
X24096Y57841D01*
X24086Y57830D01*
X24074Y57819D01*
X24061Y57810D01*
X24059Y57809D01*
X24055Y57806D01*
X24047Y57802D01*
X24038Y57799D01*
X24026Y57795D01*
X24013Y57791D01*
X23998Y57789D01*
X23983Y57788D01*
X23982D01*
X23981D01*
X23978D01*
X23974D01*
X23965Y57790D01*
X23953Y57791D01*
X23940Y57794D01*
X23924Y57799D01*
X23909Y57805D01*
X23893Y57814D01*
X23892D01*
X23892Y57815D01*
X23886Y57820D01*
X23879Y57826D01*
X23870Y57834D01*
X23860Y57845D01*
X23849Y57859D01*
X23839Y57875D01*
X23830Y57893D01*
Y57894D01*
X23829Y57896D01*
X23828Y57899D01*
X23826Y57903D01*
X23824Y57907D01*
X23822Y57913D01*
X23819Y57927D01*
X23815Y57944D01*
X23811Y57965D01*
X23809Y57985D01*
X23808Y58009D01*
Y58021D01*
X23809Y58027D01*
Y58034D01*
X23810Y58051D01*
X23813Y58070D01*
X23818Y58090D01*
X23823Y58112D01*
X23830Y58132D01*
Y58133D01*
X23831Y58135D01*
X23833Y58138D01*
X23835Y58141D01*
X23840Y58150D01*
X23848Y58162D01*
X23857Y58176D01*
X23869Y58190D01*
X23882Y58202D01*
X23898Y58214D01*
X23899D01*
X23900Y58215D01*
X23902Y58217D01*
X23905Y58219D01*
X23914Y58223D01*
X23926Y58229D01*
X23941Y58235D01*
X23958Y58240D01*
X23976Y58244D01*
X23996Y58246D01*
X24003Y58166D01*
X24002D01*
X24000D01*
X23997Y58165D01*
X23993Y58164D01*
X23983Y58161D01*
X23969Y58158D01*
X23954Y58152D01*
X23940Y58144D01*
X23926Y58134D01*
X23913Y58121D01*
X23912Y58119D01*
X23909Y58115D01*
X23903Y58106D01*
X23898Y58094D01*
X23892Y58078D01*
X23887Y58060D01*
X23883Y58037D01*
X23882Y58012D01*
Y57999D01*
X23883Y57994D01*
X23884Y57986D01*
X23886Y57970D01*
X23890Y57952D01*
X23894Y57934D01*
X23902Y57916D01*
X23906Y57909D01*
X23911Y57902D01*
X23912Y57900D01*
X23915Y57896D01*
X23922Y57891D01*
X23929Y57885D01*
X23939Y57879D01*
X23950Y57873D01*
X23963Y57870D01*
X23977Y57868D01*
X23979D01*
X23983D01*
X23989Y57869D01*
X23996Y57871D01*
X24005Y57873D01*
X24015Y57878D01*
X24024Y57883D01*
X24033Y57892D01*
X24034Y57893D01*
X24036Y57897D01*
X24039Y57901D01*
X24041Y57904D01*
X24044Y57910D01*
X24047Y57916D01*
X24050Y57924D01*
X24054Y57934D01*
X24057Y57944D01*
X24062Y57955D01*
X24066Y57968D01*
X24070Y57983D01*
X24074Y57999D01*
X24078Y58017D01*
Y58018D01*
X24079Y58022D01*
X24080Y58027D01*
X24082Y58034D01*
X24084Y58042D01*
X24086Y58052D01*
X24089Y58062D01*
X24092Y58073D01*
X24098Y58097D01*
X24105Y58119D01*
X24108Y58130D01*
X24112Y58140D01*
X24115Y58149D01*
X24118Y58157D01*
Y58158D01*
X24119Y58159D01*
X24121Y58162D01*
X24123Y58166D01*
X24128Y58176D01*
X24136Y58188D01*
X24146Y58201D01*
X24157Y58215D01*
X24169Y58228D01*
X24183Y58239D01*
X24185Y58240D01*
X24189Y58243D01*
X24198Y58247D01*
X24209Y58252D01*
X24221Y58257D01*
X24237Y58261D01*
X24254Y58264D01*
X24272Y58265D01*
X24273D01*
X24274D01*
X24277D01*
X24281D01*
X24291Y58263D01*
D02*
G37*
G36*
X24015Y57685D02*
X24022Y57684D01*
X24030Y57683D01*
X24039Y57681D01*
X24049Y57679D01*
X24070Y57673D01*
X24081Y57669D01*
X24093Y57664D01*
X24105Y57657D01*
X24116Y57651D01*
X24127Y57643D01*
X24137Y57634D01*
X24138Y57633D01*
X24140Y57631D01*
X24143Y57628D01*
X24146Y57624D01*
X24150Y57618D01*
X24155Y57611D01*
X24160Y57602D01*
X24165Y57592D01*
X24170Y57580D01*
X24176Y57566D01*
X24180Y57552D01*
X24184Y57534D01*
X24188Y57516D01*
X24190Y57496D01*
X24192Y57473D01*
X24193Y57450D01*
Y57289D01*
X24449D01*
Y57205D01*
X23819D01*
Y57463D01*
X23820Y57477D01*
X23820Y57493D01*
X23821Y57509D01*
X23823Y57524D01*
X23825Y57538D01*
Y57540D01*
X23827Y57546D01*
X23829Y57555D01*
X23831Y57565D01*
X23836Y57577D01*
X23841Y57590D01*
X23848Y57604D01*
X23855Y57616D01*
X23856Y57617D01*
X23859Y57621D01*
X23864Y57627D01*
X23871Y57634D01*
X23879Y57642D01*
X23890Y57650D01*
X23902Y57659D01*
X23915Y57667D01*
X23917Y57668D01*
X23922Y57669D01*
X23930Y57673D01*
X23941Y57677D01*
X23953Y57679D01*
X23968Y57683D01*
X23984Y57685D01*
X24002Y57686D01*
X24003D01*
X24005D01*
X24009D01*
X24015Y57685D01*
D02*
G37*
G36*
X76154Y63446D02*
X76192Y63435D01*
X76236Y63424D01*
X76285Y63402D01*
X76329Y63375D01*
X76378Y63337D01*
X76383Y63331D01*
X76394Y63320D01*
X76422Y63293D01*
X76427Y63288D01*
X76433Y63277D01*
X76455Y63244D01*
X78106Y60384D01*
X78111Y60379D01*
X78117Y60362D01*
X78128Y60329D01*
X78144Y60291D01*
X78155Y60247D01*
X78161Y60193D01*
Y60138D01*
X78155Y60078D01*
Y60072D01*
X78150Y60061D01*
X78144Y60040D01*
X78139Y60018D01*
Y60012D01*
X78133Y60001D01*
X78122Y59985D01*
X78111Y59958D01*
X78106D01*
X78100Y59952D01*
X78089Y59936D01*
X78073Y59908D01*
X78046Y59881D01*
X78013Y59848D01*
X77975Y59815D01*
X77925Y59788D01*
X77871Y59766D01*
X77865D01*
X77849Y59761D01*
X77827Y59755D01*
X77805D01*
X77800Y59750D01*
X77778D01*
X77750Y59744D01*
X74420Y59744D01*
X74388Y59750D01*
X74349Y59761D01*
X74300Y59772D01*
X74251Y59794D01*
X74202Y59821D01*
X74152Y59859D01*
X74147Y59865D01*
X74136Y59876D01*
X74109Y59903D01*
X74103Y59908D01*
X74098Y59919D01*
X74076Y59958D01*
X74070Y59963D01*
X74065Y59979D01*
X74054Y60007D01*
X74038Y60045D01*
X74027Y60089D01*
X74021Y60138D01*
Y60193D01*
X74027Y60253D01*
Y60258D01*
X74032Y60275D01*
X74038Y60297D01*
X74043Y60313D01*
Y60318D01*
X74049Y60329D01*
X74060Y60346D01*
X74070Y60368D01*
Y60373D01*
Y60379D01*
X74076D01*
X75722Y63233D01*
Y63238D01*
X75733Y63249D01*
X75755Y63282D01*
X75798Y63331D01*
X75848Y63375D01*
X75858Y63381D01*
X75880Y63392D01*
X75886Y63397D01*
X75897Y63402D01*
X75919Y63413D01*
X75941Y63424D01*
X75973Y63435D01*
X76012Y63441D01*
X76050Y63452D01*
X76121D01*
X76154Y63446D01*
D02*
G37*
G36*
X78106Y59154D02*
X78035D01*
X77761Y59569D01*
Y59154D01*
X77696D01*
Y59679D01*
X77767D01*
X78040Y59269D01*
Y59679D01*
X78106D01*
Y59154D01*
D02*
G37*
G36*
X76362Y59154D02*
X76290D01*
X76012Y59569D01*
Y59154D01*
X75946D01*
Y59679D01*
X76017D01*
X76296Y59269D01*
Y59679D01*
X76362D01*
Y59154D01*
D02*
G37*
G36*
X77007Y59154D02*
X76936D01*
Y59679D01*
X77007D01*
Y59154D01*
D02*
G37*
G36*
X76854Y59619D02*
X76679Y59619D01*
Y59154D01*
X76608D01*
Y59619D01*
X76438D01*
Y59679D01*
X76854Y59679D01*
Y59619D01*
D02*
G37*
G36*
X75842Y59619D02*
X75530D01*
Y59455D01*
X75820D01*
Y59394D01*
X75530D01*
Y59214D01*
X75853D01*
Y59154D01*
X75459D01*
Y59679D01*
X75842D01*
Y59619D01*
D02*
G37*
G36*
X75388D02*
X75213D01*
Y59154D01*
X75148D01*
Y59619D01*
X74973D01*
Y59679D01*
X75388D01*
Y59619D01*
D02*
G37*
G36*
X74940D02*
X74770D01*
Y59154D01*
X74699D01*
Y59619D01*
X74524D01*
Y59679D01*
X74940D01*
Y59619D01*
D02*
G37*
G36*
X74563Y59154D02*
X74486D01*
X74426Y59312D01*
X74207D01*
X74147Y59154D01*
X74076D01*
X74273Y59679D01*
X74349D01*
X74563Y59154D01*
D02*
G37*
G36*
X77400Y59684D02*
X77444Y59673D01*
X77488Y59651D01*
X77499Y59646D01*
X77521Y59630D01*
X77548Y59597D01*
X77575Y59558D01*
Y59553D01*
X77581Y59548D01*
X77592Y59515D01*
X77603Y59471D01*
X77608Y59416D01*
Y59411D01*
Y59405D01*
X77603Y59367D01*
X77597Y59323D01*
X77575Y59274D01*
X77570Y59263D01*
X77554Y59236D01*
X77521Y59208D01*
X77483Y59181D01*
X77472Y59176D01*
X77444Y59165D01*
X77406Y59154D01*
X77357Y59148D01*
X77346D01*
X77313Y59154D01*
X77269Y59165D01*
X77226Y59181D01*
X77215Y59187D01*
X77193Y59208D01*
X77160Y59236D01*
X77133Y59280D01*
Y59285D01*
X77127Y59291D01*
X77122Y59318D01*
X77111Y59362D01*
X77105Y59411D01*
Y59416D01*
Y59433D01*
X77111Y59455D01*
X77116Y59487D01*
X77138Y59553D01*
X77154Y59586D01*
X77176Y59613D01*
X77182Y59619D01*
X77187Y59624D01*
X77204Y59635D01*
X77226Y59651D01*
X77280Y59679D01*
X77318Y59684D01*
X77357Y59690D01*
X77368D01*
X77400Y59684D01*
D02*
G37*
G36*
X85071Y48202D02*
X84404Y47518D01*
X84475D01*
Y47152D01*
X84213D01*
X84163Y46578D01*
X84092Y45785D01*
X84967Y44877D01*
X84901Y44806D01*
X84081Y45653D01*
X84076Y45604D01*
X84114Y45588D01*
X84158Y45560D01*
X84196Y45522D01*
X84223Y45484D01*
X84245Y45440D01*
X84262Y45396D01*
X84273Y45353D01*
X84278Y45298D01*
X84273Y45249D01*
X84256Y45194D01*
X84229Y45134D01*
X84191Y45079D01*
X84152Y45041D01*
X84103Y45008D01*
X84043Y44986D01*
X83994Y44970D01*
X83928D01*
X83863Y44975D01*
X83791Y44997D01*
X83731Y45041D01*
X83688Y45090D01*
X83655Y45134D01*
X83633Y45178D01*
X82988D01*
Y44954D01*
X82780D01*
Y45178D01*
X82753D01*
X82698Y45763D01*
X81763Y44806D01*
X81697Y44872D01*
X82687Y45894D01*
X82643Y46348D01*
X82583Y46977D01*
X82556Y47239D01*
X81632Y48202D01*
X81697Y48267D01*
X82545Y47387D01*
X82523Y47600D01*
X82381D01*
Y47770D01*
X82512D01*
X82506Y47808D01*
X82517Y47830D01*
X82528Y47846D01*
X82550Y47868D01*
X82583Y47895D01*
X82616Y47917D01*
X82654Y47939D01*
X82692Y47955D01*
X82720Y47972D01*
Y48076D01*
X82944D01*
Y48032D01*
X83015Y48043D01*
X83086Y48054D01*
X83152Y48059D01*
X83195D01*
Y48130D01*
X83720D01*
Y48048D01*
X83786Y48043D01*
X83868Y48027D01*
X83945Y48010D01*
X84021Y47988D01*
X84092Y47961D01*
X84141Y47939D01*
X84180Y47912D01*
X84207Y47890D01*
X84218Y47906D01*
X84245Y47923D01*
X84278Y47934D01*
X84316Y47939D01*
X84355Y47934D01*
X84393Y47917D01*
X84420Y47895D01*
X84442Y47857D01*
X84453Y47835D01*
X84459Y47802D01*
X84453Y47775D01*
X84448Y47753D01*
X84437Y47726D01*
X84420Y47709D01*
X84404Y47693D01*
X84387Y47682D01*
X84377Y47671D01*
Y47622D01*
X85000Y48267D01*
X85071Y48202D01*
D02*
G37*
G36*
X79581Y48202D02*
X78914Y47518D01*
X78985D01*
Y47152D01*
X78723D01*
X78673Y46578D01*
X78602Y45785D01*
X79477Y44877D01*
X79412Y44806D01*
X78591Y45653D01*
X78586Y45604D01*
X78624Y45588D01*
X78668Y45560D01*
X78706Y45522D01*
X78734Y45484D01*
X78755Y45440D01*
X78772Y45396D01*
X78783Y45353D01*
X78788Y45298D01*
X78783Y45249D01*
X78766Y45194D01*
X78739Y45134D01*
X78701Y45079D01*
X78662Y45041D01*
X78613Y45008D01*
X78553Y44986D01*
X78504Y44970D01*
X78438D01*
X78373Y44975D01*
X78302Y44997D01*
X78241Y45041D01*
X78198Y45090D01*
X78165Y45134D01*
X78143Y45178D01*
X77498D01*
Y44954D01*
X77290D01*
Y45178D01*
X77263D01*
X77208Y45763D01*
X76273Y44806D01*
X76207Y44872D01*
X77197Y45894D01*
X77153Y46348D01*
X77093Y46977D01*
X77066Y47239D01*
X76142Y48202D01*
X76207Y48267D01*
X77055Y47387D01*
X77033Y47600D01*
X76891D01*
Y47770D01*
X77022D01*
X77017Y47808D01*
X77028Y47830D01*
X77038Y47846D01*
X77060Y47868D01*
X77093Y47895D01*
X77126Y47917D01*
X77164Y47939D01*
X77203Y47955D01*
X77230Y47972D01*
Y48076D01*
X77454D01*
Y48032D01*
X77525Y48043D01*
X77596Y48054D01*
X77662Y48059D01*
X77706D01*
Y48130D01*
X78231D01*
Y48048D01*
X78296Y48043D01*
X78378Y48027D01*
X78455Y48010D01*
X78531Y47988D01*
X78602Y47961D01*
X78652Y47939D01*
X78690Y47912D01*
X78717Y47890D01*
X78728Y47906D01*
X78755Y47923D01*
X78788Y47934D01*
X78827Y47939D01*
X78865Y47934D01*
X78903Y47917D01*
X78930Y47895D01*
X78952Y47857D01*
X78963Y47835D01*
X78969Y47802D01*
X78963Y47775D01*
X78958Y47753D01*
X78947Y47726D01*
X78930Y47709D01*
X78914Y47693D01*
X78898Y47682D01*
X78887Y47671D01*
Y47622D01*
X79510Y48267D01*
X79581Y48202D01*
D02*
G37*
G36*
X84819Y44051D02*
Y44040D01*
Y44029D01*
Y44008D01*
Y43975D01*
Y43936D01*
Y43931D01*
Y43915D01*
Y43893D01*
Y43860D01*
Y43822D01*
Y43778D01*
Y43679D01*
Y43674D01*
Y43658D01*
Y43630D01*
Y43592D01*
Y43510D01*
Y43422D01*
Y43417D01*
Y43406D01*
Y43368D01*
Y43324D01*
Y43313D01*
Y43308D01*
X81828Y43308D01*
Y43324D01*
Y43335D01*
Y43357D01*
Y43384D01*
Y43422D01*
Y43428D01*
Y43444D01*
Y43466D01*
Y43499D01*
Y43537D01*
Y43581D01*
Y43679D01*
Y43685D01*
Y43701D01*
Y43729D01*
Y43767D01*
Y43849D01*
Y43936D01*
Y43942D01*
Y43953D01*
Y43975D01*
Y43997D01*
Y44019D01*
Y44040D01*
Y44051D01*
Y44057D01*
X84819Y44057D01*
Y44051D01*
D02*
G37*
G36*
X79330Y44051D02*
Y44040D01*
Y44029D01*
Y44008D01*
Y43975D01*
Y43936D01*
Y43931D01*
Y43915D01*
Y43893D01*
Y43860D01*
Y43822D01*
Y43778D01*
Y43679D01*
Y43674D01*
Y43658D01*
Y43630D01*
Y43592D01*
Y43510D01*
Y43422D01*
Y43417D01*
Y43406D01*
Y43368D01*
Y43324D01*
Y43313D01*
Y43308D01*
X76339Y43308D01*
Y43324D01*
Y43335D01*
Y43357D01*
Y43384D01*
Y43422D01*
Y43428D01*
Y43444D01*
Y43466D01*
Y43499D01*
Y43537D01*
Y43581D01*
Y43679D01*
Y43685D01*
Y43701D01*
Y43729D01*
Y43767D01*
Y43849D01*
Y43936D01*
Y43942D01*
Y43953D01*
Y43975D01*
Y43997D01*
Y44019D01*
Y44040D01*
Y44051D01*
Y44057D01*
X79330Y44057D01*
Y44051D01*
D02*
G37*
%LPC*%
G36*
X63321Y56377D02*
X63310D01*
X63283Y56372D01*
X63244Y56366D01*
X63201Y56344D01*
Y56339D01*
X63195Y56333D01*
X63184D01*
X63179Y56328D01*
X63162Y56311D01*
X63141Y56290D01*
X63119Y56257D01*
X61549Y53545D01*
Y53539D01*
Y53534D01*
X61544Y53528D01*
X61538Y53506D01*
Y53501D01*
X61533Y53495D01*
X61527Y53474D01*
Y53468D01*
Y53457D01*
X61522Y53446D01*
Y53424D01*
X61527Y53370D01*
X61538Y53342D01*
X61549Y53315D01*
X61555Y53304D01*
X61571Y53288D01*
X61577Y53282D01*
X61593Y53260D01*
X61599D01*
X61604Y53249D01*
X61637Y53233D01*
X61686Y53211D01*
X61719Y53206D01*
X61752Y53200D01*
X64890Y53200D01*
Y53206D01*
X64934D01*
X64950Y53211D01*
X64961Y53217D01*
X64956Y53211D01*
X64961D01*
X64972Y53217D01*
X65005Y53233D01*
X65043Y53266D01*
X65087Y53315D01*
X65093Y53326D01*
X65104Y53348D01*
X65109Y53386D01*
X65114Y53430D01*
Y53435D01*
Y53452D01*
Y53463D01*
X65109Y53484D01*
X65098Y53512D01*
X65082Y53545D01*
Y53550D01*
X63512Y56262D01*
Y56268D01*
X63507Y56273D01*
X63496Y56290D01*
X63490Y56295D01*
X63474Y56311D01*
X63469Y56317D01*
X63463Y56322D01*
X63430Y56344D01*
X63381Y56361D01*
X63354Y56372D01*
X63321D01*
Y56377D01*
D02*
G37*
%LPD*%
G36*
X62867Y54512D02*
X63895Y55043D01*
X63266Y53741D01*
X63496Y53796D01*
X63119Y53359D01*
X63037Y53884D01*
X63206Y53752D01*
X63452Y54687D01*
X62659Y54299D01*
X63168Y56054D01*
X63540Y56065D01*
X62867Y54512D01*
D02*
G37*
%LPC*%
G36*
X47379Y24147D02*
X47290D01*
Y23853D01*
X47381D01*
X47385Y23854D01*
X47394Y23855D01*
X47403Y23855D01*
X47413Y23856D01*
X47423Y23858D01*
X47431Y23860D01*
X47432Y23861D01*
X47435Y23861D01*
X47439Y23863D01*
X47444Y23865D01*
X47450Y23868D01*
X47455Y23872D01*
X47461Y23876D01*
X47466Y23880D01*
X47467Y23881D01*
X47469Y23883D01*
X47472Y23887D01*
X47476Y23893D01*
X47481Y23900D01*
X47486Y23908D01*
X47490Y23918D01*
X47494Y23928D01*
Y23929D01*
X47495Y23930D01*
X47495Y23932D01*
X47496Y23934D01*
X47496Y23937D01*
X47497Y23941D01*
X47499Y23944D01*
X47500Y23949D01*
X47501Y23960D01*
X47503Y23973D01*
X47504Y23987D01*
X47505Y24003D01*
Y24003D01*
Y24006D01*
Y24008D01*
X47504Y24013D01*
Y24018D01*
X47504Y24023D01*
X47503Y24030D01*
X47502Y24037D01*
X47500Y24052D01*
X47496Y24067D01*
X47491Y24082D01*
X47488Y24089D01*
X47485Y24095D01*
Y24095D01*
X47484Y24097D01*
X47482Y24098D01*
X47481Y24100D01*
X47477Y24106D01*
X47471Y24113D01*
X47464Y24120D01*
X47456Y24127D01*
X47446Y24133D01*
X47436Y24138D01*
X47435Y24139D01*
X47432Y24139D01*
X47427Y24141D01*
X47420Y24143D01*
X47411Y24144D01*
X47400Y24145D01*
X47394Y24146D01*
X47386D01*
X47379Y24147D01*
D02*
G37*
G36*
X48073Y17757D02*
X48070D01*
X48068Y17756D01*
X48062Y17756D01*
X48054Y17754D01*
X48045Y17751D01*
X48036Y17747D01*
X48027Y17742D01*
X48018Y17735D01*
X48017Y17734D01*
X48015Y17731D01*
X48011Y17726D01*
X48007Y17719D01*
X48003Y17711D01*
X47999Y17701D01*
X47995Y17690D01*
X47994Y17677D01*
X48150D01*
Y17678D01*
Y17679D01*
X48149Y17680D01*
Y17683D01*
X48148Y17689D01*
X48146Y17696D01*
X48144Y17705D01*
X48141Y17714D01*
X48136Y17722D01*
X48131Y17729D01*
Y17730D01*
X48130Y17730D01*
X48128Y17734D01*
X48123Y17738D01*
X48116Y17743D01*
X48108Y17748D01*
X48098Y17752D01*
X48086Y17756D01*
X48080Y17756D01*
X48073Y17757D01*
D02*
G37*
G36*
X47783D02*
X47775D01*
X47773Y17756D01*
X47767Y17755D01*
X47760Y17754D01*
X47751Y17750D01*
X47742Y17745D01*
X47738Y17742D01*
X47734Y17739D01*
X47729Y17735D01*
X47725Y17730D01*
Y17729D01*
X47724Y17729D01*
X47722Y17727D01*
X47721Y17725D01*
X47720Y17722D01*
X47717Y17719D01*
X47716Y17715D01*
X47714Y17710D01*
X47711Y17705D01*
X47710Y17699D01*
X47707Y17693D01*
X47706Y17686D01*
X47705Y17678D01*
X47704Y17670D01*
X47702Y17661D01*
Y17652D01*
Y17651D01*
Y17650D01*
Y17647D01*
Y17644D01*
X47703Y17640D01*
Y17635D01*
X47704Y17624D01*
X47706Y17613D01*
X47708Y17600D01*
X47711Y17589D01*
X47714Y17584D01*
X47716Y17580D01*
Y17579D01*
X47717Y17578D01*
X47718Y17577D01*
X47720Y17574D01*
X47725Y17568D01*
X47732Y17562D01*
X47740Y17555D01*
X47751Y17549D01*
X47756Y17547D01*
X47763Y17545D01*
X47769Y17544D01*
X47776Y17544D01*
X47779D01*
X47781Y17544D01*
X47787Y17545D01*
X47795Y17547D01*
X47803Y17550D01*
X47812Y17555D01*
X47821Y17562D01*
X47825Y17566D01*
X47830Y17570D01*
Y17571D01*
X47831Y17572D01*
X47832Y17573D01*
X47833Y17575D01*
X47835Y17578D01*
X47837Y17582D01*
X47839Y17586D01*
X47841Y17590D01*
X47843Y17596D01*
X47845Y17601D01*
X47847Y17608D01*
X47849Y17615D01*
X47850Y17623D01*
X47851Y17631D01*
X47852Y17641D01*
Y17650D01*
Y17651D01*
Y17653D01*
Y17655D01*
X47852Y17659D01*
Y17664D01*
X47851Y17669D01*
X47850Y17681D01*
X47847Y17694D01*
X47843Y17707D01*
X47838Y17720D01*
X47835Y17726D01*
X47831Y17731D01*
Y17731D01*
X47830Y17732D01*
X47827Y17735D01*
X47822Y17739D01*
X47816Y17744D01*
X47808Y17749D01*
X47800Y17753D01*
X47789Y17756D01*
X47783Y17757D01*
D02*
G37*
G36*
X47546Y22155D02*
X47541D01*
X47537Y22154D01*
X47532Y22154D01*
X47527Y22153D01*
X47521Y22152D01*
X47514Y22150D01*
X47500Y22146D01*
X47492Y22143D01*
X47484Y22139D01*
X47476Y22135D01*
X47468Y22130D01*
X47460Y22124D01*
X47453Y22118D01*
X47452Y22117D01*
X47451Y22116D01*
X47450Y22114D01*
X47447Y22110D01*
X47444Y22107D01*
X47441Y22102D01*
X47437Y22095D01*
X47434Y22088D01*
X47430Y22080D01*
X47426Y22071D01*
X47423Y22061D01*
X47420Y22050D01*
X47417Y22038D01*
X47416Y22024D01*
X47415Y22009D01*
X47414Y21994D01*
Y21993D01*
Y21991D01*
Y21987D01*
X47415Y21982D01*
X47415Y21977D01*
X47416Y21970D01*
X47417Y21962D01*
X47419Y21954D01*
X47423Y21937D01*
X47426Y21928D01*
X47430Y21918D01*
X47434Y21910D01*
X47439Y21901D01*
X47445Y21892D01*
X47451Y21885D01*
X47452Y21884D01*
X47453Y21883D01*
X47455Y21881D01*
X47458Y21878D01*
X47462Y21875D01*
X47466Y21872D01*
X47471Y21868D01*
X47477Y21865D01*
X47484Y21861D01*
X47491Y21857D01*
X47499Y21854D01*
X47507Y21851D01*
X47516Y21848D01*
X47525Y21846D01*
X47535Y21845D01*
X47545Y21845D01*
X47548D01*
X47551Y21845D01*
X47555D01*
X47560Y21846D01*
X47565Y21847D01*
X47572Y21848D01*
X47578Y21850D01*
X47586Y21852D01*
X47593Y21855D01*
X47602Y21857D01*
X47610Y21861D01*
X47617Y21866D01*
X47625Y21871D01*
X47633Y21877D01*
X47640Y21885D01*
X47641Y21885D01*
X47642Y21886D01*
X47643Y21889D01*
X47646Y21892D01*
X47649Y21896D01*
X47652Y21901D01*
X47655Y21907D01*
X47659Y21914D01*
X47662Y21922D01*
X47666Y21931D01*
X47668Y21940D01*
X47672Y21950D01*
X47674Y21961D01*
X47676Y21973D01*
X47677Y21986D01*
X47677Y21999D01*
Y22000D01*
Y22002D01*
Y22004D01*
Y22007D01*
X47677Y22011D01*
Y22016D01*
X47676Y22021D01*
X47675Y22027D01*
X47673Y22040D01*
X47671Y22053D01*
X47667Y22068D01*
X47661Y22081D01*
Y22082D01*
X47661Y22083D01*
X47659Y22084D01*
X47658Y22087D01*
X47654Y22093D01*
X47649Y22101D01*
X47643Y22110D01*
X47634Y22119D01*
X47625Y22128D01*
X47615Y22135D01*
X47614D01*
X47613Y22137D01*
X47612Y22137D01*
X47609Y22139D01*
X47606Y22140D01*
X47603Y22142D01*
X47595Y22145D01*
X47585Y22149D01*
X47573Y22152D01*
X47560Y22154D01*
X47546Y22155D01*
D02*
G37*
G36*
X47038Y21155D02*
X47033D01*
X47030Y21154D01*
X47025Y21154D01*
X47020Y21153D01*
X47013Y21152D01*
X47007Y21150D01*
X46992Y21146D01*
X46985Y21143D01*
X46977Y21139D01*
X46968Y21135D01*
X46961Y21130D01*
X46953Y21124D01*
X46946Y21118D01*
X46945Y21117D01*
X46944Y21116D01*
X46942Y21114D01*
X46940Y21110D01*
X46937Y21107D01*
X46934Y21102D01*
X46930Y21095D01*
X46926Y21088D01*
X46923Y21080D01*
X46919Y21071D01*
X46916Y21061D01*
X46913Y21050D01*
X46910Y21038D01*
X46909Y21024D01*
X46907Y21009D01*
X46907Y20994D01*
Y20993D01*
Y20991D01*
Y20987D01*
X46907Y20982D01*
X46908Y20977D01*
X46909Y20970D01*
X46910Y20962D01*
X46911Y20954D01*
X46916Y20937D01*
X46919Y20928D01*
X46922Y20918D01*
X46927Y20910D01*
X46932Y20901D01*
X46937Y20892D01*
X46944Y20885D01*
X46945Y20884D01*
X46946Y20883D01*
X46948Y20881D01*
X46951Y20878D01*
X46955Y20875D01*
X46959Y20872D01*
X46964Y20868D01*
X46970Y20865D01*
X46976Y20861D01*
X46983Y20857D01*
X46991Y20854D01*
X47000Y20851D01*
X47008Y20848D01*
X47017Y20846D01*
X47027Y20845D01*
X47038Y20845D01*
X47041D01*
X47043Y20845D01*
X47047D01*
X47052Y20846D01*
X47058Y20847D01*
X47064Y20848D01*
X47071Y20850D01*
X47079Y20852D01*
X47086Y20855D01*
X47094Y20857D01*
X47102Y20861D01*
X47110Y20866D01*
X47118Y20871D01*
X47126Y20877D01*
X47133Y20885D01*
X47133Y20885D01*
X47134Y20886D01*
X47136Y20889D01*
X47139Y20892D01*
X47142Y20896D01*
X47144Y20901D01*
X47148Y20907D01*
X47152Y20914D01*
X47155Y20922D01*
X47158Y20931D01*
X47161Y20940D01*
X47164Y20950D01*
X47167Y20961D01*
X47168Y20973D01*
X47169Y20986D01*
X47170Y20999D01*
Y21000D01*
Y21002D01*
Y21004D01*
Y21007D01*
X47169Y21011D01*
Y21016D01*
X47169Y21021D01*
X47168Y21027D01*
X47166Y21040D01*
X47163Y21053D01*
X47159Y21068D01*
X47154Y21081D01*
Y21082D01*
X47153Y21083D01*
X47152Y21084D01*
X47151Y21087D01*
X47147Y21093D01*
X47142Y21101D01*
X47136Y21110D01*
X47127Y21119D01*
X47118Y21128D01*
X47107Y21135D01*
X47107D01*
X47106Y21137D01*
X47104Y21137D01*
X47102Y21139D01*
X47099Y21140D01*
X47096Y21142D01*
X47087Y21145D01*
X47077Y21149D01*
X47066Y21152D01*
X47052Y21154D01*
X47038Y21155D01*
D02*
G37*
G36*
X24234Y64077D02*
X24218D01*
X24217D01*
X24214D01*
X24209D01*
X24204Y64076D01*
X24197D01*
X24189Y64075D01*
X24169Y64073D01*
X24149Y64068D01*
X24127Y64061D01*
X24107Y64051D01*
X24097Y64045D01*
X24089Y64038D01*
X24088D01*
X24087Y64036D01*
X24082Y64031D01*
X24076Y64023D01*
X24067Y64012D01*
X24059Y63998D01*
X24052Y63982D01*
X24047Y63963D01*
X24046Y63953D01*
X24045Y63942D01*
Y63937D01*
X24046Y63932D01*
X24047Y63922D01*
X24051Y63909D01*
X24056Y63893D01*
X24064Y63877D01*
X24075Y63861D01*
X24082Y63853D01*
X24089Y63846D01*
X24090D01*
X24091Y63844D01*
X24094Y63842D01*
X24097Y63840D01*
X24102Y63837D01*
X24107Y63834D01*
X24115Y63830D01*
X24122Y63827D01*
X24131Y63823D01*
X24140Y63819D01*
X24151Y63817D01*
X24163Y63814D01*
X24176Y63811D01*
X24189Y63809D01*
X24205Y63809D01*
X24220Y63808D01*
X24221D01*
X24224D01*
X24229D01*
X24235Y63809D01*
X24242D01*
X24250Y63809D01*
X24270Y63812D01*
X24291Y63817D01*
X24313Y63824D01*
X24334Y63833D01*
X24343Y63840D01*
X24352Y63846D01*
Y63847D01*
X24354Y63848D01*
X24359Y63853D01*
X24366Y63861D01*
X24373Y63872D01*
X24382Y63886D01*
X24389Y63902D01*
X24393Y63922D01*
X24394Y63932D01*
X24395Y63942D01*
Y63948D01*
X24394Y63952D01*
X24393Y63963D01*
X24390Y63976D01*
X24384Y63991D01*
X24377Y64007D01*
X24366Y64023D01*
X24359Y64031D01*
X24352Y64038D01*
X24351Y64039D01*
X24350Y64040D01*
X24347Y64042D01*
X24343Y64045D01*
X24339Y64047D01*
X24333Y64051D01*
X24326Y64055D01*
X24319Y64058D01*
X24310Y64062D01*
X24300Y64065D01*
X24289Y64068D01*
X24277Y64071D01*
X24263Y64074D01*
X24250Y64075D01*
X24234Y64077D01*
D02*
G37*
G36*
X24219Y63119D02*
Y63118D01*
X24220Y63117D01*
X24221Y63114D01*
X24222Y63111D01*
X24224Y63106D01*
X24226Y63101D01*
X24228Y63094D01*
X24230Y63087D01*
X24232Y63079D01*
X24234Y63069D01*
X24237Y63059D01*
X24240Y63047D01*
X24242Y63034D01*
X24245Y63021D01*
X24247Y63007D01*
X24250Y62991D01*
Y62990D01*
X24250Y62984D01*
X24252Y62975D01*
X24254Y62965D01*
X24256Y62954D01*
X24259Y62943D01*
X24261Y62933D01*
X24265Y62924D01*
Y62923D01*
X24267Y62920D01*
X24269Y62917D01*
X24271Y62913D01*
X24279Y62902D01*
X24290Y62893D01*
X24291D01*
X24292Y62891D01*
X24296Y62890D01*
X24301Y62888D01*
X24306Y62887D01*
X24311Y62885D01*
X24319Y62884D01*
X24326Y62883D01*
X24327D01*
X24332D01*
X24337Y62884D01*
X24344Y62886D01*
X24352Y62888D01*
X24361Y62893D01*
X24370Y62898D01*
X24378Y62906D01*
X24379Y62907D01*
X24381Y62910D01*
X24384Y62916D01*
X24388Y62923D01*
X24392Y62933D01*
X24395Y62945D01*
X24397Y62959D01*
X24398Y62975D01*
Y62982D01*
X24397Y62991D01*
X24395Y63001D01*
X24393Y63014D01*
X24390Y63027D01*
X24385Y63041D01*
X24379Y63054D01*
X24378Y63056D01*
X24375Y63060D01*
X24371Y63066D01*
X24364Y63073D01*
X24357Y63082D01*
X24348Y63091D01*
X24337Y63098D01*
X24325Y63105D01*
X24324Y63106D01*
X24321Y63107D01*
X24314Y63109D01*
X24306Y63112D01*
X24295Y63114D01*
X24282Y63116D01*
X24267Y63117D01*
X24249Y63118D01*
X24219Y63119D01*
D02*
G37*
G36*
X24234Y59571D02*
X24218D01*
X24217D01*
X24214D01*
X24209D01*
X24204Y59570D01*
X24197D01*
X24189Y59569D01*
X24169Y59566D01*
X24149Y59561D01*
X24127Y59554D01*
X24107Y59544D01*
X24097Y59539D01*
X24089Y59531D01*
X24088D01*
X24087Y59530D01*
X24082Y59524D01*
X24076Y59516D01*
X24067Y59505D01*
X24059Y59491D01*
X24052Y59475D01*
X24047Y59457D01*
X24046Y59447D01*
X24045Y59436D01*
Y59430D01*
X24046Y59426D01*
X24047Y59416D01*
X24051Y59402D01*
X24056Y59387D01*
X24064Y59370D01*
X24075Y59355D01*
X24082Y59346D01*
X24089Y59339D01*
X24090D01*
X24091Y59337D01*
X24094Y59336D01*
X24097Y59333D01*
X24102Y59330D01*
X24107Y59327D01*
X24115Y59324D01*
X24122Y59320D01*
X24131Y59316D01*
X24140Y59313D01*
X24151Y59310D01*
X24163Y59307D01*
X24176Y59305D01*
X24189Y59303D01*
X24205Y59302D01*
X24220Y59301D01*
X24221D01*
X24224D01*
X24229D01*
X24235Y59302D01*
X24242D01*
X24250Y59303D01*
X24270Y59305D01*
X24291Y59310D01*
X24313Y59317D01*
X24334Y59326D01*
X24343Y59333D01*
X24352Y59339D01*
Y59340D01*
X24354Y59341D01*
X24359Y59346D01*
X24366Y59355D01*
X24373Y59366D01*
X24382Y59379D01*
X24389Y59396D01*
X24393Y59415D01*
X24394Y59425D01*
X24395Y59436D01*
Y59441D01*
X24394Y59446D01*
X24393Y59456D01*
X24390Y59469D01*
X24384Y59484D01*
X24377Y59500D01*
X24366Y59516D01*
X24359Y59524D01*
X24352Y59531D01*
X24351Y59532D01*
X24350Y59533D01*
X24347Y59535D01*
X24343Y59538D01*
X24339Y59541D01*
X24333Y59544D01*
X24326Y59548D01*
X24319Y59551D01*
X24310Y59555D01*
X24300Y59558D01*
X24289Y59561D01*
X24277Y59564D01*
X24263Y59567D01*
X24250Y59569D01*
X24234Y59571D01*
D02*
G37*
G36*
X24004Y57600D02*
X24004D01*
X24003D01*
X23998D01*
X23990Y57599D01*
X23981Y57597D01*
X23971Y57596D01*
X23959Y57592D01*
X23948Y57586D01*
X23937Y57580D01*
X23936Y57579D01*
X23933Y57576D01*
X23928Y57572D01*
X23922Y57566D01*
X23915Y57558D01*
X23910Y57549D01*
X23904Y57539D01*
X23900Y57527D01*
Y57526D01*
X23899Y57523D01*
X23898Y57517D01*
X23896Y57510D01*
X23895Y57499D01*
X23894Y57485D01*
X23893Y57469D01*
Y57289D01*
X24118D01*
Y57458D01*
X24117Y57464D01*
Y57471D01*
X24117Y57478D01*
X24115Y57495D01*
X24111Y57514D01*
X24106Y57534D01*
X24098Y57551D01*
X24094Y57559D01*
X24088Y57565D01*
X24086Y57567D01*
X24083Y57571D01*
X24076Y57576D01*
X24066Y57583D01*
X24055Y57589D01*
X24040Y57595D01*
X24024Y57598D01*
X24004Y57600D01*
D02*
G37*
G36*
X76094Y63173D02*
X76083D01*
X76055Y63167D01*
X76017Y63162D01*
X75973Y63140D01*
X75968Y63135D01*
X75962Y63129D01*
X75957D01*
X75951Y63124D01*
X75935Y63107D01*
X75913Y63085D01*
X75891Y63052D01*
X74322Y60340D01*
Y60335D01*
Y60329D01*
X74317Y60324D01*
X74311Y60302D01*
X74306Y60297D01*
X74300Y60269D01*
Y60264D01*
Y60253D01*
X74295Y60236D01*
Y60215D01*
X74300Y60165D01*
X74322Y60111D01*
X74327D01*
X74333Y60100D01*
X74344Y60083D01*
X74349Y60078D01*
X74366Y60056D01*
X74371D01*
X74377Y60045D01*
X74409Y60029D01*
X74459Y60007D01*
X74492Y60001D01*
X74524Y59996D01*
X77663Y59996D01*
Y60001D01*
X77701D01*
X77712Y60007D01*
X77734D01*
X77745Y60012D01*
X77778Y60029D01*
X77816Y60061D01*
X77860Y60111D01*
X77865Y60122D01*
X77876Y60144D01*
X77882Y60182D01*
X77887Y60226D01*
Y60231D01*
Y60247D01*
Y60258D01*
X77882Y60280D01*
X77871Y60308D01*
X77854Y60340D01*
Y60346D01*
X76290Y63058D01*
X76285D01*
X76280Y63063D01*
X76269Y63085D01*
Y63091D01*
X76258Y63096D01*
X76247Y63107D01*
X76241Y63113D01*
X76236Y63118D01*
X76203Y63140D01*
X76154Y63156D01*
X76126Y63167D01*
X76094D01*
Y63173D01*
D02*
G37*
%LPD*%
G36*
X76312Y62610D02*
Y62593D01*
Y62566D01*
Y62528D01*
Y62489D01*
Y62440D01*
Y62342D01*
Y62336D01*
Y62320D01*
Y62292D01*
Y62260D01*
Y62221D01*
Y62178D01*
Y62079D01*
Y62074D01*
X76307Y62063D01*
Y62046D01*
X76301Y62025D01*
Y61997D01*
X76296Y61959D01*
Y61953D01*
Y61937D01*
X76290Y61899D01*
X76285Y61877D01*
Y61850D01*
X76280Y61811D01*
X76274Y61773D01*
X76269Y61724D01*
X76263Y61675D01*
X76252Y61614D01*
X76247Y61543D01*
X76236Y61467D01*
X76225Y61385D01*
Y61379D01*
Y61363D01*
Y61341D01*
X76219Y61319D01*
Y61292D01*
X76214Y61254D01*
Y61248D01*
Y61237D01*
X76208Y61199D01*
X76198Y61155D01*
X76192Y61144D01*
X76187Y61133D01*
X75984D01*
Y61144D01*
X75979Y61161D01*
Y61188D01*
X75968Y61237D01*
Y61264D01*
X75962Y61303D01*
X75957Y61346D01*
X75951Y61390D01*
X75941Y61450D01*
X75935Y61511D01*
Y61516D01*
Y61527D01*
X75930Y61543D01*
Y61565D01*
X75924Y61625D01*
X75913Y61691D01*
X75908Y61757D01*
X75902Y61817D01*
X75897Y61839D01*
Y61860D01*
X75891Y61871D01*
Y61877D01*
Y61882D01*
Y61888D01*
X75886Y61915D01*
Y61948D01*
X75880Y61975D01*
Y61981D01*
Y61997D01*
Y62025D01*
X75875Y62068D01*
Y62074D01*
Y62090D01*
Y62117D01*
Y62156D01*
Y62194D01*
Y62243D01*
X75869Y62342D01*
Y62347D01*
Y62364D01*
Y62391D01*
Y62429D01*
Y62467D01*
Y62517D01*
Y62615D01*
X76312D01*
Y62610D01*
D02*
G37*
G36*
X76285Y60953D02*
Y60942D01*
Y60920D01*
Y60893D01*
Y60827D01*
Y60750D01*
Y60745D01*
Y60734D01*
Y60712D01*
Y60690D01*
Y60625D01*
Y60554D01*
X75869D01*
Y60559D01*
Y60570D01*
Y60592D01*
Y60614D01*
Y60679D01*
Y60750D01*
Y60756D01*
Y60767D01*
Y60789D01*
Y60816D01*
Y60882D01*
Y60958D01*
X76285D01*
Y60953D01*
D02*
G37*
%LPC*%
G36*
X74311Y59624D02*
Y59613D01*
X74306Y59591D01*
X74295Y59564D01*
X74284Y59526D01*
X74224Y59373D01*
X74404D01*
X74349Y59515D01*
Y59520D01*
X74344Y59526D01*
X74333Y59553D01*
X74322Y59586D01*
X74311Y59624D01*
D02*
G37*
G36*
X77357Y59630D02*
X77346D01*
X77313Y59624D01*
X77269Y59608D01*
X77231Y59580D01*
X77220Y59569D01*
X77204Y59537D01*
X77193Y59515D01*
X77187Y59487D01*
X77176Y59449D01*
Y59411D01*
Y59405D01*
Y59394D01*
X77182Y59378D01*
Y59356D01*
X77198Y59307D01*
X77226Y59258D01*
X77236Y59247D01*
X77264Y59230D01*
X77302Y59214D01*
X77357Y59203D01*
X77368D01*
X77400Y59208D01*
X77444Y59225D01*
X77483Y59258D01*
Y59263D01*
X77493Y59269D01*
X77510Y59301D01*
X77526Y59351D01*
X77537Y59416D01*
Y59422D01*
Y59427D01*
Y59455D01*
X77526Y59487D01*
X77515Y59526D01*
X77510Y59537D01*
X77499Y59553D01*
X77477Y59580D01*
X77450Y59602D01*
X77444Y59608D01*
X77422Y59619D01*
X77390Y59624D01*
X77357Y59630D01*
D02*
G37*
G36*
X83627Y48037D02*
X83294D01*
Y47983D01*
X83627D01*
Y48037D01*
D02*
G37*
G36*
X82851Y47983D02*
X82813D01*
Y47857D01*
X82851D01*
Y47983D01*
D02*
G37*
G36*
X83195Y47961D02*
X83102Y47955D01*
X83020Y47945D01*
X82944Y47928D01*
Y47770D01*
X84163D01*
Y47791D01*
X84125Y47830D01*
X84076Y47857D01*
X84010Y47890D01*
X83928Y47912D01*
X83830Y47934D01*
X83720Y47950D01*
Y47890D01*
X83195D01*
Y47961D01*
D02*
G37*
G36*
X82720Y47863D02*
X82665Y47835D01*
X82632Y47813D01*
X82605Y47786D01*
Y47770D01*
X82720D01*
Y47863D01*
D02*
G37*
G36*
X84311Y47846D02*
X84305D01*
X84289Y47841D01*
X84273Y47824D01*
X84267Y47797D01*
Y47791D01*
X84273Y47775D01*
X84284Y47759D01*
X84311Y47753D01*
X84316D01*
X84338Y47759D01*
X84355Y47770D01*
X84360Y47797D01*
Y47802D01*
X84355Y47824D01*
X84338Y47841D01*
X84311Y47846D01*
D02*
G37*
G36*
X84377Y47425D02*
X84196D01*
Y47245D01*
X84377D01*
Y47425D01*
D02*
G37*
G36*
X83770Y47015D02*
X83277D01*
Y46982D01*
X83770D01*
Y47015D01*
D02*
G37*
G36*
X84152Y47600D02*
X82621D01*
X82649Y47283D01*
X83343Y46561D01*
X83660Y46889D01*
X83185D01*
Y47108D01*
X83873D01*
X84103Y47343D01*
Y47518D01*
X84141D01*
X84152Y47600D01*
D02*
G37*
G36*
X82665Y47130D02*
X82774Y45976D01*
X83277Y46496D01*
X82665Y47130D01*
D02*
G37*
G36*
X84103Y47206D02*
X83873Y46971D01*
Y46889D01*
X83791D01*
X83409Y46496D01*
X84005Y45878D01*
X84114Y47152D01*
X84103D01*
Y47206D01*
D02*
G37*
G36*
X83343Y46424D02*
X82785Y45850D01*
X82840Y45276D01*
X83611D01*
X83606Y45325D01*
X83622Y45396D01*
X83649Y45462D01*
X83688Y45517D01*
X83726Y45555D01*
X83770Y45588D01*
X83830Y45615D01*
X83890Y45632D01*
X83939Y45637D01*
X83983Y45632D01*
X83994Y45752D01*
X83343Y46424D01*
D02*
G37*
G36*
X83939Y45468D02*
X83912D01*
X83890Y45457D01*
X83857Y45446D01*
X83830Y45429D01*
X83802Y45396D01*
X83781Y45358D01*
X83775Y45303D01*
Y45298D01*
X83781Y45276D01*
X83786Y45254D01*
X83797Y45221D01*
X83813Y45194D01*
X83846Y45167D01*
X83884Y45145D01*
X83939Y45139D01*
X83945D01*
X83966Y45145D01*
X83994Y45150D01*
X84021Y45161D01*
X84054Y45178D01*
X84076Y45211D01*
X84098Y45249D01*
X84103Y45303D01*
Y45309D01*
Y45331D01*
X84092Y45358D01*
X84081Y45386D01*
X84065Y45418D01*
X84032Y45440D01*
X83994Y45462D01*
X83939Y45468D01*
D02*
G37*
G36*
X82895Y45178D02*
X82873D01*
Y45046D01*
X82895D01*
Y45178D01*
D02*
G37*
%LPD*%
G36*
X83994Y45402D02*
X84016Y45386D01*
X84032Y45369D01*
X84043Y45342D01*
X84048Y45303D01*
Y45298D01*
Y45287D01*
X84038Y45249D01*
X84021Y45227D01*
X84005Y45211D01*
X83977Y45200D01*
X83939Y45194D01*
X83923D01*
X83884Y45211D01*
X83863Y45221D01*
X83846Y45238D01*
X83835Y45265D01*
X83830Y45303D01*
Y45309D01*
Y45320D01*
X83846Y45358D01*
X83857Y45380D01*
X83873Y45396D01*
X83901Y45407D01*
X83939Y45413D01*
X83955D01*
X83994Y45402D01*
D02*
G37*
%LPC*%
G36*
X83950Y45320D02*
X83934D01*
X83928Y45314D01*
X83923Y45303D01*
Y45298D01*
X83928Y45293D01*
X83939Y45287D01*
X83950D01*
X83955Y45293D01*
Y45303D01*
Y45309D01*
Y45314D01*
X83950Y45320D01*
D02*
G37*
G36*
X78138Y48037D02*
X77804D01*
Y47983D01*
X78138D01*
Y48037D01*
D02*
G37*
G36*
X77361Y47983D02*
X77323D01*
Y47857D01*
X77361D01*
Y47983D01*
D02*
G37*
G36*
X77706Y47961D02*
X77613Y47955D01*
X77531Y47945D01*
X77454Y47928D01*
Y47770D01*
X78673D01*
Y47791D01*
X78635Y47830D01*
X78586Y47857D01*
X78520Y47890D01*
X78438Y47912D01*
X78340Y47934D01*
X78231Y47950D01*
Y47890D01*
X77706D01*
Y47961D01*
D02*
G37*
G36*
X77230Y47863D02*
X77175Y47835D01*
X77142Y47813D01*
X77115Y47786D01*
Y47770D01*
X77230D01*
Y47863D01*
D02*
G37*
G36*
X78821Y47846D02*
X78816D01*
X78799Y47841D01*
X78783Y47824D01*
X78777Y47797D01*
Y47791D01*
X78783Y47775D01*
X78794Y47759D01*
X78821Y47753D01*
X78827D01*
X78848Y47759D01*
X78865Y47770D01*
X78870Y47797D01*
Y47802D01*
X78865Y47824D01*
X78848Y47841D01*
X78821Y47846D01*
D02*
G37*
G36*
X78887Y47425D02*
X78706D01*
Y47245D01*
X78887D01*
Y47425D01*
D02*
G37*
G36*
X78280Y47015D02*
X77788D01*
Y46982D01*
X78280D01*
Y47015D01*
D02*
G37*
G36*
X78662Y47600D02*
X77131D01*
X77159Y47283D01*
X77853Y46561D01*
X78170Y46889D01*
X77695D01*
Y47108D01*
X78384D01*
X78613Y47343D01*
Y47518D01*
X78652D01*
X78662Y47600D01*
D02*
G37*
G36*
X77175Y47130D02*
X77285Y45976D01*
X77788Y46496D01*
X77175Y47130D01*
D02*
G37*
G36*
X78613Y47206D02*
X78384Y46971D01*
Y46889D01*
X78302D01*
X77919Y46496D01*
X78515Y45878D01*
X78624Y47152D01*
X78613D01*
Y47206D01*
D02*
G37*
G36*
X77853Y46424D02*
X77295Y45850D01*
X77350Y45276D01*
X78121D01*
X78116Y45325D01*
X78132Y45396D01*
X78159Y45462D01*
X78198Y45517D01*
X78236Y45555D01*
X78280Y45588D01*
X78340Y45615D01*
X78400Y45632D01*
X78449Y45637D01*
X78493Y45632D01*
X78504Y45752D01*
X77853Y46424D01*
D02*
G37*
G36*
X78449Y45468D02*
X78422D01*
X78400Y45457D01*
X78367Y45446D01*
X78340Y45429D01*
X78313Y45396D01*
X78291Y45358D01*
X78285Y45303D01*
Y45298D01*
X78291Y45276D01*
X78296Y45254D01*
X78307Y45221D01*
X78323Y45194D01*
X78356Y45167D01*
X78395Y45145D01*
X78449Y45139D01*
X78455D01*
X78477Y45145D01*
X78504Y45150D01*
X78531Y45161D01*
X78564Y45178D01*
X78586Y45211D01*
X78608Y45249D01*
X78613Y45303D01*
Y45309D01*
Y45331D01*
X78602Y45358D01*
X78591Y45385D01*
X78575Y45418D01*
X78542Y45440D01*
X78504Y45462D01*
X78449Y45468D01*
D02*
G37*
G36*
X77405Y45178D02*
X77383D01*
Y45046D01*
X77405D01*
Y45178D01*
D02*
G37*
%LPD*%
G36*
X78504Y45402D02*
X78526Y45385D01*
X78542Y45369D01*
X78553Y45342D01*
X78559Y45303D01*
Y45298D01*
Y45287D01*
X78548Y45249D01*
X78531Y45227D01*
X78515Y45211D01*
X78488Y45200D01*
X78449Y45194D01*
X78433D01*
X78395Y45211D01*
X78373Y45221D01*
X78356Y45238D01*
X78345Y45265D01*
X78340Y45303D01*
Y45309D01*
Y45320D01*
X78356Y45358D01*
X78367Y45380D01*
X78384Y45396D01*
X78411Y45407D01*
X78449Y45413D01*
X78466D01*
X78504Y45402D01*
D02*
G37*
%LPC*%
G36*
X78460Y45320D02*
X78444D01*
X78438Y45314D01*
X78433Y45303D01*
Y45298D01*
X78438Y45293D01*
X78449Y45287D01*
X78460D01*
X78466Y45293D01*
Y45303D01*
Y45309D01*
Y45314D01*
X78460Y45320D01*
D02*
G37*
%LPD*%
D10*
X77679Y17384D02*
G03*
X77679Y17384I-50J0D01*
G01*
X49221Y18250D02*
G03*
X49221Y18250I-50J0D01*
G01*
X9692Y22911D02*
G03*
X9692Y22950I0J20D01*
G01*
D02*
G03*
X9692Y22911I0J-20D01*
G01*
Y16811D02*
G03*
X9692Y16850I0J20D01*
G01*
D02*
G03*
X9692Y16811I0J-20D01*
G01*
Y10761D02*
G03*
X9692Y10800I0J20D01*
G01*
D02*
G03*
X9692Y10761I0J-20D01*
G01*
D11*
X43216Y34855D02*
G03*
X43216Y34855I-1969J0D01*
G01*
X48590Y34866D02*
G03*
X48590Y34866I-1969J0D01*
G01*
X43228Y39069D02*
G03*
X43228Y39069I-1969J0D01*
G01*
X48590Y39080D02*
G03*
X48590Y39080I-1969J0D01*
G01*
X43228Y43293D02*
G03*
X43228Y43293I-1969J0D01*
G01*
X48590Y43225D02*
G03*
X48590Y43225I-1969J0D01*
G01*
X43228Y47497D02*
G03*
X43228Y47497I-1969J0D01*
G01*
X48590Y47430D02*
G03*
X48590Y47430I-1969J0D01*
G01*
X7139Y51157D02*
G03*
X7139Y51235I0J39D01*
G01*
D02*
G03*
X7139Y51157I0J-39D01*
G01*
X9993Y44665D02*
G03*
X9993Y44665I-1575J0D01*
G01*
X54785Y5059D02*
Y40259D01*
X54795D02*
X76335D01*
X54785Y5059D02*
X62595D01*
X76335Y19459D02*
Y40259D01*
X67886Y19459D02*
X76335D01*
X62595Y5059D02*
Y5069D01*
X65007Y7480D01*
Y17470D01*
Y17530D01*
X66935Y19459D01*
X67886D01*
X2253Y46976D02*
Y49162D01*
X1269Y46976D02*
Y49024D01*
X372Y49528D02*
X785D01*
X1447Y50295D02*
X1860D01*
X6311Y41728D02*
Y41983D01*
X42567Y36538D02*
X42960D01*
X42763Y36341D02*
Y36735D01*
X47940Y36549D02*
X48334D01*
X48137Y36352D02*
Y36746D01*
X42578Y40752D02*
X42972D01*
X42775Y40556D02*
Y40949D01*
X47940Y40763D02*
X48334D01*
X48137Y40566D02*
Y40960D01*
X42578Y44976D02*
X42972D01*
X42775Y44779D02*
Y45173D01*
X47940Y44908D02*
X48334D01*
X48137Y44712D02*
Y45105D01*
X42578Y49180D02*
X42972D01*
X42775Y48983D02*
Y49377D01*
X47940Y49113D02*
X48334D01*
X48137Y48916D02*
Y49310D01*
X3687Y35459D02*
X9199D01*
X3687D02*
Y40970D01*
X9199D01*
Y35459D02*
Y40970D01*
X6802Y34035D02*
X7353D01*
X8524Y33529D02*
Y33765D01*
X8533Y34222D02*
Y34774D01*
X4016Y56326D02*
X4409D01*
X4550Y55179D02*
Y56321D01*
X4787D01*
Y55179D02*
Y56321D01*
X4550Y55179D02*
X4787D01*
X27600Y5771D02*
Y5929D01*
X26438Y5771D02*
X27600D01*
X26438D02*
Y5929D01*
X27600D01*
X27610Y6067D02*
Y6500D01*
X5055Y51351D02*
X5606D01*
X6063Y50715D02*
X6299D01*
X5759Y49051D02*
X6311D01*
X4307Y47435D02*
X4563D01*
X9402Y46043D02*
X9796D01*
X9599Y45846D02*
Y46240D01*
X5236Y45305D02*
X5650D01*
X8669Y21572D02*
Y22517D01*
X3944Y21572D02*
X8669D01*
X3944D02*
Y22517D01*
X8669Y23383D02*
Y24485D01*
X3944Y23383D02*
Y24485D01*
X8669Y25352D02*
Y26296D01*
X3944D02*
X8669D01*
X3944Y25352D02*
Y26296D01*
X8669Y15472D02*
Y16417D01*
X3944Y15472D02*
X8669D01*
X3944D02*
Y16417D01*
X8669Y17283D02*
Y18385D01*
X3944Y17283D02*
Y18385D01*
X8669Y19252D02*
Y20196D01*
X3944D02*
X8669D01*
X3944Y19252D02*
Y20196D01*
X8669Y9422D02*
Y10367D01*
X3944Y9422D02*
X8669D01*
X3944D02*
Y10367D01*
X8669Y11233D02*
Y12335D01*
X3944Y11233D02*
Y12335D01*
X8669Y13202D02*
Y14146D01*
X3944D02*
X8669D01*
X3944Y13202D02*
Y14146D01*
X31312Y6017D02*
Y6450D01*
X30141Y5879D02*
X31302D01*
X30141Y5721D02*
Y5879D01*
Y5721D02*
X31302D01*
Y5879D01*
X39052Y28486D02*
Y29175D01*
X36542Y28279D02*
X39101D01*
X36542Y26901D02*
Y28279D01*
Y26901D02*
X39101D01*
Y28279D01*
X43406Y47551D02*
X44312D01*
X48707Y47547D02*
X49613D01*
X53614Y36937D02*
Y49858D01*
X50953Y36937D02*
X53614D01*
X50953D02*
Y49858D01*
X53614D01*
X52283D02*
Y53240D01*
Y33555D02*
Y36937D01*
X42638Y50551D02*
X47638D01*
X42638Y55551D02*
X47638D01*
X43356Y43367D02*
X44262D01*
X48707Y43301D02*
X49613D01*
X43356Y39073D02*
X44262D01*
X48707Y39184D02*
X49613D01*
X43345Y34959D02*
X44250D01*
X48707Y34890D02*
X49613D01*
X39093Y44771D02*
Y44706D01*
X39027D01*
Y44771D01*
X39093D01*
X2165Y50761D02*
X2559D01*
Y50564D01*
X2493Y50499D01*
X2362D01*
X2297Y50564D01*
Y50761D01*
Y50630D02*
X2165Y50499D01*
Y50171D02*
X2559D01*
X2362Y50367D01*
Y50105D01*
X2493Y49974D02*
X2559Y49908D01*
Y49777D01*
X2493Y49711D01*
X2428D01*
X2362Y49777D01*
Y49843D01*
Y49777D01*
X2297Y49711D01*
X2231D01*
X2165Y49777D01*
Y49908D01*
X2231Y49974D01*
X827Y50381D02*
X433D01*
Y50578D01*
X499Y50643D01*
X630D01*
X696Y50578D01*
Y50381D01*
Y50512D02*
X827Y50643D01*
Y50971D02*
X433D01*
X630Y50774D01*
Y51037D01*
X827Y51430D02*
Y51168D01*
X564Y51430D01*
X499D01*
X433Y51365D01*
Y51233D01*
X499Y51168D01*
X1522Y45669D02*
Y45276D01*
X1719D01*
X1785Y45341D01*
Y45604D01*
X1719Y45669D01*
X1522D01*
X2113Y45276D02*
Y45669D01*
X1916Y45472D01*
X2178D01*
X1706Y46312D02*
X1641Y46378D01*
X1509D01*
X1444Y46312D01*
Y46050D01*
X1509Y45984D01*
X1641D01*
X1706Y46050D01*
X2034Y46378D02*
X1903D01*
X1837Y46312D01*
Y46050D01*
X1903Y45984D01*
X2034D01*
X2100Y46050D01*
Y46312D01*
X2034Y46378D01*
X2231Y45984D02*
Y46378D01*
X2493Y45984D01*
Y46378D01*
X2887D02*
X2756Y46312D01*
X2625Y46181D01*
Y46050D01*
X2690Y45984D01*
X2821D01*
X2887Y46050D01*
Y46116D01*
X2821Y46181D01*
X2625D01*
X68930Y13808D02*
X68865Y13874D01*
X68733D01*
X68668Y13808D01*
Y13742D01*
X68733Y13677D01*
X68865D01*
X68930Y13611D01*
Y13546D01*
X68865Y13480D01*
X68733D01*
X68668Y13546D01*
X69061Y13874D02*
Y13480D01*
X69258D01*
X69324Y13546D01*
Y13808D01*
X69258Y13874D01*
X69061D01*
X69455Y13480D02*
X69586D01*
X69521D01*
Y13874D01*
X69455Y13808D01*
X71727Y9916D02*
Y10310D01*
X71923D01*
X71989Y10244D01*
Y10113D01*
X71923Y10047D01*
X71727D01*
X71858D02*
X71989Y9916D01*
X72317D02*
Y10310D01*
X72120Y10113D01*
X72383D01*
X72514Y9916D02*
X72645D01*
X72579D01*
Y10310D01*
X72514Y10244D01*
X74253Y13050D02*
X73860D01*
Y13247D01*
X73925Y13313D01*
X74056D01*
X74122Y13247D01*
Y13050D01*
Y13182D02*
X74253Y13313D01*
Y13641D02*
X73860D01*
X74056Y13444D01*
Y13706D01*
X73925Y13838D02*
X73860Y13903D01*
Y14034D01*
X73925Y14100D01*
X74187D01*
X74253Y14034D01*
Y13903D01*
X74187Y13838D01*
X73925D01*
X76054Y11438D02*
X76448D01*
Y11241D01*
X76382Y11175D01*
X76251D01*
X76186Y11241D01*
Y11438D01*
Y11307D02*
X76054Y11175D01*
X76382Y11044D02*
X76448Y10979D01*
Y10847D01*
X76382Y10782D01*
X76317D01*
X76251Y10847D01*
Y10913D01*
Y10847D01*
X76186Y10782D01*
X76120D01*
X76054Y10847D01*
Y10979D01*
X76120Y11044D01*
Y10651D02*
X76054Y10585D01*
Y10454D01*
X76120Y10388D01*
X76382D01*
X76448Y10454D01*
Y10585D01*
X76382Y10651D01*
X76317D01*
X76251Y10585D01*
Y10388D01*
X72095Y13050D02*
X71702D01*
Y13247D01*
X71767Y13313D01*
X71898D01*
X71964Y13247D01*
Y13050D01*
Y13182D02*
X72095Y13313D01*
X71767Y13444D02*
X71702Y13510D01*
Y13641D01*
X71767Y13706D01*
X71833D01*
X71898Y13641D01*
Y13575D01*
Y13641D01*
X71964Y13706D01*
X72030D01*
X72095Y13641D01*
Y13510D01*
X72030Y13444D01*
X71767Y13838D02*
X71702Y13903D01*
Y14034D01*
X71767Y14100D01*
X71833D01*
X71898Y14034D01*
X71964Y14100D01*
X72030D01*
X72095Y14034D01*
Y13903D01*
X72030Y13838D01*
X71964D01*
X71898Y13903D01*
X71833Y13838D01*
X71767D01*
X71898Y13903D02*
Y14034D01*
X5942Y42431D02*
Y42825D01*
X6139D01*
X6204Y42759D01*
Y42628D01*
X6139Y42562D01*
X5942D01*
X6073D02*
X6204Y42431D01*
X6335Y42759D02*
X6401Y42825D01*
X6532D01*
X6598Y42759D01*
Y42694D01*
X6532Y42628D01*
X6467D01*
X6532D01*
X6598Y42562D01*
Y42497D01*
X6532Y42431D01*
X6401D01*
X6335Y42497D01*
X6729Y42825D02*
X6991D01*
Y42759D01*
X6729Y42497D01*
Y42431D01*
X3390Y35990D02*
X2996D01*
Y36187D01*
X3062Y36252D01*
X3193D01*
X3259Y36187D01*
Y35990D01*
X3062Y36646D02*
X2996Y36580D01*
Y36449D01*
X3062Y36383D01*
X3127D01*
X3193Y36449D01*
Y36580D01*
X3259Y36646D01*
X3324D01*
X3390Y36580D01*
Y36449D01*
X3324Y36383D01*
X3390Y36974D02*
X2996D01*
X3193Y36777D01*
Y37039D01*
X54827Y40578D02*
Y40972D01*
X55023D01*
X55089Y40906D01*
Y40775D01*
X55023Y40710D01*
X54827D01*
X55483Y40906D02*
X55417Y40972D01*
X55286D01*
X55220Y40906D01*
Y40644D01*
X55286Y40578D01*
X55417D01*
X55483Y40644D01*
X55614Y40972D02*
Y40578D01*
X55811D01*
X55876Y40644D01*
Y40710D01*
X55811Y40775D01*
X55614D01*
X55811D01*
X55876Y40841D01*
Y40906D01*
X55811Y40972D01*
X55614D01*
X56007Y40578D02*
X56139D01*
X56073D01*
Y40972D01*
X56007Y40906D01*
X7308Y42935D02*
Y42542D01*
X7570D01*
X7964Y42935D02*
X7702D01*
Y42542D01*
X7964D01*
X7702Y42739D02*
X7833D01*
X8095Y42935D02*
Y42542D01*
X8292D01*
X8358Y42607D01*
Y42870D01*
X8292Y42935D01*
X8095D01*
X8489Y42870D02*
X8554Y42935D01*
X8686D01*
X8751Y42870D01*
Y42804D01*
X8686Y42739D01*
X8620D01*
X8686D01*
X8751Y42673D01*
Y42607D01*
X8686Y42542D01*
X8554D01*
X8489Y42607D01*
X9426Y33819D02*
Y33425D01*
X9688D01*
X10016D02*
Y33819D01*
X9820Y33622D01*
X10082D01*
X3777Y33658D02*
X3712Y33593D01*
Y33462D01*
X3777Y33396D01*
X4040D01*
X4105Y33462D01*
Y33593D01*
X4040Y33658D01*
X3712Y33986D02*
Y33855D01*
X3777Y33790D01*
X4040D01*
X4105Y33855D01*
Y33986D01*
X4040Y34052D01*
X3777D01*
X3712Y33986D01*
X4105Y34183D02*
X3712D01*
X4105Y34446D01*
X3712D01*
X4105Y34773D02*
X3712D01*
X3909Y34577D01*
Y34839D01*
X6030Y33783D02*
X5965Y33717D01*
Y33586D01*
X6030Y33521D01*
X6293D01*
X6358Y33586D01*
Y33717D01*
X6293Y33783D01*
X6358Y34176D02*
Y33914D01*
X6096Y34176D01*
X6030D01*
X5965Y34111D01*
Y33980D01*
X6030Y33914D01*
X5965Y34570D02*
Y34308D01*
X6161D01*
X6096Y34439D01*
Y34504D01*
X6161Y34570D01*
X6293D01*
X6358Y34504D01*
Y34373D01*
X6293Y34308D01*
X10318Y34967D02*
X10384Y35033D01*
Y35164D01*
X10318Y35229D01*
X10056D01*
X9990Y35164D01*
Y35033D01*
X10056Y34967D01*
X9990Y34574D02*
Y34836D01*
X10253Y34574D01*
X10318D01*
X10384Y34639D01*
Y34770D01*
X10318Y34836D01*
X9990Y34246D02*
X10384D01*
X10187Y34442D01*
Y34180D01*
X4715Y42828D02*
X4649Y42894D01*
X4518D01*
X4452Y42828D01*
Y42566D01*
X4518Y42500D01*
X4649D01*
X4715Y42566D01*
X5108Y42500D02*
X4846D01*
X5108Y42762D01*
Y42828D01*
X5043Y42894D01*
X4911D01*
X4846Y42828D01*
X5239Y42500D02*
X5371D01*
X5305D01*
Y42894D01*
X5239Y42828D01*
X23446Y6203D02*
Y6597D01*
X23643D01*
X23709Y6531D01*
Y6400D01*
X23643Y6334D01*
X23446D01*
X23578D02*
X23709Y6203D01*
X23840Y6531D02*
X23906Y6597D01*
X24037D01*
X24102Y6531D01*
Y6466D01*
X24037Y6400D01*
X23971D01*
X24037D01*
X24102Y6334D01*
Y6269D01*
X24037Y6203D01*
X23906D01*
X23840Y6269D01*
X24496Y6597D02*
X24234D01*
Y6400D01*
X24365Y6466D01*
X24430D01*
X24496Y6400D01*
Y6269D01*
X24430Y6203D01*
X24299D01*
X24234Y6269D01*
X26643Y4747D02*
Y4353D01*
X26840D01*
X26906Y4419D01*
Y4681D01*
X26840Y4747D01*
X26643D01*
X27037Y4681D02*
X27102Y4747D01*
X27234D01*
X27299Y4681D01*
Y4616D01*
X27234Y4550D01*
X27168D01*
X27234D01*
X27299Y4484D01*
Y4419D01*
X27234Y4353D01*
X27102D01*
X27037Y4419D01*
X56062Y56631D02*
X55996Y56697D01*
X55865D01*
X55800Y56631D01*
Y56369D01*
X55865Y56303D01*
X55996D01*
X56062Y56369D01*
X56390Y56697D02*
X56259D01*
X56193Y56631D01*
Y56369D01*
X56259Y56303D01*
X56390D01*
X56456Y56369D01*
Y56631D01*
X56390Y56697D01*
X56587Y56303D02*
Y56697D01*
X56849Y56303D01*
Y56697D01*
X56980Y56631D02*
X57046Y56697D01*
X57177D01*
X57243Y56631D01*
Y56566D01*
X57177Y56500D01*
X57112D01*
X57177D01*
X57243Y56434D01*
Y56369D01*
X57177Y56303D01*
X57046D01*
X56980Y56369D01*
X6193Y51947D02*
Y51553D01*
X6456D01*
X6587Y51881D02*
X6652Y51947D01*
X6784D01*
X6849Y51881D01*
Y51816D01*
X6784Y51750D01*
X6718D01*
X6784D01*
X6849Y51684D01*
Y51619D01*
X6784Y51553D01*
X6652D01*
X6587Y51619D01*
X2959Y24131D02*
X2893Y24197D01*
X2762D01*
X2696Y24131D01*
Y24066D01*
X2762Y24000D01*
X2893D01*
X2959Y23934D01*
Y23869D01*
X2893Y23803D01*
X2762D01*
X2696Y23869D01*
X3090Y24197D02*
Y23803D01*
X3221Y23934D01*
X3352Y23803D01*
Y24197D01*
X3484Y24131D02*
X3549Y24197D01*
X3680D01*
X3746Y24131D01*
Y24066D01*
X3680Y24000D01*
X3615D01*
X3680D01*
X3746Y23934D01*
Y23869D01*
X3680Y23803D01*
X3549D01*
X3484Y23869D01*
X3009Y18081D02*
X2943Y18147D01*
X2812D01*
X2746Y18081D01*
Y18016D01*
X2812Y17950D01*
X2943D01*
X3009Y17884D01*
Y17819D01*
X2943Y17753D01*
X2812D01*
X2746Y17819D01*
X3140Y18147D02*
Y17753D01*
X3271Y17884D01*
X3402Y17753D01*
Y18147D01*
X3796Y17753D02*
X3534D01*
X3796Y18016D01*
Y18081D01*
X3730Y18147D01*
X3599D01*
X3534Y18081D01*
X3124Y11981D02*
X3059Y12047D01*
X2928D01*
X2862Y11981D01*
Y11916D01*
X2928Y11850D01*
X3059D01*
X3124Y11784D01*
Y11719D01*
X3059Y11653D01*
X2928D01*
X2862Y11719D01*
X3256Y12047D02*
Y11653D01*
X3387Y11784D01*
X3518Y11653D01*
Y12047D01*
X3649Y11653D02*
X3780D01*
X3715D01*
Y12047D01*
X3649Y11981D01*
X24446Y4753D02*
Y5147D01*
X24643D01*
X24709Y5081D01*
Y4950D01*
X24643Y4884D01*
X24446D01*
X24578D02*
X24709Y4753D01*
X24840Y5081D02*
X24906Y5147D01*
X25037D01*
X25102Y5081D01*
Y5016D01*
X25037Y4950D01*
X24971D01*
X25037D01*
X25102Y4884D01*
Y4819D01*
X25037Y4753D01*
X24906D01*
X24840Y4819D01*
X25234Y5081D02*
X25299Y5147D01*
X25430D01*
X25496Y5081D01*
Y5016D01*
X25430Y4950D01*
X25365D01*
X25430D01*
X25496Y4884D01*
Y4819D01*
X25430Y4753D01*
X25299D01*
X25234Y4819D01*
X28218Y5575D02*
X27824D01*
Y5772D01*
X27890Y5838D01*
X28021D01*
X28087Y5772D01*
Y5575D01*
Y5706D02*
X28218Y5838D01*
X27890Y5969D02*
X27824Y6034D01*
Y6166D01*
X27890Y6231D01*
X27956D01*
X28021Y6166D01*
Y6100D01*
Y6166D01*
X28087Y6231D01*
X28152D01*
X28218Y6166D01*
Y6034D01*
X28152Y5969D01*
X28218Y6625D02*
Y6362D01*
X27956Y6625D01*
X27890D01*
X27824Y6559D01*
Y6428D01*
X27890Y6362D01*
X29246Y5103D02*
Y5497D01*
X29443D01*
X29509Y5431D01*
Y5300D01*
X29443Y5234D01*
X29246D01*
X29378D02*
X29509Y5103D01*
X29902D02*
X29640D01*
X29902Y5366D01*
Y5431D01*
X29837Y5497D01*
X29706D01*
X29640Y5431D01*
X30034Y5169D02*
X30099Y5103D01*
X30230D01*
X30296Y5169D01*
Y5431D01*
X30230Y5497D01*
X30099D01*
X30034Y5431D01*
Y5366D01*
X30099Y5300D01*
X30296D01*
X43221Y36517D02*
Y36911D01*
X43418D01*
X43484Y36845D01*
Y36714D01*
X43418Y36648D01*
X43221D01*
X43352D02*
X43484Y36517D01*
X43877D02*
X43615D01*
X43877Y36779D01*
Y36845D01*
X43812Y36911D01*
X43680D01*
X43615Y36845D01*
X44008D02*
X44074Y36911D01*
X44205D01*
X44271Y36845D01*
Y36779D01*
X44205Y36714D01*
X44271Y36648D01*
Y36583D01*
X44205Y36517D01*
X44074D01*
X44008Y36583D01*
Y36648D01*
X44074Y36714D01*
X44008Y36779D01*
Y36845D01*
X44074Y36714D02*
X44205D01*
X48581Y36447D02*
Y36841D01*
X48778D01*
X48844Y36775D01*
Y36644D01*
X48778Y36578D01*
X48581D01*
X48712D02*
X48844Y36447D01*
X49237D02*
X48975D01*
X49237Y36709D01*
Y36775D01*
X49172Y36841D01*
X49040D01*
X48975Y36775D01*
X49368Y36841D02*
X49631D01*
Y36775D01*
X49368Y36513D01*
Y36447D01*
X43231Y40628D02*
Y41022D01*
X43428D01*
X43494Y40956D01*
Y40825D01*
X43428Y40759D01*
X43231D01*
X43362D02*
X43494Y40628D01*
X43887D02*
X43625D01*
X43887Y40891D01*
Y40956D01*
X43822Y41022D01*
X43690D01*
X43625Y40956D01*
X44281Y41022D02*
X44150Y40956D01*
X44018Y40825D01*
Y40694D01*
X44084Y40628D01*
X44215D01*
X44281Y40694D01*
Y40759D01*
X44215Y40825D01*
X44018D01*
X48581Y40738D02*
Y41132D01*
X48778D01*
X48844Y41066D01*
Y40935D01*
X48778Y40869D01*
X48581D01*
X48712D02*
X48844Y40738D01*
X49237D02*
X48975D01*
X49237Y41001D01*
Y41066D01*
X49172Y41132D01*
X49040D01*
X48975Y41066D01*
X49631Y41132D02*
X49368D01*
Y40935D01*
X49500Y41001D01*
X49565D01*
X49631Y40935D01*
Y40804D01*
X49565Y40738D01*
X49434D01*
X49368Y40804D01*
X43231Y44921D02*
Y45314D01*
X43428D01*
X43494Y45249D01*
Y45117D01*
X43428Y45052D01*
X43231D01*
X43362D02*
X43494Y44921D01*
X43887D02*
X43625D01*
X43887Y45183D01*
Y45249D01*
X43822Y45314D01*
X43690D01*
X43625Y45249D01*
X44215Y44921D02*
Y45314D01*
X44018Y45117D01*
X44281D01*
X48581Y44861D02*
Y45254D01*
X48778D01*
X48844Y45189D01*
Y45057D01*
X48778Y44992D01*
X48581D01*
X48712D02*
X48844Y44861D01*
X49237D02*
X48975D01*
X49237Y45123D01*
Y45189D01*
X49172Y45254D01*
X49040D01*
X48975Y45189D01*
X49368D02*
X49434Y45254D01*
X49565D01*
X49631Y45189D01*
Y45123D01*
X49565Y45057D01*
X49500D01*
X49565D01*
X49631Y44992D01*
Y44926D01*
X49565Y44861D01*
X49434D01*
X49368Y44926D01*
X43281Y49112D02*
Y49506D01*
X43478D01*
X43544Y49440D01*
Y49309D01*
X43478Y49243D01*
X43281D01*
X43412D02*
X43544Y49112D01*
X43937D02*
X43675D01*
X43937Y49374D01*
Y49440D01*
X43872Y49506D01*
X43740D01*
X43675Y49440D01*
X44331Y49112D02*
X44068D01*
X44331Y49374D01*
Y49440D01*
X44265Y49506D01*
X44134D01*
X44068Y49440D01*
X48581Y49102D02*
Y49496D01*
X48778D01*
X48844Y49430D01*
Y49299D01*
X48778Y49233D01*
X48581D01*
X48712D02*
X48844Y49102D01*
X49237D02*
X48975D01*
X49237Y49364D01*
Y49430D01*
X49172Y49496D01*
X49040D01*
X48975Y49430D01*
X49368Y49102D02*
X49500D01*
X49434D01*
Y49496D01*
X49368Y49430D01*
X3968Y46925D02*
X3574D01*
Y47122D01*
X3640Y47188D01*
X3771D01*
X3837Y47122D01*
Y46925D01*
Y47056D02*
X3968Y47188D01*
Y47581D02*
Y47319D01*
X3706Y47581D01*
X3640D01*
X3574Y47516D01*
Y47384D01*
X3640Y47319D01*
Y47712D02*
X3574Y47778D01*
Y47909D01*
X3640Y47975D01*
X3902D01*
X3968Y47909D01*
Y47778D01*
X3902Y47712D01*
X3640D01*
X4840Y44789D02*
X4446D01*
Y44986D01*
X4512Y45052D01*
X4643D01*
X4709Y44986D01*
Y44789D01*
Y44920D02*
X4840Y45052D01*
Y45183D02*
Y45314D01*
Y45248D01*
X4446D01*
X4512Y45183D01*
X4774Y45511D02*
X4840Y45576D01*
Y45707D01*
X4774Y45773D01*
X4512D01*
X4446Y45707D01*
Y45576D01*
X4512Y45511D01*
X4577D01*
X4643Y45576D01*
Y45773D01*
X1979Y22053D02*
Y22447D01*
X2176D01*
X2242Y22381D01*
Y22250D01*
X2176Y22184D01*
X1979D01*
X2110D02*
X2242Y22053D01*
X2373D02*
X2504D01*
X2438D01*
Y22447D01*
X2373Y22381D01*
X2701D02*
X2766Y22447D01*
X2898D01*
X2963Y22381D01*
Y22316D01*
X2898Y22250D01*
X2963Y22184D01*
Y22119D01*
X2898Y22053D01*
X2766D01*
X2701Y22119D01*
Y22184D01*
X2766Y22250D01*
X2701Y22316D01*
Y22381D01*
X2766Y22250D02*
X2898D01*
X2029Y15953D02*
Y16347D01*
X2226D01*
X2292Y16281D01*
Y16150D01*
X2226Y16084D01*
X2029D01*
X2160D02*
X2292Y15953D01*
X2423D02*
X2554D01*
X2488D01*
Y16347D01*
X2423Y16281D01*
X2751Y16347D02*
X3013D01*
Y16281D01*
X2751Y16019D01*
Y15953D01*
X1979Y9903D02*
Y10297D01*
X2176D01*
X2242Y10231D01*
Y10100D01*
X2176Y10034D01*
X1979D01*
X2110D02*
X2242Y9903D01*
X2373D02*
X2504D01*
X2438D01*
Y10297D01*
X2373Y10231D01*
X2963Y10297D02*
X2832Y10231D01*
X2701Y10100D01*
Y9969D01*
X2766Y9903D01*
X2898D01*
X2963Y9969D01*
Y10034D01*
X2898Y10100D01*
X2701D01*
X15079Y22303D02*
Y22697D01*
X15276D01*
X15342Y22631D01*
Y22500D01*
X15276Y22434D01*
X15079D01*
X15210D02*
X15342Y22303D01*
X15473D02*
X15604D01*
X15538D01*
Y22697D01*
X15473Y22631D01*
X16063Y22697D02*
X15801D01*
Y22500D01*
X15932Y22566D01*
X15998D01*
X16063Y22500D01*
Y22369D01*
X15998Y22303D01*
X15866D01*
X15801Y22369D01*
X26388Y25860D02*
Y26254D01*
X26585D01*
X26651Y26188D01*
Y26057D01*
X26585Y25991D01*
X26388D01*
X26520D02*
X26651Y25860D01*
X26782D02*
X26913D01*
X26848D01*
Y26254D01*
X26782Y26188D01*
X27307Y25860D02*
Y26254D01*
X27110Y26057D01*
X27372D01*
X2895Y56553D02*
Y56947D01*
X3092D01*
X3157Y56881D01*
Y56750D01*
X3092Y56684D01*
X2895D01*
X3026D02*
X3157Y56553D01*
X3288D02*
X3420D01*
X3354D01*
Y56947D01*
X3288Y56881D01*
X3616Y56553D02*
X3748D01*
X3682D01*
Y56947D01*
X3616Y56881D01*
X4429Y53903D02*
Y54297D01*
X4626D01*
X4692Y54231D01*
Y54100D01*
X4626Y54034D01*
X4429D01*
X4560D02*
X4692Y53903D01*
X4823D02*
X4954D01*
X4888D01*
Y54297D01*
X4823Y54231D01*
X5151D02*
X5216Y54297D01*
X5348D01*
X5413Y54231D01*
Y53969D01*
X5348Y53903D01*
X5216D01*
X5151Y53969D01*
Y54231D01*
X5843Y55853D02*
Y56247D01*
X6040D01*
X6106Y56181D01*
Y56050D01*
X6040Y55984D01*
X5843D01*
X5974D02*
X6106Y55853D01*
X6237Y55919D02*
X6302Y55853D01*
X6434D01*
X6499Y55919D01*
Y56181D01*
X6434Y56247D01*
X6302D01*
X6237Y56181D01*
Y56116D01*
X6302Y56050D01*
X6499D01*
X39446Y27353D02*
Y27747D01*
X39643D01*
X39709Y27681D01*
Y27550D01*
X39643Y27484D01*
X39446D01*
X40102Y27681D02*
X40037Y27747D01*
X39906D01*
X39840Y27681D01*
Y27616D01*
X39906Y27550D01*
X40037D01*
X40102Y27484D01*
Y27419D01*
X40037Y27353D01*
X39906D01*
X39840Y27419D01*
X40234Y27681D02*
X40299Y27747D01*
X40430D01*
X40496Y27681D01*
Y27616D01*
X40430Y27550D01*
X40365D01*
X40430D01*
X40496Y27484D01*
Y27419D01*
X40430Y27353D01*
X40299D01*
X40234Y27419D01*
X10381Y53050D02*
Y53444D01*
X10578D01*
X10644Y53378D01*
Y53247D01*
X10578Y53181D01*
X10381D01*
X11037Y53378D02*
X10972Y53444D01*
X10840D01*
X10775Y53378D01*
Y53312D01*
X10840Y53247D01*
X10972D01*
X11037Y53181D01*
Y53116D01*
X10972Y53050D01*
X10840D01*
X10775Y53116D01*
X11431Y53050D02*
X11168D01*
X11431Y53312D01*
Y53378D01*
X11365Y53444D01*
X11234D01*
X11168Y53378D01*
X8062Y52353D02*
Y52747D01*
X8259D01*
X8324Y52681D01*
Y52550D01*
X8259Y52484D01*
X8062D01*
X8718Y52681D02*
X8652Y52747D01*
X8521D01*
X8456Y52681D01*
Y52616D01*
X8521Y52550D01*
X8652D01*
X8718Y52484D01*
Y52419D01*
X8652Y52353D01*
X8521D01*
X8456Y52419D01*
X8849Y52353D02*
X8980D01*
X8915D01*
Y52747D01*
X8849Y52681D01*
X8150Y29470D02*
Y29863D01*
X8346D01*
X8412Y29798D01*
Y29667D01*
X8346Y29601D01*
X8150D01*
X8740Y29863D02*
X8609D01*
X8543Y29798D01*
Y29535D01*
X8609Y29470D01*
X8740D01*
X8806Y29535D01*
Y29798D01*
X8740Y29863D01*
X8937D02*
X9199D01*
X9068D01*
Y29470D01*
X9330D02*
X9461D01*
X9396D01*
Y29863D01*
X9330Y29798D01*
X4365Y56603D02*
Y56997D01*
X4496Y56866D01*
X4628Y56997D01*
Y56603D01*
X4956Y56997D02*
X4824D01*
X4759Y56931D01*
Y56669D01*
X4824Y56603D01*
X4956D01*
X5021Y56669D01*
Y56931D01*
X4956Y56997D01*
X5415Y56931D02*
X5349Y56997D01*
X5218D01*
X5152Y56931D01*
Y56866D01*
X5218Y56800D01*
X5349D01*
X5415Y56734D01*
Y56669D01*
X5349Y56603D01*
X5218D01*
X5152Y56669D01*
X5546Y56603D02*
X5677D01*
X5612D01*
Y56997D01*
X5546Y56931D01*
X3850Y49347D02*
Y48953D01*
X4112D01*
X4506Y49347D02*
X4243D01*
Y48953D01*
X4506D01*
X4243Y49150D02*
X4374D01*
X4637Y49347D02*
Y48953D01*
X4834D01*
X4899Y49019D01*
Y49281D01*
X4834Y49347D01*
X4637D01*
X5293Y48953D02*
X5030D01*
X5293Y49216D01*
Y49281D01*
X5227Y49347D01*
X5096D01*
X5030Y49281D01*
X5078Y43107D02*
X5471D01*
Y43370D01*
X5078Y43763D02*
Y43501D01*
X5471D01*
Y43763D01*
X5274Y43501D02*
Y43632D01*
X5078Y43895D02*
X5471D01*
Y44091D01*
X5406Y44157D01*
X5143D01*
X5078Y44091D01*
Y43895D01*
X5471Y44288D02*
Y44419D01*
Y44354D01*
X5078D01*
X5143Y44288D01*
X10196Y25649D02*
Y25256D01*
X10458D01*
X10851Y25584D02*
X10786Y25649D01*
X10655D01*
X10589Y25584D01*
Y25321D01*
X10655Y25256D01*
X10786D01*
X10851Y25321D01*
X10983Y25649D02*
Y25256D01*
X11179D01*
X11245Y25321D01*
Y25584D01*
X11179Y25649D01*
X10983D01*
X11376Y25256D02*
X11507D01*
X11442D01*
Y25649D01*
X11376Y25584D01*
X25174Y58422D02*
X25568D01*
Y58684D01*
Y59078D02*
Y58816D01*
X25306Y59078D01*
X25240D01*
X25174Y59012D01*
Y58881D01*
X25240Y58816D01*
X42286Y56395D02*
Y56001D01*
X42548D01*
X42679D02*
X42810D01*
X42745D01*
Y56395D01*
X42679Y56329D01*
X50876Y54993D02*
X50613D01*
Y54796D01*
X50745D01*
X50613D01*
Y54599D01*
X51007D02*
X51138D01*
X51073D01*
Y54993D01*
X51007Y54927D01*
X31343Y5497D02*
Y5103D01*
X31540D01*
X31606Y5169D01*
Y5431D01*
X31540Y5497D01*
X31343D01*
X31999Y5103D02*
X31737D01*
X31999Y5366D01*
Y5431D01*
X31934Y5497D01*
X31802D01*
X31737Y5431D01*
X44662Y56631D02*
X44596Y56697D01*
X44465D01*
X44400Y56631D01*
Y56369D01*
X44465Y56303D01*
X44596D01*
X44662Y56369D01*
X44990Y56697D02*
X44859D01*
X44793Y56631D01*
Y56369D01*
X44859Y56303D01*
X44990D01*
X45056Y56369D01*
Y56631D01*
X44990Y56697D01*
X45187Y56303D02*
Y56697D01*
X45449Y56303D01*
Y56697D01*
X45843Y56303D02*
X45580D01*
X45843Y56566D01*
Y56631D01*
X45777Y56697D01*
X45646D01*
X45580Y56631D01*
X1017Y60969D02*
X951Y60903D01*
Y60772D01*
X1017Y60706D01*
X1279D01*
X1345Y60772D01*
Y60903D01*
X1279Y60969D01*
X951Y61297D02*
Y61165D01*
X1017Y61100D01*
X1279D01*
X1345Y61165D01*
Y61297D01*
X1279Y61362D01*
X1017D01*
X951Y61297D01*
X1345Y61493D02*
X951D01*
X1345Y61756D01*
X951D01*
X1345Y61887D02*
Y62018D01*
Y61953D01*
X951D01*
X1017Y61887D01*
X24059Y5781D02*
X23993Y5847D01*
X23862D01*
X23796Y5781D01*
Y5519D01*
X23862Y5453D01*
X23993D01*
X24059Y5519D01*
X24452Y5453D02*
X24190D01*
X24452Y5716D01*
Y5781D01*
X24387Y5847D01*
X24256D01*
X24190Y5781D01*
X24584D02*
X24649Y5847D01*
X24780D01*
X24846Y5781D01*
Y5716D01*
X24780Y5650D01*
X24715D01*
X24780D01*
X24846Y5584D01*
Y5519D01*
X24780Y5453D01*
X24649D01*
X24584Y5519D01*
X29309Y4731D02*
X29243Y4797D01*
X29112D01*
X29046Y4731D01*
Y4469D01*
X29112Y4403D01*
X29243D01*
X29309Y4469D01*
X29702Y4403D02*
X29440D01*
X29702Y4666D01*
Y4731D01*
X29637Y4797D01*
X29506D01*
X29440Y4731D01*
X30096Y4403D02*
X29834D01*
X30096Y4666D01*
Y4731D01*
X30030Y4797D01*
X29899D01*
X29834Y4731D01*
X6690Y48788D02*
X6624Y48722D01*
Y48591D01*
X6690Y48525D01*
X6952D01*
X7018Y48591D01*
Y48722D01*
X6952Y48788D01*
X7018Y49181D02*
Y48919D01*
X6756Y49181D01*
X6690D01*
X6624Y49116D01*
Y48984D01*
X6690Y48919D01*
Y49312D02*
X6624Y49378D01*
Y49509D01*
X6690Y49575D01*
X6952D01*
X7018Y49509D01*
Y49378D01*
X6952Y49312D01*
X6690D01*
X4340Y51070D02*
X4274Y51005D01*
Y50874D01*
X4340Y50808D01*
X4602D01*
X4668Y50874D01*
Y51005D01*
X4602Y51070D01*
X4668Y51202D02*
Y51333D01*
Y51267D01*
X4274D01*
X4340Y51202D01*
X4602Y51530D02*
X4668Y51595D01*
Y51726D01*
X4602Y51792D01*
X4340D01*
X4274Y51726D01*
Y51595D01*
X4340Y51530D01*
X4406D01*
X4471Y51595D01*
Y51792D01*
X38714Y34567D02*
X38649Y34501D01*
Y34370D01*
X38714Y34304D01*
X38977D01*
X39042Y34370D01*
Y34501D01*
X38977Y34567D01*
X39042Y34698D02*
Y34829D01*
Y34764D01*
X38649D01*
X38714Y34698D01*
Y35026D02*
X38649Y35092D01*
Y35223D01*
X38714Y35288D01*
X38780D01*
X38846Y35223D01*
X38911Y35288D01*
X38977D01*
X39042Y35223D01*
Y35092D01*
X38977Y35026D01*
X38911D01*
X38846Y35092D01*
X38780Y35026D01*
X38714D01*
X38846Y35092D02*
Y35223D01*
X44790Y36660D02*
X44724Y36595D01*
Y36463D01*
X44790Y36398D01*
X45052D01*
X45118Y36463D01*
Y36595D01*
X45052Y36660D01*
X45118Y36791D02*
Y36923D01*
Y36857D01*
X44724D01*
X44790Y36791D01*
X44724Y37119D02*
Y37382D01*
X44790D01*
X45052Y37119D01*
X45118D01*
X38714Y38918D02*
X38649Y38852D01*
Y38721D01*
X38714Y38656D01*
X38977D01*
X39042Y38721D01*
Y38852D01*
X38977Y38918D01*
X39042Y39049D02*
Y39180D01*
Y39115D01*
X38649D01*
X38714Y39049D01*
X38649Y39640D02*
X38714Y39508D01*
X38846Y39377D01*
X38977D01*
X39042Y39443D01*
Y39574D01*
X38977Y39640D01*
X38911D01*
X38846Y39574D01*
Y39377D01*
X44790Y40952D02*
X44724Y40886D01*
Y40755D01*
X44790Y40689D01*
X45052D01*
X45118Y40755D01*
Y40886D01*
X45052Y40952D01*
X45118Y41083D02*
Y41214D01*
Y41148D01*
X44724D01*
X44790Y41083D01*
X44724Y41673D02*
Y41411D01*
X44921D01*
X44856Y41542D01*
Y41607D01*
X44921Y41673D01*
X45052D01*
X45118Y41607D01*
Y41476D01*
X45052Y41411D01*
X38714Y43050D02*
X38649Y42985D01*
Y42854D01*
X38714Y42788D01*
X38977D01*
X39042Y42854D01*
Y42985D01*
X38977Y43050D01*
X39042Y43182D02*
Y43313D01*
Y43247D01*
X38649D01*
X38714Y43182D01*
X39042Y43706D02*
X38649D01*
X38846Y43510D01*
Y43772D01*
X44711Y45046D02*
X44646Y44980D01*
Y44849D01*
X44711Y44784D01*
X44974D01*
X45039Y44849D01*
Y44980D01*
X44974Y45046D01*
X45039Y45177D02*
Y45308D01*
Y45243D01*
X44646D01*
X44711Y45177D01*
Y45505D02*
X44646Y45571D01*
Y45702D01*
X44711Y45768D01*
X44777D01*
X44843Y45702D01*
Y45636D01*
Y45702D01*
X44908Y45768D01*
X44974D01*
X45039Y45702D01*
Y45571D01*
X44974Y45505D01*
X38714Y47342D02*
X38649Y47276D01*
Y47145D01*
X38714Y47079D01*
X38977D01*
X39042Y47145D01*
Y47276D01*
X38977Y47342D01*
X39042Y47473D02*
Y47604D01*
Y47539D01*
X38649D01*
X38714Y47473D01*
X39042Y48063D02*
Y47801D01*
X38780Y48063D01*
X38714D01*
X38649Y47998D01*
Y47867D01*
X38714Y47801D01*
X38692Y30731D02*
X38626Y30797D01*
X38495D01*
X38429Y30731D01*
Y30469D01*
X38495Y30403D01*
X38626D01*
X38692Y30469D01*
X38823Y30403D02*
X38954D01*
X38888D01*
Y30797D01*
X38823Y30731D01*
X39151D02*
X39216Y30797D01*
X39348D01*
X39413Y30731D01*
Y30469D01*
X39348Y30403D01*
X39216D01*
X39151Y30469D01*
Y30731D01*
X35106Y30431D02*
X35040Y30497D01*
X34909D01*
X34843Y30431D01*
Y30169D01*
X34909Y30103D01*
X35040D01*
X35106Y30169D01*
X35237D02*
X35302Y30103D01*
X35434D01*
X35499Y30169D01*
Y30431D01*
X35434Y30497D01*
X35302D01*
X35237Y30431D01*
Y30366D01*
X35302Y30300D01*
X35499D01*
X5606Y46981D02*
X5540Y47047D01*
X5409D01*
X5343Y46981D01*
Y46719D01*
X5409Y46653D01*
X5540D01*
X5606Y46719D01*
X5737Y46981D02*
X5802Y47047D01*
X5934D01*
X5999Y46981D01*
Y46916D01*
X5934Y46850D01*
X5999Y46784D01*
Y46719D01*
X5934Y46653D01*
X5802D01*
X5737Y46719D01*
Y46784D01*
X5802Y46850D01*
X5737Y46916D01*
Y46981D01*
X5802Y46850D02*
X5934D01*
X44711Y49619D02*
X44646Y49554D01*
Y49423D01*
X44711Y49357D01*
X44974D01*
X45039Y49423D01*
Y49554D01*
X44974Y49619D01*
X44646Y49751D02*
Y50013D01*
X44711D01*
X44974Y49751D01*
X45039D01*
X9659Y43084D02*
X9593Y43150D01*
X9462D01*
X9396Y43084D01*
Y42822D01*
X9462Y42756D01*
X9593D01*
X9659Y42822D01*
X10052Y43150D02*
X9921Y43084D01*
X9790Y42953D01*
Y42822D01*
X9856Y42756D01*
X9987D01*
X10052Y42822D01*
Y42887D01*
X9987Y42953D01*
X9790D01*
X2306Y25681D02*
X2240Y25747D01*
X2109D01*
X2043Y25681D01*
Y25419D01*
X2109Y25353D01*
X2240D01*
X2306Y25419D01*
X2634Y25353D02*
Y25747D01*
X2437Y25550D01*
X2699D01*
X2306Y19431D02*
X2240Y19497D01*
X2109D01*
X2043Y19431D01*
Y19169D01*
X2109Y19103D01*
X2240D01*
X2306Y19169D01*
X2437Y19431D02*
X2502Y19497D01*
X2634D01*
X2699Y19431D01*
Y19366D01*
X2634Y19300D01*
X2568D01*
X2634D01*
X2699Y19234D01*
Y19169D01*
X2634Y19103D01*
X2502D01*
X2437Y19169D01*
X2256Y13531D02*
X2190Y13597D01*
X2059D01*
X1993Y13531D01*
Y13269D01*
X2059Y13203D01*
X2190D01*
X2256Y13269D01*
X2649Y13203D02*
X2387D01*
X2649Y13466D01*
Y13531D01*
X2584Y13597D01*
X2452D01*
X2387Y13531D01*
D12*
X9522Y35615D02*
G03*
X9522Y35615I-79J0D01*
G01*
X8280Y30767D02*
G03*
X8280Y30727I0J-20D01*
G01*
D02*
G03*
X8280Y30767I0J20D01*
G01*
X77029Y17584D02*
X85829D01*
X77029D02*
Y38484D01*
X85829Y17584D02*
Y38484D01*
X77029D02*
X85829D01*
X4879Y9145D02*
Y8357D01*
X5272D01*
X5404Y8489D01*
Y9013D01*
X5272Y9145D01*
X4879D01*
X6059D02*
X5797D01*
X5666Y9013D01*
Y8489D01*
X5797Y8357D01*
X6059D01*
X6191Y8489D01*
Y9013D01*
X6059Y9145D01*
X6453D02*
Y8357D01*
X6715Y8620D01*
X6978Y8357D01*
Y9145D01*
X7240Y8357D02*
Y9145D01*
X7765Y8357D01*
Y9145D01*
X6172Y15245D02*
X5910D01*
X5779Y15113D01*
Y14589D01*
X5910Y14457D01*
X6172D01*
X6303Y14589D01*
Y15113D01*
X6172Y15245D01*
X6566D02*
Y14457D01*
Y14720D01*
X7091Y15245D01*
X6697Y14851D01*
X7091Y14457D01*
X5729Y21345D02*
Y20689D01*
X5860Y20557D01*
X6122D01*
X6253Y20689D01*
Y21345D01*
X6516Y20557D02*
Y21345D01*
X6909D01*
X7041Y21213D01*
Y20951D01*
X6909Y20820D01*
X6516D01*
D13*
X41313Y24019D02*
G03*
X41313Y24019I-551J0D01*
G01*
Y11656D02*
G03*
X41313Y11656I-551J0D01*
G01*
X11628D02*
G03*
X11628Y11656I-551J0D01*
G01*
Y24019D02*
G03*
X11628Y24019I-551J0D01*
G01*
X169Y46311D02*
Y48311D01*
X1169Y46311D02*
Y48311D01*
X669D02*
X1169D01*
X169D02*
X669D01*
X169Y46311D02*
X669D01*
X1169D01*
X82429Y17634D02*
X82929D01*
X83429D01*
X82929Y19634D02*
X83429D01*
X82429D02*
X82929D01*
X83429Y17634D02*
X83929D01*
X84429D01*
X83929Y19634D02*
X84429D01*
X83429D02*
X83929D01*
X85429Y17634D02*
Y19634D01*
X84429Y17634D02*
X84929D01*
X85429D01*
X84929Y19634D02*
X85429D01*
X84429D02*
X84929D01*
X81429Y17634D02*
X81929D01*
X82429D01*
X81929Y19634D02*
X82429D01*
X81429D02*
X81929D01*
X79929D02*
X80429D01*
X79429D02*
X79929D01*
X79429Y17634D02*
X79929D01*
X80429D01*
X78929Y19634D02*
X79429D01*
X78429D02*
X78929D01*
X78429Y17634D02*
X78929D01*
X79429D01*
X77429D02*
Y19634D01*
X77929D02*
X78429D01*
X77429D02*
X77929D01*
X77429Y17634D02*
X77929D01*
X78429D01*
X80929Y19634D02*
X81429D01*
X80429D02*
X80929D01*
X80429Y17634D02*
X80929D01*
X81429D01*
X10172Y24924D02*
X41668D01*
Y10751D02*
Y24924D01*
X10172Y10751D02*
X41668D01*
X10172D02*
Y24924D01*
X48221Y18500D02*
Y24500D01*
Y18500D02*
X48721D01*
Y24500D02*
X49221D01*
X48221D02*
X48721D01*
X49221Y18500D02*
Y24500D01*
X48721Y18500D02*
X49221D01*
X3959Y33118D02*
X5959D01*
X3959Y32118D02*
X5959D01*
Y32618D01*
Y33118D01*
X3959Y32618D02*
Y33118D01*
Y32118D02*
Y32618D01*
X539Y46015D02*
X139D01*
Y45715D01*
X339Y45815D01*
X439D01*
X539Y45715D01*
Y45515D01*
X439Y45415D01*
X239D01*
X139Y45515D01*
X739Y46015D02*
Y45615D01*
X939Y45415D01*
X1139Y45615D01*
Y46015D01*
X60021Y63500D02*
X59921Y63400D01*
X59721D01*
X59621Y63500D01*
Y63600D01*
X59721Y63700D01*
X59621Y63800D01*
Y63900D01*
X59721Y64000D01*
X59921D01*
X60021Y63900D01*
Y63800D01*
X59921Y63700D01*
X60021Y63600D01*
Y63500D01*
X59921Y63700D02*
X59721D01*
X59421Y63500D02*
X59321Y63400D01*
X59122D01*
X59022Y63500D01*
Y63900D01*
X59122Y64000D01*
X59321D01*
X59421Y63900D01*
Y63500D01*
X58822D02*
X58722Y63400D01*
X58522D01*
X58422Y63500D01*
Y63900D01*
X58522Y64000D01*
X58722D01*
X58822Y63900D01*
Y63500D01*
X58222Y63400D02*
Y63800D01*
X58022Y64000D01*
X57822Y63800D01*
Y63400D01*
X57622Y64100D02*
X57222D01*
X57022Y63400D02*
X56822D01*
X56922D01*
Y64000D01*
X57022D01*
X56822D01*
X45821Y63500D02*
X45921Y63400D01*
X46121D01*
X46221Y63500D01*
Y63900D01*
X46121Y64000D01*
X45921D01*
X45821Y63900D01*
Y63700D01*
X46021D01*
X45621Y64000D02*
Y63400D01*
X45222Y64000D01*
Y63400D01*
X45022D02*
Y64000D01*
X44722D01*
X44622Y63900D01*
Y63500D01*
X44722Y63400D01*
X45022D01*
X54821Y63500D02*
X54921Y63400D01*
X55121D01*
X55221Y63500D01*
Y63900D01*
X55121Y64000D01*
X54921D01*
X54821Y63900D01*
Y63700D01*
X55021D01*
X54621Y64000D02*
Y63400D01*
X54222Y64000D01*
Y63400D01*
X54022D02*
Y64000D01*
X53722D01*
X53622Y63900D01*
Y63500D01*
X53722Y63400D01*
X54022D01*
X50821Y63500D02*
X50721Y63400D01*
X50521D01*
X50421Y63500D01*
Y63600D01*
X50521Y63700D01*
X50421Y63800D01*
Y63900D01*
X50521Y64000D01*
X50721D01*
X50821Y63900D01*
Y63800D01*
X50721Y63700D01*
X50821Y63600D01*
Y63500D01*
X50721Y63700D02*
X50521D01*
X50221Y63500D02*
X50121Y63400D01*
X49922D01*
X49822Y63500D01*
Y63900D01*
X49922Y64000D01*
X50121D01*
X50221Y63900D01*
Y63500D01*
X49622D02*
X49522Y63400D01*
X49322D01*
X49222Y63500D01*
Y63900D01*
X49322Y64000D01*
X49522D01*
X49622Y63900D01*
Y63500D01*
X49022Y63400D02*
Y63800D01*
X48822Y64000D01*
X48622Y63800D01*
Y63400D01*
X48422Y64100D02*
X48022D01*
X47522Y63400D02*
X47722D01*
X47822Y63500D01*
Y63900D01*
X47722Y64000D01*
X47522D01*
X47422Y63900D01*
Y63500D01*
X47522Y63400D01*
X72188Y2400D02*
X72088Y2500D01*
X71888D01*
X71788Y2400D01*
Y2300D01*
X71888Y2200D01*
X72088D01*
X72188Y2100D01*
Y2000D01*
X72088Y1900D01*
X71888D01*
X71788Y2000D01*
X72388Y2500D02*
Y1900D01*
X72688D01*
X72787Y2000D01*
Y2400D01*
X72688Y2500D01*
X72388D01*
X73987Y2400D02*
X73887Y2500D01*
X73687D01*
X73587Y2400D01*
Y2000D01*
X73687Y1900D01*
X73887D01*
X73987Y2000D01*
X74187Y1900D02*
Y2300D01*
X74387Y2500D01*
X74587Y2300D01*
Y1900D01*
Y2200D01*
X74187D01*
X74787Y1900D02*
Y2500D01*
X75087D01*
X75187Y2400D01*
Y2200D01*
X75087Y2100D01*
X74787D01*
X74987D02*
X75187Y1900D01*
X75387Y2500D02*
Y1900D01*
X75687D01*
X75786Y2000D01*
Y2400D01*
X75687Y2500D01*
X75387D01*
X6671Y32400D02*
X6571Y32500D01*
X6371D01*
X6271Y32400D01*
Y32000D01*
X6371Y31900D01*
X6571D01*
X6671Y32000D01*
Y32200D01*
X6471D01*
X6871Y31900D02*
Y32500D01*
X7271Y31900D01*
Y32500D01*
X7471D02*
Y31900D01*
X7771D01*
X7871Y32000D01*
Y32400D01*
X7771Y32500D01*
X7471D01*
X2721Y32000D02*
X2821Y31900D01*
X3021D01*
X3121Y32000D01*
Y32400D01*
X3021Y32500D01*
X2821D01*
X2721Y32400D01*
Y32300D01*
X2821Y32200D01*
X3121D01*
X3321Y32500D02*
Y32100D01*
X3521Y31900D01*
X3721Y32100D01*
Y32500D01*
X77054Y38859D02*
Y39459D01*
X77354D01*
X77454Y39359D01*
Y39159D01*
X77354Y39059D01*
X77054D01*
X78054Y39359D02*
X77954Y39459D01*
X77754D01*
X77654Y39359D01*
Y38959D01*
X77754Y38859D01*
X77954D01*
X78054Y38959D01*
X78254Y39459D02*
Y38859D01*
X78554D01*
X78654Y38959D01*
Y39059D01*
X78554Y39159D01*
X78254D01*
X78554D01*
X78654Y39259D01*
Y39359D01*
X78554Y39459D01*
X78254D01*
X79253Y38859D02*
X78854D01*
X79253Y39259D01*
Y39359D01*
X79153Y39459D01*
X78954D01*
X78854Y39359D01*
X50021Y24000D02*
X49922Y24100D01*
X49722D01*
X49622Y24000D01*
Y23600D01*
X49722Y23500D01*
X49922D01*
X50021Y23600D01*
X50521Y24100D02*
X50321D01*
X50221Y24000D01*
Y23600D01*
X50321Y23500D01*
X50521D01*
X50621Y23600D01*
Y24000D01*
X50521Y24100D01*
X50821Y23500D02*
Y24100D01*
X51221Y23500D01*
Y24100D01*
X51821D02*
X51421D01*
Y23800D01*
X51621Y23900D01*
X51721D01*
X51821Y23800D01*
Y23600D01*
X51721Y23500D01*
X51521D01*
X51421Y23600D01*
D14*
X51562Y59429D02*
G03*
X51523Y59429I-20J0D01*
G01*
D02*
G03*
X51562Y59429I20J0D01*
G01*
X60552D02*
G03*
X60513Y59429I-20J0D01*
G01*
D02*
G03*
X60552Y59429I20J0D01*
G01*
X11121Y29100D02*
Y29200D01*
X67743Y13605D02*
X68838Y14700D01*
X80138D01*
X46121Y24800D02*
X49421D01*
Y18000D02*
Y24800D01*
X46121Y18000D02*
X49421D01*
X46121D02*
Y24800D01*
X80138Y1500D02*
Y14700D01*
X67838Y1500D02*
X80138D01*
X67743Y13605D02*
X67838Y1500D01*
X52283Y56993D02*
X52376Y63820D01*
X52283Y56993D02*
X60311Y56900D01*
Y64500D01*
X52376D02*
X60311D01*
X52376Y63820D02*
Y64500D01*
X43386Y63820D02*
Y64500D01*
X51321D01*
Y56900D02*
Y64500D01*
X43293Y56993D02*
X51321Y56900D01*
X43293Y56993D02*
X43386Y63820D01*
X43499Y57539D02*
X50995D01*
X43499D02*
Y62460D01*
X50995D01*
Y57539D02*
Y62460D01*
X52489Y57539D02*
X59985D01*
X52489D02*
Y62460D01*
X59985D01*
Y57539D02*
Y62460D01*
X1797Y58220D02*
X22679D01*
X1797D02*
Y63102D01*
X22679D01*
Y58220D02*
Y63102D01*
X40771Y53829D02*
Y64065D01*
X26204D02*
X40771D01*
X26204Y53829D02*
Y64065D01*
Y53829D02*
X40771D01*
X7559Y42186D02*
X8346D01*
X7559Y41594D02*
X8533D01*
X4367Y48811D02*
X5155D01*
X4367Y48219D02*
X5342D01*
X6270Y43396D02*
Y44183D01*
X5678Y43209D02*
Y44183D01*
X9716Y47430D02*
Y51970D01*
X7315Y47430D02*
X9716D01*
X7315D02*
Y51970D01*
X9716D01*
X4146Y27223D02*
X7296D01*
X7965Y28995D02*
Y31554D01*
X3477D02*
X7965D01*
X3477Y28995D02*
Y31554D01*
D15*
X41009Y55955D02*
G03*
X41087Y55955I39J0D01*
G01*
D02*
G03*
X41009Y55955I-39J0D01*
G01*
X10516Y50172D02*
X12888Y52452D01*
X10496Y33674D02*
Y38595D01*
Y33674D02*
X38091D01*
Y43122D01*
X10496Y38595D02*
Y52571D01*
X38091D01*
Y43122D02*
Y52571D01*
D16*
X70017Y55485D02*
Y56469D01*
X70508D01*
X70672Y56305D01*
Y55977D01*
X70508Y55813D01*
X70017D01*
X71000Y55485D02*
Y56469D01*
X71492D01*
X71656Y56305D01*
Y55977D01*
X71492Y55813D01*
X71000D01*
X71328D02*
X71656Y55485D01*
X72640Y56469D02*
X71984D01*
Y55485D01*
X72640D01*
X71984Y55977D02*
X72312D01*
X72968Y56469D02*
Y55485D01*
X73460D01*
X73624Y55649D01*
Y56305D01*
X73460Y56469D01*
X72968D01*
X73952Y55485D02*
Y56141D01*
X74280Y56469D01*
X74608Y56141D01*
Y55485D01*
Y55977D01*
X73952D01*
X74936Y56469D02*
X75592D01*
X75264D01*
Y55485D01*
X76576Y56469D02*
X75920D01*
Y55485D01*
X76576D01*
X75920Y55977D02*
X76248D01*
X78544Y56305D02*
X78380Y56469D01*
X78052D01*
X77888Y56305D01*
Y55649D01*
X78052Y55485D01*
X78380D01*
X78544Y55649D01*
Y55977D01*
X78216D01*
X78872Y55485D02*
Y56469D01*
X79364D01*
X79528Y56305D01*
Y55977D01*
X79364Y55813D01*
X78872D01*
X79200D02*
X79528Y55485D01*
X80348Y56469D02*
X80020D01*
X79856Y56305D01*
Y55649D01*
X80020Y55485D01*
X80348D01*
X80512Y55649D01*
Y56305D01*
X80348Y56469D01*
X80840D02*
Y55649D01*
X81004Y55485D01*
X81332D01*
X81496Y55649D01*
Y56469D01*
X81824Y55485D02*
Y56469D01*
X82480Y55485D01*
Y56469D01*
X82808D02*
Y55485D01*
X83300D01*
X83464Y55649D01*
Y56305D01*
X83300Y56469D01*
X82808D01*
X70672Y54415D02*
X70508Y54579D01*
X70181D01*
X70017Y54415D01*
Y54251D01*
X70181Y54087D01*
X70508D01*
X70672Y53923D01*
Y53759D01*
X70508Y53595D01*
X70181D01*
X70017Y53759D01*
X71000Y54579D02*
X71656D01*
X71328D01*
Y53595D01*
X71984D02*
Y54251D01*
X72312Y54579D01*
X72640Y54251D01*
Y53595D01*
Y54087D01*
X71984D01*
X72968Y54579D02*
X73624D01*
X73296D01*
Y53595D01*
X73952Y54579D02*
X74280D01*
X74116D01*
Y53595D01*
X73952D01*
X74280D01*
X75264Y54579D02*
X74936D01*
X74772Y54415D01*
Y53759D01*
X74936Y53595D01*
X75264D01*
X75428Y53759D01*
Y54415D01*
X75264Y54579D01*
X75756Y53595D02*
Y54579D01*
X76412Y53595D01*
Y54579D01*
X77724Y53595D02*
Y54579D01*
X78216D01*
X78380Y54415D01*
Y54087D01*
X78216Y53923D01*
X77724D01*
X79364Y54415D02*
X79200Y54579D01*
X78872D01*
X78708Y54415D01*
Y53759D01*
X78872Y53595D01*
X79200D01*
X79364Y53759D01*
X79692Y54579D02*
Y53595D01*
X80184D01*
X80348Y53759D01*
Y53923D01*
X80184Y54087D01*
X79692D01*
X80184D01*
X80348Y54251D01*
Y54415D01*
X80184Y54579D01*
X79692D01*
X81660D02*
Y53923D01*
X81988Y53595D01*
X82316Y53923D01*
Y54579D01*
X82644Y54415D02*
X82808Y54579D01*
X83136D01*
X83300Y54415D01*
Y54251D01*
X83136Y54087D01*
X82972D01*
X83136D01*
X83300Y53923D01*
Y53759D01*
X83136Y53595D01*
X82808D01*
X82644Y53759D01*
X83628Y53595D02*
Y53759D01*
X83792D01*
Y53595D01*
X83628D01*
X84448Y54415D02*
X84612Y54579D01*
X84940D01*
X85104Y54415D01*
Y53759D01*
X84940Y53595D01*
X84612D01*
X84448Y53759D01*
Y54415D01*
M02*
