G04*
G04 #@! TF.GenerationSoftware,Altium Limited,Altium Designer,20.2.4 (192)*
G04*
G04 Layer_Color=16711935*
%FSLAX24Y24*%
%MOIN*%
G70*
G04*
G04 #@! TF.SameCoordinates,88804F16-18CD-4051-863E-DBC97BB31399*
G04*
G04*
G04 #@! TF.FilePolarity,Positive*
G04*
G01*
G75*
%ADD11C,0.0079*%
%ADD14C,0.0039*%
D11*
X43499Y57539D02*
X50995D01*
X43499D02*
Y62460D01*
X50995D01*
Y57539D02*
Y62460D01*
X52489Y57539D02*
X59985D01*
X52489D02*
Y62460D01*
X59985D01*
Y57539D02*
Y62460D01*
X1797Y58220D02*
X22679D01*
X1797D02*
Y63102D01*
X22679D01*
Y58220D02*
Y63102D01*
X4569Y65425D02*
X19907D01*
X4569Y63102D02*
Y65425D01*
Y63102D02*
X19907D01*
Y65425D01*
X40771Y53829D02*
Y64065D01*
X26204D02*
X40771D01*
X26204Y53829D02*
Y64065D01*
Y53829D02*
X40771D01*
X9716Y47430D02*
Y51970D01*
X7315Y47430D02*
X9716D01*
X7315D02*
Y51970D01*
X9716D01*
X3477Y27223D02*
X7965D01*
X3477D02*
Y31554D01*
X7965D01*
Y27223D02*
Y31554D01*
D14*
X43216Y34855D02*
G03*
X43216Y34855I-1969J0D01*
G01*
X48590Y34866D02*
G03*
X48590Y34866I-1969J0D01*
G01*
X43228Y39069D02*
G03*
X43228Y39069I-1969J0D01*
G01*
X48590Y39080D02*
G03*
X48590Y39080I-1969J0D01*
G01*
X43228Y43293D02*
G03*
X43228Y43293I-1969J0D01*
G01*
X48590Y43225D02*
G03*
X48590Y43225I-1969J0D01*
G01*
X43228Y47497D02*
G03*
X43228Y47497I-1969J0D01*
G01*
X48590Y47430D02*
G03*
X48590Y47430I-1969J0D01*
G01*
X9993Y44665D02*
G03*
X9993Y44665I-1575J0D01*
G01*
X2253Y46976D02*
Y49024D01*
X1269Y46976D02*
X2253D01*
X1269D02*
Y49024D01*
X2253D01*
X1939D02*
X2253Y48709D01*
X333Y49134D02*
Y49921D01*
X825D01*
Y49134D02*
Y49921D01*
X333Y49134D02*
X825D01*
X1407Y49902D02*
Y50689D01*
X1900D01*
Y49902D02*
Y50689D01*
X1407Y49902D02*
X1900D01*
X6616Y41688D02*
Y42023D01*
X6006D02*
X6616D01*
X6006Y41688D02*
Y42023D01*
Y41688D02*
X6616D01*
X3687Y35459D02*
X9199D01*
X3687D02*
Y40970D01*
X9199D01*
Y35459D02*
Y40970D01*
X77697Y11083D02*
Y11280D01*
X77303Y11083D02*
X77697D01*
X77303D02*
Y11280D01*
X77697D01*
Y10532D02*
Y10728D01*
X77303Y10532D02*
X77697D01*
X77303D02*
Y10728D01*
X77697D01*
X5984Y61673D02*
X6378D01*
Y61870D01*
X5984D02*
X6378D01*
X5984Y61673D02*
Y61870D01*
X8680Y61398D02*
X9074D01*
Y61594D01*
X8680D02*
X9074D01*
X8680Y61398D02*
Y61594D01*
X25223Y5870D02*
X25420D01*
X25223Y5476D02*
Y5870D01*
Y5476D02*
X25420D01*
Y5870D01*
X28723Y5724D02*
X28920D01*
X28723Y5330D02*
Y5724D01*
Y5330D02*
X28920D01*
Y5724D01*
X50895Y51852D02*
Y52048D01*
X50502Y51852D02*
X50895D01*
X50502D02*
Y52048D01*
X50895D01*
X2223Y24580D02*
X2420D01*
Y24974D01*
X2223D02*
X2420D01*
X2223Y24580D02*
Y24974D01*
X2273Y18380D02*
X2470D01*
Y18774D01*
X2273D02*
X2470D01*
X2273Y18380D02*
Y18774D01*
X2223Y12380D02*
X2420D01*
Y12774D01*
X2223D02*
X2420D01*
X2223Y12380D02*
Y12774D01*
X14141Y54373D02*
Y54570D01*
X13747Y54373D02*
X14141D01*
X13747D02*
Y54570D01*
X14141D01*
X8663Y62264D02*
X9057D01*
X8663Y62067D02*
Y62264D01*
Y62067D02*
X9057D01*
Y62264D01*
X7274Y61201D02*
X7805D01*
X7274D02*
Y62343D01*
X7805D01*
Y61201D02*
Y62343D01*
X7431D02*
X7805Y61968D01*
X6763Y33405D02*
Y34665D01*
X7393D01*
Y33405D02*
Y34665D01*
X6763Y33405D02*
X7393D01*
X73287Y10866D02*
Y11260D01*
X73484D01*
Y10866D02*
Y11260D01*
X73287Y10866D02*
X73484D01*
X72500Y13228D02*
Y13622D01*
X72697D01*
Y13228D02*
Y13622D01*
X72500Y13228D02*
X72697D01*
X74705D02*
Y13622D01*
X74508Y13228D02*
X74705D01*
X74508D02*
Y13622D01*
X74705D01*
X75453Y10866D02*
Y11260D01*
X75650D01*
Y10866D02*
Y11260D01*
X75453Y10866D02*
X75650D01*
X8839Y33490D02*
Y33805D01*
X8209D02*
X8839D01*
X8209Y33490D02*
Y33805D01*
Y33490D02*
X8839D01*
X7904Y34183D02*
X9163D01*
X7904D02*
Y34813D01*
X9163D01*
Y34183D02*
Y34813D01*
X5384Y41673D02*
Y42165D01*
X4593D02*
X5384D01*
X4593Y41673D02*
Y42165D01*
Y41673D02*
X5384D01*
X8140Y41644D02*
X8346Y41850D01*
X7559Y42136D02*
X8346D01*
X7559Y41644D02*
Y42136D01*
X8346Y41644D02*
Y42136D01*
X7559Y41644D02*
X8346D01*
X4948Y48269D02*
X5155Y48476D01*
X4367Y48761D02*
X5155D01*
X4367Y48269D02*
Y48761D01*
X5155Y48269D02*
Y48761D01*
X4367Y48269D02*
X5155D01*
X5728Y43602D02*
X5935Y43396D01*
X6220D02*
Y44183D01*
X5728D02*
X6220D01*
X5728Y43396D02*
X6220D01*
X5728D02*
Y44183D01*
X3074Y56052D02*
Y56248D01*
Y56052D02*
X3468D01*
Y56248D01*
X3074D02*
X3468D01*
X4403Y55947D02*
X4777Y56321D01*
X4403Y55179D02*
Y56321D01*
X4934D01*
Y55179D02*
Y56321D01*
X4403Y55179D02*
X4934D01*
X7953Y57224D02*
Y57421D01*
X8346D01*
Y57224D02*
Y57421D01*
X7953Y57224D02*
X8346D01*
X9528D02*
Y57421D01*
X9134Y57224D02*
X9528D01*
X9134D02*
Y57421D01*
X9528D01*
X27600Y5591D02*
Y6109D01*
X26438Y5591D02*
X27600D01*
X26438D02*
Y6109D01*
X27600D01*
X27226D02*
X27600Y5735D01*
X25846Y5553D02*
X26043D01*
Y5947D01*
X25846D02*
X26043D01*
X25846Y5553D02*
Y5947D01*
X46954Y52430D02*
X47289D01*
X46954D02*
Y53040D01*
X47289D01*
Y52430D02*
Y53040D01*
X48461Y51683D02*
Y52017D01*
X47851Y51683D02*
X48461D01*
X47851D02*
Y52017D01*
X48461D01*
X51373Y51847D02*
X51570D01*
Y51453D02*
Y51847D01*
X51373Y51453D02*
X51570D01*
X51373D02*
Y51847D01*
X24924Y6307D02*
X25318D01*
X24924D02*
Y6504D01*
X25318D01*
Y6307D02*
Y6504D01*
X47711Y53124D02*
Y56076D01*
Y53124D02*
X51731D01*
Y56076D01*
X47711D02*
X51731D01*
X47711Y55576D02*
X48211Y56076D01*
X13168Y54339D02*
Y54536D01*
X12774Y54339D02*
X13168D01*
X12774D02*
Y54536D01*
X13168D01*
X11671Y55485D02*
X12171Y54985D01*
X11671D02*
Y56915D01*
X13207D01*
Y54985D02*
Y56915D01*
X11671Y54985D02*
X13207D01*
X14324Y55602D02*
Y55798D01*
X14718D01*
Y55602D02*
Y55798D01*
X14324Y55602D02*
X14718D01*
X5217Y61339D02*
X5413D01*
Y60945D02*
Y61339D01*
X5217Y60945D02*
X5413D01*
X5217D02*
Y61339D01*
X4980Y59783D02*
X5177D01*
X4980D02*
Y60177D01*
X5177D01*
Y59783D02*
Y60177D01*
X15965Y60728D02*
Y60925D01*
X15571Y60728D02*
X15965D01*
X15571D02*
Y60925D01*
X15965D01*
X14468Y60768D02*
Y60965D01*
X14862D01*
Y60768D02*
Y60965D01*
X14468Y60768D02*
X14862D01*
X5673Y55447D02*
X5870D01*
X5673Y55053D02*
Y55447D01*
Y55053D02*
X5870D01*
Y55447D01*
X5016Y50721D02*
X5646D01*
Y51981D01*
X5016D02*
X5646D01*
X5016Y50721D02*
Y51981D01*
X6339Y50400D02*
Y51030D01*
X6024Y50400D02*
X6339D01*
X6024D02*
Y51030D01*
X6339D01*
X5720Y49681D02*
X6350D01*
X5720Y48421D02*
Y49681D01*
Y48421D02*
X6350D01*
Y49681D01*
X4268Y47740D02*
X4602D01*
X4268Y47130D02*
Y47740D01*
Y47130D02*
X4602D01*
Y47740D01*
X5400Y47428D02*
X6191D01*
X5400D02*
Y47920D01*
X6191D01*
Y47428D02*
Y47920D01*
X5197Y44911D02*
X5689D01*
Y45699D01*
X5197D02*
X5689D01*
X5197Y44911D02*
Y45699D01*
X36236Y29604D02*
X37028D01*
X36236D02*
Y30096D01*
X37028D01*
Y29604D02*
Y30096D01*
X37844D02*
X38636D01*
Y29604D02*
Y30096D01*
X37844Y29604D02*
X38636D01*
X37844D02*
Y30096D01*
X15324Y22970D02*
Y23167D01*
Y22970D02*
X15718D01*
Y23167D01*
X15324D02*
X15718D01*
X3944Y21572D02*
X8669D01*
X3944D02*
Y26296D01*
X8669D01*
Y21572D02*
Y26296D01*
X2223Y23447D02*
X2420D01*
X2223Y23053D02*
Y23447D01*
Y23053D02*
X2420D01*
Y23447D01*
X3944Y15472D02*
X8669D01*
X3944D02*
Y20196D01*
X8669D01*
Y15472D02*
Y20196D01*
X2223Y17247D02*
X2420D01*
X2223Y16853D02*
Y17247D01*
Y16853D02*
X2420D01*
Y17247D01*
X3944Y9422D02*
X8669D01*
X3944D02*
Y14146D01*
X8669D01*
Y9422D02*
Y14146D01*
X2223Y11297D02*
X2420D01*
X2223Y10903D02*
Y11297D01*
Y10903D02*
X2420D01*
Y11297D01*
X30928Y6059D02*
X31302Y5685D01*
X30141Y6059D02*
X31302D01*
X30141Y5541D02*
Y6059D01*
Y5541D02*
X31302D01*
Y6059D01*
X29523Y5853D02*
X29720D01*
Y6247D01*
X29523D02*
X29720D01*
X29523Y5853D02*
Y6247D01*
X28624Y6152D02*
Y6348D01*
Y6152D02*
X29018D01*
Y6348D01*
X28624D02*
X29018D01*
X9225Y44106D02*
X9717D01*
Y43315D02*
Y44106D01*
X9225Y43315D02*
X9717D01*
X9225D02*
Y44106D01*
X26574Y25252D02*
X26968D01*
X26574D02*
Y25448D01*
X26968D01*
Y25252D02*
Y25448D01*
X4774Y54786D02*
X5168D01*
Y54589D02*
Y54786D01*
X4774Y54589D02*
X5168D01*
X4774D02*
Y54786D01*
X38195Y28279D02*
X39101Y27374D01*
X36542Y28279D02*
X39101D01*
X36542Y26901D02*
Y28279D01*
Y26901D02*
X39101D01*
Y28279D01*
X10809Y42353D02*
Y44479D01*
Y42353D02*
X12234D01*
Y44479D01*
X10809D02*
X12234D01*
X10809Y44056D02*
X11232Y44479D01*
X43367Y46566D02*
X44351D01*
Y48535D01*
X43367D02*
X44351D01*
X43367Y46566D02*
Y48535D01*
X48668Y46562D02*
X49652D01*
Y48531D01*
X48668D02*
X49652D01*
X48668Y46562D02*
Y48531D01*
X53614Y36937D02*
Y49858D01*
X50953Y36937D02*
X53614D01*
X50953D02*
Y49858D01*
X53614D01*
X52283D02*
Y53240D01*
Y33555D02*
Y36937D01*
X42638Y50551D02*
X47638D01*
X42638D02*
Y55551D01*
X47638D01*
Y50551D02*
Y55551D01*
X43317Y42383D02*
X44301D01*
Y44351D01*
X43317D02*
X44301D01*
X43317Y42383D02*
Y44351D01*
X48668Y42317D02*
X49652D01*
Y44285D01*
X48668D02*
X49652D01*
X48668Y42317D02*
Y44285D01*
X43317Y38089D02*
X44301D01*
Y40057D01*
X43317D02*
X44301D01*
X43317Y38089D02*
Y40057D01*
X48668Y38199D02*
X49652D01*
Y40168D01*
X48668D02*
X49652D01*
X48668Y38199D02*
Y40168D01*
X43306Y33974D02*
X44290D01*
Y35943D01*
X43306D02*
X44290D01*
X43306Y33974D02*
Y35943D01*
X48668Y33906D02*
X49652D01*
Y35874D01*
X48668D02*
X49652D01*
X48668Y33906D02*
Y35874D01*
M02*
