G04*
G04 #@! TF.GenerationSoftware,Altium Limited,Altium Designer,20.2.4 (192)*
G04*
G04 Layer_Color=16711935*
%FSLAX24Y24*%
%MOIN*%
G70*
G04*
G04 #@! TF.SameCoordinates,88804F16-18CD-4051-863E-DBC97BB31399*
G04*
G04*
G04 #@! TF.FilePolarity,Negative*
G04*
G01*
G75*
%ADD40R,0.0395X0.0474*%
%ADD43R,0.0316X0.0356*%
%ADD49R,0.0356X0.0316*%
%ADD50R,0.0474X0.0316*%
%ADD53R,0.0474X0.0395*%
%ADD59C,0.1600*%
%ADD60C,0.0690*%
%ADD61C,0.0946*%
%ADD62R,0.0592X0.0592*%
%ADD63C,0.0631*%
%ADD64R,0.0592X0.0592*%
%ADD65C,0.0592*%
%ADD66C,0.0710*%
%ADD67C,0.1340*%
%ADD68C,0.0848*%
%ADD69C,0.1655*%
%ADD70C,0.0749*%
%ADD71C,0.1987*%
%ADD72C,0.0966*%
%ADD73R,0.0780X0.0780*%
%ADD74C,0.0780*%
%ADD75R,0.0513X0.0513*%
%ADD76C,0.0513*%
%ADD77C,0.0789*%
%ADD78C,0.1497*%
%ADD79C,0.0867*%
%ADD80R,0.0676X0.0676*%
%ADD81C,0.0676*%
%ADD82C,0.1064*%
%ADD83C,0.0580*%
%ADD123R,0.0336X0.0332*%
%ADD124R,0.0336X0.0789*%
%ADD125R,0.0781X0.0363*%
%ADD126R,0.0734X0.0647*%
%ADD127R,0.0926X0.0946*%
D40*
X47841Y51850D02*
D03*
X48471D02*
D03*
D43*
X51471Y51433D02*
D03*
Y51867D02*
D03*
X5315Y60925D02*
D03*
Y61358D02*
D03*
X5079Y60197D02*
D03*
Y59764D02*
D03*
D49*
X5965Y61772D02*
D03*
X6398D02*
D03*
X8661Y61496D02*
D03*
X9094D02*
D03*
X9076Y62165D02*
D03*
X8643D02*
D03*
X8366Y57323D02*
D03*
X7933D02*
D03*
X9114D02*
D03*
X9547D02*
D03*
X12755Y54438D02*
D03*
X13188D02*
D03*
X14738Y55700D02*
D03*
X14305D02*
D03*
X15551Y60827D02*
D03*
X15984D02*
D03*
X14882Y60866D02*
D03*
X14449D02*
D03*
D50*
X7992Y61398D02*
D03*
Y62146D02*
D03*
X7087Y61772D02*
D03*
D53*
X47121Y53050D02*
D03*
Y52420D02*
D03*
D59*
X57425Y12479D02*
D03*
X68095Y32799D02*
D03*
D60*
X669Y47811D02*
D03*
Y46811D02*
D03*
X82929Y18134D02*
D03*
Y19134D02*
D03*
X83929Y18134D02*
D03*
Y19134D02*
D03*
X84929Y18134D02*
D03*
Y19134D02*
D03*
X81929Y18134D02*
D03*
Y19134D02*
D03*
X79929D02*
D03*
Y18134D02*
D03*
X78929Y19134D02*
D03*
Y18134D02*
D03*
X77929Y19134D02*
D03*
Y18134D02*
D03*
X80929Y19134D02*
D03*
Y18134D02*
D03*
X48721Y24000D02*
D03*
Y23000D02*
D03*
Y22000D02*
D03*
Y21000D02*
D03*
Y20000D02*
D03*
Y19000D02*
D03*
X69588Y12200D02*
D03*
X70588D02*
D03*
X71588D02*
D03*
X72588D02*
D03*
X73588D02*
D03*
X74588D02*
D03*
X75588D02*
D03*
X76588D02*
D03*
X77588D02*
D03*
X5459Y32618D02*
D03*
X4459D02*
D03*
D61*
X85165Y36850D02*
D03*
X77693D02*
D03*
D62*
X41248Y35544D02*
D03*
X46621Y35555D02*
D03*
X41259Y39758D02*
D03*
X46621Y39769D02*
D03*
X41259Y43982D02*
D03*
X46621Y43914D02*
D03*
X41259Y48186D02*
D03*
X46621Y48119D02*
D03*
D63*
X41248Y34166D02*
D03*
X46621Y34177D02*
D03*
X41259Y38380D02*
D03*
X46621Y38391D02*
D03*
X41259Y42604D02*
D03*
X46621Y42536D02*
D03*
X41259Y46808D02*
D03*
X46621Y46741D02*
D03*
D64*
X7943Y36715D02*
D03*
D65*
Y39715D02*
D03*
X4943D02*
D03*
Y38715D02*
D03*
Y37715D02*
D03*
D66*
X28321Y24019D02*
D03*
X27321D02*
D03*
X26321D02*
D03*
X25321D02*
D03*
X24321D02*
D03*
X23321D02*
D03*
X22321D02*
D03*
X21321D02*
D03*
X20321D02*
D03*
X19321D02*
D03*
X18321D02*
D03*
X17321D02*
D03*
X16321D02*
D03*
X15321D02*
D03*
X14321D02*
D03*
X13321D02*
D03*
D67*
X69588Y5200D02*
D03*
X77588D02*
D03*
D68*
X49121Y59350D02*
D03*
X45373D02*
D03*
X58111D02*
D03*
X54363D02*
D03*
D69*
X72491Y46467D02*
D03*
X83121Y61000D02*
D03*
X65371D02*
D03*
X83257Y3351D02*
D03*
X23021Y54900D02*
D03*
X50671Y2100D02*
D03*
X40762Y24019D02*
D03*
Y11656D02*
D03*
X2921Y3000D02*
D03*
D70*
X18781Y58803D02*
D03*
X17691D02*
D03*
X16600D02*
D03*
X15510D02*
D03*
X14419D02*
D03*
X13329D02*
D03*
X12238D02*
D03*
X11148D02*
D03*
X10057D02*
D03*
X8967D02*
D03*
X7876D02*
D03*
X6785D02*
D03*
X5695D02*
D03*
X18236Y59921D02*
D03*
X17146D02*
D03*
X16055D02*
D03*
X14965D02*
D03*
X13874D02*
D03*
X12783D02*
D03*
X11693D02*
D03*
X10602D02*
D03*
X9512D02*
D03*
X8421D02*
D03*
X7331D02*
D03*
X6240D02*
D03*
X8185Y51200D02*
D03*
Y50200D02*
D03*
Y49200D02*
D03*
Y48200D02*
D03*
D71*
X21498Y59362D02*
D03*
X2978D02*
D03*
D72*
X29354Y55994D02*
D03*
Y61900D02*
D03*
X37621D02*
D03*
Y55994D02*
D03*
D73*
X34421Y27400D02*
D03*
Y7400D02*
D03*
D74*
Y28400D02*
D03*
X33421Y27400D02*
D03*
Y28400D02*
D03*
X32421Y27400D02*
D03*
Y28400D02*
D03*
X31421Y27400D02*
D03*
Y28400D02*
D03*
X30421Y27400D02*
D03*
Y28400D02*
D03*
X29421Y27400D02*
D03*
Y28400D02*
D03*
X28421Y27400D02*
D03*
Y28400D02*
D03*
X27421Y27400D02*
D03*
Y28400D02*
D03*
X26421Y27400D02*
D03*
Y28400D02*
D03*
X25421Y27400D02*
D03*
Y28400D02*
D03*
X24421Y27400D02*
D03*
Y28400D02*
D03*
X23421Y27400D02*
D03*
Y28400D02*
D03*
X22421Y27400D02*
D03*
Y28400D02*
D03*
X21421Y27400D02*
D03*
Y28400D02*
D03*
X20421Y27400D02*
D03*
Y28400D02*
D03*
X19421Y27400D02*
D03*
Y28400D02*
D03*
X18421Y27400D02*
D03*
Y28400D02*
D03*
X17421Y27400D02*
D03*
Y28400D02*
D03*
X16421Y27400D02*
D03*
Y28400D02*
D03*
X15421Y27400D02*
D03*
Y28400D02*
D03*
X14421Y27400D02*
D03*
Y28400D02*
D03*
X13421Y27400D02*
D03*
Y28400D02*
D03*
X12421Y27400D02*
D03*
Y28400D02*
D03*
X11421Y27400D02*
D03*
Y28400D02*
D03*
X10421Y27400D02*
D03*
Y28400D02*
D03*
Y8400D02*
D03*
Y7400D02*
D03*
X11421Y8400D02*
D03*
Y7400D02*
D03*
X12421Y8400D02*
D03*
Y7400D02*
D03*
X13421Y8400D02*
D03*
Y7400D02*
D03*
X14421Y8400D02*
D03*
Y7400D02*
D03*
X15421Y8400D02*
D03*
Y7400D02*
D03*
X16421Y8400D02*
D03*
Y7400D02*
D03*
X17421Y8400D02*
D03*
Y7400D02*
D03*
X18421Y8400D02*
D03*
Y7400D02*
D03*
X19421Y8400D02*
D03*
Y7400D02*
D03*
X20421Y8400D02*
D03*
Y7400D02*
D03*
X21421Y8400D02*
D03*
Y7400D02*
D03*
X22421Y8400D02*
D03*
Y7400D02*
D03*
X23421Y8400D02*
D03*
Y7400D02*
D03*
X24421Y8400D02*
D03*
Y7400D02*
D03*
X25421Y8400D02*
D03*
Y7400D02*
D03*
X26421Y8400D02*
D03*
Y7400D02*
D03*
X27421Y8400D02*
D03*
Y7400D02*
D03*
X28421Y8400D02*
D03*
Y7400D02*
D03*
X29421Y8400D02*
D03*
Y7400D02*
D03*
X30421Y8400D02*
D03*
Y7400D02*
D03*
X31421Y8400D02*
D03*
Y7400D02*
D03*
X32421Y8400D02*
D03*
Y7400D02*
D03*
X33421Y8400D02*
D03*
Y7400D02*
D03*
X34421Y8400D02*
D03*
D75*
X8418Y45354D02*
D03*
D76*
Y43976D02*
D03*
D77*
X6706Y30767D02*
D03*
X5721D02*
D03*
X4737D02*
D03*
D78*
X7650Y28011D02*
D03*
X3792D02*
D03*
D79*
X6306Y25706D02*
D03*
Y22163D02*
D03*
Y19606D02*
D03*
Y16063D02*
D03*
Y13556D02*
D03*
Y10013D02*
D03*
D80*
X52283Y53606D02*
D03*
D81*
Y33189D02*
D03*
D82*
X36516Y43122D02*
D03*
Y50996D02*
D03*
X12071Y47650D02*
D03*
Y38595D02*
D03*
D83*
X69173Y49173D02*
D03*
X67423D02*
D03*
X65673D02*
D03*
X80201Y41102D02*
D03*
X81951D02*
D03*
X83701D02*
D03*
X74409Y41295D02*
D03*
Y39545D02*
D03*
Y37795D02*
D03*
X83071Y33815D02*
D03*
Y32065D02*
D03*
Y30315D02*
D03*
X77598Y31650D02*
D03*
Y29900D02*
D03*
Y28150D02*
D03*
X77717Y38776D02*
D03*
X79646Y37480D02*
D03*
X77717Y35276D02*
D03*
X79689Y49961D02*
D03*
X81439D02*
D03*
X83189D02*
D03*
X32874Y44134D02*
D03*
Y45884D02*
D03*
Y47634D02*
D03*
X30236Y49646D02*
D03*
Y51396D02*
D03*
Y53146D02*
D03*
X35630Y37559D02*
D03*
Y39309D02*
D03*
Y41059D02*
D03*
X630Y61024D02*
D03*
Y59274D02*
D03*
Y57524D02*
D03*
Y55774D02*
D03*
Y54024D02*
D03*
X512Y39449D02*
D03*
Y37699D02*
D03*
Y35949D02*
D03*
Y34199D02*
D03*
Y30699D02*
D03*
Y32449D02*
D03*
X591Y22205D02*
D03*
Y20455D02*
D03*
Y18705D02*
D03*
Y16955D02*
D03*
Y13455D02*
D03*
Y15205D02*
D03*
X2520Y8110D02*
D03*
X4646Y5906D02*
D03*
X17283Y56772D02*
D03*
X21811Y57362D02*
D03*
X14685Y61496D02*
D03*
X9567Y56732D02*
D03*
X14685Y54528D02*
D03*
X10591Y61968D02*
D03*
X5630Y57559D02*
D03*
X5354Y56850D02*
D03*
X83746Y10866D02*
D03*
X85496D02*
D03*
X81642Y13848D02*
D03*
X83392D02*
D03*
X85142D02*
D03*
X78189Y20148D02*
D03*
X71189D02*
D03*
X72939D02*
D03*
X74689D02*
D03*
X76439D02*
D03*
X78150Y23386D02*
D03*
X71150D02*
D03*
X72900D02*
D03*
X74650D02*
D03*
X76400D02*
D03*
X81573Y23484D02*
D03*
X83323D02*
D03*
X85073D02*
D03*
X73189Y27441D02*
D03*
X79744Y16467D02*
D03*
X80748Y15945D02*
D03*
X78248Y17112D02*
D03*
X52470Y31722D02*
D03*
X51211Y31516D02*
D03*
X51179Y29700D02*
D03*
X65621Y20800D02*
D03*
X64557Y21988D02*
D03*
X63091Y22913D02*
D03*
X67371Y20800D02*
D03*
X59675Y27028D02*
D03*
X53386Y29813D02*
D03*
X46221Y30767D02*
D03*
X39221Y31800D02*
D03*
X42921Y30767D02*
D03*
X40521D02*
D03*
X9596Y30846D02*
D03*
X44729Y15642D02*
D03*
X43321Y14500D02*
D03*
X38821Y9300D02*
D03*
X54871Y48500D02*
D03*
X53371Y49600D02*
D03*
X56845Y19650D02*
D03*
Y21400D02*
D03*
X57021Y17700D02*
D03*
X42321Y8500D02*
D03*
X41021Y7200D02*
D03*
X80771Y7800D02*
D03*
X82521D02*
D03*
X66971Y8900D02*
D03*
X68721D02*
D03*
X75221Y5700D02*
D03*
X72953Y5748D02*
D03*
X37221Y8000D02*
D03*
X23071Y9900D02*
D03*
X21321D02*
D03*
X20871Y5600D02*
D03*
X19121D02*
D03*
X10221Y9300D02*
D03*
X9021Y14200D02*
D03*
X11250Y40344D02*
D03*
X3921Y42800D02*
D03*
X4521Y49900D02*
D03*
X5721Y52400D02*
D03*
X11496Y60984D02*
D03*
X16721Y60700D02*
D03*
X13621Y41700D02*
D03*
Y43450D02*
D03*
X11521Y34900D02*
D03*
X13271D02*
D03*
X16421Y29600D02*
D03*
X5421Y17800D02*
D03*
X7171D02*
D03*
X5421Y23900D02*
D03*
X7171D02*
D03*
X7019Y46491D02*
D03*
X14371Y50700D02*
D03*
X12621D02*
D03*
X9221Y54600D02*
D03*
X18371Y55800D02*
D03*
X20121D02*
D03*
X4371Y61100D02*
D03*
X2621D02*
D03*
X21471Y60900D02*
D03*
X19721D02*
D03*
X17621Y54200D02*
D03*
X36321Y10400D02*
D03*
X44021D02*
D03*
X36621Y9600D02*
D03*
X26121Y4900D02*
D03*
X62071Y5700D02*
D03*
Y7450D02*
D03*
X64833Y7106D02*
D03*
X58110Y16142D02*
D03*
X64606Y12234D02*
D03*
X59961Y16732D02*
D03*
X66971Y27350D02*
D03*
Y29100D02*
D03*
X73704Y31165D02*
D03*
Y32915D02*
D03*
Y34665D02*
D03*
X66971Y36100D02*
D03*
Y37850D02*
D03*
Y39600D02*
D03*
Y41350D02*
D03*
Y43100D02*
D03*
Y25600D02*
D03*
X61571Y34250D02*
D03*
Y36000D02*
D03*
Y37750D02*
D03*
Y39500D02*
D03*
Y41250D02*
D03*
Y43000D02*
D03*
Y44750D02*
D03*
Y46500D02*
D03*
Y48250D02*
D03*
Y50000D02*
D03*
Y32500D02*
D03*
X49521Y53500D02*
D03*
X56245Y9118D02*
D03*
Y7368D02*
D03*
Y5618D02*
D03*
X53421Y10850D02*
D03*
Y9100D02*
D03*
Y7350D02*
D03*
X33171Y3650D02*
D03*
X45021Y6600D02*
D03*
X57121Y28050D02*
D03*
X51021Y27350D02*
D03*
X51071Y28100D02*
D03*
X51021Y28950D02*
D03*
X44921Y28750D02*
D03*
X45921Y7700D02*
D03*
X45321Y11700D02*
D03*
X51721Y18000D02*
D03*
X52621Y19700D02*
D03*
X50721Y21300D02*
D03*
Y23050D02*
D03*
Y24800D02*
D03*
X44971Y22450D02*
D03*
Y20700D02*
D03*
Y24200D02*
D03*
X43421Y25100D02*
D03*
X44971Y27700D02*
D03*
X28521Y21750D02*
D03*
X26771D02*
D03*
X30271D02*
D03*
X32021D02*
D03*
X33771D02*
D03*
X35521D02*
D03*
X16971Y14600D02*
D03*
X15221D02*
D03*
X18721D02*
D03*
X20471D02*
D03*
X22221D02*
D03*
X23971D02*
D03*
X26071Y17200D02*
D03*
X24321D02*
D03*
X27821D02*
D03*
X29571D02*
D03*
X31321D02*
D03*
X33071D02*
D03*
X16371Y19650D02*
D03*
X14621D02*
D03*
X18121D02*
D03*
X19871D02*
D03*
X21621D02*
D03*
X23371D02*
D03*
X5121Y26900D02*
D03*
X5221Y20950D02*
D03*
Y14800D02*
D03*
X8521Y7850D02*
D03*
X57121Y45550D02*
D03*
Y43800D02*
D03*
Y42050D02*
D03*
Y40300D02*
D03*
Y38550D02*
D03*
Y36800D02*
D03*
Y35050D02*
D03*
Y33300D02*
D03*
Y31550D02*
D03*
Y29800D02*
D03*
X28471Y4650D02*
D03*
X1347Y53226D02*
D03*
X3421Y53850D02*
D03*
X1021Y51900D02*
D03*
X3271Y52950D02*
D03*
X7421Y54250D02*
D03*
X2121Y56550D02*
D03*
D123*
X77313Y11181D02*
D03*
X77677D02*
D03*
X77313Y10630D02*
D03*
X77677D02*
D03*
X50511Y51950D02*
D03*
X50876D02*
D03*
X13757Y54472D02*
D03*
X14121D02*
D03*
D124*
X47971Y56460D02*
D03*
X48471D02*
D03*
X48971D02*
D03*
X49471D02*
D03*
X49971D02*
D03*
X50471D02*
D03*
X50971D02*
D03*
X51471D02*
D03*
Y52740D02*
D03*
X50971D02*
D03*
X50471D02*
D03*
X49971D02*
D03*
X49471D02*
D03*
X48971D02*
D03*
X48471D02*
D03*
X47971D02*
D03*
D125*
X13507Y55200D02*
D03*
Y55700D02*
D03*
Y56200D02*
D03*
Y56700D02*
D03*
X11371D02*
D03*
Y56200D02*
D03*
Y55700D02*
D03*
Y55200D02*
D03*
D126*
X9471Y43250D02*
D03*
Y44030D02*
D03*
D127*
X11521Y44282D02*
D03*
Y42550D02*
D03*
M02*
