G04*
G04 #@! TF.GenerationSoftware,Altium Limited,Altium Designer,20.2.4 (192)*
G04*
G04 Layer_Color=8421504*
%FSLAX24Y24*%
%MOIN*%
G70*
G04*
G04 #@! TF.SameCoordinates,88804F16-18CD-4051-863E-DBC97BB31399*
G04*
G04*
G04 #@! TF.FilePolarity,Positive*
G04*
G01*
G75*
%ADD17R,0.0630X0.0965*%
%ADD18R,0.0571X0.0394*%
%ADD19R,0.0315X0.0394*%
%ADD20R,0.0252X0.0256*%
%ADD21R,0.0811X0.0638*%
%ADD22R,0.0236X0.0276*%
%ADD23R,0.0354X0.0394*%
%ADD24R,0.0638X0.0811*%
%ADD25R,0.0567X0.0654*%
%ADD26R,0.0472X0.0413*%
%ADD27R,0.0413X0.0472*%
%ADD28R,0.0276X0.0236*%
%ADD29R,0.0394X0.0236*%
%ADD30R,0.0335X0.0433*%
%ADD31R,0.0394X0.0354*%
%ADD32R,0.0394X0.0315*%
%ADD33R,0.0787X0.0591*%
%ADD34R,0.1260X0.0689*%
%ADD35R,0.0472X0.0689*%
%ADD36R,0.1063X0.0413*%
%ADD37R,0.1772X0.2756*%
D17*
X1761Y48847D02*
D03*
Y47154D02*
D03*
D18*
X579Y49154D02*
D03*
Y49902D02*
D03*
X1654Y49921D02*
D03*
Y50669D02*
D03*
X5443Y45679D02*
D03*
Y44931D02*
D03*
D19*
X5996Y41855D02*
D03*
X6626D02*
D03*
D20*
X25321Y5486D02*
D03*
Y5850D02*
D03*
X28821Y5340D02*
D03*
Y5704D02*
D03*
X2321Y24964D02*
D03*
Y24600D02*
D03*
X2371Y18764D02*
D03*
Y18400D02*
D03*
X2321Y12764D02*
D03*
Y12400D02*
D03*
D21*
X7078Y33484D02*
D03*
Y34586D02*
D03*
X5331Y51902D02*
D03*
Y50800D02*
D03*
X6035Y48500D02*
D03*
Y49602D02*
D03*
D22*
X73386Y10846D02*
D03*
Y11280D02*
D03*
X72598Y13209D02*
D03*
Y13642D02*
D03*
X74606D02*
D03*
Y13209D02*
D03*
X75551Y10846D02*
D03*
Y11280D02*
D03*
X25945Y5967D02*
D03*
Y5533D02*
D03*
X5771Y55033D02*
D03*
Y55467D02*
D03*
X2321Y23033D02*
D03*
Y23467D02*
D03*
Y16833D02*
D03*
Y17267D02*
D03*
Y10883D02*
D03*
Y11317D02*
D03*
X29621Y6267D02*
D03*
Y5833D02*
D03*
D23*
X8209Y33647D02*
D03*
X8839D02*
D03*
D24*
X9085Y34498D02*
D03*
X7982D02*
D03*
D25*
X4528Y41919D02*
D03*
X5307D02*
D03*
X6114Y47674D02*
D03*
X5335D02*
D03*
X36951Y29850D02*
D03*
X36171D02*
D03*
X37921D02*
D03*
X38701D02*
D03*
D26*
X7579Y41890D02*
D03*
X8327D02*
D03*
X4387Y48515D02*
D03*
X5135D02*
D03*
D27*
X5974Y44163D02*
D03*
Y43415D02*
D03*
D28*
X3488Y56150D02*
D03*
X3055D02*
D03*
X25338Y6406D02*
D03*
X24905D02*
D03*
X15738Y23069D02*
D03*
X15305D02*
D03*
X29038Y6250D02*
D03*
X28605D02*
D03*
X26988Y25350D02*
D03*
X26555D02*
D03*
X4755Y54688D02*
D03*
X5188D02*
D03*
D29*
X5121Y55750D02*
D03*
X4216Y56124D02*
D03*
Y55376D02*
D03*
D30*
X27393Y6283D02*
D03*
X26645D02*
D03*
X27019Y5417D02*
D03*
X30721Y5367D02*
D03*
X30347Y6233D02*
D03*
X31095D02*
D03*
D31*
X6181Y51030D02*
D03*
Y50400D02*
D03*
D32*
X4435Y47120D02*
D03*
Y47750D02*
D03*
D33*
X9121Y22950D02*
D03*
X3491D02*
D03*
X9121Y24918D02*
D03*
X3491D02*
D03*
X9121Y16850D02*
D03*
X3491D02*
D03*
X9121Y18819D02*
D03*
X3491D02*
D03*
X9121Y10800D02*
D03*
X3491D02*
D03*
X9121Y12768D02*
D03*
X3491D02*
D03*
D34*
X37821Y26350D02*
D03*
D35*
X36916Y28830D02*
D03*
X37821D02*
D03*
X38727D02*
D03*
D36*
X43859Y48515D02*
D03*
Y46586D02*
D03*
X49160Y48511D02*
D03*
Y46582D02*
D03*
X43809Y44332D02*
D03*
Y42402D02*
D03*
X49160Y44266D02*
D03*
Y42336D02*
D03*
X43809Y40037D02*
D03*
Y38108D02*
D03*
X49160Y40148D02*
D03*
Y38219D02*
D03*
X43798Y35923D02*
D03*
Y33994D02*
D03*
X49160Y35855D02*
D03*
Y33926D02*
D03*
D37*
X47146Y53051D02*
D03*
X43130D02*
D03*
M02*
