M48
;Layer_Color=9474304
;FILE_FORMAT=2:4
INCH,LZ
;TYPE=PLATED
T1F00S00C0.0276
T2F00S00C0.0280
T3F00S00C0.0295
T4F00S00C0.0315
T5F00S00C0.0327
T6F00S00C0.0335
T7F00S00C0.0394
T8F00S00C0.0400
T9F00S00C0.0402
T10F00S00C0.0413
T11F00S00C0.0433
T12F00S00C0.0496
T13F00S00C0.0512
T14F00S00C0.0551
T15F00S00C0.0732
T16F00S00C0.1181
T17F00S00C0.3012
;TYPE=NON_PLATED
T18F00S00C0.0315
T19F00S00C0.1200
T20F00S00C0.1720
T21F00S00C0.1900
T22F00S00C0.2756
%
T01
X083022Y014636
X084006
X078802Y039041
Y040419
X036767Y090709
Y091209
X036267
X035767
X035267
X034767
Y090709
X035267
X035767
X036267
X034267
Y091209
X033767
X033267
Y090709
X033767
T02
X080846Y034823
T03
X028642Y007411
Y008169
Y008957
Y009744
X02924Y010176
X030027
X030814
X031602
X032185Y009843
Y009055
Y008268
Y00748
X031648Y007246
X03086
X030073
X029286
X047134Y007411
Y008169
Y008957
Y009744
X047732Y010176
X048519
X049307
X050094
X05014Y007246
X049353
X048566
X047778
X050678Y00748
Y008268
Y009055
Y009843
X06563Y009744
Y008957
Y008169
Y007411
X066274Y007246
X067061
X067849
X068636
X069173Y00748
Y008268
Y009055
Y009843
X06859Y010176
X067803
X067015
X066228
X072037Y019606
X082982Y021457
X08373Y026142
X084006Y030748
X085069Y036063
X086422Y034868
X079242Y032047
X080069Y027087
X080502Y023543
X075856Y022874
X075935Y029252
X072282Y026709
X071762Y032913
X061949Y033081
X01815Y030728
X017126
X016102
X015138
X015472Y028819
Y027874
Y026831
Y025807
X01437
Y026831
Y027874
Y028819
X013287Y028799
Y027835
Y026811
Y025787
X016575Y025807
Y026831
Y027874
Y028819
X012835Y030728
X011811
X010787
X009823
X009921Y028858
Y027913
Y02687
Y025846
X008819
Y02687
Y027913
Y028858
X007717
Y027913
Y02687
Y025846
X006634Y025827
Y02685
Y027874
Y028839
X00626Y030689
X005236
X004272
X007283
X018976Y046138
X019587Y045911
X019872Y046394
X020443Y046148
X021447Y045941
X022441Y046236
X022943Y04661
X023652Y046502
X023376Y047102
X023691Y047762
X023671Y04852
X023533Y049366
X023051Y049927
X022392Y0504
X021299Y050636
X020276Y050429
X019646Y050675
X019567Y049996
X018996Y050291
X018976Y049366
X018986Y048539
X018996Y047752
X019301Y046748
X02313Y04597
X027904Y045961
X027894Y046876
X027411Y046512
X028406Y046394
X029134Y04601
X03003Y045931
X030827Y04598
X031407Y046394
X032195Y046276
X03188Y046896
X032539Y046994
X032175Y047555
X032244Y048264
X032224Y048913
X03188Y049514
X031457Y050045
X031919Y050498
X032392Y049976
X030876Y0504
X029921Y050626
X029124Y050469
X028455Y050163
X027943Y04977
X027579Y049006
X027589Y048307
X027618Y047559
X024749Y053567
X022027Y052966
X021161Y052392
X020748Y05375
X01939Y053465
X019144Y051811
X03749Y050311
X038061Y050016
X03814Y050695
X03877Y050449
X039793Y050656
X040886Y050419
X041545Y049947
X042028Y049386
X042165Y048539
X042185Y047782
X04187Y047122
X042146Y046522
X041437Y04663
X041624Y04599
X040935Y046256
X039941Y045961
X038937Y046167
X038366Y046413
X038081Y045931
X03747Y046157
X037795Y046768
X03749Y047772
X03748Y048559
X03747Y049386
X040236Y051798
X03997Y053472
X043132Y053508
X042362Y052192
X046427Y04978
X046939Y050173
X047608Y050478
X048406Y050636
X04936Y050409
X049941Y050055
X049892Y046404
X049311Y04599
X048514Y045941
X047618Y04602
X04689Y046404
X046388Y04597
X046378Y046886
X045896Y046522
X046102Y047569
X046073Y048317
X046063Y049016
X050709Y048923
X050728Y048274
X050659Y047565
X051024Y047004
X050364Y046906
X050679Y046285
X050364Y049524
X050876Y049986
X050404Y050508
X055994Y050301
X056565Y050006
X056644Y050685
X057274Y050439
X058297Y050646
X05939Y050409
X060049Y049937
X060532Y049376
X060669Y04853
X060689Y047772
X060374Y047112
X06065Y046512
X059941Y04662
X060128Y04598
X059439Y046246
X058445Y045951
X057441Y046157
X05687Y046404
X056585Y045921
X055974Y046148
X056299Y046758
X055994Y047762
X055984Y048549
X055974Y049376
X058819Y053504
X059685
X061102Y051789
X065289Y053252
X065512Y050193
X065Y049799
X064636Y049035
X064646Y048337
X064675Y047589
X064951Y046906
X064468Y046541
X064961Y04599
X065463Y046423
X066191Y046039
X067087Y045961
X067884Y04601
X068465Y046423
X069252Y046305
X068937Y046925
X069596Y047024
X069232Y047585
X069301Y048293
X069282Y048943
X068937Y049543
X068514Y050075
X068976Y050528
X069449Y050006
X067933Y050429
X066978Y050656
X066181Y050498
X067963Y052448
X069196Y053537
X070335Y053295
X071457Y052717
X072155Y051309
X072313Y049675
X07563Y050148
X075138Y051929
X077037Y051624
X077697Y051811
X077884Y052904
X080059Y052913
X081093Y053661
X080285Y050354
X078366Y047589
X076929Y048337
X077116Y046181
X073573Y045157
X074478Y04374
X076801Y040108
X081368Y041457
X074222Y053238
X082096Y051644
X083415Y042087
X082274Y058819
X082825Y059646
X084045Y059606
X081486Y059646
X084518Y065778
X083681Y066663
X085128Y069311
X081407Y065541
X078917Y065069
X079331Y067116
X077874Y068799
X074429Y06748
X070692Y067717
X070463Y065748
X067363Y065915
X06814Y06937
X066289Y058926
X069154Y057844
X069144Y05687
X069724Y055817
X069596Y054613
X066939Y054449
X074803Y053858
X075098Y056063
X07503Y05815
X073809Y058346
X072392Y059606
X079321Y058898
X079951Y059724
X080817Y058858
X081122Y057326
X079616Y054411
X077116Y054058
X07626Y064803
X063543Y065039
X062894Y06311
X05936Y064134
X060137Y065738
X06069Y068595
X063356Y068986
X05811Y06938
X052143Y066461
X05107Y066491
X050863Y065103
X050972Y063873
X052117Y064112
X052143Y06526
X057392Y057835
X058169Y057589
X058258Y058642
X061329Y055551
X061535Y054355
X06377Y055197
X064892Y054528
X064114Y057215
X065423Y057894
X049819Y064273
X049367Y06531
X049741Y066461
X048403
X047387Y06641
X047045Y065123
X046586Y064273
X045568Y063715
X045785Y065743
X048245Y064749
X047921Y063528
X048991Y063578
X037756Y068622
X033846Y068292
X025531Y068091
X02378Y068899
X02315Y069409
X021654Y06815
X021407Y066004
X020171Y066047
X020413Y064478
X022234Y064764
X0219Y06378
X022028Y062667
X022067Y060886
X021285Y058825
X020167Y058376
X019882Y059857
X018937Y061132
X019016Y063406
X020256Y062254
X019923Y05668
X019098Y056968
X019468Y055069
X021486Y054577
X021739Y056473
X022726Y058661
X002963Y07188
X001645Y071477
X001683Y072805
X001496Y075049
X002904Y074409
X002047Y07751
X001358Y078652
X004616Y078612
X005256Y080138
X006713Y079892
X006132Y077451
X003957Y076673
X009144Y076407
X008435Y078524
X010659Y077953
X011496Y079449
X01315Y077717
X012116Y076093
X014793Y076004
X013957Y074331
X015472Y07372
X016713Y074094
X010709Y074183
X006772Y073819
X007205Y072677
Y07185
X008029Y071034
X007913Y070236
X009055Y080984
X007539Y082677
X006024Y082756
X027028Y084892
X029439Y084675
X033327Y08502
X019006Y07252
X019902Y071201
X035866Y069764
X038622Y07185
X04061Y071594
X046316Y071136
X047438Y071087
X047359Y069906
X046188Y069995
X048806Y069808
X049899Y069857
X049604Y071727
X048885Y071117
X048167Y071776
X042234Y084823
X036191Y085049
X050982Y079946
X052054Y079965
X052084Y078509
X051011Y078459
X051159Y071589
X050381Y071087
X052064
X052117Y069884
X051101Y069937
X058091Y073307
X056819Y07666
X060286Y07666
X060725Y079179
X056542Y080774
X055669Y082323
X062067Y074094
X063179Y069833
X07131Y073563
X072146Y075
X070571Y076821
X069738Y079849
X078957Y079626
X079547Y080167
X075955Y070886
X074242Y071457
X086093Y070305
X085915Y082096
X086142Y082923
X083642Y079872
X082185Y080148
X081742Y085797
X085205Y085548
X083906Y087451
X080523Y08733
X074774Y087411
X074734Y085797
X069222Y085994
X069183Y087608
X067343Y086644
X066063Y085433
X063976Y085984
X064695Y087766
X061604Y086575
X059459Y086033
X057894Y085896
X058474Y087884
X055607Y086457
X052628Y086654
X051801Y08622
X051132Y086181
X051488Y087205
X052795Y08878
X051526Y090197
X050984Y090669
X049173Y08877
X047992Y08851
Y089855
X047894Y091447
Y092626
X047992Y086722
X039429Y086909
X03812Y08749
X038578Y085748
X040319Y085076
X036654Y08624
X034605Y085443
X034754Y087854
X037756Y092283
X03878Y09311
X027431Y093445
X028278Y089754
X026447Y08972
X026875Y088162
X027303Y086516
X025807Y086053
X025404Y08752
X025039Y089016
X024459Y090453
X023056Y088651
X023425Y086722
X023484Y085285
X020797Y085532
X021437Y087185
X021102Y089508
X019665Y088317
X028652Y087766
X02874Y085748
X030965Y085866
X030541Y087156
X032254Y087638
X033533Y086545
X031061Y089079
X01872Y090089
X018366Y088179
X016142Y086614
X014113Y086365
X012595Y08581
X010596Y085995
X008709Y086069
X008375Y087254
X007746Y088549
X006083Y087992
X005079Y088888
X00608Y090622
X007006Y09214
Y093028
X005817Y092884
X004154Y093287
X00386Y091362
X010596Y091695
X011263Y092621
X012595Y093176
X01452Y093065
X016004Y091988
X011744Y091177
X01241Y089326
X013483Y087957
X011781Y087476
X006525Y086365
X009264Y093176
X002823Y093213
X002825Y091398
X001496Y090679
X001528Y092325
X001231Y088105
X001713Y085403
T04
X082927Y044774
X085927
Y047774
X084927
X083927
T05
X073091Y039132
Y040132
Y041132
Y042132
X076975Y043327
X077975
X078975
X079975
T06
X074549Y009116
Y012116
X077549
Y009116
X081968Y009085
X084969
Y012085
X081968
T07
X010236Y009213
Y01315
X012303Y018799
X009519Y021583
X042874Y087976
Y088976
Y089976
T08
X082053Y061358
Y062358
X083053
Y061358
X084053
Y062358
X081053
X080053
X079053
X078053
X077053
X076053
X075053
X074053
X073053
X072053
X071053
X070053
X069053
X068053
X067053
X066053
Y061358
X067053
X068053
X069053
X070053
X071053
X072053
X073053
X074053
X075053
X076053
X077053
X078053
X079053
X080053
X081053
X065053
X064053
X063053
X062053
X061053
X060053
Y062358
X061053
X062053
X063053
X064053
X065053
Y081358
Y082358
X064053
Y081358
X063053
Y082358
X062053
Y081358
X061053
Y082358
X060053
Y081358
X066053
X067053
X068053
X069053
X070053
X071053
X072053
X073053
X074053
X075053
X076053
X077053
X078053
X079053
X080053
X081053
Y082358
X080053
X079053
X078053
X077053
X076053
X075053
X074053
X073053
X072053
X071053
X070053
X069053
X068053
X067053
X066053
X082053
X083053
X084053
Y081358
X083053
X082053
T09
X073169Y04711
Y04811
X085305Y052244
X086305
X084806Y071089
X083806
Y072089
X084806
Y073089
Y074089
Y075089
X083806
Y076089
Y077089
Y078089
X084806
Y077089
Y076089
X083806Y074089
Y073089
T10
X045Y019528
X047953Y017953
X047795Y026378
X044843Y027953
Y036378
X047795Y034803
T11
X019687Y092648
X020687
X021687
X022687
X023687
X024687
X025687
X026687
X027687
X018687
T12
X016339Y008169
Y009173
Y010177
T13
X002362Y01452
Y018268
X075679Y018435
X079679
X081679
X082679Y036435
X078679
X074679
T14
X048701Y083386
X050669
X066089Y078325
Y070852
T15
X003819Y041478
Y043628
Y045778
Y04894
Y05109
Y05324
Y056402
Y058552
Y060701
Y063864
Y066014
Y068163
T16
X071556Y005906
X073524Y003937
X079036
X077068Y005906
X015354Y005906
X014076Y003937
X008564
X009863Y005906
X071556Y088583
X073524Y090551
X077068Y088583
X079036Y090551
X014076
X016044Y088583
X010532
X008564Y090551
T17
X003543Y036024
X00315Y024094
X003189Y081929
Y087008
T18
X024301Y050913
X02497
X02564
X026309
X026978
X042795
X043465
X044134
X044803
X045472
X061289
X061959
X062628
X063297
X063967
T19
X020904Y008706
X030376
X039398
X04887
X057892
X067364
T20
X068484Y023504
X056772
X04999
X038278
X031496
X019783
Y040679
X031496
X038278
X04999
X056772
X068484
T21
X021346Y04828
X029933
X039841
X048427
X058335
X066921
T22
X038524Y075207
X018204Y085877
M30
