M48
;Layer_Color=9474304
;FILE_FORMAT=2:4
INCH,LZ
;TYPE=PLATED
T1F00S00C0.0276
T2F00S00C0.0280
T3F00S00C0.0315
T4F00S00C0.0354
T5F00S00C0.0398
T6F00S00C0.0400
T7F00S00C0.0402
T8F00S00C0.0472
T9F00S00C0.0512
T10F00S00C0.0551
T11F00S00C0.0591
T12F00S00C0.0945
T13F00S00C0.0984
T14F00S00C0.1272
;TYPE=NON_PLATED
T15F00S00C0.0787
T16F00S00C0.1575
T17F00S00C0.2756
%
T01
X008418Y043976
Y045354
T02
X033171Y00365
X080771Y0078
X082521
X083746Y010866
X085496
X085142Y013848
X083392
X081642
X080748Y015945
X079744Y016467
X078248Y017112
X075221Y0057
X072953Y005748
X068721Y0089
X066971
X064833Y007106
X062071Y00745
Y0057
X064606Y012234
X059961Y016732
X05811Y016142
X057021Y0177
X051721Y018
X053421Y01085
Y0091
Y00735
X056245Y007368
Y009118
Y005618
X045921Y0077
X045021Y0066
X042321Y0085
X041021Y0072
X038821Y0093
X036621Y0096
X036321Y0104
X037221Y008
X044021Y0104
X045321Y0117
X044729Y015642
X043321Y0145
X033071Y0172
X031321
X029571
X027821
X026071
X024321
X023971Y0146
X022221
X020471
X018721
X016971
X015221
X021321Y0099
X023071
X020871Y0056
X019121
X026121Y0049
X028471Y00465
X010221Y0093
X008521Y00785
X004646Y005906
X00252Y00811
X000591Y013455
Y015205
Y016955
Y018705
X005421Y0178
X007171
X005221Y0148
X009021Y0142
X005221Y02095
X005421Y0239
X007171
X005121Y0269
X000512Y030699
Y032449
Y034199
X011521Y0349
X013271
X009596Y030846
X000591Y022205
Y020455
X014621Y01965
X016371
X018121
X019871
X021621
X023371
X026771Y02175
X028521
X016421Y0296
X030271Y02175
X032021
X033771
X035521
X044971Y02245
Y0207
Y0242
X043421Y0251
X044971Y0277
X044921Y02875
X042921Y030767
X040521
X039221Y0318
X046221Y030767
X051211Y031516
X05247Y031722
X053386Y029813
X051179Y0297
X051021Y02895
X051071Y0281
X051021Y02735
X050721Y0248
Y02305
Y0213
X052621Y0197
X056845Y01965
Y0214
X057121Y02805
Y0298
Y03155
Y0333
Y03505
X059675Y027028
X061571Y0325
Y03425
X066971Y0291
Y02735
Y0256
X067371Y0208
X065621
X064557Y021988
X063091Y022913
X07115Y023386
X0729
X07465
X0764
X076439Y020148
X074689
X072939
X071189
X073189Y027441
X073704Y031165
Y032915
Y034665
X077598Y03165
Y0299
Y02815
X07815Y023386
X078189Y020148
X081573Y023484
X083323
X085073
X083071Y030315
Y032065
Y033815
X077717Y035276
Y038776
X079646Y03748
X080201Y041102
X081951
X083701
X083189Y049961
X081439
X079689
X069173Y049173
X067423
X065673
X061571Y05
Y04825
Y0465
Y04475
Y043
Y04125
Y0395
Y03775
Y036
X066971Y0361
Y03785
Y0396
Y04135
Y0431
X074409Y041295
Y039545
Y037795
X057121Y03855
Y0403
Y04205
Y0438
Y04555
X054871Y0485
X053371Y0496
X057121Y0368
X03563Y037559
Y039309
Y041059
X032874Y044134
Y045884
Y047634
X030236Y049646
X014371Y0507
X012621
X013621Y04345
Y0417
X01125Y040344
X003921Y0428
X000512Y039449
Y037699
Y035949
X007019Y046491
X004521Y0499
X005721Y0524
X003271Y05295
X003421Y05385
X001347Y053226
X00063Y054024
Y055774
Y057524
Y059274
Y061024
X002621Y0611
X004371
X00563Y057559
X005354Y05685
X002121Y05655
X001021Y0519
X007421Y05425
X009221Y0546
X009567Y056732
X011496Y060984
X010591Y061968
X014685Y061496
X016721Y0607
X019721Y0609
X021471
X021811Y057362
X020121Y0558
X018371
X017283Y056772
X017621Y0542
X014685Y054528
X030236Y053146
Y051396
X049521Y0535
T03
X004943Y037715
Y038715
Y039715
X007943
Y036715
T04
X041248Y034166
X046621Y034177
Y035555
Y038391
Y039769
Y042536
Y043914
Y046741
Y048119
X041259Y048186
Y046808
Y043982
Y042604
Y039758
Y03838
X041248Y035544
T05
X052283Y033189
Y053606
T06
X030421Y0074
Y0084
X031421
Y0074
X032421
Y0084
X033421
Y0074
X034421
Y0084
X029421
X028421
X027421
X026421
X025421
X024421
X023421
X022421
X021421
X020421
X019421
X018421
X017421
X016421
X015421
X014421
Y0074
X015421
X016421
X017421
X018421
X019421
X020421
X021421
X022421
X023421
X024421
X025421
X026421
X027421
X028421
X029421
X013421
X012421
X011421
X010421
Y0084
X011421
X012421
X013421
Y0274
Y0284
X012421
Y0274
X011421
Y0284
X010421
Y0274
X014421
X015421
X016421
X017421
X018421
X019421
X020421
X021421
X022421
X023421
X024421
X025421
X026421
X027421
X028421
X029421
Y0284
X028421
X027421
X026421
X025421
X024421
X023421
X022421
X021421
X020421
X019421
X018421
X017421
X016421
X015421
X014421
X030421
X031421
X032421
X033421
X034421
Y0274
X033421
X032421
X031421
X030421
T07
X077588Y0122
X077929Y018134
X078929
X079929
Y019134
X078929
X077929
X080929
X081929
X082929
Y018134
X083929
Y019134
X084929
Y018134
X081929
X080929
X076588Y0122
X075588
X074588
X073588
X072588
X071588
X070588
X069588
X048721Y019
X014321Y024019
X013321
X005459Y032618
X004459
X015321Y024019
X016321
X017321
X018321
X019321
X020321
X021321
X022321
X023321
X024321
X025321
X026321
X027321
X028321
X048721Y024
Y023
Y022
Y021
Y02
X008185Y0482
Y0492
Y0502
X000669Y047811
Y046811
X008185Y0512
T08
X004737Y030767
X005721
X006706
X006785Y058803
X007876
X008967
X010057
X011148
X012238
X013329
X012783Y059921
X013874
X011693
X010602
X009512
X008421
X007331
X00624
X005695Y058803
X014419
X01551
X0166
X017691
X018781
X018236Y059921
X017146
X016055
X014965
T09
X045373Y05935
X049121
X054363
X058111
T10
X077693Y03685
X085165
T11
X036516Y043122
X012071Y04765
Y038595
X029354Y055994
Y0619
X037621
Y055994
X036516Y050996
T12
X003792Y028011
X00765
T13
X077588Y0052
X069588
T14
X002978Y059362
X021498
T15
X006306Y010013
Y013556
Y016063
Y019606
Y022163
Y025706
T16
X002921Y003
X050671Y0021
X083257Y003351
X040762Y011656
Y024019
X072491Y046467
X023021Y0549
X065371Y061
X083121
T17
X057425Y012479
X068095Y032799
M30
